<?xml version="1.0" encoding="utf-8"?>
<!-- Generator: Adobe Illustrator 16.0.0, SVG Export Plug-In . SVG Version: 6.00 Build 0)  -->
<!DOCTYPE svg PUBLIC "-//W3C//DTD SVG 1.1//EN" "http://www.w3.org/Graphics/SVG/1.1/DTD/svg11.dtd">
<svg version="1.1" id="Layer_1" xmlns="http://www.w3.org/2000/svg" xmlns:xlink="http://www.w3.org/1999/xlink" x="0px" y="0px"
	 width="577.268px" height="190.921px" viewBox="138.839 215.649 577.268 190.921"
	 enable-background="new 138.839 215.649 577.268 190.921" xml:space="preserve">
<rect fill="none" width="841.89" height="595.277"/>
<g>
	<g>
		<rect x="138.839" y="248.402" width="22.59" height="83.751"/>
		<rect x="138.839" y="215.649" width="22.277" height="21.289"/>
		<path d="M243.25,255.197c-2.003-2.549-4.552-4.662-7.738-6.086c-3.16-1.521-6.938-2.263-11.321-2.263
			c-4.344,0-8.46,0.742-12.368,2.399c-3.986,1.632-7.588,3.609-10.976,6.067v-6.912h-21.062v83.751h22.609v-59.028
			c2.152-2.237,4.604-4.084,7.315-5.423c2.705-1.288,5.748-2.009,8.882-2.009c3.004,0,5.033,0.917,6.216,2.783
			c0.507,1.157,0.917,2.555,1.274,4.324c0.403,1.775,0.579,3.966,0.579,6.509v52.845h22.57v-56.421
			c0-3.993-0.488-7.777-1.509-11.354C246.722,260.841,245.265,257.733,243.25,255.197"/>
		<path d="M291.407,221.8h-22.583v26.595h-11.113v18.864h11.113v46.499c0,6.803,1.951,11.834,5.729,15.078
			c3.811,3.258,8.974,4.857,15.45,4.857c1.853,0,3.537,0,5.091-0.064c1.561-0.071,2.887-0.176,4.044-0.229
			c1.105-0.084,2.309-0.246,3.544-0.428c1.229-0.125,2.692-0.455,4.467-0.82V312.86l-5.533,1.347
			c-1.626,0.396-3.33,0.649-5.124,0.649c-1.548,0-2.776-0.254-3.707-0.649c-0.93-0.338-1.378-1.424-1.378-3.231v-43.716h15.742
			v-18.864h-15.742V221.8L291.407,221.8z"/>
		<path d="M358.707,311.99c-2.62,1.938-5.904,2.867-9.818,2.867c-0.546,0-1.054-0.02-1.542-0.02
			c-2.386-0.183-4.343-0.734-5.872-1.711c-1.847-1.137-3.328-2.588-4.408-4.446c-1.079-1.849-1.859-3.974-2.328-6.334
			c-0.462-2.394-0.858-4.805-1.139-7.283h13.746h34.75V284.25c0-5.514-0.891-10.417-2.842-14.845
			c-1.938-4.383-4.382-8.414-7.504-11.886c-6.411-7.121-14.448-10.671-24.241-10.671h-0.163c-6.358,0.026-11.795,1.184-16.281,3.55
			c-4.565,2.374-8.396,5.573-11.387,9.52c-3.017,3.934-5.176,8.557-6.574,13.811c-1.397,5.254-2.08,10.749-2.08,16.555
			c0,5.625,0.683,11.146,2.08,16.328c1.398,5.156,3.558,9.772,6.419,13.818c2.86,3.997,6.566,7.25,11.105,9.629
			c4.578,2.426,10.001,3.644,16.23,3.644h0.486c7.836-0.039,14.377-1.398,19.787-4.045c2.849-1.296,5.547-3.121,8.089-5.449
			c2.563-2.36,5.046-5.346,7.518-9.045l-16.698-10.527C363.818,307.653,361.354,310.071,358.707,311.99 M335.051,273.125
			c0.56-1.769,1.398-3.245,2.38-4.559c1.027-1.3,2.334-2.315,3.974-2.991c1.611-0.741,3.557-1.099,5.942-1.099
			c4.077,0,7.315,1.281,9.722,3.999c2.263,2.562,3.563,5.95,3.889,10.222h-13.61h-13.603
			C334.043,276.766,334.531,274.886,335.051,273.125"/>
		<rect x="396.493" y="217.197" width="22.57" height="114.956"/>
		<rect x="439.443" y="217.197" width="22.563" height="114.956"/>
		<path d="M521.892,311.99c-2.652,1.938-5.885,2.867-9.785,2.867c-0.561,0-1.055-0.02-1.566-0.02c-2.4-0.183-4.33-0.734-5.879-1.711
			c-1.826-1.137-3.322-2.588-4.383-4.446c-1.105-1.849-1.873-3.947-2.328-6.334c-0.467-2.394-0.871-4.805-1.156-7.283h13.746h34.748
			V284.25c0-5.514-0.922-10.417-2.828-14.845c-1.951-4.383-4.414-8.414-7.535-11.886c-6.398-7.121-14.424-10.671-24.242-10.671
			h-0.143c-6.32,0.026-11.795,1.184-16.289,3.55c-4.598,2.374-8.369,5.573-11.367,9.52c-3.049,3.934-5.168,8.557-6.6,13.811
			c-1.354,5.254-2.063,10.749-2.063,16.555c0,5.625,0.709,11.146,2.063,16.328c1.432,5.156,3.551,9.772,6.443,13.818
			c2.867,3.997,6.563,7.25,11.133,9.629c4.545,2.426,9.955,3.644,16.197,3.644h0.48c7.822-0.039,14.385-1.398,19.795-4.045
			c2.834-1.296,5.525-3.121,8.088-5.449c2.537-2.36,5.021-5.346,7.504-9.045l-16.697-10.527
			C526.992,307.653,524.527,310.071,521.892,311.99 M498.25,273.125c0.533-1.769,1.385-3.245,2.4-4.559
			c1.008-1.3,2.307-2.315,3.934-2.991c1.639-0.741,3.549-1.099,5.955-1.099c4.084,0,7.336,1.281,9.742,3.999
			c2.234,2.562,3.574,5.95,3.861,10.222h-13.602h-13.637C497.228,276.766,497.716,274.886,498.25,273.125"/>
		<path d="M602.042,306.43c-1.008,1.612-2.172,3.004-3.498,4.245c-1.309,1.256-2.705,2.244-4.313,3.005
			c-1.658,0.78-3.492,1.177-5.67,1.177c-5.162,0-8.816-1.938-10.957-5.893c-2.381-4.231-3.551-10.43-3.551-18.68
			c0-8.336,1.17-14.611,3.551-18.701c2.074-3.953,5.656-5.891,10.656-5.891c2.172,0,4.033,0.312,5.496,1.021
			c1.449,0.683,2.77,1.567,3.953,2.692c1.145,1.17,2.068,2.458,2.932,4.058c0.84,1.521,1.596,3.141,2.289,4.916l19.021-7.419
			c-1.75-4.708-3.777-8.688-6.047-11.666c-2.205-3.03-5.021-5.417-8.182-7.179c-6.086-3.492-12.563-5.267-19.598-5.267
			c-11.191,0-20.172,3.954-26.752,11.757c-6.568,7.803-9.896,18.454-9.896,31.83c0,5.872,0.695,11.443,2.18,16.62
			c1.441,5.183,3.607,9.817,6.65,13.759c2.984,3.928,6.764,7.107,11.496,9.422c4.709,2.289,10.209,3.467,16.607,3.467
			c7.791,0,14.324-1.606,19.313-4.793c2.563-1.639,5.033-3.869,7.434-6.65c2.393-2.783,4.883-6.412,7.443-10.957l-17.465-9.87
			C604.097,303.178,603.003,304.796,602.042,306.43"/>
		<path d="M676.328,267.259v-18.864h-15.738V221.8h-22.537v26.595h-11.139v18.864h11.139v46.499c0,6.803,1.926,11.834,5.684,15.078
			c3.805,3.258,8.975,4.857,15.449,4.857c1.859,0,3.576,0,5.117-0.064c1.549-0.071,2.842-0.176,4.025-0.229
			c1.145-0.084,2.328-0.246,3.563-0.428c1.217-0.125,2.666-0.455,4.436-0.82V312.86l-5.527,1.347
			c-1.619,0.436-3.303,0.649-5.098,0.649c-1.535,0-2.795-0.215-3.732-0.649c-0.924-0.338-1.379-1.424-1.379-3.231v-43.716H676.328z"
			/>
	</g>
	<g>
		<path fill="#DA4732" d="M149.016,354.196h20.353c5.599,0,10.3,4.572,10.3,10.179v20.49c0,5.604-4.701,10.176-10.3,10.176h-20.353
			c-5.605,0-10.176-4.572-10.176-10.176v-20.49C138.839,358.768,143.411,354.196,149.016,354.196z"/>
		<path fill="#FFDE00" d="M201.205,354.196h20.489c5.599,0,10.176,4.572,10.176,10.179v20.49c0,5.604-4.578,10.176-10.176,10.176
			h-20.489c-5.605,0-10.176-4.572-10.176-10.176v-20.49C191.028,358.768,195.6,354.196,201.205,354.196z"/>
		<path fill="#008FD4" d="M253.394,354.196h20.496c5.599,0,10.176,4.572,10.176,10.179v20.49c0,5.604-4.578,10.176-10.176,10.176
			h-20.496c-5.592,0-10.17-4.572-10.17-10.176v-20.49C243.224,358.768,247.801,354.196,253.394,354.196z"/>
	</g>
	<g>
		<path fill="#6D6F71" d="M313.255,354.268h11.132c12.928,0,14.554,9.317,14.554,20.789c0,10.481-2.614,20.795-14.033,20.795
			h-11.652V354.268z M318.385,391.66h5.353c8.855,0,9.845-9.086,9.845-16.543c0-8.037-0.52-16.654-9.845-16.654h-5.353V391.66z"/>
		<path fill="#6D6F71" d="M349.032,380.826c0,4.778,0,11.998,5.995,11.998c4.655,0,5.299-4.892,5.299-7.22h4.896
			c0,3.315-1.989,11.062-10.481,11.062c-7.634,0-10.84-5.299-10.84-16.017c0-7.803,1.515-16.828,11.126-16.828
			c9.545,0,10.423,8.322,10.423,15.021v1.984H349.032z M360.326,376.981v-1.69c0-3.49-1.112-7.627-5.417-7.627
			c-5.124,0-5.709,6.289-5.709,8.153v1.164H360.326L360.326,376.981z"/>
		<path fill="#6D6F71" d="M384.21,373.776c0-3.961-1.054-6.112-4.604-6.112c-1.573,0-5.065,0.403-5.065,4.772
			c0,3.668,3.843,4.369,7.692,5.649c3.784,1.281,7.62,2.621,7.62,8.793c0,6.586-4.252,9.785-10.071,9.785
			c-10.6,0-10.716-7.86-10.716-11.061h4.896c0,3.785,1.047,7.219,5.82,7.219c1.574,0,5.183-0.756,5.183-5.184
			c0-4.193-3.843-5.066-7.627-6.348c-3.791-1.287-7.691-2.386-7.691-8.855c0-5.82,4.551-8.615,9.961-8.615
			c9.091,0,9.429,6.287,9.493,9.955L384.21,373.776L384.21,373.776z"/>
		<path fill="#6D6F71" d="M394.809,354.268h4.903v5.592h-4.903V354.268L394.809,354.268z M394.809,364.632h4.903v31.22h-4.903
			V364.632L394.809,364.632z"/>
		<path fill="#6D6F71" d="M426.97,393.871c0,9.314-4.316,12.699-10.599,12.699c-1.931,0-9.442,0-10.261-7.805H411
			c0.234,2.85,2.452,3.959,5.02,3.959c6.281,0,6.054-4.838,6.054-6.989v-4.075h-0.117c-1.046,2.618-3.959,4.192-7.048,4.192
			c-9.083,0-9.669-11.478-9.669-15.612c0-8.439,2.275-16.419,10.195-16.419c3.375,0,6.112,2.328,6.75,4.771h0.117v-3.959h4.668
			V393.871L426.97,393.871z M410.363,380.24c0,5.065,0.754,11.42,5.656,11.42c5.294,0,6.347-5.009,6.347-11.42
			c0-6.056-1.053-12.226-6.294-12.226C411.533,368.014,410.363,372.789,410.363,380.24z"/>
		<path fill="#6D6F71" d="M433.38,364.632h4.656v3.668h0.117c1.279-2.854,4.539-4.479,7.568-4.479c8.213,0,8.213,6.229,8.213,9.896
			v22.136h-4.896V374.3c0-2.385-0.168-6.286-4.59-6.286c-2.627,0-6.18,1.741-6.18,6.286v21.552h-4.889V364.632L433.38,364.632z"/>
		<path fill="#6D6F71" d="M475.785,368.475h-4.539v-3.843h4.539v-3.674c0-4.715,2.035-7.16,6.756-7.16h3.551v4.195h-2.264
			c-2.105,0-3.146,0.813-3.146,2.965v3.674h5.357v3.843h-5.357v27.377h-4.896V368.475L475.785,368.475z"/>
		<path fill="#6D6F71" d="M499.148,363.821c9.023,0,11.234,7.628,11.234,16.419c0,8.799-2.273,16.426-11.234,16.426
			c-9.031,0-11.25-7.627-11.25-16.426C487.898,371.449,490.173,363.821,499.148,363.821z M505.259,380.24
			c0-6.757-0.988-12.576-6.242-12.576c-4.941,0-5.988,5.819-5.988,12.576c0,6.764,0.988,12.584,5.988,12.584
			C504.207,392.824,505.259,387.001,505.259,380.24z"/>
		<path fill="#6D6F71" d="M515.275,364.632h4.889v4.662h0.123c1.398-2.973,3.258-5.475,6.756-5.475c0.99,0,1.691,0.109,2.152,0.344
			v4.779c-0.461-0.059-1.047-0.234-2.619-0.234c-2.445,0-6.412,2.219-6.412,7.396v19.748h-4.891v-31.22H515.275z"/>
		<path fill="#6D6F71" d="M547.201,354.268h11.119c12.934,0,14.564,9.317,14.564,20.789c0,10.481-2.627,20.795-14.039,20.795
			h-11.645V354.268L547.201,354.268z M552.326,391.66h5.355c8.852,0,9.846-9.086,9.846-16.543c0-8.037-0.525-16.654-9.846-16.654
			h-5.355V391.66z"/>
		<path fill="#6D6F71" d="M579.179,354.268h4.891v5.592h-4.891V354.268z M579.179,364.632h4.891v31.22h-4.891V364.632z"/>
		<path fill="#6D6F71" d="M611.333,393.871c0,9.314-4.313,12.699-10.605,12.699c-1.924,0-9.428,0-10.246-7.805h4.889
			c0.234,2.85,2.445,3.959,5.008,3.959c6.295,0,6.066-4.838,6.066-6.989v-4.075h-0.123c-1.047,2.618-3.961,4.192-7.049,4.192
			c-9.084,0-9.662-11.478-9.662-15.612c0-8.439,2.273-16.419,10.182-16.419c3.381,0,6.125,2.328,6.764,4.771h0.117v-3.959h4.662
			v29.238H611.333z M594.734,380.24c0,5.065,0.754,11.42,5.645,11.42c5.307,0,6.354-5.009,6.354-11.42
			c0-6.056-1.047-12.226-6.287-12.226C595.89,368.014,594.734,372.789,594.734,380.24z"/>
		<path fill="#6D6F71" d="M618.039,354.268h4.891v5.592h-4.891V354.268z M618.039,364.632h4.891v31.22h-4.891V364.632z"/>
		<path fill="#6D6F71" d="M631.083,355.548h4.895v9.084h5.416v3.843h-5.416v20.034c0,2.505,0.639,3.498,3.199,3.498
			c1.047,0,1.633-0.114,2.152-0.174v4.019c-0.637,0.116-1.918,0.353-3.959,0.353c-5.066,0-6.289-2.101-6.289-6.179v-21.551h-4.539
			v-3.843h4.539v-9.084H631.083z"/>
		<path fill="#6D6F71" d="M643.958,374.069c0-7.103,3.029-10.248,10.48-10.248c9.494,0,9.494,5.71,9.494,8.968v17.414
			c0,1.28,0,2.504,1.516,2.504c0.643,0,0.93-0.117,1.164-0.293v3.498c-0.354,0.059-1.627,0.293-2.85,0.293
			c-1.873,0-4.199,0-4.436-4.025h-0.109c-1.566,2.803-4.604,4.486-7.518,4.486c-5.818,0-8.498-3.492-8.498-9.084
			c0-4.369,1.859-7.4,5.885-8.623l6.574-1.978c3.557-1.11,3.557-2.101,3.557-4.715c0-2.918-1.75-4.604-5-4.604
			c-5.365,0-5.365,5.008-5.365,6.113v0.293L643.958,374.069L643.958,374.069z M659.042,378.839c-1.809,1.927-6.113,2.328-8.33,3.675
			c-1.566,0.989-2.387,2.213-2.387,4.948c0,3.148,1.105,5.359,4.43,5.359c3.205,0,6.287-2.738,6.287-5.943V378.839z"/>
		<path fill="#6D6F71" d="M670.865,354.268h4.896v41.584h-4.896V354.268z"/>
	</g>
</g>
<g>
	<path d="M699.693,221.76c2.758,0,5.449,0.706,8.074,2.123c2.627,1.414,4.672,3.439,6.143,6.076
		c1.463,2.632,2.197,5.378,2.197,8.236c0,2.833-0.725,5.554-2.166,8.165c-1.441,2.613-3.469,4.64-6.078,6.084
		c-2.602,1.446-5.324,2.167-8.17,2.167c-2.85,0-5.568-0.721-8.174-2.167c-2.604-1.444-4.637-3.471-6.088-6.084
		c-1.447-2.611-2.176-5.332-2.176-8.165c0-2.858,0.734-5.604,2.211-8.236c1.469-2.636,3.521-4.662,6.146-6.076
		C694.24,222.466,696.933,221.76,699.693,221.76z M699.693,224.481c-2.309,0-4.555,0.594-6.736,1.774
		c-2.188,1.184-3.893,2.875-5.129,5.073c-1.236,2.199-1.848,4.488-1.848,6.866c0,2.368,0.602,4.636,1.813,6.805
		c1.215,2.171,2.91,3.858,5.086,5.072c2.176,1.211,4.445,1.818,6.814,1.818c2.363,0,4.637-0.607,6.813-1.818
		c2.172-1.214,3.863-2.9,5.068-5.072c1.205-2.169,1.811-4.437,1.811-6.805c0-2.378-0.613-4.667-1.838-6.866
		c-1.229-2.198-2.936-3.89-5.131-5.073C704.228,225.075,701.984,224.481,699.693,224.481z M692.488,247.274v-17.678h6.072
		c2.074,0,3.572,0.163,4.508,0.489c0.926,0.33,1.666,0.896,2.221,1.71c0.547,0.814,0.826,1.676,0.826,2.592
		c0,1.29-0.467,2.417-1.387,3.374c-0.92,0.958-2.141,1.495-3.666,1.611c0.625,0.26,1.121,0.573,1.502,0.937
		c0.713,0.698,1.582,1.862,2.615,3.503l2.152,3.463h-3.482l-1.566-2.789c-1.23-2.19-2.23-3.562-2.984-4.114
		c-0.523-0.406-1.281-0.609-2.283-0.609h-1.678v7.511H692.488z M695.337,237.326h3.459c1.656,0,2.785-0.248,3.383-0.742
		c0.607-0.492,0.906-1.146,0.906-1.958c0-0.522-0.145-0.989-0.434-1.403c-0.291-0.415-0.691-0.723-1.209-0.926
		c-0.518-0.203-1.471-0.304-2.863-0.304h-3.242V237.326z"/>
</g>
</svg>
