<?xml version="1.0" encoding="utf-8"?><svg xmlns="http://www.w3.org/2000/svg" width="280" height="75" preserveAspectRatio="xMidYMid" xmlns:xlink="http://www.w3.org/1999/xlink" style="margin-right:-2px;display:block;animation-play-state:paused" ><style type="text/css" style="animation-play-state:paused" >text {
    text-anchor: middle; font-size: 33px; opacity: 0;
  }</style>


<g transform="translate(140,37.5)" style="transform:matrix(1, 0, 0, 1, 140, 37.5);animation-play-state:paused" ><g transform="translate(0,0)" style="transform:matrix(1, 0, 0, 1, 0, 0);animation-play-state:paused" ><g class="path" style="transform-origin:-114.92px -2.64697px;animation-timing-function:linear;animation-play-state:paused;animation-name:static-ce10029c-08c1-4bdb-bedd-55b8b0a17be1;animation-iteration-count:infinite;animation-fill-mode:forwards;animation-duration:1s;animation-delay:-0.61875s" ><path d="M7.19-11.32L15.74-6.11L14.26-3.76L3.73-10.36L3.73-12.24L14.29-18.88L15.74-16.57L7.19-11.32" fill="#1aafd0" stroke="none" stroke-width="none" transform="translate(-124.65499877929688,8.673027000427247)" style="transform:matrix(1, 0, 0, 1, -124.655, 8.67303);fill:rgb(59, 232, 176);animation-play-state:paused" ></path></g>
<g class="path" style="transform-origin:-82.4px -2.87697px;animation-timing-function:linear;animation-play-state:paused;animation-name:static-ce10029c-08c1-4bdb-bedd-55b8b0a17be1;animation-iteration-count:infinite;animation-fill-mode:forwards;animation-duration:1s;animation-delay:-0.5775s" ><path d="M31.35-11.58L31.35-11.58L31.35-11.58Q31.35-14.12 32.09-16.30L32.09-16.30L32.09-16.30Q32.84-18.48 34.24-20.08L34.24-20.08L34.24-20.08Q35.64-21.68 37.65-22.59L37.65-22.59L37.65-22.59Q39.67-23.50 42.24-23.50L42.24-23.50L42.24-23.50Q44.78-23.50 46.81-22.56L46.81-22.56L46.81-22.56Q48.84-21.62 50.24-20.00L50.24-20.00L50.24-20.00Q51.65-18.38 52.40-16.22L52.40-16.22L52.40-16.22Q53.16-14.06 53.16-11.58L53.16-11.58L53.16-11.58Q53.16-9.11 52.42-6.93L52.42-6.93L52.42-6.93Q51.68-4.75 50.26-3.12L50.26-3.12L50.26-3.12Q48.84-1.49 46.83-0.54L46.83-0.54L46.83-0.54Q44.81 0.40 42.24 0.40L42.24 0.40L42.24 0.40Q39.67 0.40 37.65-0.54L37.65-0.54L37.65-0.54Q35.64-1.49 34.24-3.12L34.24-3.12L34.24-3.12Q32.84-4.75 32.09-6.93L32.09-6.93L32.09-6.93Q31.35-9.11 31.35-11.58zM34.55-11.58L34.55-11.58L34.55-11.58Q34.55-9.80 35.06-8.12L35.06-8.12L35.06-8.12Q35.57-6.44 36.56-5.15L36.56-5.15L36.56-5.15Q37.55-3.86 38.99-3.09L38.99-3.09L38.99-3.09Q40.43-2.31 42.24-2.31L42.24-2.31L42.24-2.31Q44.15-2.31 45.59-3.02L45.59-3.02L45.59-3.02Q47.03-3.73 48.00-4.97L48.00-4.97L48.00-4.97Q48.97-6.20 49.47-7.90L49.47-7.90L49.47-7.90Q49.96-9.60 49.96-11.58L49.96-11.58L49.96-11.58Q49.96-13.37 49.43-15.02L49.43-15.02L49.43-15.02Q48.91-16.66 47.92-17.95L47.92-17.95L47.92-17.95Q46.93-19.24 45.49-20.01L45.49-20.01L45.49-20.01Q44.06-20.79 42.24-20.79L42.24-20.79L42.24-20.79Q40.43-20.79 38.99-20.08L38.99-20.08L38.99-20.08Q37.55-19.37 36.56-18.13L36.56-18.13L36.56-18.13Q35.57-16.90 35.06-15.21L35.06-15.21L35.06-15.21Q34.55-13.53 34.55-11.58" fill="#1aafd0" stroke="none" stroke-width="none" transform="translate(-124.65499877929688,8.673027000427247)" style="transform:matrix(1, 0, 0, 1, -124.655, 8.67303);fill:rgb(26, 175, 208);animation-play-state:paused" ></path></g>
<g class="path" style="transform-origin:-62.975px -3.33698px;animation-timing-function:linear;animation-play-state:paused;animation-name:static-ce10029c-08c1-4bdb-bedd-55b8b0a17be1;animation-iteration-count:infinite;animation-fill-mode:forwards;animation-duration:1s;animation-delay:-0.53625s" ><path d="M60.26-24.42L60.26-5.68L60.26-5.68Q60.26-3.89 61.00-3.04L61.00-3.04L61.00-3.04Q61.74-2.18 63.06-2.18L63.06-2.18L63.06-2.18Q63.69-2.18 64.28-2.33L64.28-2.33L64.28-2.33Q64.88-2.48 65.34-2.67L65.34-2.67L66.07-0.26L66.07-0.26Q65.47 0 64.60 0.20L64.60 0.20L64.60 0.20Q63.72 0.40 62.67 0.40L62.67 0.40L62.67 0.40Q61.51 0.40 60.54 0.07L60.54 0.07L60.54 0.07Q59.57-0.26 58.84-0.96L58.84-0.96L58.84-0.96Q58.11-1.65 57.70-2.74L57.70-2.74L57.70-2.74Q57.29-3.83 57.29-5.38L57.29-5.38L57.29-24.42L60.26-24.42" fill="#1aafd0" stroke="none" stroke-width="none" transform="translate(-124.65499877929688,8.673027000427247)" style="transform:matrix(1, 0, 0, 1, -124.655, 8.67303);fill:rgb(106, 103, 206);animation-play-state:paused" ></path></g>
<g class="path" style="transform-origin:-54.3px 0.0930328px;animation-timing-function:linear;animation-play-state:paused;animation-name:static-ce10029c-08c1-4bdb-bedd-55b8b0a17be1;animation-iteration-count:infinite;animation-fill-mode:forwards;animation-duration:1s;animation-delay:-0.495s" ><path d="M71.84-17.16L71.84 0L68.87 0L68.87-17.16L71.84-17.16" fill="#1aafd0" stroke="none" stroke-width="none" transform="translate(-124.65499877929688,8.673027000427247)" style="transform:matrix(1, 0, 0, 1, -124.655, 8.67303);fill:rgb(255, 185, 0);animation-play-state:paused" ></path></g>
<g class="path" style="transform-origin:-54.295px -13.507px;animation-timing-function:linear;animation-play-state:paused;animation-name:static-ce10029c-08c1-4bdb-bedd-55b8b0a17be1;animation-iteration-count:infinite;animation-fill-mode:forwards;animation-duration:1s;animation-delay:-0.45375s" ><path d="M70.36-20.10L70.36-20.10L70.36-20.10Q69.50-20.10 68.89-20.71L68.89-20.71L68.89-20.71Q68.28-21.32 68.28-22.18L68.28-22.18L68.28-22.18Q68.28-23.13 68.84-23.69L68.84-23.69L68.84-23.69Q69.40-24.26 70.36-24.26L70.36-24.26L70.36-24.26Q71.21-24.26 71.82-23.64L71.82-23.64L71.82-23.64Q72.44-23.03 72.44-22.18L72.44-22.18L72.44-22.18Q72.44-21.22 71.87-20.66L71.87-20.66L71.87-20.66Q71.31-20.10 70.36-20.10" fill="#1aafd0" stroke="none" stroke-width="none" transform="translate(-124.65499877929688,8.673027000427247)" style="transform:matrix(1, 0, 0, 1, -124.655, 8.67303);fill:rgb(252, 99, 107);animation-play-state:paused" ></path></g>
<g class="path" style="transform-origin:-41.38px -0.0719681px;animation-timing-function:linear;animation-play-state:paused;animation-name:static-ce10029c-08c1-4bdb-bedd-55b8b0a17be1;animation-iteration-count:infinite;animation-fill-mode:forwards;animation-duration:1s;animation-delay:-0.4125s" ><path d="M81.71 0L74.81-16.37L77.52-17.49L83.36-3.37L89.20-17.49L91.74-16.37L84.81 0L81.71 0" fill="#1aafd0" stroke="none" stroke-width="none" transform="translate(-124.65499877929688,8.673027000427247)" style="transform:matrix(1, 0, 0, 1, -124.655, 8.67303);fill:rgb(59, 232, 176);animation-play-state:paused" ></path></g>
<g class="path" style="transform-origin:-24.185px 0.0930252px;animation-timing-function:linear;animation-play-state:paused;animation-name:static-ce10029c-08c1-4bdb-bedd-55b8b0a17be1;animation-iteration-count:infinite;animation-fill-mode:forwards;animation-duration:1s;animation-delay:-0.37125s" ><path d="M107.94-7.36L95.93-7.36L95.93-7.36Q96.23-4.95 97.61-3.60L97.61-3.60L97.61-3.60Q99.00-2.24 101.28-2.24L101.28-2.24L101.28-2.24Q102.76-2.24 103.95-2.56L103.95-2.56L103.95-2.56Q105.14-2.87 106.23-3.37L106.23-3.37L106.92-0.83L106.92-0.83Q105.73-0.26 104.25 0.07L104.25 0.07L104.25 0.07Q102.76 0.40 100.91 0.40L100.91 0.40L100.91 0.40Q99.07 0.40 97.58-0.21L97.58-0.21L97.58-0.21Q96.10-0.83 95.06-1.96L95.06-1.96L95.06-1.96Q94.02-3.10 93.46-4.77L93.46-4.77L93.46-4.77Q92.90-6.44 92.90-8.58L92.90-8.58L92.90-8.58Q92.90-10.49 93.46-12.14L93.46-12.14L93.46-12.14Q94.02-13.79 95.04-15.00L95.04-15.00L95.04-15.00Q96.06-16.20 97.48-16.88L97.48-16.88L97.48-16.88Q98.90-17.56 100.65-17.56L100.65-17.56L100.65-17.56Q102.50-17.56 103.88-16.93L103.88-16.93L103.88-16.93Q105.27-16.30 106.19-15.21L106.19-15.21L106.19-15.21Q107.12-14.12 107.58-12.67L107.58-12.67L107.58-12.67Q108.04-11.22 108.04-9.60L108.04-9.60L108.04-9.60Q108.04-8.45 107.94-7.36L107.94-7.36zM100.58-14.98L100.58-14.98L100.58-14.98Q98.64-14.98 97.40-13.66L97.40-13.66L97.40-13.66Q96.16-12.34 95.90-9.77L95.90-9.77L105.30-9.77L105.30-9.77Q105.30-12.28 104.05-13.63L104.05-13.63L104.05-13.63Q102.80-14.98 100.58-14.98" fill="#1aafd0" stroke="none" stroke-width="none" transform="translate(-124.65499877929688,8.673027000427247)" style="transform:matrix(1, 0, 0, 1, -124.655, 8.67303);fill:rgb(26, 175, 208);animation-play-state:paused" ></path></g>
<g class="path" style="transform-origin:4.42502px -2.87697px;animation-timing-function:linear;animation-play-state:paused;animation-name:static-ce10029c-08c1-4bdb-bedd-55b8b0a17be1;animation-iteration-count:infinite;animation-fill-mode:forwards;animation-duration:1s;animation-delay:-0.33s" ><path d="M122.23 0L122.23-23.10L135.93-23.10L135.93-20.39L125.37-20.39L125.37-13.33L134.18-13.33L134.18-10.76L125.37-10.76L125.37 0L122.23 0" fill="#1aafd0" stroke="none" stroke-width="none" transform="translate(-124.65499877929688,8.673027000427247)" style="transform:matrix(1, 0, 0, 1, -124.655, 8.67303);fill:rgb(106, 103, 206);animation-play-state:paused" ></path></g>
<g class="path" style="transform-origin:20.875px 0.0930252px;animation-timing-function:linear;animation-play-state:paused;animation-name:static-ce10029c-08c1-4bdb-bedd-55b8b0a17be1;animation-iteration-count:infinite;animation-fill-mode:forwards;animation-duration:1s;animation-delay:-0.28875s" ><path d="M136.75-8.48L136.75-8.48L136.75-8.48Q136.75-10.40 137.35-12.06L137.35-12.06L137.35-12.06Q137.94-13.73 139.01-14.95L139.01-14.95L139.01-14.95Q140.09-16.17 141.59-16.86L141.59-16.86L141.59-16.86Q143.09-17.56 144.87-17.56L144.87-17.56L144.87-17.56Q146.36-17.56 147.56-17.04L147.56-17.04L147.56-17.04Q148.76-16.53 149.66-15.77L149.66-15.77L149.66-17.16L152.36-17.16L152.36-4.16L152.36-4.16Q152.36-2.90 152.97-2.52L152.97-2.52L152.97-2.52Q153.58-2.15 154.31-2.15L154.31-2.15L153.68 0.17L153.68 0.17Q150.51 0.17 149.85-2.41L149.85-2.41L149.85-2.41Q149.46-1.88 148.95-1.37L148.95-1.37L148.95-1.37Q148.43-0.86 147.77-0.46L147.77-0.46L147.77-0.46Q147.11-0.07 146.29 0.17L146.29 0.17L146.29 0.17Q145.46 0.40 144.47 0.40L144.47 0.40L144.47 0.40Q142.86 0.40 141.45-0.23L141.45-0.23L141.45-0.23Q140.05-0.86 139.01-2.01L139.01-2.01L139.01-2.01Q137.97-3.17 137.36-4.80L137.36-4.80L137.36-4.80Q136.75-6.44 136.75-8.48zM145.13-2.24L145.13-2.24L145.13-2.24Q146.39-2.24 147.51-2.84L147.51-2.84L147.51-2.84Q148.63-3.43 149.39-4.39L149.39-4.39L149.39-13.60L149.39-13.60Q148.50-14.22 147.43-14.60L147.43-14.60L147.43-14.60Q146.36-14.98 145.17-14.98L145.17-14.98L145.17-14.98Q143.98-14.98 142.99-14.52L142.99-14.52L142.99-14.52Q142.00-14.06 141.29-13.22L141.29-13.22L141.29-13.22Q140.58-12.38 140.18-11.19L140.18-11.19L140.18-11.19Q139.79-10.00 139.79-8.58L139.79-8.58L139.79-8.58Q139.79-7.19 140.18-6.02L140.18-6.02L140.18-6.02Q140.58-4.85 141.31-4.01L141.31-4.01L141.31-4.01Q142.03-3.17 143.01-2.71L143.01-2.71L143.01-2.71Q143.98-2.24 145.13-2.24" fill="#1aafd0" stroke="none" stroke-width="none" transform="translate(-124.65499877929688,8.673027000427247)" style="transform:matrix(1, 0, 0, 1, -124.655, 8.67303);fill:rgb(255, 185, 0);animation-play-state:paused" ></path></g>
<g class="path" style="transform-origin:41.355px -3.33698px;animation-timing-function:linear;animation-play-state:paused;animation-name:static-ce10029c-08c1-4bdb-bedd-55b8b0a17be1;animation-iteration-count:infinite;animation-fill-mode:forwards;animation-duration:1s;animation-delay:-0.2475s" ><path d="M158.27 0L158.27-24.42L161.24-24.42L161.24-15.38L161.24-15.38Q161.57-15.74 162.06-16.14L162.06-16.14L162.06-16.14Q162.56-16.53 163.17-16.85L163.17-16.85L163.17-16.85Q163.78-17.16 164.54-17.36L164.54-17.36L164.54-17.36Q165.30-17.56 166.19-17.56L166.19-17.56L166.19-17.56Q167.67-17.56 169.04-16.96L169.04-16.96L169.04-16.96Q170.41-16.37 171.45-15.25L171.45-15.25L171.45-15.25Q172.49-14.12 173.12-12.47L173.12-12.47L173.12-12.47Q173.75-10.82 173.75-8.75L173.75-8.75L173.75-8.75Q173.75-6.70 173.09-5.02L173.09-5.02L173.09-5.02Q172.43-3.33 171.34-2.13L171.34-2.13L171.34-2.13Q170.25-0.92 168.84-0.26L168.84-0.26L168.84-0.26Q167.44 0.40 165.99 0.40L165.99 0.40L165.99 0.40Q164.51 0.40 163.20-0.13L163.20-0.13L163.20-0.13Q161.90-0.66 161.04-1.42L161.04-1.42L161.04 0L158.27 0zM170.71-8.65L170.71-8.65L170.71-8.65Q170.71-10.13 170.30-11.30L170.30-11.30L170.30-11.30Q169.88-12.47 169.17-13.30L169.17-13.30L169.17-13.30Q168.47-14.12 167.52-14.55L167.52-14.55L167.52-14.55Q166.58-14.98 165.53-14.98L165.53-14.98L165.53-14.98Q164.11-14.98 162.97-14.27L162.97-14.27L162.97-14.27Q161.83-13.56 161.24-12.74L161.24-12.74L161.24-3.56L161.24-3.56Q162.00-2.97 163.02-2.61L163.02-2.61L163.02-2.61Q164.04-2.24 165.20-2.24L165.20-2.24L165.20-2.24Q166.39-2.24 167.41-2.71L167.41-2.71L167.41-2.71Q168.43-3.17 169.16-4.01L169.16-4.01L169.16-4.01Q169.88-4.85 170.30-6.02L170.30-6.02L170.30-6.02Q170.71-7.19 170.71-8.65" fill="#1aafd0" stroke="none" stroke-width="none" transform="translate(-124.65499877929688,8.673027000427247)" style="transform:matrix(1, 0, 0, 1, -124.655, 8.67303);fill:rgb(252, 99, 107);animation-play-state:paused" ></path></g>
<g class="path" style="transform-origin:58.315px -0.106972px;animation-timing-function:linear;animation-play-state:paused;animation-name:static-ce10029c-08c1-4bdb-bedd-55b8b0a17be1;animation-iteration-count:infinite;animation-fill-mode:forwards;animation-duration:1s;animation-delay:-0.20625s" ><path d="M188.07-17.36L187.18-14.29L187.18-14.29Q186.55-14.55 185.69-14.55L185.69-14.55L185.69-14.55Q184.77-14.55 183.89-14.16L183.89-14.16L183.89-14.16Q183.02-13.76 182.34-12.97L182.34-12.97L182.34-12.97Q181.67-12.18 181.25-10.94L181.25-10.94L181.25-10.94Q180.84-9.70 180.84-8.02L180.84-8.02L180.84 0L177.87 0L177.87-17.16L180.74-17.16L180.74-13.43L180.74-13.43Q181.04-14.22 181.53-14.98L181.53-14.98L181.53-14.98Q182.03-15.74 182.70-16.30L182.70-16.30L182.70-16.30Q183.38-16.86 184.27-17.21L184.27-17.21L184.27-17.21Q185.16-17.56 186.25-17.56L186.25-17.56L186.25-17.56Q186.75-17.56 187.23-17.51L187.23-17.51L187.23-17.51Q187.70-17.46 188.07-17.36L188.07-17.36" fill="#1aafd0" stroke="none" stroke-width="none" transform="translate(-124.65499877929688,8.673027000427247)" style="transform:matrix(1, 0, 0, 1, -124.655, 8.67303);fill:rgb(59, 232, 176);animation-play-state:paused" ></path></g>
<g class="path" style="transform-origin:67.87px 0.0930328px;animation-timing-function:linear;animation-play-state:paused;animation-name:static-ce10029c-08c1-4bdb-bedd-55b8b0a17be1;animation-iteration-count:infinite;animation-fill-mode:forwards;animation-duration:1s;animation-delay:-0.165s" ><path d="M194.01-17.16L194.01 0L191.04 0L191.04-17.16L194.01-17.16" fill="#1aafd0" stroke="none" stroke-width="none" transform="translate(-124.65499877929688,8.673027000427247)" style="transform:matrix(1, 0, 0, 1, -124.655, 8.67303);fill:rgb(26, 175, 208);animation-play-state:paused" ></path></g>
<g class="path" style="transform-origin:67.865px -13.507px;animation-timing-function:linear;animation-play-state:paused;animation-name:static-ce10029c-08c1-4bdb-bedd-55b8b0a17be1;animation-iteration-count:infinite;animation-fill-mode:forwards;animation-duration:1s;animation-delay:-0.12375s" ><path d="M192.52-20.10L192.52-20.10L192.52-20.10Q191.66-20.10 191.05-20.71L191.05-20.71L191.05-20.71Q190.44-21.32 190.44-22.18L190.44-22.18L190.44-22.18Q190.44-23.13 191.00-23.69L191.00-23.69L191.00-23.69Q191.57-24.26 192.52-24.26L192.52-24.26L192.52-24.26Q193.38-24.26 193.99-23.64L193.99-23.64L193.99-23.64Q194.60-23.03 194.60-22.18L194.60-22.18L194.60-22.18Q194.60-21.22 194.04-20.66L194.04-20.66L194.04-20.66Q193.48-20.10 192.52-20.10" fill="#1aafd0" stroke="none" stroke-width="none" transform="translate(-124.65499877929688,8.673027000427247)" style="transform:matrix(1, 0, 0, 1, -124.655, 8.67303);fill:rgb(106, 103, 206);animation-play-state:paused" ></path></g>
<g class="path" style="transform-origin:80.11px 0.0930252px;animation-timing-function:linear;animation-play-state:paused;animation-name:static-ce10029c-08c1-4bdb-bedd-55b8b0a17be1;animation-iteration-count:infinite;animation-fill-mode:forwards;animation-duration:1s;animation-delay:-0.0825s" ><path d="M211.13-16.53L210.24-14.03L210.24-14.03Q209.29-14.49 208.46-14.70L208.46-14.70L208.46-14.70Q207.64-14.92 206.61-14.92L206.61-14.92L206.61-14.92Q205.46-14.92 204.45-14.49L204.45-14.49L204.45-14.49Q203.45-14.06 202.72-13.25L202.72-13.25L202.72-13.25Q201.99-12.44 201.58-11.29L201.58-11.29L201.58-11.29Q201.17-10.13 201.17-8.65L201.17-8.65L201.17-8.65Q201.17-7.29 201.55-6.14L201.55-6.14L201.55-6.14Q201.93-4.98 202.62-4.11L202.62-4.11L202.62-4.11Q203.31-3.23 204.27-2.74L204.27-2.74L204.27-2.74Q205.23-2.24 206.42-2.24L206.42-2.24L206.42-2.24Q207.67-2.24 208.56-2.51L208.56-2.51L208.56-2.51Q209.45-2.77 210.47-3.33L210.47-3.33L211.40-0.83L211.40-0.83Q210.34-0.26 209.09 0.07L209.09 0.07L209.09 0.07Q207.83 0.40 206.22 0.40L206.22 0.40L206.22 0.40Q204.37 0.40 202.88-0.26L202.88-0.26L202.88-0.26Q201.40-0.92 200.34-2.11L200.34-2.11L200.34-2.11Q199.29-3.30 198.71-4.95L198.71-4.95L198.71-4.95Q198.13-6.60 198.13-8.58L198.13-8.58L198.13-8.58Q198.13-10.43 198.71-12.06L198.71-12.06L198.71-12.06Q199.29-13.70 200.38-14.92L200.38-14.92L200.38-14.92Q201.47-16.14 203.00-16.85L203.00-16.85L203.00-16.85Q204.53-17.56 206.45-17.56L206.45-17.56L206.45-17.56Q207.93-17.56 209.02-17.29L209.02-17.29L209.02-17.29Q210.11-17.03 211.13-16.53L211.13-16.53" fill="#1aafd0" stroke="none" stroke-width="none" transform="translate(-124.65499877929688,8.673027000427247)" style="transform:matrix(1, 0, 0, 1, -124.655, 8.67303);fill:rgb(255, 185, 0);animation-play-state:paused" ></path></g>
<g class="path" style="transform-origin:104.89px -2.91197px;animation-timing-function:linear;animation-play-state:paused;animation-name:static-ce10029c-08c1-4bdb-bedd-55b8b0a17be1;animation-iteration-count:infinite;animation-fill-mode:forwards;animation-duration:1s;animation-delay:-0.04125s" ><path d="M226.12 2.34L223.67 1.52L232.98-25.51L235.42-24.68L226.12 2.34" fill="#1aafd0" stroke="none" stroke-width="none" transform="translate(-124.65499877929688,8.673027000427247)" style="transform:matrix(1, 0, 0, 1, -124.655, 8.67303);fill:rgb(252, 99, 107);animation-play-state:paused" ></path></g>
<g class="path" style="transform-origin:122.38px -2.64697px;animation-timing-function:linear;animation-play-state:paused;animation-name:static-ce10029c-08c1-4bdb-bedd-55b8b0a17be1;animation-iteration-count:infinite;animation-fill-mode:forwards;animation-duration:1s" ><path d="M241.03-16.57L242.48-18.88L253.04-12.24L253.04-10.36L242.52-3.76L241.03-6.11L249.58-11.32L241.03-16.57" fill="#1aafd0" stroke="none" stroke-width="none" transform="translate(-124.65499877929688,8.673027000427247)" style="transform:matrix(1, 0, 0, 1, -124.655, 8.67303);fill:rgb(59, 232, 176);animation-play-state:paused" ></path></g></g></g>


<STYLE id="static-ce10029c-08c1-4bdb-bedd-55b8b0a17be1" data-anikit="" style="animation-play-state:paused" >@keyframes static-ce10029c-08c1-4bdb-bedd-55b8b0a17be1 { 0% { } 100% { } }</STYLE></svg>