<?xml version="1.0" encoding="utf-8"?>
<svg xmlns="http://www.w3.org/2000/svg" style="margin: auto; display: block; shape-rendering: auto;" width="278" height="65" preserveAspectRatio="xMidYMid">
<style type="text/css">
  text {
    text-anchor: middle; font-size: 31px; opacity: 0;
  }
</style>
<g transform="translate(139,32.5)">
  <g transform="translate(0,0)"><g class="path" style="transform-origin: -107.96px -2.4847px; transform: scale(0.91); animation: 1s linear -0.61875s infinite normal forwards running breath-d26f4990-a521-451b-ac6a-a7ad8dcfe12e;"><path d="M6.76-10.63L14.79-5.74L13.39-3.53L3.50-9.73L3.50-11.50L13.42-17.73L14.79-15.56L6.76-10.63" fill="#1aafd0" stroke="none" stroke-width="none" transform="translate(-117.10501098632812,8.145295810699462)" style="fill: rgb(59, 232, 176);"></path></g><g class="path" style="transform-origin: -77.41px -2.7047px; transform: scale(0.91); animation: 1s linear -0.5775s infinite normal forwards running breath-d26f4990-a521-451b-ac6a-a7ad8dcfe12e;"><path d="M29.45-10.88L29.45-10.88L29.45-10.88Q29.45-13.27 30.15-15.31L30.15-15.31L30.15-15.31Q30.85-17.36 32.16-18.86L32.16-18.86L32.16-18.86Q33.48-20.37 35.37-21.22L35.37-21.22L35.37-21.22Q37.26-22.07 39.68-22.07L39.68-22.07L39.68-22.07Q42.07-22.07 43.97-21.19L43.97-21.19L43.97-21.19Q45.88-20.30 47.20-18.79L47.20-18.79L47.20-18.79Q48.52-17.27 49.23-15.24L49.23-15.24L49.23-15.24Q49.94-13.21 49.94-10.88L49.94-10.88L49.94-10.88Q49.94-8.56 49.24-6.51L49.24-6.51L49.24-6.51Q48.55-4.46 47.21-2.93L47.21-2.93L47.21-2.93Q45.88-1.40 43.99-0.51L43.99-0.51L43.99-0.51Q42.10 0.37 39.68 0.37L39.68 0.37L39.68 0.37Q37.26 0.37 35.37-0.51L35.37-0.51L35.37-0.51Q33.48-1.40 32.16-2.93L32.16-2.93L32.16-2.93Q30.85-4.46 30.15-6.51L30.15-6.51L30.15-6.51Q29.45-8.56 29.45-10.88zM32.46-10.88L32.46-10.88L32.46-10.88Q32.46-9.21 32.94-7.63L32.94-7.63L32.94-7.63Q33.42-6.04 34.35-4.84L34.35-4.84L34.35-4.84Q35.28-3.63 36.63-2.90L36.63-2.90L36.63-2.90Q37.98-2.17 39.68-2.17L39.68-2.17L39.68-2.17Q41.48-2.17 42.83-2.84L42.83-2.84L42.83-2.84Q44.17-3.50 45.09-4.67L45.09-4.67L45.09-4.67Q46.00-5.83 46.47-7.42L46.47-7.42L46.47-7.42Q46.93-9.02 46.93-10.88L46.93-10.88L46.93-10.88Q46.93-12.55 46.44-14.11L46.44-14.11L46.44-14.11Q45.94-15.65 45.01-16.86L45.01-16.86L45.01-16.86Q44.08-18.07 42.73-18.80L42.73-18.80L42.73-18.80Q41.39-19.53 39.68-19.53L39.68-19.53L39.68-19.53Q37.98-19.53 36.63-18.86L36.63-18.86L36.63-18.86Q35.28-18.20 34.35-17.03L34.35-17.03L34.35-17.03Q33.42-15.87 32.94-14.29L32.94-14.29L32.94-14.29Q32.46-12.71 32.46-10.88" fill="#1aafd0" stroke="none" stroke-width="none" transform="translate(-117.10501098632812,8.145295810699462)" style="fill: rgb(26, 175, 208);"></path></g><g class="path" style="transform-origin: -59.165px -3.13971px; transform: scale(0.91); animation: 1s linear -0.53625s infinite normal forwards running breath-d26f4990-a521-451b-ac6a-a7ad8dcfe12e;"><path d="M56.61-22.94L56.61-5.33L56.61-5.33Q56.61-3.66 57.30-2.85L57.30-2.85L57.30-2.85Q58.00-2.05 59.24-2.05L59.24-2.05L59.24-2.05Q59.83-2.05 60.39-2.19L60.39-2.19L60.39-2.19Q60.95-2.33 61.38-2.51L61.38-2.51L62.06-0.25L62.06-0.25Q61.50 0 60.68 0.19L60.68 0.19L60.68 0.19Q59.86 0.37 58.87 0.37L58.87 0.37L58.87 0.37Q57.78 0.37 56.87 0.06L56.87 0.06L56.87 0.06Q55.95-0.25 55.27-0.90L55.27-0.90L55.27-0.90Q54.59-1.55 54.20-2.57L54.20-2.57L54.20-2.57Q53.82-3.60 53.82-5.05L53.82-5.05L53.82-22.94L56.61-22.94" fill="#1aafd0" stroke="none" stroke-width="none" transform="translate(-117.10501098632812,8.145295810699462)" style="fill: rgb(106, 103, 206);"></path></g><g class="path" style="transform-origin: -51.01px 0.0852966px; transform: scale(0.91); animation: 1s linear -0.495s infinite normal forwards running breath-d26f4990-a521-451b-ac6a-a7ad8dcfe12e;"><path d="M67.49-16.12L67.49 0L64.70 0L64.70-16.12L67.49-16.12" fill="#1aafd0" stroke="none" stroke-width="none" transform="translate(-117.10501098632812,8.145295810699462)" style="fill: rgb(255, 185, 0);"></path></g><g class="path" style="transform-origin: -51.01px -12.6897px; transform: scale(0.91); animation: 1s linear -0.45375s infinite normal forwards running breath-d26f4990-a521-451b-ac6a-a7ad8dcfe12e;"><path d="M66.09-18.88L66.09-18.88L66.09-18.88Q65.29-18.88 64.71-19.45L64.71-19.45L64.71-19.45Q64.14-20.03 64.14-20.83L64.14-20.83L64.14-20.83Q64.14-21.73 64.67-22.26L64.67-22.26L64.67-22.26Q65.19-22.79 66.09-22.79L66.09-22.79L66.09-22.79Q66.90-22.79 67.47-22.21L67.47-22.21L67.47-22.21Q68.05-21.64 68.05-20.83L68.05-20.83L68.05-20.83Q68.05-19.93 67.52-19.41L67.52-19.41L67.52-19.41Q66.99-18.88 66.09-18.88" fill="#1aafd0" stroke="none" stroke-width="none" transform="translate(-117.10501098632812,8.145295810699462)" style="fill: rgb(252, 99, 107);"></path></g><g class="path" style="transform-origin: -38.875px -0.0697021px; transform: scale(0.91); animation: 1s linear -0.4125s infinite normal forwards running breath-d26f4990-a521-451b-ac6a-a7ad8dcfe12e;"><path d="M76.76 0L70.28-15.38L72.82-16.43L78.31-3.16L83.79-16.43L86.18-15.38L79.67 0L76.76 0" fill="#1aafd0" stroke="none" stroke-width="none" transform="translate(-117.10501098632812,8.145295810699462)" style="fill: rgb(59, 232, 176);"></path></g><g class="path" style="transform-origin: -22.73px 0.0852966px; transform: scale(0.91); animation: 1s linear -0.37125s infinite normal forwards running breath-d26f4990-a521-451b-ac6a-a7ad8dcfe12e;"><path d="M101.40-6.91L90.12-6.91L90.12-6.91Q90.40-4.65 91.70-3.38L91.70-3.38L91.70-3.38Q93.00-2.11 95.14-2.11L95.14-2.11L95.14-2.11Q96.53-2.11 97.65-2.40L97.65-2.40L97.65-2.40Q98.77-2.70 99.79-3.16L99.79-3.16L100.44-0.78L100.44-0.78Q99.32-0.25 97.93 0.06L97.93 0.06L97.93 0.06Q96.53 0.37 94.80 0.37L94.80 0.37L94.80 0.37Q93.06 0.37 91.67-0.20L91.67-0.20L91.67-0.20Q90.27-0.78 89.30-1.84L89.30-1.84L89.30-1.84Q88.32-2.91 87.79-4.48L87.79-4.48L87.79-4.48Q87.26-6.04 87.26-8.06L87.26-8.06L87.26-8.06Q87.26-9.86 87.79-11.41L87.79-11.41L87.79-11.41Q88.32-12.96 89.28-14.09L89.28-14.09L89.28-14.09Q90.24-15.22 91.57-15.86L91.57-15.86L91.57-15.86Q92.91-16.49 94.55-16.49L94.55-16.49L94.55-16.49Q96.29-16.49 97.59-15.90L97.59-15.90L97.59-15.90Q98.89-15.31 99.76-14.29L99.76-14.29L99.76-14.29Q100.63-13.27 101.06-11.90L101.06-11.90L101.06-11.90Q101.49-10.54 101.49-9.02L101.49-9.02L101.49-9.02Q101.49-7.94 101.40-6.91L101.40-6.91zM94.49-14.07L94.49-14.07L94.49-14.07Q92.66-14.07 91.50-12.83L91.50-12.83L91.50-12.83Q90.33-11.59 90.09-9.18L90.09-9.18L98.92-9.18L98.92-9.18Q98.92-11.53 97.74-12.80L97.74-12.80L97.74-12.80Q96.56-14.07 94.49-14.07" fill="#1aafd0" stroke="none" stroke-width="none" transform="translate(-117.10501098632812,8.145295810699462)" style="fill: rgb(26, 175, 208);"></path></g><g class="path" style="transform-origin: 4.14996px -2.7047px; transform: scale(0.91); animation: 1s linear -0.33s infinite normal forwards running breath-d26f4990-a521-451b-ac6a-a7ad8dcfe12e;"><path d="M114.82 0L114.82-21.70L127.69-21.70L127.69-19.16L117.77-19.16L117.77-12.52L126.05-12.52L126.05-10.11L117.77-10.11L117.77 0L114.82 0" fill="#1aafd0" stroke="none" stroke-width="none" transform="translate(-117.10501098632812,8.145295810699462)" style="fill: rgb(106, 103, 206);"></path></g><g class="path" style="transform-origin: 19.605px 0.0852966px; transform: scale(0.91); animation: 1s linear -0.28875s infinite normal forwards running breath-d26f4990-a521-451b-ac6a-a7ad8dcfe12e;"><path d="M128.46-7.97L128.46-7.97L128.46-7.97Q128.46-9.77 129.02-11.33L129.02-11.33L129.02-11.33Q129.58-12.90 130.59-14.04L130.59-14.04L130.59-14.04Q131.59-15.19 133.01-15.84L133.01-15.84L133.01-15.84Q134.42-16.49 136.09-16.49L136.09-16.49L136.09-16.49Q137.49-16.49 138.62-16.01L138.62-16.01L138.62-16.01Q139.75-15.53 140.59-14.82L140.59-14.82L140.59-16.12L143.13-16.12L143.13-3.91L143.13-3.91Q143.13-2.73 143.70-2.37L143.70-2.37L143.70-2.37Q144.27-2.02 144.96-2.02L144.96-2.02L144.37 0.15L144.37 0.15Q141.39 0.15 140.77-2.26L140.77-2.26L140.77-2.26Q140.40-1.77 139.92-1.29L139.92-1.29L139.92-1.29Q139.44-0.81 138.82-0.43L138.82-0.43L138.82-0.43Q138.20-0.06 137.42 0.15L137.42 0.15L137.42 0.15Q136.65 0.37 135.72 0.37L135.72 0.37L135.72 0.37Q134.20 0.37 132.88-0.22L132.88-0.22L132.88-0.22Q131.56-0.81 130.59-1.89L130.59-1.89L130.59-1.89Q129.61-2.98 129.04-4.51L129.04-4.51L129.04-4.51Q128.46-6.04 128.46-7.97zM136.34-2.11L136.34-2.11L136.34-2.11Q137.52-2.11 138.57-2.67L138.57-2.67L138.57-2.67Q139.62-3.22 140.34-4.12L140.34-4.12L140.34-12.77L140.34-12.77Q139.50-13.36 138.49-13.72L138.49-13.72L138.49-13.72Q137.49-14.07 136.37-14.07L136.37-14.07L136.37-14.07Q135.25-14.07 134.32-13.64L134.32-13.64L134.32-13.64Q133.39-13.21 132.73-12.42L132.73-12.42L132.73-12.42Q132.06-11.63 131.69-10.51L131.69-10.51L131.69-10.51Q131.32-9.39 131.32-8.06L131.32-8.06L131.32-8.06Q131.32-6.76 131.69-5.66L131.69-5.66L131.69-5.66Q132.06-4.56 132.74-3.77L132.74-3.77L132.74-3.77Q133.42-2.98 134.34-2.54L134.34-2.54L134.34-2.54Q135.25-2.11 136.34-2.11" fill="#1aafd0" stroke="none" stroke-width="none" transform="translate(-117.10501098632812,8.145295810699462)" style="fill: rgb(255, 185, 0);"></path></g><g class="path" style="transform-origin: 38.845px -3.13971px; transform: scale(0.91); animation: 1s linear -0.2475s infinite normal forwards running breath-d26f4990-a521-451b-ac6a-a7ad8dcfe12e;"><path d="M148.68 0L148.68-22.94L151.47-22.94L151.47-14.45L151.47-14.45Q151.78-14.79 152.24-15.16L152.24-15.16L152.24-15.16Q152.71-15.53 153.28-15.83L153.28-15.83L153.28-15.83Q153.85-16.12 154.57-16.31L154.57-16.31L154.57-16.31Q155.28-16.49 156.12-16.49L156.12-16.49L156.12-16.49Q157.51-16.49 158.80-15.93L158.80-15.93L158.80-15.93Q160.08-15.38 161.06-14.32L161.06-14.32L161.06-14.32Q162.04-13.27 162.63-11.72L162.63-11.72L162.63-11.72Q163.22-10.17 163.22-8.21L163.22-8.21L163.22-8.21Q163.22-6.29 162.59-4.71L162.59-4.71L162.59-4.71Q161.97-3.13 160.95-2.00L160.95-2.00L160.95-2.00Q159.93-0.87 158.61-0.25L158.61-0.25L158.61-0.25Q157.29 0.37 155.93 0.37L155.93 0.37L155.93 0.37Q154.53 0.37 153.31-0.12L153.31-0.12L153.31-0.12Q152.09-0.62 151.28-1.33L151.28-1.33L151.28 0L148.68 0zM160.36-8.12L160.36-8.12L160.36-8.12Q160.36-9.52 159.98-10.62L159.98-10.62L159.98-10.62Q159.59-11.72 158.92-12.49L158.92-12.49L158.92-12.49Q158.25-13.27 157.37-13.67L157.37-13.67L157.37-13.67Q156.49-14.07 155.50-14.07L155.50-14.07L155.50-14.07Q154.16-14.07 153.09-13.41L153.09-13.41L153.09-13.41Q152.02-12.74 151.47-11.97L151.47-11.97L151.47-3.35L151.47-3.35Q152.18-2.79 153.14-2.45L153.14-2.45L153.14-2.45Q154.10-2.11 155.19-2.11L155.19-2.11L155.19-2.11Q156.30-2.11 157.26-2.54L157.26-2.54L157.26-2.54Q158.22-2.98 158.91-3.77L158.91-3.77L158.91-3.77Q159.59-4.56 159.98-5.66L159.98-5.66L159.98-5.66Q160.36-6.76 160.36-8.12" fill="#1aafd0" stroke="none" stroke-width="none" transform="translate(-117.10501098632812,8.145295810699462)" style="fill: rgb(252, 99, 107);"></path></g><g class="path" style="transform-origin: 54.775px -0.0997009px; transform: scale(0.91); animation: 1s linear -0.20625s infinite normal forwards running breath-d26f4990-a521-451b-ac6a-a7ad8dcfe12e;"><path d="M176.67-16.31L175.83-13.42L175.83-13.42Q175.24-13.67 174.44-13.67L174.44-13.67L174.44-13.67Q173.57-13.67 172.75-13.30L172.75-13.30L172.75-13.30Q171.93-12.93 171.29-12.18L171.29-12.18L171.29-12.18Q170.66-11.44 170.27-10.28L170.27-10.28L170.27-10.28Q169.88-9.11 169.88-7.53L169.88-7.53L169.88 0L167.09 0L167.09-16.12L169.79-16.12L169.79-12.62L169.79-12.62Q170.07-13.36 170.53-14.07L170.53-14.07L170.53-14.07Q171.00-14.79 171.63-15.31L171.63-15.31L171.63-15.31Q172.27-15.84 173.10-16.17L173.10-16.17L173.10-16.17Q173.94-16.49 174.96-16.49L174.96-16.49L174.96-16.49Q175.43-16.49 175.88-16.45L175.88-16.45L175.88-16.45Q176.33-16.40 176.67-16.31L176.67-16.31" fill="#1aafd0" stroke="none" stroke-width="none" transform="translate(-117.10501098632812,8.145295810699462)" style="fill: rgb(59, 232, 176);"></path></g><g class="path" style="transform-origin: 63.75px 0.0852966px; transform: scale(0.91); animation: 1s linear -0.165s infinite normal forwards running breath-d26f4990-a521-451b-ac6a-a7ad8dcfe12e;"><path d="M182.25-16.12L182.25 0L179.46 0L179.46-16.12L182.25-16.12" fill="#1aafd0" stroke="none" stroke-width="none" transform="translate(-117.10501098632812,8.145295810699462)" style="fill: rgb(26, 175, 208);"></path></g><g class="path" style="transform-origin: 63.75px -12.6897px; transform: scale(0.91); animation: 1s linear -0.12375s infinite normal forwards running breath-d26f4990-a521-451b-ac6a-a7ad8dcfe12e;"><path d="M180.85-18.88L180.85-18.88L180.85-18.88Q180.05-18.88 179.47-19.45L179.47-19.45L179.47-19.45Q178.90-20.03 178.90-20.83L178.90-20.83L178.90-20.83Q178.90-21.73 179.43-22.26L179.43-22.26L179.43-22.26Q179.96-22.79 180.85-22.79L180.85-22.79L180.85-22.79Q181.66-22.79 182.23-22.21L182.23-22.21L182.23-22.21Q182.81-21.64 182.81-20.83L182.81-20.83L182.81-20.83Q182.81-19.93 182.28-19.41L182.28-19.41L182.28-19.41Q181.75-18.88 180.85-18.88" fill="#1aafd0" stroke="none" stroke-width="none" transform="translate(-117.10501098632812,8.145295810699462)" style="fill: rgb(106, 103, 206);"></path></g><g class="path" style="transform-origin: 75.25px 0.0852966px; transform: scale(0.91); animation: 1s linear -0.0825s infinite normal forwards running breath-d26f4990-a521-451b-ac6a-a7ad8dcfe12e;"><path d="M198.34-15.53L197.50-13.18L197.50-13.18Q196.60-13.61 195.83-13.81L195.83-13.81L195.83-13.81Q195.05-14.01 194.09-14.01L194.09-14.01L194.09-14.01Q193.01-14.01 192.06-13.61L192.06-13.61L192.06-13.61Q191.12-13.21 190.43-12.45L190.43-12.45L190.43-12.45Q189.75-11.69 189.36-10.60L189.36-10.60L189.36-10.60Q188.98-9.52 188.98-8.12L188.98-8.12L188.98-8.12Q188.98-6.85 189.33-5.77L189.33-5.77L189.33-5.77Q189.69-4.68 190.34-3.86L190.34-3.86L190.34-3.86Q190.99-3.04 191.89-2.57L191.89-2.57L191.89-2.57Q192.79-2.11 193.91-2.11L193.91-2.11L193.91-2.11Q195.08-2.11 195.92-2.36L195.92-2.36L195.92-2.36Q196.76-2.60 197.72-3.13L197.72-3.13L198.59-0.78L198.59-0.78Q197.59-0.25 196.42 0.06L196.42 0.06L196.42 0.06Q195.24 0.37 193.72 0.37L193.72 0.37L193.72 0.37Q191.98 0.37 190.59-0.25L190.59-0.25L190.59-0.25Q189.19-0.87 188.20-1.98L188.20-1.98L188.20-1.98Q187.21-3.10 186.67-4.65L186.67-4.65L186.67-4.65Q186.12-6.20 186.12-8.06L186.12-8.06L186.12-8.06Q186.12-9.80 186.67-11.33L186.67-11.33L186.67-11.33Q187.21-12.87 188.23-14.01L188.23-14.01L188.23-14.01Q189.26-15.16 190.70-15.83L190.70-15.83L190.70-15.83Q192.14-16.49 193.94-16.49L193.94-16.49L193.94-16.49Q195.33-16.49 196.35-16.24L196.35-16.24L196.35-16.24Q197.38-16.00 198.34-15.53L198.34-15.53" fill="#1aafd0" stroke="none" stroke-width="none" transform="translate(-117.10501098632812,8.145295810699462)" style="fill: rgb(255, 185, 0);"></path></g><g class="path" style="transform-origin: 98.53px -2.7347px; transform: scale(0.91); animation: 1s linear -0.04125s infinite normal forwards running breath-d26f4990-a521-451b-ac6a-a7ad8dcfe12e;"><path d="M212.41 2.20L210.12 1.43L218.86-23.96L221.15-23.19L212.41 2.20" fill="#1aafd0" stroke="none" stroke-width="none" transform="translate(-117.10501098632812,8.145295810699462)" style="fill: rgb(252, 99, 107);"></path></g><g class="path" style="transform-origin: 114.96px -2.4847px; transform: scale(0.91); animation: 1s linear 0s infinite normal forwards running breath-d26f4990-a521-451b-ac6a-a7ad8dcfe12e;"><path d="M226.42-15.56L227.79-17.73L237.71-11.50L237.71-9.73L227.82-3.53L226.42-5.74L234.45-10.63L226.42-15.56" fill="#1aafd0" stroke="none" stroke-width="none" transform="translate(-117.10501098632812,8.145295810699462)" style="fill: rgb(59, 232, 176);"></path></g></g>
</g>
<style id="breath-d26f4990-a521-451b-ac6a-a7ad8dcfe12e" data-anikit="">@keyframes breath-d26f4990-a521-451b-ac6a-a7ad8dcfe12e
{
  0% {
    animation-timing-function: cubic-bezier(0.9647,0.2413,-0.0705,0.7911);
    transform: scale(0.9099999999999999);
  }
  51% {
    animation-timing-function: cubic-bezier(0.9226,0.2631,-0.0308,0.7628);
    transform: scale(1.02994);
  }
  100% {
    transform: scale(0.9099999999999999);
  }
}</style><style id="breath-d26f4990-a521-451b-ac6a-a7ad8dcfe12e" data-anikit="">@keyframes breath-d26f4990-a521-451b-ac6a-a7ad8dcfe12e
{
  0% {
    animation-timing-function: cubic-bezier(0.9647,0.2413,-0.0705,0.7911);
    transform: scale(0.9099999999999999);
  }
  51% {
    animation-timing-function: cubic-bezier(0.9226,0.2631,-0.0308,0.7628);
    transform: scale(1.02994);
  }
  100% {
    transform: scale(0.9099999999999999);
  }
}</style></svg>