<?xml version="1.0" encoding="UTF-8"?>
<svg width="30px" height="30px" viewBox="0 0 30 30" version="1.1" xmlns="http://www.w3.org/2000/svg" xmlns:xlink="http://www.w3.org/1999/xlink">
    <!-- Generator: Sketch 52.2 (67145) - http://www.bohemiancoding.com/sketch -->
    <title>Account_services</title>
    <desc>Created with Sketch.</desc>
    <g id="Page-1" stroke="none" stroke-width="1" fill="none" fill-rule="evenodd">
        <g id="02_Dashboard#0" transform="translate(-19.000000, -504.000000)">
            <g id="Account_services" transform="translate(20.000000, 505.000000)">
                <g id="Group" stroke="#B3B3B3" stroke-width="0.1">
                    <rect id="Rectangle" x="0" y="0" width="28" height="28"></rect>
                    <path d="M14,0 L14,28" id="Path"></path>
                    <path d="M28,14 L0,14" id="Path"></path>
                    <path d="M0,0 L28,28" id="Path"></path>
                    <rect id="Rectangle" x="3.73333333" y="3.73333333" width="20.5333333" height="20.5333333"></rect>
                    <path d="M28,0 L0,28" id="Path"></path>
                    <path d="M0,14 L14,0" id="Path"></path>
                    <path d="M14,0 L28,14" id="Path"></path>
                    <path d="M28,14 L14,28" id="Path"></path>
                    <path d="M14,28 L0,14" id="Path"></path>
                    <circle id="Oval" cx="14" cy="14" r="9.8"></circle>
                </g>
                <path d="M7.5,9 C5.55,9 4,7.45 4,5.5 C4,3.55 5.55,2 7.5,2 C9.45,2 11,3.55 11,5.5 C11,7.45 9.45,9 7.5,9 Z M7.5,3 C6.1,3 5,4.1 5,5.5 C5,6.9 6.1,8 7.5,8 C8.9,8 10,6.9 10,5.5 C10,4.1 8.9,3 7.5,3 Z" id="Shape" fill="#333333" fill-rule="nonzero"></path>
                <path d="M25.6666667,0 L2.33333333,0 C1.02666667,0 0,1.02666667 0,2.33333333 L0,16.3333333 C0,17.64 1.02666667,18.6666667 2.33333333,18.6666667 L6.20666667,18.6666667 C6.11333333,19.1333333 6.06666667,19.6 6.06666667,20.0666667 C6.06666667,24.4533333 9.61333333,28 14,28 C18.3866667,28 21.9333333,24.4533333 21.9333333,20.0666667 C21.9333333,19.6 21.8866667,19.1333333 21.7933333,18.6666667 L25.6666667,18.6666667 C26.9733333,18.6666667 28,17.64 28,16.3333333 L28,2.33333333 C28,1.02666667 26.9733333,0 25.6666667,0 Z M14,27.0666667 C10.1266667,27.0666667 7,23.94 7,20.0666667 C7,16.1933333 10.1266667,13.0666667 14,13.0666667 C17.8733333,13.0666667 21,16.1933333 21,20.0666667 C21,23.94 17.8733333,27.0666667 14,27.0666667 Z M3.31333333,14.9333333 L3.68666667,10.4533333 C3.73333333,10.2666667 3.82666667,10.08 4.01333333,10.0333333 L5.83333333,9.42666667 L7.93333333,13.6266667 L10.0333333,9.42666667 L11.8533333,10.0333333 C12.04,10.1266667 12.18,10.2666667 12.18,10.4533333 L12.32,12.32 C10.5466667,12.6933333 9.00666667,13.6266667 7.93333333,14.98 L3.31333333,14.98 L3.31333333,14.9333333 Z M27.0666667,16.3333333 C27.0666667,17.1266667 26.46,17.7333333 25.6666667,17.7333333 L21.6066667,17.7333333 C20.6266667,14.4666667 17.5933333,12.1333333 14,12.1333333 C13.7666667,12.1333333 13.4866667,12.1333333 13.2533333,12.18 L13.1133333,10.36 C13.0666667,9.8 12.6933333,9.33333333 12.18,9.14666667 L9.56666667,8.26 L7.93333333,11.5266667 L6.3,8.26 L3.68666667,9.14666667 C3.17333333,9.33333333 2.8,9.8 2.75333333,10.36 L2.28666667,15.8666667 L7.28,15.8666667 C6.90666667,16.4266667 6.62666667,17.08 6.44,17.7333333 L2.33333333,17.7333333 C1.54,17.7333333 0.933333333,17.1266667 0.933333333,16.3333333 L0.933333333,2.33333333 C0.933333333,1.54 1.54,0.933333333 2.33333333,0.933333333 L25.6666667,0.933333333 C26.46,0.933333333 27.0666667,1.54 27.0666667,2.33333333 L27.0666667,16.3333333 Z" id="Shape" fill="#333333" fill-rule="nonzero"></path>
                <rect id="Rectangle" fill="#333333" x="14" y="3" width="11" height="1"></rect>
                <rect id="Rectangle" fill="#333333" x="14" y="6" width="9" height="1"></rect>
                <rect id="Rectangle" fill="#333333" x="14" y="9" width="11" height="1"></rect>
                <path d="M19,18.7894737 L19,17.8421053 L14,15 L9,17.8421053 L9,18.7894737 L9.90909091,18.7894737 L9.90909091,22.1052632 L9.45454545,22.1052632 L9.45454545,23.0526316 L9,23.0526316 L9,24 L19,24 L19,23.0526316 L18.5454545,23.0526316 L18.5454545,22.1052632 L18.0909091,22.1052632 L18.0909091,18.7894737 L19,18.7894737 Z M15.3636364,22.1052632 L14.4545455,22.1052632 L14.4545455,18.7894737 L15.3636364,18.7894737 L15.3636364,22.1052632 Z M12.6363636,18.7894737 L13.5454545,18.7894737 L13.5454545,22.1052632 L12.6363636,22.1052632 L12.6363636,18.7894737 Z M10.8181818,18.7894737 L11.7272727,18.7894737 L11.7272727,22.1052632 L10.8181818,22.1052632 L10.8181818,18.7894737 Z M17.1818182,22.1052632 L16.2727273,22.1052632 L16.2727273,18.7894737 L17.1818182,18.7894737 L17.1818182,22.1052632 Z" id="Shape" fill="#333333" fill-rule="nonzero"></path>
            </g>
        </g>
    </g>
</svg>