<?xml version="1.0" encoding="UTF-8"?>
<svg width="24px" height="28px" viewBox="0 0 24 28" version="1.1" xmlns="http://www.w3.org/2000/svg" xmlns:xlink="http://www.w3.org/1999/xlink">
    <!-- Generator: Sketch 52.2 (67145) - http://www.bohemiancoding.com/sketch -->
    <title>Custodian</title>
    <desc>Created with Sketch.</desc>
    <g id="Page-1" stroke="none" stroke-width="1" fill="none" fill-rule="evenodd">
        <g id="02_Dashboard#0" transform="translate(-21.000000, -385.000000)" fill="#333333">
            <g id="Custodian" transform="translate(21.000000, 385.000000)">
                <path d="M21.8559107,3.93958582 L18.2142857,3.93958582 C17.0192679,3.93958582 15.8327679,3.57394448 14.7830893,2.88225563 C13.7833929,2.22348872 12.9511607,1.30577599 12.3763929,0.228266071 C12.3013393,0.0876095461 12.1569643,0 12,0 C11.8430357,0 11.6986607,0.0876095461 11.6236071,0.228266071 C11.0488393,1.30577599 10.2166071,2.22348872 9.21691071,2.88225563 C8.16723214,3.57399917 6.98073214,3.93958582 5.78571429,3.93958582 L2.14408929,3.93958582 C0.961875,3.93958582 0,4.92144711 0,6.12840259 L0,11.8125231 C0,14.5809191 0.625928571,17.1560491 1.860375,19.4663818 C2.84608929,21.3111588 4.21864286,22.989084 5.93989286,24.4532899 C8.86130357,26.9385136 11.7432321,27.9362889 11.8644643,27.9775781 C11.9084464,27.9925078 11.9541964,28 12,28 C12.0451607,28 12.090375,27.9926719 12.1338214,27.978125 C12.2551071,27.9374374 15.1376786,26.9529511 18.059625,24.4741806 C19.7811429,23.0138028 21.1538571,21.3365885 22.1397321,19.4892412 C23.374125,17.1761195 24,14.5933332 24,11.8125231 L24,6.12840259 C24,4.92144711 23.038125,3.93958582 21.8559107,3.93958582 Z M23.1428571,11.8125231 C23.1428571,14.4390048 22.5549643,16.8757205 21.3955179,19.0548028 C20.4655714,20.8025641 19.1665714,22.392989 17.5345179,23.7819449 C15.0835714,25.867949 12.5983393,26.8742556 12.0009643,27.098092 C11.4032679,26.8714665 8.91760714,25.8540583 6.46617857,23.7619839 C4.83385714,22.3688718 3.53458929,20.7774078 2.60453571,19.03167 C1.44503571,16.8554314 0.857142857,14.4265907 0.857142857,11.8125231 L0.857142857,6.12840259 C0.857142857,5.40395587 1.43448214,4.81464222 2.14408929,4.81464222 L5.78571429,4.81464222 C7.146,4.81464222 8.49321429,4.40065703 9.68180357,3.61742113 C10.5991607,3.01290432 11.3903571,2.21419182 12,1.28226032 C12.6096429,2.21419182 13.4008393,3.01290432 14.3181964,3.61736644 C15.5067857,4.40060234 16.854,4.81458753 18.2142857,4.81458753 L21.8559107,4.81458753 C22.5655714,4.81458753 23.1428571,5.40390118 23.1428571,6.12834791 L23.1428571,11.8125231 Z" id="Shape" fill-rule="nonzero"></path>
                <path d="M22.5,9 C22.223875,9 22,9.11180473 22,9.24970348 L22,9.75029652 C22,9.88819527 22.223875,10 22.5,10 C22.776125,10 23,9.88819527 23,9.75029652 L23,9.24970348 C23,9.11180473 22.776125,9 22.5,9 Z" id="Path"></path>
                <path d="M22.5834896,4.76939936 L19.0416667,4.76809991 C17.0034375,4.76809991 14.90875,3.80547794 13.2946875,2.12696713 C13.2689063,2.10022011 13.240625,2.07764216 13.2105729,2.05934156 C13.2105729,2.05928742 13.2105208,2.05928742 13.2105208,2.05928742 C13.2103646,2.05917913 13.2102083,2.05907085 13.2100521,2.05896256 C13.2099479,2.0590167 13.2097396,2.05885427 13.2094792,2.0586377 C13.2094271,2.05858355 13.2093229,2.05852941 13.2092708,2.05852941 C13.2091667,2.05842112 13.2090625,2.05836698 13.2089583,2.05831283 C13.2088021,2.05820455 13.2086458,2.05809626 13.2083854,2.05798797 C13.2082292,2.05782554 13.2080208,2.05771725 13.2078646,2.05766311 C13.2077083,2.05755482 13.2075521,2.05744653 13.2073958,2.05739239 C13.2073437,2.05722996 13.2070312,2.05712167 13.2067708,2.05701338 C13.2067708,2.05701338 13.2067708,2.05695924 13.2067187,2.05695924 C13.1458854,2.02079121 13.0780729,2.00178674 13.01,2.00010829 C13.0095312,2.00010829 13.0090625,2.00010829 13.0084896,2.00010829 C13.0081771,2.00010829 13.0077083,2.00005414 13.0075,2.00005414 C13.0069792,2 13.0067188,2.00005414 13.0063021,2.00005414 C13.0041146,2 13.0020833,2 13,2 C12.9979687,2 12.9959896,2 12.9940104,2.00005414 C12.9935937,2 12.9930729,2 12.9927083,2.00005414 C12.9922917,2.00005414 12.9919792,2.00010829 12.9916146,2.00010829 C12.9227604,2.00151603 12.8542187,2.02057463 12.7927604,2.05733825 L12.7927083,2.05733825 C12.7925521,2.05744653 12.7923958,2.05755482 12.7922396,2.05766311 C12.7921875,2.05766311 12.7921354,2.05771725 12.7920833,2.05771725 C12.7919792,2.05782554 12.7918229,2.05793383 12.7916667,2.05798797 C12.7916146,2.05820455 12.7913021,2.05825869 12.7911458,2.05831283 C12.7909896,2.05842112 12.7908333,2.05852941 12.7905729,2.05869184 C12.7904167,2.05880013 12.7902083,2.05885427 12.7900521,2.0590167 C12.7898958,2.05912499 12.7896875,2.05939571 12.7894792,2.05934156 C12.7893229,2.059504 12.7891146,2.05966643 12.7889583,2.05966643 C12.7591146,2.07791288 12.7309896,2.10038254 12.7054167,2.12696713 C11.0913542,3.80547794 8.99666667,4.76809991 6.9584375,4.76809991 L3.41786458,4.76809991 C3.1878125,4.76809991 3.00125,4.96198872 3.00119792,5.20114173 L3,10.830144 C3,15.2376629 4.7125,18.9755317 8.08994792,21.9397945 C9.9696875,23.5897174 11.8743229,24.5442178 12.8423438,24.9662684 C12.8939063,24.9887381 12.9486979,25 13.0035417,25 C13.0578646,25 13.1121875,24.9889547 13.1633854,24.966864 C14.130625,24.549199 16.0336979,23.6030368 17.9121354,21.9585282 C21.2881771,19.0030368 23,15.2588872 23,10.830144 L23,10.3969938 C23,10.1577867 22.8134375,9.96384374 22.5833333,9.96384374 C22.3532292,9.96384374 22.1666667,10.1577867 22.1666667,10.3969938 L22.1666667,10.830144 C22.1666667,14.9914712 20.5545833,18.5127108 17.3752604,21.295971 C15.68125,22.7790228 13.9666667,23.6668181 13.0042708,24.0963947 C12.0407292,23.6623242 10.3236979,22.766678 8.6275,21.2779411 C5.44635417,18.4858555 3.83333333,14.9707341 3.83333333,10.8302522 L3.83442708,5.63440012 L6.95833333,5.63440012 C9.09265625,5.63440012 11.2733333,4.69137819 13,3.03387516 C14.7266667,4.69137819 16.9073438,5.63440012 19.0415104,5.63440012 L22.1666667,5.63553714 L22.1666667,6.06560105 C22.1666667,6.3048082 22.3532292,6.49875116 22.5833333,6.49875116 C22.8134375,6.49875116 23,6.3048082 23,6.06560105 L23,5.20254947 C23,4.96339646 22.8135417,4.7694535 22.5834896,4.76939936 Z" id="Path"></path>
                <path d="M7.6989882,12.321392 L8.2470489,12.321392 C8.78415108,12.321392 9.1805777,12.2378036 9.43634064,12.0706244 C9.69210358,11.9034451 9.81998314,11.6407387 9.81998314,11.2824974 C9.81998314,10.927668 9.68936331,10.6751969 9.42811973,10.5250768 C9.16687615,10.3749566 8.76222871,10.2998976 8.21416526,10.2998976 L7.6989882,10.2998976 L7.6989882,12.321392 Z M7.6989882,13.6110542 L7.6989882,16.482088 L6,16.482088 L6,9 L8.33473862,9 C9.423558,9 10.2291992,9.18508856 10.7516863,9.55527124 C11.2741735,9.92545392 11.5354132,10.4875431 11.5354132,11.2415558 C11.5354132,11.6816808 11.4057067,12.0731815 11.1462901,12.4160696 C10.8868734,12.7589577 10.5196763,13.0276346 10.044688,13.2221085 C11.2504276,14.9041367 12.0359734,15.9907857 12.4013491,16.482088 L10.5160202,16.482088 L8.60328836,13.6110542 L7.6989882,13.6110542 Z M16.643339,16.5844422 C15.923549,16.5844422 15.3590521,16.3405006 14.9498314,15.85261 L14.8621417,15.85261 C14.9206018,16.3302651 14.9498314,16.6066185 14.9498314,16.6816786 L14.9498314,19 L13.2782462,19 L13.2782462,10.7604913 L14.6374368,10.7604913 L14.8731029,11.5025589 L14.9498314,11.5025589 C15.3407833,10.9361964 15.919895,10.6530194 16.6871838,10.6530194 C17.4106276,10.6530194 17.9769513,10.9140199 18.386172,11.4360287 C18.7953927,11.9580374 19,12.6830387 19,13.6110542 C19,14.2217704 18.9040903,14.7523007 18.7122681,15.2026612 C18.5204459,15.6530217 18.2473317,15.9959047 17.8929174,16.2313204 C17.538503,16.4667361 17.121981,16.5844422 16.643339,16.5844422 Z M16.1500843,11.90174 C15.7372099,11.90174 15.4357795,12.0202991 15.2457841,12.2574207 C15.0557888,12.4945423 14.9571389,12.886043 14.9498314,13.4319345 L14.9498314,13.6008188 C14.9498314,14.2149468 15.0475679,14.6550652 15.2430438,14.9211873 C15.4385198,15.1873094 15.748171,15.3203685 16.1720067,15.3203685 C16.9210268,15.3203685 17.2955312,14.7437792 17.2955312,13.5905834 C17.2955312,13.0276328 17.2032752,12.6054262 17.0187605,12.3239509 C16.8342458,12.0424756 16.54469,11.90174 16.1500843,11.90174 Z" id="Rp"></path>
            </g>
        </g>
    </g>
</svg>