<?xml version="1.0" encoding="UTF-8"?>
<svg width="28px" height="28px" viewBox="0 0 28 28" version="1.1" xmlns="http://www.w3.org/2000/svg" xmlns:xlink="http://www.w3.org/1999/xlink">
    <!-- Generator: Sketch 52.2 (67145) - http://www.bohemiancoding.com/sketch -->
    <title>Dashboard</title>
    <desc>Created with Sketch.</desc>
    <g id="Page-1" stroke="none" stroke-width="1" fill="none" fill-rule="evenodd">
        <g id="02_Dashboard#0" transform="translate(-19.000000, -72.000000)" fill="#333333" fill-rule="nonzero">
            <g id="Dashboard" transform="translate(19.000000, 72.000000)">
                <path d="M11.1636831,0 L1.83631688,0 C0.823806547,0 0,0.823806547 0,1.83631688 L0,11.1636831 C0,12.176248 0.823806547,13 1.83631688,13 L11.1636831,13 C12.176248,13 13,12.1761935 13,11.1636831 L13,1.83631688 C13,0.823806547 12.176248,0 11.1636831,0 Z M12.1255816,11.1636831 C12.1255816,11.6940716 11.6940716,12.1255816 11.1636831,12.1255816 L1.83631688,12.1255816 C1.30592835,12.1255816 0.874418429,11.6940716 0.874418429,11.1636831 L0.874418429,1.83631688 C0.874418429,1.30592835 1.30592835,0.874418429 1.83631688,0.874418429 L11.1636831,0.874418429 C11.6940716,0.874418429 12.1255816,1.30592835 12.1255816,1.83631688 L12.1255816,11.1636831 Z" id="Shape"></path>
                <path d="M26.1636831,0 L16.8363169,0 C15.823752,0 15,0.823806547 15,1.83631688 L15,11.1636831 C15,12.176248 15.823752,13 16.8363169,13 L26.1636831,13 C27.176248,13 28,12.1761935 28,11.1636831 L28,1.83631688 C28,0.823806547 27.1761935,0 26.1636831,0 Z M27.1255816,11.1636831 C27.1255816,11.6940716 26.6940716,12.1255816 26.1636831,12.1255816 L16.8363169,12.1255816 C16.3059284,12.1255816 15.8744184,11.6940716 15.8744184,11.1636831 L15.8744184,1.83631688 C15.8744184,1.30592835 16.3059284,0.874418429 16.8363169,0.874418429 L26.1636831,0.874418429 C26.6940716,0.874418429 27.1255816,1.30592835 27.1255816,1.83631688 L27.1255816,11.1636831 Z" id="Shape"></path>
                <path d="M11.1636831,15 L1.83631688,15 C0.823752008,15 0,15.8238065 0,16.8363169 L0,26.1636831 C0,27.1761935 0.823806547,28 1.83631688,28 L11.1636831,28 C12.176248,28 13,27.1761935 13,26.1636831 L13,16.8363169 C13,15.823752 12.176248,15 11.1636831,15 Z M12.1255816,26.1636831 C12.1255816,26.6940716 11.6940716,27.1255816 11.1636831,27.1255816 L1.83631688,27.1255816 C1.30592835,27.1255816 0.874418429,26.6940716 0.874418429,26.1636831 L0.874418429,16.8363169 C0.874418429,16.3059284 1.30592835,15.8744184 1.83631688,15.8744184 L11.1636831,15.8744184 C11.6940716,15.8744184 12.1255816,16.3059284 12.1255816,16.8363169 L12.1255816,26.1636831 Z" id="Shape"></path>
                <path d="M26.1636831,15 L16.8363169,15 C15.823752,15 15,15.8238065 15,16.8363169 L15,26.1636831 C15,27.176248 15.823752,28 16.8363169,28 L26.1636831,28 C27.176248,28 28,27.1761935 28,26.1636831 L28,16.8363169 C28,15.823752 27.1761935,15 26.1636831,15 Z M27.1255816,26.1636831 C27.1255816,26.6940716 26.6940716,27.1255816 26.1636831,27.1255816 L16.8363169,27.1255816 C16.3059284,27.1255816 15.8744184,26.6940716 15.8744184,26.1636831 L15.8744184,16.8363169 C15.8744184,16.3059284 16.3059284,15.8744184 16.8363169,15.8744184 L26.1636831,15.8744184 C26.6940716,15.8744184 27.1255816,16.3059284 27.1255816,16.8363169 L27.1255816,26.1636831 Z" id="Shape"></path>
            </g>
        </g>
    </g>
</svg>