<?xml version="1.0" encoding="UTF-8"?>
<svg width="22px" height="35px" viewBox="0 0 22 35" version="1.1" xmlns="http://www.w3.org/2000/svg" xmlns:xlink="http://www.w3.org/1999/xlink">
    <!-- Generator: Sketch 52.2 (67145) - http://www.bohemiancoding.com/sketch -->
    <title>Transaction</title>
    <desc>Created with Sketch.</desc>
    <g id="Page-1" stroke="none" stroke-width="1" fill="none" fill-rule="evenodd">
        <g id="02_Dashboard#0" transform="translate(-22.000000, -195.000000)" fill="#333333">
            <g id="Transaction" transform="translate(22.000000, 195.000000)">
                <g transform="translate(11.500000, 17.500000) rotate(-90.000000) translate(-11.500000, -17.500000) translate(-6.000000, 6.000000)" fill-rule="nonzero" id="Group">
                    <g transform="translate(0.000000, 0.248174)">
                        <path d="M26.2002841,0.140923421 C26.0002447,0.165590711 25.8507101,0.332779437 25.8522727,0.530021165 L25.8522727,4.03190086 L23.0557528,4.03190086 C21.5446807,2.81643033 19.6059643,2.08641214 17.5,2.08641214 C15.394194,2.08641214 13.4676981,2.81659492 11.9566761,4.03190086 L0.795454545,4.03190086 C0.783032402,4.03133064 0.770589757,4.03133064 0.758167614,4.03190086 C0.553196643,4.05079965 0.396839542,4.21958818 0.397727273,4.42099861 L0.397727273,8.31197605 C0.397749234,8.5268599 0.575804936,8.70105231 0.795454545,8.7010738 L8.98615057,8.7010738 C8.83560841,9.32952696 8.75,9.97362614 8.75,10.6465625 C8.75,11.3153309 8.8374125,11.9671642 8.98615057,12.5920512 L0.795454545,12.5920512 C0.770651441,12.5897666 0.745683786,12.5897666 0.720880682,12.5920512 C0.575725512,12.6179527 0.457152253,12.720333 0.412845076,12.8580197 C0.368537898,12.9957065 0.405777527,13.1460747 0.509588068,13.2486537 L8.46413352,21.0306086 C8.57643693,21.1441401 8.74775869,21.1799772 8.89769987,21.1213021 C9.04764105,21.0626269 9.14643824,20.9210865 9.14772727,20.7631039 L9.14772727,17.2612242 L11.9442472,17.2612242 C13.4572661,18.4831214 15.3878459,19.2188722 17.5,19.2188722 C19.6121538,19.2188722 21.5551628,18.4831214 23.0681818,17.2612242 L34.2045455,17.2612242 C34.4241951,17.2612027 34.6022508,17.0870103 34.6022727,16.8721264 L34.6022727,12.981149 C34.6022508,12.7662651 34.4241951,12.5920727 34.2045455,12.5920512 L26.0262784,12.5920512 C26.1748093,11.967575 26.25,11.3148511 26.25,10.6465625 C26.25,9.97415726 26.1765899,9.32907289 26.0262784,8.7010738 L34.2045455,8.7010738 C34.3683021,8.70484248 34.5176761,8.61001759 34.5808719,8.46217608 C34.6440677,8.31433456 34.6081617,8.14371005 34.4904119,8.03231205 L26.5358665,0.250357162 C26.4476518,0.164549233 26.3234825,0.124057506 26.2002841,0.140923421 Z M26.6477273,1.47844692 L33.2350852,7.92287831 L25.8025568,7.92287831 C25.3990124,6.75156453 24.7331799,5.69366107 23.8884943,4.81009635 L26.25,4.81009635 C26.4696496,4.81007487 26.6477053,4.63588246 26.6477273,4.42099861 L26.6477273,1.47844692 Z M17.0865943,2.86383268 C17.2223012,2.85711919 17.3593166,2.86383268 17.4967505,2.86383268 C21.8946349,2.86383268 25.451296,6.33114882 25.451296,10.6336283 C25.451296,14.9360766 21.8946349,18.4155831 17.4967505,18.4155831 C13.0988657,18.4155831 9.54220505,14.9360766 9.54220505,10.6336283 C9.54220505,6.46560116 12.8796841,3.07195406 17.0865943,2.86383268 Z M1.19318182,4.81009635 L11.1115057,4.81009635 C10.2676601,5.69329376 9.61313938,6.75236996 9.20987216,7.92287831 L1.19318182,7.92287831 L1.19318182,4.81009635 Z M1.76491477,13.3702467 L9.20987216,13.3702467 C9.61091847,14.5396426 10.2583234,15.599562 11.0990767,16.4830287 L8.75,16.4830287 C8.53035039,16.4830502 8.35229469,16.6572426 8.35227273,16.8721264 L8.35227273,19.8146781 L1.76491477,13.3702467 Z M25.8025568,13.3702467 L33.8068182,13.3702467 L33.8068182,16.4830287 L23.9009233,16.4830287 C24.7423957,15.5992457 25.4012735,14.5403333 25.8025568,13.3702467 Z" id="Shape"></path>
                    </g>
                </g>
                <path d="M7.306914,16.6571136 L7.72849916,16.6571136 C8.14165468,16.6571136 8.44659823,16.5902429 8.64333895,16.4564995 C8.84007968,16.3227561 8.93844857,16.112591 8.93844857,15.825998 C8.93844857,15.5421344 8.83797177,15.3401575 8.63701518,15.2200614 C8.43605858,15.0999653 8.12479132,15.0399181 7.70320405,15.0399181 L7.306914,15.0399181 L7.306914,16.6571136 Z M7.306914,17.6888434 L7.306914,19.9856704 L6,19.9856704 L6,14 L7.79595278,14 C8.63350616,14 9.25323014,14.1480708 9.65514334,14.444217 C10.0570565,14.7403631 10.2580101,15.1900345 10.2580101,15.7932446 C10.2580101,16.1453446 10.158236,16.4585452 9.95868465,16.7328557 C9.75913335,17.0071662 9.47667411,17.2221077 9.11129848,17.3776868 C10.0387905,18.7233094 10.6430565,19.5926285 10.9241147,19.9856704 L9.47386172,19.9856704 L8.00252951,17.6888434 L7.306914,17.6888434 Z M14.1871838,20.0675537 C13.6334992,20.0675537 13.1992708,19.8724005 12.8844857,19.482088 L12.817032,19.482088 C12.8620013,19.8642121 12.8844857,20.0852948 12.8844857,20.1453429 L12.8844857,22 L11.5986509,22 L11.5986509,15.408393 L12.6441821,15.408393 L12.8254637,16.0020471 L12.8844857,16.0020471 C13.1852179,15.5489571 13.6306884,15.3224156 14.2209106,15.3224156 C14.7774058,15.3224156 15.2130395,15.5312159 15.5278246,15.9488229 C15.8426098,16.3664299 16,16.946431 16,17.6888434 C16,18.1774163 15.9262233,18.6018406 15.7786678,18.962129 C15.6311122,19.3224174 15.4210244,19.5967237 15.148398,19.7850563 C14.8757715,19.9733889 14.55537,20.0675537 14.1871838,20.0675537 Z M13.8077572,16.321392 C13.4901614,16.321392 13.2582919,16.4162392 13.1121417,16.6059365 C12.9659914,16.7956338 12.8901068,17.1088344 12.8844857,17.5455476 L12.8844857,17.6806551 C12.8844857,18.1719574 12.9596676,18.5240522 13.1100337,18.7369498 C13.2603999,18.9498475 13.4985931,19.0562948 13.8246206,19.0562948 C14.4007898,19.0562948 14.6888702,18.5950234 14.6888702,17.6724667 C14.6888702,17.2221062 14.617904,16.8843409 14.4759696,16.6591607 C14.3340353,16.4339805 14.1113,16.321392 13.8077572,16.321392 Z" id="Rp"></path>
            </g>
        </g>
    </g>
</svg>