<?xml version="1.0" encoding="UTF-8"?>
<svg width="31px" height="26px" viewBox="0 0 31 26" version="1.1" xmlns="http://www.w3.org/2000/svg" xmlns:xlink="http://www.w3.org/1999/xlink">
    <!-- Generator: Sketch 52.2 (67145) - http://www.bohemiancoding.com/sketch -->
    <title>Customer_care</title>
    <desc>Created with Sketch.</desc>
    <g id="Page-1" stroke="none" stroke-width="1" fill="none" fill-rule="evenodd">
        <g id="02_Dashboard#0" transform="translate(-17.000000, -446.000000)" fill="#333333" fill-rule="nonzero">
            <path d="M43.2106742,456.373957 L41.9480337,456.373957 L41.9480337,455.419032 C41.9480337,450.253756 37.6811798,446 32.5,446 C27.3188202,446 23.0519663,450.210351 23.0519663,455.419032 L23.0519663,456.373957 L21.7893258,456.373957 C19.133427,456.373957 17,458.500835 17,461.148581 C17,463.796327 19.133427,465.923205 21.7893258,465.923205 L23.6179775,465.923205 C23.9227528,465.923205 24.1839888,465.662771 24.1839888,465.358932 L24.1839888,455.375626 C24.1839888,450.774624 27.9283708,447.041736 32.5435393,447.041736 C37.1587079,447.041736 40.9030899,450.774624 40.9030899,455.375626 L40.9030899,465.358932 C40.9030899,467.659432 39.0308989,469.569282 36.6797753,469.569282 L35.1123596,469.569282 L35.1123596,468.744574 C35.1123596,468.440735 34.8511236,468.180301 34.5463483,468.180301 L30.8890449,468.180301 C30.3230337,468.180301 29.8441011,468.657763 29.8441011,469.222037 L29.8441011,470.958264 C29.8441011,471.522538 30.3230337,472 30.8890449,472 L34.5463483,472 C34.8511236,472 35.1123596,471.739566 35.1123596,471.435726 L35.1123596,470.611018 L36.636236,470.611018 C39.3792135,470.611018 41.6432584,468.527546 41.9044944,465.8798 L43.2106742,465.8798 C45.866573,465.8798 48,463.752922 48,461.105175 C48,458.457429 45.866573,456.373957 43.2106742,456.373957 Z M18.0884831,461.148581 C18.0884831,459.108514 19.7429775,457.459098 21.7893258,457.459098 L23.0519663,457.459098 L23.0519663,464.838063 L21.7893258,464.838063 C19.7429775,464.838063 18.0884831,463.188648 18.0884831,461.148581 Z M34.0238764,470.958264 L30.9761236,470.958264 L30.9761236,469.308848 L34.0238764,469.308848 L34.0238764,470.958264 Z M43.2106742,464.838063 L41.9480337,464.838063 L41.9480337,457.459098 L43.2106742,457.459098 C45.2570225,457.459098 46.9115169,459.108514 46.9115169,461.148581 C46.9115169,463.188648 45.2570225,464.838063 43.2106742,464.838063 Z" id="Customer_care"></path>
        </g>
    </g>
</svg>