<?xml version="1.0" encoding="UTF-8"?>
<svg width="22px" height="28px" viewBox="0 0 22 28" version="1.1" xmlns="http://www.w3.org/2000/svg" xmlns:xlink="http://www.w3.org/1999/xlink">
    <!-- Generator: Sketch 52.2 (67145) - http://www.bohemiancoding.com/sketch -->
    <title>Letter of Credit</title>
    <desc>Created with Sketch.</desc>
    <g id="Page-1" stroke="none" stroke-width="1" fill="none" fill-rule="evenodd">
        <g id="02_Dashboard#0" transform="translate(-22.000000, -323.000000)" fill="#333333">
            <g id="Letter-of-Credit" transform="translate(22.000000, 323.000000)">
                <path d="M11.5253011,3 L7.47469891,3 C7.21256943,3 7,3.22383685 7,3.5 C7,3.77610079 7.21251021,4 7.47469891,4 L11.5253011,4 C11.7874306,4 12,3.77616315 12,3.5 C12,3.22389921 11.7874306,3 11.5253011,3 Z" id="Path"></path>
                <path d="M7.67390685,7 L7.32609315,7 C7.146024,7 7,7.22383685 7,7.5 C7,7.77616315 7.14598332,8 7.32609315,8 L7.67390685,8 C7.853976,8 8,7.77616315 8,7.5 C8,7.22383685 7.853976,7 7.67390685,7 Z" id="Path"></path>
                <path d="M15.5606556,10 L2.43934442,10 C2.19673774,10 2,10.2238368 2,10.5 C2,10.7761632 2.19668294,11 2.43934442,11 L15.5606556,11 C15.8032623,11 16,10.7761632 16,10.5 C16,10.2238368 15.8032623,10 15.5606556,10 Z" id="Path"></path>
                <path d="M6.61538092,13 L5.38461908,13 C5.17223182,13 5,13.2238368 5,13.5 C5,13.7761632 5.17218384,14 5.38461908,14 L6.61538092,14 C6.82776818,14 7,13.7761632 7,13.5 C7,13.2238368 6.82781616,13 6.61538092,13 Z" id="Path"></path>
                <path d="M3.5161154,13 L2.4838846,13 C2.21668276,13 2,13.2238368 2,13.5 C2,13.7761632 2.2166224,14 2.4838846,14 L3.5161154,14 C3.78331724,14 4,13.7761632 4,13.5 C4,13.2238368 3.78331724,13 3.5161154,13 Z" id="Path"></path>
                <path d="M6.61538092,15 L5.38461908,15 C5.17223182,15 5,15.2238368 5,15.5 C5,15.7761008 5.17218384,16 5.38461908,16 L6.61538092,16 C6.82776818,16 7,15.7761632 7,15.5 C7,15.2238368 6.82781616,15 6.61538092,15 Z" id="Path"></path>
                <path d="M3.5161154,15 L2.4838846,15 C2.21668276,15 2,15.2238368 2,15.5 C2,15.7761008 2.2166224,16 2.4838846,16 L3.5161154,16 C3.78331724,16 4,15.7761632 4,15.5 C4,15.2238368 3.78331724,15 3.5161154,15 Z" id="Path"></path>
                <path d="M6.61538092,17 L5.38461908,17 C5.17223182,17 5,17.2238368 5,17.5 C5,17.7761632 5.17218384,18 5.38461908,18 L6.61538092,18 C6.82776818,18 7,17.7761632 7,17.5 C7,17.2238368 6.82781616,17 6.61538092,17 Z" id="Path"></path>
                <path d="M3.5161154,17 L2.4838846,17 C2.21668276,17 2,17.2238368 2,17.5 C2,17.7761632 2.2166224,18 2.4838846,18 L3.5161154,18 C3.78331724,18 4,17.7761632 4,17.5 C4,17.2238368 3.78331724,17 3.5161154,17 Z" id="Path"></path>
                <path d="M6.61538092,19 L5.38461908,19 C5.17223182,19 5,19.2238368 5,19.5 C5,19.7761632 5.17218384,20 5.38461908,20 L6.61538092,20 C6.82776818,20 7,19.7761632 7,19.5 C7,19.2238368 6.82781616,19 6.61538092,19 Z" id="Path"></path>
                <path d="M3.5161154,19 L2.4838846,19 C2.21668276,19 2,19.2238368 2,19.5 C2,19.7761632 2.2166224,20 2.4838846,20 L3.5161154,20 C3.78331724,20 4,19.7761632 4,19.5 C4,19.2238368 3.78331724,19 3.5161154,19 Z" id="Path"></path>
                <path d="M6.61538092,21 L5.38461908,21 C5.17223182,21 5,21.2238368 5,21.5 C5,21.7761632 5.17218384,22 5.38461908,22 L6.61538092,22 C6.82776818,22 7,21.7761632 7,21.5 C7,21.2238368 6.82781616,21 6.61538092,21 Z" id="Path"></path>
                <path d="M3.5161154,21 L2.4838846,21 C2.21668276,21 2,21.2238368 2,21.5 C2,21.7761632 2.2166224,22 2.4838846,22 L3.5161154,22 C3.78331724,22 4,21.7761632 4,21.5 C4,21.2238368 3.78331724,21 3.5161154,21 Z" id="Path"></path>
                <path d="M12.6739069,7 L12.3260931,7 C12.146024,7 12,7.22383685 12,7.5 C12,7.77616315 12.1459833,8 12.3260931,8 L12.6739069,8 C12.853976,8 13,7.77616315 13,7.5 C13,7.22383685 12.853976,7 12.6739069,7 Z" id="Path"></path>
                <path d="M14.6739069,7 L14.3260931,7 C14.146024,7 14,7.22383685 14,7.5 C14,7.77616315 14.1459833,8 14.3260931,8 L14.6739069,8 C14.853976,8 15,7.77616315 15,7.5 C15,7.22383685 14.8540167,7 14.6739069,7 Z" id="Path"></path>
                <path d="M10.6739069,7 L10.3260931,7 C10.146024,7 10,7.22383685 10,7.5 C10,7.77616315 10.1459833,8 10.3260931,8 L10.6739069,8 C10.853976,8 11,7.77616315 11,7.5 C11,7.22383685 10.853976,7 10.6739069,7 Z" id="Path"></path>
                <path d="M12.5263034,5 L7.47369665,5 C7.21212062,5 7,5.22383685 7,5.5 C7,5.77616315 7.21206153,6 7.47369665,6 L12.5263034,6 C12.7878794,6 13,5.77616315 13,5.5 C13,5.22383685 12.7879385,5 12.5263034,5 Z" id="Path"></path>
                <path d="M20.1906656,12.1586172 L18.3238305,12.1586172 L18.3238305,5.11486719 C18.3238305,4.99860156 18.2784749,4.88709375 18.1976516,4.80489844 L13.6022785,0.12840625 C13.521509,0.04615625 13.4119354,0 13.2976865,0 L1.349867,0 C0.605529731,0 0,0.61621875 0,1.37369531 L0,23.8204531 C0,24.5779297 0.605529731,25.1941484 1.349867,25.1941484 L8.27154257,25.1941484 L8.27154257,26.1586719 C8.27154257,27.174 9.0832684,28 10.0809308,28 L20.1906118,28 C21.1883279,28 22,27.1739453 22,26.1586719 L22,13.9999453 C22.0000537,12.9846172 21.1883279,12.1586172 20.1906656,12.1586172 Z M13.7285112,1.49679687 L16.8529973,4.6764375 L14.6763038,4.6764375 C14.1536932,4.6764375 13.7285112,4.24375 13.7285112,3.71191406 L13.7285112,1.49679687 Z M8.27154257,13.9999453 L8.27154257,24.3172891 L1.349867,24.3172891 C1.08063519,24.3172891 0.861595507,24.0943828 0.861595507,23.8203984 L0.861595507,1.37369531 C0.861595507,1.09971094 1.08063519,0.876804687 1.349867,0.876804687 L12.8668619,0.876804687 L12.8668619,3.71191406 C12.8668619,4.72724219 13.6785877,5.55324219 14.6762501,5.55324219 L17.4621813,5.55324219 L17.4621813,12.1585625 L10.0809845,12.1585625 C9.0832684,12.1586172 8.27154257,12.9846172 8.27154257,13.9999453 Z M21.1384582,26.1586719 C21.1384582,26.6905078 20.7132762,27.1231953 20.1906656,27.1231953 L10.0809845,27.1231953 C9.55837386,27.1231953 9.13319182,26.6905078 9.13319182,26.1586719 L9.13319182,13.9999453 C9.13319182,13.4681094 9.55837386,13.0354219 10.0809845,13.0354219 L20.1906656,13.0354219 C20.7132762,13.0354219 21.1384582,13.4681094 21.1384582,13.9999453 L21.1384582,26.1586719 Z" id="Shape" fill-rule="nonzero"></path>
                <path d="M19.1142807,14 L10.8857193,14 C10.397312,14 10,14.4414547 10,14.9841256 L10,17.0158744 C10,17.5585453 10.397312,18 10.8857193,18 L19.1142807,18 C19.602688,18 20,17.5585453 20,17.0158744 L20,14.9841256 C20,14.4414547 19.602688,14 19.1142807,14 Z M19.1428816,17.0158744 C19.1428816,17.0333972 19.1301047,17.0475936 19.1143341,17.0475936 L10.8857193,17.0475936 C10.8699487,17.0475936 10.8571719,17.0333972 10.8571719,17.0158744 L10.8571719,14.9841256 C10.8571719,14.9666028 10.8699487,14.9524064 10.8857193,14.9524064 L19.1142807,14.9524064 C19.1300513,14.9524064 19.1428281,14.9666028 19.1428281,14.9841256 L19.1428281,17.0158744 L19.1428816,17.0158744 Z" id="Shape" fill-rule="nonzero"></path>
                <path d="M12.0106294,19 L10.9893706,19 C10.4438075,19 10,19.4438075 10,19.9893706 L10,21.0106294 C10,21.5561925 10.4438075,22 10.9893706,22 L12.0106294,22 C12.5561925,22 13,21.5561925 13,21.0106294 L13,19.9893706 C13,19.4438075 12.5561925,19 12.0106294,19 Z M12.0425773,21.0106891 C12.0425773,21.0283053 12.0283053,21.0425773 12.0106891,21.0425773 L10.9893706,21.0425773 C10.9717544,21.0425773 10.9574824,21.0283053 10.9574824,21.0106891 L10.9574824,19.9894303 C10.9574824,19.9718142 10.9717544,19.9575421 10.9893706,19.9575421 L12.0106294,19.9575421 C12.0282456,19.9575421 12.0425176,19.9718142 12.0425176,19.9894303 L12.0425176,21.0106891 L12.0425773,21.0106891 Z" id="Shape" fill-rule="nonzero"></path>
                <path d="M20.0106294,19 L18.9893706,19 C18.4438075,19 18,19.4438075 18,19.9893706 L18,21.0106294 C18,21.5561925 18.4438075,22 18.9893706,22 L20.0106294,22 C20.5561925,22 21,21.5561925 21,21.0106294 L21,19.9893706 C21,19.4438075 20.5561925,19 20.0106294,19 Z M20.0425773,21.0106891 C20.0425773,21.0283053 20.0283053,21.0425773 20.0106891,21.0425773 L18.9894303,21.0425773 C18.9718142,21.0425773 18.9575421,21.0283053 18.9575421,21.0106891 L18.9575421,19.9894303 C18.9575421,19.9718142 18.9718142,19.9575421 18.9894303,19.9575421 L20.0106891,19.9575421 C20.0283053,19.9575421 20.0425773,19.9718142 20.0425773,19.9894303 L20.0425773,21.0106891 Z" id="Shape" fill-rule="nonzero"></path>
                <path d="M16.0106294,19 L14.9893706,19 C14.4438075,19 14,19.4438075 14,19.9893706 L14,21.0106294 C14,21.5561925 14.4438075,22 14.9893706,22 L16.0106294,22 C16.5561925,22 17,21.5561925 17,21.0106294 L17,19.9893706 C17,19.4438075 16.5561925,19 16.0106294,19 Z M16.0425176,21.0106891 C16.0425176,21.0283053 16.0282456,21.0425773 16.0106294,21.0425773 L14.9893706,21.0425773 C14.9717544,21.0425773 14.9574824,21.0283053 14.9574824,21.0106891 L14.9574824,19.9894303 C14.9574824,19.9718142 14.9717544,19.9575421 14.9893706,19.9575421 L16.0106294,19.9575421 C16.0282456,19.9575421 16.0425176,19.9718142 16.0425176,19.9894303 L16.0425176,21.0106891 Z" id="Shape" fill-rule="nonzero"></path>
                <path d="M12.0106294,23 L10.9893706,23 C10.4438075,23 10,23.4438075 10,23.9893706 L10,25.0106294 C10,25.5561925 10.4438075,26 10.9893706,26 L12.0106294,26 C12.5561925,26 13,25.5561925 13,25.0106294 L13,23.9893706 C13,23.4438075 12.5561925,23 12.0106294,23 Z M12.0425773,25.0106294 C12.0425773,25.0282456 12.0283053,25.0425176 12.0106891,25.0425176 L10.9893706,25.0425176 C10.9717544,25.0425176 10.9574824,25.0282456 10.9574824,25.0106294 L10.9574824,23.9893706 C10.9574824,23.9717544 10.9717544,23.9574824 10.9893706,23.9574824 L12.0106294,23.9574824 C12.0282456,23.9574824 12.0425176,23.9717544 12.0425176,23.9893706 L12.0425176,25.0106294 L12.0425773,25.0106294 Z" id="Shape" fill-rule="nonzero"></path>
                <path d="M20.0106294,23 L18.9893706,23 C18.4438075,23 18,23.4438075 18,23.9893706 L18,25.0106294 C18,25.5561925 18.4438075,26 18.9893706,26 L20.0106294,26 C20.5561925,26 21,25.5561925 21,25.0106294 L21,23.9893706 C21,23.4438075 20.5561925,23 20.0106294,23 Z M20.0425773,25.0106294 C20.0425773,25.0282456 20.0283053,25.0425176 20.0106891,25.0425176 L18.9894303,25.0425176 C18.9718142,25.0425176 18.9575421,25.0282456 18.9575421,25.0106294 L18.9575421,23.9893706 C18.9575421,23.9717544 18.9718142,23.9574824 18.9894303,23.9574824 L20.0106891,23.9574824 C20.0283053,23.9574824 20.0425773,23.9717544 20.0425773,23.9893706 L20.0425773,25.0106294 Z" id="Shape" fill-rule="nonzero"></path>
                <path d="M16.0106294,23 L14.9893706,23 C14.4438075,23 14,23.4438075 14,23.9893706 L14,25.0106294 C14,25.5561925 14.4438075,26 14.9893706,26 L16.0106294,26 C16.5561925,26 17,25.5561925 17,25.0106294 L17,23.9893706 C17,23.4438075 16.5561925,23 16.0106294,23 Z M16.0425176,25.0106294 C16.0425176,25.0282456 16.0282456,25.0425176 16.0106294,25.0425176 L14.9893706,25.0425176 C14.9717544,25.0425176 14.9574824,25.0282456 14.9574824,25.0106294 L14.9574824,23.9893706 C14.9574824,23.9717544 14.9717544,23.9574824 14.9893706,23.9574824 L16.0106294,23.9574824 C16.0282456,23.9574824 16.0425176,23.9717544 16.0425176,23.9893706 L16.0425176,25.0106294 Z" id="Shape" fill-rule="nonzero"></path>
            </g>
        </g>
    </g>
</svg>