<?xml version="1.0" encoding="UTF-8"?>
<svg width="28px" height="27px" viewBox="0 0 28 27" version="1.1" xmlns="http://www.w3.org/2000/svg" xmlns:xlink="http://www.w3.org/1999/xlink">
    <!-- Generator: Sketch 52.2 (67145) - http://www.bohemiancoding.com/sketch -->
    <title>Cash Management</title>
    <desc>Created with Sketch.</desc>
    <g id="Page-1" stroke="none" stroke-width="1" fill="none" fill-rule="evenodd">
        <g id="02_Dashboard#0" transform="translate(-19.000000, -263.000000)" fill="#333333">
            <g id="Cash-Management" transform="translate(19.000000, 263.000000)">
                <path d="M13.5,14 C11.0186763,14 9,16.0186763 9,18.5 C9,20.9813237 11.0186763,23 13.5,23 C15.981271,23 18,20.9813237 18,18.5 C18,16.0186763 15.981271,14 13.5,14 Z M13.5,21.9267677 C11.6104272,21.9267677 10.0731797,20.3895202 10.0731797,18.4999474 C10.0731797,16.610322 11.6104798,15.0731271 13.5,15.0731271 C15.3896254,15.0731271 16.9268203,16.6103746 16.9268203,18.4999474 C16.9268203,20.3895728 15.3896254,21.9267677 13.5,21.9267677 Z" id="Shape" fill-rule="nonzero"></path>
                <path d="M27.4422422,0 L0.557757813,0 C0.249703125,0 0,0.248649968 0,0.555283779 L0,26.4447162 C0,26.75135 0.249703125,27 0.557757813,27 L27.4422422,27 C27.7502422,27 28,26.75135 28,26.4447162 L28,0.555283779 C28,0.248649968 27.7502422,0 27.4422422,0 Z M23.5556016,1.11051311 L26.0888906,3.61465294 L1.91121875,3.61465294 L4.44445312,1.11051311 L23.5556016,1.11051311 Z M1.91045313,7.23191924 L4.44450781,4.72527495 L23.5554375,4.72527495 L26.0894922,7.23191924 L1.91045313,7.23191924 Z M23.5552734,8.3424868 L26.0908047,10.8540311 L1.90919531,10.8540311 L4.44478125,8.3424868 L23.5552734,8.3424868 Z M1.11551563,1.11056756 L2.86114062,1.11056756 L1.11551563,2.83609053 L1.11551563,1.11056756 Z M1.11551563,4.72527495 L2.86185156,4.72527495 L1.11551563,6.45264905 L1.11551563,4.72527495 Z M1.11551563,8.3424868 L2.86310938,8.3424868 L1.11551563,10.0735087 L1.11551563,8.3424868 Z M1.11551563,11.9645987 L2.86475,11.9645987 L1.11551563,13.700194 L1.11551563,11.9645987 Z M1.11551563,25.889378 L1.11551563,24.1447449 L2.86797656,25.889378 L1.11551563,25.889378 Z M26.8844844,25.889378 L25.1320781,25.889378 L26.8844844,24.1447449 L26.8844844,25.889378 Z M26.8844844,22.5741177 L23.5544531,25.889378 L4.44560156,25.889378 L1.11557031,22.5741177 L1.11557031,15.2682078 L4.44505469,11.9646531 L23.5549453,11.9646531 L26.8844844,15.2682078 L26.8844844,22.5741177 Z M26.8844844,13.700194 L25.1353047,11.9646531 L26.8844844,11.9646531 L26.8844844,13.700194 Z M26.8844844,10.0735087 L25.1369453,8.3424868 L26.8844844,8.3424868 L26.8844844,10.0735087 Z M26.8844844,6.45264905 L25.1381484,4.72527495 L26.8844844,4.72527495 L26.8844844,6.45264905 Z M26.8844844,2.83609053 L25.1593125,1.13076662 L25.1388594,1.11056756 L26.8844844,1.11056756 L26.8844844,2.83609053 Z" id="Shape" fill-rule="nonzero"></path>
                <path d="M24.596303,17 L24.403697,17 C24.1807711,17 24,17.2238945 24,17.5 C24,17.7761055 24.1807711,18 24.403697,18 L24.596303,18 C24.8192289,18 25,17.7761055 25,17.5 C25.0000396,17.2238945 24.8192289,17 24.596303,17 Z" id="Path"></path>
                <path d="M22.4710947,17 L20.5289572,17 C20.2368612,17 20,17.2238945 20,17.5 C20,17.7761055 20.2368093,18 20.5289572,18 L22.4710428,18 C22.7631388,18 23,17.7761055 23,17.5 C23.0000519,17.2238945 22.7631906,17 22.4710947,17 Z" id="Path"></path>
                <path d="M25.4025307,20 L20.5974693,20 C20.2675402,20 20,20.2238945 20,20.5 C20,20.7761055 20.2675402,21 20.5974693,21 L25.4025307,21 C25.7324598,21 26,20.7761055 26,20.5 C26,20.2238945 25.7324598,20 25.4025307,20 Z" id="Path"></path>
                <path d="M7.40252487,17 L2.59747513,17 C2.26748421,17 2,17.2238945 2,17.5 C2,17.7761055 2.26748421,18 2.59747513,18 L7.40252487,18 C7.73251579,18 8,17.7761055 8,17.5 C8,17.2238945 7.73251579,17 7.40252487,17 Z" id="Path"></path>
                <path d="M7.40252487,20 L2.59747513,20 C2.26748421,20 2,20.2238945 2,20.5 C2,20.7761055 2.26748421,21 2.59747513,21 L7.40252487,21 C7.73251579,21 8,20.7761055 8,20.5 C8,20.2238945 7.73251579,20 7.40252487,20 Z" id="Path"></path>
            </g>
        </g>
    </g>
</svg>