<?xml version="1.0" encoding="UTF-8"?>
<svg width="30px" height="30px" viewBox="0 0 30 30" version="1.1" xmlns="http://www.w3.org/2000/svg" xmlns:xlink="http://www.w3.org/1999/xlink">
    <title>Address Details</title>
    <g id="Page-1" stroke="none" stroke-width="1" fill="none" fill-rule="evenodd">
        <g id="Address-Details">
            <g id="noun_Location_1364778-Copy" transform="translate(4.000000, 3.000000)" fill="#8E8E8E" fill-rule="nonzero">
                <path d="M5.39674059,17.3734797 C2.06806347,17.9644773 0,18.9817793 0,20.4462475 C0,22.6272027 5.03359013,24 11.3427992,24 C17.6520083,24 22.6855984,22.6272027 22.6855984,20.4462475 C22.6855984,18.9843915 20.6255225,17.9685479 17.3077531,17.376842 C16.9636635,17.3154756 16.6349764,17.5446679 16.57361,17.8887575 C16.5122435,18.2328471 16.7414358,18.5615342 17.0855254,18.6229007 C19.7804565,19.1035268 21.4198783,19.9119417 21.4198783,20.4462475 C21.4198783,20.8231787 20.4803673,21.4289751 18.7493533,21.9010699 C16.812285,22.4293612 14.168953,22.7342799 11.3427992,22.7342799 C8.51664539,22.7342799 5.87331339,22.4293612 3.93624507,21.9010699 C2.20523109,21.4289751 1.26572008,20.8231787 1.26572008,20.4462475 C1.26572008,19.9103011 2.91303461,19.0999699 5.61800533,18.6197097 C5.96214224,18.5586091 6.19158853,18.2300993 6.13048795,17.8859623 C6.06938741,17.5418254 5.74087749,17.3123791 5.39674059,17.3734797 Z M11.4077079,0 C7.07625152,0 3.55375253,3.52249899 3.55375253,7.85395536 C3.55375253,13.2980555 10.6432563,20.4503908 10.9443245,20.7527681 C11.0726058,20.8797404 11.2401569,20.943881 11.4077079,20.943881 C11.5752589,20.943881 11.74281,20.8797404 11.8710913,20.7527681 C12.1721596,20.4503908 19.2616633,13.2980555 19.2616633,7.85395536 C19.2616633,3.52249899 15.7391643,0 11.4077079,0 Z M11.4077079,19.3429831 C9.84477077,17.6700906 4.86274512,12.0126247 4.86274512,7.85395536 C4.86274512,4.24506288 7.79881541,1.30899256 11.4077079,1.30899256 C15.0166004,1.30899256 17.9526707,4.24506288 17.9526707,7.85395536 C17.9526707,12.0086978 12.970645,17.6700906 11.4077079,19.3429831 Z M11.4077079,3.92697771 C9.24263419,3.92697771 7.48073024,5.68888165 7.48073024,7.85395536 C7.48073024,10.0190291 9.24263419,11.7809331 11.4077079,11.7809331 C13.5727816,11.7809331 15.3346856,10.0190291 15.3346856,7.85395536 C15.3346856,5.68888165 13.5727816,3.92697771 11.4077079,3.92697771 Z M11.4077079,10.4719405 C9.96388912,10.4719405 8.78972277,9.29777419 8.78972277,7.85395536 C8.78972277,6.41013659 9.96388912,5.23597024 11.4077079,5.23597024 C12.8515267,5.23597024 14.025693,6.41013659 14.025693,7.85395536 C14.025693,9.29777419 12.8515267,10.4719405 11.4077079,10.4719405 Z" id="Shape"></path>
            </g>
            <rect id="Rectangle-Copy-13" x="0" y="0" width="30" height="30"></rect>
        </g>
    </g>
</svg>