<?xml version="1.0" encoding="UTF-8"?>
<svg width="30px" height="30px" viewBox="0 0 30 30" version="1.1" xmlns="http://www.w3.org/2000/svg" xmlns:xlink="http://www.w3.org/1999/xlink">
    <title>Application Details</title>
    <defs>
        <filter id="filter-1">
            <feColorMatrix in="SourceGraphic" type="matrix" values="0 0 0 0 1.000000 0 0 0 0 1.000000 0 0 0 0 1.000000 0 0 0 1.000000 0"></feColorMatrix>
        </filter>
    </defs>
    <g id="Page-1" stroke="none" stroke-width="1" fill="none" fill-rule="evenodd">
        <g id="Application-Details">
            <rect id="Rectangle" x="0" y="0" width="30" height="30"></rect>
            <g filter="url(#filter-1)">
                <g transform="translate(1.000000, 1.000000)">
                    <path d="M21,26.25 L3.0625,26.25 L3.0625,27.125 L21.4375467,27.125 C21.55356,27.125 21.6648133,27.0788933 21.7468533,26.9968533 C21.8288933,26.9148133 21.875,26.80356 21.875,26.6875467 L21.875,3.0625 L21,3.0625 L21,26.25 Z" id="Path" fill="#8E8E8E" fill-rule="nonzero"></path>
                    <path d="M15.6218533,25.2468533 L19.9968533,20.8718533 C20.0374533,20.8312533 20.0697467,20.783 20.09168,20.7298933 C20.1137067,20.67688 20.125,20.6199467 20.125,20.5624533 L20.125,1.3125 C20.125,1.196468 20.0788933,1.08518667 19.9968533,1.00313733 C19.9148133,0.9210936 19.80356,0.875 19.6875467,0.875 L1.3125,0.875 C1.196468,0.875 1.08518667,0.9210936 1.00313733,1.00313733 C0.9210936,1.08518667 0.875,1.196468 0.875,1.3125 L0.875,24.9375467 C0.875,25.05356 0.9210936,25.1648133 1.00313733,25.2468533 C1.08518667,25.3288933 1.196468,25.375 1.3125,25.375 L15.3124533,25.375 C15.3699467,25.375 15.42688,25.3637067 15.4798933,25.34168 C15.533,25.3197467 15.5812533,25.2874533 15.6218533,25.2468533 Z M15.75,23.8812933 L15.75,21 L18.6312933,21 L15.75,23.8812933 Z M1.75,1.75 L19.25,1.75 L19.25,20.125 L15.3124533,20.125 C15.19644,20.125 15.0851867,20.1711067 15.0031467,20.2531467 C14.9211067,20.3351867 14.875,20.44644 14.875,20.5624533 L14.875,24.5 L1.75,24.5 L1.75,1.75 Z" id="Shape" fill="#8E8E8E" fill-rule="nonzero"></path>
                    <polygon id="Path" fill="#8E8E8E" fill-rule="nonzero" points="3.0625 10.9375467 11.8124533 10.9375467 11.8124533 11.8124533 3.0625 11.8124533"></polygon>
                    <polygon id="Path" fill="#8E8E8E" fill-rule="nonzero" points="3.0625 13.125 11.8124533 13.125 11.8124533 14 3.0625 14"></polygon>
                    <polygon id="Path" fill="#8E8E8E" fill-rule="nonzero" points="3.0625 15.3124533 11.8124533 15.3124533 11.8124533 16.1875467 3.0625 16.1875467"></polygon>
                    <polygon id="Path" fill="#8E8E8E" fill-rule="nonzero" points="3.0625 17.5 11.8124533 17.5 11.8124533 18.375 3.0625 18.375"></polygon>
                    <polygon id="Path" fill="#8E8E8E" fill-rule="nonzero" points="3.0625 19.6875467 11.8124533 19.6875467 11.8124533 20.5624533 3.0625 20.5624533"></polygon>
                    <polygon id="Path" fill="#8E8E8E" fill-rule="nonzero" points="3.0625 21.875 11.8124533 21.875 11.8124533 22.75 3.0625 22.75"></polygon>
                    <polygon id="Path" fill="#8E8E8E" fill-rule="nonzero" points="12.6875467 10.9375467 17.9375467 10.9375467 17.9375467 11.8124533 12.6875467 11.8124533"></polygon>
                    <polygon id="Path" fill="#8E8E8E" fill-rule="nonzero" points="12.6875467 13.125 17.9375467 13.125 17.9375467 14 12.6875467 14"></polygon>
                    <polygon id="Path" fill="#8E8E8E" fill-rule="nonzero" points="12.6875467 15.3124533 17.9375467 15.3124533 17.9375467 16.1875467 12.6875467 16.1875467"></polygon>
                    <polygon id="Path" fill="#8E8E8E" fill-rule="nonzero" points="12.6875467 17.5 17.9375467 17.5 17.9375467 18.375 12.6875467 18.375"></polygon>
                    <polygon id="Path" fill="#8E8E8E" fill-rule="nonzero" points="12.6875467 19.6875467 14 19.6875467 14 20.5624533 12.6875467 20.5624533"></polygon>
                    <polygon id="Path" fill="#8E8E8E" fill-rule="nonzero" points="12.6875467 21.875 14 21.875 14 22.75 12.6875467 22.75"></polygon>
                    <path d="M3.5,9.625 L8.3125,9.625 C8.428532,9.625 8.53981333,9.57889333 8.62186267,9.49685333 C8.70390267,9.41481333 8.75,9.303532 8.75,9.1875 L8.75,3.5 C8.75,3.383968 8.70390267,3.27268667 8.62186267,3.19063733 C8.53981333,3.10859733 8.428532,3.0625 8.3125,3.0625 L3.5,3.0625 C3.383968,3.0625 3.27268667,3.10859733 3.19063733,3.19063733 C3.10859733,3.27268667 3.0625,3.383968 3.0625,3.5 L3.0625,9.1875 C3.0625,9.303532 3.10859733,9.41481333 3.19063733,9.49685333 C3.27268667,9.57889333 3.383968,9.625 3.5,9.625 Z M5.422536,6.785352 C5.336464,6.691468 5.279568,6.57455867 5.258792,6.44889467 C5.238016,6.32323067 5.254256,6.19423467 5.30554267,6.07764267 C5.35682,5.96105067 5.44092267,5.86190267 5.54759333,5.79228533 C5.65425467,5.72267733 5.77887333,5.68560533 5.90624533,5.68560533 C6.03362667,5.68560533 6.15824533,5.72267733 6.26490667,5.79228533 C6.37157733,5.86190267 6.45568,5.96105067 6.50695733,6.07764267 C6.558244,6.19423467 6.574484,6.32323067 6.553708,6.44889467 C6.532932,6.57455867 6.476036,6.691468 6.389964,6.785352 C6.33949867,6.84053067 6.30402267,6.907712 6.28691467,6.98049333 C6.26980667,7.053284 6.271636,7.12923867 6.29223467,7.20111467 C6.31283333,7.27299067 6.35150133,7.33838933 6.40456133,7.39106667 C6.45762133,7.443744 6.52329067,7.48195467 6.595316,7.50203067 C6.89045467,7.58509733 7.15868533,7.744016 7.373324,7.96296667 C7.58795333,8.18191733 7.741496,8.45326533 7.81867333,8.75 L3.99382667,8.75 C4.071004,8.45326533 4.22454667,8.18191733 4.439176,7.96296667 C4.65381467,7.744016 4.92204533,7.58509733 5.217184,7.50203067 C5.289228,7.48197333 5.35492533,7.44379067 5.408004,7.39112267 C5.461092,7.33845467 5.499788,7.27306533 5.52040533,7.20118 C5.54102267,7.129304 5.54287067,7.05334 5.52578133,6.98054 C5.50868267,6.90774 5.473216,6.84054 5.42276,6.785352 L5.422536,6.785352 Z M7.875,3.9375 L7.875,7.23324 C7.71456,7.08889067 7.53690933,6.96492533 7.34606133,6.86415333 C7.42978133,6.63290133 7.45655867,6.38488667 7.42413467,6.14109067 C7.39172,5.89729467 7.301056,5.664904 7.15981467,5.46356533 C7.01857333,5.26221733 6.83091733,5.09786667 6.61271333,4.98440133 C6.39450933,4.87092667 6.152188,4.811688 5.90624533,4.811688 C5.660312,4.811688 5.41799067,4.87092667 5.19978667,4.98440133 C4.98158267,5.09786667 4.79392667,5.26221733 4.65268533,5.46356533 C4.511444,5.664904 4.42078,5.89729467 4.38836533,6.14109067 C4.35594133,6.38488667 4.38271867,6.63290133 4.46643867,6.86415333 C4.27559067,6.96492533 4.09794,7.08889067 3.9375,7.23324 L3.9375,3.9375 L7.875,3.9375 Z" id="Shape" fill="#8E8E8E" fill-rule="nonzero"></path>
                    <polygon id="Path" fill="#8E8E8E" fill-rule="nonzero" points="9.625 3.9375 12.25 3.9375 12.25 4.8125 9.625 4.8125"></polygon>
                    <polygon id="Path" fill="#8E8E8E" fill-rule="nonzero" points="9.625 6.125 17.9375467 6.125 17.9375467 7 9.625 7"></polygon>
                    <polygon id="Path" fill="#8E8E8E" fill-rule="nonzero" points="9.625 8.3125 14 8.3125 14 9.1875 9.625 9.1875"></polygon>
                    <polygon id="Path" fill="#8E8E8E" fill-rule="nonzero" points="14.875 8.3125 17.9375467 8.3125 17.9375467 9.1875 14.875 9.1875"></polygon>
                    <polygon id="Path" fill="#8E8E8E" fill-rule="nonzero" points="16.1875467 3.0625 17.9375467 3.0625 17.9375467 3.9375 16.1875467 3.9375"></polygon>
                    <polygon id="Path" fill="#8E8E8E" fill-rule="nonzero" points="14.4375467 3.0625 15.3124533 3.0625 15.3124533 3.9375 14.4375467 3.9375"></polygon>
                    <path d="M25.8124533,6.125 L25.375,6.125 L25.375,5.6875 C25.375,5.339404 25.23668,5.00556 24.99056,4.75942133 C24.74444,4.51328267 24.4105867,4.375 24.0624533,4.375 C23.7144133,4.375 23.38056,4.51328267 23.13444,4.75942133 C22.88832,5.00556 22.75,5.339404 22.75,5.6875 L22.75,21.4375467 C22.75,21.5054 22.76596,21.5724133 22.7965733,21.6329867 L22.7962,21.6329867 L23.6712,23.3829867 C23.7075067,23.4556933 23.7634133,23.5167333 23.83248,23.55948 C23.90164,23.6022267 23.9812533,23.6248133 24.0624533,23.6248133 C24.1437467,23.6248133 24.22336,23.6022267 24.29252,23.55948 C24.3615867,23.5167333 24.4174933,23.4556933 24.4538,23.3829867 L25.3288,21.6329867 L25.3284267,21.6329867 C25.35904,21.5724133 25.375,21.5054 25.375,21.4375467 L25.375,7 L25.8124533,7 C25.9284667,7.00013067 26.03972,7.04626533 26.12176,7.12828667 C26.2037067,7.210308 26.2499067,7.32150533 26.25,7.4375 L26.25,12.6875467 L27.125,12.6875467 L27.125,7.4375 C27.1246267,7.08952533 26.9862133,6.755924 26.7400933,6.50986933 C26.4940667,6.26381467 26.1604933,6.12540133 25.8124533,6.125 Z M24.0624533,5.25 C24.1784667,5.25013067 24.28972,5.29626533 24.37176,5.37828667 C24.4537067,5.460308 24.4999067,5.57150533 24.5,5.6875 L24.5,6.125 L23.625,6.125 L23.625,5.6875 C23.6250933,5.57150533 23.6712933,5.460308 23.75324,5.37828667 C23.83528,5.29626533 23.9465333,5.25013067 24.0624533,5.25 Z M24.5,21 L23.625,21 L23.625,15.3124533 L24.5,15.3124533 L24.5,21 Z M24.5,14.4375467 L23.625,14.4375467 L23.625,13.5624533 L24.5,13.5624533 L24.5,14.4375467 Z M23.8953867,21.875 L24.2296133,21.875 L24.0624533,22.2092267 L23.8953867,21.875 Z M24.5,12.6875467 L23.625,12.6875467 L23.625,7 L24.5,7 L24.5,12.6875467 Z" id="Shape" fill="#8E8E8E" fill-rule="nonzero"></path>
                </g>
            </g>
        </g>
    </g>
</svg>