<?xml version="1.0" encoding="UTF-8"?>
<svg width="30px" height="30px" viewBox="0 0 30 30" version="1.1" xmlns="http://www.w3.org/2000/svg" xmlns:xlink="http://www.w3.org/1999/xlink">
    <title>Asset Details</title>
    <g id="Page-1" stroke="none" stroke-width="1" fill="none" fill-rule="evenodd">
        <g id="Asset-Details">
            <g id="commerce-copy" transform="translate(4.000000, 0.000000)" fill="#8E8E8E" fill-rule="nonzero">
                <path d="M9.375,18.75 C14.544668,18.75 18.75,14.544668 18.75,9.375 C18.75,4.20533203 14.544668,0 9.375,0 C4.20533203,0 0,4.20533203 0,9.375 C0,14.544668 4.20533203,18.75 9.375,18.75 Z M9.375,1.24998047 C13.8549609,1.24998047 17.5000195,4.89498047 17.5000195,9.375 C17.5000195,13.8550195 13.8549609,17.5000195 9.375,17.5000195 C4.89503906,17.5000195 1.24998047,13.8549609 1.24998047,9.375 C1.24998047,4.89503906 4.89503906,1.24998047 9.375,1.24998047 Z" id="Shape"></path>
                <path d="M9.68748047,11.8750195 L7.5,11.8750195 C7.15453125,11.8750195 6.87498047,12.1545703 6.87498047,12.5000391 C6.87498047,12.8455078 7.15453125,13.1250586 7.5,13.1250586 L8.74998047,13.1250586 L8.74998047,13.7500781 C8.74998047,14.0955469 9.02953125,14.3750977 9.375,14.3750977 C9.72046875,14.3750977 10.0000195,14.0955469 10.0000195,13.7500781 L10.0000195,13.0934766 C11.0574023,12.9402539 11.8750195,12.0366797 11.8750195,10.9375781 C11.8750195,9.73154297 10.8935742,8.75009766 9.68753906,8.75009766 L9.06251953,8.75009766 C8.54554687,8.75009766 8.12501953,8.32957031 8.12501953,7.81259766 C8.12501953,7.295625 8.54554687,6.87509766 9.06251953,6.87509766 L11.25,6.87509766 C11.5954687,6.87509766 11.8750195,6.59554688 11.8750195,6.25007813 C11.8750195,5.90455078 11.5954687,5.625 11.25,5.625 L10.0000195,5.625 L10.0000195,4.99998047 C10.0000195,4.65451172 9.72046875,4.37496094 9.375,4.37496094 C9.02953125,4.37496094 8.74998047,4.65451172 8.74998047,4.99998047 L8.74998047,5.65658203 C7.69259766,5.80980469 6.87498047,6.71337891 6.87498047,7.81248047 C6.87498047,9.01851563 7.85642578,9.99996094 9.06246094,9.99996094 L9.68748047,9.99996094 C10.2044531,9.99996094 10.6249805,10.4204883 10.6249805,10.9374609 C10.6249805,11.4544922 10.2044531,11.8750195 9.68748047,11.8750195 Z" id="Path"></path>
                <path d="M21.8749805,17.5000195 L16.875,17.5000195 C16.5295312,17.5000195 16.2499805,17.7795703 16.2499805,18.1250391 C16.2499805,18.4705078 16.5295312,18.7500586 16.875,18.7500586 L20.3661914,18.7500586 L12.4999854,26.6162695 L7.94185547,22.0581445 C7.69769531,21.8139844 7.3021875,21.8139844 7.05808594,22.0581445 L0.183105469,28.933125 C-0.0610546875,29.1772852 -0.0610546875,29.572793 0.183105469,29.8168945 C0.30515625,29.9389453 0.465117187,30 0.625019531,30 C0.784921875,30 0.944824219,29.9389453 1.06693359,29.8168945 L7.5,23.3837695 L12.058125,27.9418945 C12.3022852,28.1860547 12.697793,28.1860547 12.9418945,27.9418945 L21.2500195,19.6337695 L21.2500195,23.1249609 C21.2500195,23.4704297 21.5295703,23.7499805 21.8750391,23.7499805 C22.2205078,23.7499805 22.5000586,23.4704297 22.5000586,23.1249609 L22.5000586,18.1249805 C22.5000586,17.7795703 22.2204492,17.5000195 21.8749805,17.5000195 Z" id="Path"></path>
            </g>
            <rect id="Rectangle-Copy-3" x="0" y="0" width="30" height="30"></rect>
        </g>
    </g>
</svg>