<svg width="62" height="62" xmlns="http://www.w3.org/2000/svg">
 <!-- Generator: Sketch 64 (93537) - https://sketch.com -->

 <title>noun_Car loan_2754461</title>
 <desc>Created with Sketch.</desc>
 <g>
  <title>background</title>
  <rect fill="none" id="canvas_background" height="402" width="582" y="-1" x="-1"/>
 </g>
 <g>
  <title>Layer 1</title>
  <path fill="#f8e71c" id="Path" d="m15.516129,12.612903c0.534194,0 0.967742,0.434516 0.967742,0.967742l1.935484,0c0,-1.26 -0.811936,-2.324516 -1.935484,-2.725161l0,-2.113549l-1.935484,0l0,1.935484l-1.935484,0l0,2.903226c0,1.600645 1.302581,2.903226 2.903226,2.903226c0.534194,0 0.967742,0.434516 0.967742,0.967742l0,0.967742l-0.967742,0c-0.534193,0 -0.967742,-0.434516 -0.967742,-0.967742l-1.935484,0c0,1.26 0.811936,2.324516 1.935484,2.725161l0,2.113549l1.935484,0l0,-1.935484l1.935484,0l0,-2.903226c0,-1.600645 -1.302581,-2.903226 -2.903226,-2.903226c-0.534193,0 -0.967742,-0.434516 -0.967742,-0.967742l0,-0.967742l0.967742,0z"/>
  <path fill="#f8e71c" id="Shape" d="m15.516129,4.870968c-5.869355,0 -10.645161,4.775806 -10.645161,10.645161c0,5.869355 4.775806,10.645161 10.645161,10.645161c5.869355,0 10.645161,-4.775806 10.645161,-10.645161c0,-5.869355 -4.775806,-10.645161 -10.645161,-10.645161zm0,19.354839c-4.802903,0 -8.709677,-3.907743 -8.709677,-8.709678c0,-4.801935 3.906774,-8.709677 8.709677,-8.709677c4.802903,0 8.709678,3.907742 8.709678,8.709677c0,4.801935 -3.906775,8.709678 -8.709678,8.709678z"/>
  <rect fill="#f8e71c" height="1.935484" width="1.935484" y="14.548387" x="8.741935" id="Rectangle"/>
  <rect fill="#f8e71c" height="1.935484" width="1.935484" y="14.548387" x="20.354839" id="Rectangle"/>
  <path fill="#f8e71c" id="Shape" d="m55.461613,10.677419l-26.276129,0c-1.999355,-5.628387 -7.363549,-9.677419 -13.669355,-9.677419c-8.004194,0 -14.516129,6.511935 -14.516129,14.516129c0,8.004194 6.511935,14.516129 14.516129,14.516129c6.305806,0 11.67,-4.049032 13.669355,-9.677419l9.186774,0l0.967742,-1.935484l0.739355,0l0.967742,1.935484l3.131613,0l0.967742,-1.935484l0.739355,0l0.967741,1.935484l3.131613,0l0.967742,-1.935484l0.739355,0l0.967742,1.935484l2.802581,0l5.537419,-3.323226l0,-3.031936l-5.538387,-3.322258zm-39.945484,17.419355c-6.936774,0 -12.580645,-5.643871 -12.580645,-12.580645c0,-6.936774 5.643871,-12.580645 12.580645,-12.580645c6.936774,0 12.580645,5.643871 12.580645,12.580645c0,6.936774 -5.643871,12.580645 -12.580645,12.580645zm43.548387,-12.160645l-4.139032,2.483226l-1.068387,0l-0.967742,-1.935484l-3.131613,0l-0.967742,1.935484l-0.739355,0l-0.967742,-1.935484l-3.131613,0l-0.967742,1.935484l-0.739354,0l-0.967742,-1.935484l-3.131613,0l-0.967742,1.935484l-7.436129,0c0.128709,-0.63 0.200322,-1.279355 0.243871,-1.935484l2.950645,0l0,-1.935484l-2.952581,0c-0.043548,-0.656129 -0.115161,-1.305484 -0.243871,-1.935484l25.185484,0l4.14,2.483226l0,0.84z"/>
  <path fill="#f8e71c" id="Shape" d="m13.580645,51.322581c-1.600645,0 -2.903226,1.30258 -2.903226,2.903225c0,1.600646 1.302581,2.903226 2.903226,2.903226c1.600645,0 2.903226,-1.30258 2.903226,-2.903226c0,-1.600645 -1.302581,-2.903225 -2.903226,-2.903225zm0,3.870967c-0.534193,0 -0.967742,-0.434516 -0.967742,-0.967742c0,-0.533225 0.433549,-0.967741 0.967742,-0.967741c0.534194,0 0.967742,0.434516 0.967742,0.967741c0,0.533226 -0.433548,0.967742 -0.967742,0.967742z"/>
  <path fill="#f8e71c" id="Shape" d="m46.483871,51.322581c-1.600645,0 -2.903226,1.30258 -2.903226,2.903225c0,1.600646 1.302581,2.903226 2.903226,2.903226c1.600645,0 2.903226,-1.30258 2.903226,-2.903226c0,-1.600645 -1.302581,-2.903225 -2.903226,-2.903225zm0,3.870967c-0.534194,0 -0.967742,-0.434516 -0.967742,-0.967742c0,-0.533225 0.433548,-0.967741 0.967742,-0.967741c0.534194,0 0.967742,0.434516 0.967742,0.967741c0,0.533226 -0.433548,0.967742 -0.967742,0.967742z"/>
  <path fill="#f8e71c" id="Shape" d="m57.336129,39.006129l0,0l-0.657097,-0.165484l-0.000968,0.000968l-3.764516,-0.941613l-3.345484,-5.574194c-1.563871,-2.609032 -4.425483,-4.229032 -7.467096,-4.229032l-13.482581,0c-2.448387,0 -4.798064,1.039355 -6.445161,2.850968l-7.139032,7.853226l-8.169678,1.167096l-0.040645,0.005807l0,0l-0.007742,0.000968c-3.315484,0.474193 -5.816129,3.357097 -5.816129,6.706451l0,7.544516c0,1.600646 1.302581,2.903226 2.903226,2.903226l3.566129,0c1.089677,2.284839 3.416129,3.870968 6.11129,3.870968c2.695161,0 5.020645,-1.586129 6.11129,-3.870968l20.680646,0c1.089677,2.284839 3.416129,3.870968 6.11129,3.870968c2.695161,0 5.020645,-1.586129 6.11129,-3.870968l3.566129,0c2.668065,0 4.83871,-2.170645 4.83871,-4.838709l0,-8.590646c0,-2.223871 -1.506774,-4.153548 -3.663871,-4.693548zm1.728387,4.693548l0,3.614517c-1.665484,-0.432581 -2.903226,-1.935484 -2.903226,-3.733549c0,-0.959032 0.387097,-1.867742 1.044194,-2.580968c1.108064,0.426775 1.859032,1.486452 1.859032,2.7zm-43.066452,-3.08129l7.60742,-8.368064c1.28129,-1.41 3.108387,-2.218065 5.012903,-2.218065l13.482581,0c2.365161,0 4.590967,1.26 5.808387,3.289355l3.757742,6.262258l3.497419,0.874839c-0.603871,0.926129 -0.93871,2.004193 -0.93871,3.121935c0,2.87129 2.097097,5.255807 4.83871,5.719355l0,2.022581l-6.469355,0c-1.089677,-2.284839 -3.416129,-3.870968 -6.11129,-3.870968c-2.695161,0 -5.020645,1.586129 -6.11129,3.870968l-6.469355,0l0,-19.354839l-8.18129,0l-7.302581,8.345806l0,9.180968c-1.230968,-1.259032 -2.943871,-2.042903 -4.83871,-2.042903c-2.695161,0 -5.020645,1.586129 -6.11129,3.870968l-4.533871,0l0,-1.935484c3.202258,0 5.806451,-2.604194 5.806451,-5.806452c0,-0.644516 -0.119032,-1.276452 -0.327096,-1.879355l7.583225,-1.082903zm15.969678,-0.90871l-10.447742,0l5.080645,-5.806451l5.367097,0l0,5.806451zm-11.612903,1.935484l11.612903,0l0,1.935484l-3.870968,0l0,1.935484l3.870968,0l0,5.806452l-11.612903,0l0,-9.67742zm-17.419355,5.036129c0,-2.178387 1.487419,-4.065484 3.540968,-4.643226c0.213871,0.485807 0.33,1.008388 0.33,1.542581c0,2.134839 -1.736129,3.870968 -3.870968,3.870968l0,-0.770323zm0.967742,8.512258c-0.534194,0 -0.967742,-0.434516 -0.967742,-0.967742l0,-0.967741l3.948387,0c-0.045484,0.317419 -0.077419,0.638709 -0.077419,0.967741c0,0.329033 0.031935,0.650323 0.077419,0.967742l-2.980645,0zm9.677419,3.870968c-2.668064,0 -4.83871,-2.170645 -4.83871,-4.83871c0,-2.668064 2.170646,-4.838709 4.83871,-4.838709c2.668065,0 4.83871,2.170645 4.83871,4.838709c0,2.668065 -2.170645,4.83871 -4.83871,4.83871zm6.696774,-3.870968c0.045484,-0.317419 0.07742,-0.638709 0.07742,-0.967742c0,-0.329032 -0.031936,-0.650322 -0.07742,-0.967741l19.509678,0c-0.045484,0.317419 -0.07742,0.638709 -0.07742,0.967741c0,0.329033 0.031936,0.650323 0.07742,0.967742l-19.509678,0zm26.206452,3.870968c-2.668064,0 -4.83871,-2.170645 -4.83871,-4.83871c0,-2.668064 2.170646,-4.838709 4.83871,-4.838709c2.668065,0 4.83871,2.170645 4.83871,4.838709c0,2.668065 -2.170645,4.83871 -4.83871,4.83871zm9.677419,-3.870968l-2.980645,0c0.045484,-0.317419 0.07742,-0.638709 0.07742,-0.967742c0,-0.329032 -0.031936,-0.650322 -0.07742,-0.967741l5.705807,0c-0.400645,1.123548 -1.465162,1.935483 -2.725162,1.935483z"/>
  <path fill="#f8e71c" id="Shape" d="m49.387097,39.452258l-4.27742,-7.484516l-9.270967,0l0,9.677419l13.548387,0l0,-2.192903zm-11.612903,0.257419l0,-5.806451l6.212903,0l3.318387,5.806451l-9.53129,0z"/>
  <rect fill="#f8e71c" height="1.935484" width="1.935484" y="14.548387" x="34.870968" id="Rectangle"/>
 </g>
</svg>