<?xml version="1.0" encoding="UTF-8"?>
<svg width="25px" height="27px" viewBox="0 0 25 27" version="1.1" xmlns="http://www.w3.org/2000/svg" xmlns:xlink="http://www.w3.org/1999/xlink">
    <!-- Generator: Sketch 52 (66869) - http://www.bohemiancoding.com/sketch -->
    <title>calendar</title>
    <desc>Created with Sketch.</desc>
    <g id="New-Option" stroke="none" stroke-width="1" fill="none" fill-rule="evenodd" opacity="0.8">
        <g id="03_DGFT---Personal-Details" transform="translate(-1219.000000, -436.000000)" fill="#4A4A4A" fill-rule="nonzero">
            <g id="Group-31" transform="translate(134.000000, 122.000000)">
                <g id="Group-9" transform="translate(379.000000, 24.000000)">
                    <g id="Group-19" transform="translate(2.000000, 268.000000)">
                        <g id="calendar" transform="translate(704.000000, 22.000000)">
                            <path d="M24.5535714,1.78571429 L21.4285714,1.78571429 L21.4285714,0.446428571 C21.4285714,0.199553571 21.2290179,0 20.9821429,0 L17.8571429,0 C17.6102679,0 17.4107143,0.199553571 17.4107143,0.446428571 L17.4107143,1.78571429 L7.58928571,1.78571429 L7.58928571,0.446428571 C7.58928571,0.199553571 7.38973214,0 7.14285714,0 L4.01785714,0 C3.77098214,0 3.57142857,0.199553571 3.57142857,0.446428571 L3.57142857,1.78571429 L0.446428571,1.78571429 C0.199553571,1.78571429 0,1.98526786 0,2.23214286 L0,7.14285714 L0,26.3392857 C0,26.5861607 0.199553571,26.7857143 0.446428571,26.7857143 L24.5535714,26.7857143 C24.8004464,26.7857143 25,26.5861607 25,26.3392857 L25,7.14285714 L25,2.23214286 C25,1.98526786 24.8004464,1.78571429 24.5535714,1.78571429 Z M18.3035714,0.892857143 L20.5357143,0.892857143 L20.5357143,2.23214286 L20.5357143,3.57142857 L18.3035714,3.57142857 L18.3035714,2.23214286 L18.3035714,0.892857143 Z M4.46428571,0.892857143 L6.69642857,0.892857143 L6.69642857,2.23214286 L6.69642857,3.57142857 L4.46428571,3.57142857 L4.46428571,2.23214286 L4.46428571,0.892857143 Z M0.892857143,2.67857143 L3.57142857,2.67857143 L3.57142857,4.01785714 C3.57142857,4.26473214 3.77098214,4.46428571 4.01785714,4.46428571 L7.14285714,4.46428571 C7.38973214,4.46428571 7.58928571,4.26473214 7.58928571,4.01785714 L7.58928571,2.67857143 L17.4107143,2.67857143 L17.4107143,4.01785714 C17.4107143,4.26473214 17.6102679,4.46428571 17.8571429,4.46428571 L20.9821429,4.46428571 C21.2290179,4.46428571 21.4285714,4.26473214 21.4285714,4.01785714 L21.4285714,2.67857143 L24.1071429,2.67857143 L24.1071429,6.69642857 L0.892857143,6.69642857 L0.892857143,2.67857143 Z M0.892857143,25.8928571 L0.892857143,7.58928571 L24.1071429,7.58928571 L24.1071429,25.8928571 L0.892857143,25.8928571 Z" id="Shape"></path>
                            <path d="M16.0714286,10.2678571 L12.9464286,10.2678571 L12.0535714,10.2678571 L8.92857143,10.2678571 L8.03571429,10.2678571 L4.01785714,10.2678571 L4.01785714,14.2857143 L4.01785714,15.1785714 L4.01785714,18.3035714 L4.01785714,19.1964286 L4.01785714,23.2142857 L8.03571429,23.2142857 L8.92857143,23.2142857 L12.0535714,23.2142857 L12.9464286,23.2142857 L16.0714286,23.2142857 L16.9642857,23.2142857 L20.9821429,23.2142857 L20.9821429,19.1964286 L20.9821429,18.3035714 L20.9821429,15.1785714 L20.9821429,14.2857143 L20.9821429,10.2678571 L16.9642857,10.2678571 L16.0714286,10.2678571 Z M12.9464286,11.1607143 L16.0714286,11.1607143 L16.0714286,14.2857143 L12.9464286,14.2857143 L12.9464286,11.1607143 Z M16.0714286,18.3035714 L12.9464286,18.3035714 L12.9464286,15.1785714 L16.0714286,15.1785714 L16.0714286,18.3035714 Z M8.92857143,15.1785714 L12.0535714,15.1785714 L12.0535714,18.3035714 L8.92857143,18.3035714 L8.92857143,15.1785714 Z M8.92857143,11.1607143 L12.0535714,11.1607143 L12.0535714,14.2857143 L8.92857143,14.2857143 L8.92857143,11.1607143 Z M4.91071429,11.1607143 L8.03571429,11.1607143 L8.03571429,14.2857143 L4.91071429,14.2857143 L4.91071429,11.1607143 Z M4.91071429,15.1785714 L8.03571429,15.1785714 L8.03571429,18.3035714 L4.91071429,18.3035714 L4.91071429,15.1785714 Z M8.03571429,22.3214286 L4.91071429,22.3214286 L4.91071429,19.1964286 L8.03571429,19.1964286 L8.03571429,22.3214286 Z M12.0535714,22.3214286 L8.92857143,22.3214286 L8.92857143,19.1964286 L12.0535714,19.1964286 L12.0535714,22.3214286 Z M16.0714286,22.3214286 L12.9464286,22.3214286 L12.9464286,19.1964286 L16.0714286,19.1964286 L16.0714286,22.3214286 Z M20.0892857,22.3214286 L16.9642857,22.3214286 L16.9642857,19.1964286 L20.0892857,19.1964286 L20.0892857,22.3214286 Z M20.0892857,18.3035714 L16.9642857,18.3035714 L16.9642857,15.1785714 L20.0892857,15.1785714 L20.0892857,18.3035714 Z M20.0892857,11.1607143 L20.0892857,14.2857143 L16.9642857,14.2857143 L16.9642857,11.1607143 L20.0892857,11.1607143 Z" id="Shape"></path>
                        </g>
                    </g>
                </g>
            </g>
        </g>
    </g>
</svg>