<svg id="cog-line" xmlns="http://www.w3.org/2000/svg" width="36" height="36" viewBox="0 0 36 36">
  <path id="Path_856" data-name="Path 856" d="M18.1,11a7,7,0,1,0,7,7A6.957,6.957,0,0,0,18.1,11Zm0,12a5,5,0,1,1,5-5A4.951,4.951,0,0,1,18.1,23Z" fill="#fff"/>
  <path id="Path_857" data-name="Path 857" d="M32.8,14.7,30,13.8l-.6-1.5,1.4-2.6a1.682,1.682,0,0,0-.3-1.9L28.1,5.4a1.682,1.682,0,0,0-1.9-.3L23.6,6.5l-1.5-.6-.9-2.8A1.625,1.625,0,0,0,19.7,2H16.3a1.4,1.4,0,0,0-1.4,1.2L14,6a4.418,4.418,0,0,0-1.6.6L9.8,5.2a1.682,1.682,0,0,0-1.9.3L5.5,7.9a1.682,1.682,0,0,0-.3,1.9l1.3,2.5c-.2.5-.4,1.1-.6,1.6l-2.8.9A1.625,1.625,0,0,0,2,16.3v3.4a1.593,1.593,0,0,0,1.2,1.5l2.8.9.6,1.5L5.2,26.2a1.682,1.682,0,0,0,.3,1.9l2.4,2.4a1.682,1.682,0,0,0,1.9.3l2.6-1.4,1.5.6.9,2.9A1.625,1.625,0,0,0,16.3,34h3.4a1.625,1.625,0,0,0,1.5-1.1l.9-2.9,1.5-.6,2.6,1.4a1.682,1.682,0,0,0,1.9-.3l2.4-2.4a1.682,1.682,0,0,0,.3-1.9l-1.4-2.6.6-1.5,2.9-.9A1.625,1.625,0,0,0,34,19.7V16.3A1.712,1.712,0,0,0,32.8,14.7ZM32,19.4l-3.6,1.1-.1.5-.9,2.1-.3.5,1.8,3.3-2,2-3.3-1.8-.5.3a9.493,9.493,0,0,1-2.1.9l-.5.1L19.4,32H16.6l-1.1-3.6-.5-.1-2.1-.9-.5-.3L9.1,28.9l-2-2,1.8-3.3-.3-.5A9.494,9.494,0,0,1,7.7,21l-.1-.5L4,19.4V16.6l3.4-1,.2-.5a8.488,8.488,0,0,1,.9-2.2l.3-.5L7.1,9.1l2-2,3.2,1.8.5-.3A8.488,8.488,0,0,1,15,7.7l.5-.2L16.6,4h2.8l1.1,3.5.5.2a9.494,9.494,0,0,1,2.1.9l.5.3,3.3-1.8,2,2-1.8,3.3.3.5a9.493,9.493,0,0,1,.9,2.1l.1.5L32,16.6Z" fill="#fff"/>
  <rect id="Rectangle_1643" data-name="Rectangle 1643" width="36" height="36" fill="rgba(0,0,0,0)"/>
</svg>
