<?xml version="1.0" encoding="UTF-8"?>
<svg width="20px" height="20px" viewBox="0 0 20 20" version="1.1" xmlns="http://www.w3.org/2000/svg" xmlns:xlink="http://www.w3.org/1999/xlink">
    <title>noun_collapse_960706</title>
    <g id="Page-1" stroke="none" stroke-width="1" fill="none" fill-rule="evenodd">
        <g id="2.0-----DDE-&gt;-Collapse---Header-&gt;-Customer-&gt;-RM-Visit-Details------3-documents-uploaded" transform="translate(-1306.000000, -129.000000)" fill="#8FC3E0" fill-rule="nonzero">
            <g id="Header" transform="translate(0.000000, 92.000000)">
                <g id="Group-40" transform="translate(0.000000, 1.000000)">
                    <g id="Group-13" transform="translate(21.000000, 0.000000)">
                        <g id="Group-33" transform="translate(0.000000, 16.000000)">
                            <g id="Group-32">
                                <g id="noun_collapse_960706" transform="translate(1285.000000, 20.000000)">
                                    <path d="M12.1537143,8.45357143 L18.4185714,2.18914286 L18.4185714,7.43057143 C18.4185714,7.66757143 18.6101429,7.85914286 18.8471429,7.85914286 C19.0841429,7.85914286 19.2757143,7.66757143 19.2757143,7.43057143 L19.2757143,1.15414286 C19.2757143,1.15328571 19.2757143,1.15285714 19.2757143,1.152 C19.2757143,1.09714286 19.2641429,1.04228571 19.2431429,0.990428571 C19.199,0.885428571 19.1158571,0.802285714 19.0112857,0.758571429 C18.9585714,0.736285714 18.9032857,0.725571429 18.8471429,0.725571429 L12.5707143,0.725571429 C12.3337143,0.725571429 12.1421429,0.917571429 12.1421429,1.15414286 C12.1421429,1.39071429 12.3337143,1.58271429 12.5707143,1.58271429 L17.8121429,1.58271429 L11.5477143,7.84714286 C11.3797143,8.01428571 11.3797143,8.28514286 11.5477143,8.45314286 C11.7152857,8.62071429 11.9865714,8.62028571 12.1537143,8.45357143 Z M0.989464286,19.241 C1.04175,19.2632857 1.09703571,19.2744286 1.15317857,19.2744286 L7.42917857,19.2744286 C7.66617857,19.2744286 7.85775,19.0828571 7.85775,18.8458571 C7.85775,18.6084286 7.66617857,18.4172857 7.42917857,18.4172857 L2.18817857,18.4172857 L8.45260714,12.1537143 C8.62017857,11.9857143 8.62017857,11.7152857 8.45260714,11.5477143 C8.36903571,11.4641429 8.25932143,11.4221429 8.14960714,11.4221429 C8.03946429,11.4221429 7.92975,11.4641429 7.84660714,11.5477143 L1.58175,17.8112857 L1.58175,12.5698571 C1.58175,12.3328571 1.38975,12.1412857 1.15317857,12.1412857 C0.916607143,12.1412857 0.724607143,12.3328571 0.724607143,12.5698571 L0.724607143,18.8462857 C0.724607143,18.9024286 0.735321429,18.9577143 0.757607143,19.0104286 C0.800464286,19.115 0.884035714,19.1981429 0.989464286,19.241 Z" id="Shape"></path>
                                </g>
                            </g>
                        </g>
                    </g>
                </g>
            </g>
        </g>
    </g>
</svg>