<?xml version="1.0" encoding="UTF-8"?>
<svg xmlns="http://www.w3.org/2000/svg" xmlns:xlink="http://www.w3.org/1999/xlink" width="13pt" height="13pt" viewBox="0 0 13 13" version="1.1">
<g id="surface1">
<path style=" stroke:none;fill-rule:nonzero;fill:rgb(56.078431%,76.470588%,87.843137%);fill-opacity:1;" d="M 7.898438 5.496094 L 11.972656 1.421875 L 11.972656 4.828125 C 11.972656 4.984375 12.097656 5.109375 12.25 5.109375 C 12.40625 5.109375 12.527344 4.984375 12.527344 4.828125 L 12.527344 0.75 C 12.527344 0.714844 12.523438 0.675781 12.507812 0.644531 C 12.480469 0.574219 12.425781 0.523438 12.355469 0.492188 C 12.324219 0.480469 12.289062 0.472656 12.25 0.472656 L 8.171875 0.472656 C 8.015625 0.472656 7.890625 0.597656 7.890625 0.75 C 7.890625 0.902344 8.015625 1.027344 8.171875 1.027344 L 11.578125 1.027344 L 7.507812 5.101562 C 7.398438 5.210938 7.398438 5.386719 7.507812 5.496094 C 7.613281 5.601562 7.792969 5.601562 7.898438 5.496094 Z M 0.644531 12.507812 C 0.675781 12.519531 0.714844 12.527344 0.75 12.527344 L 4.828125 12.527344 C 4.984375 12.527344 5.109375 12.402344 5.109375 12.25 C 5.109375 12.09375 4.984375 11.972656 4.828125 11.972656 L 1.421875 11.972656 L 5.496094 7.898438 C 5.601562 7.789062 5.601562 7.613281 5.496094 7.507812 C 5.441406 7.453125 5.367188 7.425781 5.296875 7.425781 C 5.226562 7.425781 5.15625 7.453125 5.101562 7.507812 L 1.027344 11.578125 L 1.027344 8.171875 C 1.027344 8.015625 0.902344 7.890625 0.75 7.890625 C 0.597656 7.890625 0.472656 8.015625 0.472656 8.171875 L 0.472656 12.25 C 0.472656 12.285156 0.476562 12.324219 0.492188 12.355469 C 0.519531 12.425781 0.574219 12.480469 0.644531 12.507812 Z M 0.644531 12.507812 "/>
</g>
</svg>
