<?xml version="1.0" encoding="UTF-8"?>
<svg width="100%" height="100%" viewBox="0 0 14 14" version="1.1" xmlns="http://www.w3.org/2000/svg" xmlns:xlink="http://www.w3.org/1999/xlink">
    <!-- Generator: Sketch 64 (93537) - https://sketch.com -->
    <title>noun_edit_3235727</title>
    <desc>Created with Sketch.</desc>
    <g id="Page-1" stroke="none" stroke-width="1" fill="none" fill-rule="evenodd">
        <g id="QDE-&gt;-Collapse-Header-&gt;-Address" transform="translate(-628.000000, -399.000000)" fill="#565656" fill-rule="nonzero">
            <g id="Group-2" transform="translate(21.000000, 269.000000)">
                <g id="Group-57" transform="translate(16.000000, 17.000000)">
                    <g id="Group-25" transform="translate(321.000000, 113.000000)">
                        <g id="noun_edit_3235727" transform="translate(270.000000, 0.000000)">
                            <g id="Group">
                                <g transform="translate(0.263474, 0.000000)" id="Path">
                                    <path d="M3.08440588,12.7243956 C2.34140833,12.7243956 1.59665429,12.7243956 0.853656752,12.7243956 C0.748267029,12.7243956 0.642877307,12.7243956 0.537487584,12.7243956 C0.713137122,12.9002198 0.888786659,13.076044 1.0644362,13.2518681 C1.0644362,12.5081319 1.0644362,11.7626374 1.0644362,11.0189011 C1.0644362,10.9134066 1.0644362,10.8079121 1.0644362,10.7024176 C1.01349783,10.8272527 0.960802969,10.9503297 0.909864603,11.0751648 C0.999445868,10.9854945 1.09078363,10.8940659 1.18036489,10.8043956 C1.42627424,10.5582418 1.6704271,10.3138462 1.91633645,10.0676923 C2.27993099,9.70373626 2.64176904,9.34153846 3.00536358,8.97758242 C3.44800042,8.53450549 3.89063725,8.09142857 4.33327409,7.64835165 C4.81806681,7.16307692 5.30110304,6.67956044 5.78589576,6.19428571 C6.27420147,5.70549451 6.76250719,5.2167033 7.2508129,4.72791209 C7.7057452,4.27252747 8.15892101,3.8189011 8.61385331,3.36351648 C8.9967693,2.98021978 9.37968529,2.59692308 9.76260129,2.21362637 C10.0366146,1.93934066 10.3088713,1.66681319 10.5828846,1.39252747 C10.7093523,1.26593407 10.8340635,1.13934066 10.9605311,1.01450549 C10.9640441,1.01098901 10.9675571,1.00747253 10.9710701,1.00395604 C10.9710701,1.00395604 10.9728266,1.0021978 10.9728266,1.0021978 C10.9728266,1.0021978 10.9728266,1.0021978 10.9728266,1.0021978 C11.0149825,0.956483516 10.9868786,1.02857143 10.9254012,1.03736264 C10.9359402,1.0356044 10.9622876,1.01802198 10.9693136,1.01450549 C10.9271577,1.03208791 10.8850018,1.04967033 10.8428459,1.06725275 C10.8744629,1.05494505 10.9043233,1.04791209 10.9359402,1.04263736 C10.8885148,1.04967033 10.8428459,1.05494505 10.7954206,1.06197802 C10.8200115,1.06021978 10.8428459,1.06021978 10.8674369,1.06197802 C10.8200115,1.05494505 10.7743426,1.04967033 10.7269172,1.04263736 C10.7602907,1.04791209 10.7901511,1.05494505 10.8200115,1.06725275 C10.7778556,1.04967033 10.7356997,1.03208791 10.6935438,1.01450549 C10.7040828,1.01978022 10.7163783,1.02681319 10.7269172,1.03032967 C10.7673166,1.0443956 10.6724659,0.991648352 10.6724659,0.984615385 C10.6724659,0.984615385 10.6917873,1.0021978 10.6917873,1.0021978 C10.6935438,1.00395604 10.6953003,1.00747253 10.6988133,1.00923077 C10.7111088,1.02153846 10.7234043,1.03384615 10.7339432,1.0443956 C10.7813686,1.09186813 10.828794,1.13934066 10.8779758,1.18857143 C11.0465994,1.35736264 11.215223,1.52615385 11.3838465,1.69494505 C11.765006,2.07648352 12.147922,2.45978022 12.5290815,2.84131868 C12.5905588,2.90285714 12.6520362,2.9643956 12.7135135,3.02593407 C12.729322,3.04175824 12.7451304,3.05758242 12.7609389,3.07340659 C12.7644519,3.07692308 12.7662084,3.08043956 12.7697214,3.0821978 C12.7697214,3.0821978 12.7697214,3.0821978 12.7714779,3.08395604 C12.7855298,3.09626374 12.8153902,3.1367033 12.7626954,3.06989011 C12.7064875,2.99956044 12.7486434,3.05934066 12.7591824,3.08043956 C12.7416174,3.03824176 12.7240525,2.99604396 12.7064875,2.95384615 C12.718783,2.98549451 12.725809,3.01538462 12.7310785,3.04703297 C12.7240525,2.99956044 12.718783,2.95384615 12.711757,2.90637363 C12.7135135,2.93098901 12.7135135,2.95384615 12.711757,2.97846154 C12.718783,2.93098901 12.7240525,2.88527473 12.7310785,2.8378022 C12.725809,2.87120879 12.718783,2.9010989 12.7064875,2.93098901 C12.7240525,2.88879121 12.7416174,2.84659341 12.7591824,2.8043956 C12.7556694,2.80967033 12.736348,2.84835165 12.736348,2.84835165 C12.7345915,2.84307692 12.8153902,2.7621978 12.7802603,2.79208791 C12.7714779,2.80087912 12.7749909,2.79912088 12.7714779,2.80263736 C12.7714779,2.80263736 12.7697214,2.8043956 12.7697214,2.8043956 C12.7662084,2.80791209 12.7626954,2.81142857 12.7591824,2.81494505 C12.7433739,2.83076923 12.7275655,2.84659341 12.711757,2.86241758 C12.6485232,2.92571429 12.5835329,2.99076923 12.520299,3.05406593 C12.2796592,3.29494505 12.0390193,3.53582418 11.7983794,3.7767033 C11.4382979,4.13714286 11.0799728,4.49582418 10.7198913,4.85626374 C10.2790109,5.29758242 9.83988708,5.73714286 9.39900674,6.17846154 C8.91597052,6.66197802 8.43293429,7.14549451 7.94814157,7.63076923 C7.45983585,8.11956044 6.97153014,8.60835165 6.48146793,9.0989011 C6.02477913,9.55604396 5.56984683,10.0114286 5.11315803,10.4685714 C4.72672905,10.8553846 4.34205656,11.2404396 3.95562758,11.6272527 C3.67810131,11.9050549 3.40057504,12.1828571 3.12304877,12.4606593 C2.99131162,12.5925275 2.85781797,12.7226374 2.72783732,12.8562637 C2.72256783,12.8615385 2.71729834,12.8668132 2.71027236,12.8738462 C2.51530137,13.069011 2.50124941,13.4276923 2.71027236,13.6193407 C2.92105181,13.8127473 3.24775995,13.8285714 3.4550264,13.6193407 C3.58676355,13.4874725 3.71674421,13.3573626 3.84848136,13.2254945 C4.19626745,12.8773626 4.54405353,12.5292308 4.89183962,12.1810989 C5.38717131,11.6852747 5.88250301,11.1894505 6.3778347,10.6936264 C6.95572168,10.1151648 7.53536515,9.53494505 8.11325213,8.95648352 C8.70519107,8.36395604 9.29888651,7.76967033 9.89082545,7.17714286 C10.428313,6.63912088 10.9658006,6.1010989 11.5015317,5.56483516 C11.9213341,5.14461538 12.33938,4.72615385 12.7591824,4.30593407 C12.9875268,4.07736264 13.2158712,3.84879121 13.4442156,3.62021978 C13.463537,3.60087912 13.484615,3.58153846 13.5039364,3.56043956 C13.662021,3.39868132 13.7480893,3.20175824 13.7638977,2.97846154 C13.7955147,2.56879121 13.4969105,2.31736264 13.2387056,2.0589011 C12.708244,1.52791209 12.1777824,0.996923077 11.6473208,0.465934066 C11.5823305,0.400879121 11.5173402,0.335824176 11.4523498,0.270769231 C11.1748236,-0.00351648352 10.7585342,-0.0826373626 10.4089916,0.110769231 C10.3000889,0.170549451 10.2192901,0.254945055 10.1332218,0.341098901 C9.89258194,0.581978022 9.65369857,0.821098901 9.41305871,1.06197802 C8.98798683,1.48747253 8.56291495,1.91296703 8.13608657,2.34021978 C7.595086,2.88175824 7.05408542,3.4232967 6.51132835,3.96659341 C5.91763291,4.56087912 5.32393748,5.15516484 4.73199854,5.74769231 C4.15586805,6.3243956 3.57973757,6.9010989 3.00360709,7.4778022 C2.51354488,7.96835165 2.02523917,8.45714286 1.53517696,8.94769231 C1.19617335,9.28703297 0.857169742,9.62637363 0.518166135,9.96571429 C0.426828376,10.0571429 0.335490616,10.1485714 0.244152857,10.24 C0.114172199,10.3701099 0.0158084584,10.4861538 0.00702598149,10.6989011 C-0.00351299075,10.9345055 0.00702598149,11.1736264 0.00702598149,11.4092308 C0.00702598149,11.8153846 0.00702598149,12.2197802 0.00702598149,12.6259341 C0.00702598149,12.8334066 0.00702598149,13.0391209 0.00702598149,13.2465934 C0.00702598149,13.5314286 0.247665848,13.7740659 0.533974594,13.7740659 C1.27697214,13.7740659 2.02172617,13.7740659 2.76472372,13.7740659 C2.87011344,13.7740659 2.97550316,13.7740659 3.08089289,13.7740659 C3.35666266,13.7740659 3.62013696,13.5314286 3.6078415,13.2465934 C3.59905902,12.967033 3.3794971,12.7243956 3.08440588,12.7243956 Z"></path>
                                    <path d="M8.19405092,3.03824176 C8.48035966,3.32483516 8.76666841,3.61142857 9.05297716,3.89802198 C9.50966595,4.35516484 9.96635475,4.81230769 10.4230435,5.26945055 C10.5284333,5.37494505 10.6355795,5.4821978 10.7409692,5.58769231 C10.9359402,5.78285714 11.2942653,5.79692308 11.4857232,5.58769231 C11.6789377,5.3767033 11.6947462,5.04967033 11.4857232,4.8421978 C11.1994145,4.5556044 10.9131058,4.26901099 10.626797,3.98241758 C10.1701082,3.52527473 9.71341942,3.06813187 9.25673062,2.61098901 C9.1513409,2.50549451 9.04419468,2.39824176 8.93880496,2.29274725 C8.74383397,2.09758242 8.38550891,2.08351648 8.19405092,2.29274725 C8.00083643,2.50373626 7.98502797,2.83076923 8.19405092,3.03824176 L8.19405092,3.03824176 Z"></path>
                                </g>
                            </g>
                        </g>
                    </g>
                </g>
            </g>
        </g>
    </g>
</svg>
