<?xml version="1.0" encoding="UTF-8"?>
<svg width="100%" height="100%" viewBox="0 0 13 15" version="1.1" xmlns="http://www.w3.org/2000/svg" xmlns:xlink="http://www.w3.org/1999/xlink">
    <!-- Generator: Sketch 64 (93537) - https://sketch.com -->
    <title>noun_Delete_3187979</title>
    <desc>Created with Sketch.</desc>
    <g id="Page-1" stroke="none" stroke-width="1" fill="none" fill-rule="evenodd">
        <g id="QDE-&gt;-Collapse-Header-&gt;-Address" transform="translate(-650.000000, -398.000000)" fill="#4F4E4E" fill-rule="nonzero" stroke="#565656" stroke-width="0.05">
            <g id="Group-2" transform="translate(21.000000, 269.000000)">
                <g id="Group-57" transform="translate(16.000000, 17.000000)">
                    <g id="Group-25" transform="translate(321.000000, 113.000000)">
                        <g id="noun_Delete_3187979" transform="translate(293.000000, 0.000000)">
                            <g id="Group">
                                <path d="M11.4074074,1.36888889 L7.75703704,1.36888889 L7.75703704,0.912592593 C7.75703704,0.408581621 7.34845542,0 6.84444444,0 L5.01925926,0 C4.51524829,0 4.10666667,0.408581621 4.10666667,0.912592593 L4.10666667,1.36888889 L0.456296296,1.36888889 C0.20429081,1.36888889 0,1.5731797 0,1.82518519 C0,2.07719067 0.20429081,2.28148148 0.456296296,2.28148148 L0.912592593,2.28148148 L0.912592593,13.2325926 C0.912592593,13.4845981 1.1168834,13.6888889 1.36888889,13.6888889 L10.4948148,13.6888889 C10.7468203,13.6888889 10.9511111,13.4845981 10.9511111,13.2325926 L10.9511111,2.28148148 L11.4074074,2.28148148 C11.6594129,2.28148148 11.8637037,2.07719067 11.8637037,1.82518519 C11.8637037,1.5731797 11.6594129,1.36888889 11.4074074,1.36888889 Z M5.01925926,0.912592593 L6.84444444,0.912592593 L6.84444444,1.36888889 L5.01925926,1.36888889 L5.01925926,0.912592593 Z M10.0385185,12.7762963 L1.82518519,12.7762963 L1.82518519,2.28148148 L10.0385185,2.28148148 L10.0385185,12.7762963 Z" id="Shape"></path>
                                <path d="M3.65037037,11.4074074 C3.39836488,11.4074074 3.19407407,11.2031166 3.19407407,10.9511111 L3.19407407,4.10666667 C3.19407407,3.85466118 3.39836488,3.65037037 3.65037037,3.65037037 C3.90237586,3.65037037 4.10666667,3.85466118 4.10666667,4.10666667 L4.10666667,10.9511111 C4.10666667,11.2031166 3.90237586,11.4074074 3.65037037,11.4074074 Z" id="Path"></path>
                                <path d="M5.93185185,11.4074074 C5.67984637,11.4074074 5.47555556,11.2031166 5.47555556,10.9511111 L5.47555556,4.10666667 C5.47555556,3.85466118 5.67984637,3.65037037 5.93185185,3.65037037 C6.18385734,3.65037037 6.38814815,3.85466118 6.38814815,4.10666667 L6.38814815,10.9511111 C6.38814815,11.2031166 6.18385734,11.4074074 5.93185185,11.4074074 Z" id="Path"></path>
                                <path d="M8.21333333,11.4074074 C7.96132785,11.4074074 7.75703704,11.2031166 7.75703704,10.9511111 L7.75703704,4.10666667 C7.75703704,3.85466118 7.96132785,3.65037037 8.21333333,3.65037037 C8.46533882,3.65037037 8.66962963,3.85466118 8.66962963,4.10666667 L8.66962963,10.9511111 C8.66962963,11.2031166 8.46533882,11.4074074 8.21333333,11.4074074 Z" id="Path"></path>
                            </g>
                        </g>
                    </g>
                </g>
            </g>
        </g>
    </g>
</svg>
