<?xml version="1.0" encoding="UTF-8"?>
<svg width="25px" height="24px" viewBox="0 0 25 24" version="1.1" xmlns="http://www.w3.org/2000/svg" xmlns:xlink="http://www.w3.org/1999/xlink">
    <!-- Generator: Sketch 64 (93537) - https://sketch.com -->
    <title>noun_edit_1983647</title>
    <desc>Created with Sketch.</desc>
    <g id="APPLN-INIT" stroke="none" stroke-width="1" fill="none" fill-rule="evenodd">
        <g id="UPDATED-----Application-Initiation-2---CI" transform="translate(-1252.000000, -1135.000000)" fill="#0079B8" fill-rule="nonzero" stroke="#FDFDFD" stroke-width="0.25">
            <g id="Group-8" transform="translate(19.000000, 554.000000)">
                <g id="Group-34" transform="translate(0.000000, 528.000000)">
                    <g id="Group-32" transform="translate(0.000000, 44.000000)">
                        <g id="noun_edit_1983647" transform="translate(1234.000000, 9.000000)">
                            <path d="M9.42007866,11.0789114 C9.40664078,11.0961236 9.3932029,11.1141204 9.3872025,11.1358887 L8.35089754,14.9504075 C8.29038927,15.1724697 8.35241025,15.411744 8.51603469,15.5804991 C8.63856394,15.7005286 8.79996975,15.7665423 8.97181323,15.7665423 C9.02859016,15.7665423 9.0853923,15.7598093 9.14141287,15.744774 L12.9138766,14.7118418 C12.919877,14.7118418 12.9228772,14.7170814 12.9273397,14.7170814 C12.9706535,14.7170814 13.0132866,14.7013374 13.0454316,14.6682799 L23.1330173,4.54211221 C23.4326089,4.24095001 23.5970149,3.83059183 23.5970149,3.3842653 C23.5970149,2.87830369 23.3833199,2.37272176 23.0089754,1.99800288 L22.0562979,1.04007016 C21.6827602,0.664237558 21.1783733,0.449313349 20.6747681,0.449313349 C20.230234,0.449313349 19.8215258,0.614372914 19.5211275,0.914801067 L9.43500403,11.0436518 C9.42459157,11.0533716 9.42756656,11.0676476 9.42007866,11.0789114 M22.145951,3.55043859 L21.1439845,4.55565413 L19.5196148,2.89895828 L20.5074123,1.90723404 C20.663574,1.74974277 20.9661406,1.77262482 21.1455224,1.95337782 L22.0988302,2.91133585 C22.1982654,3.01109045 22.2550171,3.1438519 22.2550171,3.27511995 C22.2543364,3.3827972 22.216191,3.48032435 22.145951,3.55043859 M11.214048,11.2379467 L18.4930163,3.9296377 L20.1181676,5.58747258 L12.8526372,12.8814803 L11.214048,11.2379467 L11.214048,11.2379467 Z M9.88780758,14.2010203 L10.4138261,12.2626272 L11.8170129,13.6714426 L9.88780758,14.2010203 Z M19.7848175,10.5633528 C19.4029851,10.5633528 19.0899052,10.8750195 19.0884681,11.2636093 L19.0884681,20.7045305 C19.0884681,21.1996332 18.6879538,21.6017144 18.1940551,21.6017144 L2.28673356,21.6017144 C1.79359117,21.6017144 1.39158935,21.1996585 1.39158935,20.7045305 L1.39158935,5.29508985 C1.39158935,4.79955679 1.79359117,4.39712127 2.28673356,4.39712127 L12.5319685,4.39712127 C12.9159944,4.39712127 13.2276372,4.08396118 13.2276372,3.69835814 C13.2276372,3.31353977 12.9159944,3 12.5319685,3 L2.1806424,3 C0.978443929,3 0,3.98154882 0,5.18928568 L0,20.811094 C0,22.0188056 0.978469141,23 2.1806424,23 L18.2993899,23 C19.5023951,23 20.4804609,22.0188056 20.4804609,20.8110687 L20.4804609,11.2590785 C20.4788725,10.8750195 20.1666246,10.5633528 19.7848175,10.5633528" id="Shape"></path>
                        </g>
                    </g>
                </g>
            </g>
        </g>
    </g>
</svg>