<?xml version="1.0" encoding="UTF-8"?>
<svg width="30px" height="30px" viewBox="0 0 30 30" version="1.1" xmlns="http://www.w3.org/2000/svg" xmlns:xlink="http://www.w3.org/1999/xlink">
    <title>Education Loan Details_1</title>
    <g id="Page-1" stroke="none" stroke-width="1" fill="none" fill-rule="evenodd">
        <g id="Education-Loan-Details_1">
            <rect id="Rectangle" x="0" y="0" width="30" height="30"></rect>
            <g id="Group-270" transform="translate(2.000000, 2.000000)" fill="#8E8E8E" fill-rule="nonzero">
                <path d="M20.8,11.2662333 L20.8,21.6736 C18.0561333,21.7728333 15.4340333,22.8219333 13.3752667,24.6527667 L13,24.9864333 L12.6251667,24.6532 C10.5659667,22.8219333 7.944326,21.7732667 5.20001733,21.6740333 L5.20001733,11.6995667 L4.33333333,11.6995667 L4.33333333,22.0995667 C4.33333333,22.2148333 4.37929267,22.3244667 4.46028267,22.4059333 C4.54133333,22.4874 4.65183333,22.5329 4.76664933,22.5329 C4.76705667,22.5324667 4.76883333,22.5329 4.77009867,22.5329 C7.45678267,22.5329 10.0416333,23.5161333 12.0487467,25.3006 L12.7117467,25.8899333 C12.79408,25.96308 12.8972133,25.9995667 12.9999133,25.9995667 C13.1027,25.9995667 13.2057467,25.96308 13.2876467,25.8899333 L13.9506467,25.3006 C15.95828,23.5157 18.5431133,22.5329 21.22978,22.5329 C21.2306467,22.5329 21.2319467,22.5329 21.2332467,22.5329 C21.3485133,22.5329 21.4581467,22.4869667 21.5396133,22.4059333 C21.62108,22.3249 21.66658,22.2148333 21.66658,22.0995667 L21.66658,11.2662333 L20.8,11.2662333 Z" id="Path"></path>
                <path d="M25.8040467,8.30479 L13.2374667,0.0714343933 C13.09308,-0.0234755733 12.9064,-0.02301858 12.7624467,0.0714343933 L0.1958632,8.30479 C0.07368348,8.38451467 0,8.52055533 0,8.66701333 C0,8.81348 0.07368348,8.94954667 0.1958632,9.02971333 L12.7625333,17.26296 C12.8344667,17.3098467 12.9172333,17.3335933 13,17.3335933 C13.0823333,17.3335933 13.1655333,17.3098467 13.2374667,17.2626133 L25.8040467,9.02928 C25.9262467,8.94954667 25.9999133,8.81304667 25.9999133,8.66701333 C25.9999133,8.52096267 25.9262467,8.38451467 25.8040467,8.30479 Z M13,16.3825133 L1.224184,8.66701333 L13,0.951522 L24.7757467,8.66701333 L13,16.3825133 Z" id="Shape"></path>
                <path d="M13,6.5 C12.2832667,6.5 11.7,7.08327533 11.7,7.8 C11.7,8.51672467 12.2832667,9.1 13,9.1 C13.7167333,9.1 14.3,8.51672467 14.3,7.8 C14.3,7.08327533 13.7167333,6.5 13,6.5 Z M13,8.233316 C12.7612333,8.233316 12.5666667,8.03876667 12.5666667,7.8 C12.5666667,7.56122467 12.7612333,7.366684 13,7.366684 C13.2392,7.366684 13.4333333,7.56122467 13.4333333,7.8 C13.4333333,8.03876667 13.2392,8.233316 13,8.233316 Z" id="Shape"></path>
                <path d="M23.9255467,9.54304 L13.95888,7.37639933 L13.77428,8.223124 L23.3999133,10.3156733 L23.3999133,20.3664067 L24.26658,20.3664067 L24.26658,9.96640667 C24.26658,9.76282667 24.1244467,9.58646 23.9255467,9.54304 Z" id="Path"></path>
                <path d="M23.8332467,19.9329 C23.1165133,19.9329 22.5332467,20.5161667 22.5332467,21.2329 L22.5332467,22.0995667 C22.5332467,22.3392 22.7269467,22.5329 22.96658,22.5329 L24.6999133,22.5329 C24.9395467,22.5329 25.1332467,22.3392 25.1332467,22.0995667 L25.1332467,21.2329 C25.1332467,20.5161667 24.54998,19.9329 23.8332467,19.9329 Z M24.26658,21.6662333 L23.3999133,21.6662333 L23.3999133,21.2329 C23.3999133,20.9937 23.5940467,20.7995667 23.8332467,20.7995667 C24.0724467,20.7995667 24.26658,20.9937 24.26658,21.2329 L24.26658,21.6662333 L24.26658,21.6662333 Z" id="Shape"></path>
                <path d="M25.9869133,25.4617133 L25.12016,21.9950467 L24.2800133,22.20478 L25.0113933,25.1332467 L22.6550133,25.1332467 L23.3863933,22.20478 L22.5462467,21.9950467 L21.6794933,25.4617133 C21.6469933,25.5908467 21.67646,25.7282133 21.75836,25.83308 C21.84026,25.93838 21.96636,25.9999133 22.0998267,25.9999133 L25.5664933,25.9999133 C25.69996,25.9999133 25.82606,25.9388133 25.90796,25.83308 C25.99038,25.7282133 26.0194133,25.59128 25.9869133,25.4617133 Z" id="Path"></path>
            </g>
        </g>
    </g>
</svg>