<?xml version="1.0" encoding="UTF-8"?>
<svg width="49px" height="31px" viewBox="0 0 49 31" version="1.1" xmlns="http://www.w3.org/2000/svg" xmlns:xlink="http://www.w3.org/1999/xlink">
    <!-- Generator: Sketch 64 (93537) - https://sketch.com -->
    <title>Group 87</title>
    <desc>Created with Sketch.</desc>
    <g id="Page-1" stroke="none" stroke-width="1" fill="none" fill-rule="evenodd">
        <g id="Group-87" transform="translate(2.000000, 2.000000)">
            <g id="Group-86" stroke="#F8E71C" stroke-width="2.5">
                <rect id="Rectangle" x="-1.63424829e-13" y="3.4283687e-13" width="45.1303816" height="27.442688" rx="2"></rect>
            </g>
            <g id="euro" transform="translate(13.000000, 4.000000)" fill="#000000" fill-rule="nonzero">
                <path d="M13.3333333,17.2222396 C10.55,17.2222396 8.13333333,15.6444792 6.92776042,13.3333333 L13.3333333,13.3333333 L13.3333333,11.1110937 L6.20557292,11.1110937 C6.15,10.75 6.11114583,10.3777604 6.11114583,10 C6.11114583,9.62223958 6.15005208,9.25 6.20557292,8.88890625 L13.3333333,8.88890625 L13.3333333,6.66666667 L6.92776042,6.66666667 C8.13333333,4.35557292 10.5444271,2.77776042 13.3333333,2.77776042 C15.1277604,2.77776042 16.7666667,3.43333333 18.0277604,4.51666667 L20,2.55557292 C18.2333333,0.972239583 15.8944271,0 13.3333333,0 C8.98333333,0 5.28890625,2.78333333 3.91666667,6.66666667 L0,6.66666667 L0,8.88890625 L3.4,8.88890625 C3.35557292,9.25557292 3.33333333,9.62223958 3.33333333,10 C3.33333333,10.3777604 3.35557292,10.7444271 3.4,11.1110938 L0,11.1110938 L0,13.3333333 L3.91666667,13.3333333 C5.28890625,17.2166667 8.98333333,20 13.3333333,20 C15.8944271,20 18.2333333,19.0277604 20,17.4444271 L18.0277604,15.4777604 C16.7666667,16.5610938 15.1277604,17.2222396 13.3333333,17.2222396 Z" id="Path"></path>
            </g>
        </g>
    </g>
</svg>