<?xml version="1.0" encoding="UTF-8"?>
<svg xmlns="http://www.w3.org/2000/svg" xmlns:xlink="http://www.w3.org/1999/xlink" width="10pt" height="10pt" viewBox="0 0 10 10" version="1.1">
<g id="surface1">
<path style=" stroke:none;fill-rule:nonzero;fill:rgb(0%,47.45098%,72.156863%);fill-opacity:1;" d="M 9.273438 0.425781 L 6.140625 3.558594 L 6.140625 0.9375 C 6.140625 0.816406 6.042969 0.722656 5.925781 0.722656 C 5.808594 0.722656 5.710938 0.816406 5.710938 0.9375 L 5.710938 4.074219 C 5.710938 4.105469 5.714844 4.132812 5.726562 4.15625 C 5.75 4.210938 5.789062 4.25 5.84375 4.273438 C 5.871094 4.285156 5.898438 4.289062 5.925781 4.289062 L 9.0625 4.289062 C 9.183594 4.289062 9.277344 4.191406 9.277344 4.074219 C 9.277344 3.957031 9.183594 3.859375 9.0625 3.859375 L 6.441406 3.859375 L 9.574219 0.730469 C 9.660156 0.644531 9.660156 0.507812 9.574219 0.425781 C 9.492188 0.339844 9.355469 0.34375 9.273438 0.425781 Z M 4.15625 5.726562 C 4.128906 5.714844 4.101562 5.710938 4.074219 5.710938 L 0.9375 5.710938 C 0.816406 5.710938 0.722656 5.808594 0.722656 5.925781 C 0.722656 6.042969 0.816406 6.140625 0.9375 6.140625 L 3.558594 6.140625 L 0.425781 9.269531 C 0.339844 9.355469 0.339844 9.492188 0.425781 9.574219 C 0.46875 9.617188 0.523438 9.636719 0.578125 9.636719 C 0.632812 9.636719 0.6875 9.617188 0.726562 9.574219 L 3.859375 6.441406 L 3.859375 9.0625 C 3.859375 9.183594 3.957031 9.277344 4.074219 9.277344 C 4.191406 9.277344 4.289062 9.183594 4.289062 9.0625 L 4.289062 5.925781 C 4.289062 5.898438 4.285156 5.871094 4.273438 5.84375 C 4.25 5.789062 4.210938 5.75 4.15625 5.726562 Z M 4.15625 5.726562 "/>
</g>
</svg>
