<?xml version="1.0" encoding="UTF-8"?>
<svg width="20px" height="20px" viewBox="0 0 20 20" version="1.1" xmlns="http://www.w3.org/2000/svg" xmlns:xlink="http://www.w3.org/1999/xlink">
    <title>Shape@2x</title>
    <g id="UW-dashboard" stroke="none" stroke-width="1" fill="none" fill-rule="evenodd">
        <g id="2.0-----DDE-&gt;-Header-&gt;-Education-Loan-Details&gt;Loan-Details-Copy-2" transform="translate(-1306.000000, -129.000000)" fill="#0079B8" fill-rule="nonzero">
            <g id="noun_collapse_960706" transform="translate(1306.000000, 129.000000)">
                <path d="M18.5437143,0.850714286 L12.2788571,7.11514286 L12.2788571,1.87371429 C12.2788571,1.63671429 12.0872857,1.44514286 11.8502857,1.44514286 C11.6132857,1.44514286 11.4217143,1.63671429 11.4217143,1.87371429 L11.4217143,8.15014286 C11.4217143,8.151 11.4217143,8.15142857 11.4217143,8.15228571 C11.4217143,8.20714286 11.4332857,8.262 11.4542857,8.31385714 C11.4984286,8.41885714 11.5815714,8.502 11.6861429,8.54571429 C11.7388571,8.568 11.7941429,8.57871429 11.8502857,8.57871429 L18.1267143,8.57871429 C18.3637143,8.57871429 18.5552857,8.38671429 18.5552857,8.15014286 C18.5552857,7.91357143 18.3637143,7.72157143 18.1267143,7.72157143 L12.8852857,7.72157143 L19.1497143,1.45714286 C19.3177143,1.29 19.3177143,1.01914286 19.1497143,0.851142857 C18.9821429,0.683571429 18.7108571,0.684 18.5437143,0.850714286 Z M8.31342857,11.4555714 C8.26114286,11.4332857 8.20585714,11.4221429 8.14971429,11.4221429 L1.87371429,11.4221429 C1.63671429,11.4221429 1.44514286,11.6137143 1.44514286,11.8507143 C1.44514286,12.0881429 1.63671429,12.2792857 1.87371429,12.2792857 L7.11471429,12.2792857 L0.850285714,18.5428571 C0.682714286,18.7108571 0.682714286,18.9812857 0.850285714,19.1488571 C0.933857143,19.2324286 1.04357143,19.2744286 1.15328571,19.2744286 C1.26342857,19.2744286 1.37314286,19.2324286 1.45628571,19.1488571 L7.72114286,12.8852857 L7.72114286,18.1267143 C7.72114286,18.3637143 7.91314286,18.5552857 8.14971429,18.5552857 C8.38628571,18.5552857 8.57828571,18.3637143 8.57828571,18.1267143 L8.57828571,11.8502857 C8.57828571,11.7941429 8.56757143,11.7388571 8.54528571,11.6861429 C8.50242857,11.5815714 8.41885714,11.4984286 8.31342857,11.4555714 Z" id="Shape"></path>
            </g>
        </g>
    </g>
</svg>