<svg id="Layer_1" data-name="Layer 1" xmlns="http://www.w3.org/2000/svg" viewBox="0 0 24 24"><defs><style>.cls-1{fill:none;}.cls-2{fill:#4f4e4e;}</style></defs><title>eye-outline</title><path class="cls-1" d="M0,0H24V24H0Z"/><path class="cls-2" d="M12,6.5A9.77,9.77,0,0,1,20.82,12,9.82,9.82,0,0,1,3.18,12,9.77,9.77,0,0,1,12,6.5m0-2A11.83,11.83,0,0,0,1,12a11.82,11.82,0,0,0,22,0A11.83,11.83,0,0,0,12,4.5Zm0,5A2.5,2.5,0,1,1,9.5,12,2.5,2.5,0,0,1,12,9.5m0-2A4.5,4.5,0,1,0,16.5,12,4.51,4.51,0,0,0,12,7.5Z"/></svg>