<?xml version="1.0" encoding="UTF-8"?>
<svg width="30px" height="30px" viewBox="0 0 30 30" version="1.1" xmlns="http://www.w3.org/2000/svg" xmlns:xlink="http://www.w3.org/1999/xlink">
    <title>Family Details</title>
    <defs>
        <filter id="filter-1">
            <feColorMatrix in="SourceGraphic" type="matrix" values="0 0 0 0 0.556863 0 0 0 0 0.556863 0 0 0 0 0.556863 0 0 0 1.000000 0"></feColorMatrix>
        </filter>
    </defs>
    <g id="Page-1" stroke="none" stroke-width="1" fill="none" fill-rule="evenodd">
        <g id="Family-Details">
            <g filter="url(#filter-1)" id="noun_Family_3320240-Copy">
                <g transform="translate(0.000000, 7.000000)">
                    <path d="M9.95448,11.95896 L10.08282,14.42928 C10.0911852,14.5882654 10.036021,14.7440575 9.92947344,14.8623536 C9.82292592,14.9806497 9.67373146,15.0517502 9.51474,15.06 C9.50418,15.0606 9.49368,15.0606 9.48312,15.0606 C9.16405114,15.0602609 8.90105569,14.8102623 8.88456,14.49162 L8.75598,12.01962 C8.69313054,10.7476285 7.64212045,9.74936702 6.36858,9.75204 L4.31058,9.75204 C3.03636956,9.75191806 1.98462205,10.7484533 1.9161,12.02082 L1.788,14.49138 C1.77150431,14.8100223 1.50850886,15.0600209 1.18944,15.06036 C1.17894,15.06036 1.16838,15.06036 1.15782,15.05976 C0.998872358,15.0515091 0.849715768,14.9804421 0.743175114,14.8621986 C0.63663446,14.7439552 0.581440584,14.5882251 0.58974,14.42928 L0.71838,11.95728 C0.820532167,10.0476949 2.3987446,8.55171676 4.31106,8.5517953 L6.36906,8.5517953 C8.2819363,8.54873263 9.86007782,10.0484121 9.95448,11.95896 Z M1.65762,3.88884 C1.65752293,2.40040519 2.55405972,1.05847729 3.92916632,0.488810686 C5.30427291,-0.0808559191 6.88713728,0.233928307 7.93965395,1.28637633 C8.99217062,2.33882436 9.30705808,3.92166819 8.73748116,5.29681194 C8.16790424,6.67195568 6.82603481,7.56858 5.3376,7.56858 C3.30621516,7.5663647 1.65996779,5.92022469 1.65762,3.88884 Z M2.85761998,3.88884 C2.85749866,4.89192557 3.46164945,5.79630834 4.38834485,6.18025665 C5.31504025,6.56420496 6.38177307,6.35210245 7.09110458,5.64285674 C7.8004361,4.93361104 8.01266765,3.86690389 7.62883145,2.94016205 C7.24499525,2.0134202 6.34068558,1.40916 5.3376,1.40916 C3.96862394,1.41051576 2.85914137,2.51986411 2.85761998,3.88884 Z M15.76362,9.58884 L14.23662,9.58884 C12.7354267,9.58893833 11.496639,10.7634409 11.41662,12.2625 L11.32116,14.09646 C11.3038742,14.4273403 11.5580626,14.7095987 11.88894,14.72694 C11.89974,14.72754 11.9103,14.72754 11.92086,14.72754 C12.2398837,14.7271707 12.5028348,14.4772156 12.51936,14.15862 L12.61488,12.3258 C12.6612406,11.4639224 13.3736165,10.7888375 14.23674,10.78884 L15.76374,10.78884 C16.6265483,10.7887194 17.3388368,11.4632999 17.3856,12.32484 L17.48052,14.15886 C17.4972289,14.4774895 17.7602529,14.7273887 18.07932,14.72778 C18.08988,14.72778 18.10044,14.72778 18.111,14.72718 C18.4419535,14.7098345 18.6962966,14.4276726 18.67932,14.0967 L18.5844,12.26154 C18.5033396,10.7627577 17.2644727,9.5889765 15.7635,9.58884 L15.76362,9.58884 Z M12.11496,6.28416 C12.11496,5.11721079 12.8179197,4.06516917 13.8960448,3.61860825 C14.9741699,3.17204733 16.2151381,3.41891137 17.0402786,4.24408623 C17.8654192,5.06926109 18.1122316,6.31023952 17.6656258,7.38834608 C17.2190201,8.46645264 16.1669492,9.16932 15,9.16932 C13.4073377,9.16746845 12.1166916,7.8768223 12.11484,6.28416 L12.11496,6.28416 Z M13.31496,6.28416 C13.31496,6.96575452 13.725549,7.58023259 14.3552649,7.84105631 C14.9849808,8.10188003 15.7098075,7.9576829 16.1917505,7.47570563 C16.6736934,6.99372837 16.8178389,6.26889133 16.5569704,5.63919403 C16.2961018,5.00949674 15.6815945,4.59895146 15,4.599 C14.0697094,4.59995908 13.3157991,5.35386938 13.31484,6.28416 L13.31496,6.28416 Z M29.28234,11.95608 C29.17948,10.0468831 27.6013257,8.55158571 25.68936,8.55173392 L23.63136,8.55173392 C21.7188678,8.54825056 20.1406173,10.0470934 20.04546,11.95722 L19.91712,14.42922 C19.9000069,14.7603394 20.1544509,15.042688 20.48556,15.06 C20.49612,15.0606 20.50662,15.0606 20.51718,15.0606 C20.8362681,15.0601785 21.0993015,14.810269 21.11604,14.49162 L21.24432,12.01782 C21.3077919,10.7465067 22.3585264,9.74914752 23.63142,9.75198 L25.68942,9.75198 C26.9631383,9.75174643 28.0146186,10.7477013 28.08342,12.01956 L28.2123,14.49156 C28.2290089,14.8102226 28.4920598,15.0601487 28.81116,15.0606 C28.82166,15.0606 28.83222,15.0606 28.84278,15.05994 C29.1736496,15.0424004 29.4279002,14.7603711 29.41116,14.42946 L29.28234,11.95608 Z M21.96594,1.16868 C22.6952527,0.492801918 23.6700877,0.146020894 24.6624,0.20946 C25.6548752,0.145999237 26.6298324,0.493098065 27.35892,1.16946 C28.39248,2.22126 28.3638,3.82434 28.34622,4.78182 L28.34268,6.96912 C28.34268,7.30049085 28.0740508,7.56912 27.74268,7.56912 L24.66468,7.56912 L24.66264,7.56864 L24.6606,7.56912 L21.5826,7.56912 C21.2512292,7.56912 20.9826,7.30049085 20.9826,6.96912 L20.97852,4.78122 C20.9613,3.82326 20.93262,2.22072 21.96564,1.16838 L21.96594,1.16868 Z M22.17864,4.75986 L22.18272,6.36888 L24.66072,6.36888 L24.66276,6.3693 L24.6648,6.36888 L27.1428,6.36888 L27.14688,4.75986 C27.16158,3.94074 27.18384,2.70264 26.50296,2.01006 C25.9954021,1.57016736 25.3318504,1.35362723 24.66252,1.40946 C23.9933201,1.3538623 23.3299301,1.5701334 22.82208,2.00946 C22.14138,2.70234 22.164,3.94044 22.17834,4.75956 L22.17864,4.75986 Z" id="Shape" fill="#8E8E8E" fill-rule="nonzero"></path>
                </g>
            </g>
            <rect id="Rectangle-Copy-15" x="0" y="0" width="30" height="30"></rect>
        </g>
    </g>
</svg>