<?xml version="1.0" encoding="UTF-8"?>
<svg width="25px" height="32px" viewBox="0 0 25 32" version="1.1" xmlns="http://www.w3.org/2000/svg" xmlns:xlink="http://www.w3.org/1999/xlink">
    <title>document copy 2</title>
    <defs>
        <filter id="filter-1">
            <feColorMatrix in="SourceGraphic" type="matrix" values="0 0 0 0 1.000000 0 0 0 0 1.000000 0 0 0 0 1.000000 0 0 0 1.000000 0"></feColorMatrix>
        </filter>
    </defs>
    <g id="Final" stroke="none" stroke-width="1" fill="none" fill-rule="evenodd">
        <g id="Underwiter&gt;dashboard&gt;Floating-Menu-1" transform="translate(-1065.000000, -1710.000000)">
            <g id="Group-88" transform="translate(928.000000, 1382.000000)">
                <g id="document-copy-2" transform="translate(125.000000, 328.000000)" filter="url(#filter-1)">
                    <g transform="translate(12.000000, 0.000000)">
                        <path d="M14.1461873,13.6749367 L11.0028962,16.8182278 L10.0631494,15.878481 C9.80390886,15.6192405 9.35023797,15.6192405 9.09099747,15.878481 C8.83175696,16.1377215 8.83175696,16.5913924 9.09099747,16.8506329 L10.5168203,18.2764557 C10.7760608,18.5356962 11.2297316,18.5356962 11.4889722,18.2764557 L15.1183392,14.6470886 C15.3775797,14.3878481 15.3775797,13.9341772 15.1183392,13.6749367 C14.8590987,13.4156962 14.4054278,13.4156962 14.1461873,13.6749367 Z" id="Path" fill="#000000" fill-rule="nonzero"></path>
                        <path d="M12.1046684,9.8835443 C10.5492253,9.8835443 8.99378228,10.4668354 7.79479494,11.6658228 C6.59580759,12.8648101 6.01251646,14.4202532 6.01251646,15.9756962 C6.01251646,17.5311392 6.59580759,19.0865823 7.79479494,20.2855696 C8.99378228,21.4521519 10.5492253,22.0678481 12.1046684,22.0678481 C13.6601114,22.0678481 15.2155544,21.484557 16.4145418,20.2855696 C17.6135291,19.0865823 18.1968203,17.5311392 18.1968203,15.9756962 C18.1968203,14.4202532 17.6135291,12.8648101 16.4145418,11.6658228 C15.2155544,10.4668354 13.6601114,9.8835443 12.1046684,9.8835443 Z M15.4099848,19.2810127 C14.502643,20.1883544 13.3036557,20.6420253 12.1046684,20.6420253 C10.905681,20.6420253 9.70669367,20.1883544 8.7993519,19.2810127 C7.89201013,18.3736709 7.43833924,17.1746835 7.43833924,15.9756962 C7.40593418,14.7767089 7.85960506,13.5777215 8.7993519,12.6703797 C9.70669367,11.763038 10.905681,11.3093671 12.1046684,11.3093671 C13.3036557,11.3093671 14.502643,11.763038 15.4099848,12.6703797 C16.3173266,13.5777215 16.7709975,14.7767089 16.7709975,15.9756962 C16.7709975,17.1746835 16.3173266,18.3736709 15.4099848,19.2810127 Z" id="Shape" fill="#000000" fill-rule="nonzero"></path>
                        <path d="M24.0945418,6.38379747 L24.0945418,6.35139241 L17.9375797,0.162025316 L17.9051747,0.129620253 C17.9051747,0.129620253 17.8727696,0.129620253 17.8727696,0.0972151899 C17.8727696,0.0972151899 17.8403646,0.0972151899 17.8403646,0.0648101266 C17.7431494,0 17.6459342,0 17.5163139,0 L2.25352911,0 C1.63783291,0 1.08694684,0.259240506 0.698086076,0.648101266 C0.309225316,1.03696203 0.0499848101,1.62025316 0.0499848101,2.2035443 L0.0499848101,29.7802532 C0.0175797468,30.3635443 0.276820253,30.9144304 0.665681013,31.3356962 C1.08694684,31.724557 1.63783291,31.9837975 2.22112405,31.9837975 L21.9558076,31.9837975 C22.5390987,31.9837975 23.0899848,31.756962 23.4788456,31.3681013 L23.5112506,31.3356962 C23.9001114,30.9468354 24.1593519,30.3635443 24.1593519,29.7802532 L24.1593519,6.7078481 C24.1593519,6.57822785 24.1269468,6.48101266 24.0945418,6.38379747 Z M18.0996051,2.33316456 L18.1320101,2.33316456 L21.7937823,5.99493671 L19.104162,5.99493671 C18.8449215,5.99493671 18.6180861,5.89772152 18.4236557,5.7356962 L18.3912506,5.70329114 C18.2292253,5.54126582 18.0996051,5.28202532 18.0996051,5.02278481 L18.0996051,2.33316456 Z M22.7983392,29.7478481 C22.7983392,29.9746835 22.7011241,30.1691139 22.5390987,30.3311392 L22.5066937,30.3635443 C22.3446684,30.4931646 22.150238,30.5903797 21.9558076,30.5903797 L2.25352911,30.5903797 C2.02669367,30.5903797 1.83226329,30.4931646 1.67023797,30.3635443 C1.50821266,30.201519 1.44340253,30.0070886 1.44340253,29.7802532 L1.44340253,2.17113924 L1.41099747,2.17113924 C1.41099747,1.9443038 1.50821266,1.74987342 1.63783291,1.5878481 C1.79985823,1.42582278 1.99428861,1.36101266 2.22112405,1.36101266 L16.7385924,1.36101266 L16.7385924,5.02278481 C16.7385924,5.67088608 16.9978329,6.25417722 17.4515038,6.7078481 L17.4839089,6.74025316 C17.9051747,7.16151899 18.4884658,7.38835443 19.104162,7.38835443 L22.7983392,7.38835443 L22.7983392,29.7478481 Z" id="Shape" fill="#000000" fill-rule="nonzero"></path>
                    </g>
                </g>
            </g>
        </g>
    </g>
</svg>