<?xml version="1.0" encoding="UTF-8"?>
<svg width="26px" height="26px" viewBox="0 0 26 26" version="1.1" xmlns="http://www.w3.org/2000/svg" xmlns:xlink="http://www.w3.org/1999/xlink">
    <title>Group 47</title>
    <g id="Final" stroke="none" stroke-width="1" fill="none" fill-rule="evenodd">
        <g id="Underwiter&gt;dashboard&gt;application" transform="translate(-1138.000000, -951.000000)" fill="#FFFFFF" fill-rule="nonzero" stroke="#0086D3">
            <g id="Group-51-Copy" transform="translate(1121.000000, 934.000000)">
                <g id="Group-47" transform="translate(18.000000, 18.000000)">
                    <path d="M11.3846154,12.9230769 L11.3846154,11.3478709 C12.2800481,11.0483173 12.9230769,10.2422047 12.9230769,9.2967033 C12.9230769,8.09697802 11.8878205,7.12087912 10.6153846,7.12087912 C10.1913061,7.12087912 9.84615385,6.79544985 9.84615385,6.3956044 C9.84615385,5.99575894 10.1913061,5.67032967 10.6153846,5.67032967 C11.0394631,5.67032967 11.3846154,5.99575894 11.3846154,6.3956044 L12.9230769,6.3956044 C12.9230769,5.450103 12.2800481,4.64399041 11.3846154,4.34443681 L11.3846154,2.76923077 L9.84615385,2.76923077 L9.84615385,4.34443681 C8.95072113,4.64399041 8.30769231,5.450103 8.30769231,6.3956044 C8.30769231,7.59532967 9.34294872,8.57142857 10.6153846,8.57142857 C11.0394631,8.57142857 11.3846154,8.89685784 11.3846154,9.2967033 C11.3846154,9.69654875 11.0394631,10.021978 10.6153846,10.021978 C10.1913061,10.021978 9.84615385,9.69654875 9.84615385,9.2967033 L8.30769231,9.2967033 C8.30769231,10.2422047 8.95072113,11.0483173 9.84615385,11.3478709 L9.84615385,12.9230769 L11.3846154,12.9230769 Z" id="Path" stroke-width="0.5"></path>
                    <polygon id="Path" points="2.76923077 13.8461538 10.1538462 13.8461538 10.1538462 15.6923077 2.76923077 15.6923077"></polygon>
                    <polygon id="Path" points="2.76923077 16.6153846 10.1538462 16.6153846 10.1538462 18.4615385 2.76923077 18.4615385"></polygon>
                    <polygon id="Path" points="2.76923077 19.3846154 10.1538462 19.3846154 10.1538462 21.2307692 2.76923077 21.2307692"></polygon>
                    <path d="M20.7332153,13.5875244 C21.824707,11.5396729 20.628479,8.97711183 18.328125,8.50817869 L18.328125,0 L4.63055419,0 L0,4.63055419 L0,24 L22.59375,24 L22.59375,21.140625 L24,21.140625 L24,16.921875 L19.7631225,16.921875 C19.8574219,15.7521973 20.1873779,14.6114502 20.7332153,13.5875244 Z M19.4923096,12.9259643 C18.83844,14.1525879 18.4500732,15.5214844 18.3530273,16.921875 L16.8956909,16.921875 C16.7953491,15.529541 16.4007568,14.1329956 15.7575073,12.9254151 C15.0276489,11.5554199 16.0257568,9.84375 17.625,9.84375 C19.2198487,9.84375 20.2252808,11.5506592 19.4923096,12.9259643 L19.4923096,12.9259643 Z M4.21875,2.40069581 L4.21875,4.21875 L2.40069581,4.21875 L4.21875,2.40069581 Z M1.40625,22.59375 L1.40625,5.625 L5.625,5.625 L5.625,1.40625 L16.921875,1.40625 L16.921875,8.50817869 C14.6262818,8.97601317 13.4234619,11.5349121 14.5164185,13.5866089 C15.0532837,14.5946045 15.3883667,15.7573242 15.4854126,16.921875 L11.296875,16.921875 L11.296875,21.140625 L12.703125,21.140625 L12.703125,22.59375 L1.40625,22.59375 Z M21.1875,22.59375 C20.3214112,22.59375 14.9675903,22.59375 14.109375,22.59375 L14.109375,21.140625 L21.1875,21.140625 L21.1875,22.59375 Z M22.59375,19.734375 L12.703125,19.734375 L12.703125,18.328125 L22.59375,18.328125 L22.59375,19.734375 Z" id="Shape" stroke-width="0.5"></path>
                </g>
            </g>
        </g>
    </g>
</svg>