<?xml version="1.0" encoding="UTF-8"?>
<svg width="22px" height="22px" viewBox="0 0 22 22" version="1.1" xmlns="http://www.w3.org/2000/svg" xmlns:xlink="http://www.w3.org/1999/xlink">
    <title>Group 50</title>
    <defs>
        <filter id="filter-1">
            <feColorMatrix in="SourceGraphic" type="matrix" values="0 0 0 0 0.000000 0 0 0 0 0.474510 0 0 0 0 0.721569 0 0 0 1.000000 0"></feColorMatrix>
        </filter>
    </defs>
    <g id="Final" stroke="none" stroke-width="1" fill="none" fill-rule="evenodd">
        <g id="Underwiter&gt;dashboard&gt;Floating-Menu-1" transform="translate(-1141.000000, -1562.000000)">
            <g id="Group-50" transform="translate(928.000000, 1382.000000)" filter="url(#filter-1)">
                <g transform="translate(213.000000, 180.000000)">
                    <path d="M20.0664063,7.94921875 L15.8538789,7.94921875 C16.2392227,7.20173437 16.4570312,6.35434766 16.4570312,5.45703125 C16.4570312,2.44801562 14.0090156,0 11,0 C7.99098437,0 5.54296875,2.44801563 5.54296875,5.45703125 C5.54296875,6.35434766 5.76077734,7.20173437 6.14612109,7.94921875 L1.93359375,7.94921875 C0.867410156,7.94921875 0,8.81662891 0,9.8828125 L0,20.0664062 C0,20.7052227 0.311609375,21.2724531 0.790582031,21.6247109 C0.802828125,21.6344648 0.81571875,21.6429727 0.828523438,21.6516953 C1.14202344,21.8709219 1.52289844,22 1.93359375,22 L20.0664062,22 C20.4769727,22 20.8577617,21.8710078 21.1712188,21.6519102 C21.1841094,21.6431016 21.1971289,21.6345078 21.2094609,21.6247109 C21.6883906,21.2724102 22,20.7052227 22,20.0664062 L22,9.8828125 C22,8.81662891 21.1325898,7.94921875 20.0664063,7.94921875 Z M1.2890625,20.0664062 L1.2890625,9.8828125 C1.2890625,9.84242187 1.29327344,9.80301953 1.30040625,9.76464844 L7.93495313,14.9239922 L1.30470313,20.2058828 C1.29473438,20.1609375 1.2890625,20.1143594 1.2890625,20.0664062 Z M8.98072656,15.7390234 L9.80886328,16.3866914 C10.1595313,16.660918 10.5797656,16.7980313 11.000043,16.7980313 C11.4203203,16.7980313 11.8405547,16.660918 12.1912227,16.3866914 L13.0193164,15.7390234 L19.2604414,20.7109375 L2.73955859,20.7109375 L8.98072656,15.7390234 Z M14.0650469,14.9239922 L20.6995938,9.76464844 C20.7067266,9.80301953 20.7109375,9.84242187 20.7109375,9.8828125 L20.7109375,20.0664062 C20.7109375,20.1143594 20.7052656,20.1609375 20.6952969,20.2058828 L14.0650469,14.9239922 Z M11,1.2890625 C13.2982266,1.2890625 15.1679688,3.15880469 15.1679688,5.45703125 C15.1679688,7.75525781 13.2982266,9.625 11,9.625 C8.70177344,9.625 6.83203125,7.75525781 6.83203125,5.45703125 C6.83203125,3.15880469 8.70177344,1.2890625 11,1.2890625 Z M11,10.9140625 C12.5424492,10.9140625 13.9373008,10.2706484 14.9307383,9.23828125 L19.2765977,9.23828125 L12.6258945,14.4102148 L11.3970742,15.3712539 C11.1632812,15.5541289 10.8367187,15.5540859 10.6029258,15.3712539 L9.3726875,14.4090977 L2.72335937,9.23828125 L7.06921875,9.23828125 C8.06269922,10.2706484 9.45755078,10.9140625 11,10.9140625 Z" id="Shape" fill="#FFFFFF" fill-rule="nonzero"></path>
                    <path d="M11,8.20703125 C11.3559531,8.20703125 11.6445312,7.91845312 11.6445312,7.5625 L11.6445312,5.5 C11.6445312,5.14404687 11.3559531,4.85546875 11,4.85546875 C10.6440469,4.85546875 10.3554688,5.14404687 10.3554688,5.5 L10.3554688,7.5625 C10.3554688,7.91845312 10.6440469,8.20703125 11,8.20703125 Z" id="Path" fill="#FFFFFF" fill-rule="nonzero"></path>
                    <circle id="Oval" fill="#FFFFFF" fill-rule="nonzero" cx="11" cy="3.43754297" r="1"></circle>
                </g>
            </g>
        </g>
    </g>
</svg>