<?xml version="1.0" encoding="UTF-8"?>
<svg width="31px" height="26px" viewBox="0 0 31 26" version="1.1" xmlns="http://www.w3.org/2000/svg" xmlns:xlink="http://www.w3.org/1999/xlink">
    <!-- Generator: Sketch 53.2 (72643) - https://sketchapp.com -->
    <title>folder-open-line</title>
    <desc>Created with Sketch.</desc>
    <g id="Page-1" stroke="none" stroke-width="1" fill="none" fill-rule="evenodd" opacity="0.649925595">
        <g id="CLO-Dashboard" transform="translate(-1183.000000, -17.000000)" fill="#FAFAFA" fill-rule="nonzero">
            <g id="folder-open-line" transform="translate(1183.000000, 17.000000)">
                <path d="M30.16,8.4162963 C29.8447387,7.95824614 29.319598,7.69024333 28.7637037,7.7037037 L6.90444444,7.7037037 C5.96385468,7.74357713 5.12586542,8.30968544 4.73777778,9.16740741 C4.73462824,9.21229049 4.73462824,9.25733914 4.73777778,9.30222222 L1.92592593,19.2592593 L1.92592593,1.92592593 L8.17555556,1.92592593 L10.6888889,5.38296296 C10.8707265,5.6318063 11.1606888,5.77857734 11.4688889,5.77777778 L26.962963,5.77777778 C26.962963,4.71411826 26.1006966,3.85185185 25.037037,3.85185185 L11.96,3.85185185 L9.73555556,0.78962963 C9.37188031,0.29194295 8.79195572,-0.00159912983 8.17555556,6.41462456e-15 L1.92592593,6.41462456e-15 C0.862266408,6.41462456e-15 0,0.862266408 0,1.92592593 L0,23.7755556 C0.0312841873,24.4966856 0.636297302,25.05879 1.35777778,25.037037 L25.3644444,25.037037 C25.8066091,25.0546357 26.2038534,24.7686198 26.3274074,24.3437037 L30.3622222,9.80296296 C30.5148054,9.33450178 30.4400174,8.8216699 30.16,8.4162963 L30.16,8.4162963 Z M24.6037037,23.1111111 L2.79259259,23.1111111 L6.52888889,9.81259259 C6.62006994,9.69511786 6.74955785,9.61333602 6.89481481,9.58148148 L28.3977778,9.58148148 L24.6037037,23.1111111 Z" id="Shape"></path>
            </g>
        </g>
    </g>
</svg>