<?xml version="1.0" encoding="UTF-8"?>
<svg width="30px" height="30px" viewBox="0 0 30 30" version="1.1" xmlns="http://www.w3.org/2000/svg" xmlns:xlink="http://www.w3.org/1999/xlink">
    <title>Gold Loan Details_1</title>
    <g id="Page-1" stroke="none" stroke-width="1" fill="none" fill-rule="evenodd">
        <g id="Gold-Loan-Details_1">
            <rect id="Rectangle" x="0" y="0" width="30" height="30"></rect>
            <g id="Group-269" transform="translate(1.000000, 5.000000)" fill="#8E8E8E" fill-rule="nonzero">
                <path d="M0.0933426667,19.9008133 C0.181544533,20.0185067 0.319696533,20.08776 0.466738533,20.08776 L27.5331467,20.08776 C27.6808933,20.08776 27.8195867,20.0179467 27.9075067,19.8994133 C27.9958933,19.7813467 28.0225867,19.6283733 27.9803067,19.4870667 L26.5802133,14.8205867 C26.5214133,14.6229067 26.3394133,14.48776 26.13324,14.48776 L24.1472,14.48776 L22.8469733,10.1537333 C22.7878933,9.95614667 22.60608,9.82118667 22.4,9.82118667 L20.4138667,9.82118667 L19.1134533,5.487216 C19.0546533,5.28963867 18.8726533,5.154296 18.66648,5.154296 L9.33324933,5.154296 C9.12725333,5.154296 8.945468,5.28963867 8.886164,5.487216 L7.58618,9.82118667 L5.6,9.82118667 C5.39388267,9.82118667 5.211976,9.95614667 5.15301733,10.1537333 L3.85292133,14.48776 L1.866508,14.48776 C1.660624,14.48776 1.47871733,14.6229067 1.41952533,14.8205867 L0.01952944,19.4870667 C-0.0228168267,19.6287467 0.00455620667,19.78256 0.0933426667,19.9008133 Z M8.560608,19.15452 L9.68044,15.421 L13.6527067,15.421 L14.7728933,19.15452 L8.560608,19.15452 Z M7.93324933,17.997 L7.16048667,15.421 L8.70613333,15.421 L7.93324933,17.997 Z M17.3861333,10.7543333 L18.5061333,14.48776 L12.29396,14.48776 L13.4137733,10.7543333 L17.3861333,10.7543333 Z M16.1728933,15.421 L15.3999067,17.997 L14.6272,15.421 L16.1728933,15.421 Z M11.66648,13.3304267 L10.89396,10.7543333 L12.4396533,10.7543333 L11.66648,13.3304267 Z M16.0271067,19.15452 L17.1472,15.421 L21.1194667,15.421 L22.2396533,19.15452 L16.0271067,19.15452 Z M26.9061333,19.15452 L23.2138667,19.15452 L22.09396,15.421 L25.78632,15.421 L26.9061333,19.15452 Z M23.1728,14.48776 L19.48044,14.48776 L18.3606267,10.7543333 L22.0528933,10.7543333 L23.1728,14.48776 Z M19.4396533,9.82118667 L15.7471067,9.82118667 L14.6272,6.08776 L18.31956,6.08776 L19.4396533,9.82118667 Z M9.68044,6.08776 L13.6527067,6.08776 L14.7728933,9.82118667 L8.560608,9.82118667 L9.68044,6.08776 Z M5.94706933,10.7543333 L9.91946667,10.7543333 L11.0393733,14.48776 L4.82723733,14.48776 L5.94706933,10.7543333 Z M2.213932,15.421 L6.186292,15.421 L7.30613333,19.15452 L1.09397867,19.15452 L2.213932,15.421 Z" id="Shape"></path>
                <path d="M6.073032,4.76421867 C6.111168,4.98869467 6.30558133,5.15316667 6.53322133,5.15316667 C6.76109467,5.15316667 6.955396,4.98869467 6.993532,4.76421867 C7.12033467,4.00409333 7.71610933,3.40808533 8.476468,3.28116133 C8.70095333,3.24314667 8.86554667,3.04884533 8.86554667,2.821084 C8.86554667,2.59332267 8.70095333,2.39890933 8.476468,2.36077333 C7.71610933,2.23384933 7.12033467,1.63807467 6.993532,0.877949333 C6.955396,0.65324 6.76109467,0.489001333 6.53322133,0.489001333 C6.30558133,0.489001333 6.111168,0.65324 6.073032,0.877949333 C5.946108,1.63807467 5.35033333,2.23384933 4.590208,2.36077333 C4.36548933,2.39890933 4.20125067,2.59332267 4.20125067,2.821084 C4.20125067,3.04884533 4.36548933,3.24314667 4.590208,3.28116133 C5.35033333,3.40808533 5.946108,4.00409333 6.073032,4.76421867 Z M6.53322133,2.154656 C6.71536133,2.41388 6.94065867,2.63906533 7.19977067,2.821084 C6.94065867,3.00310267 6.71536133,3.22852133 6.53322133,3.487512 C6.351324,3.22852133 6.125784,3.00310267 5.86702667,2.821084 C6.125784,2.63906533 6.351324,2.41388 6.53322133,2.154656 Z" id="Shape"></path>
            </g>
        </g>
    </g>
</svg>