<?xml version="1.0" encoding="UTF-8"?>
<svg width="30px" height="30px" viewBox="0 0 30 30" version="1.1" xmlns="http://www.w3.org/2000/svg" xmlns:xlink="http://www.w3.org/1999/xlink">
    <title>Income Summary</title>
    <g id="Page-1" stroke="none" stroke-width="1" fill="none" fill-rule="evenodd">
        <g id="Income-Summary">
            <g id="482511-copy" transform="translate(0.000000, 4.000000)" fill="#8E8E8E" fill-rule="nonzero">
                <path d="M27,17.4999854 L27,2.50001465 C27,1.12124781 25.8991931,0 24.5454336,0 L2.45450885,0 C1.10080689,0 0,1.12118922 0,2.50001465 L0,17.4999854 C0,18.8787522 1.10080689,20 2.45456637,20 L24.5454912,20 C25.8991931,20 27,18.8787522 27,17.4999854 Z M24.5454912,1.24997803 C25.2220257,1.24997803 25.7727456,1.8108949 25.7727456,2.49995605 L25.7727456,4.93680676 C23.8988138,4.66006902 22.4246473,3.15860711 22.1529404,1.24997803 L24.5454912,1.24997803 Z M1.22725442,2.50001465 C1.22725442,1.81095349 1.77797427,1.25003662 2.45450885,1.25003662 L4.84705955,1.25003662 C4.57535268,3.15866571 3.10118615,4.66012762 1.22725442,4.93686536 L1.22725442,2.50001465 Z M2.45456637,18.7499634 C1.7780318,18.7499634 1.22731195,18.1890465 1.22731195,17.4999854 L1.22731195,15.0631346 C3.10124368,15.3398724 4.57541021,16.8413343 4.84711708,18.7499634 L2.45456637,18.7499634 Z M6.0743715,18.7499634 C5.78753465,16.1530935 3.77697285,14.1052459 1.22731195,13.8131566 L1.22731195,6.18684339 C3.77697285,5.89469552 5.78759218,3.84690655 6.0743715,1.25003662 L20.925686,1.25003662 C21.2125229,3.84690655 23.2230847,5.89475411 25.7727456,6.18684339 L25.7727456,13.8131566 C23.2230847,14.1053045 21.2124653,16.1530935 20.925686,18.7499634 L6.0743715,18.7499634 Z M25.7727456,15.0631346 L25.7727456,17.4999854 C25.7727456,18.1890465 25.2220257,18.7499634 24.5454912,18.7499634 L22.1529404,18.7499634 C22.4246473,16.8413343 23.8988138,15.3398724 25.7727456,15.0631346 Z" id="Shape"></path>
                <path d="M13.1874963,7.5 L15.3749341,7.5 C15.7203961,7.5 15.9999414,7.2204514 15.9999414,6.87498535 C15.9999414,6.5295193 15.7203961,6.2499707 15.3749341,6.2499707 L14.124978,6.2499707 L14.124978,5.62501465 C14.124978,5.2795486 13.8454327,5 13.4999707,5 C13.1545087,5 12.8749634,5.2795486 12.8749634,5.62501465 L12.8749634,6.28161108 C11.8176012,6.43483254 11,7.3383997 11,8.43749268 C11,9.64351841 11.9814261,10.6249561 13.1874377,10.6249561 L13.8125037,10.6249561 C14.3294662,10.6249561 14.7499854,11.0454801 14.7499854,11.5624487 C14.7499854,12.0794173 14.3294662,12.4999414 13.8125037,12.4999414 L11.6250659,12.4999414 C11.2796039,12.4999414 11.0000586,12.77949 11.0000586,13.1249561 C11.0000586,13.4704221 11.2796039,13.7499707 11.6250659,13.7499707 L12.875022,13.7499707 L12.875022,14.3749854 C12.875022,14.7204514 13.1545673,15 13.5000293,15 C13.8454913,15 14.1250366,14.7204514 14.1250366,14.3749854 L14.1250366,13.7183889 C15.1823988,13.5651675 16,12.6616003 16,11.5625073 C15.9999414,10.356423 15.0185153,9.37498535 13.8125037,9.37498535 L13.1874963,9.37498535 C12.6705338,9.37498535 12.2500146,8.95446129 12.2500146,8.43749268 C12.2500146,7.92052406 12.6705338,7.5 13.1874963,7.5 Z" id="Path"></path>
                <path d="M5,8 C4.44874139,8 4,8.6730963 4,9.49996484 C4,10.3269037 4.44874139,11 5,11 C5.55125861,11 6,10.3269037 6,9.50003516 C6.00004688,8.6730963 5.55130549,8 5,8 Z M5.00051563,9.52977611 C5.00051563,9.52977611 5.00004688,9.5284904 5.00004688,9.52707613 L5.50002344,9.52977611 L5.00051563,9.52977611 Z" id="Shape"></path>
                <path d="M24,10 C24,9.44874139 23.5512586,9 23,9 C22.4487414,9 22,9.44874139 22,10 C22,10.5512586 22.4487414,11 23,11 C23.5512586,11 24,10.5512586 24,10 Z M23.0004688,10.0271199 C23.0004688,10.0271199 23,10.0261199 23,10.0250199 L23.5000234,10.0271199 L23.0004688,10.0271199 Z" id="Shape"></path>
                <path d="M29.380933,4 C29.0387545,4 28.7618661,4.28327812 28.7618661,4.63335313 L28.7618661,20.4667062 C28.7618661,21.1649562 28.2062902,21.7333531 27.5237902,21.7333531 L4.61906696,21.7333531 C4.27688839,21.7333531 4,22.0166312 4,22.3667062 C4,22.7167219 4.27688839,23 4.61906696,23 L27.5238482,23 C28.8894866,23 30,21.8638594 30,20.4666469 L30,4.63335313 C30,4.28327812 29.7231116,4 29.380933,4 Z" id="Path"></path>
            </g>
            <rect id="Rectangle-Copy-8" x="0" y="0" width="30" height="30"></rect>
        </g>
    </g>
</svg>