<?xml version="1.0" standalone="no"?>
<!DOCTYPE svg PUBLIC "-//W3C//DTD SVG 20010904//EN"
 "http://www.w3.org/TR/2001/REC-SVG-20010904/DTD/svg10.dtd">
<svg version="1.0" xmlns="http://www.w3.org/2000/svg"
 width="391.000000pt" height="129.000000pt" viewBox="0 0 391.000000 129.000000"
 preserveAspectRatio="xMidYMid meet">

<g transform="translate(0.000000,129.000000) scale(0.100000,-0.100000)"
fill="#000000" stroke="none">
<path d="M0 1220 l0 -70 75 0 75 0 0 70 0 70 -75 0 -75 0 0 -70z"/>
<path d="M1750 890 l0 -390 75 0 75 0 0 390 0 390 -75 0 -75 0 0 -390z"/>
<path d="M2040 890 l0 -390 75 0 75 0 0 390 0 390 -75 0 -75 0 0 -390z"/>
<path d="M880 1160 l0 -90 -35 0 -35 0 0 -65 0 -65 35 0 35 0 0 -170 c0 -184
8 -223 51 -251 35 -23 86 -30 151 -23 l58 7 0 62 0 63 -52 -2 -53 -1 -3 158
-3 157 56 0 55 0 0 65 0 65 -55 0 -55 0 0 90 0 90 -75 0 -75 0 0 -90z"/>
<path d="M3380 1160 l0 -90 -35 0 -35 0 0 -65 0 -65 35 0 35 0 0 -159 c0 -87
3 -172 6 -190 14 -71 88 -107 194 -95 l60 7 0 63 0 63 -49 -6 -50 -6 -6 34
c-3 19 -5 90 -3 159 l3 125 53 3 52 3 0 64 0 64 -52 3 -53 3 -1 85 -2 85 -76
3 -76 3 0 -91z"/>
<path d="M3748 1234 c-34 -18 -58 -62 -58 -105 0 -22 10 -41 34 -65 28 -28 42
-34 76 -34 34 0 48 6 76 34 24 24 34 43 34 65 0 90 -87 146 -162 105z m95 -16
c33 -17 46 -39 47 -76 0 -46 -16 -71 -56 -88 -95 -40 -172 84 -93 150 33 28
67 33 102 14z"/>
<path d="M3750 1136 c0 -31 5 -56 10 -56 6 0 10 11 10 25 0 14 4 25 9 25 12 0
41 -29 41 -41 0 -5 7 -9 15 -9 13 0 13 3 -1 26 -14 20 -15 27 -5 34 7 4 11 16
9 26 -2 14 -13 20 -46 22 l-42 3 0 -55z m68 27 c-2 -10 -13 -19 -26 -21 -17
-3 -22 2 -22 17 0 16 6 21 26 21 19 0 25 -5 22 -17z"/>
<path d="M508 1066 c-21 -8 -49 -21 -63 -30 -24 -16 -25 -16 -25 9 0 24 -2 25
-70 25 l-70 0 0 -285 0 -285 75 0 75 0 0 204 0 204 34 21 c40 25 98 27 117 4
11 -12 15 -66 17 -225 l4 -208 75 0 75 0 -4 228 c-3 219 -4 228 -27 269 -42
73 -127 100 -213 69z"/>
<path d="M1336 1068 c-59 -16 -130 -92 -150 -159 -34 -115 -12 -265 51 -340
76 -90 258 -99 357 -17 63 51 63 61 2 101 l-54 36 -18 -21 c-41 -44 -99 -59
-148 -37 -24 11 -39 38 -52 91 l-6 27 163 3 164 3 -1 70 c-3 180 -140 287
-308 243z m131 -123 c22 -15 46 -69 36 -79 -4 -3 -47 -6 -96 -6 l-89 0 6 28
c15 61 93 92 143 57z"/>
<path d="M2451 1071 c-124 -32 -200 -186 -171 -350 29 -166 136 -247 292 -222
31 5 70 17 86 25 27 14 92 75 96 90 0 3 -24 21 -54 40 -50 32 -56 34 -67 19
-39 -51 -121 -69 -162 -35 -12 9 -28 38 -36 65 l-14 47 166 0 166 0 -5 84 c-4
73 -8 90 -37 135 -56 86 -159 127 -260 102z m130 -140 c16 -16 29 -39 29 -50
0 -20 -6 -21 -90 -21 -99 0 -104 4 -75 60 17 32 27 38 73 39 24 1 42 -7 63
-28z"/>
<path d="M2968 1066 c-115 -42 -168 -132 -168 -281 0 -182 94 -291 250 -289
83 1 124 19 175 76 25 27 45 56 45 63 0 7 -24 26 -52 43 l-53 29 -41 -43 c-42
-46 -82 -57 -123 -34 -28 15 -51 84 -51 154 0 114 31 166 100 166 30 0 44 -6
63 -30 14 -16 27 -35 29 -41 3 -9 22 -5 66 12 68 26 70 33 28 96 -47 71 -183
111 -268 79z"/>
<path d="M0 785 l0 -285 75 0 75 0 0 285 0 285 -75 0 -75 0 0 -285z"/>
<path d="M21 324 c-18 -22 -21 -41 -21 -111 0 -76 2 -86 25 -108 22 -23 32
-25 115 -25 124 0 130 6 130 139 0 127 -4 131 -136 131 -88 0 -94 -1 -113 -26z"/>
<path d="M732 327 c-19 -20 -22 -35 -22 -111 0 -79 2 -89 25 -111 22 -23 32
-25 110 -25 78 0 88 2 110 25 23 22 25 32 25 115 0 123 -7 130 -133 130 -85 0
-96 -2 -115 -23z"/>
<path d="M1190 215 l0 -135 54 0 c81 0 106 33 106 140 0 100 -27 130 -115 130
l-45 0 0 -135z m110 95 c16 -16 20 -33 20 -95 0 -89 -17 -115 -75 -115 l-35 0
0 115 0 115 35 0 c22 0 43 -8 55 -20z"/>
<path d="M1740 335 c0 -8 5 -15 10 -15 6 0 10 7 10 15 0 8 -4 15 -10 15 -5 0
-10 -7 -10 -15z"/>
<path d="M2297 343 c-4 -3 -7 -19 -7 -35 0 -18 -5 -28 -15 -28 -8 0 -15 -4
-15 -10 0 -5 7 -10 15 -10 12 0 15 -17 15 -90 0 -53 4 -90 10 -90 6 0 10 37
10 90 0 83 1 90 20 90 11 0 20 5 20 10 0 6 -9 10 -20 10 -14 0 -20 7 -20 21 0
12 8 23 20 26 11 3 20 9 20 14 0 10 -43 12 -53 2z"/>
<path d="M2770 215 l0 -135 55 0 c45 0 60 4 80 24 45 45 45 177 -1 223 -19 19
-34 23 -79 23 l-55 0 0 -135z m116 94 c15 -17 19 -36 19 -94 0 -87 -18 -115
-72 -115 l-33 0 0 115 0 115 33 0 c22 0 41 -8 53 -21z"/>
<path d="M2990 335 c0 -8 5 -15 10 -15 6 0 10 7 10 15 0 8 -4 15 -10 15 -5 0
-10 -7 -10 -15z"/>
<path d="M3250 335 c0 -8 7 -15 15 -15 8 0 15 7 15 15 0 8 -7 15 -15 15 -8 0
-15 -7 -15 -15z"/>
<path d="M3610 215 c0 -101 3 -135 13 -135 9 0 12 34 12 135 0 101 -3 135 -12
135 -10 0 -13 -34 -13 -135z"/>
<path d="M3340 310 c0 -20 -5 -30 -15 -30 -8 0 -15 -4 -15 -10 0 -5 7 -10 15
-10 11 0 15 -19 17 -87 3 -88 3 -88 31 -91 31 -4 37 13 7 21 -18 5 -20 14 -20
81 0 69 2 76 20 76 11 0 20 5 20 10 0 6 -9 10 -20 10 -16 0 -20 7 -20 30 0 17
-4 30 -10 30 -5 0 -10 -13 -10 -30z"/>
<path d="M1438 278 c-73 -25 -53 -208 22 -208 22 0 70 41 70 60 0 19 -25 10
-35 -12 -20 -46 -63 -31 -72 25 l-6 37 57 0 c55 0 56 1 56 28 0 56 -41 87 -92
70z m50 -20 c5 -7 13 -23 16 -35 7 -22 4 -23 -38 -23 -50 0 -57 10 -30 48 17
25 37 28 52 10z"/>
<path d="M1600 277 c-17 -8 -26 -22 -28 -43 -3 -34 8 -46 52 -61 38 -12 55
-37 40 -60 -16 -26 -57 -23 -69 5 -15 35 -36 29 -24 -7 19 -53 109 -50 123 3
9 36 -8 62 -48 76 -47 15 -60 33 -46 59 14 27 50 27 57 1 6 -22 33 -28 33 -6
0 31 -54 51 -90 33z"/>
<path d="M1857 283 c-41 -10 -62 -118 -34 -173 14 -28 59 -39 83 -19 12 9 14
7 14 -18 0 -50 -36 -69 -72 -36 -23 21 -37 8 -15 -14 21 -21 73 -21 95 1 14
13 18 40 20 136 2 76 0 120 -6 120 -6 0 -12 -5 -14 -12 -3 -8 -11 -7 -29 4
-13 8 -32 13 -42 11z m46 -30 c50 -56 15 -182 -41 -146 -34 21 -37 116 -5 148
19 19 27 19 46 -2z"/>
<path d="M2050 273 c-17 -12 -25 -13 -28 -5 -2 7 -8 12 -13 12 -5 0 -9 -45 -9
-100 0 -60 4 -100 10 -100 6 0 10 32 10 75 0 62 4 79 20 95 22 22 29 24 50 10
11 -7 16 -33 19 -95 1 -47 7 -85 12 -85 5 0 9 40 9 89 0 82 -2 91 -22 105 -28
20 -28 20 -58 -1z"/>
<path d="M2422 282 c-34 -5 -55 -55 -50 -120 7 -86 62 -119 113 -67 21 20 25
34 25 82 0 83 -26 115 -88 105z m49 -28 c8 -10 14 -40 14 -74 0 -60 -15 -90
-44 -90 -30 0 -41 23 -41 86 0 83 35 121 71 78z"/>
<path d="M2604 268 c-18 -20 -18 -21 -1 -15 10 4 23 7 28 7 5 0 9 7 9 15 0 21
-14 19 -36 -7z"/>
<path d="M3102 279 c-12 -5 -27 -20 -32 -34 -14 -36 -12 -105 3 -135 14 -28
59 -39 83 -19 12 9 14 7 14 -18 0 -48 -42 -71 -70 -38 -16 19 -30 19 -30 1 0
-18 48 -34 80 -26 39 9 50 44 50 163 0 88 -3 107 -15 107 -8 0 -15 -5 -15 -10
0 -6 -10 -4 -22 4 -16 10 -30 11 -46 5z m52 -28 c24 -26 19 -129 -6 -145 -34
-21 -53 4 -56 75 -2 51 0 66 14 76 23 17 28 16 48 -6z"/>
<path d="M3460 277 c-14 -7 -26 -23 -28 -35 -4 -27 14 -29 23 -3 14 44 79 32
73 -13 -2 -15 -15 -25 -43 -34 -65 -21 -84 -63 -45 -102 24 -24 39 -25 66 -6
18 13 17 14 -16 13 -33 -2 -35 0 -38 30 -3 29 1 34 34 48 20 8 39 15 41 15 3
0 4 -19 3 -42 -4 -63 -2 -68 22 -68 17 0 19 3 10 12 -7 7 -12 43 -12 93 0 78
-1 82 -25 93 -32 15 -34 15 -65 -1z"/>
<path d="M1740 180 c0 -60 4 -100 10 -100 6 0 10 40 10 100 0 60 -4 100 -10
100 -6 0 -10 -40 -10 -100z"/>
<path d="M2560 180 c0 -55 4 -100 9 -100 5 0 11 37 13 83 3 89 0 117 -13 117
-5 0 -9 -45 -9 -100z"/>
<path d="M2990 180 c0 -60 4 -100 10 -100 6 0 10 40 10 100 0 60 -4 100 -10
100 -6 0 -10 -40 -10 -100z"/>
<path d="M3250 180 c0 -82 3 -100 15 -100 12 0 15 18 15 100 0 82 -3 100 -15
100 -12 0 -15 -18 -15 -100z"/>
</g>
</svg>
