<?xml version="1.0" encoding="UTF-8"?>
<svg width="30px" height="30px" viewBox="0 0 30 30" version="1.1" xmlns="http://www.w3.org/2000/svg" xmlns:xlink="http://www.w3.org/1999/xlink">
    <title>Interface Results_1</title>
    <g id="Page-1" stroke="none" stroke-width="1" fill="none" fill-rule="evenodd">
        <g id="Interface-Results_1">
            <rect id="Rectangle" x="0" y="0" width="30" height="30"></rect>
            <g id="Interface-Results" transform="translate(2.000000, 2.000000)" fill="#8E8E8E" fill-rule="nonzero">
                <path d="M23.0646,0.811680916 L2.0967071,0.811680916 C0.939346452,0.8131526 0.00147168387,1.75102452 0,2.90838516 L0,19.682671 C0.00147168387,20.8400903 0.939346452,21.7778516 2.0967071,21.7793613 L9.22589032,21.7793613 L9.22589032,20.9407355 L2.0967071,20.9407355 C1.40207935,20.9407355 0.838640065,20.3772903 0.838640065,19.682671 L0.838640065,2.90838516 C0.838640065,2.21375742 1.40207935,1.65032065 2.0967071,1.65032065 L23.0646,1.65032065 C23.7592194,1.65032065 24.3226645,2.21375742 24.3226645,2.90838516 L24.3226645,19.682671 C24.3227484,20.2562645 23.9350129,20.7575613 23.3792839,20.9012323 L23.589129,21.7131032 C24.5148968,21.4739032 25.1612903,20.6387161 25.1612903,19.682671 L25.1612903,2.90838516 C25.1598645,1.75102452 24.2220194,0.8131526 23.0646,0.811680916 Z" id="Path"></path>
                <polygon id="Path" points="1.67752 2.48950839 2.51617097 2.48950839 2.51617097 3.32815097 1.67752 3.32815097"></polygon>
                <polygon id="Path" points="3.35473806 2.48950839 4.19358194 2.48950839 4.19358194 3.32815097 3.35473806 3.32815097"></polygon>
                <polygon id="Path" points="5.03225806 2.48950839 5.87090065 2.48950839 5.87090065 3.32815097 5.03225806 3.32815097"></polygon>
                <polygon id="Path" points="1.67752 4.16651677 23.483871 4.16651677 23.483871 5.00537742 1.67752 5.00537742"></polygon>
                <path d="M3.35469613,12.5536387 L7.96774194,12.5536387 L7.96774194,11.7147613 L3.77412645,11.7147613 L3.77412645,8.35999806 L21.3870129,8.35999806 L21.3870129,12.5536387 L21.8064516,12.5536387 C22.0379355,12.5536387 22.2256387,12.3658516 22.2256387,12.1342 L22.2256387,7.94057613 C22.2256387,7.709 22.0379355,7.52135548 21.8064516,7.52135548 L3.35469613,7.52135548 C3.12312,7.52135548 2.93548387,7.709 2.93548387,7.94057613 L2.93548387,12.1342 C2.93548387,12.3658516 3.12312,12.5536387 3.35469613,12.5536387 Z" id="Path"></path>
                <polygon id="Path" points="5.4516129 9.19837226 6.29025548 9.19837226 6.29025548 10.8758839 5.4516129 10.8758839"></polygon>
                <polygon id="Path" points="20.9676581 5.84393613 21.8064516 5.84393613 21.8064516 6.68257871 20.9676581 6.68257871"></polygon>
                <polygon id="Path" points="19.2904065 5.84393613 20.1290323 5.84393613 20.1290323 6.68257871 19.2904065 6.68257871"></polygon>
                <polygon id="Path" points="17.6129032 5.84393613 18.451529 5.84393613 18.451529 6.68257871 17.6129032 6.68257871"></polygon>
                <path d="M14.6773355,22.5221226 C15.8890194,22.5229613 17.078729,22.195529 18.1194,21.5748839 L21.9254645,25.4865419 C22.2242129,25.795271 22.6347613,25.9704774 23.0645161,25.9730028 L23.0786065,25.9730028 C23.7206387,25.9751742 24.301529,25.5929742 24.5530581,25.0025226 C24.8050065,24.412071 24.6783613,23.728271 24.2324194,23.2668129 L20.3998516,19.3278968 C21.0449871,18.2863871 21.3870968,17.0853548 21.3870968,15.8600839 C21.4066387,13.1420774 19.7839871,10.6808 17.2782581,9.62729677 C14.7727806,8.5736929 11.8788129,9.13587161 9.95003226,11.0510065 C8.02117613,12.9662 7.43849935,15.8558065 8.4739871,18.3689161 C9.50987742,20.8821097 11.9590774,22.5221226 14.6773355,22.5221226 Z M23.6321548,23.8514774 C23.9190774,24.1480452 23.9148839,24.6199032 23.6225097,24.9110194 C23.4779161,25.0551935 23.2816581,25.1357097 23.0776,25.1343843 L23.0727355,25.1343843 C22.8672516,25.1332774 22.6706581,25.0494065 22.5279097,24.9017935 L18.8249226,21.0966516 C18.8404387,21.0843226 18.8541097,21.0694774 18.8695419,21.0572323 C19.0470968,20.917 19.2171871,20.7675419 19.3790581,20.6098645 C19.3860194,20.6034903 19.3934839,20.5977032 19.4001935,20.5909935 C19.5665935,20.4257677 19.7243548,20.2516516 19.872471,20.0696516 C19.8843806,20.0552258 19.8988903,20.0420581 19.9104645,20.0278 L23.6321548,23.8514774 Z M14.6773355,10.037563 C17.9051097,10.0277806 20.5312774,12.6325613 20.5483896,15.8600839 C20.5494774,17.0337742 20.1921871,18.179871 19.5238194,19.1445548 C17.9702774,21.4672774 14.9916839,22.3675484 12.4116452,21.2947548 C9.83177419,20.2217935 8.3698529,17.4748516 8.92110323,14.7355419 C9.47247097,11.9961484 11.8830065,10.0286194 14.6773355,10.037563 Z" id="Shape"></path>
                <path d="M14.6773355,20.5212129 C17.225,20.5212129 19.2904065,18.4560581 19.2904065,15.9083935 C19.2904065,13.3606452 17.225,11.2955742 14.6773355,11.2955742 C12.129671,11.2955742 10.0645161,13.3606452 10.0645161,15.9083935 C10.0677032,18.4548 12.1310129,20.5181935 14.6773355,20.5212129 Z M14.6773355,12.1342 C16.7618645,12.1342 18.451529,13.8238645 18.451529,15.9083935 C18.451529,17.9929226 16.7618645,19.6825871 14.6773355,19.6825871 C12.5929742,19.6825871 10.9031419,17.9929226 10.9031419,15.9083935 C10.9055742,13.8249548 12.5938968,12.1363806 14.6773355,12.1342 Z" id="Shape"></path>
                <polygon id="Path" points="12.2839097 16.4507032 15.6387484 13.0958645 16.2318839 13.6889161 12.8770452 17.043671"></polygon>
                <polygon id="Path" points="13.9616645 17.2892452 16.4777935 14.7732839 17.0706774 15.3663355 14.5545484 17.8824645"></polygon>
            </g>
        </g>
    </g>
</svg>