<?xml version="1.0" encoding="UTF-8"?>
<svg width="25px" height="26px" viewBox="0 0 25 26" version="1.1" xmlns="http://www.w3.org/2000/svg" xmlns:xlink="http://www.w3.org/1999/xlink">
    <!-- Generator: Sketch 64 (93537) - https://sketch.com -->
    <title>power-line</title>
    <desc>Created with Sketch.</desc>
    <g id="APPLN-INIT" stroke="none" stroke-width="1" fill="none" fill-rule="evenodd" opacity="0.647158668">
        <g id="UPDATED-----Application-Initiation-2---BAI" transform="translate(-1320.000000, -17.000000)" fill="#FFFFFF" fill-rule="nonzero">
            <g id="Group-20" transform="translate(870.000000, 7.000000)">
                <g id="power-line" transform="translate(450.000000, 10.000000)">
                    <path d="M12.4851367,14.9425287 C12.0473367,14.9425287 11.6924296,14.5857288 11.6924296,14.1455939 L11.6924296,1.39463602 C11.6924296,0.954501042 12.0473367,0.597701149 12.4851367,0.597701149 C12.9229368,0.597701149 13.2778438,0.954501042 13.2778438,1.39463602 L13.2778438,14.1455939 C13.2778438,14.5857288 12.9229368,14.9425287 12.4851367,14.9425287 Z" id="Path"></path>
                    <path d="M12.4851367,25.4222585 C7.09512783,25.4355031 2.37040157,21.8021826 0.972338551,16.5688659 C-0.425724471,11.3355491 1.85260811,5.81137609 6.52397939,3.10804598 C6.9003967,2.91008598 7.36512584,3.04562708 7.57771956,3.41537574 C7.79031328,3.7851244 7.67519033,4.25762772 7.31668648,4.4867433 C3.27738074,6.83127539 1.30805046,11.611016 2.51523128,16.1403042 C3.7224121,20.6695924 7.80509408,23.8190525 12.4692826,23.8190525 C17.1334711,23.8190525 21.2161531,20.6695924 22.4233339,16.1403042 C23.6305147,11.611016 21.6611845,6.83127539 17.6218787,4.4867433 C17.3638697,4.35105489 17.2006243,4.08408292 17.1966834,3.79137784 C17.1927425,3.49867276 17.3487407,3.22735665 17.6030021,3.08469747 C17.8572636,2.94203829 18.1688553,2.95100249 18.4145858,3.10804598 C23.0859571,5.81137609 25.3642897,11.3355491 23.9662266,16.5688659 C22.5681636,21.8021826 17.8434374,25.4355031 12.4534285,25.4222585 L12.4851367,25.4222585 Z" id="Path"></path>
                </g>
            </g>
        </g>
    </g>
</svg>