<?xml version="1.0" encoding="UTF-8"?>
<svg width="25px" height="18px" viewBox="0 0 25 18" version="1.1" xmlns="http://www.w3.org/2000/svg" xmlns:xlink="http://www.w3.org/1999/xlink">
    <!-- Generator: Sketch 64 (93537) - https://sketch.com -->
    <title>462998</title>
    <desc>Created with Sketch.</desc>
    <g id="APPLN-INIT" stroke="none" stroke-width="1" fill="none" fill-rule="evenodd">
        <g id="UPDATED-----Application-Initiation-2---BAI" transform="translate(-20.000000, -21.000000)" fill="#FAFAFA">
            <g id="462998" transform="translate(20.000000, 21.000000)">
                <path d="M23.9901367,8.57142857 L1.00986328,8.57142857 C0.452148438,8.57142857 0,8.95515769 0,9.42857143 C0,9.90198516 0.452148438,10.2857143 1.00986328,10.2857143 L23.9901367,10.2857143 C24.5479004,10.2857143 25,9.90198516 25,9.42857143 C25,8.95519914 24.5479004,8.57142857 23.9901367,8.57142857 Z" id="Path"></path>
                <path d="M23.9901367,0 L1.00986328,0 C0.452148438,0 0,0.383770567 0,0.857142857 C0,1.33051515 0.452148438,1.71428571 1.00986328,1.71428571 L23.9901367,1.71428571 C24.5479004,1.71428571 25,1.33051515 25,0.857142857 C25,0.383770567 24.5479004,0 23.9901367,0 Z" id="Path"></path>
                <path d="M23.9901367,16.2857143 L1.00986328,16.2857143 C0.452148438,16.2857143 0,16.6694434 0,17.1428571 C0,17.6162709 0.452148438,18 1.00986328,18 L23.9901367,18 C24.5479004,18 25,17.6162709 25,17.1428571 C25,16.6694434 24.5479004,16.2857143 23.9901367,16.2857143 Z" id="Path"></path>
            </g>
        </g>
    </g>
</svg>