<svg width="60" height="59" xmlns="http://www.w3.org/2000/svg">
 <!-- Generator: Sketch 64 (93537) - https://sketch.com -->

 <title>noun_House loan_2134400</title>
 <desc>Created with Sketch.</desc>
 <g>
  <title>background</title>
  <rect fill="none" id="canvas_background" height="402" width="582" y="-1" x="-1"/>
 </g>
 <g>
  <title>Layer 1</title>
  <g stroke="null" id="Group">
   <path stroke="#f8e71c" fill="#f8e71c" id="Shape" d="m59.326608,15.874152l-7.832498,-4.191039l0,-10.343839c0,-0.535017 -0.360118,-0.891703 -0.900276,-0.891703l-8.732787,0c-0.540171,0 -0.900276,0.356686 -0.900276,0.891703l0,4.726068l-10.353299,-5.5286c-0.270092,-0.178343 -0.630197,-0.178343 -0.810263,0l-28.899188,15.33741c-0.360118,0.178343 -0.540171,0.624189 -0.450145,1.070059c0.090026,0.356674 0.450145,0.71336 0.900289,0.71336l4.141328,0l0,22.292742c-3.060986,1.605076 -5.041617,4.815239 -5.041617,8.292906c0,5.171914 4.32138,9.452124 9.543036,9.452124c4.141314,0 7.832498,-2.675122 9.092892,-6.509475c7.832498,0 27.458741,0 34.931107,0c0.540184,0 0.900289,-0.356686 0.900289,-0.891715l0,-32.725753l4.141314,0c0,0 0,0 0,0c0.540171,0 0.900289,-0.356686 0.900289,-0.891703c-0.090026,-0.356686 -0.360118,-0.713372 -0.630197,-0.802544zm-16.565271,-13.643163l6.932208,0l0,8.471249c-0.09004,-0.089172 -7.382353,-3.923524 -6.932208,-3.656009l0,-4.815239zm-32.770423,53.502592c-4.231341,0 -7.742458,-3.477666 -7.742458,-7.668693c0,-4.101879 3.331065,-7.668717 7.742458,-7.668717c5.041604,0 8.732787,4.726068 7.472379,9.452124c-0.810263,3.477678 -3.871222,5.885286 -7.472379,5.885286zm19.176112,-26.216267l0,4.726056l-7.742471,0l0,-4.726056l7.742471,0zm-13.324246,11.146371c-1.170381,-0.891703 -2.700854,-1.515904 -3.961262,-1.783419l0,-2.942649l7.742458,0l0,4.726068l-3.781196,0zm5.581774,-4.726068l7.742471,0l0,4.726068l-7.742471,0l0,-4.726068l0,0zm-1.800578,-1.783407l-7.742458,0l0,-4.726068l7.742458,0l0,4.726068zm16.565271,15.069895l0,-13.999849l10.263273,0l0,13.999849l-10.263273,0zm16.83535,0l-4.861538,0l0,-14.891564c0,-0.535017 -0.360118,-0.891703 -0.900289,-0.891703l-11.973812,0c-0.540171,0 -0.900276,0.356686 -0.900276,0.891703l0,14.891564l-14.944758,0c0.270092,-2.318448 -0.360118,-4.815239 -1.890591,-6.776989c3.69117,0 6.572077,0 12.423943,0c0.540171,0 0.900289,-0.356686 0.900289,-0.891727l0,-12.92979c0,-0.535017 -0.360118,-0.891703 -0.900289,-0.891703c-6.482064,0 -11.883786,0 -19.086073,0c-0.540171,0 -0.900289,0.356686 -0.900289,0.891703l0,10.076325c0,0 -0.090026,0 -0.090026,0c-0.900289,0 -2.070657,0.178343 -2.700854,0.356686l0,-21.490211l45.824564,0l0,31.655707zm-48.075287,-33.439126l25.208018,-13.464819c10.983496,5.885286 14.674666,7.847048 25.208018,13.464819c-7.922524,0 -44.654196,0 -50.416036,0z"/>
   <path stroke="#f8e71c" fill="#f8e71c" id="Shape" d="m30.15733,5.619487c-2.160683,0 -3.961261,1.783425 -3.961261,3.923525c0,2.1401 1.800578,3.923525 3.961261,3.923525c2.160683,0 3.961261,-1.783425 3.961261,-3.923525c0,-2.1401 -1.800578,-3.923525 -3.961261,-3.923525zm0,6.063625c-1.170373,0 -2.160683,-0.980876 -2.160683,-2.1401c0,-1.159224 0.99031,-2.1401 2.160683,-2.1401c1.170373,0 2.160683,0.980876 2.160683,2.1401c0,1.159224 -0.99031,2.1401 -2.160683,2.1401z"/>
   <path stroke="#f8e71c" fill="#f8e71c" id="Path" d="m37.719736,40.128664c-0.540178,0 -0.900284,0.356685 -0.900284,0.891708l0,2.229279c0,0.535023 0.360105,0.891708 0.900284,0.891708c0.540168,0 0.900284,-0.356685 0.900284,-0.891708l0,-2.229279c0,-0.445854 -0.360116,-0.891708 -0.900284,-0.891708z"/>
   <path stroke="#f8e71c" fill="#f8e71c" id="Shape" d="m10.621114,47.173165l0,0l0,-2.585954c0.720231,0.089169 1.350436,0.356685 1.98063,0.802539l0.900294,-1.248393c-0.900294,-0.624201 -1.890604,-0.980886 -2.880924,-1.070055l0,-0.71337l-0.900284,0l0,0.71337c-1.710541,0.089169 -3.060967,1.070055 -3.060967,2.764301c0,1.783425 1.260399,2.407616 3.060967,2.764301l0,2.675133c-0.900284,-0.089169 -1.710541,-0.445854 -2.520799,-1.159224l-0.99032,1.248393c0.99032,0.891708 2.160693,1.42674 3.421093,1.515909l0,0.980876l0.900284,0l0,-0.980876c1.800578,-0.089169 3.151003,-1.070055 3.151003,-2.85347c0.090026,-1.783425 -1.260399,-2.407616 -3.060977,-2.85348zm-0.99031,-0.267506c-0.810257,-0.267516 -1.350426,-0.535032 -1.350426,-1.248393c0,-0.71337 0.630195,-1.070055 1.350426,-1.159224l0,2.407616zm0.900284,4.458548l0,-2.496785c0.810257,0.267506 1.440462,0.535023 1.440462,1.337561c0.090026,0.71337 -0.630205,1.070055 -1.440462,1.159224z"/>
  </g>
 </g>
</svg>