<svg id="Capa_1" enable-background="new 0 0 511.919 511.919" height="512" viewBox="0 0 511.919 511.919" width="512" xmlns="http://www.w3.org/2000/svg"><g><path d="m87.062 146.999c-.543 3.811.431 7.604 2.741 10.683l10.914 14.543c2.828 3.767 7.159 5.753 11.542 5.753 3.01 0 6.045-.938 8.632-2.879l6.353-4.768v165.152h-10.606c-4.143 0-7.5 3.357-7.5 7.5s3.357 7.5 7.5 7.5h278.416c4.143 0 7.5-3.357 7.5-7.5s-3.357-7.5-7.5-7.5h-8.376v-32.79c0-4.143-3.357-7.5-7.5-7.5s-7.5 3.357-7.5 7.5v32.79h-70.814v-22.971c0-24.983-20.326-45.31-45.31-45.31s-45.31 20.326-45.31 45.31v22.971h-68v-176.41l114.716-86.096 114.717 86.096v111.658c0 4.143 3.357 7.5 7.5 7.5s7.5-3.357 7.5-7.5v-100.4l6.352 4.767v.001c6.354 4.768 15.404 3.479 20.174-2.875l10.915-14.542c4.769-6.354 3.479-15.404-2.876-20.174l-150.176-112.709c-8.307-6.232-19.906-6.233-28.213.001l-150.176 112.708c-3.077 2.31-5.072 5.681-5.615 9.491zm138.181 165.514c0-16.713 13.597-30.31 30.31-30.31s30.31 13.597 30.31 30.31v22.971h-60.619v-22.971zm176.789-149.411-.004-.004c.001.001.002.002.004.004zm-150.175-126.305c3.004-2.255 7.201-2.256 10.205 0l149.704 112.353-10.205 13.597-140.099-105.145c-1.334-1.001-2.918-1.502-4.502-1.502s-3.168.501-4.502 1.502l-140.1 105.146-10.205-13.597z"/><path d="m175.578 219.369c-4.143 0-7.5 3.357-7.5 7.5v19.859c0 7.36 5.987 13.349 13.348 13.349h24.819c7.36 0 13.349-5.988 13.349-13.349v-63.55c0-7.36-5.988-13.349-13.349-13.349h-24.819c-7.36 0-13.348 5.988-13.348 13.349v11.729c0 4.143 3.357 7.5 7.5 7.5s7.5-3.357 7.5-7.5v-10.077h21.516v60.247h-21.516v-18.208c0-4.142-3.357-7.5-7.5-7.5z"/><path d="m304.86 169.83c-7.36 0-13.349 5.988-13.349 13.349v63.55c0 7.36 5.988 13.349 13.349 13.349h24.819c7.36 0 13.348-5.988 13.348-13.349v-63.55c0-7.36-5.987-13.349-13.348-13.349zm23.167 75.247h-21.516v-60.247h21.516z"/><path d="m500.285 199.04h-91.108c-4.143 0-7.5 3.357-7.5 7.5s3.357 7.5 7.5 7.5h87.742v271.394h-399.06c-4.143 0-7.5 3.357-7.5 7.5s3.357 7.5 7.5 7.5h402.426c6.415 0 11.634-5.219 11.634-11.634v-278.125c0-6.415-5.219-11.635-11.634-11.635z"/><path d="m65.897 485.434h-43.42c-4.123 0-7.477-3.354-7.477-7.478v-256.438c0-4.123 3.354-7.478 7.478-7.478h82.266c4.143 0 7.5-3.357 7.5-7.5s-3.357-7.5-7.5-7.5h-82.266c-12.395 0-22.478 10.083-22.478 22.478v256.438c0 12.395 10.083 22.478 22.477 22.478h43.421c4.143 0 7.5-3.357 7.5-7.5s-3.358-7.5-7.501-7.5z"/><path d="m321.468 370.699c-9.143 28.597-35.469 47.81-65.509 47.81-30.039 0-56.364-19.213-65.508-47.81-1.262-3.946-5.482-6.123-9.428-4.859-3.945 1.262-6.121 5.482-4.859 9.428 11.139 34.836 43.205 58.241 79.795 58.241 36.591 0 68.658-23.405 79.796-58.241 1.262-3.945-.914-8.167-4.859-9.428-3.949-1.264-8.167.914-9.428 4.859z"/><path d="m438.154 462.934c0-20.013 16.282-36.362 36.296-36.446 4.13-.018 7.469-3.37 7.469-7.5v-138.503c0-4.13-3.339-7.482-7.469-7.5-20.014-.083-36.296-16.433-36.296-36.445 0-4.143-3.357-7.5-7.5-7.5h-21.478c-4.143 0-7.5 3.357-7.5 7.5s3.357 7.5 7.5 7.5h14.524c3.28 22.283 20.943 40.012 43.218 43.371v124.65c-22.274 3.36-39.938 21.089-43.218 43.372h-335.294c-3.283-22.378-21.027-40.121-43.406-43.405v-124.583c22.379-3.283 40.123-21.026 43.406-43.405h16.337c4.143 0 7.5-3.357 7.5-7.5s-3.357-7.5-7.5-7.5h-23.292c-4.143 0-7.5 3.357-7.5 7.5 0 20.099-16.352 36.45-36.451 36.45-4.143 0-7.5 3.357-7.5 7.5v138.493c0 4.143 3.357 7.5 7.5 7.5 20.1 0 36.451 16.352 36.451 36.45 0 4.143 3.357 7.5 7.5 7.5h349.203c4.143.001 7.5-3.357 7.5-7.499z"/><path d="m35.354 84.09c-4.143 0-7.5 3.357-7.5 7.5s3.357 7.5 7.5 7.5h23.044v6.529c0 4.143 3.357 7.5 7.5 7.5s7.5-3.357 7.5-7.5v-6.529h17.092c7.417 0 13.451-6.034 13.451-13.45v-18.177c0-7.417-6.034-13.451-13.451-13.451h-47.636v-13.962h53.588c4.143 0 7.5-3.357 7.5-7.5s-3.357-7.5-7.5-7.5h-22.689v-6.064c0-4.143-3.357-7.5-7.5-7.5s-7.5 3.357-7.5 7.5v6.064h-17.448c-7.417 0-13.451 6.034-13.451 13.451v17.06c0 7.417 6.034 13.451 13.451 13.451h47.637v15.078z"/><path d="m452.955 148.725c-4.143 0-7.5 3.357-7.5 7.5s3.357 7.5 7.5 7.5h13.044v6.528c0 4.143 3.357 7.5 7.5 7.5s7.5-3.357 7.5-7.5v-6.528h7.093c7.417 0 13.451-6.034 13.451-13.451v-18.177c0-7.417-6.034-13.451-13.451-13.451h-27.637v-13.962h33.588c4.143 0 7.5-3.357 7.5-7.5s-3.357-7.5-7.5-7.5h-12.688v-6.064c0-4.143-3.357-7.5-7.5-7.5s-7.5 3.357-7.5 7.5v6.064h-7.448c-7.417 0-13.451 6.034-13.451 13.451v17.06c0 7.417 6.034 13.451 13.451 13.451h27.637v15.079z"/></g></svg>