<?xml version="1.0" encoding="UTF-8"?>
<svg width="30px" height="30px" viewBox="0 0 30 30" version="1.1" xmlns="http://www.w3.org/2000/svg" xmlns:xlink="http://www.w3.org/1999/xlink">
    <title>Go/ No-Go Details_1</title>
    <g id="Page-1" stroke="none" stroke-width="1" fill="none" fill-rule="evenodd">
        <g id="Go/-No-Go-Details_1">
            <g id="Group-80-Copy-2">
                <rect id="Rectangle" x="0" y="0" width="30" height="30"></rect>
            </g>
            <g id="Group-263-Copy" transform="translate(3.000000, 1.000000)" fill="#8E8E8E" fill-rule="nonzero">
                <path d="M19.57088,2.1875 L6.00833333,2.1875 L6.00833333,3.0625 L13.0083333,3.0625 L13.0083333,7 C13.0083333,7.116032 13.05444,7.22731333 13.13648,7.30936267 C13.21852,7.39140267 13.3297733,7.4375 13.4457867,7.4375 L17.3833333,7.4375 L17.3833333,14.875 L18.2583333,14.875 L18.2583333,7 C18.2583333,6.99496933 18.2577733,6.99005067 18.2575867,6.98502 C18.2573067,6.97998 18.2572133,6.9755 18.2569333,6.97074 C18.2544133,6.93301467 18.2471333,6.89577467 18.235,6.859944 C18.2336,6.85552 18.2320133,6.85114267 18.2303333,6.84676533 C18.22408,6.82966667 18.2168,6.81296933 18.2084933,6.79678533 C18.20812,6.79606667 18.20784,6.79530133 18.2073733,6.794536 C18.19832,6.77781067 18.1881467,6.76170133 18.17704,6.74630133 C18.17424,6.74241867 18.1715333,6.738648 18.1685467,6.73487733 C18.15688,6.71928133 18.1440933,6.70450667 18.13028,6.69063733 L14.50204,3.0625 L19.1333333,3.0625 L19.1333333,14.875 L20.0083333,14.875 L20.0083333,2.625 C20.0083333,2.508968 19.9622267,2.39768667 19.8801867,2.31563733 C19.7981467,2.23359733 19.6868933,2.1875 19.57088,2.1875 Z M13.8833333,6.5625 L13.8833333,3.68117867 L16.7646267,6.5625 L13.8833333,6.5625 Z" id="Shape"></path>
                <path d="M3.82083333,0.875 C3.47285867,0.875391067 3.139248,1.013796 2.893184,1.25985067 C2.64712933,1.50591467 2.50872533,1.83952533 2.50833333,2.1875 L1.19583333,2.1875 C1.07980133,2.1875 0.96852,2.23359733 0.886470667,2.31563733 C0.804430667,2.39768667 0.758333333,2.508968 0.758333333,2.625 L0.758333333,24.9375467 C0.758333333,25.05356 0.804430667,25.1648133 0.886470667,25.2468533 C0.96852,25.3288933 1.07980133,25.375 1.19583333,25.375 L12.1333333,25.375 L12.1333333,24.5 L1.63333333,24.5 L1.63333333,3.0625 L2.50833333,3.0625 L2.50833333,9.625 C2.50833333,9.74101333 2.55443067,9.85226667 2.63647067,9.9344 C2.71852,10.01644 2.82980133,10.0624533 2.94583333,10.0624533 L8.19578667,10.0624533 C8.31189333,10.0624533 8.42314667,10.01644 8.50518667,9.9344 C8.58722667,9.85226667 8.63333333,9.74101333 8.63333333,9.625 L8.63333333,4.8125 C8.63333333,4.696468 8.58722667,4.58518667 8.50518667,4.50313733 C8.42314667,4.42109733 8.31189333,4.375 8.19578667,4.375 L5.13333333,4.375 L5.13333333,2.1875 C5.13294133,1.83952533 4.99453733,1.50591467 4.74848267,1.25985067 C4.50241867,1.013796 4.168808,0.875391067 3.82083333,0.875 Z M3.82083333,1.75 C3.936828,1.75013067 4.04802533,1.79626533 4.13004667,1.87828667 C4.212068,1.960308 4.25820267,2.07150533 4.25833333,2.1875 L3.38333333,2.1875 C3.383464,2.07150533 3.42959867,1.960308 3.51162,1.87828667 C3.59364133,1.79626533 3.70483867,1.75013067 3.82083333,1.75 Z M4.25833333,3.0625 L4.25833333,4.375 L3.38333333,4.375 L3.38333333,3.0625 L4.25833333,3.0625 Z M5.13333333,7 C5.13333333,6.91347067 5.15899067,6.82888267 5.20706667,6.75694133 C5.25514267,6.68499067 5.32346267,6.628916 5.403412,6.59580133 C5.483352,6.56268667 5.57131867,6.55402533 5.65618667,6.57090933 C5.74105467,6.587784 5.81900667,6.62945733 5.880196,6.69063733 C5.941376,6.75182667 5.98304933,6.82977867 5.999924,6.91464667 C6.016808,6.99951467 6.00814667,7.08748133 5.975032,7.16742133 C5.94191733,7.24737067 5.88584267,7.31569067 5.813892,7.36376667 C5.74195067,7.41184267 5.65736267,7.4375 5.57083333,7.4375 C5.45483867,7.43736933 5.34364133,7.39123467 5.26162,7.30921333 C5.17959867,7.227192 5.133464,7.11599467 5.13333333,7 Z M4.25833333,5.25 C4.25833333,5.366032 4.212236,5.47731333 4.130196,5.55936267 C4.04814667,5.64140267 3.93686533,5.6875 3.82083333,5.6875 C3.70480133,5.6875 3.59352,5.64140267 3.51147067,5.55936267 C3.42943067,5.47731333 3.38333333,5.366032 3.38333333,5.25 L4.25833333,5.25 Z M3.38333333,6.48724533 C3.545864,6.54484133 3.718176,6.56978933 3.89036667,6.56066133 C4.06256667,6.55153333 4.23126667,6.50849733 4.38679733,6.434036 C4.28319733,6.65041067 4.240992,6.89108 4.264792,7.12979867 C4.288592,7.368508 4.37748267,7.59611067 4.52176667,7.78777067 C4.304188,7.95056267 4.12755467,8.161832 4.00588533,8.40480667 C3.884216,8.647772 3.820852,8.91576933 3.82083333,9.1875 L3.38333333,9.1875 L3.38333333,6.48724533 Z M4.69583333,9.1875 C4.69583333,8.955436 4.78801867,8.73287333 4.95211733,8.568784 C5.11620667,8.40468533 5.33876933,8.3125 5.57083333,8.3125 C5.80289733,8.3125 6.02546,8.40468533 6.18954933,8.568784 C6.353648,8.73287333 6.44583333,8.955436 6.44583333,9.1875 L4.69583333,9.1875 Z M7.75833333,5.25 L7.75833333,9.1875 L7.32083333,9.1875 C7.32081467,8.91576933 7.25745067,8.647772 7.13578133,8.40480667 C7.014112,8.161832 6.83747867,7.95056267 6.6199,7.78777067 C6.79637467,7.55298133 6.888952,7.26576667 6.88282933,6.97212133 C6.87669733,6.67846667 6.77222,6.395368 6.586104,6.168148 C6.39999733,5.94091867 6.14302267,5.78271867 5.85634,5.71886 C5.569648,5.65501067 5.269824,5.68919867 5.00486933,5.815964 C5.08965333,5.63934933 5.13355733,5.44590667 5.13333333,5.25 L7.75833333,5.25 Z" id="Shape"></path>
                <polygon id="Path" points="9.50833333 4.8125 12.1333333 4.8125 12.1333333 5.6875 9.50833333 5.6875"></polygon>
                <polygon id="Path" points="9.50833333 7 12.1333333 7 12.1333333 7.875 9.50833333 7.875"></polygon>
                <polygon id="Path" points="9.50833333 9.1875 16.07088 9.1875 16.07088 10.0624533 9.50833333 10.0624533"></polygon>
                <polygon id="Path" points="2.94583333 11.375 16.07088 11.375 16.07088 12.25 2.94583333 12.25"></polygon>
                <polygon id="Path" points="2.94583333 13.5624533 5.57083333 13.5624533 5.57083333 14.4375467 2.94583333 14.4375467"></polygon>
                <polygon id="Path" points="2.94583333 15.75 13.4457867 15.75 13.4457867 16.625 2.94583333 16.625"></polygon>
                <polygon id="Path" points="2.94583333 17.9375467 11.6957867 17.9375467 11.6957867 18.8124533 2.94583333 18.8124533"></polygon>
                <polygon id="Path" points="2.94583333 20.125 7.75833333 20.125 7.75833333 21 2.94583333 21"></polygon>
                <polygon id="Path" points="8.63333333 20.125 11.2583333 20.125 11.2583333 21 8.63333333 21"></polygon>
                <polygon id="Path" points="2.94583333 22.3124533 11.2583333 22.3124533 11.2583333 23.1875467 2.94583333 23.1875467"></polygon>
                <polygon id="Path" points="6.44583333 13.5624533 16.07088 13.5624533 16.07088 14.4375467 6.44583333 14.4375467"></polygon>
                <path d="M23.7769467,20.0783333 L22.56408,20.0783333 C22.49352,19.8596533 22.4055067,19.64704 22.3009733,19.4424533 L23.1583333,18.5850933 C23.1892267,18.5542 23.2137733,18.5174267 23.23048,18.4770133 C23.24728,18.4366933 23.2558667,18.3933867 23.2558667,18.3496133 C23.2558667,18.3059333 23.24728,18.2626267 23.23048,18.2222133 C23.2137733,18.1818 23.1892267,18.14512 23.1583333,18.1142267 L21.74592,16.7015333 C21.7150267,16.6705467 21.6783467,16.646 21.6379333,16.6292933 C21.59752,16.6125867 21.5542133,16.604 21.5105333,16.604 C21.46676,16.604 21.4234533,16.6125867 21.3831333,16.6292933 C21.34272,16.646 21.3059467,16.6705467 21.2750533,16.7015333 L20.4176933,17.5588 C20.2130133,17.4542667 20.0003067,17.3663467 19.7815333,17.2957867 L19.7815333,16.08292 C19.7815333,15.9946267 19.74644,15.9099733 19.684,15.8475333 C19.62156,15.7850933 19.5369067,15.75 19.4486133,15.75 L17.4509067,15.75 C17.3626133,15.75 17.2778667,15.7850933 17.2154267,15.8475333 C17.1529867,15.9099733 17.1178933,15.9946267 17.1178933,16.08292 L17.1178933,17.2957867 C16.8993067,17.3663467 16.6866,17.45436 16.4820133,17.5588933 L15.6246533,16.7015333 C15.59376,16.67064 15.55708,16.6460933 15.5166667,16.6293867 C15.4762533,16.61268 15.4329467,16.6040933 15.3891733,16.6040933 C15.3454933,16.6040933 15.3021867,16.61268 15.2617733,16.6293867 C15.22136,16.6460933 15.18468,16.67064 15.1537867,16.7015333 L13.7410933,18.1139467 C13.7101067,18.14484 13.6856533,18.1816133 13.6688533,18.2219333 C13.6521467,18.2623467 13.64356,18.3056533 13.64356,18.3494267 C13.64356,18.3931067 13.6521467,18.4364133 13.6688533,18.4768267 C13.6856533,18.51724 13.7101067,18.55392 13.7410933,18.5848133 L14.5984533,19.4421733 C14.4938267,19.6468533 14.4059067,19.85956 14.3353467,20.0783333 L13.1225733,20.0783333 C13.0341867,20.0783333 12.9495333,20.1134267 12.8870933,20.1758667 C12.8246533,20.2383067 12.78956,20.32296 12.78956,20.4113467 L12.78956,22.4090533 C12.78956,22.4973467 12.8246533,22.582 12.8870933,22.64444 C12.9495333,22.70688 13.0341867,22.7419733 13.1225733,22.7419733 L14.3353467,22.7419733 C14.4059067,22.9606533 14.49392,23.1732667 14.5985467,23.3778533 L13.7411867,24.2352133 C13.7102,24.2662 13.6857467,24.30288 13.6689467,24.3432933 C13.65224,24.3836133 13.6436533,24.42692 13.6436533,24.4706933 C13.6436533,24.5143733 13.65224,24.55768 13.6689467,24.5980933 C13.6857467,24.6385067 13.7102,24.6751867 13.7411867,24.70608 L15.1535067,26.1188667 C15.1844933,26.14976 15.2211733,26.1743067 15.2615867,26.1910133 C15.3019067,26.20772 15.3452133,26.2163067 15.3889867,26.2163067 C15.4326667,26.2163067 15.4759733,26.20772 15.5163867,26.1910133 C15.5568,26.1743067 15.59348,26.14976 15.6243733,26.1188667 L16.4817333,25.2615067 C16.6864133,25.36604 16.8992133,25.45396 17.1178933,25.52452 L17.1178933,26.7373867 C17.1178933,26.82568 17.1529867,26.9103333 17.2154267,26.9727733 C17.2778667,27.0352133 17.3626133,27.0703067 17.4509067,27.0703067 L19.4486133,27.0703067 C19.5369067,27.0703067 19.62156,27.0352133 19.684,26.9727733 C19.74644,26.9103333 19.7815333,26.82568 19.7815333,26.7373867 L19.7815333,25.52452 C20.0002133,25.45396 20.2128267,25.3659467 20.4175067,25.26132 L21.2748667,26.11868 C21.30576,26.1495733 21.34244,26.17412 21.3828533,26.19092 C21.4232667,26.2076267 21.4665733,26.2162133 21.5102533,26.2162133 C21.5540267,26.2162133 21.59724,26.2076267 21.6376533,26.19092 C21.6780667,26.17412 21.7147467,26.1495733 21.7457333,26.11868 L23.1584267,24.70636 C23.18932,24.6754667 23.2138667,24.6387867 23.2305733,24.5983733 C23.24728,24.55796 23.25596,24.5146533 23.25596,24.4709733 C23.25596,24.4272 23.24728,24.3838933 23.2305733,24.34348 C23.2138667,24.3030667 23.18932,24.2663867 23.1584267,24.2354933 L22.3010667,23.3781333 C22.4056,23.1734533 22.4936133,22.9607467 22.56408,22.7419733 L23.7769467,22.7419733 C23.86524,22.7419733 23.9498933,22.70688 24.0123333,22.64444 C24.0747733,22.582 24.1098667,22.4973467 24.1098667,22.4090533 L24.1098667,20.4113467 C24.1098667,20.32296 24.0747733,20.2383067 24.0123333,20.1758667 C23.9498933,20.1134267 23.86524,20.0783333 23.7769467,20.0783333 Z M23.4440267,22.07604 L22.3142267,22.07604 C22.2404,22.07604 22.1686267,22.1005867 22.1102933,22.14576 C22.05196,22.1909333 22.01024,22.2543067 21.99176,22.3258 C21.9067333,22.6562933 21.7755067,22.9732533 21.6020933,23.2672533 C21.5645733,23.3309067 21.5491733,23.4051067 21.5585067,23.4783733 C21.5677467,23.55164 21.60116,23.6197733 21.6534267,23.67204 L22.45208,24.4706933 L21.5103467,25.4124267 L20.7116933,24.61368 C20.6594267,24.5615067 20.5913867,24.5280933 20.51812,24.5188533 C20.4448533,24.50952 20.37056,24.5248267 20.3069067,24.56244 C20.0129067,24.7358533 19.6959467,24.86708 19.36536,24.9522 C19.2938667,24.97068 19.2305867,25.0123067 19.18532,25.0707333 C19.1401467,25.1290667 19.1156,25.20084 19.1156,25.2746667 L19.1156,26.4043733 L17.7838267,26.4043733 L17.7838267,25.2746667 C17.7838267,25.20084 17.75928,25.1290667 17.7141067,25.0707333 C17.6689333,25.0123067 17.60556,24.97068 17.53416,24.9522 C17.2035733,24.86708 16.8866133,24.7359467 16.5926133,24.5625333 C16.5290533,24.52492 16.45476,24.5096133 16.3814933,24.5188533 C16.3082267,24.5281867 16.2400933,24.5616 16.18792,24.6137733 L15.3891733,25.41252 L14.44744,24.4707867 L15.2461867,23.6721333 C15.29836,23.6198667 15.3317733,23.5517333 15.3411067,23.4784667 C15.3503467,23.4052 15.33504,23.3309067 15.2974267,23.2673467 C15.1240133,22.9733467 14.9927867,22.6563867 14.9076667,22.3258 C14.88928,22.2543067 14.84756,22.1909333 14.7892267,22.14576 C14.7308,22.1005867 14.65912,22.07604 14.5852933,22.07604 L13.4554933,22.07604 L13.4554933,20.7442667 L14.5852933,20.7442667 C14.65912,20.7442667 14.7308,20.71972 14.7892267,20.6745467 C14.84756,20.6293733 14.88928,20.566 14.9076667,20.4945067 C14.9927867,20.1640133 15.12392,19.8470533 15.2973333,19.5530533 C15.3349467,19.4894 15.3502533,19.4152 15.3410133,19.3419333 C15.33168,19.2686667 15.29836,19.2005333 15.2460933,19.1482667 L14.4473467,18.3496133 L15.3891733,17.40788 L16.1878267,18.2066267 C16.24,18.2588 16.3081333,18.2922133 16.3814,18.3014533 C16.4546667,18.3107867 16.52896,18.2953867 16.59252,18.2578667 C16.88652,18.08436 17.20348,17.9532267 17.53416,17.8681067 C17.60556,17.8496267 17.6689333,17.808 17.7141067,17.7495733 C17.75928,17.69124 17.7838267,17.6194667 17.7838267,17.54564 L17.7838267,16.4159333 L19.1156,16.4159333 L19.1156,17.54564 C19.1156,17.6194667 19.1401467,17.69124 19.18532,17.7495733 C19.2305867,17.808 19.2938667,17.8496267 19.36536,17.8681067 C19.6959467,17.9531333 20.0129067,18.08436 20.3068133,18.2577733 C20.3704667,18.2952933 20.44476,18.3106933 20.5180267,18.30136 C20.5912933,18.29212 20.6593333,18.2587067 20.7116,18.2065333 L21.5102533,17.4077867 L22.4519867,18.34952 L21.6533333,19.1481733 C21.6010667,19.20044 21.5676533,19.2685733 21.5584133,19.34184 C21.5491733,19.4151067 21.56448,19.4894 21.602,19.55296 C21.7755067,19.84696 21.9067333,20.16392 21.99176,20.4945067 C22.01024,20.566 22.05196,20.6293733 22.1102933,20.6745467 C22.1686267,20.71972 22.2404,20.7442667 22.3142267,20.7442667 L23.4440267,20.7442667 L23.4440267,22.07604 Z" id="Shape"></path>
                <path d="M18.44976,20.3984667 C18.2496533,20.3984667 18.0540267,20.4577333 17.8876133,20.5689867 C17.7212933,20.6801467 17.5916533,20.83816 17.5150267,21.02296 C17.4384933,21.2078533 17.4184267,21.41132 17.45744,21.6075067 C17.4964533,21.8037867 17.5928667,21.9840133 17.73436,22.1255067 C17.8758533,22.267 18.05608,22.3634133 18.25236,22.4024267 C18.44864,22.44144 18.6520133,22.4214667 18.8369067,22.34484 C19.0218,22.2683067 19.1798133,22.1385733 19.2909733,21.9722533 C19.4021333,21.80584 19.4614933,21.6102133 19.4614933,21.4102 C19.46112,21.14196 19.35444,20.8847333 19.1647867,20.69508 C18.9751333,20.5054267 18.718,20.3987467 18.44976,20.3984667 Z M18.44976,21.7474133 C18.3830267,21.7474133 18.31788,21.7276267 18.2623467,21.6905733 C18.2069067,21.65352 18.1636933,21.60088 18.1382133,21.5391867 C18.11264,21.4775867 18.1060133,21.4098267 18.1189867,21.3444 C18.13196,21.2789733 18.1640667,21.2188667 18.2112933,21.1717333 C18.2584267,21.1245067 18.3185333,21.0924 18.38396,21.0794267 C18.4493867,21.06636 18.5171467,21.07308 18.57884,21.09856 C18.64044,21.1241333 18.69308,21.1673467 18.7301333,21.2227867 C18.7671867,21.2782267 18.7869733,21.3434667 18.7869733,21.4102 C18.78688,21.4996133 18.75132,21.5852933 18.6881333,21.64848 C18.6248533,21.71176 18.5391733,21.74732 18.44976,21.7474133 Z" id="Shape"></path>
                <path d="M18.44976,18.7578533 C17.9251333,18.7578533 17.41236,18.9133467 16.9762133,19.2048267 C16.5399733,19.4962133 16.2000533,19.91052 15.9992933,20.3951067 C15.7985333,20.8797867 15.7459867,21.4130933 15.8483733,21.92764 C15.9506667,22.4420933 16.20332,22.9147333 16.5742267,23.28564 C16.9452267,23.6565467 17.4177733,23.9092 17.93232,24.0114933 C18.4467733,24.11388 18.98008,24.0613333 19.46476,23.8605733 C19.94944,23.6598133 20.3636533,23.3198933 20.65504,22.8837467 C20.94652,22.4475067 21.1021067,21.9347333 21.1021067,21.4102 C21.1012667,20.7069333 20.82164,20.0327867 20.32436,19.5355067 C19.82708,19.03832 19.1529333,18.7586 18.44976,18.7578533 Z M18.44976,23.3994133 C18.0562667,23.3994133 17.6717333,23.2827467 17.3446,23.06416 C17.0174667,22.8455733 16.76248,22.5348667 16.6119333,22.1714267 C16.4613867,21.8078933 16.4219067,21.40796 16.49872,21.0220267 C16.57544,20.6361867 16.7649067,20.2817067 17.0431333,20.0035733 C17.32136,19.7253467 17.6757467,19.53588 18.06168,19.45916 C18.44752,19.3823467 18.8475467,19.4217333 19.2109867,19.57228 C19.57452,19.72292 19.8851333,19.9778133 20.10372,20.3049467 C20.3223067,20.63208 20.4389733,21.0167067 20.4389733,21.4102 C20.4384133,21.9375333 20.2286933,22.4432133 19.8557333,22.8161733 C19.4827733,23.18904 18.9771867,23.3988533 18.44976,23.3994133 Z" id="Shape"></path>
            </g>
        </g>
    </g>
</svg>