<?xml version="1.0" encoding="UTF-8"?>
<svg width="30px" height="32px" viewBox="0 0 30 32" version="1.1" xmlns="http://www.w3.org/2000/svg" xmlns:xlink="http://www.w3.org/1999/xlink">
    <title>Notes</title>
    <g id="Page-1" stroke="none" stroke-width="1" fill="none" fill-rule="evenodd">
        <g id="Notes" transform="translate(0.000000, 0.458005)">
            <g id="Group-88">
                <rect id="Rectangle" fill="#F8F8F8" x="0" y="0.541994972" width="30" height="30"></rect>
                <path d="M27.5867467,3.79871231 L27.1202667,3.79871231 L27.1202667,3.33223231 C27.1202667,3.07458564 26.9113867,2.86575231 26.6537867,2.86575231 L15.45948,2.86575231 L15.45948,1.93296964 L26.6537867,1.93296964 C27.2918133,1.93278297 27.8490133,2.36430031 28.0088,2.98198031 L28.9128267,2.74874031 C28.6467333,1.71893764 27.7174133,0.999617638 26.6537867,1.00000015 L3.332232,1.00000015 C2.04478267,1.00154031 1.00153701,2.04479231 1,3.33223231 L1,14.9929816 L1.93277613,14.9929816 L1.93277613,3.33223231 C1.93277613,2.55949764 2.55930133,1.93296964 3.332232,1.93296964 L14.52652,1.93296964 L14.52652,2.86575231 L3.332232,2.86575231 C3.07458533,2.86575231 2.86574267,3.07458564 2.86574267,3.33223231 L2.86574267,15.9259416 L2.39926267,15.9259416 C1.62652613,15.9259416 1,16.5524883 1,17.325195 L1,20.1237016 C1,20.8966883 1.62652613,21.523235 2.39926267,21.523235 L2.86574267,21.523235 L2.86574267,21.9895283 C2.86574267,22.2471283 3.07458533,22.4560083 3.332232,22.4560083 L14.52652,22.4560083 L14.52652,23.3887816 L3.332232,23.3887816 C2.55930133,23.3887816 1.93277613,22.7624216 1.93277613,21.9895283 L1,21.9895283 C1.00153701,23.2769683 2.04478267,24.320155 3.332232,24.3217416 L26.6537867,24.3217416 C27.9412267,24.320155 28.9844133,23.2769683 28.986,21.9895283 L28.986,19.6574083 L28.0532267,19.6574083 L28.0532267,21.9895283 C28.0532267,22.7624216 27.42668,23.3887816 26.6537867,23.3887816 L15.45948,23.3887816 L15.45948,22.4560083 L26.6537867,22.4560083 C26.9113867,22.4560083 27.1202667,22.2471283 27.1202667,21.9895283 L27.1202667,18.7244483 L27.5867467,18.7244483 C28.3594533,18.7244483 28.986,18.097995 28.986,17.325195 L28.986,14.5265016 C28.9846,14.1812616 28.85496,13.848715 28.6220933,13.5937283 C28.85496,13.3387416 28.9846,13.006195 28.986,12.660955 L28.986,9.86226164 C28.9846,9.51702164 28.85496,9.18438164 28.6220933,8.92948831 C28.85496,8.67431497 28.9846,8.34195497 28.986,7.99650031 L28.986,5.19797497 C28.986,4.42505364 28.3594533,3.79871231 27.5867467,3.79871231 Z M27.5867467,4.73149497 C27.8443467,4.73149497 28.0532267,4.94033764 28.0532267,5.19797497 L28.0532267,7.99650031 C28.0532267,8.25412831 27.8443467,8.46300831 27.5867467,8.46300831 L27.1202667,8.46300831 L27.1202667,4.73149497 L27.5867467,4.73149497 Z M28.0532267,9.86226164 L28.0532267,12.660955 C28.0532267,12.9183683 27.8443467,13.1272483 27.5867467,13.1272483 L27.1202667,13.1272483 L27.1202667,9.39578164 L27.5867467,9.39578164 C27.8443467,9.39578164 28.0532267,9.60456831 28.0532267,9.86226164 Z M2.39926267,20.5901816 C2.141616,20.5901816 1.93277613,20.381395 1.93277613,20.1237016 L1.93277613,17.325195 C1.93277613,17.067595 2.141616,16.858715 2.39926267,16.858715 L2.86574267,16.858715 L2.86574267,20.5901816 L2.39926267,20.5901816 Z M3.798712,21.056755 L3.798712,3.79871231 L14.52652,3.79871231 L14.52652,5.19797497 L13.5937467,5.19797497 L13.5937467,6.13075764 L14.52652,6.13075764 L14.52652,7.99650031 L13.5937467,7.99650031 L13.5937467,8.92930164 L14.52652,8.92930164 L14.52652,10.795035 L13.5937467,10.795035 L13.5937467,11.727995 L14.52652,11.727995 L14.52652,13.5935416 L13.5937467,13.5935416 L13.5937467,14.5265016 L14.52652,14.5265016 L14.52652,16.392235 L13.5937467,16.392235 L13.5937467,17.3250083 L14.52652,17.3250083 L14.52652,19.1907416 L13.5937467,19.1907416 L13.5937467,20.123515 L14.52652,20.123515 L14.52652,21.5230483 L3.798712,21.5230483 L3.798712,21.056755 Z M15.45948,20.1237016 L16.3922533,20.1237016 L16.3922533,19.1909283 L15.45948,19.1909283 L15.45948,17.325195 L16.3922533,17.325195 L16.3922533,16.3924216 L15.45948,16.3924216 L15.45948,14.5266883 L16.3922533,14.5266883 L16.3922533,13.593915 L15.45948,13.593915 L15.45948,11.7281816 L16.3922533,11.7281816 L16.3922533,10.7952216 L15.45948,10.7952216 L15.45948,8.92948831 L16.3922533,8.92948831 L16.3922533,7.99668697 L15.45948,7.99668697 L15.45948,6.13075764 L16.3922533,6.13075764 L16.3922533,5.19797497 L15.45948,5.19797497 L15.45948,3.79871231 L26.1873067,3.79871231 L26.1873067,17.791675 L22.9222267,17.791675 C22.6648133,17.791675 22.4559333,18.000555 22.4559333,18.258155 L22.4559333,21.523235 L15.45948,21.523235 L15.45948,20.1237016 Z M25.5279067,18.7244483 L23.3887067,20.8636483 L23.3887067,18.7244483 L25.5279067,18.7244483 Z M24.0482933,21.523235 L26.1873067,19.384035 L26.1873067,21.523235 L24.0482933,21.523235 Z M28.0532267,17.325195 C28.0532267,17.5828883 27.8443467,17.791675 27.5867467,17.791675 L27.1202667,17.791675 L27.1202667,14.0602083 L27.5867467,14.0602083 C27.8443467,14.0602083 28.0532267,14.2690883 28.0532267,14.5265016 L28.0532267,17.325195 Z" id="Shape" fill="#8E8E8E" fill-rule="nonzero"></path>
                <polygon id="Path" fill="#8E8E8E" fill-rule="nonzero" points="17.7916933 7.53014164 24.78796 7.53014164 24.78796 8.46291497 17.7916933 8.46291497"></polygon>
                <polygon id="Path" fill="#8E8E8E" fill-rule="nonzero" points="17.7916933 5.19772297 24.78796 5.19772297 24.78796 6.13049631 17.7916933 6.13049631"></polygon>
                <polygon id="Path" fill="#8E8E8E" fill-rule="nonzero" points="17.7916933 9.86170164 24.78796 9.86170164 24.78796 10.7943816 17.7916933 10.7943816"></polygon>
                <polygon id="Path" fill="#8E8E8E" fill-rule="nonzero" points="17.7916933 12.1941016 24.78796 12.1941016 24.78796 13.126875 17.7916933 13.126875"></polygon>
                <polygon id="Path" fill="#8E8E8E" fill-rule="nonzero" points="17.7916933 14.5265016 24.78796 14.5265016 24.78796 15.4594616 17.7916933 15.4594616"></polygon>
                <polygon id="Path" fill="#8E8E8E" fill-rule="nonzero" points="17.7916933 16.858435 21.05668 16.858435 21.05668 17.791395 17.7916933 17.791395"></polygon>
                <polygon id="Path" fill="#8E8E8E" fill-rule="nonzero" points="17.7916933 19.1909283 21.05668 19.1909283 21.05668 20.1237016 17.7916933 20.1237016"></polygon>
                <polygon id="Path" fill="#8E8E8E" fill-rule="nonzero" points="5.19794667 7.53014164 12.1942133 7.53014164 12.1942133 8.46291497 5.19794667 8.46291497"></polygon>
                <polygon id="Path" fill="#8E8E8E" fill-rule="nonzero" points="5.19794667 5.19772297 12.1942133 5.19772297 12.1942133 6.13049631 5.19794667 6.13049631"></polygon>
                <polygon id="Path" fill="#8E8E8E" fill-rule="nonzero" points="5.19794667 9.86170164 12.1942133 9.86170164 12.1942133 10.7943816 5.19794667 10.7943816"></polygon>
                <polygon id="Path" fill="#8E8E8E" fill-rule="nonzero" points="5.19794667 12.1941016 12.1942133 12.1941016 12.1942133 13.126875 5.19794667 13.126875"></polygon>
                <polygon id="Path" fill="#8E8E8E" fill-rule="nonzero" points="5.19794667 14.5265016 12.1942133 14.5265016 12.1942133 15.4594616 5.19794667 15.4594616"></polygon>
                <polygon id="Path" fill="#8E8E8E" fill-rule="nonzero" points="5.19794667 16.858435 12.1942133 16.858435 12.1942133 17.791395 5.19794667 17.791395"></polygon>
                <polygon id="Path" fill="#8E8E8E" fill-rule="nonzero" points="5.19794667 19.1909283 12.1942133 19.1909283 12.1942133 20.1237016 5.19794667 20.1237016"></polygon>
            </g>
            <g id="Group-274" transform="translate(1.000000, 0.541995)"></g>
        </g>
    </g>
</svg>