<svg width="62" height="62" xmlns="http://www.w3.org/2000/svg">
 <!-- Generator: Sketch 64 (93537) - https://sketch.com -->

 <title>noun_personal loan_1147140</title>
 <desc>Created with Sketch.</desc>
 <g>
  <title>background</title>
  <rect fill="none" id="canvas_background" height="402" width="582" y="-1" x="-1"/>
 </g>
 <g>
  <title>Layer 1</title>
  <path fill="#f8e71c" stroke-width="0.5" stroke="#f8e71c" id="Shape" d="m47.737,35.037l-0.542,-1.656c2.86,-1.923 4.782,-5.372 4.803,-9.317c0.782,-1.836 0.63,-4.582 -0.055,-6.509c-1.258,-3.539 -4.808,-6.214 -8.833,-6.659c-0.032,-0.003 -0.073,-0.007 -0.109,-0.011l0,-3.885l0,-5c0,-0.552 -0.448,-1 -1,-1l-5,0l-10.001,0l-5,0c-0.552,0 -1,0.448 -1,1l0,5l0,3.444l-0.615,-0.615l-3.536,-3.536c-0.391,-0.391 -1.023,-0.391 -1.414,0l-3.536,3.536l-7.071,7.071l-3.536,3.536c-0.391,0.391 -0.391,1.023 0,1.414l3.536,3.536l2.616,2.614l-0.444,0l-5,0c-0.552,0 -1,0.448 -1,1l0,5l0,10l0,5c0,0.552 0.448,1 1,1l5,0l16,0l0,10c0,0.552 0.448,1 1,1l36,0c0.552,0 1,-0.448 1,-1l0,-10c0,-8.284 -5.654,-14.576 -13.263,-14.963zm-1.737,3.044l0,2.442l-2.035,-0.814l2.035,-1.628zm-8,-0.047l1.218,0.991l0.833,0.678l-2.051,0.82l0,-2.489zm7.403,-3.696l0.431,1.314l-3.829,3.062l-3.837,-3.123l0.126,-0.376l0.295,-0.88c0.05,0.02 0.102,0.034 0.152,0.053c0.175,0.067 0.352,0.129 0.531,0.185c0.129,0.04 0.258,0.076 0.388,0.11c0.165,0.044 0.33,0.087 0.498,0.121c0.149,0.031 0.299,0.053 0.448,0.076c0.003,0.001 0.005,0.002 0.007,0.003c0.001,0 0.001,0 0.002,0c0.005,0.001 0.011,0.002 0.017,0.003c0.015,0.002 0.109,0.018 0.124,0.02c0.009,0.001 0.016,0.001 0.025,0.003c0.098,0.013 0.196,0.029 0.295,0.039c0.067,0.007 0.133,0.009 0.2,0.015c0.25,0.022 0.489,0.037 0.719,0.037l0,0c0.001,0 0.003,0 0.005,0c0.089,0 0.175,-0.012 0.264,-0.015c0.219,-0.006 0.439,-0.014 0.657,-0.037c0.068,-0.007 0.136,-0.015 0.205,-0.023c0.004,0 0.007,0 0.011,-0.001c0.019,-0.002 0.037,-0.008 0.056,-0.011c0.061,-0.008 0.121,-0.021 0.182,-0.031c0.155,-0.024 0.31,-0.046 0.465,-0.078c0.166,-0.034 0.328,-0.076 0.491,-0.119c0.132,-0.035 0.264,-0.071 0.394,-0.112c0.178,-0.056 0.354,-0.117 0.528,-0.184c0.05,-0.017 0.101,-0.031 0.15,-0.051zm0.123,-2.268c-0.003,0.002 -0.007,0.001 -0.01,0.003c-0.554,0.306 -1.13,0.535 -1.716,0.689c-0.006,0.002 -0.013,0.003 -0.019,0.005c-0.282,0.073 -0.567,0.128 -0.853,0.165c-0.014,0.002 -0.028,0.004 -0.042,0.006c-0.55,0.069 -1.104,0.068 -1.655,0.007c-0.078,-0.009 -0.153,-0.017 -0.242,-0.03c-0.168,-0.024 -0.336,-0.061 -0.503,-0.097c-0.058,-0.012 -0.116,-0.024 -0.173,-0.036c-0.068,-0.015 -0.136,-0.033 -0.204,-0.051c-0.176,-0.049 -0.349,-0.11 -0.523,-0.172c-0.001,0 -0.001,-0.001 -0.002,-0.001c-0.001,0 -0.002,-0.001 -0.003,-0.001c-0.076,-0.028 -0.152,-0.056 -0.227,-0.085c-0.078,-0.031 -0.156,-0.063 -0.233,-0.097c-0.144,-0.063 -0.287,-0.131 -0.429,-0.204c0,0 -0.001,-0.001 -0.001,-0.001l-0.009,-0.005c-0.214,-0.11 -0.429,-0.22 -0.632,-0.35l0,0c-0.051,-0.033 -0.1,-0.069 -0.151,-0.103c-0.235,-0.159 -0.462,-0.33 -0.68,-0.514c-0.044,-0.037 -0.089,-0.073 -0.132,-0.111c-0.515,-0.453 -0.982,-0.978 -1.416,-1.603c-0.004,-0.006 -0.008,-0.012 -0.012,-0.017c-0.198,-0.29 -0.378,-0.591 -0.537,-0.892c-0.011,-0.02 -0.022,-0.04 -0.033,-0.06c-0.344,-0.663 -0.607,-1.37 -0.789,-2.101c-0.014,-0.057 -0.026,-0.116 -0.04,-0.173c-0.069,-0.297 -0.121,-0.597 -0.162,-0.9c-0.011,-0.082 -0.024,-0.163 -0.033,-0.245c-0.04,-0.364 -0.065,-0.729 -0.065,-1.096c0,-0.001 0,-0.002 0,-0.003l0.001,0c0.001,-0.019 0.005,-0.098 0.005,-0.119c0,0 0,0 0,-0.001c0.002,-0.144 0.015,-0.284 0.022,-0.427c0.404,0.067 0.825,0.081 1.245,0.057c0.013,-0.001 0.026,-0.001 0.039,-0.002c0.411,-0.025 0.816,-0.083 1.197,-0.158c0.027,-0.005 0.053,-0.011 0.081,-0.017c0.162,-0.033 0.318,-0.069 0.468,-0.106c0.024,-0.006 0.048,-0.011 0.071,-0.017c0.161,-0.041 0.314,-0.084 0.456,-0.126c0.033,-0.01 0.06,-0.018 0.091,-0.028c0.106,-0.032 0.204,-0.063 0.296,-0.094c0.036,-0.012 0.07,-0.023 0.103,-0.034c0.102,-0.035 0.196,-0.068 0.273,-0.096c0.403,-0.149 0.785,-0.316 1.156,-0.489c0.001,-0.001 0.003,0 0.004,-0.001l0,0c0,0 0.008,-0.003 0.019,-0.009c0.005,-0.002 0.01,-0.004 0.015,-0.007c0.007,-0.003 0.095,-0.043 0.101,-0.046c0.008,-0.003 0.015,-0.007 0.023,-0.011c0,0 0,0 0.001,0c0.004,-0.002 0.005,-0.005 0.009,-0.007c0.389,-0.187 0.759,-0.383 1.11,-0.586l0.014,-0.008c0.001,0 0.001,-0.001 0.002,-0.001c0.312,-0.181 0.607,-0.365 0.887,-0.551c0.001,-0.001 0.003,-0.001 0.004,-0.002l0.036,-0.024c0.66,-0.44 1.231,-0.879 1.687,-1.266c0.299,0.992 0.808,2.247 1.625,3.386c0.027,0.037 0.05,0.075 0.078,0.112c0.002,0.003 0.005,0.003 0.007,0.006c0.002,0.003 0.003,0.007 0.005,0.01c0.007,0.009 0.014,0.018 0.021,0.027c0.09,0.119 0.184,0.236 0.281,0.351c0.023,0.028 0.044,0.057 0.068,0.085c0.004,0.005 0.011,0.007 0.016,0.012c0.256,0.297 0.53,0.585 0.839,0.846c0.055,0.047 0.127,0.105 0.21,0.169c0.023,0.018 0.051,0.038 0.076,0.056c0.066,0.05 0.135,0.101 0.214,0.156c0.037,0.026 0.078,0.051 0.117,0.078c0.077,0.052 0.155,0.103 0.241,0.155c0.048,0.029 0.098,0.057 0.148,0.086c0.087,0.05 0.174,0.099 0.267,0.147c0.057,0.029 0.114,0.056 0.173,0.083c0.094,0.045 0.19,0.086 0.289,0.126c0.063,0.025 0.126,0.048 0.191,0.07c0.101,0.035 0.202,0.066 0.306,0.093c0.068,0.018 0.136,0.035 0.206,0.049c0.105,0.022 0.21,0.036 0.316,0.047c0.072,0.008 0.143,0.016 0.216,0.018c0.035,0.001 0.069,0.009 0.104,0.009c0.08,0 0.161,-0.014 0.241,-0.022c0.046,-0.004 0.092,0.001 0.139,-0.005c-0.538,2.683 -2.144,4.911 -4.284,6.099zm4.532,-13.844c0.69,1.941 0.536,4.117 0.053,5.154c-0.005,0.009 -0.013,0.015 -0.017,0.023c-0.145,0.297 -0.312,0.496 -0.472,0.562c-0.416,0.167 -1.332,-0.293 -1.976,-0.838c-0.23,-0.194 -0.437,-0.41 -0.63,-0.635c-0.099,-0.115 -0.192,-0.233 -0.282,-0.352c-0.003,-0.004 -0.006,-0.008 -0.009,-0.012c0,0 0,-0.001 -0.001,-0.001c-0.001,-0.002 -0.003,-0.004 -0.004,-0.006c-0.089,-0.12 -0.173,-0.242 -0.253,-0.365c0,0 -0.001,-0.001 -0.001,-0.002c0,0 0,-0.001 -0.001,-0.001c0,-0.001 -0.001,-0.001 -0.001,-0.001c-0.789,-1.22 -1.182,-2.588 -1.354,-3.363l-0.016,-0.072c-0.015,-0.07 -0.029,-0.137 -0.04,-0.195l-0.003,-0.013c-0.01,-0.053 -0.018,-0.096 -0.025,-0.137l-0.035,-0.217c-0.001,-0.008 -0.007,-0.015 -0.008,-0.023c-0.018,-0.108 -0.055,-0.209 -0.105,-0.303c-0.018,-0.035 -0.039,-0.065 -0.061,-0.097c-0.046,-0.066 -0.098,-0.125 -0.158,-0.178c-0.027,-0.024 -0.049,-0.05 -0.079,-0.071c-0.086,-0.062 -0.18,-0.113 -0.284,-0.145c-0.005,-0.002 -0.011,-0.001 -0.016,-0.003c-0.022,-0.006 -0.046,-0.006 -0.068,-0.011c-0.068,-0.015 -0.135,-0.03 -0.203,-0.031c-0.003,0 -0.006,-0.001 -0.009,-0.001c-0.01,0 -0.02,0.006 -0.03,0.006c-0.016,0 -0.031,0.005 -0.047,0.006c-0.019,0.001 -0.036,-0.006 -0.055,-0.004c-0.018,0.003 -0.033,0.014 -0.051,0.017c-0.059,0.011 -0.115,0.027 -0.17,0.048c-0.032,0.012 -0.062,0.025 -0.092,0.04c-0.008,0.004 -0.017,0.007 -0.025,0.011c-0.014,0.007 -0.029,0.01 -0.042,0.018c-0.085,0.051 -0.164,0.113 -0.233,0.189c-0.022,0.025 -2.253,2.49 -5.601,3.728c-0.18,0.067 -0.367,0.129 -0.557,0.186c-0.142,0.043 -0.286,0.08 -0.43,0.117c-0.048,0.012 -0.095,0.027 -0.142,0.038c-0.165,0.039 -0.33,0.073 -0.492,0.102c-0.025,0.005 -0.051,0.011 -0.076,0.015c-0.174,0.03 -0.345,0.054 -0.51,0.072c-0.012,0.001 -0.025,0.004 -0.036,0.005c-0.174,0.018 -0.343,0.028 -0.501,0.029c-0.002,0 -0.003,0 -0.005,0c-0.16,0.001 -0.311,-0.006 -0.449,-0.023c0,0 -0.001,0 -0.001,0c-0.132,-0.016 -0.25,-0.043 -0.356,-0.078c-0.006,-0.002 -0.014,-0.003 -0.02,-0.005c-0.092,-0.032 -0.166,-0.075 -0.232,-0.122c-0.033,-0.024 -0.076,-0.041 -0.102,-0.069c-0.001,-0.001 -0.001,-0.002 -0.002,-0.002c-0.029,-0.032 -0.051,-0.077 -0.074,-0.119c-0.013,-0.023 -0.028,-0.04 -0.039,-0.066c-0.021,-0.05 -0.036,-0.112 -0.052,-0.172c-0.007,-0.027 -0.017,-0.048 -0.022,-0.076c-0.014,-0.072 -0.021,-0.153 -0.027,-0.236c-0.002,-0.024 -0.007,-0.045 -0.008,-0.07c-0.005,-0.111 -0.003,-0.229 0.005,-0.355c0.106,-1.484 1.234,-3.903 3.115,-5.462c0.276,-0.229 0.561,-0.423 0.847,-0.599c0.101,-0.062 0.203,-0.115 0.305,-0.172c0.186,-0.103 0.372,-0.199 0.559,-0.284c0.117,-0.053 0.233,-0.104 0.349,-0.15c0.18,-0.071 0.357,-0.132 0.534,-0.188c0.105,-0.033 0.212,-0.072 0.315,-0.101c0.259,-0.071 0.513,-0.13 0.758,-0.174c0.092,-0.017 0.176,-0.026 0.265,-0.04c0.173,-0.026 0.343,-0.05 0.505,-0.066c0.082,-0.008 0.162,-0.015 0.24,-0.02c0.174,-0.012 0.342,-0.021 0.497,-0.024c0.04,-0.001 0.085,-0.003 0.123,-0.003c0.416,-0.002 0.751,0.023 0.957,0.046c3.224,0.356 6.171,2.553 7.163,5.341zm-9.058,-15.226l0,2.874c-1.404,-0.363 -2.511,-1.47 -2.874,-2.874l2.874,0zm-18,0l2.874,0c-0.363,1.404 -1.47,2.511 -2.874,2.874l0,-2.874zm0,4.91c2.507,-0.423 4.486,-2.403 4.91,-4.91l8.181,0c0.423,2.507 2.403,4.486 4.91,4.91l0,2.972c-0.265,0.023 -0.554,0.063 -0.853,0.113c-0.084,0.014 -0.167,0.028 -0.252,0.044c-0.101,0.019 -0.203,0.04 -0.306,0.063c-0.119,0.026 -0.24,0.055 -0.361,0.086c-0.086,0.022 -0.17,0.043 -0.257,0.067c-0.185,0.052 -0.372,0.11 -0.56,0.174c-0.031,0.011 -0.061,0.019 -0.092,0.03c-0.226,0.079 -0.454,0.17 -0.683,0.27c-0.053,0.023 -0.106,0.05 -0.16,0.075c-0.177,0.081 -0.353,0.168 -0.53,0.262c-0.032,0.017 -0.063,0.03 -0.095,0.047c-0.383,-1.221 -1.509,-2.113 -2.852,-2.113c-0.265,0 -0.52,0.105 -0.707,0.293l-3.644,3.644c-0.378,-0.143 -0.649,-0.509 -0.649,-0.937c0,-0.551 0.449,-1 1,-1l0,-2c-1.302,0 -2.402,0.839 -2.816,2l-1.184,0l0,2l1.184,0c0.414,1.161 1.514,2 2.816,2c0.265,0 0.52,-0.105 0.707,-0.293l3.644,-3.644c0.378,0.143 0.649,0.509 0.649,0.937c0,0.551 -0.449,1 -1,1l0,0.492c-1.384,1.652 -2.345,3.721 -2.471,5.488c-0.023,0.326 -0.006,0.629 0.03,0.919c0.004,0.034 -0.002,0.073 0.003,0.106l-8.562,-8.561l0,-4.534zm-4.826,2.536c-1.248,0.736 -2.815,0.736 -4.063,0l2.032,-2.032l2.031,2.032zm-12.728,8.664c0.736,1.249 0.736,2.815 0,4.063l-2.032,-2.032l2.032,-2.031zm1.432,5.496c1.471,-2.071 1.471,-4.857 0,-6.928l5.8,-5.8c1.035,0.736 2.246,1.119 3.464,1.119c1.218,0 2.429,-0.383 3.464,-1.119l1.687,1.687l10.71,10.71c0.004,0.181 0.022,0.362 0.034,0.542c0.008,0.125 0.011,0.25 0.024,0.374c0.022,0.219 0.057,0.437 0.091,0.654c0.052,0.337 0.119,0.668 0.198,0.995c0.023,0.094 0.041,0.19 0.066,0.284c0.059,0.219 0.13,0.432 0.201,0.646c0.025,0.076 0.045,0.154 0.072,0.23l-11.689,0l0,-5.488c0.417,-0.181 0.983,-0.116 1.293,0.195c0.393,0.393 0.393,1.193 0,1.586l1.414,1.414c0.93,-0.93 1.112,-2.409 0.571,-3.571l0.429,-0.429l-1.414,-1.414l-0.429,0.429c-1.162,-0.541 -2.641,-0.359 -3.571,0.571c-0.188,0.187 -0.293,0.442 -0.293,0.707l0,5.549c-0.407,0.157 -0.971,0.065 -1.293,-0.256c-0.393,-0.393 -0.393,-1.193 0,-1.586l-1.414,-1.414c-0.967,0.967 -1.125,2.527 -0.502,3.707l-5.519,0l-3.394,-3.394zm-3.878,5.394l2.874,0c-0.363,1.404 -1.47,2.511 -2.874,2.874l0,-2.874zm0,18l0,-2.874c1.404,0.363 2.511,1.47 2.874,2.874l-2.874,0zm4.91,0c-0.424,-2.507 -2.403,-4.486 -4.91,-4.91l0,-8.18c2.507,-0.423 4.486,-2.403 4.91,-4.91l1.948,0l23.77,0c0.003,0.006 0.008,0.012 0.011,0.017c0.087,0.146 0.18,0.285 0.273,0.426c0.048,0.073 0.088,0.141 0.139,0.216c0.019,0.028 0.042,0.051 0.062,0.078c0.23,0.325 0.473,0.639 0.734,0.933c0.01,0.012 0.02,0.025 0.03,0.037c0.277,0.31 0.571,0.599 0.879,0.871c0.015,0.013 0.027,0.028 0.041,0.041c0,0.001 0.097,0.082 0.098,0.082c0.129,0.109 0.261,0.215 0.399,0.321c0.111,0.085 0.225,0.165 0.34,0.245c0.056,0.039 0.105,0.077 0.164,0.117l-0.315,0.939l-0.209,0.624c-0.142,0.007 -0.279,0.029 -0.42,0.04c-0.192,0.015 -0.384,0.032 -0.573,0.055c-0.27,0.033 -0.535,0.076 -0.799,0.124c-0.184,0.033 -0.368,0.064 -0.548,0.104c-0.266,0.059 -0.526,0.133 -0.785,0.207c-0.169,0.049 -0.341,0.091 -0.507,0.146c-0.282,0.093 -0.556,0.203 -0.829,0.314c-0.134,0.054 -0.272,0.099 -0.404,0.158c-0.384,0.17 -0.757,0.359 -1.121,0.564c-0.18,0.101 -0.351,0.217 -0.526,0.327c-0.188,0.118 -0.378,0.232 -0.56,0.359c-0.19,0.132 -0.37,0.276 -0.552,0.417c-0.154,0.119 -0.308,0.237 -0.457,0.363c-0.188,0.159 -0.368,0.328 -0.548,0.497c-0.128,0.122 -0.256,0.243 -0.38,0.37c-0.184,0.188 -0.361,0.381 -0.534,0.58c-0.103,0.119 -0.205,0.239 -0.304,0.362c-0.18,0.22 -0.354,0.444 -0.521,0.676c-0.074,0.104 -0.145,0.21 -0.217,0.317c-0.178,0.262 -0.352,0.528 -0.515,0.804c-0.036,0.062 -0.069,0.127 -0.105,0.19c-1.015,1.787 -1.69,3.84 -1.944,6.079l-15.215,0l0,0zm51.09,11l-5,0l0,-10l-2,0l0,10l-20,0l0,-10l-2,0l0,10l-5,0l0,-9c0,-0.318 0.021,-0.628 0.04,-0.938c0,-0.001 0,-0.001 0.001,-0.002c0.052,-0.869 0.176,-1.708 0.363,-2.513c0.003,-0.013 0.006,-0.027 0.009,-0.04c0.089,-0.378 0.194,-0.746 0.311,-1.108c0.012,-0.036 0.022,-0.072 0.034,-0.108c0.112,-0.337 0.238,-0.664 0.374,-0.985c0.024,-0.058 0.048,-0.116 0.073,-0.173c0.13,-0.296 0.271,-0.583 0.42,-0.865c0.041,-0.076 0.08,-0.153 0.122,-0.229c0.143,-0.258 0.295,-0.507 0.454,-0.751c0.059,-0.091 0.118,-0.182 0.179,-0.271c0.153,-0.222 0.313,-0.437 0.478,-0.647c0.079,-0.1 0.158,-0.198 0.239,-0.295c0.16,-0.191 0.327,-0.376 0.498,-0.556c0.097,-0.102 0.196,-0.203 0.297,-0.301c0.167,-0.164 0.34,-0.322 0.516,-0.475c0.116,-0.1 0.233,-0.198 0.352,-0.293c0.173,-0.139 0.35,-0.273 0.531,-0.401c0.133,-0.094 0.269,-0.185 0.406,-0.273c0.179,-0.116 0.36,-0.228 0.545,-0.333c0.149,-0.085 0.301,-0.164 0.453,-0.243c0.184,-0.094 0.37,-0.185 0.559,-0.27c0.164,-0.073 0.331,-0.139 0.5,-0.204c0.188,-0.073 0.376,-0.144 0.569,-0.207c0.179,-0.059 0.362,-0.11 0.546,-0.16c0.19,-0.052 0.38,-0.103 0.574,-0.146c0.194,-0.043 0.393,-0.076 0.591,-0.109c0.191,-0.032 0.383,-0.064 0.577,-0.086c0.129,-0.015 0.26,-0.02 0.391,-0.031l0,5.013c0,0.332 0.165,0.642 0.439,0.828c0.166,0.114 0.362,0.172 0.559,0.172c0.125,0 0.251,-0.023 0.372,-0.071l4.628,-1.852l4.628,1.851c0.121,0.049 0.247,0.072 0.372,0.072c0.197,0 0.393,-0.058 0.561,-0.172c0.274,-0.186 0.439,-0.496 0.439,-0.828l0,-4.946c6.429,0.5 11,5.781 11,12.946l0,9z"/>
  <rect fill="#f8e71c" height="2" width="2" y="44" x="41" id="Rectangle"/>
  <rect fill="#f8e71c" height="2" width="2" y="48" x="41" id="Rectangle"/>
  <rect fill="#f8e71c" height="2" width="2" y="52" x="41" id="Rectangle"/>
  <path fill="#f8e71c" id="Path" d="m19.063,36.649c0.143,-0.378 0.509,-0.649 0.937,-0.649c0.551,0 1,0.449 1,1l2,0c0,-1.302 -0.839,-2.402 -2,-2.816l0,-1.184l-2,0l0,1.184c-1.161,0.414 -2,1.514 -2,2.816c0,0.265 0.105,0.52 0.293,0.707l3.644,3.644c-0.143,0.378 -0.509,0.649 -0.937,0.649c-0.551,0 -1,-0.449 -1,-1l-2,0c0,1.302 0.839,2.402 2,2.816l0,1.184l2,0l0,-1.184c1.161,-0.414 2,-1.514 2,-2.816c0,-0.265 -0.105,-0.52 -0.293,-0.707l-3.644,-3.644z"/>
 </g>
</svg>