<?xml version="1.0" encoding="UTF-8"?>
<svg width="100%" height="100%" viewBox="0 0 26 26" version="1.1" xmlns="http://www.w3.org/2000/svg" xmlns:xlink="http://www.w3.org/1999/xlink">
    <!-- Generator: Sketch 64 (93537) - https://sketch.com -->
    <title>noun_Plus_2048206</title>
    <desc>Created with Sketch.</desc>
    <g id="APPLN-INIT" stroke="none" stroke-width="1" fill="none" fill-rule="evenodd">
        <g id="UPDATED-----Application-Initiation-2---BAI" transform="translate(-1310.000000, -859.000000)" fill="#0079B8" fill-rule="nonzero" stroke="#E4F0F9">
            <g id="Group-21" transform="translate(0.000000, 822.000000)">
                <g id="Group-13" transform="translate(20.000000, 24.000000)">
                    <g id="noun_Plus_2048206" transform="translate(1291.000000, 14.000000)">
                        <g id="Group">
                            <path d="M12,0.158029091 C11.0181333,0.158029091 10.2222222,0.939512727 10.2222222,1.90348364 L10.2222222,10.1943796 L1.77777778,10.1943796 C0.795955556,10.1943796 0,10.9758109 0,11.9398255 C0,12.90384 0.795955556,13.68528 1.77777778,13.68528 L10.2222222,13.68528 L10.2222222,21.9762327 C10.2222222,22.9402036 11.0181333,23.7216873 12,23.7216873 C12.9818667,23.7216873 13.7777778,22.9402036 13.7777778,21.9762327 L13.7777778,13.68528 L22.2222222,13.68528 C23.2040444,13.68528 24,12.90384 24,11.9398255 C24,10.9758109 23.2040444,10.1943796 22.2222222,10.1943796 L13.7777778,10.1943796 L13.7777778,1.90348364 C13.7777778,0.939512727 12.9818667,0.158029091 12,0.158029091 Z" id="Path"></path>
                        </g>
                    </g>
                </g>
            </g>
        </g>
    </g>
</svg>
