<?xml version="1.0" encoding="UTF-8"?>
<svg width="30px" height="30px" viewBox="0 0 30 30" version="1.1" xmlns="http://www.w3.org/2000/svg" xmlns:xlink="http://www.w3.org/1999/xlink">
    <title>Policy Check Results_1</title>
    <g id="Page-1" stroke="none" stroke-width="1" fill="none" fill-rule="evenodd">
        <g id="Policy-Check-Results_1">
            <rect id="Rectangle" x="0" y="0" width="30" height="30"></rect>
            <g id="Policy-Check-Results" transform="translate(2.000000, 2.000000)" fill="#8E8E8E" fill-rule="nonzero">
                <path d="M20.25,25.3125 L5.0625,25.3125 L5.0625,8.859375 L8.4375,8.859375 C8.549388,8.859375 8.656695,8.814924 8.735814,8.735814 C8.814924,8.656695 8.859375,8.549388 8.859375,8.4375 L8.859375,5.0625 L20.25,5.0625 L20.25,11.8125 L21.09375,11.8125 L21.09375,4.640625 C21.09375,4.528737 21.04929,4.42143 20.97018,4.342311 C20.89107,4.263201 20.78379,4.21875 20.67192,4.21875 L19.40625,4.21875 L19.40625,2.953125 C19.40625,2.841237 19.36179,2.73393 19.28268,2.654811 C19.20357,2.575701 19.09629,2.53125 18.98442,2.53125 L17.71875,2.53125 L17.71875,1.265625 C17.71875,1.153737 17.67429,1.04643 17.59518,0.967311 C17.51607,0.8881974 17.40879,0.84375 17.29692,0.84375 L1.265625,0.84375 C1.153737,0.84375 1.04643,0.8881974 0.967311,0.967311 C0.8881974,1.04643 0.84375,1.153737 0.84375,1.265625 L0.84375,22.35942 C0.84375,22.47129 0.8881974,22.57857 0.967311,22.65768 C1.04643,22.73679 1.153737,22.78125 1.265625,22.78125 L2.53125,22.78125 L2.53125,24.04692 C2.53125,24.15879 2.575701,24.26607 2.654811,24.34518 C2.73393,24.42429 2.841237,24.46875 2.953125,24.46875 L4.21875,24.46875 L4.21875,25.73442 C4.21875,25.84629 4.263201,25.95357 4.342311,26.03268 C4.42143,26.11179 4.528737,26.15625 4.640625,26.15625 L20.67192,26.15625 C20.78379,26.15625 20.89107,26.11179 20.97018,26.03268 C21.04929,25.95357 21.09375,25.84629 21.09375,25.73442 L21.09375,24.89058 L20.25,24.89058 L20.25,25.3125 Z M5.659083,8.015625 L8.015625,5.659083 L8.015625,8.015625 L5.659083,8.015625 Z M2.53125,2.953125 L2.53125,21.9375 L1.6875,21.9375 L1.6875,1.6875 L16.875,1.6875 L16.875,2.53125 L2.953125,2.53125 C2.841237,2.53125 2.73393,2.575701 2.654811,2.654811 C2.575701,2.73393 2.53125,2.841237 2.53125,2.953125 Z M3.375,23.625 L3.375,3.375 L18.5625,3.375 L18.5625,4.21875 L8.4375,4.21875 C8.382096,4.21875 8.327241,4.229658 8.276049,4.250862 C8.224866,4.272057 8.178354,4.303134 8.139186,4.342311 L4.342311,8.139186 C4.303134,8.178354 4.272057,8.224866 4.250862,8.276049 C4.229658,8.327241 4.21875,8.382096 4.21875,8.4375 L4.21875,23.625 L3.375,23.625 Z" id="Shape"></path>
                <polygon id="Path" points="10.125 8.015625 18.98442 8.015625 18.98442 8.859375 10.125 8.859375"></polygon>
                <polygon id="Path" points="6.328125 10.125 18.98442 10.125 18.98442 10.96875 6.328125 10.96875"></polygon>
                <polygon id="Path" points="6.328125 14.34375 12.65625 14.34375 12.65625 15.1875 6.328125 15.1875"></polygon>
                <polygon id="Path" points="6.328125 16.45308 11.8125 16.45308 11.8125 17.29692 6.328125 17.29692"></polygon>
                <polygon id="Path" points="6.328125 18.5625 11.8125 18.5625 11.8125 19.40625 6.328125 19.40625"></polygon>
                <polygon id="Path" points="6.328125 20.67192 12.23442 20.67192 12.23442 21.51558 6.328125 21.51558"></polygon>
                <polygon id="Path" points="6.328125 22.78125 13.5 22.78125 13.5 23.625 6.328125 23.625"></polygon>
                <polygon id="Path" points="6.328125 12.23442 14.76558 12.23442 14.76558 13.07808 6.328125 13.07808"></polygon>
                <path d="M25.77051,23.90832 L23.56344,21.70116 C24.33618,20.47059 24.62868,18.99855 24.38505,17.56602 C24.14142,16.13349 23.37867,14.84082 22.24251,13.93497 C21.10626,13.02912 19.67625,12.57345 18.22545,12.65499 C16.77465,12.73662 15.40467,13.34961 14.37714,14.37714 C13.34961,15.40467 12.73662,16.77465 12.65499,18.22545 C12.57345,19.67625 13.02912,21.10626 13.93497,22.24251 C14.84082,23.37867 16.13349,24.14142 17.56602,24.38505 C18.99855,24.62868 20.47059,24.33618 21.70116,23.56344 L23.90832,25.77051 C24.15555,26.01576 24.48999,26.15301 24.8382,26.1522036 C25.1865,26.15148 25.52031,26.01279 25.76655,25.76655 C26.01279,25.52031 26.15148,25.1865 26.1522036,24.8382 C26.15301,24.48999 26.01576,24.15555 25.77051,23.90832 Z M13.49991,18.56241 C13.49991,17.56116 13.79682,16.58241 14.35311,15.74982 C14.9094,14.91732 15.70005,14.26842 16.62507,13.88529 C17.55018,13.50216 18.56808,13.4019 19.55007,13.5972 C20.53215,13.79259 21.43413,14.27472 22.14216,14.98275 C22.85019,15.69069 23.33232,16.59276 23.52762,17.57475 C23.72301,18.55683 23.62275,19.57473 23.23962,20.49975 C22.8564,21.42486 22.2075,22.21551 21.375,22.77171 C20.5425,23.328 19.56366,23.62491 18.56241,23.62491 C17.22024,23.62347 15.93342,23.08959 14.98437,22.14054 C14.03532,21.1914 13.50144,19.90467 13.49991,18.56241 Z M25.1739,25.17399 C25.10784,25.23996 25.02378,25.28496 24.93225,25.30323 C24.84072,25.32159 24.74577,25.31241 24.65946,25.27686 C24.60168,25.25301 24.54912,25.218 24.50493,25.1739 L22.38876,23.05782 C22.62915,22.8528 22.8528,22.62915 23.05782,22.38876 L25.1739,24.50493 C25.26228,24.59385 25.31205,24.714 25.312412,24.83937 C25.31259,24.90156 25.30044,24.96312 25.27668,25.02054 C25.25292,25.07796 25.218,25.13007 25.1739,25.17399 Z" id="Shape"></path>
                <path d="M18.5625,14.34375 C17.72811,14.34375 16.91244,14.59116 16.21872,15.05475 C15.52491,15.51834 14.98419,16.17714 14.66487,16.94808 C14.34555,17.71893 14.26203,18.56718 14.42484,19.38555 C14.58756,20.20392 14.98941,20.9556 15.57936,21.54564 C16.1694,22.13559 16.92108,22.53735 17.73945,22.70016 C18.55782,22.86297 19.40607,22.77945 20.17692,22.46013 C20.94777,22.14081 21.60666,21.60009 22.07025,20.90628 C22.53384,20.21256 22.78125,19.39689 22.78125,18.5625 C22.77999,17.44398 22.33512,16.37172 21.5442,15.5808 C20.75328,14.78988 19.68102,14.34501 18.5625,14.34375 Z M18.5625,21.9375 C17.89497,21.9375 17.24247,21.73959 16.68744,21.3687 C16.13241,20.99781 15.69987,20.47077 15.44445,19.85409 C15.18894,19.23732 15.12216,18.55872 15.25239,17.90406 C15.38262,17.2494 15.70401,16.64802 16.17597,16.17597 C16.64802,15.70401 17.2494,15.38253 17.90406,15.25239 C18.55872,15.12216 19.23732,15.18894 19.85409,15.44436 C20.47077,15.69987 20.99781,16.13241 21.3687,16.68744 C21.73959,17.24247 21.9375,17.89497 21.9375,18.5625 C21.93651,19.45728 21.58056,20.31516 20.94786,20.94786 C20.31516,21.58056 19.45728,21.93651 18.5625,21.9375 Z" id="Shape"></path>
                <path d="M17.8875,17.01522 C18.10035,16.92216 18.33021,16.87446 18.5625,16.875 L18.5625,16.0312459 C18.21402,16.03062 17.86923,16.10244 17.55,16.24221 L17.8875,17.01522 Z" id="Path"></path>
                <path d="M16.87509,18.5625 C16.87446,18.34074 16.91784,18.12114 17.00271,17.9163 C17.08749,17.71155 17.21214,17.52561 17.36937,17.36928 L16.77267,16.77258 C16.51626,17.02899 16.31799,17.33751 16.19109,17.67726 C16.06428,18.01692 16.0119,18.37998 16.03764,18.74169 C16.06329,19.1034 16.16634,19.45539 16.33986,19.77381 C16.51338,20.09223 16.75332,20.36961 17.0433,20.58723 L17.55009,19.9125 C17.33976,19.75599 17.16912,19.55232 17.05185,19.31778 C16.93467,19.08333 16.8741,18.82458 16.87509,18.5625 Z" id="Path"></path>
            </g>
        </g>
    </g>
</svg>