<?xml version="1.0" encoding="UTF-8"?>
<svg width="30px" height="30px" viewBox="0 0 30 30" version="1.1" xmlns="http://www.w3.org/2000/svg" xmlns:xlink="http://www.w3.org/1999/xlink">
    <title>Referrer Details</title>
    <defs>
        <filter id="filter-1">
            <feColorMatrix in="SourceGraphic" type="matrix" values="0 0 0 0 1.000000 0 0 0 0 1.000000 0 0 0 0 1.000000 0 0 0 1.000000 0"></feColorMatrix>
        </filter>
    </defs>
    <g id="Page-1" stroke="none" stroke-width="1" fill="none" fill-rule="evenodd">
        <g id="Referrer-Details">
            <rect id="Rectangle" x="0" y="0" width="30" height="30"></rect>
            <g filter="url(#filter-1)" id="Group-132">
                <g transform="translate(4.000000, 2.000000)">
                    <path d="M0.96875,25.7813 C0.96875,26.0401 0.75888,26.25 0.5,26.25 C0.24112,26.25 0.03125,26.0401 0.03125,25.7813 C0.03125,25.5224 0.24112,25.3125 0.5,25.3125 C0.75888,25.3125 0.96875,25.5224 0.96875,25.7813 Z" id="Path" fill="#FFFFFF" fill-rule="nonzero"></path>
                    <path d="M20.65625,0.46875 C20.65625,0.34443 20.60685,0.2252 20.51895,0.13729 C20.43105,0.049386 20.31185,0 20.18755,0 L4.25,0 C4.18844,0 4.12749,0.01212 4.07061,0.035676 C4.01374,0.059231 3.96206,0.09376 3.91854,0.13729 L0.16854,3.88729 C0.12501,3.93081 0.09048,3.98249 0.06693,4.03936 C0.04337,4.09624 0.03125,4.15719 0.03125,4.21875 L0.03125,25.7813 C0.03125,25.5224 0.24112,25.3125 0.5,25.3125 L0.96875,25.3125 L0.96875,4.6875 L4.25,4.6875 C4.37432,4.6875 4.49355,4.63811 4.58146,4.55021 C4.66936,4.4623 4.71875,4.34307 4.71875,4.21875 L4.71875,0.9375 L17.84375,0.9375 L17.84375,25.3125 L18.78125,25.3125 L18.78125,0.9375 L19.71875,0.9375 L19.71875,25.3125 L0.96875,25.3125 L0.96875,25.7813 C0.96875,26.0401 0.75888,26.25 0.5,26.25 L20.65625,26.25 L20.65625,0.46875 Z M3.78125,1.60043 L1.63168,3.75 L3.78125,3.75 L3.78125,1.60043 Z" id="Shape" fill="#FFFFFF"></path>
                    <path d="M0.5,25.3125 C0.75888,25.3125 0.96875,25.5224 0.96875,25.7813 L0.96875,25.3125 L0.5,25.3125 Z" id="Path" fill="#FFFFFF" fill-rule="nonzero"></path>
                    <path d="M15.96875,8.4375 C16.09305,8.4375 16.21225,8.38811 16.30025,8.30021 C16.38815,8.2123 16.43755,8.09307 16.43755,7.96875 L16.43755,2.8125 C16.43755,2.68818 16.38815,2.56895 16.30025,2.48104 C16.21225,2.39314 16.09305,2.34375 15.96875,2.34375 L11.28125,2.34375 C11.15695,2.34375 11.03775,2.39314 10.94975,2.48104 C10.86185,2.56895 10.81255,2.68818 10.81255,2.8125 L10.81255,7.96875 C10.81255,8.09307 10.86185,8.2123 10.94975,8.30021 C11.03775,8.38811 11.15695,8.4375 11.28125,8.4375 L15.96875,8.4375 Z M12.68755,7.5 C12.68765,7.33239 12.73265,7.16786 12.81785,7.02352 C12.90305,6.87918 13.02535,6.76027 13.17205,6.67916 C13.23455,6.6445 13.28845,6.59598 13.32935,6.53732 C13.37025,6.47865 13.39725,6.41139 13.40815,6.3407 C13.41905,6.27 13.41365,6.19775 13.39235,6.12946 C13.37105,6.06117 13.33445,5.99867 13.28525,5.94674 C13.22205,5.88027 13.17975,5.79673 13.16365,5.70648 C13.14745,5.61623 13.15815,5.52322 13.19435,5.43897 C13.23045,5.35472 13.29055,5.28292 13.36715,5.23247 C13.44365,5.18203 13.53335,5.15514 13.62505,5.15514 C13.71675,5.15514 13.80645,5.18203 13.88295,5.23247 C13.95955,5.28292 14.01965,5.35472 14.05575,5.43897 C14.09195,5.52322 14.10265,5.61623 14.08645,5.70648 C14.07035,5.79673 14.02805,5.88027 13.96495,5.94674 C13.91575,5.99867 13.87905,6.06117 13.85775,6.12946 C13.83645,6.19775 13.83105,6.27 13.84195,6.3407 C13.85285,6.41139 13.87985,6.47865 13.92075,6.53732 C13.96175,6.59598 14.01555,6.6445 14.07815,6.67916 C14.22475,6.76029 14.34705,6.8792 14.43225,7.02354 C14.51735,7.16788 14.56235,7.3324 14.56255,7.5 L12.68755,7.5 Z M11.74995,3.28125 L15.49995,3.28125 L15.49995,7.5 C15.49995,7.24854 15.44935,6.99965 15.35115,6.76814 C15.25305,6.53663 15.10925,6.32721 14.92855,6.15234 C15.01495,5.93888 15.04745,5.70749 15.02345,5.47849 C14.99945,5.2495 14.91955,5.0299 14.79085,4.83899 C14.66205,4.64809 14.48845,4.49171 14.28515,4.3836 C14.08185,4.27549 13.85515,4.21895 13.62485,4.21895 C13.39465,4.21895 13.16785,4.27549 12.96465,4.3836 C12.76135,4.49171 12.58765,4.64809 12.45895,4.83899 C12.33025,5.0299 12.25035,5.2495 12.22635,5.47849 C12.20225,5.70749 12.23485,5.93888 12.32115,6.15234 C12.14055,6.32723 11.99685,6.53666 11.89875,6.76817 C11.80065,6.99968 11.75005,7.24855 11.74995,7.5 L11.74995,3.28125 Z" id="Shape" fill="#FFFFFF" fill-rule="nonzero"></path>
                    <polygon id="Path" fill="#FFFFFF" fill-rule="nonzero" points="6.12495 3.75 8.46875 3.75 8.46875 4.6875 6.12495 4.6875"></polygon>
                    <polygon id="Path" fill="#FFFFFF" fill-rule="nonzero" points="2.375 7.5 5.65625 7.5 5.65625 8.4375 2.375 8.4375"></polygon>
                    <polygon id="Path" fill="#FFFFFF" fill-rule="nonzero" points="2.375 5.625 8.46875 5.625 8.46875 6.5625 2.375 6.5625"></polygon>
                    <polygon id="Path" fill="#FFFFFF" fill-rule="nonzero" points="2.375 9.375 16.43755 9.375 16.43755 10.3125 2.375 10.3125"></polygon>
                    <polygon id="Path" fill="#FFFFFF" fill-rule="nonzero" points="5.65625 15 7.06255 15 7.06255 15.9375 5.65625 15.9375"></polygon>
                    <polygon id="Path" fill="#FFFFFF" fill-rule="nonzero" points="2.375 11.25 7.06255 11.25 7.06255 12.1875 2.375 12.1875"></polygon>
                    <polygon id="Path" fill="#FFFFFF" fill-rule="nonzero" points="9.40625 11.25 16.43755 11.25 16.43755 12.1875 9.40625 12.1875"></polygon>
                    <polygon id="Path" fill="#FFFFFF" fill-rule="nonzero" points="9.40625 13.125 13.62495 13.125 13.62495 14.0625 9.40625 14.0625"></polygon>
                    <polygon id="Path" fill="#FFFFFF" fill-rule="nonzero" points="14.56255 13.125 16.43755 13.125 16.43755 14.0625 14.56255 14.0625"></polygon>
                    <polygon id="Path" fill="#FFFFFF" fill-rule="nonzero" points="9.40625 15 15.03125 15 15.03125 15.9375 9.40625 15.9375"></polygon>
                    <polygon id="Path" fill="#FFFFFF" fill-rule="nonzero" points="9.40625 16.875 14.56255 16.875 14.56255 17.8125 9.40625 17.8125"></polygon>
                    <polygon id="Path" fill="#FFFFFF" fill-rule="nonzero" points="2.375 13.125 3.78125 13.125 3.78125 14.0625 2.375 14.0625"></polygon>
                    <polygon id="Path" fill="#FFFFFF" fill-rule="nonzero" points="6.12495 16.875 7.06255 16.875 7.06255 17.8125 6.12495 17.8125"></polygon>
                    <polygon id="Path" fill="#FFFFFF" fill-rule="nonzero" points="4.71875 13.125 7.06255 13.125 7.06255 14.0625 4.71875 14.0625"></polygon>
                    <polygon id="Path" fill="#FFFFFF" fill-rule="nonzero" points="9.40625 18.75 15.03125 18.75 15.03125 19.6875 9.40625 19.6875"></polygon>
                    <polygon id="Path" fill="#FFFFFF" fill-rule="nonzero" points="9.40625 20.625 16.43755 20.625 16.43755 21.5625 9.40625 21.5625"></polygon>
                    <polygon id="Path" fill="#FFFFFF" fill-rule="nonzero" points="2.375 22.793 16.43755 22.793 16.43755 23.7305 2.375 23.7305"></polygon>
                    <polygon id="Path" fill="#FFFFFF" fill-rule="nonzero" points="5.65625 18.75 7.06255 18.75 7.06255 19.6875 5.65625 19.6875"></polygon>
                    <polygon id="Path" fill="#FFFFFF" fill-rule="nonzero" points="4.25 20.625 7.06255 20.625 7.06255 21.5625 4.25 21.5625"></polygon>
                    <polygon id="Path" fill="#FFFFFF" fill-rule="nonzero" points="6.59375 7.5 8.46875 7.5 8.46875 8.4375 6.59375 8.4375"></polygon>
                </g>
            </g>
        </g>
    </g>
</svg>