<?xml version="1.0" encoding="UTF-8"?>
<svg width="26px" height="26px" viewBox="0 0 26 26" version="1.1" xmlns="http://www.w3.org/2000/svg" xmlns:xlink="http://www.w3.org/1999/xlink">
    <!-- Generator: Sketch 64 (93537) - https://sketch.com -->
    <title>history-line</title>
    <desc>Created with Sketch.</desc>
    <g id="APPLN-INIT" stroke="none" stroke-width="1" fill="none" fill-rule="evenodd" opacity="0.647739955">
        <g id="UPDATED-----Application-Initiation-2---BAI" transform="translate(-1188.000000, -17.000000)" fill="#FFFFFF" fill-rule="nonzero">
            <g id="Group-20" transform="translate(870.000000, 7.000000)">
                <g id="Group-42">
                    <g id="history-line" transform="translate(318.000000, 10.000000)">
                        <path d="M13,6.70607407 C12.5745362,6.70607407 12.2296296,7.05098064 12.2296296,7.47644444 L12.2296296,14.1940741 L16.7748148,17.2755556 C17.1297538,17.5009981 17.5999,17.4001826 17.8311975,17.049031 C18.062495,16.6978793 17.96949,16.2261259 17.6222222,15.989037 L13.7703704,13.3774815 L13.7703704,7.47644444 C13.7703704,7.05098064 13.4254638,6.70607407 13,6.70607407 Z" id="Path"></path>
                        <path d="M13,0.674073897 C8.51903264,0.689765019 4.39540819,3.12270344 2.21481481,7.03733333 L2.21481481,3.13925926 C2.21481481,2.71379545 1.86990825,2.36888889 1.44444444,2.36888889 C1.01898064,2.36888889 0.674074074,2.71379545 0.674074074,3.13925926 L0.674074074,9.91851852 L7.45333333,9.91851852 C7.87879714,9.91851852 8.2237037,9.57361196 8.2237037,9.14814815 C8.2237037,8.72268434 7.87879714,8.37777778 7.45333333,8.37777778 L3.25481481,8.37777778 C5.24766799,4.17190217 9.71369843,1.71879567 14.3322443,2.29315419 C18.9507901,2.86751271 22.6799477,6.33976598 23.581953,10.9056438 C24.4839582,15.4715216 22.3553265,20.1010017 18.3021485,22.3884898 C14.2489705,24.6759778 9.18560779,24.1054365 5.74311111,20.9733333 C5.53944326,20.7875552 5.25213497,20.7245447 4.98941248,20.8080372 C4.72669,20.8915296 4.52846712,21.1088406 4.46941248,21.3781112 C4.41035785,21.6473818 4.49944326,21.9277034 4.70311111,22.1134815 C8.77539728,25.8218096 14.8136702,26.3784081 19.4952318,23.4769957 C24.1767934,20.5755834 26.3653023,14.9204114 24.8564813,9.62336771 C23.3476603,4.32632406 18.507741,0.673144174 13,0.674073897 L13,0.674073897 Z" id="Path"></path>
                    </g>
                </g>
            </g>
        </g>
    </g>
</svg>