<?xml version="1.0" encoding="UTF-8"?>
<svg width="30px" height="30px" viewBox="0 0 30 30" version="1.1" xmlns="http://www.w3.org/2000/svg" xmlns:xlink="http://www.w3.org/1999/xlink">
    <title>RM Visit Details</title>
    <g id="Page-1" stroke="none" stroke-width="1" fill="none" fill-rule="evenodd">
        <g id="RM-Visit-Details">
            <g id="noun_on-site_1863636-copy" transform="translate(0.000000, 4.000000)" fill="#8E8E8E" fill-rule="nonzero">
                <path d="M24.0764571,16.2193143 C24.2104211,16.0853957 24.285685,15.9037358 24.285685,15.7143143 C24.285685,15.5248927 24.2104211,15.3432329 24.0764571,15.2093143 L21.01,12.1428571 L29.2857143,12.1428571 C29.6802034,12.1428571 30,11.8230605 30,11.4285714 C30,11.0340823 29.6802034,10.7142857 29.2857143,10.7142857 L21.01,10.7142857 L24.0764143,7.64788571 C24.3471087,7.36761508 24.3432374,6.92211087 24.0677133,6.64658673 C23.7921891,6.37106259 23.3466849,6.36719128 23.0664143,6.63788571 L18.7807,10.9236 C18.6467326,11.0575168 18.5714662,11.2391773 18.5714662,11.4286 C18.5714662,11.6180227 18.6467326,11.7996832 18.7807,11.9336 L23.0664143,16.2193143 C23.2003328,16.3532948 23.3820025,16.4285695 23.5714357,16.4285695 C23.7608689,16.4285695 23.9425386,16.3532948 24.0764571,16.2193143 L24.0764571,16.2193143 Z M14.2857143,0 L2.85714286,0 C1.27918643,0 0,1.27918643 0,2.85714286 L0,21.4285714 C0,22.2175496 0.639593215,22.8571429 1.42857143,22.8571429 L15.7142857,22.8571429 C16.5032639,22.8571429 17.1428571,22.2175496 17.1428571,21.4285714 L17.1428571,2.85714286 C17.1428571,1.27918643 15.8636707,0 14.2857143,0 Z M15.7142857,21.4285714 L7.14285714,21.4285714 L7.14285714,17.1428571 C7.14285714,16.3538789 6.50326393,15.7142857 5.71428571,15.7142857 C4.9253075,15.7142857 4.28571429,16.3538789 4.28571429,17.1428571 L4.28571429,21.4285714 L1.42857143,21.4285714 L1.42857143,2.85714286 C1.42947676,2.06853995 2.06853995,1.42947676 2.85714286,1.42857143 L14.2857143,1.42857143 C15.0743172,1.42947676 15.7133804,2.06853995 15.7142857,2.85714286 L15.7142857,21.4285714 Z M7.14285714,5.71428571 C7.14285714,6.50326393 6.50326393,7.14285714 5.71428571,7.14285714 C4.9253075,7.14285714 4.28571429,6.50326393 4.28571429,5.71428571 C4.28571429,4.9253075 4.9253075,4.28571429 5.71428571,4.28571429 C6.50326393,4.28571429 7.14285714,4.9253075 7.14285714,5.71428571 Z M12.8571429,5.71428571 C12.8571429,6.50326393 12.2175496,7.14285714 11.4285714,7.14285714 C10.6395932,7.14285714 10,6.50326393 10,5.71428571 C10,4.9253075 10.6395932,4.28571429 11.4285714,4.28571429 C12.2175496,4.28571429 12.8571429,4.9253075 12.8571429,5.71428571 Z M7.14285714,11.4285714 C7.14285714,12.2175496 6.50326393,12.8571429 5.71428571,12.8571429 C4.9253075,12.8571429 4.28571429,12.2175496 4.28571429,11.4285714 C4.28571429,10.6395932 4.9253075,10 5.71428571,10 C6.50326393,10 7.14285714,10.6395932 7.14285714,11.4285714 Z M12.8571429,11.4285714 C12.8571429,12.2175496 12.2175496,12.8571429 11.4285714,12.8571429 C10.6395932,12.8571429 10,12.2175496 10,11.4285714 C10,10.6395932 10.6395932,10 11.4285714,10 C12.2175496,10 12.8571429,10.6395932 12.8571429,11.4285714 Z M12.8571429,17.1428571 C12.8571429,17.9318354 12.2175496,18.5714286 11.4285714,18.5714286 C10.6395932,18.5714286 10,17.9318354 10,17.1428571 C10,16.3538789 10.6395932,15.7142857 11.4285714,15.7142857 C12.2175496,15.7142857 12.8571429,16.3538789 12.8571429,17.1428571 Z" id="Shape"></path>
            </g>
            <rect id="Rectangle-Copy-11" x="0" y="0" width="30" height="30"></rect>
        </g>
    </g>
</svg>