<svg width="1792" height="1792" xmlns="http://www.w3.org/2000/svg">

 <g>
  <title>background</title>
  <rect fill="none" id="canvas_background" height="402" width="582" y="-1" x="-1"/>
 </g>
 <g>
  <title>Layer 1</title>
  <path fill="#f8e71c" stroke="null" id="svg_1" d="m1053.904476,704.321585l0,56.481029q0,7.752298 -5.121942,12.735918t-13.089406,4.98362l-95.609577,0q-13.089406,79.737923 -73.414497,129.574125t-157.072877,60.910913q95.040472,98.564932 261.219023,296.802269q7.967465,8.859769 2.276419,18.82701q-4.552837,9.96724 -16.504034,9.96724l-110.975402,0q-9.105674,0 -14.227616,-6.644827q-174.146015,-203.220956 -283.414103,-316.183014q-5.121942,-4.98362 -5.121942,-12.182183l0,-70.324418q0,-7.198562 5.406494,-12.45905t12.804854,-5.260488l63.739718,0q75.121811,0 120.934733,-23.81063t58.333224,-69.216947l-243.007675,0q-7.967465,0 -13.089406,-4.98362t-5.121942,-12.735918l0,-56.481029q0,-7.752298 5.121942,-12.735918t13.089406,-4.98362l235.04021,0q-32.438964,-62.57212 -152.52004,-62.57212l-82.520171,0q-7.39836,0 -12.804854,-5.260488t-5.406494,-12.45905l0,-73.646832q0,-7.752298 5.121942,-12.735918t13.089406,-4.98362l473.495048,0q7.967465,0 13.089406,4.98362t5.121942,12.735918l0,56.481029q0,7.752298 -5.121942,12.735918t-13.089406,4.98362l-132.601378,0q26.747917,33.77787 36.422696,79.737923l97.316891,0q7.967465,0 13.089406,4.98362t5.121942,12.735918z"/>
  <rect stroke="#f8e71c" id="svg_2" height="1008.18453" width="1388.028701" y="383.03284" x="109.68706" stroke-width="80" fill="none"/>
 </g>
</svg>