<?xml version="1.0" encoding="UTF-8"?>
<svg width="30px" height="30px" viewBox="0 0 30 30" version="1.1" xmlns="http://www.w3.org/2000/svg" xmlns:xlink="http://www.w3.org/1999/xlink">
    <title>Scorecard Results</title>
    <defs>
        <filter id="filter-1">
            <feColorMatrix in="SourceGraphic" type="matrix" values="0 0 0 0 1.000000 0 0 0 0 1.000000 0 0 0 0 1.000000 0 0 0 1.000000 0"></feColorMatrix>
        </filter>
    </defs>
    <g id="Page-1" stroke="none" stroke-width="1" fill="none" fill-rule="evenodd">
        <g id="Scorecard-Results">
            <rect id="Rectangle" x="0" y="0" width="30" height="30"></rect>
            <g filter="url(#filter-1)">
                <g transform="translate(1.000000, 1.000000)">
                    <path d="M20.5333333,0 L3.26666667,0 C3.00895467,0 2.8,0.20895 2.8,0.466666667 L2.8,2.8 L0.466666667,2.8 C0.20895,2.8 0,3.00895467 0,3.26666667 L0,27.5333333 C0,27.7910267 0.20895,28 0.466666667,28 L17.7333333,28 C17.9910267,28 18.2,27.7910267 18.2,27.5333333 L18.2,25.6666667 L20.5333333,25.6666667 C20.7910267,25.6666667 21,25.4576933 21,25.2 L21,0.466666667 C21,0.20895 20.7910267,0 20.5333333,0 Z M17.2666667,27.0666667 L0.933333333,27.0666667 L0.933333333,3.73333333 L12.6,3.73333333 L12.6,7.93333333 C12.6,8.19104533 12.8089733,8.4 13.0666667,8.4 L17.2666667,8.4 L17.2666667,27.0666667 Z M13.5333333,7.46666667 L13.5333333,4.39133333 L16.6086667,7.46666667 L13.5333333,7.46666667 Z M20.0666667,24.7333333 L18.2,24.7333333 L18.2,7.93333333 C18.2006533,7.809312 18.1520267,7.690088 18.0646667,7.602 L16.9913333,6.53333333 L18.2,6.53333333 L18.2,5.6 L16.058,5.6 L14.658,4.2 L15.4,4.2 L15.4,3.26666667 L13.7246667,3.26666667 L13.398,2.93533333 C13.3098933,2.84801067 13.1907067,2.7993 13.0666667,2.8 L3.73333333,2.8 L3.73333333,0.933333333 L20.0666667,0.933333333 L20.0666667,24.7333333 Z" id="Shape" fill="#8E8E8E" fill-rule="nonzero"></path>
                    <path d="M27.5333333,7 L26.6,7 C26.6,5.96907733 25.7642933,5.13333333 24.7333333,5.13333333 C23.7023733,5.13333333 22.8666667,5.96907733 22.8666667,7 L22.8666667,25.2 C22.8666667,25.2838133 22.8892533,25.3659467 22.932,25.438 L24.332,27.7713333 C24.4635067,27.993 24.7498533,28.0659867 24.9714267,27.9345733 C25.0386267,27.8946267 25.0948133,27.8385333 25.1346667,27.7713333 L26.5346667,25.438 C26.5774133,25.3659467 26.6,25.2838133 26.6,25.2 L26.6,7.93333333 L27.0666667,7.93333333 L27.0666667,16.3333333 L28,16.3333333 L28,7.46666667 C28,7.20895467 27.7910267,7 27.5333333,7 Z M24.7333333,26.628 L24.1593333,25.6666667 L25.3073333,25.6666667 L24.7333333,26.628 Z M25.6666667,24.7333333 L23.8,24.7333333 L23.8,16.3333333 L25.6666667,16.3333333 L25.6666667,24.7333333 Z M25.6666667,15.4 L23.8,15.4 L23.8,7.93333333 L25.6666667,7.93333333 L25.6666667,15.4 Z M23.8,7 C23.8,6.48451067 24.2178533,6.06666667 24.7333333,6.06666667 C25.2488133,6.06666667 25.6666667,6.48451067 25.6666667,7 L23.8,7 Z" id="Shape" fill="#8E8E8E" fill-rule="nonzero"></path>
                    <polygon id="Path" fill="#8E8E8E" fill-rule="nonzero" points="14.9333333 20.5333333 3.26666667 20.5333333 3.26666667 21.4666667 14.9333333 21.4666667"></polygon>
                    <polygon id="Path" fill="#8E8E8E" fill-rule="nonzero" points="10.2666667 22.8666667 3.26666667 22.8666667 3.26666667 23.8 10.2666667 23.8"></polygon>
                    <polygon id="Path" fill="#8E8E8E" fill-rule="nonzero" points="14.9333333 18.2 6.06666667 18.2 6.06666667 19.1333333 14.9333333 19.1333333"></polygon>
                    <polygon id="Path" fill="#8E8E8E" fill-rule="nonzero" points="5.13333333 18.2 3.26666667 18.2 3.26666667 19.1333333 5.13333333 19.1333333"></polygon>
                    <path d="M13.5333333,15.8666667 L13.5333333,11.6666667 L12.6,11.6666667 L12.6,15.8666667 L11.6666667,15.8666667 L11.6666667,12.6 L10.7333333,12.6 L10.7333333,15.8666667 L9.8,15.8666667 L9.8,11.2 L8.86666667,11.2 L8.86666667,15.8666667 L7.93333333,15.8666667 L7.93333333,12.6 L7,12.6 L7,15.8666667 L6.06666667,15.8666667 L6.06666667,14.4666667 L5.13333333,14.4666667 L5.13333333,15.8666667 L4.2,15.8666667 L4.2,11.2 L3.26666667,11.2 L3.26666667,16.3333333 C3.26666667,16.5910267 3.475612,16.8 3.73333333,16.8 L14.9333333,16.8 L14.9333333,15.8666667 L13.5333333,15.8666667 Z" id="Path" fill="#8E8E8E" fill-rule="nonzero"></path>
                    <polygon id="Path" fill="#8E8E8E" fill-rule="nonzero" points="9.33333333 6.06666667 3.26666667 6.06666667 3.26666667 7 9.33333333 7"></polygon>
                    <polygon id="Path" fill="#8E8E8E" fill-rule="nonzero" points="7.46666667 8.4 3.26666667 8.4 3.26666667 9.33333333 7.46666667 9.33333333"></polygon>
                    <polygon id="Path" fill="#8E8E8E" fill-rule="nonzero" points="18.2 3.26666667 16.3333333 3.26666667 16.3333333 4.2 18.2 4.2"></polygon>
                    <polygon id="Path" fill="#8E8E8E" fill-rule="nonzero" points="13.0666667 22.8666667 11.2 22.8666667 11.2 23.8 13.0666667 23.8"></polygon>
                </g>
            </g>
        </g>
    </g>
</svg>