<?xml version="1.0" encoding="UTF-8"?>
<svg width="22px" height="22px" viewBox="0 0 22 22" version="1.1" xmlns="http://www.w3.org/2000/svg" xmlns:xlink="http://www.w3.org/1999/xlink">
    <title>Group 55 Copy</title>
    <g id="Page-1" stroke="none" stroke-width="1" fill="none" fill-rule="evenodd">
        <g id="Group-55-Copy" transform="translate(1.000000, 1.000000)" fill="#0079B8" fill-rule="nonzero" stroke="#0079B8" stroke-width="0.5">
            <g id="noun_Refresh_565789">
                <path d="M19.4526316,6.71578947 C19.0947368,5.70526316 18.5894737,4.75789474 17.9157895,3.89473684 C17.2631579,3.05263158 16.4842105,2.31578947 15.6,1.72631579 C14.8842105,1.24210526 14.1052632,0.863157895 13.3052632,0.568421053 C12.9684211,0.442105263 12.5894737,0.652631579 12.5052632,0.989473684 L12.5052632,0.989473684 C12.4210526,1.30526316 12.5894737,1.64210526 12.9052632,1.74736842 C16.3789474,2.96842105 18.7578947,6.27368421 18.7578947,10 C18.7578947,14.8210526 14.8421053,18.7578947 10,18.7578947 C5.15789474,18.7578947 1.24210526,14.8210526 1.24210526,10 C1.24210526,6.61052632 3.22105263,3.53684211 6.25263158,2.10526316 L6.25263158,4.37894737 C6.25263158,4.71578947 6.52631579,5.01052632 6.88421053,5.01052632 L6.88421053,5.01052632 C7.22105263,5.01052632 7.51578947,4.73684211 7.51578947,4.37894737 L7.51578947,0.631578947 C7.51578947,0.294736842 7.24210526,0 6.88421053,0 L3.11578947,0 C2.77894737,0 2.48421053,0.273684211 2.48421053,0.631578947 L2.48421053,0.631578947 C2.48421053,0.968421053 2.75789474,1.26315789 3.11578947,1.26315789 L5.17894737,1.26315789 C4.75789474,1.49473684 4.37894737,1.74736842 3.97894737,2.04210526 C3.17894737,2.65263158 2.46315789,3.36842105 1.87368421,4.18947368 C0.652631579,5.87368421 0,7.89473684 0,10 C0,11.3473684 0.273684211,12.6526316 0.778947368,13.8947368 C1.28421053,15.0947368 2,16.1473684 2.92631579,17.0736842 C3.85263158,18 4.90526316,18.7157895 6.10526316,19.2210526 C7.34736842,19.7473684 8.65263158,20 10,20 C11.3473684,20 12.6526316,19.7263158 13.8947368,19.2210526 C15.0947368,18.7157895 16.1473684,18 17.0736842,17.0736842 C18,16.1473684 18.7157895,15.0947368 19.2210526,13.8947368 C19.7473684,12.6526316 20,11.3473684 20,10 C20,8.88421053 19.8105263,7.76842105 19.4526316,6.71578947 Z" id="Path"></path>
            </g>
        </g>
    </g>
</svg>