<?xml version="1.0" encoding="UTF-8"?>
<svg width="20px" height="20px" viewBox="0 0 20 20" version="1.1" xmlns="http://www.w3.org/2000/svg" xmlns:xlink="http://www.w3.org/1999/xlink">
    <!-- Generator: Sketch 64 (93537) - https://sketch.com -->
    <title>noun_Search_3177301</title>
    <desc>Created with Sketch.</desc>
    <g id="APPLN-INIT" stroke="none" stroke-width="1" fill="none" fill-rule="evenodd">
        <g id="UPDATED-----Application-Initiation-2---BAI" transform="translate(-1154.000000, -227.000000)">
            <g id="Group-11" transform="translate(1146.000000, 219.000000)">
                <g id="noun_Search_3177301" transform="translate(8.000000, 8.000000)">
                    <rect id="Rectangle" x="0" y="0" width="20" height="20"></rect>
                    <g id="Group" transform="translate(0.625000, 0.625000)" fill="#0079B8" fill-rule="nonzero">
                        <path d="M6.875,13.75 C3.084375,13.75 0,10.665625 0,6.875 C0,3.084375 3.084375,0 6.875,0 C10.665625,0 13.75,3.084375 13.75,6.875 C13.75,10.665625 10.665625,13.75 6.875,13.75 Z M6.875,1.25 C3.773125,1.25 1.25,3.77375 1.25,6.875 C1.25,9.97625 3.773125,12.5 6.875,12.5 C9.976875,12.5 12.5,9.97625 12.5,6.875 C12.5,3.77375 9.976875,1.25 6.875,1.25 Z" id="Shape"></path>
                        <path d="M18.125,18.75 C17.965,18.75 17.805,18.68875 17.683125,18.566875 L11.039375,11.92375 C10.795,11.679375 10.795,11.284375 11.039375,11.04 C11.28375,10.795625 11.67875,10.795625 11.923125,11.04 L18.566875,17.683125 C18.81125,17.9275 18.81125,18.3225 18.566875,18.566875 C18.445,18.68875 18.285,18.75 18.125,18.75 Z" id="Path"></path>
                    </g>
                </g>
            </g>
        </g>
    </g>
</svg>