<?xml version="1.0" encoding="UTF-8"?>
<svg width="28px" height="28px" viewBox="0 0 28 28" version="1.1" xmlns="http://www.w3.org/2000/svg" xmlns:xlink="http://www.w3.org/1999/xlink">
    <!-- Generator: Sketch 64 (93537) - https://sketch.com -->
    <title>noun_setting_1275726</title>
    <desc>Created with Sketch.</desc>
    <g id="APPLN-INIT" stroke="none" stroke-width="1" fill="none" fill-rule="evenodd" opacity="0.65">
        <g id="UPDATED-----Application-Initiation-2---BAI" transform="translate(-1253.000000, -16.000000)" fill="#FFFFFF" fill-rule="nonzero" stroke="#FFFFFF" stroke-width="0.5">
            <g id="Group-20" transform="translate(870.000000, 7.000000)">
                <g id="noun_setting_1275726" transform="translate(384.000000, 10.000000)">
                    <g id="Group">
                        <path d="M12.7750549,25.9995702 C12.7499288,25.9995702 12.7248027,25.9995702 12.699941,25.9990412 C11.3730164,25.9683609 10.2471008,25.134173 9.83132935,23.8736343 C9.65068563,23.32562 9.26083372,22.8960952 8.7331848,22.6628189 C8.20606486,22.4295425 7.62525427,22.4316584 7.09866332,22.6670506 C5.88864136,23.2087173 4.51278685,22.9389419 3.595815,21.9788589 C2.67937215,21.0193049 2.47307331,19.6333999 3.07028199,18.4479751 C3.32974243,17.933286 3.3580424,17.3535334 3.1498922,16.8155695 C2.9414775,16.2781346 2.52993775,15.8687097 1.99118043,15.6629399 C0.751536067,15.1889815 -0.0297546167,14.0257736 0.000925708333,12.6991134 C0.0316060333,11.3724532 0.865793879,10.2462732 2.1260681,9.83103068 C2.67381795,9.65012246 3.10360716,9.26027061 3.33661905,8.73235718 C3.56936645,8.20497275 3.56804402,7.62469115 3.33265178,7.09836465 C2.79072062,5.88702026 3.06076052,4.51169474 4.0208435,3.59551633 C4.98013306,2.67880898 6.36603798,2.47145221 7.5517273,3.07024775 C8.06668092,3.3299727 8.64669802,3.35800817 9.18386842,3.14959347 C9.7218323,2.94117877 10.1312561,2.52963902 10.337026,1.99114619 C10.8104553,0.751766437 11.9911194,-0.0136552542 13.300059,0.000430690508 C14.6269836,0.0313074667 15.7528992,0.865495312 16.1686706,2.12550493 C16.3493144,2.67351928 16.7391663,3.10304399 17.2668152,3.33632038 C17.7941996,3.56959677 18.3750102,3.56748085 18.9013367,3.33208861 C20.1113586,2.78989295 21.4872132,3.06019735 22.404185,4.02028033 C23.3206279,4.97983438 23.5269267,6.3657393 22.929718,7.55116413 C22.6699931,8.06638224 22.6419576,8.64613485 22.8503723,9.18409868 C23.058787,9.72153357 23.4700623,10.1309574 24.0085551,10.3361983 C25.2484639,10.8101566 26.0297546,11.9733646 25.9990743,13.3000248 C25.968394,14.626685 25.1342061,15.7528649 23.8739319,16.1681075 C23.326182,16.3490167 22.8963928,16.7388686 22.6633809,17.266782 C22.4306336,17.7941664 22.431956,18.374448 22.6673482,18.9007745 C22.6673482,18.9007745 22.6673482,18.9007745 22.6676127,18.9007745 C23.2092794,20.1126479 22.9392395,21.4874444 21.9791565,22.4041518 C21.0196024,23.3208591 19.6331685,23.526629 18.4482727,22.9288914 C17.9330546,22.6696954 17.353302,22.641131 16.8158671,22.8500746 C16.2781677,23.0584893 15.8687439,23.4695001 15.662974,24.0079929 C15.1985372,25.2246272 14.0702413,25.9995702 12.7750549,25.9995702 Z M7.92042035,21.4086278 C8.34677128,21.4086278 8.7731222,21.4964371 9.17090866,21.6720555 C9.97071335,22.0254084 10.586436,22.7040786 10.8601787,23.5340347 C11.1881409,24.5285009 12.0384624,24.8998388 12.7248027,24.9157079 C13.4164327,24.9448013 14.2775981,24.600441 14.6510518,23.621844 C14.9628805,22.8051122 15.6092835,22.1555353 16.4244283,21.8397395 C17.2395732,21.5239436 18.1557516,21.5683771 18.9357198,21.9619318 C19.8712057,22.4316584 20.7342224,22.0941746 21.2314555,21.6202163 C21.7278952,21.146258 22.1061097,20.2993748 21.6787008,19.3435236 L22.1730246,19.1224136 L21.6787008,19.3429947 C21.3216452,18.5453058 21.3192648,17.6291275 21.6723531,16.8293228 C22.0254415,16.0295171 22.7043762,15.4132655 23.5348613,15.1397873 C24.5290629,14.811825 24.9004009,13.9612391 24.9160055,13.2751633 C24.9318747,12.5885584 24.6004741,11.7221034 23.6224061,11.3491785 C22.8054098,11.0370854 22.155833,10.3906824 21.8400371,9.57500862 C21.5242412,8.75986377 21.5686748,7.84421435 21.9622295,7.06345261 C22.433543,6.12876025 22.0947368,5.26495 21.620514,4.7682459 C21.1468201,4.27207078 20.298879,3.89385625 19.3435568,4.32126511 C18.5458679,4.67779179 17.6294251,4.68043664 16.8290914,4.3270838 C16.0292868,3.97373091 15.4135641,3.29506071 15.1398215,2.46510463 C14.8118592,1.47063849 13.9615377,1.09930058 13.2751974,1.08343143 C12.5930889,1.08977911 11.722402,1.39975631 11.3489483,2.37729537 C11.0371197,3.19455614 10.3907166,3.84413293 9.5753073,4.15992882 C8.76016245,4.47519578 7.84398404,4.43076216 7.06401578,4.03720747 C6.12905892,3.56695192 5.26577767,3.90496465 4.76880907,4.37892298 C4.27210496,4.85288131 3.89389043,5.70029341 4.32129929,6.65614468 C4.67835496,7.45383351 4.68073531,8.37001187 4.32764697,9.16981655 C3.97455863,9.96962124 3.29562388,10.5858729 2.46513881,10.859351 C1.47093716,11.1873133 1.09986375,12.0378992 1.0839946,12.7239751 C1.06812545,13.4105799 1.399526,14.277035 2.37785855,14.6504887 C3.19459032,14.9625818 3.84416717,15.6095138 4.15996306,16.4246597 C4.47575895,17.2398045 4.43106089,18.1549249 4.0377707,18.9356867 C3.56645721,19.870379 3.90526338,20.7341893 4.3794862,21.2308934 C4.85370903,21.7275975 5.70165012,22.106341 6.65644341,21.6778742 C7.05766804,21.4985529 7.48904417,21.4086278 7.92042035,21.4086278 Z" id="Shape"></path>
                        <path d="M12.9998678,20.0412369 C9.11695357,20.0412369 5.95820111,16.8822199 5.95820111,12.9995692 C5.95820111,9.11691842 9.11695357,5.95790249 12.9998678,5.95790249 C16.882782,5.95790249 20.0415344,9.11691945 20.0415344,12.9995692 C20.0415344,16.8822189 16.882782,20.0412369 12.9998678,20.0412369 Z M12.9998678,7.04123582 C9.71442669,7.04123582 7.04153445,9.71412807 7.04153445,12.9995692 C7.04153445,16.2850102 9.71442669,18.9579035 12.9998678,18.9579035 C16.2853089,18.9579035 18.9582011,16.2850113 18.9582011,12.9995692 C18.9582011,9.71412704 16.2853088,7.04123582 12.9998678,7.04123582 Z" id="Shape"></path>
                    </g>
                </g>
            </g>
        </g>
    </g>
</svg>