<?xml version="1.0" encoding="UTF-8"?>
<svg width="30px" height="30px" viewBox="0 0 30 30" version="1.1" xmlns="http://www.w3.org/2000/svg" xmlns:xlink="http://www.w3.org/1999/xlink">
    <title>Vehicle Loan Details_1</title>
    <g id="Page-1" stroke="none" stroke-width="1" fill="none" fill-rule="evenodd">
        <g id="Vehicle-Loan-Details_1">
            <g id="Rectangle-2">
                <rect id="Rectangle" x="0" y="0" width="30" height="30"></rect>
            </g>
            <g id="Group-271" transform="translate(3.000000, 1.000000)" fill="#8E8E8E" fill-rule="nonzero">
                <path d="M15.0808,10.7571333 L13.7853333,10.3254667 L12.4632667,9.0034 C12.37572,8.9159 12.2570933,8.86666667 12.1333333,8.86666667 L7.93333333,8.86666667 C7.80957333,8.86666667 7.69085333,8.9159 7.6034,9.0034 L6.29673333,10.3100667 L4.55513333,10.7454667 C4.34606667,10.7968933 4.199356,10.98468 4.19999789,11.2 L4.19999789,13.5333333 C4.19999789,13.7910267 4.40895467,14 4.66666667,14 L5.68586667,14 C5.938744,14.72576 6.73207733,15.1091733 7.4578,14.8563333 C7.85894667,14.7166133 8.17432,14.40124 8.31413333,14 L11.2858667,14 C11.5387067,14.72576 12.33204,15.1091733 13.0578,14.8563333 C13.4589467,14.7166133 13.77432,14.40124 13.9141333,14 L14.9333333,14 C15.1910267,14 15.4000001,13.7910267 15.4000001,13.5333333 L15.4000001,11.2 C15.4000001,10.9990533 15.2713867,10.8206933 15.0808,10.7571333 Z M7,14 C6.74227867,14 6.53333333,13.7910267 6.53333333,13.5333333 C6.53333333,13.27564 6.74227867,13.0666667 7,13.0666667 C7.257712,13.0666667 7.46666667,13.27564 7.46666667,13.5333333 C7.46666667,13.7910267 7.257712,14 7,14 Z M12.6,14 C12.3423067,14 12.1333333,13.7910267 12.1333333,13.5333333 C12.1333333,13.27564 12.3423067,13.0666667 12.6,13.0666667 C12.8576933,13.0666667 13.0666667,13.27564 13.0666667,13.5333333 C13.0666667,13.7910267 12.8576933,14 12.6,14 Z M14.4666667,13.0666667 L13.9202,13.0666667 C13.9146,13.0508 13.9062,13.0368 13.9001333,13.02 C13.8898667,12.9938667 13.8777333,12.9691333 13.8660667,12.9439333 C13.8418933,12.8922267 13.81464,12.8421067 13.7844,12.7936667 C13.7704,12.7708 13.7568667,12.747 13.741,12.726 C13.7018933,12.67084 13.6587733,12.6186667 13.6122,12.5696667 C13.6024,12.5594 13.594,12.5477333 13.5842,12.5379333 C13.52652,12.4809067 13.4639867,12.42892 13.3975333,12.3825333 C13.3774667,12.3713333 13.3569333,12.3606 13.3378,12.3484667 C13.2870267,12.3165467 13.2343867,12.2878933 13.1800667,12.2626 C13.1544,12.2509333 13.1282667,12.2406667 13.1016667,12.2304 C13.04688,12.2092133 12.9907867,12.19176 12.9336667,12.1781333 C12.908,12.1716 12.8832667,12.1641333 12.8571333,12.1594667 C12.6878267,12.1247467 12.5131067,12.1247467 12.3438,12.1594667 C12.3176667,12.1641333 12.2929333,12.1716 12.2672667,12.1781333 C12.2101467,12.19176 12.1540533,12.2092133 12.0992667,12.2304 C12.0726667,12.2406667 12.047,12.2509333 12.0213333,12.2626 C11.9668267,12.2878 11.9139067,12.3164533 11.8631333,12.3484667 C11.844,12.3606 11.8234667,12.3713333 11.8048,12.3839333 C11.7382533,12.43032 11.6758133,12.4823067 11.6181333,12.5393333 C11.6083333,12.5491333 11.5999333,12.5608 11.5901333,12.5710667 C11.54356,12.6200667 11.50044,12.67224 11.4613333,12.7274 C11.4459333,12.7493333 11.4319333,12.7740667 11.4179333,12.7950667 C11.3876933,12.8435067 11.36044,12.8936267 11.3362667,12.9453333 C11.3241333,12.9705333 11.3124667,12.9952667 11.3022,13.0214 C11.2961333,13.0368 11.2877333,13.0508 11.2821333,13.0680667 L8.3202,13.0680667 C8.3146,13.0522 8.3062,13.0382 8.30013333,13.0214 C8.28986667,12.9952667 8.27773333,12.9705333 8.26606667,12.9453333 C8.24189333,12.8936267 8.21464,12.8435067 8.1844,12.7950667 C8.1704,12.7722 8.15686667,12.7484 8.141,12.7274 C8.10189333,12.67224 8.05877333,12.6200667 8.0122,12.5710667 C8.0024,12.5608 7.994,12.5491333 7.9842,12.5393333 C7.92652,12.4823067 7.86398667,12.43032 7.79753333,12.3839333 C7.77886667,12.3713333 7.75833333,12.3606 7.7392,12.3484667 C7.68842667,12.3165467 7.63578667,12.2878933 7.58146667,12.2626 C7.5558,12.2509333 7.52966667,12.2406667 7.50306667,12.2304 C7.44828933,12.2092133 7.39217733,12.19176 7.33506667,12.1781333 C7.3094,12.1716 7.28466667,12.1641333 7.25853333,12.1594667 C7.08918933,12.1247467 6.914544,12.1247467 6.7452,12.1594667 C6.71906667,12.1641333 6.69433333,12.1716 6.66866667,12.1781333 C6.611556,12.19176 6.555444,12.2092133 6.50066667,12.2304 C6.47406667,12.2406667 6.4484,12.2509333 6.42273333,12.2626 C6.36818933,12.2878 6.315344,12.3164533 6.26453333,12.3484667 C6.2454,12.3606 6.22486667,12.3713333 6.2062,12.3839333 C6.1397,12.43032 6.07722267,12.4823067 6.01953333,12.5393333 C6.00973333,12.5491333 6.00133333,12.5608 5.99153333,12.5710667 C5.94492267,12.6200667 5.90187733,12.67224 5.86273333,12.7274 C5.84733333,12.7493333 5.83333333,12.7740667 5.81933333,12.7950667 C5.78912133,12.8435067 5.761812,12.8936267 5.73766667,12.9453333 C5.72553333,12.9705333 5.71386667,12.9952667 5.7036,13.0214 C5.69753333,13.0368 5.68913333,13.0508 5.68353333,13.0680667 L5.13333333,13.0680667 L5.13333333,11.5644667 L6.64673333,11.186 C6.72868933,11.1654667 6.80353333,11.123 6.86326667,11.0632667 L8.12653333,9.8 L11.9401333,9.8 L13.2034,11.0632667 C13.2547333,11.1144133 13.3171733,11.1530533 13.3858667,11.1762 L14.4666667,11.5364667 L14.4666667,13.0666667 Z" id="Shape"></path>
                <path d="M23.66336,10.4034 L22.26336,9.0034 C22.0811733,8.82122267 21.7857733,8.82122267 21.6034933,9.0034 L19.1334267,11.4734667 L19.1334267,5.13333333 C19.1319333,3.84533333 18.0880933,2.80152133 16.8000933,2.8 L11.66676,2.8 L11.66676,1.86666667 C11.66676,0.8357412 10.8310533,0 9.80009333,0 C8.76922667,0 7.93342667,0.8357412 7.93342667,1.86666667 L7.93342667,2.8 L2.800112,2.8 C1.512112,2.80152133 0.4683,3.84533333 0.466778667,5.13333333 L0.466778667,25.6666667 C0.4683,26.9546667 1.512112,27.9985067 2.800112,28 L16.8000933,28 C18.0880933,27.9985067 19.1319333,26.9546667 19.1334267,25.6666667 L19.1334267,15.5932 L23.66336,11.0632667 C23.8455467,10.88108 23.8455467,10.5855867 23.66336,10.4034 Z M16.8000933,3.73333333 C17.57336,3.73333333 18.2000933,4.36012267 18.2000933,5.13333333 L18.2000933,12.4068 L17.26676,13.3401333 L17.26676,5.13333333 C17.26676,4.87562133 17.0577867,4.66666667 16.8000933,4.66666667 L14.5568267,4.66666667 L14.2068267,3.73333333 L16.8000933,3.73333333 Z M12.7368267,19.9299333 C12.7764,19.9680133 12.82232,19.9986267 12.8726267,20.0204667 C12.8842933,20.0260667 12.8954933,20.0307333 12.9076267,20.0354 C12.9574667,20.05444 13.0102,20.0648933 13.0634933,20.0662 L13.06676,20.0662 C13.1050267,20.0661067 13.1431067,20.06144 13.18016,20.0522 L15.0468267,19.5855333 C15.1287733,19.565 15.2036267,19.5225333 15.26336,19.4628 L16.3334267,18.3932 L16.3334267,21.4666667 L13.06676,21.4666667 C12.8090667,21.4666667 12.6000933,21.67564 12.6000933,21.9333333 L12.6000933,25.2 L3.26677867,25.2 L3.26677867,5.6 L4.69337867,5.6 L4.229512,6.8362 C4.13903467,7.07752267 4.26136667,7.3465 4.50268933,7.43697733 C4.55513333,7.45663333 4.61072267,7.46672267 4.66677867,7.46666667 L14.9334267,7.46666667 C15.19112,7.466844 15.4001867,7.25801067 15.4003733,7.00028933 C15.4004667,6.94423333 15.3903867,6.888644 15.3706933,6.8362 L14.9068267,5.6 L16.3334267,5.6 L16.3334267,14.2734667 L13.2034933,17.4034 C13.14376,17.4631333 13.1012933,17.5379867 13.08076,17.6199333 L12.6140933,19.4866 C12.57424,19.64564 12.6209067,19.81392 12.7368267,19.9299333 Z M16.3334267,23.0598667 L16.3334267,25.2 L14.1932933,25.2 L16.3334267,23.0598667 Z M13.5334267,24.5401333 L13.5334267,22.4 L15.67356,22.4 L13.5334267,24.5401333 Z M5.80404533,5.29666667 L6.39017867,3.73333333 L8.40009333,3.73333333 C8.65778667,3.73333333 8.86676,3.52437867 8.86676,3.26666667 L8.86676,1.86666667 C8.86676,1.35117733 9.28461333,0.933333333 9.80009333,0.933333333 C10.3155733,0.933333333 10.7334267,1.35117733 10.7334267,1.86666667 L10.7334267,3.26666667 C10.7334267,3.52437867 10.9424,3.73333333 11.2000933,3.73333333 L13.2100267,3.73333333 L13.79616,5.29666667 L14.2600267,6.53333333 L5.34017867,6.53333333 L5.80404533,5.29713333 L5.80404533,5.29666667 Z M18.2000933,25.6666667 C18.2000933,26.43984 17.57336,27.0666667 16.8000933,27.0666667 L2.800112,27.0666667 C2.02690133,27.0666667 1.400112,26.43984 1.400112,25.6666667 L1.400112,5.13333333 C1.400112,4.36012267 2.02690133,3.73333333 2.800112,3.73333333 L5.39337867,3.73333333 L5.04337867,4.66666667 L2.800112,4.66666667 C2.5424,4.66666667 2.33344533,4.87562133 2.33344533,5.13333333 L2.33344533,25.6666667 C2.33344533,25.92436 2.5424,26.1333333 2.800112,26.1333333 L16.8000933,26.1333333 C17.0577867,26.1333333 17.26676,25.92436 17.26676,25.6666667 L17.26676,17.4598667 L18.2000933,16.5265333 L18.2000933,25.6666667 Z M18.3368267,15.0700667 L16.47016,16.9367333 L14.6968267,18.7100667 L13.7102933,18.9564667 L13.9566933,17.9699333 L17.1300267,14.7966 L18.9966933,12.9299333 L20.5334267,11.3932 L21.27356,12.1333333 L18.3368267,15.0700667 Z M21.9334267,11.4734667 L21.1932933,10.7333333 L21.9334267,9.9932 L22.67356,10.7333333 L21.9334267,11.4734667 Z" id="Shape"></path>
                <polygon id="Path" points="12.6000933 15.8666667 4.66677867 15.8666667 4.66677867 16.8 12.6000933 16.8"></polygon>
                <polygon id="Path" points="11.2000933 17.7333333 4.66677867 17.7333333 4.66677867 18.6666667 11.2000933 18.6666667"></polygon>
                <polygon id="Path" points="11.2000933 19.6 4.66677867 19.6 4.66677867 20.5333333 11.2000933 20.5333333"></polygon>
                <polygon id="Path" points="11.2000933 21.4666667 4.66677867 21.4666667 4.66677867 22.4 11.2000933 22.4"></polygon>
            </g>
        </g>
    </g>
</svg>