<?xml version="1.0" encoding="utf-8"?>
<!-- Generator: Adobe Illustrator 23.0.1, SVG Export Plug-In . SVG Version: 6.00 Build 0)  -->
<svg version="1.1" id="Layer_1" xmlns="http://www.w3.org/2000/svg" xmlns:xlink="http://www.w3.org/1999/xlink" x="0px" y="0px"
	 viewBox="0 0 22 22" style="enable-background:new 0 0 22 22;" xml:space="preserve">
<title>Group 50</title>
<desc>Created with Sketch.</desc>
<g id="Page-1">
	<g transform="translate(-1141.000000, -1488.000000)">
		<g id="Group-88" transform="translate(928.000000, 1381.000000)">
			<g id="Group-50" transform="translate(213.000000, 107.000000)">
				<path id="Shape" d="M20.1,7.9h-4.2c0.4-0.7,0.6-1.6,0.6-2.5C16.5,2.4,14,0,11,0S5.5,2.4,5.5,5.5c0,0.9,0.2,1.7,0.6,2.5H1.9
					C0.9,7.9,0,8.8,0,9.9v10.2c0,0.6,0.3,1.2,0.8,1.6c0,0,0,0,0,0C1.1,21.9,1.5,22,1.9,22h18.1c0.4,0,0.8-0.1,1.1-0.3c0,0,0,0,0,0
					c0.5-0.4,0.8-0.9,0.8-1.6V9.9C22,8.8,21.1,7.9,20.1,7.9z M1.3,20.1V9.9c0,0,0-0.1,0-0.1l6.6,5.2l-6.6,5.3
					C1.3,20.2,1.3,20.1,1.3,20.1z M9,15.7l0.8,0.6c0.4,0.3,0.8,0.4,1.2,0.4s0.8-0.1,1.2-0.4l0.8-0.6l6.2,5H2.7L9,15.7z M14.1,14.9
					l6.6-5.2c0,0,0,0.1,0,0.1v10.2c0,0,0,0.1,0,0.1L14.1,14.9z M11,1.3c2.3,0,4.2,1.9,4.2,4.2S13.3,9.6,11,9.6S6.8,7.8,6.8,5.5
					S8.7,1.3,11,1.3z M11,10.9c1.5,0,2.9-0.6,3.9-1.7h4.3l-6.7,5.2l-1.2,1c-0.2,0.2-0.6,0.2-0.8,0l-1.2-1L2.7,9.2h4.3
					C8.1,10.3,9.5,10.9,11,10.9z"/>
				<path id="Path" d="M11,8.2c0.4,0,0.6-0.3,0.6-0.6V5.5c0-0.4-0.3-0.6-0.6-0.6s-0.6,0.3-0.6,0.6v2.1C10.4,7.9,10.6,8.2,11,8.2z"/>
				<circle id="Oval" cx="11" cy="3.4" r="1"/>
			</g>
		</g>
	</g>
</g>
</svg>
