<svg xmlns="http://www.w3.org/2000/svg" width="139" height="25" viewBox="0 0 139 25">
  <g fill="none" fill-rule="evenodd">
    <g transform="translate(91)">
      <g fill="#FFF" transform="translate(0 1)">
        <path d="M35.7405405,1.3758419 C35.1135135,0.494443183 34.4864865,0.107487648 33.3621622,0.107487648 L28.7351351,0.107487648 L29.6864865,0.816906128 L40.8864865,16.5960929 L46.6810811,16.5960929 L35.7405405,1.3758419 Z"/>
        <path d="M43.3297297.0859901188L47.6540541.0859901188 37.772973 13.6509314C36.3891892 15.4352263 33.9027027 16.5745954 32.2378378 16.5745954L26.2702703 16.5745954C26.2702703 16.5745954 29.0594595 15.8866744 31.5027027 13.5434437 33.7513514 11.3936907 35.1567568 9.35142541 35.1567568 9.35142541L41.0162162 1.28985178C41.5351351.515940713 42.4.0859901188 43.3297297.0859901188M5.2972973 9.43741553C5.2972973 8.06157363 4.17297297 6.92220456 2.76756757 6.92220456 1.38378378 6.92220456.237837838 8.0400761.237837838 9.43741553L.237837838 14.0808819C.237837838 15.4567238 1.36216216 16.5960929 2.76756757 16.5960929 4.15135135 16.5960929 5.2972973 15.4782214 5.2972973 14.0808819L5.2972973 9.43741553zM5.34054054 3.18163439C5.34054054 4.60047135 4.19459459 5.73984043 2.76756757 5.73984043 1.34054054 5.73984043.194594595 4.57897382.194594595 3.18163439.194594595 1.78429496 1.34054054.623428361 2.74594595.623428361 4.17297297.623428361 5.34054054 1.78429496 5.34054054 3.18163439"/>
        <path fill-rule="nonzero" d="M20.6054054,9.2654353 C20.0432432,8.57751435 19.1567568,8.08307116 17.9675676,7.80360328 C18.7459459,7.52413539 19.3513514,7.15867739 19.7621622,6.70722926 C20.3675676,5.99781078 20.6702703,5.18090465 20.6702703,4.19201829 C20.6702703,3.03115169 20.2378378,2.04226532 19.3945946,1.26835425 C18.7459459,0.66642342 17.8594595,0.300965416 16.7783784,0.171980238 L16.7567568,0.128985178 L16.3459459,0.128985178 C16.1513514,0.107487648 15.9351351,0.107487648 15.7189189,0.107487648 L6.59459459,0.107487648 L6.59459459,16.5960929 L14.9621622,16.5960929 C15.3297297,16.5960929 16.1081081,16.5316003 17.2540541,16.3811176 C18.1189189,16.27363 18.7675676,16.0801522 19.2,15.8436794 C19.8918919,15.4352263 20.4324324,14.8977881 20.8432432,14.2313647 C21.2540541,13.5434437 21.4486486,12.7695326 21.4486486,11.931129 C21.4486486,10.834755 21.1675676,9.95335625 20.6054054,9.2654353 Z M11.2648649,3.39660969 L13.5351351,3.39660969 C14.3135135,3.39660969 14.8540541,3.52559487 15.1783784,3.80506275 C15.4810811,4.08453064 15.6540541,4.44998865 15.6540541,4.9229343 C15.6540541,5.43887501 15.5027027,5.84732808 15.1783784,6.10529843 C14.8540541,6.38476632 14.3135135,6.5137515 13.5135135,6.5137515 L11.2648649,6.5137515 L11.2648649,3.39660969 Z M15.7621622,12.5545573 C15.3945946,12.8770203 14.7675676,13.027503 13.8810811,13.027503 L11.2648649,13.027503 L11.2648649,9.67388836 L13.8810811,9.67388836 C14.7891892,9.67388836 15.4162162,9.82437107 15.7621622,10.1253365 C16.1297297,10.4263019 16.3027027,10.8132574 16.3027027,11.3077006 C16.3027027,11.8236413 16.1297297,12.2535919 15.7621622,12.5545573 Z"/>
        <polygon points="16.757 .107 24.497 13.5 24.497 7.352 20.303 .107"/>
        <polygon points="24.497 7.352 24.497 13.5 32.259 .107 28.714 .107"/>
        <polygon points="24.497 13.5 24.497 16.575 22.724 16.575 14.962 3.182 16.757 .107"/>
        <polygon points="32.259 .107 24.497 13.5 24.497 16.575 26.292 16.575 34.032 3.182"/>
        <g transform="translate(0 19.348)">
          <path fill-rule="nonzero" d="M.0432432432.193477767L1.49189189.193477767C2.07567568.193477767 2.46486486.537438242 2.46486486 1.11787154 2.46486486 1.69830485 2.07567568 2.04226532 1.49189189 2.04226532L.345945946 2.04226532.345945946 3.43960475.0432432432 3.43960475.0432432432.193477767zM.345945946 1.80579249L1.42702703 1.80579249C1.85945946 1.80579249 2.16216216 1.5908172 2.16216216 1.13936907 2.16216216.68792095 1.85945946.472945653 1.42702703.472945653L.345945946.472945653.345945946 1.80579249zM4.99459459 2.27873815C4.99459459 2.94516157 4.60540541 3.52559487 3.87027027 3.52559487 3.15675676 3.52559487 2.74594595 2.9666591 2.74594595 2.27873815 2.74594595 1.61231473 3.13513514 1.03188143 3.87027027 1.03188143 4.58378378 1.03188143 4.99459459 1.61231473 4.99459459 2.27873815zM3.04864865 2.27873815C3.04864865 2.77318133 3.32972973 3.28912204 3.87027027 3.28912204 4.41081081 3.28912204 4.69189189 2.79467886 4.69189189 2.27873815 4.69189189 1.78429496 4.41081081 1.26835425 3.87027027 1.26835425 3.32972973 1.26835425 3.04864865 1.78429496 3.04864865 2.27873815z"/>
          <polygon points="5.189 1.096 5.492 1.096 6.097 3.117 6.097 3.117 6.681 1.096 7.005 1.096 7.589 3.117 7.589 3.117 8.195 1.096 8.497 1.096 7.741 3.44 7.416 3.44 6.832 1.462 6.832 1.462 6.249 3.44 5.924 3.44"/>
          <path fill-rule="nonzero" d="M8.99459459,2.36472827 C8.99459459,2.77318133 9.21081081,3.28912204 9.77297297,3.28912204 C10.1837838,3.28912204 10.4216216,3.05264922 10.5081081,2.68719121 L10.7891892,2.68719121 C10.6594595,3.22462945 10.3567568,3.52559487 9.75135135,3.52559487 C8.99459459,3.52559487 8.69189189,2.94516157 8.69189189,2.27873815 C8.69189189,1.65530979 9.01621622,1.03188143 9.75135135,1.03188143 C10.5081081,1.03188143 10.8108108,1.69830485 10.7891892,2.34323074 L8.99459459,2.34323074 L8.99459459,2.36472827 Z M10.5081081,2.10675791 C10.4864865,1.67680732 10.227027,1.26835425 9.75135135,1.26835425 C9.27567568,1.26835425 9.01621622,1.67680732 8.97297297,2.10675791 L10.5081081,2.10675791 Z"/>
          <path d="M11.2,1.09637401 L11.4594595,1.09637401 L11.4594595,1.65530979 C11.6108108,1.26835425 11.9351351,1.05337895 12.3459459,1.07487648 L12.3459459,1.35434437 C11.827027,1.33284684 11.4594595,1.71980238 11.4594595,2.19274803 L11.4594595,3.43960475 L11.1783784,3.43960475 L11.1783784,1.09637401 L11.2,1.09637401 Z"/>
          <path fill-rule="nonzero" d="M12.7135135 2.36472827C12.7135135 2.77318133 12.9297297 3.28912204 13.4918919 3.28912204 13.9027027 3.28912204 14.1405405 3.05264922 14.227027 2.68719121L14.5081081 2.68719121C14.3783784 3.22462945 14.0756757 3.52559487 13.4702703 3.52559487 12.7135135 3.52559487 12.4108108 2.94516157 12.4108108 2.27873815 12.4108108 1.65530979 12.7351351 1.03188143 13.4702703 1.03188143 14.227027 1.03188143 14.5297297 1.69830485 14.5081081 2.34323074L12.7135135 2.34323074 12.7135135 2.36472827zM14.2486486 2.10675791C14.227027 1.67680732 13.9675676 1.26835425 13.4918919 1.26835425 13.0162162 1.26835425 12.7567568 1.67680732 12.7135135 2.10675791L14.2486486 2.10675791zM17.0162162 3.46110228L16.7567568 3.46110228 16.7567568 3.00965416C16.627027 3.31061957 16.2594595 3.52559487 15.9135135 3.52559487 15.2 3.52559487 14.8540541 2.94516157 14.8540541 2.27873815 14.8540541 1.61231473 15.2 1.03188143 15.9135135 1.03188143 16.2594595 1.03188143 16.6054054 1.20386166 16.7351351 1.54782214L16.7351351.193477767 17.0162162.193477767 17.0162162 3.46110228zM15.8918919 3.28912204C16.4972973 3.28912204 16.7135135 2.77318133 16.7135135 2.27873815 16.7135135 1.78429496 16.4972973 1.26835425 15.8918919 1.26835425 15.3513514 1.26835425 15.1135135 1.78429496 15.1135135 2.27873815 15.1135135 2.77318133 15.3513514 3.28912204 15.8918919 3.28912204zM18.8324324.193477767L19.1135135.193477767 19.1135135 1.54782214C19.2432432 1.20386166 19.5891892 1.03188143 19.9351351 1.03188143 20.6486486 1.03188143 20.9945946 1.61231473 20.9945946 2.27873815 20.9945946 2.94516157 20.6486486 3.52559487 19.9351351 3.52559487 19.5459459 3.52559487 19.2216216 3.3321171 19.0918919 3.00965416L19.0918919 3.46110228 18.8324324 3.46110228 18.8324324.193477767zM19.9567568 1.26835425C19.3513514 1.26835425 19.1351351 1.78429496 19.1351351 2.27873815 19.1351351 2.77318133 19.3513514 3.28912204 19.9567568 3.28912204 20.4972973 3.28912204 20.7351351 2.77318133 20.7351351 2.27873815 20.7351351 1.78429496 20.4972973 1.26835425 19.9567568 1.26835425z"/>
          <path d="M21.2108108,1.09637401 L21.5135135,1.09637401 L22.2918919,3.09564428 L23.027027,1.09637401 L23.3081081,1.09637401 L22.2918919,3.80506275 C22.1189189,4.19201829 22.0324324,4.32100347 21.6648649,4.32100347 C21.5567568,4.32100347 21.4918919,4.32100347 21.4486486,4.29950594 L21.4486486,4.06303311 C21.5135135,4.08453064 21.5783784,4.08453064 21.6432432,4.08453064 C21.9027027,4.08453064 21.9675676,3.93404793 22.0540541,3.71907264 L22.1621622,3.46110228 L21.2108108,1.09637401 Z"/>
          <path fill-rule="nonzero" d="M24.9081081.193477767L26.0324324.193477767C27.027027.214975297 27.5243243.752413539 27.5243243 1.82729002 27.5243243 2.90216651 27.0054054 3.43960475 26.0324324 3.46110228L24.9081081 3.46110228 24.9081081.193477767zM25.2324324 3.18163439L25.9027027 3.18163439C26.8324324 3.18163439 27.2432432 2.79467886 27.2432432 1.82729002 27.2432432.859901188 26.8324324.451448123 25.9027027.472945653L25.2324324.472945653 25.2324324 3.18163439zM28 .193477767L28.3870968.193477767 28.3870968.644925891 28 .644925891 28 .193477767zM28 1.09637401L28.3870968 1.09637401 28.3870968 3.43960475 28 3.43960475 28 1.09637401zM30.8540541 3.26762451C30.8540541 3.97704299 30.572973 4.40699359 29.7945946 4.40699359 29.3189189 4.40699359 28.8648649 4.19201829 28.8216216 3.69757511L29.1027027 3.69757511C29.1675676 4.04153558 29.4702703 4.17052076 29.7945946 4.17052076 30.3351351 4.17052076 30.5513514 3.84805781 30.5513514 3.28912204L30.5513514 2.9666591C30.4216216 3.24612698 30.1405405 3.43960475 29.7945946 3.43960475 29.0378378 3.43960475 28.7351351 2.90216651 28.7351351 2.23574309 28.7351351 1.5908172 29.1243243 1.05337895 29.7945946 1.05337895 30.1405405 1.05337895 30.4216216 1.26835425 30.5513514 1.52632461L30.5513514 1.11787154 30.8324324 1.11787154 30.8324324 3.26762451 30.8540541 3.26762451zM30.5513514 2.25724062C30.5513514 1.80579249 30.3351351 1.28985178 29.7945946 1.28985178 29.2540541 1.28985178 29.0162162 1.78429496 29.0162162 2.25724062 29.0162162 2.73018627 29.2540541 3.18163439 29.7945946 3.18163439 30.2918919 3.18163439 30.5513514 2.73018627 30.5513514 2.25724062zM31.3945946.193477767L31.7816914.193477767 31.7816914.644925891 31.3945946.644925891 31.3945946.193477767zM31.3945946 1.09637401L31.7816914 1.09637401 31.7816914 3.43960475 31.3945946 3.43960475 31.3945946 1.09637401z"/>
          <path d="M32.6918919,1.09637401 L33.1675676,1.09637401 L33.1675676,1.33284684 L32.6918919,1.33284684 L32.6918919,2.92366404 C32.6918919,3.1171418 32.7135135,3.22462945 32.9297297,3.22462945 C33.0162162,3.22462945 33.1027027,3.22462945 33.1675676,3.20313192 L33.1675676,3.43960475 C33.0810811,3.43960475 32.9945946,3.43960475 32.9081081,3.43960475 C32.5189189,3.43960475 32.3891892,3.31061957 32.3891892,2.90216651 L32.3891892,1.28985178 L32,1.28985178 L32,1.05337895 L32.4108108,1.05337895 L32.4108108,0.343960475 L32.6918919,0.343960475 L32.6918919,1.09637401 Z"/>
          <path fill-rule="nonzero" d="M33.5783784,1.82729002 C33.6,1.26835425 33.9891892,1.03188143 34.5297297,1.03188143 C34.9405405,1.03188143 35.3945946,1.1608666 35.3945946,1.78429496 L35.3945946,3.03115169 C35.3945946,3.13863933 35.4594595,3.20313192 35.5675676,3.20313192 C35.5891892,3.20313192 35.6324324,3.20313192 35.6540541,3.18163439 L35.6540541,3.41810722 C35.5891892,3.43960475 35.5459459,3.43960475 35.4594595,3.43960475 C35.1567568,3.43960475 35.1135135,3.26762451 35.1135135,3.03115169 C34.9189189,3.3321171 34.7027027,3.50409734 34.2486486,3.50409734 C33.8162162,3.50409734 33.4486486,3.28912204 33.4486486,2.81617639 C33.4486486,2.14975297 34.0972973,2.12825544 34.7243243,2.06376285 C34.9621622,2.04226532 35.0918919,1.99927026 35.0918919,1.7412999 C35.0918919,1.35434437 34.8108108,1.26835425 34.4648649,1.26835425 C34.0972973,1.26835425 33.8378378,1.44033449 33.8378378,1.80579249 L33.5783784,1.80579249 L33.5783784,1.82729002 Z M35.1135135,2.1712505 C35.0702703,2.23574309 34.9405405,2.25724062 34.8540541,2.27873815 C34.3567568,2.36472827 33.7513514,2.36472827 33.7513514,2.81617639 C33.7513514,3.09564428 34.0108108,3.28912204 34.2702703,3.28912204 C34.7027027,3.28912204 35.0918919,3.00965416 35.0918919,2.55820603 L35.0918919,2.1712505 L35.1135135,2.1712505 Z"/>
          <polygon points="35.978 .193 36.259 .193 36.259 3.44 35.978 3.44"/>
          <polygon points="38.141 .193 38.595 .193 39.719 3.053 40.843 .193 41.297 .193 41.297 3.44 40.995 3.44 40.995 .645 40.995 .645 39.87 3.461 39.568 3.461 38.443 .645 38.443 .645 38.443 3.461 38.141 3.461 38.141 .193"/>
          <path fill-rule="nonzero" d="M41.9243243,0.193477767 L42.3114211,0.193477767 L42.3114211,0.644925891 L41.9243243,0.644925891 L41.9243243,0.193477767 Z M41.9243243,1.09637401 L42.3114211,1.09637401 L42.3114211,3.43960475 L41.9243243,3.43960475 L41.9243243,1.09637401 Z"/>
          <path d="M42.9621622,2.3862258 C42.9405405,3.05264922 43.4378378,3.26762451 44.0216216,3.26762451 C44.3675676,3.26762451 44.8864865,3.07414675 44.8864865,2.60120109 C44.8864865,2.23574309 44.5189189,2.08526038 44.2162162,2.02076779 L43.4810811,1.84878755 C43.0918919,1.76279743 42.7459459,1.56931967 42.7459459,1.07487648 C42.7459459,0.752413539 42.9621622,0.150482708 43.8702703,0.150482708 C44.5189189,0.150482708 45.0810811,0.494443183 45.0810811,1.1608666 L44.7783784,1.1608666 C44.7567568,0.66642342 44.3459459,0.408453064 43.8918919,0.408453064 C43.4594595,0.408453064 43.0702703,0.580433302 43.0702703,1.05337895 C43.0702703,1.35434437 43.3081081,1.48332955 43.5675676,1.54782214 L44.3675676,1.7412999 C44.8216216,1.87028508 45.2108108,2.06376285 45.2108108,2.60120109 C45.2108108,2.81617639 45.1243243,3.52559487 43.9567568,3.52559487 C43.1783784,3.52559487 42.6162162,3.18163439 42.6594595,2.3862258 L42.9621622,2.3862258 Z"/>
          <polygon points="45.362 .193 47.957 .193 47.957 .451 46.811 .451 46.811 3.44 46.486 3.44 46.486 .451 45.341 .451 45.341 .193"/>
        </g>
      </g>
      <polygon fill="#000" fill-rule="nonzero" points="23.419 14.186 31.26 0 32 .462 23.411 16 15 .458 15.744 .004"/>
    </g>
    <g fill="#FFF" transform="translate(0 1)">
      <polygon points=".095 14.636 2.881 14.636 2.881 4.18 .095 4.18"/>
      <polygon points=".095 2.749 2.843 2.749 2.843 .092 .095 .092"/>
      <path d="M12.9761882 5.02966667C12.7286353 4.71066667 12.4142118 4.4475 12.0202353 4.26916667 11.6312 4.07916667 11.1654118 3.98666667 10.6245176 3.98666667 10.0877412 3.9865 9.58061176 4.07916667 9.09835294 4.28683333 8.60687059 4.49083333 8.16249412 4.73666667 7.74397647 5.04233333L7.74414118 4.18083333 5.14672941 4.18083333 5.14672941 14.6363333 7.93503529 14.6363333 7.93503529 7.267C8.20070588 6.98816667 8.50310588 6.75683333 8.83795294 6.5905 9.17164706 6.42916667 9.54701176 6.33916667 9.93374118 6.33916667 10.3046588 6.339 10.5540235 6.45433333 10.6996235 6.68683333 10.7632 6.83166667 10.8134353 7.00583333 10.8579059 7.22683333 10.9078118 7.4485 10.9295529 7.72183333 10.9295529 8.03966667L10.9295529 14.6363333 13.7139059 14.6363333 13.7139059 7.59266667C13.7139059 7.09483333 13.6539529 6.6215 13.5281176 6.17533333 13.4040941 5.734 13.2242353 5.345 12.9761882 5.02966667M18.9166353.859666667L16.1311294.859666667 16.1311294 4.17966667 14.7591294 4.17966667 14.7591294 6.53566667 16.1311294 6.53566667 16.1311294 12.3405C16.1311294 13.1896667 16.3716 13.8178333 16.8373882 14.2228333 17.3074588 14.6295 17.9438824 14.8286667 18.7435294 14.8286667 18.9721412 14.8286667 19.1795059 14.8286667 19.3718824 14.8206667 19.5640941 14.8115 19.7279765 14.7988333 19.8707765 14.7921667 20.0069882 14.7816667 20.1553882 14.7616667 20.3084 14.7391667 20.4599294 14.7228333 20.6391294 14.682 20.8591765 14.6363333L20.8591765 12.2276667 20.1766353 12.3956667C19.9763529 12.4456667 19.7648706 12.4766667 19.544 12.4766667 19.3529412 12.4766667 19.2019059 12.4456667 19.0872706 12.3956667 18.9721412 12.3536667 18.9166353 12.2186667 18.9166353 11.992L18.9166353 6.53566667 20.8591765 6.53566667 20.8591765 4.17966667 18.9166353 4.17966667 18.9166353.859666667M24.3013647 7.267C24.3703765 7.04666667 24.4731529 6.862 24.5955294 6.6985 24.7225176 6.53566667 24.8826118 6.40916667 25.0853647 6.3245 25.284 6.232 25.5238118 6.1875 25.8176471 6.1875 26.3214824 6.1875 26.7213882 6.34783333 27.0181882 6.68683333 27.2963765 7.0065 27.4577882 7.4295 27.4979765 7.963L24.1399529 7.963C24.1768471 7.721 24.2374588 7.4875 24.3013647 7.267L24.3013647 7.267zM27.2199529 12.1186667C26.8959765 12.361 26.4919529 12.4766667 26.0088706 12.4766667 25.9416706 12.4766667 25.8785882 12.4755 25.8176471 12.4755 25.5238118 12.4518333 25.2821882 12.3823333 25.0937647 12.2613333 24.8666353 12.1186667 24.6829882 11.938 24.5504 11.706 24.4173176 11.4751667 24.3209647 11.2103333 24.2626588 10.915 24.2058353 10.6161667 24.1572471 10.3153333 24.1221647 10.0055L30.1052706 10.0055 30.1052706 8.65683333C30.1052706 7.96783333 29.9955765 7.35533333 29.7552706 6.80316667 29.5154588 6.25583333 29.2137176 5.75283333 28.8288 5.31866667 28.0375529 4.42933333 27.0463529 3.98666667 25.8382353 3.98666667L25.8176471 3.9865C25.0333176 3.98966667 24.3632941 4.13466667 23.8093882 4.42933333 23.2462588 4.72633333 22.7742118 5.12566667 22.4044471 5.61816667 22.0323765 6.1095 21.7660471 6.68683333 21.5937647 7.3425 21.4213176 7.99816667 21.3368235 8.685 21.3368235 9.40933333 21.3368235 10.1121667 21.4213176 10.8005 21.5937647 11.4471667 21.7660471 12.0911667 22.0323765 12.6678333 22.3861647 13.1718333 22.7384706 13.6718333 23.1956941 14.078 23.7555294 14.375 24.3209647 14.6776667 24.9903294 14.8293333 25.7578588 14.8293333L25.8176471 14.8293333C26.7849647 14.8243333 27.5926824 14.655 28.2592471 14.3251667 28.6117176 14.1631667 28.9440941 13.9348333 29.2573647 13.6445 29.5727765 13.3503333 29.8796235 12.9765 30.1851529 12.515L28.1251765 11.2005C27.8496235 11.5775 27.5467294 11.8795 27.2199529 12.1186667L27.2199529 12.1186667z"/>
      <polygon points="31.882 14.636 34.666 14.636 34.666 .285 31.882 .285"/>
      <polygon points="37.18 14.636 39.963 14.636 39.963 .285 37.18 .285"/>
      <path d="M44.4348471 7.267C44.5022118 7.04666667 44.6068 6.862 44.7319765 6.6985 44.856 6.53566667 45.0157647 6.40916667 45.2168706 6.3245 45.4189647 6.232 45.6549882 6.1875 45.9521176 6.1875 46.4551294 6.1875 46.8570118 6.34783333 47.1518353 6.68683333 47.4285412 7.0065 47.5932471 7.4295 47.6294824 7.963L44.2699765 7.963C44.3083529 7.721 44.3697882 7.4875 44.4348471 7.267L44.4348471 7.267zM47.3516235 12.1186667C47.0243529 12.361 46.6260941 12.4766667 46.1446588 12.4766667 46.0761412 12.4766667 46.0147059 12.4755 45.9521176 12.4755 45.6549882 12.4518333 45.4166588 12.3823333 45.2264235 12.2613333 45.0002824 12.1186667 44.8159765 11.938 44.6852 11.706 44.5503059 11.4751667 44.4541176 11.2135 44.3986118 10.915 44.3406353 10.6161667 44.2902353 10.3153333 44.2554824 10.0055L50.2382588 10.0055 50.2382588 8.65683333C50.2382588 7.96783333 50.1239529 7.35533333 49.8907294 6.80316667 49.6487765 6.25583333 49.3442353 5.75283333 48.9604706 5.31866667 48.1710353 4.42933333 47.1793412 3.98666667 45.9689176 3.98666667L45.9521176 3.9865C45.1712471 3.98966667 44.4961176 4.13466667 43.9413882 4.42933333 43.3744706 4.72633333 42.91 5.12566667 42.5395765 5.61816667 42.1642118 6.1095 41.9016706 6.68683333 41.7259294 7.3425 41.5587529 7.99816667 41.4709647 8.685 41.4709647 9.40933333 41.4711294 10.1121667 41.5587529 10.8005 41.7259294 11.4471667 41.9016706 12.0911667 42.1642118 12.6678333 42.5201412 13.1718333 42.8739294 13.6718333 43.33 14.078 43.8946118 14.375 44.4541176 14.6776667 45.1218353 14.8293333 45.8918353 14.8293333L45.9521176 14.8293333C46.9172941 14.8243333 47.7258353 14.655 48.3924 14.3251667 48.7427294 14.1631667 49.0759294 13.9348333 49.3911765 13.6445 49.7041176 13.3503333 50.0108 12.9765 50.3164941 12.515L48.2576706 11.2005C47.9809647 11.5775 47.6764235 11.8795 47.3516235 12.1186667L47.3516235 12.1186667zM57.2405647 11.4253333C57.1155529 11.6261667 56.9720941 11.8003333 56.8096941 11.9551667 56.6472941 12.112 56.4750118 12.235 56.2767059 12.33 56.0721412 12.4281667 55.8458353 12.4766667 55.5773647 12.4766667 54.9409412 12.4766667 54.4898118 12.235 54.2249647 11.742 53.9314588 11.2135 53.7871765 10.4388333 53.7871765 9.40933333 53.7871765 8.36883333 53.9314588 7.58533333 54.2249647 7.074 54.4812471 6.58033333 54.9229882 6.33866667 55.5401412 6.33866667 55.8074588 6.33866667 56.0372235 6.37816667 56.2190588 6.46716667 56.3971059 6.55216667 56.5604941 6.66233333 56.7062588 6.80316667 56.8470824 6.94916667 56.9613882 7.10983333 57.0684471 7.30966667 57.1707294 7.4995 57.2644471 7.701 57.3499294 7.92333333L59.6978118 6.996C59.4812235 6.40916667 59.2308706 5.91233333 58.9505412 5.54033333 58.6786118 5.16216667 58.3305882 4.86466667 57.9422118 4.64416667 57.1913176 4.20816667 56.3910118 3.98666667 55.5233412 3.98666667 54.1432706 3.9865 53.0349647 4.48033333 52.2237882 5.4545 51.4127765 6.4285 51.0024941 7.75833333 51.0024941 9.42833333 51.0024941 10.1608333 51.0891294 10.8573333 51.2719529 11.5026667 51.4491765 12.1503333 51.716 12.7288333 52.0915294 13.22 52.4598118 13.7115 52.9254353 14.1078333 53.5101412 14.397 54.0900706 14.6823333 54.7689882 14.8293333 55.5580941 14.8293333 56.5208 14.8293333 57.3260471 14.6295 57.9422118 14.2313333 58.2586118 14.0273333 58.5616706 13.7485 58.8579765 13.401 59.1539529 13.0531667 59.4606353 12.6003333 59.7772 12.0335L57.6220235 10.8005C57.4930588 11.0191667 57.3584941 11.2213333 57.2405647 11.4253333M66.4051294 6.535L66.4051294 4.17966667 64.4642353 4.17966667 64.4642353.859666667 61.6831765.859666667 61.6831765 4.17966667 60.3092 4.17966667 60.3092 6.535 61.6831765 6.535 61.6831765 12.3408333C61.6831765 13.1896667 61.9201882 13.8178333 62.3835059 14.2228333 62.8527529 14.6295 63.4918118 14.8286667 64.2896471 14.8286667 64.5207294 14.8286667 64.7313882 14.8286667 64.9212941 14.8206667 65.1125176 14.8115 65.2716235 14.7988333 65.4183765 14.7921667 65.5592 14.7816667 65.7048 14.7616667 65.8588 14.7391667 66.0080235 14.7228333 66.1873882 14.682 66.4051294 14.6363333L66.4051294 12.2276667 65.7239059 12.3956667C65.5242824 12.45 65.3147765 12.4766667 65.0934118 12.4766667 64.9044941 12.4766667 64.7493412 12.45 64.6335529 12.3956667 64.5207294 12.3531667 64.4642353 12.2186667 64.4642353 11.992L64.4642353 6.535 66.4051294 6.535M69.6806353 1.1605L69.6722353 1.1605 69.1007059 2.576 68.9394588 2.576 68.3677647 1.1605 68.3580471 1.1605 68.3580471 2.576 68.0885882 2.576 68.0885882.859666667 68.4904706.859666667 69.0259294 2.17466667 69.5506824.859666667 69.9512471.859666667 69.9512471 2.576 69.6806353 2.576 69.6806353 1.1605 69.6806353 1.1605zM66.9526118 1.10866667L66.4062824 1.10866667 66.4062824.859666667 67.76.859666667 67.76 1.10866667 67.2233882 1.10866667 67.2233882 2.576 66.9526118 2.576 66.9526118 1.10866667 66.9526118 1.10866667zM1.34927059 17.3886667L3.86054118 17.3886667C4.55098824 17.3886667 5.13223529 17.9585 5.13223529 18.6586667L5.13223529 21.217C5.13223529 21.9166667 4.55098824 22.487 3.86054118 22.487L1.34927059 22.487C.658658824 22.487.0942117647 21.9166667.0942117647 21.217L.0942117647 18.6586667C.0942117647 17.9585.658658824 17.3886667 1.34927059 17.3886667M7.78861176 17.3886667L10.3163529 17.3886667C11.0071294 17.3886667 11.5714118 17.9585 11.5714118 18.6586667L11.5714118 21.217C11.5714118 21.9166667 11.0071294 22.487 10.3163529 22.487L7.78861176 22.487C7.09668235 22.487 6.53289412 21.9166667 6.53289412 21.217L6.53289412 18.6586667C6.53289412 17.9585 7.09668235 17.3886667 7.78861176 17.3886667M14.2266353 17.3886667L16.7550353 17.3886667C17.4464706 17.3886667 18.0115765 17.9585 18.0115765 18.6586667L18.0115765 21.217C18.0115765 21.9166667 17.4464706 22.487 16.7550353 22.487L14.2266353 22.487C13.5365176 22.487 12.9722353 21.9166667 12.9722353 21.217L12.9722353 18.6586667C12.9722353 17.9585 13.5365176 17.3886667 14.2266353 17.3886667M22.2448471 22.0658333L22.9054824 22.0658333C23.9971529 22.0658333 24.1192 20.9315 24.1192 20.0013333 24.1192 18.9985 24.0544706 17.9226667 22.9054824 17.9226667L22.2448471 17.9226667 22.2448471 22.0658333 22.2448471 22.0658333zM21.6128706 17.3996667L22.9843765 17.3996667C24.5788941 17.3996667 24.78 18.5625 24.78 19.994 24.78 21.3023333 24.4568471 22.5888333 23.0491059 22.5888333L21.6128706 22.5888333 21.6128706 17.3996667 21.6128706 17.3996667zM27.4182588 20.2338333L27.4182588 20.0231667C27.4182588 19.5871667 27.2822118 19.0708333 26.7507059 19.0708333 26.1185647 19.0708333 26.0467529 19.8558333 26.0467529 20.0881667L26.0467529 20.2338333 27.4182588 20.2338333 27.4182588 20.2338333zM26.0250118 20.7135C26.0250118 21.3096667 26.0250118 22.2106667 26.7645412 22.2106667 27.3393647 22.2106667 27.4182588 21.6005 27.4182588 21.3096667L28.0220706 21.3096667C28.0220706 21.7235 27.7774824 22.6903333 26.7288 22.6903333 25.7883294 22.6903333 25.3930353 22.0293333 25.3930353 20.6915 25.3930353 19.7181667 25.5796471 18.5911667 26.7645412 18.5911667 27.9428471 18.5911667 28.0505647 19.6305 28.0505647 20.4663333L28.0505647 20.7135 26.0250118 20.7135 26.0250118 20.7135zM30.3650118 19.8343333C30.3650118 19.3401667 30.2362118 19.0708333 29.7977647 19.0708333 29.6039059 19.0708333 29.1728706 19.1221667 29.1728706 19.667 29.1728706 20.1248333 29.6472235 20.2118333 30.1209176 20.3721667 30.5878588 20.532 31.0618824 20.6988333 31.0618824 21.4696667 31.0618824 22.291 30.5374588 22.6903333 29.8195059 22.6903333 28.5122353 22.6903333 28.4977412 21.7096667 28.4977412 21.3096667L29.1008941 21.3096667C29.1008941 21.782 29.2303529 22.2106667 29.8195059 22.2106667 30.0130353 22.2106667 30.4585647 22.1161667 30.4585647 21.564 30.4585647 21.0403333 29.9847059 20.9315 29.5176 20.772 29.0508235 20.6118333 28.5697176 20.4736667 28.5697176 19.667 28.5697176 18.94 29.1297176 18.5911667 29.7977647 18.5911667 30.9185882 18.5911667 30.9612471 19.3765 30.9684941 19.8343333L30.3650118 19.8343333M31.6742588 22.5888333L32.2779059 22.5888333 32.2779059 18.6928333 31.6742588 18.6928333 31.6742588 22.5888333zM31.6742588 18.0973333L32.2779059 18.0973333 32.2779059 17.3996667 31.6742588 17.3996667 31.6742588 18.0973333zM33.5932471 20.6411667C33.5932471 21.2731667 33.6856471 22.0658333 34.2891294 22.0658333 34.9430118 22.0658333 35.0718118 21.4403333 35.0718118 20.6411667 35.0719765 19.885 34.9430118 19.1148333 34.2963765 19.1148333 33.7363765 19.1148333 33.5932471 19.7108333 33.5932471 20.6411667L33.5932471 20.6411667zM35.6397176 22.3415C35.6397176 23.5045 35.1078824 23.9263333 34.3326118 23.9263333 34.0954353 23.9263333 33.1688 23.9263333 33.0684941 22.9521667L33.6709882 22.9521667C33.7001412 23.3085 33.9732235 23.4465 34.2891294 23.4465 35.0647294 23.4465 35.0365647 22.8431667 35.0365647 22.5741667L35.0365647 22.0658333 35.0220706 22.0658333C34.8924471 22.3928333 34.5333882 22.5888333 34.1524235 22.5888333 33.0324235 22.5888333 32.9604471 21.1568333 32.9604471 20.6411667 32.9606118 19.5871667 33.2404471 18.5911667 34.2176471 18.5911667 34.6338588 18.5911667 34.972 18.8821667 35.0502353 19.1871667L35.0647294 19.1871667 35.0647294 18.6928333 35.6397176 18.6928333 35.6397176 22.3415 35.6397176 22.3415zM36.4314588 18.6928333L37.0066118 18.6928333 37.0066118 19.1513333 37.0209412 19.1513333C37.1785647 18.7951667 37.5806118 18.5911667 37.9546588 18.5911667 38.9666118 18.5911667 38.9666118 19.3693333 38.9666118 19.827L38.9666118 22.5888333 38.3641176 22.5888333 38.3641176 19.8995C38.3641176 19.6018333 38.3423765 19.1148333 37.7960471 19.1148333 37.4735529 19.1148333 37.0354353 19.3326667 37.0354353 19.8995L37.0354353 22.5888333 36.4314588 22.5888333 36.4314588 18.6928333M41.6636706 19.1725L41.1028471 19.1725 41.1028471 18.6928333 41.6636706 18.6928333 41.6636706 18.235C41.6636706 17.6468333 41.9150118 17.3413333 42.4962588 17.3413333L42.9342118 17.3413333 42.9342118 17.8648333 42.6550353 17.8648333C42.3964471 17.8648333 42.2661647 17.9665 42.2661647 18.235L42.2661647 18.6928333 42.9268 18.6928333 42.9268 19.1725 42.2661647 19.1725 42.2661647 22.5888333 41.6636706 22.5888333 41.6636706 19.1725M45.2985647 20.6411667C45.2985647 19.7978333 45.1760235 19.0708333 44.5297176 19.0708333 43.9198118 19.0708333 43.7896941 19.7978333 43.7896941 20.6411667 43.7896941 21.4838333 43.9125647 22.2106667 44.5297176 22.2106667 45.1686118 22.2106667 45.2985647 21.4838333 45.2985647 20.6411667L45.2985647 20.6411667zM44.5440471 18.5911667C45.6574588 18.5911667 45.9303765 19.5433333 45.9303765 20.6411667 45.9303765 21.7381667 45.6500471 22.6903333 44.5440471 22.6903333 43.4311294 22.6903333 43.1578824 21.7381667 43.1578824 20.6411667 43.1578824 19.5433333 43.4383765 18.5911667 44.5440471 18.5911667L44.5440471 18.5911667zM46.5356706 18.6928333L47.1398118 18.6928333 47.1398118 19.2748333 47.1529882 19.2748333C47.3262588 18.904 47.5561882 18.5911667 47.9867294 18.5911667 48.1084471 18.5911667 48.1952471 18.6058333 48.2530588 18.635L48.2530588 19.231C48.1952471 19.2236667 48.1227765 19.2018333 47.9290824 19.2018333 47.6273412 19.2018333 47.1398118 19.4781667 47.1398118 20.1248333L47.1398118 22.5888333 46.5356706 22.5888333 46.5356706 18.6928333M51.1060941 22.0658333L51.7665647 22.0658333C52.8592235 22.0658333 52.9806118 20.9315 52.9806118 20.0013333 52.9806118 18.9985 52.9157176 17.9226667 51.7665647 17.9226667L51.1060941 17.9226667 51.1060941 22.0658333 51.1060941 22.0658333zM50.4742824 17.3996667L51.8459529 17.3996667C53.4406353 17.3996667 53.6414118 18.5625 53.6414118 19.994 53.6414118 21.3023333 53.3189176 22.5888333 51.9111765 22.5888333L50.4742824 22.5888333 50.4742824 17.3996667 50.4742824 17.3996667zM54.4201412 22.5888333L55.0228 22.5888333 55.0228 18.6928333 54.4201412 18.6928333 54.4201412 22.5888333zM54.4201412 18.0973333L55.0228 18.0973333 55.0228 17.3996667 54.4201412 17.3996667 54.4201412 18.0973333zM56.3379765 20.6411667C56.3379765 21.2731667 56.4318588 22.0658333 57.0348471 22.0658333 57.6882353 22.0658333 57.8181882 21.4403333 57.8181882 20.6411667 57.8181882 19.885 57.6882353 19.1148333 57.0419294 19.1148333 56.4822588 19.1148333 56.3379765 19.7108333 56.3379765 20.6411667L56.3379765 20.6411667zM58.3851059 22.3415C58.3851059 23.5045 57.8542588 23.9263333 57.0781647 23.9263333 56.8411529 23.9263333 55.9145176 23.9263333 55.8147059 22.9521667L56.4173647 22.9521667C56.4461882 23.3085 56.7196 23.4465 57.0348471 23.4465 57.8107765 23.4465 57.7819529 22.8431667 57.7819529 22.5741667L57.7819529 22.0658333 57.7676235 22.0658333C57.6388235 22.3928333 57.2791059 22.5888333 56.8988 22.5888333 55.7786353 22.5888333 55.7061647 21.1568333 55.7061647 20.6411667 55.7061647 19.5871667 55.9868235 18.5911667 56.9636941 18.5911667 57.3802353 18.5911667 57.7170588 18.8821667 57.7964471 19.1871667L57.8107765 19.1871667 57.8107765 18.6928333 58.3851059 18.6928333 58.3851059 22.3415 58.3851059 22.3415zM59.2140706 22.5888333L59.8168941 22.5888333 59.8168941 18.6928333 59.2140706 18.6928333 59.2140706 22.5888333zM59.2140706 18.0973333L59.8168941 18.0973333 59.8168941 17.3996667 59.2140706 17.3996667 59.2140706 18.0973333zM60.8227529 17.5591667L61.4267294 17.5591667 61.4267294 18.6928333 62.0947765 18.6928333 62.0947765 19.1725 61.4267294 19.1725 61.4267294 21.6731667C61.4267294 21.9853333 61.5049647 22.109 61.8215294 22.109 61.9503294 22.109 62.0226353 22.0943333 62.0875294 22.087L62.0875294 22.5888333C62.0081412 22.6033333 61.8503529 22.6326667 61.5991765 22.6326667 60.9734588 22.6326667 60.8225882 22.3708333 60.8225882 21.8618333L60.8227529 19.1725 60.2632471 19.1725 60.2632471 18.6928333 60.8227529 18.6928333 60.8227529 17.5591667M64.2715294 20.4663333C64.0490118 20.7061667 63.5170118 20.7575 63.2440941 20.9241667 63.0500706 21.0476667 62.9500941 21.2005 62.9500941 21.5421667 62.9500941 21.9348333 63.0864706 22.2106667 63.4952706 22.2106667 63.8913882 22.2106667 64.2715294 21.8691667 64.2715294 21.4696667L64.2715294 20.4663333 64.2715294 20.4663333zM62.4113412 19.8703333C62.4113412 18.9838333 62.7842353 18.5911667 63.7036235 18.5911667 64.8745176 18.5911667 64.8745176 19.3035 64.8745176 19.7108333L64.8745176 21.8838333C64.8745176 22.0438333 64.8745176 22.1961667 65.0622824 22.1961667 65.1401882 22.1961667 65.1764235 22.1815 65.2054118 22.16L65.2054118 22.596C65.1619294 22.6033333 65.0044706 22.6326667 64.8527765 22.6326667 64.6228471 22.6326667 64.3364235 22.6326667 64.3076 22.1308333L64.2934353 22.1308333C64.0995765 22.4796667 63.7253647 22.6903333 63.3666353 22.6903333 62.6483529 22.6903333 62.3174588 22.2545 62.3174588 21.5566667 62.3174588 21.0118333 62.5472235 20.6338333 63.0429882 20.4808333L63.8553176 20.2338333C64.2934353 20.0955 64.2932706 19.9726667 64.2932706 19.6451667 64.2934353 19.2816667 64.0778353 19.0708333 63.6757882 19.0708333 63.0141647 19.0708333 63.0141647 19.6963333 63.0141647 19.8343333L63.0141647 19.8703333 62.4113412 19.8703333 62.4113412 19.8703333z"/>
      <polygon points="65.731 22.589 66.335 22.589 66.335 17.4 65.731 17.4"/>
    </g>
    <path stroke="#979797" stroke-linecap="square" d="M80.5,1 L80.5,24.3963134"/>
  </g>
</svg>
