<?xml version="1.0" encoding="UTF-8"?>
<svg width="216px" height="39px" viewBox="0 0 216 39" version="1.1" xmlns="http://www.w3.org/2000/svg" xmlns:xlink="http://www.w3.org/1999/xlink">
    <!-- Generator: Sketch 52.2 (67145) - http://www.bohemiancoding.com/sketch -->
    <title>Bank_Indonesia_logo_white</title>
    <desc>Created with Sketch.</desc>
    <g id="Symbols" stroke="none" stroke-width="1" fill="none" fill-rule="evenodd">
        <g id="Header-Bar" transform="translate(-90.000000, -9.000000)" fill="#FFFFFF">
            <g id="Group-3">
                <g id="Bank_Indonesia_logo_white" transform="translate(90.000000, 9.000000)">
                    <path d="M-1.0658141e-14,18.9327451 C-1.0658141e-14,8.49921992 8.49051686,3.55271368e-15 18.9133582,3.55271368e-15 C29.3947549,3.55271368e-15 37.8852718,8.49921992 37.8852718,18.9327451 C37.8852718,29.4248855 29.3947549,37.9241054 18.9133582,37.9241054 C8.49051686,37.9241054 -1.0658141e-14,29.4248855 -1.0658141e-14,18.9327451 Z" id="Path"></path>
                    <path d="M207.344277,16.106582 L209.100936,20.092423 L205.470508,20.092423 L207.344277,16.106582 Z M207.519943,11.4173572 L207.402832,11.4173572 L201.605859,22.9645732 C201.195972,23.7851876 200.84464,24.429956 200.610419,24.8402631 C200.317642,25.3091856 200.141977,25.6608775 199.966311,25.8953387 C199.73209,26.1884153 199.614979,26.3642612 199.439313,26.5401071 L203.069741,26.5401071 C203.069741,25.953954 203.186852,25.3678009 203.362517,24.7816478 C203.538183,24.25411 203.713849,23.7851876 203.83096,23.492111 L204.592179,21.9094976 L209.92071,21.9094976 L210.799039,23.9024182 C211.03326,24.4885713 211.208926,25.0161091 211.267481,25.4264162 C211.384592,25.8367234 211.384592,26.2470306 211.384592,26.5401071 L214.956465,26.5401071 C214.663688,26.1884153 214.370912,25.6608775 213.961025,25.0747244 C213.609693,24.4885713 213.141251,23.6093416 212.614253,22.4370354 L207.519943,11.4173572 Z M194.75489,11.5345878 C194.930556,11.944895 195.106222,12.4724328 195.223332,12.9999705 C195.281888,13.5861236 195.340443,14.2308921 195.340443,15.1101217 L195.340443,22.2611895 C195.340443,23.0818038 195.340443,23.7265722 195.281888,24.25411 C195.223332,24.7816478 195.164777,25.2505703 195.047666,25.6022622 C194.989111,25.953954 194.872001,26.2470306 194.75489,26.5401071 L198.151097,26.5401071 C197.916876,25.7781081 197.799765,25.1333397 197.682654,24.5471866 C197.624099,23.9610335 197.565544,23.2576498 197.565544,22.4370354 L197.565544,15.5204289 C197.624099,14.406738 197.682654,13.5861236 197.74121,12.9999705 C197.85832,12.4138175 198.033986,11.944895 198.151097,11.5345878 L194.75489,11.5345878 Z M192.588344,12.0621256 C192.237013,11.8862797 191.827126,11.769049 191.300128,11.5932031 C190.831686,11.4173572 190.187578,11.3587419 189.543469,11.3587419 C188.255253,11.3587419 187.201258,11.8276644 186.381484,12.6482787 C185.56171,13.468893 185.093267,14.4653533 185.093267,15.6962748 C185.093267,16.4582738 185.210378,17.1030422 185.56171,17.5719647 C185.854486,18.0995025 186.322928,18.6270403 186.967037,19.0959628 C187.6697,19.5648852 188.489474,20.1510383 189.602025,20.7958068 C189.836246,20.9130374 190.070467,21.1474986 190.363243,21.4991905 C190.65602,21.8508823 190.831686,22.2611895 190.831686,22.7887273 C190.831686,23.3162651 190.597465,23.8438029 190.187578,24.25411 C189.777691,24.6644172 189.250693,24.8988784 188.606585,24.8988784 C187.903921,24.8402631 187.318368,24.6644172 186.849926,24.25411 C186.381484,23.9024182 185.971597,23.492111 185.620265,23.0818038 L185.620265,26.2470306 C185.971597,26.3642612 186.381484,26.4814918 186.732815,26.5401071 C187.142703,26.5987224 187.6697,26.6573377 188.255253,26.6573377 C189.836246,26.6573377 191.065907,26.2470306 191.944236,25.4264162 C192.881121,24.6644172 193.291008,23.6093416 193.349563,22.3784201 C193.349563,21.6750364 193.173897,20.9716527 192.76401,20.3268843 C192.354123,19.7407312 191.65146,19.0959628 190.538909,18.5098097 C189.602025,17.9822719 188.840806,17.4547341 188.255253,16.9858116 C187.728255,16.5168891 187.435479,15.930736 187.435479,15.2273523 C187.435479,14.6411992 187.6697,14.1722767 188.079587,13.7619696 C188.548029,13.4102777 189.075027,13.2344318 189.719135,13.2344318 C190.421799,13.2344318 190.948796,13.3516624 191.417239,13.5861236 C191.885681,13.8792002 192.237013,14.1136614 192.588344,14.406738 L192.588344,12.0621256 Z M175.4902,11.5345878 C175.665866,12.1793562 175.841532,12.8827399 175.900087,13.5275083 C176.017198,14.2308921 176.017198,14.8170452 176.017198,15.3445829 L176.017198,22.6714967 C176.017198,23.6093416 175.958642,24.429956 175.841532,25.0161091 C175.724421,25.6022622 175.607311,26.1297999 175.4902,26.5401071 L183.336609,26.5401071 L184.449159,24.0782641 C183.395164,24.429956 182.516835,24.6644172 181.872727,24.8402631 C181.170063,24.9574938 180.58451,25.0747244 179.998957,25.0747244 C179.47196,25.1333397 178.886407,25.1333397 178.300854,25.1333397 L178.300854,19.6235006 C178.652186,19.6821159 179.003517,19.6821159 179.296294,19.7407312 C179.58907,19.7407312 179.940402,19.8579618 180.291734,19.9165771 C180.701621,20.0338077 181.170063,20.1510383 181.697061,20.268269 L182.985277,18.2167331 L178.300854,18.2167331 L178.300854,12.9413552 C179.062073,12.9413552 179.706181,12.9413552 180.291734,13.1172012 C180.935842,13.2344318 181.638505,13.468893 182.458279,13.8205849 L183.57083,11.5345878 L175.4902,11.5345878 Z M158.684832,11.5345878 C159.094719,11.8862797 159.446051,12.1793562 159.738827,12.4724328 C160.031604,12.7655093 160.32438,13.1172012 160.675712,13.5275083 L160.675712,22.6128814 C160.675712,22.6714967 160.675712,22.9645732 160.675712,23.3748804 C160.675712,23.8438029 160.617157,24.3127253 160.558601,24.8988784 C160.441491,25.4850315 160.32438,26.0125693 160.20727,26.5401071 L163.369255,26.5401071 C163.135034,25.8953387 163.017924,25.191955 162.900813,24.3713407 C162.783702,23.6093416 162.783702,22.8473426 162.783702,22.1439589 L162.783702,16.2238126 L169.166229,24.3713407 C169.459005,24.7230325 169.693226,25.0747244 169.927448,25.4264162 C170.161669,25.7781081 170.337335,26.1884153 170.454445,26.5401071 L173.265099,26.5401071 C173.147989,26.2470306 173.030878,25.8367234 172.913767,25.3091856 C172.796657,24.7816478 172.738101,23.9610335 172.738101,22.7887273 L172.738101,14.7584298 C172.738101,13.9378155 172.796657,13.2930471 172.855212,12.8241246 C172.913767,12.3552021 173.030878,11.8862797 173.147989,11.5345878 L170.220224,11.5345878 C170.337335,11.8276644 170.39589,12.1207409 170.454445,12.4138175 C170.513001,12.7655093 170.571556,13.1758165 170.630111,13.7033543 C170.630111,14.2308921 170.630111,14.9342758 170.630111,15.8721207 L170.630111,22.6714967 L163.837698,14.0550461 C163.3107,13.3516624 162.900813,12.8241246 162.725147,12.4724328 C162.549481,12.1793562 162.373815,11.8276644 162.256705,11.5345878 L158.684832,11.5345878 Z M144.807229,18.5098097 C144.807229,17.5719647 144.982895,16.6341198 145.392782,15.8135054 C145.802669,14.9928911 146.388222,14.2895074 147.14944,13.7619696 C147.852104,13.2930471 148.730433,12.9999705 149.784428,12.9999705 C150.955534,12.9999705 151.950974,13.3516624 152.887859,13.9964308 C153.766188,14.6411992 154.410296,15.4618136 154.937294,16.4582738 C155.405736,17.4547341 155.639957,18.4511944 155.639957,19.5648852 C155.698512,20.3268843 155.464291,21.1474986 155.11296,22.0267283 C154.761628,22.8473426 154.23463,23.5507263 153.531967,24.1368794 C152.770748,24.7230325 151.892419,25.0161091 150.779868,25.0161091 C149.784428,25.0161091 148.847544,24.7816478 147.910659,24.25411 C147.03233,23.7265722 146.271111,23.0231885 145.685558,22.0267283 C145.100005,21.0888833 144.807229,19.9165771 144.807229,18.5098097 Z M142.289351,18.8615015 C142.289351,20.2096537 142.582128,21.4405752 143.226236,22.6128814 C143.870344,23.7851876 144.748674,24.7230325 145.919779,25.4850315 C147.090885,26.2470306 148.496212,26.6573377 150.13576,26.6573377 C151.541087,26.6573377 152.887859,26.3642612 154.058964,25.7194928 C155.23007,25.0747244 156.166955,24.1954947 156.869618,23.0818038 C157.630837,21.9094976 157.982169,20.5613455 157.982169,18.9787322 C157.982169,17.6891953 157.689392,16.4582738 157.162395,15.2859676 C156.576842,14.1722767 155.757068,13.2344318 154.644517,12.5310481 C153.531967,11.769049 152.185195,11.4173572 150.487092,11.3587419 C148.788988,11.4173572 147.266551,11.8276644 146.03689,12.5896634 C144.807229,13.3516624 143.870344,14.2895074 143.226236,15.4618136 C142.582128,16.5755044 142.289351,17.7478106 142.289351,18.8615015 Z M132.686284,15.6376595 C132.686284,15.2859676 132.686284,14.8170452 132.686284,14.3481227 C132.744839,13.8205849 132.744839,13.3516624 132.803395,12.8827399 C134.384387,13.1172012 135.614048,13.5861236 136.433823,14.2895074 C137.312152,14.9928911 137.897705,15.7548901 138.190481,16.6341198 C138.541813,17.4547341 138.658923,18.2167331 138.658923,18.9787322 C138.658923,19.7993465 138.483258,20.6199608 138.131926,21.4991905 C137.780594,22.3784201 137.195041,23.1990345 136.316712,23.8438029 C135.438383,24.4885713 134.267277,24.8988784 132.803395,25.0747244 C132.744839,24.7230325 132.744839,24.3713407 132.744839,24.0196488 C132.686284,23.7265722 132.686284,23.3748804 132.686284,23.0231885 C132.686284,22.6714967 132.686284,22.2025742 132.686284,21.6164211 L132.686284,15.6376595 Z M130.461183,21.968113 C130.461183,22.9059579 130.402628,23.6093416 130.344072,24.1954947 C130.285517,24.7816478 130.226962,25.191955 130.168407,25.5436468 C130.051296,25.953954 129.934185,26.2470306 129.817075,26.5401071 L133.447503,26.5401071 C135.087051,26.5401071 136.492378,26.1884153 137.663484,25.5436468 C138.834589,24.8402631 139.712919,23.9610335 140.357027,22.8473426 C140.94258,21.7336517 141.293911,20.5027302 141.293911,19.1545781 C141.293911,18.4511944 141.176801,17.6891953 140.94258,16.9271963 C140.708359,16.1651973 140.357027,15.4031983 139.771474,14.6998145 C139.010255,13.7033543 138.131926,12.9999705 137.195041,12.5310481 C136.258157,12.0621256 135.321272,11.769049 134.325832,11.6518184 C133.330392,11.5345878 132.334952,11.4759725 131.398068,11.4759725 C131.105291,11.4759725 130.812515,11.4759725 130.578294,11.5345878 L129.817075,11.5932031 C129.934185,11.8862797 130.051296,12.4138175 130.226962,13.0585859 C130.344072,13.7033543 130.461183,14.5825839 130.461183,15.6376595 L130.461183,21.968113 Z M113.128818,11.5345878 C113.538705,11.8862797 113.890036,12.1793562 114.182813,12.4724328 C114.475589,12.7655093 114.826921,13.1172012 115.119697,13.5275083 L115.119697,22.6128814 C115.119697,22.6714967 115.119697,22.9645732 115.119697,23.3748804 C115.119697,23.8438029 115.061142,24.3127253 115.002587,24.8988784 C114.885476,25.4850315 114.826921,26.0125693 114.651255,26.5401071 L117.813241,26.5401071 C117.57902,25.8953387 117.461909,25.191955 117.344798,24.3713407 C117.286243,23.6093416 117.227688,22.8473426 117.227688,22.1439589 L117.227688,16.2238126 L123.610214,24.3713407 C123.902991,24.7230325 124.137212,25.0747244 124.371433,25.4264162 C124.605654,25.7781081 124.78132,26.1884153 124.898431,26.5401071 L127.709084,26.5401071 C127.591974,26.2470306 127.474863,25.8367234 127.357753,25.3091856 C127.240642,24.7816478 127.182087,23.9610335 127.182087,22.7887273 L127.182087,14.7584298 C127.182087,13.9378155 127.240642,13.2930471 127.299197,12.8241246 C127.357753,12.3552021 127.474863,11.8862797 127.591974,11.5345878 L124.664209,11.5345878 C124.78132,11.8276644 124.839875,12.1207409 124.898431,12.4138175 C124.956986,12.7655093 125.015541,13.1758165 125.074097,13.7033543 C125.074097,14.2308921 125.132652,14.9342758 125.132652,15.8721207 L125.132652,22.6714967 L118.281683,14.0550461 C117.754685,13.3516624 117.344798,12.8241246 117.169133,12.4724328 C116.993467,12.1793562 116.817801,11.8276644 116.70069,11.5345878 L113.128818,11.5345878 Z M108.50295,11.5345878 C108.678616,11.944895 108.854282,12.4724328 108.912837,12.9999705 C109.029947,13.5861236 109.088503,14.2308921 109.088503,15.1101217 L109.088503,22.2611895 C109.088503,23.0818038 109.029947,23.7265722 108.971392,24.25411 C108.912837,24.7816478 108.854282,25.2505703 108.795726,25.6022622 C108.678616,25.953954 108.62006,26.2470306 108.50295,26.5401071 L111.899157,26.5401071 C111.664935,25.7781081 111.547825,25.1333397 111.430714,24.5471866 C111.372159,23.9610335 111.313604,23.2576498 111.313604,22.4370354 L111.313604,15.5204289 C111.313604,14.406738 111.372159,13.5861236 111.48927,12.9999705 C111.60638,12.4138175 111.723491,11.944895 111.899157,11.5345878 L108.50295,11.5345878 Z M88.2428199,11.5932031 C88.4184858,12.0621256 88.5355964,12.5896634 88.6527069,13.1758165 C88.7112622,13.7033543 88.7698175,14.2895074 88.7698175,14.7584298 L88.7698175,22.6128814 C88.7698175,23.2576498 88.7112622,23.9610335 88.6527069,24.6058019 C88.5355964,25.2505703 88.3599305,25.8953387 88.1842646,26.5401071 L91.5804714,26.5401071 C91.4633608,26.2470306 91.3462502,25.7194928 91.2291396,25.0747244 C91.1120291,24.429956 91.0534738,23.6679569 91.0534738,22.7887273 L91.0534738,18.4511944 L95.152344,23.6093416 C95.7378969,24.3713407 96.1477839,24.9574938 96.3234498,25.3678009 C96.5576709,25.8367234 96.6747815,26.1884153 96.7918921,26.5401071 L100.42232,26.5401071 C99.9538777,26.0711846 99.6025459,25.7194928 99.4268801,25.4850315 C99.1926589,25.2505703 98.9584378,24.9574938 98.7242166,24.6058019 L93.6299065,18.2167331 L96.3234498,14.9928911 C97.0261132,14.1136614 97.6702214,13.468893 98.2557743,12.8827399 C98.8413272,12.3552021 99.3683248,11.8862797 99.8953224,11.5345878 L96.0892286,11.5345878 C96.0306733,11.769049 95.9135627,12.0035103 95.7964522,12.2379715 C95.6793416,12.5310481 95.3865651,12.9413552 94.9181228,13.468893 L91.0534738,18.2167331 L91.0534738,15.2273523 C91.0534738,14.5825839 91.0534738,13.9964308 91.1120291,13.5861236 C91.1705844,13.1758165 91.2291396,12.7655093 91.3462502,12.4724328 C91.4048055,12.1793562 91.5219161,11.8276644 91.6390267,11.5345878 L88.2428199,11.5932031 Z M71.3203415,11.5345878 C71.7302285,11.8862797 72.1401155,12.1793562 72.3743367,12.4724328 C72.6671131,12.7655093 73.0184449,13.1172012 73.3697766,13.5275083 L73.3697766,22.6128814 C73.3697766,22.6714967 73.3112213,22.9645732 73.3112213,23.3748804 C73.3112213,23.8438029 73.252666,24.3127253 73.1941107,24.8988784 C73.1355554,25.4850315 73.0184449,26.0125693 72.842779,26.5401071 L76.0047646,26.5401071 C75.8290987,25.8953387 75.6534329,25.191955 75.5363223,24.3713407 C75.477767,23.6093416 75.4192117,22.8473426 75.4192117,22.1439589 L75.4192117,16.2238126 L81.8017382,24.3713407 C82.0945146,24.7230325 82.3287358,25.0747244 82.5629569,25.4264162 C82.7971781,25.7781081 82.9728439,26.1884153 83.0899545,26.5401071 L85.9006084,26.5401071 C85.7834978,26.2470306 85.6663872,25.8367234 85.5492766,25.3091856 C85.4321661,24.7816478 85.3736108,23.9610335 85.3736108,22.7887273 L85.3736108,14.7584298 C85.3736108,13.9378155 85.4321661,13.2930471 85.4907214,12.8241246 C85.6078319,12.3552021 85.6663872,11.8862797 85.7834978,11.5345878 L82.9142887,11.5345878 C82.9728439,11.8276644 83.0313992,12.1207409 83.0899545,12.4138175 C83.1485098,12.7655093 83.2070651,13.1758165 83.2656204,13.7033543 C83.2656204,14.2308921 83.3241757,14.9342758 83.3241757,15.8721207 L83.3241757,22.6714967 L76.5317622,14.0550461 C75.9462093,13.3516624 75.5363223,12.8241246 75.3606564,12.4724328 C75.1849905,12.1793562 75.0093247,11.8276644 74.8922141,11.5345878 L71.3203415,11.5345878 Z M63.4153775,16.106582 L65.1720362,20.092423 L61.483053,20.092423 L63.4153775,16.106582 Z M63.5910434,11.4173572 L63.4739328,11.4173572 L57.6769592,22.9645732 C57.2670722,23.7851876 56.9157405,24.429956 56.622964,24.8402631 C56.3887429,25.3091856 56.1545217,25.6608775 55.9788559,25.8953387 C55.80319,26.1884153 55.6275241,26.3642612 55.4518583,26.5401071 L59.1408414,26.5401071 C59.1408414,25.953954 59.1993967,25.3678009 59.3750626,24.7816478 C59.6092838,24.25411 59.7263943,23.7851876 59.9020602,23.492111 L60.663279,21.9094976 L65.9332549,21.9094976 L66.8115843,23.9024182 C67.1043607,24.4885713 67.2800266,25.0161091 67.3385819,25.4264162 C67.3971372,25.8367234 67.4556924,26.2470306 67.4556924,26.5401071 L71.0275651,26.5401071 C70.7347886,26.1884153 70.4420122,25.6608775 70.0321251,25.0747244 C69.6807934,24.4885713 69.2123511,23.6093416 68.6853535,22.4370354 L63.5910434,11.4173572 Z M48.9522212,18.6856556 C49.8891058,18.9787322 50.6503246,19.2718087 51.1773222,19.6821159 C51.7043198,20.1510383 52.0556515,20.5613455 52.2313174,21.030268 C52.4655385,21.4991905 52.5240938,21.9094976 52.5240938,22.3198048 C52.5240938,22.4956507 52.4655385,22.8473426 52.348428,23.3162651 C52.2313174,23.7851876 51.9385409,24.1954947 51.4115433,24.6058019 C50.8845457,25.0161091 50.0647717,25.191955 48.9522212,25.191955 L48.9522212,18.6856556 Z M48.9522212,12.8241246 C49.7719953,12.8827399 50.4746587,13.1172012 51.0016563,13.5275083 C51.5872092,13.8792002 51.8799857,14.5239686 51.8799857,15.4031983 C51.8799857,16.2238126 51.5872092,16.9271963 51.0016563,17.3961188 C50.4746587,17.8650413 49.7719953,18.2167331 48.9522212,18.3925791 L48.9522212,12.8241246 Z M46.2001226,11.5345878 C46.2586779,11.7104337 46.3172332,11.8862797 46.4343438,12.1793562 C46.4928991,12.4138175 46.5514544,12.8241246 46.6100097,13.3516624 C46.668565,13.8792002 46.7271202,14.5825839 46.7271202,15.4618136 L46.7271202,22.2025742 C46.7271202,22.6714967 46.668565,23.3162651 46.6100097,24.0782641 C46.5514544,24.8988784 46.3757885,25.6608775 46.1415674,26.5401071 L49.5377741,26.5401071 C50.0062164,26.5401071 50.533214,26.5401071 51.0602116,26.4228765 C51.5872092,26.3056459 52.0556515,26.1884153 52.4655385,26.0125693 C53.1096467,25.7781081 53.6951996,25.3678009 54.2221972,24.6644172 C54.7491948,24.0196488 55.0419712,23.2576498 55.0419712,22.4370354 C55.0419712,21.5578058 54.7491948,20.7958068 54.2221972,20.1510383 C53.7537549,19.5062699 53.1096467,18.9201168 52.348428,18.5098097 C52.5826491,18.3339637 52.8754256,18.0995025 53.2267573,17.806426 C53.5195337,17.5133494 53.7537549,17.1616575 53.987976,16.7513504 C54.2221972,16.3410432 54.3393078,15.8721207 54.3393078,15.2273523 C54.3393078,14.7584298 54.2221972,14.2308921 53.9294208,13.7033543 C53.6366443,13.1172012 53.168202,12.5896634 52.4655385,12.1793562 C51.7628751,11.769049 50.7674352,11.5345878 49.5377741,11.5345878 L46.2001226,11.5345878 Z" id="Shape"></path>
                    <path d="M46,31.1069767 L48.034481,31.1069767 C48.9782849,31.1069767 49.6603449,31.2434095 50.0806814,31.5162791 C50.5010179,31.7891487 50.711183,32.2201521 50.711183,32.8093023 C50.711183,33.2062035 50.6080537,33.5364328 50.4017919,33.8 C50.1955301,34.0635672 49.8986426,34.229457 49.5111205,34.2976744 L49.5111205,34.344186 C49.992398,34.434109 50.3463191,34.6116266 50.5728946,34.8767442 C50.79947,35.1418618 50.912756,35.5007729 50.912756,35.9534884 C50.912756,36.5643441 50.6979032,37.0426339 50.2681912,37.3883721 C49.8384791,37.7341103 49.2407977,37.9069767 48.475129,37.9069767 L46,37.9069767 L46,31.1069767 Z M47.1203709,33.9162791 L48.1985521,33.9162791 C48.6673288,33.9162791 49.0095308,33.8426364 49.2251681,33.6953488 C49.4408054,33.5480613 49.5486224,33.2976762 49.5486224,32.944186 C49.5486224,32.6248046 49.4322113,32.3937992 49.1993855,32.2511628 C48.9665597,32.1085264 48.5970129,32.0372093 48.090734,32.0372093 L47.1203709,32.0372093 L47.1203709,33.9162791 Z M47.1203709,34.8186047 L47.1203709,36.972093 L48.3110579,36.972093 C48.7798347,36.972093 49.1337559,36.8829466 49.372832,36.7046512 C49.6119082,36.5263557 49.7314445,36.2449632 49.7314445,35.8604651 C49.7314445,35.506975 49.6095643,35.2449621 49.3658004,35.0744186 C49.1220365,34.9038751 48.7517084,34.8186047 48.254805,34.8186047 L47.1203709,34.8186047 Z M56.3101395,37.9069767 L55.6257289,36.0186047 L53.0052798,36.0186047 L52.3349324,37.9069767 L51.1536208,37.9069767 L53.717817,31.0790698 L54.9366305,31.0790698 L57.5008266,37.9069767 L56.3101395,37.9069767 Z M55.330401,35.0604651 L54.68818,33.2093023 C54.6413023,33.0852707 54.5764559,32.8899238 54.4936386,32.6232558 C54.4108214,32.3565878 54.3537878,32.1612409 54.322536,32.0372093 C54.2381562,32.4186066 54.1147135,32.8356567 53.9522042,33.2883721 L53.3334219,35.0604651 L55.330401,35.0604651 Z M64.0279565,37.9069767 L62.6544474,37.9069767 L59.2839593,32.4883721 L59.2464573,32.4883721 L59.2698961,32.7906977 C59.3136486,33.3674447 59.3355245,33.8945713 59.3355245,34.372093 L59.3355245,37.9069767 L58.318284,37.9069767 L58.318284,31.1069767 L59.6777298,31.1069767 L63.0388425,36.4976744 L63.0669689,36.4976744 C63.0607186,36.4263562 63.048218,36.1666689 63.029467,35.7186047 C63.0107159,35.2705404 63.0013405,34.9209315 63.0013405,34.6697674 L63.0013405,31.1069767 L64.0279565,31.1069767 L64.0279565,37.9069767 Z M70.9816711,37.9069767 L69.683166,37.9069767 L67.5314914,34.827907 L66.8705194,35.3627907 L66.8705194,37.9069767 L65.7501485,37.9069767 L65.7501485,31.1069767 L66.8705194,31.1069767 L66.8705194,34.3534884 C67.1767869,33.9813935 67.4814872,33.6232575 67.7846295,33.2790698 L69.6362885,31.1069767 L70.911355,31.1069767 C69.7144116,32.5023326 68.856563,33.4961211 68.3377834,34.0883721 L70.9816711,37.9069767 Z M78.1574996,36.0604651 C78.1574996,36.6651193 77.9371779,37.1395332 77.4965277,37.4837209 C77.0558775,37.8279087 76.4480394,38 75.6729952,38 C74.8979509,38 74.2635492,37.8806213 73.769771,37.6418605 L73.769771,36.5906977 C74.0822888,36.7364348 74.4143341,36.8511624 74.7659166,36.9348837 C75.1174992,37.0186051 75.4448568,37.0604651 75.7479991,37.0604651 C76.1917744,37.0604651 76.519132,36.976745 76.7300815,36.8093023 C76.941031,36.6418596 77.0465042,36.4170557 77.0465042,36.1348837 C77.0465042,35.8806189 76.9496252,35.6651172 76.7558641,35.4883721 C76.562103,35.311627 76.1620862,35.1023268 75.5558016,34.8604651 C74.9307659,34.6093011 74.4901223,34.3224822 74.2338577,34 C73.977593,33.6775178 73.8494626,33.2899247 73.8494626,32.8372093 C73.8494626,32.2697646 74.0525962,31.8232574 74.4588694,31.4976744 C74.8651426,31.1720914 75.4104781,31.0093023 76.0948921,31.0093023 C76.7511796,31.0093023 77.4043321,31.1519366 78.0543693,31.4372093 L77.6981007,32.344186 C77.0886909,32.0899212 76.544918,31.9627907 76.0667657,31.9627907 C75.704245,31.9627907 75.4292334,32.0410845 75.2417227,32.1976744 C75.054212,32.3542643 74.960458,32.561239 74.960458,32.8186047 C74.960458,32.9953497 74.9979596,33.146511 75.0729639,33.272093 C75.1479682,33.397675 75.2714109,33.5162785 75.4432957,33.627907 C75.6151805,33.7395354 75.9245685,33.8868208 76.3714691,34.0697674 C76.8746228,34.2775204 77.2433883,34.4713169 77.4777767,34.6511628 C77.7121651,34.8310087 77.8840473,35.0341074 77.9934286,35.2604651 C78.1028098,35.4868228 78.1574996,35.7534868 78.1574996,36.0604651 Z M83.2736185,37.9069767 L79.396854,37.9069767 L79.396854,31.1069767 L83.2736185,31.1069767 L83.2736185,32.0465116 L80.5172249,32.0465116 L80.5172249,33.8976744 L83.100172,33.8976744 L83.100172,34.827907 L80.5172249,34.827907 L80.5172249,36.9627907 L83.2736185,36.9627907 L83.2736185,37.9069767 Z M90.377341,37.9069767 L89.0038319,37.9069767 L85.6333438,32.4883721 L85.5958418,32.4883721 L85.6192805,32.7906977 C85.663033,33.3674447 85.6849089,33.8945713 85.6849089,34.372093 L85.6849089,37.9069767 L84.6676684,37.9069767 L84.6676684,31.1069767 L86.0271143,31.1069767 L89.3882269,36.4976744 L89.4163534,36.4976744 C89.410103,36.4263562 89.3976025,36.1666689 89.3788514,35.7186047 C89.3601004,35.2705404 89.350725,34.9209315 89.350725,34.6697674 L89.350725,31.1069767 L90.377341,31.1069767 L90.377341,37.9069767 Z M94.4668439,37.9069767 L93.346473,37.9069767 L93.346473,32.0604651 L91.3307429,32.0604651 L91.3307429,31.1069767 L96.4825739,31.1069767 L96.4825739,32.0604651 L94.4668439,32.0604651 L94.4668439,37.9069767 Z M98.5657222,34.2697674 L99.3438878,34.2697674 C99.8657926,34.2697674 100.243934,34.1736444 100.478322,33.9813953 C100.71271,33.7891463 100.829903,33.5038779 100.829903,33.1255814 C100.829903,32.7410833 100.703335,32.4651171 100.450195,32.2976744 C100.197056,32.1302317 99.8157899,32.0465116 99.3063858,32.0465116 L98.5657222,32.0465116 L98.5657222,34.2697674 Z M98.5657222,35.1906977 L98.5657222,37.9069767 L97.4453513,37.9069767 L97.4453513,31.1069767 L99.3813897,31.1069767 C100.265815,31.1069767 100.92053,31.2713162 101.345555,31.6 C101.770579,31.9286838 101.983088,32.4248029 101.983088,33.0883721 C101.983088,33.934888 101.539319,34.5379827 100.651768,34.8976744 L102.587807,37.9069767 L101.31274,37.9069767 L99.6720299,35.1906977 L98.5657222,35.1906977 Z M107.746115,37.9069767 L107.061705,36.0186047 L104.441256,36.0186047 L103.770908,37.9069767 L102.589597,37.9069767 L105.153793,31.0790698 L106.372606,31.0790698 L108.936802,37.9069767 L107.746115,37.9069767 Z M106.766377,35.0604651 L106.124156,33.2093023 C106.077278,33.0852707 106.012432,32.8899238 105.929614,32.6232558 C105.846797,32.3565878 105.789764,32.1612409 105.758512,32.0372093 C105.674132,32.4186066 105.550689,32.8356567 105.38818,33.2883721 L104.769398,35.0604651 L106.766377,35.0604651 Z M109.75426,37.9069767 L109.75426,31.1069767 L110.874631,31.1069767 L110.874631,36.9534884 L113.776344,36.9534884 L113.776344,37.9069767 L109.75426,37.9069767 Z M118.397352,34.2697674 L119.175518,34.2697674 C119.697423,34.2697674 120.075564,34.1736444 120.309952,33.9813953 C120.54434,33.7891463 120.661533,33.5038779 120.661533,33.1255814 C120.661533,32.7410833 120.534965,32.4651171 120.281825,32.2976744 C120.028686,32.1302317 119.64742,32.0465116 119.138016,32.0465116 L118.397352,32.0465116 L118.397352,34.2697674 Z M118.397352,35.1906977 L118.397352,37.9069767 L117.276981,37.9069767 L117.276981,31.1069767 L119.21302,31.1069767 C120.097445,31.1069767 120.75216,31.2713162 121.177185,31.6 C121.602209,31.9286838 121.814718,32.4248029 121.814718,33.0883721 C121.814718,33.934888 121.370949,34.5379827 120.483398,34.8976744 L122.419437,37.9069767 L121.14437,37.9069767 L119.50366,35.1906977 L118.397352,35.1906977 Z M127.202726,37.9069767 L123.325961,37.9069767 L123.325961,31.1069767 L127.202726,31.1069767 L127.202726,32.0465116 L124.446332,32.0465116 L124.446332,33.8976744 L127.029279,33.8976744 L127.029279,34.827907 L124.446332,34.827907 L124.446332,36.9627907 L127.202726,36.9627907 L127.202726,37.9069767 Z M133.134512,33.1627907 C133.134512,33.8728718 132.900127,34.4170524 132.431351,34.7953488 C131.962574,35.1736453 131.295358,35.3627907 130.429684,35.3627907 L129.717147,35.3627907 L129.717147,37.9069767 L128.596776,37.9069767 L128.596776,31.1069767 L130.570316,31.1069767 C131.426615,31.1069767 132.068048,31.2806184 132.494635,31.627907 C132.921222,31.9751955 133.134512,32.4868183 133.134512,33.1627907 Z M129.717147,34.427907 L130.31249,34.427907 C130.887523,34.427907 131.309416,34.3286832 131.578181,34.1302326 C131.846947,33.931782 131.981327,33.6217075 131.981327,33.2 C131.981327,32.8093004 131.86101,32.5178304 131.620371,32.3255814 C131.379732,32.1333324 131.004716,32.0372093 130.495312,32.0372093 L129.717147,32.0372093 L129.717147,34.427907 Z M139.788211,31.1069767 L139.788211,35.5069767 C139.788211,36.0093048 139.679613,36.4488353 139.462413,36.8255814 C139.245213,37.2023275 138.931137,37.492247 138.520176,37.6953488 C138.109215,37.8984506 137.617789,38 137.045881,38 C136.195832,38 135.534867,37.7767464 135.062965,37.3302326 C134.591063,36.8837187 134.355116,36.2697713 134.355116,35.4883721 L134.355116,31.1069767 L135.480174,31.1069767 L135.480174,35.4093023 C135.480174,35.9705454 135.61143,36.3844948 135.873945,36.6511628 C136.13646,36.9178308 136.539602,37.0511628 137.083383,37.0511628 C138.139693,37.0511628 138.66784,36.5007807 138.66784,35.4 L138.66784,31.1069767 L139.788211,31.1069767 Z M141.45415,31.1069767 L143.488631,31.1069767 C144.432435,31.1069767 145.114495,31.2434095 145.534832,31.5162791 C145.955168,31.7891487 146.165333,32.2201521 146.165333,32.8093023 C146.165333,33.2062035 146.062204,33.5364328 145.855942,33.8 C145.64968,34.0635672 145.352793,34.229457 144.965271,34.2976744 L144.965271,34.344186 C145.446548,34.434109 145.800469,34.6116266 146.027045,34.8767442 C146.25362,35.1418618 146.366906,35.5007729 146.366906,35.9534884 C146.366906,36.5643441 146.152054,37.0426339 145.722342,37.3883721 C145.29263,37.7341103 144.694948,37.9069767 143.929279,37.9069767 L141.45415,37.9069767 L141.45415,31.1069767 Z M142.574521,33.9162791 L143.652702,33.9162791 C144.121479,33.9162791 144.463681,33.8426364 144.679318,33.6953488 C144.894956,33.5480613 145.002773,33.2976762 145.002773,32.944186 C145.002773,32.6248046 144.886362,32.3937992 144.653536,32.2511628 C144.42071,32.1085264 144.051163,32.0372093 143.544884,32.0372093 L142.574521,32.0372093 L142.574521,33.9162791 Z M142.574521,34.8186047 L142.574521,36.972093 L143.765208,36.972093 C144.233985,36.972093 144.587906,36.8829466 144.826982,36.7046512 C145.066059,36.5263557 145.185595,36.2449632 145.185595,35.8604651 C145.185595,35.506975 145.063715,35.2449621 144.819951,35.0744186 C144.576187,34.9038751 144.205859,34.8186047 143.708955,34.8186047 L142.574521,34.8186047 Z M147.704703,37.9069767 L147.704703,31.1069767 L148.825074,31.1069767 L148.825074,36.9534884 L151.726788,36.9534884 L151.726788,37.9069767 L147.704703,37.9069767 Z M152.820822,37.9069767 L152.820822,31.1069767 L153.941193,31.1069767 L153.941193,37.9069767 L152.820822,37.9069767 Z M160.894908,37.9069767 L159.596403,37.9069767 L157.444728,34.827907 L156.783756,35.3627907 L156.783756,37.9069767 L155.663385,37.9069767 L155.663385,31.1069767 L156.783756,31.1069767 L156.783756,34.3534884 C157.090024,33.9813935 157.394724,33.6232575 157.697866,33.2790698 L159.549525,31.1069767 L160.824592,31.1069767 C159.627648,32.5023326 158.7698,33.4961211 158.25102,34.0883721 L160.894908,37.9069767 Z M164.118968,37.9069767 L164.118968,31.1069767 L165.239339,31.1069767 L165.239339,37.9069767 L164.118968,37.9069767 Z M172.671203,37.9069767 L171.297694,37.9069767 L167.927206,32.4883721 L167.889704,32.4883721 L167.913143,32.7906977 C167.956895,33.3674447 167.978771,33.8945713 167.978771,34.372093 L167.978771,37.9069767 L166.961531,37.9069767 L166.961531,31.1069767 L168.320977,31.1069767 L171.682089,36.4976744 L171.710216,36.4976744 C171.703965,36.4263562 171.691465,36.1666689 171.672714,35.7186047 C171.653963,35.2705404 171.644587,34.9209315 171.644587,34.6697674 L171.644587,31.1069767 L172.671203,31.1069767 L172.671203,37.9069767 Z M179.967123,34.4418605 C179.967123,35.5643467 179.653048,36.4224777 179.024887,37.0162791 C178.396726,37.6100805 177.492,37.9069767 176.310683,37.9069767 L174.393395,37.9069767 L174.393395,31.1069767 L176.512256,31.1069767 C177.602943,31.1069767 178.451416,31.3984467 179.057701,31.9813953 C179.663985,32.564344 179.967123,33.3844908 179.967123,34.4418605 Z M178.785812,34.4790698 C178.785812,32.8511547 178.018592,32.0372093 176.484129,32.0372093 L175.513766,32.0372093 L175.513766,36.972093 L176.310683,36.972093 C177.960777,36.972093 178.785812,36.1410936 178.785812,34.4790698 Z M187.43649,34.4976744 C187.43649,35.6046567 187.157572,36.4651132 186.599727,37.0790698 C186.041883,37.6930263 185.252006,38 184.230073,38 C183.195639,38 182.401074,37.6953519 181.846355,37.0860465 C181.291636,36.4767411 181.01428,35.6108583 181.01428,34.4883721 C181.01428,33.3658859 181.293198,32.503879 181.851042,31.9023256 C182.408887,31.3007722 183.205014,31 184.239448,31 C185.258256,31 186.04579,31.3054233 186.602071,31.9162791 C187.158353,32.5271348 187.43649,33.3875913 187.43649,34.4976744 Z M182.204967,34.4976744 C182.204967,35.3348879 182.375287,35.9697653 182.715931,36.4023256 C183.056576,36.8348859 183.561284,37.0511628 184.230073,37.0511628 C184.895736,37.0511628 185.398101,36.8372114 185.737182,36.4093023 C186.076264,35.9813932 186.245803,35.3441903 186.245803,34.4976744 C186.245803,33.6635617 186.077827,33.0310099 185.74187,32.6 C185.405914,32.1689901 184.905111,31.9534884 184.239448,31.9534884 C183.567535,31.9534884 183.060482,32.1689901 182.718275,32.6 C182.376068,33.0310099 182.204967,33.6635617 182.204967,34.4976744 Z M194.530837,37.9069767 L193.157328,37.9069767 L189.78684,32.4883721 L189.749338,32.4883721 L189.772776,32.7906977 C189.816529,33.3674447 189.838405,33.8945713 189.838405,34.372093 L189.838405,37.9069767 L188.821164,37.9069767 L188.821164,31.1069767 L190.18061,31.1069767 L193.541723,36.4976744 L193.569849,36.4976744 C193.563599,36.4263562 193.551098,36.1666689 193.532347,35.7186047 C193.513596,35.2705404 193.504221,34.9209315 193.504221,34.6697674 L193.504221,31.1069767 L194.530837,31.1069767 L194.530837,37.9069767 Z M200.129793,37.9069767 L196.253029,37.9069767 L196.253029,31.1069767 L200.129793,31.1069767 L200.129793,32.0465116 L197.3734,32.0465116 L197.3734,33.8976744 L199.956347,33.8976744 L199.956347,34.827907 L197.3734,34.827907 L197.3734,36.9627907 L200.129793,36.9627907 L200.129793,37.9069767 Z M205.475612,36.0604651 C205.475612,36.6651193 205.25529,37.1395332 204.81464,37.4837209 C204.37399,37.8279087 203.766151,38 202.991107,38 C202.216063,38 201.581661,37.8806213 201.087883,37.6418605 L201.087883,36.5906977 C201.400401,36.7364348 201.732446,36.8511624 202.084029,36.9348837 C202.435611,37.0186051 202.762969,37.0604651 203.066111,37.0604651 C203.509886,37.0604651 203.837244,36.976745 204.048193,36.8093023 C204.259143,36.6418596 204.364616,36.4170557 204.364616,36.1348837 C204.364616,35.8806189 204.267737,35.6651172 204.073976,35.4883721 C203.880215,35.311627 203.480198,35.1023268 202.873914,34.8604651 C202.248878,34.6093011 201.808234,34.3224822 201.55197,34 C201.295705,33.6775178 201.167575,33.2899247 201.167575,32.8372093 C201.167575,32.2697646 201.370708,31.8232574 201.776981,31.4976744 C202.183255,31.1720914 202.72859,31.0093023 203.413004,31.0093023 C204.069292,31.0093023 204.722444,31.1519366 205.372481,31.4372093 L205.016213,32.344186 C204.406803,32.0899212 203.86303,31.9627907 203.384878,31.9627907 C203.022357,31.9627907 202.747345,32.0410845 202.559835,32.1976744 C202.372324,32.3542643 202.27857,32.561239 202.27857,32.8186047 C202.27857,32.9953497 202.316072,33.146511 202.391076,33.272093 C202.46608,33.397675 202.589523,33.5162785 202.761408,33.627907 C202.933293,33.7395354 203.242681,33.8868208 203.689581,34.0697674 C204.192735,34.2775204 204.5615,34.4713169 204.795889,34.6511628 C205.030277,34.8310087 205.202159,35.0341074 205.311541,35.2604651 C205.420922,35.4868228 205.475612,35.7534868 205.475612,36.0604651 Z M206.714966,37.9069767 L206.714966,31.1069767 L207.835337,31.1069767 L207.835337,37.9069767 L206.714966,37.9069767 Z M213.809313,37.9069767 L213.124902,36.0186047 L210.504453,36.0186047 L209.834106,37.9069767 L208.652794,37.9069767 L211.21699,31.0790698 L212.435804,31.0790698 L215,37.9069767 L213.809313,37.9069767 Z M212.829574,35.0604651 L212.187353,33.2093023 C212.140476,33.0852707 212.075629,32.8899238 211.992812,32.6232558 C211.909995,32.3565878 211.852961,32.1612409 211.821709,32.0372093 C211.73733,32.4186066 211.613887,32.8356567 211.451378,33.2883721 L210.832595,35.0604651 L212.829574,35.0604651 Z" id="BANK-SENTRAL-REPUBLI" stroke="#FFFFFF" stroke-width="0.3"></path>
                </g>
            </g>
        </g>
    </g>
</svg>