<?xml version="1.0" encoding="utf-8"?>
<!-- Generator: Adobe Illustrator 16.0.0, SVG Export Plug-In . SVG Version: 6.00 Build 0)  -->
<!DOCTYPE svg PUBLIC "-//W3C//DTD SVG 1.1//EN" "http://www.w3.org/Graphics/SVG/1.1/DTD/svg11.dtd">
<svg version="1.1" id="Layer_1" xmlns="http://www.w3.org/2000/svg" xmlns:xlink="http://www.w3.org/1999/xlink" x="0px" y="0px"
	 width="109px" height="37px" viewBox="0 0 109 37" enable-background="new 0 0 109 37" xml:space="preserve">
<g>
	<g>
		<defs>
			<path id="SVGID_1_" d="M90.015,27.876h-3.472c-0.668-1.052-1.412-2.095-2.229-3.132c-0.816-1.036-1.674-2.042-2.568-3.017h-0.228
				v4.376c0,0.195,0.036,0.369,0.109,0.523c0.073,0.153,0.205,0.277,0.397,0.372c0.092,0.041,0.266,0.091,0.519,0.15
				s0.464,0.092,0.632,0.098v0.629h-5.137v-0.629c0.133-0.012,0.328-0.03,0.584-0.054s0.436-0.059,0.541-0.105
				c0.174-0.077,0.301-0.191,0.379-0.342s0.118-0.332,0.118-0.545V17.13c0-0.201-0.034-0.375-0.101-0.522
				c-0.066-0.148-0.199-0.269-0.396-0.363c-0.157-0.077-0.344-0.145-0.559-0.204c-0.215-0.059-0.404-0.094-0.566-0.106v-0.629h5.137
				v0.629c-0.162,0.006-0.366,0.032-0.61,0.08s-0.425,0.092-0.54,0.133c-0.198,0.071-0.332,0.189-0.402,0.354
				c-0.069,0.166-0.104,0.345-0.104,0.541v4.341h0.175c0.523-0.449,1.038-0.918,1.544-1.404c0.506-0.488,0.966-0.974,1.378-1.458
				c0.459-0.538,0.795-0.967,1.008-1.289c0.212-0.322,0.318-0.607,0.318-0.855c0-0.089-0.054-0.161-0.162-0.217
				c-0.107-0.056-0.23-0.102-0.37-0.137c-0.163-0.035-0.308-0.058-0.437-0.066c-0.127-0.009-0.232-0.016-0.313-0.022v-0.629h4.64
				v0.629c-0.017,0-0.055,0.003-0.113,0.009c-0.058,0.006-0.125,0.012-0.2,0.018c-0.081,0.006-0.163,0.018-0.244,0.036
				c-0.081,0.018-0.187,0.038-0.313,0.062c-0.204,0.047-0.415,0.123-0.633,0.226c-0.219,0.104-0.396,0.232-0.537,0.385
				c-0.599,0.691-1.224,1.406-1.875,2.144c-0.65,0.738-1.297,1.412-1.937,2.02c0.884,1.016,1.615,1.89,2.194,2.622
				c0.578,0.732,1.193,1.516,1.845,2.348c0.25,0.319,0.5,0.574,0.75,0.767s0.466,0.335,0.646,0.43
				c0.151,0.077,0.34,0.136,0.566,0.177c0.228,0.041,0.416,0.065,0.567,0.071V27.876z M77.555,15.934
				c-0.163,0.006-0.414,0.053-0.75,0.142c-0.338,0.088-0.579,0.18-0.725,0.274c-0.209,0.148-0.351,0.431-0.423,0.851
				c-0.073,0.419-0.109,0.951-0.109,1.595V28h-0.759l-7.502-10.285v6.484c0,0.727,0.045,1.285,0.136,1.675
				c0.09,0.39,0.228,0.667,0.414,0.833c0.134,0.129,0.41,0.25,0.829,0.363c0.418,0.111,0.694,0.171,0.828,0.177v0.629h-5.076v-0.629
				c0.156-0.012,0.422-0.069,0.793-0.173c0.373-0.104,0.605-0.196,0.698-0.279c0.204-0.165,0.343-0.418,0.419-0.758
				c0.076-0.339,0.113-0.919,0.113-1.74v-6.192c0-0.272-0.047-0.543-0.14-0.815c-0.093-0.272-0.218-0.481-0.375-0.629
				c-0.21-0.195-0.493-0.361-0.851-0.5c-0.357-0.139-0.646-0.214-0.867-0.226v-0.629h3.532l6.961,9.586v-5.98
				c0-0.732-0.047-1.295-0.14-1.688c-0.094-0.393-0.227-0.654-0.401-0.784c-0.163-0.112-0.429-0.222-0.798-0.328
				c-0.369-0.106-0.65-0.166-0.842-0.177v-0.629h5.033V15.934z M59.974,22.738l-1.876-4.873l-1.84,4.873H59.974z M64.963,27.876
				h-5.155v-0.629c0.454-0.03,0.83-0.089,1.13-0.177c0.299-0.089,0.449-0.198,0.449-0.328c0-0.053-0.006-0.118-0.018-0.195
				c-0.012-0.076-0.029-0.145-0.053-0.203l-1.029-2.817h-4.335c-0.163,0.413-0.295,0.773-0.397,1.081
				c-0.101,0.307-0.193,0.59-0.274,0.85c-0.075,0.254-0.127,0.461-0.157,0.621c-0.029,0.158-0.043,0.289-0.043,0.389
				c0,0.236,0.183,0.42,0.549,0.55c0.367,0.13,0.779,0.207,1.239,0.23v0.629H52.21v-0.629c0.151-0.012,0.34-0.046,0.567-0.103
				c0.227-0.056,0.413-0.131,0.558-0.226c0.232-0.159,0.413-0.326,0.541-0.5c0.128-0.175,0.253-0.415,0.375-0.722
				c0.623-1.578,1.309-3.35,2.059-5.316c0.751-1.966,1.419-3.718,2.007-5.253h0.697l4.126,10.843
				c0.087,0.23,0.187,0.417,0.297,0.559s0.265,0.281,0.462,0.416c0.134,0.083,0.309,0.152,0.523,0.209
				c0.215,0.056,0.396,0.087,0.541,0.093V27.876z M50.173,24.137c0-0.743-0.246-1.354-0.737-1.833
				c-0.491-0.479-1.193-0.718-2.106-0.718c-0.372,0-0.686,0.004-0.942,0.014c-0.256,0.009-0.448,0.016-0.576,0.021v4.43
				c0,0.372,0.148,0.652,0.445,0.842c0.296,0.189,0.709,0.283,1.238,0.283c0.867,0,1.53-0.257,1.989-0.771
				C49.943,25.892,50.173,25.136,50.173,24.137z M48.97,20.125c0.215-0.255,0.365-0.532,0.449-0.833
				c0.084-0.301,0.126-0.659,0.126-1.072c0-0.691-0.187-1.233-0.559-1.626c-0.372-0.393-0.959-0.589-1.762-0.589
				c-0.186,0-0.42,0.004-0.702,0.013c-0.282,0.009-0.519,0.016-0.711,0.022v4.828h1.107c0.477,0,0.886-0.062,1.226-0.186
				C48.485,20.559,48.76,20.372,48.97,20.125z M51.072,22.02c0.36,0.248,0.66,0.573,0.898,0.975
				c0.238,0.402,0.357,0.889,0.357,1.463c0,0.584-0.125,1.092-0.375,1.523c-0.25,0.431-0.576,0.785-0.977,1.063
				c-0.39,0.271-0.83,0.479-1.321,0.621c-0.492,0.141-0.999,0.212-1.522,0.212h-5.862v-0.629c0.14-0.012,0.343-0.037,0.61-0.075
				c0.268-0.039,0.459-0.084,0.576-0.138c0.181-0.083,0.308-0.193,0.384-0.332s0.114-0.317,0.114-0.536V17.13
				c0-0.201-0.034-0.378-0.101-0.531c-0.067-0.154-0.199-0.278-0.397-0.372c-0.174-0.089-0.369-0.157-0.584-0.204
				c-0.215-0.047-0.396-0.077-0.541-0.088v-0.629h5.713c0.442,0,0.865,0.044,1.269,0.133c0.404,0.088,0.79,0.245,1.156,0.469
				c0.343,0.207,0.625,0.487,0.846,0.842s0.332,0.786,0.332,1.293c0,0.443-0.079,0.837-0.235,1.183
				c-0.157,0.345-0.378,0.642-0.663,0.89c-0.268,0.236-0.574,0.436-0.92,0.598c-0.346,0.163-0.72,0.289-1.121,0.377v0.08
				c0.354,0.041,0.751,0.131,1.19,0.27S50.729,21.771,51.072,22.02z M109,3.934h-0.672c-0.18-0.538-0.469-1.113-0.867-1.728
				s-0.767-0.945-1.104-0.992c-0.187-0.024-0.416-0.044-0.689-0.062c-0.273-0.018-0.509-0.027-0.707-0.027h-0.41v9.86
				c0,0.212,0.039,0.4,0.114,0.563c0.075,0.162,0.224,0.291,0.444,0.385c0.134,0.053,0.342,0.108,0.624,0.164s0.522,0.096,0.72,0.12
				v0.691h-6.9v-0.691c0.169-0.018,0.406-0.043,0.711-0.075c0.306-0.033,0.514-0.073,0.624-0.12
				c0.228-0.095,0.378-0.222,0.454-0.381c0.075-0.159,0.113-0.348,0.113-0.567V1.125h-0.41c-0.197,0-0.434,0.009-0.707,0.027
				c-0.273,0.018-0.502,0.038-0.688,0.062c-0.337,0.047-0.705,0.378-1.104,0.992s-0.688,1.19-0.868,1.728h-0.672V0.336H109V3.934z
				 M92.073,3.562c0-0.839-0.231-1.452-0.693-1.838c-0.462-0.387-1.121-0.581-1.976-0.581h-0.689v5.263h0.663
				c0.854,0,1.519-0.228,1.989-0.682C91.838,5.268,92.073,4.548,92.073,3.562z M98.014,12.908h-4.745
				c-0.82-1.276-1.502-2.292-2.046-3.047c-0.543-0.756-1.219-1.63-2.027-2.623h-0.48v3.818c0,0.212,0.039,0.393,0.118,0.541
				c0.079,0.147,0.228,0.271,0.449,0.372c0.11,0.047,0.283,0.096,0.519,0.146c0.236,0.05,0.438,0.084,0.606,0.102v0.691h-6.603
				v-0.691c0.168-0.018,0.391-0.043,0.667-0.075c0.276-0.033,0.472-0.073,0.589-0.12c0.221-0.095,0.369-0.214,0.444-0.359
				s0.114-0.33,0.114-0.554V2.241c0-0.212-0.033-0.39-0.097-0.531s-0.218-0.266-0.462-0.372c-0.187-0.077-0.406-0.142-0.658-0.195
				c-0.254-0.053-0.453-0.091-0.598-0.115V0.336h6.943c1.553,0,2.73,0.247,3.537,0.74c0.805,0.493,1.207,1.239,1.207,2.237
				c0,0.88-0.248,1.587-0.745,2.122s-1.255,0.952-2.272,1.253c0.396,0.52,0.856,1.122,1.383,1.808
				c0.525,0.685,1.074,1.385,1.645,2.1c0.18,0.23,0.426,0.512,0.736,0.846c0.312,0.334,0.586,0.539,0.824,0.616
				c0.134,0.042,0.305,0.077,0.511,0.106c0.206,0.029,0.353,0.047,0.44,0.053V12.908z M77.746,7.823l-1.797-4.554l-1.771,4.554
				H77.746z M84.244,12.908h-6.742v-0.691c0.314-0.024,0.684-0.081,1.107-0.173c0.425-0.092,0.637-0.205,0.637-0.341
				c0-0.047-0.004-0.1-0.013-0.159s-0.034-0.139-0.074-0.239L78.104,8.7H73.83c-0.1,0.242-0.209,0.525-0.328,0.851
				c-0.119,0.325-0.222,0.614-0.309,0.868c-0.111,0.331-0.176,0.57-0.197,0.717c-0.02,0.148-0.03,0.251-0.03,0.31
				c0,0.189,0.142,0.35,0.423,0.483c0.282,0.133,0.752,0.229,1.409,0.288v0.691h-5.077v-0.691c0.192-0.012,0.409-0.043,0.65-0.093
				s0.432-0.12,0.571-0.208c0.238-0.142,0.44-0.316,0.606-0.523c0.166-0.207,0.304-0.452,0.414-0.735
				c0.675-1.659,1.351-3.322,2.028-4.987c0.677-1.666,1.426-3.502,2.246-5.51h1.744c1.14,2.847,2.032,5.097,2.679,6.75
				c0.645,1.654,1.194,3.024,1.648,4.11c0.075,0.177,0.171,0.338,0.287,0.483c0.117,0.145,0.282,0.282,0.498,0.412
				c0.162,0.094,0.352,0.166,0.566,0.212c0.215,0.047,0.41,0.077,0.584,0.089V12.908z M70.092,12.908h-6.708v-0.691
				c0.198-0.018,0.44-0.047,0.729-0.089c0.288-0.041,0.483-0.085,0.589-0.133c0.215-0.088,0.369-0.209,0.463-0.363
				c0.092-0.153,0.139-0.348,0.139-0.584V1.657l-4.256,11.047h-1.1c-0.053-0.195-0.182-0.582-0.389-1.161
				c-0.206-0.579-0.373-1.042-0.501-1.391l-3.132-8.638V9.16c0,0.732,0.049,1.289,0.145,1.67s0.251,0.66,0.467,0.837
				c0.145,0.124,0.405,0.242,0.78,0.354c0.375,0.112,0.638,0.177,0.79,0.195v0.691h-5.322v-0.691
				c0.146-0.018,0.382-0.058,0.711-0.12s0.598-0.17,0.807-0.324c0.232-0.165,0.39-0.444,0.471-0.837
				c0.082-0.393,0.122-0.952,0.122-1.679V3.03c0-0.378-0.046-0.692-0.139-0.943c-0.093-0.251-0.233-0.451-0.419-0.598
				c-0.232-0.183-0.471-0.301-0.715-0.354c-0.244-0.053-0.491-0.088-0.741-0.106V0.336h5.696l3.053,8.301l2.573-6.742
				c0.087-0.248,0.171-0.543,0.253-0.886c0.081-0.342,0.125-0.567,0.131-0.673h5.486v0.691c-0.186,0.012-0.381,0.035-0.584,0.071
				c-0.203,0.035-0.398,0.083-0.585,0.142c-0.227,0.077-0.376,0.198-0.449,0.363c-0.072,0.166-0.108,0.349-0.108,0.549v8.903
				c0,0.212,0.036,0.391,0.108,0.536c0.073,0.145,0.223,0.27,0.449,0.376c0.116,0.053,0.308,0.104,0.571,0.15
				c0.265,0.047,0.47,0.08,0.615,0.098V12.908z M47.234,13.244c-0.756,0-1.461-0.094-2.116-0.283
				c-0.654-0.189-1.208-0.414-1.662-0.673l-0.602,0.62h-0.742L42,8.363h0.75c0.169,0.431,0.384,0.886,0.646,1.365
				c0.262,0.478,0.564,0.906,0.907,1.284c0.355,0.396,0.751,0.718,1.191,0.966c0.439,0.248,0.952,0.372,1.54,0.372
				c0.791,0,1.397-0.196,1.818-0.589c0.422-0.393,0.632-0.887,0.632-1.484c0-0.49-0.179-0.902-0.536-1.236
				c-0.358-0.333-0.912-0.622-1.662-0.864c-0.489-0.159-0.938-0.307-1.348-0.443c-0.41-0.136-0.795-0.274-1.156-0.417
				c-0.832-0.336-1.45-0.818-1.854-1.444c-0.404-0.626-0.606-1.326-0.606-2.1c0-0.49,0.104-0.961,0.314-1.413
				c0.209-0.452,0.515-0.858,0.916-1.218c0.384-0.336,0.875-0.611,1.474-0.824S46.277,0,46.98,0c0.687,0,1.329,0.096,1.928,0.288
				c0.599,0.192,1.07,0.385,1.413,0.58l0.532-0.532h0.759l0.07,4.288h-0.75c-0.174-0.46-0.379-0.932-0.615-1.413
				c-0.236-0.481-0.484-0.881-0.746-1.201c-0.285-0.342-0.613-0.615-0.985-0.819c-0.373-0.204-0.809-0.306-1.309-0.306
				c-0.628,0-1.141,0.18-1.54,0.541S45.14,2.232,45.14,2.764c0,0.502,0.173,0.913,0.519,1.231s0.885,0.599,1.618,0.841
				c0.43,0.148,0.869,0.295,1.317,0.443c0.448,0.147,0.846,0.289,1.195,0.425c0.843,0.331,1.484,0.787,1.923,1.369
				c0.439,0.582,0.659,1.304,0.659,2.166c0,0.543-0.125,1.069-0.375,1.577s-0.587,0.93-1.012,1.267
				c-0.465,0.372-1.003,0.658-1.614,0.859C48.76,13.144,48.048,13.244,47.234,13.244z"/>
		</defs>
		<clipPath id="SVGID_2_">
			<use xlink:href="#SVGID_1_"  overflow="visible"/>
		</clipPath>
		<g clip-path="url(#SVGID_2_)">
			<defs>
				<rect id="SVGID_3_" x="-150" y="-30" width="1440" height="900"/>
			</defs>
			<clipPath id="SVGID_4_">
				<use xlink:href="#SVGID_3_"  overflow="visible"/>
			</clipPath>
			<rect x="37" y="-5" clip-path="url(#SVGID_4_)" fill="#FFFFFF" width="77" height="38"/>
		</g>
	</g>
	<g>
		<defs>
			<path id="SVGID_5_" d="M9.056,9.308v18.385h17.889V9.308H9.056z M0,0h36v37H0V0z"/>
		</defs>
		<clipPath id="SVGID_6_">
			<use xlink:href="#SVGID_5_"  overflow="visible"/>
		</clipPath>
		<g clip-path="url(#SVGID_6_)">
			<defs>
				<rect id="SVGID_7_" x="-150" y="-30" width="1440" height="900"/>
			</defs>
			<clipPath id="SVGID_8_">
				<use xlink:href="#SVGID_7_"  overflow="visible"/>
			</clipPath>
			<rect x="-5" y="-5" clip-path="url(#SVGID_8_)" fill="#FFFFFF" width="46" height="47"/>
		</g>
	</g>
</g>
</svg>
