<?xml version="1.0" encoding="UTF-8"?>
<svg width="104px" height="35px" viewBox="0 0 104 35" version="1.1" xmlns="http://www.w3.org/2000/svg" xmlns:xlink="http://www.w3.org/1999/xlink">
    <!-- Generator: Sketch 53 (72520) - https://sketchapp.com -->
    <title>Group 34</title>
    <desc>Created with Sketch.</desc>
    <g id="Desktop" stroke="none" stroke-width="1" fill="none" fill-rule="evenodd">
        <g id="03_Accounts_Statement" transform="translate(-202.000000, -13.000000)" fill="#0061B4">
            <g id="Group-51" transform="translate(202.000000, 10.000000)">
                <g id="Group-46" transform="translate(0.000000, 3.000000)">
                    <g id="Group-34">
                        <path d="M45.0358021,12.6836547 C44.3147109,12.6836547 43.6421648,12.5931591 43.0181436,12.4121651 C42.3941223,12.2311712 41.8657923,12.016244 41.4331376,11.7673773 L40.8590409,12.3612608 L40.1518204,12.3612608 L40.0436573,8.00894319 L40.759198,8.00894319 C40.9200569,8.42183568 41.1252874,8.85734589 41.3748959,9.31548688 C41.6245044,9.77362787 41.9129365,10.1836862 42.240201,10.5456741 C42.5785592,10.9246303 42.9571264,11.232881 43.3759139,11.4704356 C43.7947015,11.7079902 44.2842041,11.8267657 44.8444365,11.8267657 C45.5988088,11.8267657 46.1770598,11.6387045 46.5792068,11.2625764 C46.9813538,10.8864483 47.1824243,10.4127602 47.1824243,9.84149798 C47.1824243,9.37204487 47.0118611,8.97754049 46.6707295,8.65797301 C46.3295979,8.33840553 45.8012679,8.06267666 45.0857235,7.83077814 C44.6197877,7.67806447 44.1912995,7.53666505 43.8002462,7.40657564 C43.4091929,7.27648622 43.0417193,7.14357077 42.6978143,7.00782529 C41.904614,6.68542978 41.3152694,6.22446767 40.929763,5.62492514 C40.5442566,5.02538261 40.3515062,4.35514936 40.3515062,3.61420529 C40.3515062,3.14475218 40.4513481,2.69368803 40.6510349,2.26099932 C40.8507217,1.82831061 41.1419272,1.43946221 41.5246602,1.09444245 C41.8907527,0.772046937 42.3594549,0.509044017 42.930781,0.305425799 C43.5021071,0.101807582 44.1233456,0 44.7945151,0 C45.449044,0 46.0619623,0.0919096224 46.6332884,0.275731625 C47.2046145,0.459553627 47.653903,0.644786866 47.9811675,0.831436899 L48.4887022,0.322393899 L49.2125632,0.322393899 L49.2791251,4.42867409 L48.5635844,4.42867409 C48.3971787,3.98750129 48.201655,3.53643714 47.9770074,3.07546812 C47.7523597,2.6144991 47.5152352,2.23130667 47.2656267,1.92587935 C46.9938308,1.59782777 46.6804382,1.33623885 46.3254395,1.14110472 C45.9704407,0.945970598 45.5544328,0.848404999 45.0774033,0.848404999 C44.4783429,0.848404999 43.9888403,1.02091229 43.6088807,1.36593205 C43.2289211,1.71095181 43.0389442,2.13797805 43.0389442,2.6470236 C43.0389442,3.12778883 43.2039606,3.52087922 43.5339985,3.82630654 C43.8640364,4.13173387 44.3784995,4.40039277 45.0774033,4.63229129 C45.4878706,4.77369283 45.9066519,4.91509225 46.3337597,5.05649379 C46.7608676,5.19789533 47.1408215,5.33363877 47.4736328,5.46372819 C48.2779268,5.78046764 48.8894584,6.21739185 49.308246,6.77451391 C49.7270336,7.33163598 49.9364242,8.02307914 49.9364242,8.84886414 C49.9364242,9.3692218 49.8171686,9.87260373 49.5786538,10.359025 C49.340139,10.8454463 49.0184263,11.2498487 48.6135058,11.5722442 C48.1697574,11.9285761 47.656681,12.2028909 47.0742612,12.395197 C46.4918414,12.5875031 45.8123618,12.6836547 45.0358021,12.6836547 Z M66.8390942,12.3612608 L60.4408287,12.3612608 L60.4408287,11.6995049 C60.6294217,11.6825367 60.8609995,11.6542569 61.1355688,11.6146644 C61.4101382,11.575072 61.5973417,11.5326522 61.6971851,11.4874037 C61.9024187,11.4025628 62.0494082,11.2866152 62.1381579,11.1395576 C62.2269076,10.9925 62.2712818,10.8058528 62.2712818,10.5796103 L62.2712818,1.58651735 L58.211004,12.1661277 L57.1626536,12.1661277 C57.1127319,11.9794776 56.9893162,11.6090112 56.7924029,11.0547171 C56.5954895,10.5004231 56.4360198,10.0564289 56.313989,9.72272128 L53.3270224,1.45077255 L53.3270224,8.77250769 C53.3270224,9.47385932 53.3727832,10.0069351 53.4643063,10.3717511 C53.5558295,10.7365671 53.7042056,11.003812 53.9094393,11.1734938 C54.0481106,11.2922711 54.2963287,11.4053907 54.6541008,11.5128558 C55.011873,11.620321 55.2628644,11.6825367 55.4070827,11.6995049 L55.4070827,12.3612608 L50.3317355,12.3612608 L50.3317355,11.6995049 C50.4704069,11.6825367 50.6964378,11.6443589 51.0098352,11.5849703 C51.3232325,11.5255816 51.5797707,11.42236 51.7794575,11.2753024 C52.0013317,11.1169327 52.1510945,10.8496878 52.2287505,10.4735597 C52.3064065,10.0974316 52.3452339,9.56152781 52.3452339,8.86583224 L52.3452339,2.9015451 C52.3452339,2.53955715 52.3008597,2.23837639 52.21211,1.99799377 C52.1233603,1.75761115 51.9902378,1.56672194 51.8127384,1.4253204 C51.5908642,1.24998249 51.3634466,1.13686295 51.1304787,1.0859584 C50.8975107,1.03505384 50.6617729,1.00111798 50.4232582,0.984149798 L50.4232582,0.322393899 L55.8563757,0.322393899 L58.7684602,8.27194874 L61.2229313,1.8155867 C61.3061342,1.57803211 61.3865624,1.29523327 61.4642183,0.967181698 C61.5418743,0.639130125 61.5834751,0.424203008 61.589022,0.322393899 L66.8224537,0.322393899 L66.8224537,0.984149798 C66.6449544,0.995461922 66.4591375,1.01808583 66.2649976,1.0520222 C66.0708576,1.08595857 65.8850408,1.13120638 65.7075414,1.187767 C65.4912141,1.2612958 65.3483847,1.37724332 65.279049,1.53561305 C65.2097133,1.69398277 65.175046,1.86931805 65.175046,2.06162415 L65.175046,10.5880944 C65.175046,10.7917126 65.2097133,10.9628059 65.279049,11.1013794 C65.3483847,11.2399529 65.4912141,11.3601424 65.7075414,11.4619515 C65.8184785,11.5128561 66.0001353,11.5609319 66.2525172,11.6061804 C66.5048991,11.6514289 66.7004228,11.6825367 66.8390942,11.6995049 L66.8390942,12.3612608 Z M80.3387856,12.3612608 L73.907239,12.3612608 L73.907239,11.6995049 C74.2067692,11.6768807 74.5589893,11.6217349 74.9639097,11.534066 C75.3688301,11.446397 75.5712873,11.3375194 75.5712873,11.20743 C75.5712873,11.1621815 75.5671272,11.1112777 75.5588069,11.0547171 C75.5504867,10.9981565 75.5269129,10.9218008 75.4880849,10.8256478 L74.4813357,8.33133709 L70.4044175,8.33133709 C70.3101209,8.56323561 70.2061189,8.8347225 70.0924084,9.14580588 C69.9786979,9.45688927 69.8802427,9.73403213 69.7970398,9.97724278 C69.6916496,10.2939822 69.6292484,10.5230493 69.6098344,10.6644508 C69.5904204,10.8058524 69.5807136,10.904832 69.5807136,10.9613926 C69.5807136,11.1423866 69.7152228,11.2965119 69.9842453,11.4237733 C70.2532678,11.5510347 70.7011696,11.6429443 71.3279642,11.6995049 L71.3279642,12.3612608 L66.4855838,12.3612608 L66.4855838,11.6995049 C66.66863,11.6881928 66.8752473,11.6584989 67.1054418,11.6104224 C67.3356363,11.5623459 67.5172931,11.4958882 67.6504176,11.4110472 C67.8778387,11.2753018 68.070589,11.1084504 68.2286744,10.9104883 C68.3867597,10.7125261 68.5184956,10.4778031 68.6238858,10.2063121 C69.267321,8.61695882 69.9121333,7.02480136 70.5583419,5.42979199 C71.2045506,3.83478262 71.9186975,2.07577385 72.7008041,0.1527129 L74.3648523,0.1527129 C75.4520359,2.87893459 76.3034655,5.03386174 76.9191664,6.61755899 C77.5348673,8.20125624 78.0590373,9.51344285 78.491692,10.5541582 C78.5638011,10.72384 78.6553229,10.8779654 78.76626,11.0165389 C78.8771971,11.1551124 79.0352801,11.2866139 79.2405137,11.4110472 C79.3958257,11.5015442 79.5760957,11.5694159 79.7813294,11.6146644 C79.986563,11.6599129 80.1723799,11.6881928 80.3387856,11.6995049 L80.3387856,12.3612608 Z M74.1402058,7.49141614 L72.4262361,3.13061444 L70.7372271,7.49141614 L74.1402058,7.49141614 Z M93.4723863,12.3612608 L88.946175,12.3612608 C88.1640684,11.1395515 87.5137094,10.1667235 86.9950784,9.44274763 C86.4764475,8.71877175 85.8316352,7.88168719 85.0606223,6.93146884 L84.6030091,6.93146884 L84.6030091,10.5880944 C84.6030091,10.7917126 84.6404498,10.9642199 84.7153323,11.1056214 C84.7902149,11.247023 84.9330442,11.3657985 85.1438247,11.4619515 C85.249215,11.5072 85.4142315,11.5538618 85.6388791,11.6019384 C85.8635267,11.6500149 86.0562771,11.6825367 86.2171359,11.6995049 L86.2171359,12.3612608 L79.9187132,12.3612608 L79.9187132,11.6995049 C80.079572,11.6825367 80.291736,11.6584988 80.5552117,11.6273905 C80.8186873,11.5962822 81.0058909,11.5581043 81.116828,11.5128558 C81.3276085,11.4223588 81.4690511,11.3078253 81.5411603,11.1692518 C81.6132694,11.0306783 81.6493234,10.853929 81.6493234,10.6389987 L81.6493234,2.14646465 C81.6493234,1.94284643 81.6188162,1.77316713 81.5578007,1.63742165 C81.4967853,1.50167617 81.3497959,1.38290066 81.116828,1.28109155 C80.9393286,1.20756275 80.7299379,1.145347 80.4886497,1.09444245 C80.2473615,1.04353789 80.0573846,1.00677404 79.9187132,0.984149798 L79.9187132,0.322393899 L86.5416253,0.322393899 C88.0226356,0.322393899 89.1472437,0.558530929 89.9154831,1.03081207 C90.6837226,1.50309322 91.0678365,2.21716028 91.0678365,3.17303469 C91.0678365,4.01578787 90.830712,4.69309109 90.3564559,5.20496467 C89.8821998,5.71683824 89.1597327,6.1169986 88.1890331,6.40545774 C88.5662192,6.90319116 89.0058009,7.48010079 89.5077913,8.13620394 C90.0097817,8.79230708 90.532565,9.46254033 91.0761568,10.1469238 C91.2481093,10.3675102 91.4824604,10.6375831 91.7792172,10.9571506 C92.0759739,11.276718 92.3380589,11.4732632 92.56548,11.546792 C92.6930577,11.5863845 92.8553007,11.6203203 93.0522141,11.6486006 C93.2491275,11.6768809 93.3891835,11.6938489 93.4723863,11.6995049 L93.4723863,12.3612608 Z M87.806302,3.41058809 C87.806302,2.60742735 87.5858178,2.02061976 87.1448428,1.65014772 C86.7038678,1.27967569 86.0756958,1.09444245 85.2603081,1.09444245 L84.6030091,1.09444245 L84.6030091,6.13396814 L85.2353474,6.13396814 C86.0507351,6.13396814 86.6830671,5.91621303 87.1323624,5.48069629 C87.5816577,5.04517955 87.806302,4.35515038 87.806302,3.41058809 Z M103.95183,3.76691819 L103.311171,3.76691819 C103.139219,3.25221659 102.863267,2.70075885 102.483307,2.11252845 C102.103348,1.52429804 101.752515,1.20756334 101.430797,1.16231485 C101.253298,1.1396906 101.0342,1.11989468 100.773498,1.1029265 C100.512796,1.08595831 100.288151,1.07747435 100.099558,1.07747435 L99.708507,1.07747435 L99.708507,10.520222 C99.708507,10.7238402 99.744561,10.9034175 99.8166701,11.0589592 C99.8887792,11.2145009 100.030222,11.3375183 100.241002,11.4280153 C100.36858,11.4789199 100.566877,11.5312377 100.8359,11.5849703 C101.104922,11.6387028 101.333726,11.6768807 101.52232,11.6995049 L101.52232,12.3612608 L94.9410087,12.3612608 L94.9410087,11.6995049 C95.1018675,11.6825367 95.3278985,11.6584988 95.6191084,11.6273905 C95.9103183,11.5962822 96.1086154,11.5581043 96.2140056,11.5128558 C96.430333,11.4223588 96.5745491,11.3007553 96.6466582,11.1480417 C96.7187673,10.995328 96.7548213,10.8143368 96.7548213,10.6050625 L96.7548213,1.07747435 L96.36377,1.07747435 C96.1751769,1.07747435 95.9505326,1.08595831 95.6898304,1.1029265 C95.4291282,1.11989468 95.2100307,1.1396906 95.0325314,1.16231485 C94.7108138,1.20756334 94.3599804,1.52429804 93.9800208,2.11252845 C93.6000613,2.70075885 93.3241093,3.25221659 93.1521568,3.76691819 L92.5114983,3.76691819 L92.5114983,0.322393899 L103.95183,0.322393899 L103.95183,3.76691819 Z M48.6967082,21.0879546 C49.0406133,21.3255092 49.326272,21.636588 49.5536931,22.0212001 C49.7811142,22.4058123 49.894823,22.8724304 49.894823,23.4210684 C49.894823,23.9810185 49.7755674,24.4674325 49.5370526,24.880325 C49.2985378,25.2932175 48.9879186,25.6325761 48.6051856,25.898411 C48.2335463,26.1585898 47.8133783,26.356549 47.344669,26.4922945 C46.8759598,26.62804 46.3920039,26.6959117 45.8927869,26.6959117 L40.3015848,26.6959117 L40.3015848,26.0935441 C40.4347093,26.082232 40.6288463,26.0581941 40.8840017,26.0214297 C41.139157,25.9846653 41.3222005,25.9408315 41.4331376,25.8899269 C41.6050901,25.8107421 41.7271191,25.7046925 41.7992282,25.5717751 C41.8713373,25.4388576 41.9073913,25.2677643 41.9073913,25.05849 L41.9073913,16.4047591 C41.9073913,16.212453 41.8754974,16.0427737 41.8117086,15.8957161 C41.7479197,15.7486585 41.6217307,15.6298829 41.4331376,15.539386 C41.2667319,15.454545 41.0809151,15.3895013 40.8756814,15.3442528 C40.6704478,15.2990043 40.4984978,15.2707244 40.3598265,15.2594123 L40.3598265,14.6570448 L45.8095845,14.6570448 C46.2311455,14.6570448 46.6346732,14.6994646 47.0201796,14.7843055 C47.4056861,14.8691464 47.7731597,15.0190298 48.1226116,15.2339602 C48.4498761,15.4319223 48.7188945,15.7005812 48.929675,16.0399449 C49.1404555,16.3793086 49.2458442,16.7921949 49.2458442,17.2786162 C49.2458442,17.7028208 49.1709627,18.0803573 49.0211977,18.4112369 C48.8714326,18.7421165 48.6606552,19.0263293 48.3888593,19.2638839 C48.133704,19.4901264 47.8411117,19.6810156 47.5110739,19.8365573 C47.181036,19.992099 46.8246559,20.1122885 46.4419229,20.1971294 L46.4419229,20.2734858 C46.780281,20.3130783 47.1588482,20.3993319 47.5776358,20.5322494 C47.9964234,20.6651668 48.3694438,20.8504001 48.6967082,21.0879546 Z M46.6915301,19.2723679 C46.8967637,19.0291573 47.0395931,18.7633264 47.1200225,18.4748672 C47.2004519,18.1864081 47.240666,17.8442215 47.240666,17.4482972 C47.240666,16.786538 47.0631693,16.2676021 46.7081706,15.891474 C46.3531718,15.5153459 45.7929479,15.3272847 45.0274818,15.3272847 C44.8499825,15.3272847 44.6267249,15.3315267 44.3577024,15.3400108 C44.0886799,15.3484949 43.862649,15.3555648 43.6796027,15.3612209 L43.6796027,19.9850281 L44.7362734,19.9850281 C45.1911155,19.9850281 45.5807763,19.9256404 45.9052673,19.8068631 C46.2297583,19.6880858 46.4918433,19.5099225 46.6915301,19.2723679 Z M47.8397234,23.1156426 C47.8397234,22.4029788 47.6053723,21.8175852 47.136663,21.3594442 C46.6679537,20.9013033 45.998181,20.6722362 45.1273247,20.6722362 C44.772326,20.6722362 44.4728003,20.6764782 44.2287387,20.6849623 C43.984677,20.6934464 43.8016336,20.7005163 43.6796027,20.7061724 L43.6796027,24.9481974 C43.6796027,25.3045293 43.8210454,25.5731882 44.103935,25.7541821 C44.3868247,25.9351761 44.7806455,26.0256717 45.2854093,26.0256717 C46.1118907,26.0256717 46.7442228,25.7796367 47.1824243,25.2875594 C47.6206259,24.795482 47.8397234,24.071517 47.8397234,23.1156426 Z M61.9467923,26.6959117 L57.0295297,26.6959117 L57.0295297,26.0935441 C57.4621844,26.0652638 57.8213379,26.0087041 58.107001,25.9238631 C58.392664,25.8390222 58.5354934,25.7343866 58.5354934,25.6099533 C58.5354934,25.5590487 58.5299466,25.496833 58.5188529,25.4233042 C58.5077592,25.3497754 58.4911189,25.2847317 58.4689315,25.228171 L57.487143,22.5302431 L53.3519831,22.5302431 C53.1966711,22.9261675 53.0704821,23.271182 52.9734121,23.5652972 C52.8763421,23.8594124 52.7889805,24.1308993 52.7113245,24.379766 C52.6392154,24.6229767 52.5892944,24.8209359 52.5615602,24.9736495 C52.5338259,25.1263632 52.519959,25.2507947 52.519959,25.3469477 C52.519959,25.5731902 52.6946823,25.7485255 53.0441342,25.8729588 C53.393586,25.9973922 53.7874069,26.0709199 54.2256084,26.0935441 L54.2256084,26.6959117 L49.7825996,26.6959117 L49.7825996,26.0935441 C49.9268178,26.082232 50.1070879,26.0497101 50.3234153,25.9959776 C50.5397426,25.942245 50.7172393,25.8701313 50.8559107,25.7796343 C51.0777849,25.6269206 51.2497348,25.4671393 51.3717657,25.3002855 C51.4937965,25.1334316 51.6130521,24.9029506 51.729536,24.6088354 C52.3230495,23.0986669 52.9775686,21.4018739 53.693113,19.5184054 C54.4086573,17.6349369 55.0465361,15.9579398 55.6067685,14.4873638 L56.2723878,14.4873638 L60.2078619,24.8718409 C60.2910647,25.0924273 60.3853599,25.2705906 60.4907501,25.4063361 C60.5961404,25.5420816 60.7431298,25.674997 60.9317229,25.8050864 C61.0593006,25.8842713 61.2257037,25.950729 61.4309374,26.0044616 C61.636171,26.0581942 61.808121,26.0878881 61.9467923,26.0935441 L61.9467923,26.6959117 Z M57.1876143,21.7751627 L55.3987624,17.1089352 L53.6431915,21.7751627 L57.1876143,21.7751627 Z M73.9571605,15.2594123 C73.8018485,15.2650684 73.5633373,15.3103162 73.2416197,15.3951571 C72.9199021,15.479998 72.6897111,15.5676657 72.5510397,15.6581627 C72.3513529,15.7995642 72.2168437,16.0710511 72.147508,16.4726315 C72.0781723,16.8742118 72.043505,17.3832497 72.043505,17.9997605 L72.043505,26.8146884 L71.319644,26.8146884 L64.1642365,16.9647064 L64.1642365,23.1750309 C64.1642365,23.8707265 64.207224,24.4052163 64.2932002,24.7785164 C64.3791765,25.1518165 64.5109123,25.4176474 64.6884117,25.5760171 C64.8159894,25.7004504 65.079461,25.816398 65.4788346,25.9238631 C65.8782082,26.0313283 66.1416799,26.0878881 66.2692575,26.0935441 L66.2692575,26.6959117 L61.4268771,26.6959117 L61.4268771,26.0935441 C61.5766422,26.082232 61.8290203,26.0270862 62.1840191,25.9281052 C62.5390178,25.8291241 62.7608887,25.7400425 62.8496384,25.6608576 C63.0437783,25.5024879 63.1769008,25.2606949 63.2490099,24.9354713 C63.3211191,24.6102478 63.3571731,24.0545481 63.3571731,23.2683555 L63.3571731,17.3380046 C63.3571731,17.0778257 63.3127989,16.8176508 63.2240492,16.557472 C63.1352995,16.2972931 63.0160439,16.0965059 62.8662788,15.9551044 C62.6665921,15.7684544 62.3961869,15.608673 62.0550553,15.4757556 C61.7139237,15.3428381 61.4379718,15.2707244 61.2271913,15.2594123 L61.2271913,14.6570448 L64.596889,14.6570448 L71.2364416,23.8367868 L71.2364416,18.1100531 C71.2364416,17.4087015 71.1920674,16.8699697 71.1033177,16.4938416 C71.014568,16.1177135 70.8869923,15.8674365 70.7205866,15.7430032 C70.5652747,15.635538 70.3115099,15.5309024 69.9592845,15.4290933 C69.6070592,15.3272842 69.3394275,15.2707244 69.1563813,15.2594123 L69.1563813,14.6570448 L73.9571605,14.6570448 L73.9571605,15.2594123 Z M85.842725,26.6959117 L82.531269,26.6959117 C81.8933806,25.6891327 81.1847805,24.6894388 80.4054473,23.6968 C79.6261142,22.7041612 78.809352,21.7412312 77.9551363,20.807981 L77.73881,20.807981 L77.73881,24.9991017 C77.73881,25.1857517 77.7734773,25.352603 77.842813,25.4996606 C77.9121487,25.6467182 78.0383378,25.7654938 78.221384,25.8559907 C78.3101337,25.8955832 78.4751501,25.943659 78.7164383,26.0002196 C78.9577266,26.0567802 79.158797,26.0878881 79.3196558,26.0935441 L79.3196558,26.6959117 L74.4190337,26.6959117 L74.4190337,26.0935441 C74.5466114,26.082232 74.7324283,26.0652641 74.9764899,26.0426398 C75.2205515,26.0200156 75.3925015,25.9860797 75.4923448,25.9408312 C75.6587505,25.8673024 75.7793928,25.7584249 75.8542753,25.6141953 C75.9291579,25.4699657 75.9665986,25.2960445 75.9665986,25.0924262 L75.9665986,16.4047591 C75.9665986,16.212453 75.9347047,16.0456016 75.8709158,15.9042001 C75.807127,15.7627986 75.6809379,15.646851 75.4923448,15.5563541 C75.3425798,15.4828253 75.165083,15.4177815 74.9598494,15.3612209 C74.7546158,15.3046603 74.5743457,15.2707244 74.4190337,15.2594123 L74.4190337,14.6570448 L79.3196558,14.6570448 L79.3196558,15.2594123 C79.1643439,15.2650684 78.9702069,15.2905203 78.737239,15.3357688 C78.504271,15.3810172 78.3323211,15.4234371 78.221384,15.4630295 C78.0327909,15.5309022 77.9052152,15.6440218 77.8386529,15.8023915 C77.7720906,15.9607612 77.73881,16.1332685 77.73881,16.3199186 L77.73881,20.477103 L77.9052148,20.477103 C78.4044318,20.0472424 78.8953211,19.5990062 79.3778975,19.1323811 C79.8604739,18.665756 80.2986689,18.200552 80.6924957,17.7367549 C81.1306972,17.2220533 81.4510233,16.810581 81.6534835,16.5023256 C81.8559437,16.1940703 81.9571723,15.9211694 81.9571723,15.6836148 C81.9571723,15.5987739 81.9058647,15.5294882 81.8032479,15.4757556 C81.700631,15.422023 81.5827621,15.3781892 81.4496376,15.3442528 C81.2943257,15.3103164 81.1556564,15.2891065 81.0336255,15.2806224 C80.9115947,15.2721383 80.8117528,15.2650684 80.7340969,15.2594123 L80.7340969,14.6570448 L85.1604652,14.6570448 L85.1604652,15.2594123 C85.1438247,15.2594123 85.1077706,15.2622403 85.0523021,15.2678964 C84.9968335,15.2735524 84.9330457,15.2792084 84.8609365,15.2848645 C84.7832806,15.2905205 84.7056258,15.3018325 84.6279698,15.3188007 C84.5503138,15.3357688 84.4504719,15.3555648 84.3284411,15.378189 C84.1343012,15.4234375 83.9332307,15.4955512 83.7252236,15.5945323 C83.5172165,15.6935134 83.3466533,15.8165309 83.2135288,15.9635885 C82.6422027,16.6253477 82.0459247,17.3097208 81.4246769,18.0167286 C80.8034291,18.7237363 80.1877374,19.3685176 79.5775833,19.9510919 C80.4207053,20.9239345 81.1182119,21.7610191 81.670124,22.4623707 C82.2220361,23.1637224 82.8086073,23.9131393 83.429855,24.710644 C83.6683698,25.0160713 83.906881,25.2606923 84.1453958,25.4445143 C84.3839106,25.6283363 84.5891411,25.7654938 84.7610936,25.8559907 C84.9053119,25.9295195 85.085582,25.9860793 85.3019093,26.0256717 C85.5182367,26.0652642 85.6985068,26.0878881 85.842725,26.0935441 L85.842725,26.6959117 Z" id="SMART-BANK"></path>
                        <path d="M0,0 L34.2927065,0 L34.2927065,34.9678604 L0,34.9678604 L0,0 Z M8.62642617,8.79626303 L8.62642617,26.1715974 L25.6662803,26.1715974 L25.6662803,8.79626303 L8.62642617,8.79626303 Z" id="Combined-Shape"></path>
                    </g>
                </g>
            </g>
        </g>
    </g>
</svg>