<?xml version="1.0" encoding="UTF-8"?>
<svg width="23px" height="23px" viewBox="0 0 23 23" version="1.1" xmlns="http://www.w3.org/2000/svg" xmlns:xlink="http://www.w3.org/1999/xlink">
    <!-- Generator: Sketch 52.2 (67145) - http://www.bohemiancoding.com/sketch -->
    <title>Announcements</title>
    <desc>Created with Sketch.</desc>
    <g id="Page-1" stroke="none" stroke-width="1" fill="none" fill-rule="evenodd">
        <g id="05_GIRO-(Expand)" transform="translate(-1190.000000, -335.000000)">
            <g id="Group-39" transform="translate(1190.000000, 301.000000)">
                <g id="Group-38" transform="translate(0.000000, 32.000000)">
                    <g id="Group-37">
                        <g id="Announcements" transform="translate(0.000000, 2.000000)">
                            <g id="Group-34" transform="translate(0.000000, 2.000000)" fill-rule="nonzero">
                                <path d="M3.99995768,4.17520065 L3.99995768,3 L1,3 C1,3 0,3.52884278 0,4.17520065 L0,18.7279752 C0.0333460285,20.0010969 0.916677246,21 2,21 L4,21 L3.99995768,4.17520065 L3.99995768,4.17520065 Z" id="Shape" fill="#C2C2C2"></path>
                                <path d="M4,0 L3,0 C2.45000212,0 2,0.534912019 2,1.18868779 L2,18.6226244 C2,19.4943087 1.60001693,20.2669482 1,20.6829965 C1.2999873,20.8810859 1.63332064,21 2,21 L4,21 L4,0 Z" id="Shape" fill="#DADADA"></path>
                            </g>
                            <path d="M21.589196,-7.10542736e-15 L4.36917228,-7.10542736e-15 C3.82634455,-7.10542736e-15 3.24611485,0.641482833 3.24611485,1.16633691 L3.24611485,20.605088 C3.24611485,21.8880536 2.23535842,22.9377618 1,22.9377618 L20.4661386,22.9377618 C21.701497,22.9377618 22.7122535,21.8880536 22.7122535,20.605088 L22.7122535,1.16633691 C22.7122535,0.602639485 22.0945743,-7.10542736e-15 21.589196,-7.10542736e-15 Z" id="Shape" fill="#EFEFEF" fill-rule="nonzero"></path>
                            <path d="M5.48695446,13.3637618 L9.23043168,13.3637618 C9.64223366,13.3637618 9.97913663,13.0138755 9.97913663,12.5862039 L9.97913663,8.30968455 C9.97913663,7.88201288 9.64223366,7.53212661 9.23043168,7.53212661 L5.48695446,7.53212661 C5.07515248,7.53212661 4.7382495,7.88201288 4.7382495,8.30968455 L4.7382495,12.5862039 C4.73829703,13.0138755 5.0752,13.3637618 5.48695446,13.3637618 Z" id="Path" fill="#D6D9DB" fill-rule="nonzero"></path>
                            <path d="M5.48695446,8.69846352 C5.48695446,8.48465236 5.6554297,8.30968455 5.86130693,8.30968455 L8.85607921,8.30968455 C9.06195644,8.30968455 9.23043168,8.48465236 9.23043168,8.69846352 L9.23043168,12.1974249 C9.23043168,12.4112361 9.06195644,12.5862039 8.85607921,12.5862039 L5.86130693,12.5862039 C5.6554297,12.5862039 5.48695446,12.4112361 5.48695446,12.1974249 L5.48695446,8.69846352 Z" id="Path" fill="#D6D9DB" fill-rule="nonzero"></path>
                            <path d="M19.337901,17.8346459 L5.1126495,17.8346459 C4.90677228,17.8346459 4.73829703,18.0096137 4.73829703,18.2234249 C4.73829703,18.4372361 4.90677228,18.6122039 5.1126495,18.6122039 L19.337901,18.6122039 C19.5437782,18.6122039 19.7122535,18.4372361 19.7122535,18.2234249 C19.7122535,18.0096137 19.5437782,17.8346459 19.337901,17.8346459 Z" id="Path" fill="#D6D9DB" fill-rule="nonzero"></path>
                            <path d="M19.337901,14.7244635 L5.1126495,14.7244635 C4.90677228,14.7244635 4.73829703,14.8994313 4.73829703,15.1132425 C4.73829703,15.3270536 4.90677228,15.5020215 5.1126495,15.5020215 L19.337901,15.5020215 C19.5437782,15.5020215 19.7122535,15.3270536 19.7122535,15.1132425 C19.7122535,14.8994313 19.5437782,14.7244635 19.337901,14.7244635 Z" id="Path" fill="#D6D9DB" fill-rule="nonzero"></path>
                            <path d="M19.337901,16.2795794 L5.1126495,16.2795794 C4.90677228,16.2795794 4.73829703,16.4545472 4.73829703,16.6683584 C4.73829703,16.8821695 4.90677228,17.0571373 5.1126495,17.0571373 L19.337901,17.0571373 C19.5437782,17.0571373 19.7122535,16.8821695 19.7122535,16.6683584 C19.7122535,16.4545472 19.5437782,16.2795794 19.337901,16.2795794 Z" id="Path" fill="#D6D9DB" fill-rule="nonzero"></path>
                            <path d="M19.337901,10.642309 L11.850899,10.642309 C11.6450218,10.642309 11.4765465,10.8172768 11.4765465,11.031088 C11.4765465,11.2448991 11.6450218,11.419867 11.850899,11.419867 L19.3378535,11.419867 C19.5437307,11.419867 19.7122059,11.2448991 19.7122059,11.031088 C19.7122059,10.8172768 19.5437782,10.642309 19.337901,10.642309 Z" id="Path" fill="#D6D9DB" fill-rule="nonzero"></path>
                            <path d="M19.337901,7.53212661 L11.850899,7.53212661 C11.6450218,7.53212661 11.4765465,7.70709442 11.4765465,7.92090558 C11.4765465,8.13471674 11.6450218,8.30968455 11.850899,8.30968455 L19.3378535,8.30968455 C19.5437307,8.30968455 19.7122059,8.13471674 19.7122059,7.92090558 C19.7122535,7.70709442 19.5437782,7.53212661 19.337901,7.53212661 Z" id="Path" fill="#D6D9DB" fill-rule="nonzero"></path>
                            <path d="M19.337901,12.1974249 L11.850899,12.1974249 C11.6450218,12.1974249 11.4765465,12.3723927 11.4765465,12.5862039 C11.4765465,12.800015 11.6450218,12.9749828 11.850899,12.9749828 L19.3378535,12.9749828 C19.5437307,12.9749828 19.7122059,12.800015 19.7122059,12.5862039 C19.7122059,12.3723927 19.5437782,12.1974249 19.337901,12.1974249 Z" id="Path" fill="#D6D9DB" fill-rule="nonzero"></path>
                            <path d="M19.337901,2.86682833 L5.1126495,2.86682833 C4.90677228,2.86682833 4.73829703,3.04179614 4.73829703,3.2556073 L4.73829703,5.19950215 C4.73829703,5.4133133 4.90677228,5.58828112 5.1126495,5.58828112 L19.337901,5.58828112 C19.5437782,5.58828112 19.7122535,5.4133133 19.7122535,5.19950215 L19.7122535,3.2556073 C19.7122535,3.04174678 19.5437782,2.86682833 19.337901,2.86682833 Z" id="Path" fill="#D6D9DB" fill-rule="nonzero"></path>
                            <path d="M19.337901,9.08724249 L11.850899,9.08724249 C11.6450218,9.08724249 11.4765465,9.2622103 11.4765465,9.47602146 C11.4765465,9.68983262 11.6450218,9.86480043 11.850899,9.86480043 L19.3378535,9.86480043 C19.5437307,9.86480043 19.7122059,9.68983262 19.7122059,9.47602146 C19.7122059,9.2622103 19.5437782,9.08724249 19.337901,9.08724249 Z" id="Path" fill="#D6D9DB" fill-rule="nonzero"></path>
                            <path d="M17.4661386,19.3897618 L5.1126495,19.3897618 C4.90677228,19.3897618 4.73829703,19.5647296 4.73829703,19.7785408 C4.73829703,19.9923519 4.90677228,20.1673197 5.1126495,20.1673197 L17.4661386,20.1673197 C17.6720158,20.1673197 17.8404911,19.9923519 17.8404911,19.7785408 C17.8404911,19.5647296 17.6720158,19.3897618 17.4661386,19.3897618 Z" id="Path" fill="#D6D9DB" fill-rule="nonzero"></path>
                            <path d="M4.74851485,8.45882324 C4.74851485,7.90676174 5.19017562,7.45922747 5.74730914,7.45922747 L8.92991859,7.45922747 C9.48153744,7.45922747 9.92871287,7.90810584 9.92871287,8.45882324 L9.92871287,12.4317347 C9.92871287,12.9837962 9.4870521,13.4313305 8.92991859,13.4313305 L5.74730914,13.4313305 C5.19569028,13.4313305 4.74851485,12.9824521 4.74851485,12.4317347 L4.74851485,8.45882324 Z" id="Rectangle-2" fill="#3A87AD"></path>
                        </g>
                    </g>
                </g>
            </g>
        </g>
    </g>
</svg>