<?xml version="1.0" encoding="UTF-8"?>
<svg width="24px" height="25px" viewBox="0 0 24 25" version="1.1" xmlns="http://www.w3.org/2000/svg" xmlns:xlink="http://www.w3.org/1999/xlink">
    <!-- Generator: Sketch 52.2 (67145) - http://www.bohemiancoding.com/sketch -->
    <title>Approve</title>
    <desc>Created with Sketch.</desc>
    <g id="Page-1" stroke="none" stroke-width="1" fill="none" fill-rule="evenodd">
        <g id="12_Notifications" transform="translate(-1108.000000, -125.000000)" fill="#468847">
            <g id="Approve" transform="translate(1108.000000, 125.000000)">
                <path d="M11.8683239,0.397727273 C5.32414773,0.397727273 -1.95399252e-14,5.721875 -1.95399252e-14,12.2660511 C-1.95399252e-14,18.8102273 5.32414773,24.134375 11.8683239,24.134375 C18.4125,24.134375 23.7366477,18.8102273 23.7366477,12.2660511 C23.7362216,5.721875 18.4125,0.397727273 11.8683239,0.397727273 Z M11.8683239,22.2214489 C6.37883523,22.2214489 1.91292614,17.7555398 1.91292614,12.265625 C1.91292614,6.77613636 6.37883523,2.31022727 11.8683239,2.31022727 C17.3578125,2.31022727 21.8237216,6.7765625 21.8237216,12.2660511 C21.8237216,17.7555398 17.3578125,22.2214489 11.8683239,22.2214489 Z" id="Shape" fill-rule="nonzero"></path>
                <path d="M15.5629616,8.63224432 L10.0231889,14.1724432 L7.99605824,12.1453125 C7.62276278,11.7715909 7.01722301,11.7715909 6.64392756,12.1453125 C6.27020597,12.518608 6.27020597,13.1241477 6.64392756,13.4974432 L9.34733665,16.2008523 C9.53398438,16.3875 9.77901278,16.48125 10.0236151,16.48125 C10.2682173,16.48125 10.5128196,16.3879261 10.6994673,16.2008523 L16.9155185,9.98480114 C17.2888139,9.61107955 17.2888139,9.00596591 16.9155185,8.63224432 C16.5417969,8.25894886 15.9366832,8.25894886 15.5629616,8.63224432 Z" id="Path"></path>
            </g>
        </g>
    </g>
</svg>