<?xml version="1.0" ?><!DOCTYPE svg  PUBLIC '-//W3C//DTD SVG 1.1//EN'  'http://www.w3.org/Graphics/SVG/1.1/DTD/svg11.dtd'><svg enable-background="new 0 0 500 500" height="500px" id="Layer_1" version="1.1" viewBox="0 0 500 500" width="500px" xml:space="preserve" xmlns="http://www.w3.org/2000/svg" xmlns:xlink="http://www.w3.org/1999/xlink"><path clip-rule="evenodd" d="M286.341,72.333h-27.255c-71.318,0-129.832,54.69-135.831,124.474  c-43.431,22.803-73.136,68.326-73.136,120.835l0.09,0.451c-10.452,2.094-18.26,11.269-18.26,22.26  c0,12.541,10.177,22.717,22.713,22.717h31.977c2.272,35.526,31.887,63.599,67.962,63.599c36.067,0,65.693-28.072,67.964-63.599  h63.954c2.271,35.526,31.89,63.599,67.963,63.599c37.612,0,68.142-30.53,68.142-68.143c0-2.449-0.179-4.994-0.45-7.362  c27.434-15.716,45.877-45.145,45.877-78.948v-61.781c0-11.081-8.906-19.99-19.99-19.99h-26.616  C412.537,123.758,355.476,72.333,286.341,72.333z M250,118.214v90.4h-81.769C168.231,161.467,204.121,122.755,250,118.214z   M295.427,208.614v-90.4c45.881,4.541,81.771,43.253,81.771,90.4H295.427z M177.317,358.525c0,12.536-10.177,22.716-22.715,22.716  c-12.536,0-22.713-10.18-22.713-22.716s10.177-22.716,22.713-22.716C167.14,335.81,177.317,345.989,177.317,358.525z   M377.198,358.525c0,12.536-10.18,22.716-22.716,22.716s-22.711-10.18-22.711-22.716s10.175-22.716,22.711-22.716  S377.198,345.989,377.198,358.525z" fill="#010101" fill-rule="evenodd"/></svg>