<svg xmlns="http://www.w3.org/2000/svg" xmlns:xlink="http://www.w3.org/1999/xlink" width="44" height="44" viewBox="0 0 44 44">
  <defs>
    <ellipse id="avatar-a" cx="19.718" cy="20" rx="19.718" ry="20"/>
  </defs>
  <g fill="none" fill-rule="evenodd" transform="matrix(-1 0 0 1 42 2)">
    <mask id="avatar-b" fill="#fff">
      <use xlink:href="#avatar-a"/>
    </mask>
    <ellipse cx="19.718" cy="20" stroke="#EFEFEF" stroke-width="2" rx="20.718" ry="21"/>
    <path fill="#444" fill-opacity=".5" fill-rule="nonzero" d="M33.2063043,35.4519333 L25.9377174,31.9495333 C25.2521739,31.6188 24.826087,30.9544 24.826087,30.2152 L24.826087,27.7358 C25.0003261,27.5304667 25.1836957,27.2965333 25.3731522,27.0384 C26.3158696,25.7550667 27.071413,24.3265333 27.6207609,22.7858 C28.6943478,22.3113333 29.3913043,21.2883333 29.3913043,20.1333333 L29.3913043,17.2 C29.3913043,16.4938 29.1173913,15.8096 28.6304348,15.275 L28.6304348,11.3744 C28.6730435,10.9710667 28.8404348,8.57013333 27.0386957,6.5894 C25.4758696,4.8712 22.9398913,4 19.5,4 C16.0601087,4 13.5241304,4.8712 11.9613043,6.58866667 C10.1595652,8.5694 10.3269565,10.9710667 10.3695652,11.3744 L10.3695652,15.275 C9.8826087,15.8096 9.60869565,16.4938 9.60869565,17.2 L9.60869565,20.1333333 C9.60869565,21.0258 10.0294565,21.8581333 10.7477174,22.4132667 C11.4446739,25.0730667 12.9032609,27.0772667 13.4130435,27.7204 L13.4130435,30.147 C13.4130435,30.8568667 13.0113043,31.5080667 12.3653261,31.8483333 L5.5776087,35.4167333 C3.37032609,36.5776 2,38.8025333 2,41.2254667 L2,43.6 C2,47.0804 13.4472826,48 19.5,48 C25.5527174,48 37,47.0804 37,43.6 L37,41.3684667 C37,38.8472667 35.5459783,36.5798 33.2063043,35.4519333 Z" mask="url(#avatar-b)"/>
  </g>
</svg>
