<?xml version="1.0" encoding="UTF-8"?>
<svg width="32px" height="21px" viewBox="0 0 32 21" version="1.1" xmlns="http://www.w3.org/2000/svg" xmlns:xlink="http://www.w3.org/1999/xlink">
    <!-- Generator: Sketch 52.2 (67145) - http://www.bohemiancoding.com/sketch -->
    <title>Barchart</title>
    <desc>Created with Sketch.</desc>
    <g id="Page-1" stroke="none" stroke-width="1" fill="none" fill-rule="evenodd">
        <g id="11_Chart-Dropdown" transform="translate(-428.000000, -445.000000)" fill="#333333" fill-rule="nonzero">
            <g id="Group-46" transform="translate(318.000000, 444.000000)">
                <g id="Barchart" transform="translate(110.000000, 1.000000)">
                    <path d="M31.4666667,19.9756098 L31.4666667,0 L25.0666667,0 L25.0666667,19.9756098 L23.4666667,19.9756098 L23.4666667,4.09756098 L17.0666667,4.09756098 L17.0666667,19.9756098 L15.4666667,19.9756098 L15.4666667,8.19512195 L9.06666667,8.19512195 L9.06666667,19.9756098 L7.46666667,19.9756098 L7.46666667,12.804878 L1.06666667,12.804878 L1.06666667,19.9756098 L0.533333333,19.9756098 C0.238933333,19.9756098 0,20.204561 0,20.4878049 C0,20.7710488 0.238933333,21 0.533333333,21 L1.06666667,21 L7.46666667,21 L9.06666667,21 L15.4666667,21 L17.0666667,21 L23.4666667,21 L25.0666667,21 L31.4666667,21 C31.7610667,21 32,20.7710488 32,20.4878049 C32,20.204561 31.7610667,19.9756098 31.4666667,19.9756098 Z M2.13333333,19.9756098 L2.13333333,13.8292683 L6.4,13.8292683 L6.4,19.9756098 L2.13333333,19.9756098 Z M10.1333333,19.9756098 L10.1333333,9.2195122 L14.4,9.2195122 L14.4,19.9756098 L10.1333333,19.9756098 Z M18.1333333,19.9756098 L18.1333333,5.12195122 L22.4,5.12195122 L22.4,19.9756098 L18.1333333,19.9756098 Z M26.1333333,19.9756098 L26.1333333,1.02439024 L30.4,1.02439024 L30.4,19.9756098 L26.1333333,19.9756098 Z" id="Shape"></path>
                </g>
            </g>
        </g>
    </g>
</svg>