<?xml version="1.0" encoding="UTF-8"?>
<svg width="16px" height="15px" viewBox="0 0 16 15" version="1.1" xmlns="http://www.w3.org/2000/svg" xmlns:xlink="http://www.w3.org/1999/xlink">
    <!-- Generator: Sketch 64 (93537) - https://sketch.com -->
    <title>calendar-line</title>
    <desc>Created with Sketch.</desc>
    <g id="APPLN-INIT" stroke="none" stroke-width="1" fill="none" fill-rule="evenodd">
        <g id="UPDATED-----Application-Initiation-2---BAI---Product-Category-Selected" transform="translate(-634.000000, -447.000000)" fill="#4F4E4E" fill-rule="nonzero">
            <g id="Group-8" transform="translate(20.000000, 406.000000)">
                <g id="calendar-line" transform="translate(614.000000, 41.000000)">
                    <path d="M14.3333333,2.66666667 L12.8888889,2.66666667 L12.8888889,3.55555556 L14.2222222,3.55555556 L14.2222222,13.3333333 L1.77777778,13.3333333 L1.77777778,3.55555556 L3.11111111,3.55555556 L3.11111111,2.66666667 L1.66666667,2.66666667 C1.45684132,2.67017324 1.25700639,2.75690431 1.11113841,2.90777348 C0.965270434,3.05864265 0.885322714,3.26128677 0.888774506,3.47111111 L0.888774506,13.4177778 C0.885322714,13.6276021 0.965270434,13.8302462 1.11113841,13.9811154 C1.25700639,14.1319846 1.45684132,14.2187156 1.66666667,14.2222222 L14.3333333,14.2222222 C14.5431587,14.2187156 14.7429936,14.1319846 14.8888616,13.9811154 C15.0347296,13.8302462 15.1146773,13.6276021 15.1112255,13.4177778 L15.1112255,3.47111111 C15.1146773,3.26128677 15.0347296,3.05864265 14.8888616,2.90777348 C14.7429936,2.75690431 14.5431587,2.67017324 14.3333333,2.66666667 Z" id="Path"></path>
                    <rect id="Rectangle" x="3.55555556" y="6.22222222" width="1" height="1"></rect>
                    <rect id="Rectangle" x="6.22222222" y="6.22222222" width="1" height="1"></rect>
                    <rect id="Rectangle" x="8.88888889" y="6.22222222" width="1" height="1"></rect>
                    <rect id="Rectangle" x="11.5555556" y="6.22222222" width="1" height="1"></rect>
                    <rect id="Rectangle" x="3.55555556" y="8.44444444" width="1" height="1"></rect>
                    <rect id="Rectangle" x="6.22222222" y="8.44444444" width="1" height="1"></rect>
                    <rect id="Rectangle" x="8.88888889" y="8.44444444" width="1" height="1"></rect>
                    <rect id="Rectangle" x="11.5555556" y="8.44444444" width="1" height="1"></rect>
                    <rect id="Rectangle" x="3.55555556" y="10.6666667" width="1" height="1"></rect>
                    <rect id="Rectangle" x="6.22222222" y="10.6666667" width="1" height="1"></rect>
                    <rect id="Rectangle" x="8.88888889" y="10.6666667" width="1" height="1"></rect>
                    <rect id="Rectangle" x="11.5555556" y="10.6666667" width="1" height="1"></rect>
                    <path d="M4.44444444,4.44444444 C4.68990433,4.44444444 4.88888889,4.24545989 4.88888889,4 L4.88888889,1.33333333 C4.88888889,1.08787344 4.68990433,0.888888889 4.44444444,0.888888889 C4.19898456,0.888888889 4,1.08787344 4,1.33333333 L4,4 C4,4.24545989 4.19898456,4.44444444 4.44444444,4.44444444 Z" id="Path"></path>
                    <path d="M11.5555556,4.44444444 C11.8010154,4.44444444 12,4.24545989 12,4 L12,1.33333333 C12,1.08787344 11.8010154,0.888888889 11.5555556,0.888888889 C11.3100957,0.888888889 11.1111111,1.08787344 11.1111111,1.33333333 L11.1111111,4 C11.1111111,4.24545989 11.3100957,4.44444444 11.5555556,4.44444444 Z" id="Path"></path>
                    <rect id="Rectangle" x="5.77777778" y="2.66666667" width="4.44444444" height="1"></rect>
                </g>
            </g>
        </g>
    </g>
</svg>