<svg xmlns="http://www.w3.org/2000/svg" width="19" height="19" viewBox="0 0 19 19">
  <g fill="#FFF">
    <path d="M17.6644092,6.15237287 C16.7264008,3.96429731 15.1324318,2.37297228 12.9273009,1.43197616 C11.825157,0.961667175 10.6704815,0.721436985 9.46417582,0.721436985 C8.2580736,0.721436985 7.11191601,0.959398383 6.01099307,1.43197616 C3.8241188,2.37047079 2.22308555,3.96077777 1.28342006,6.15237287 C0.812555284,7.25035195 0.583038869,8.40065869 0.583038869,9.60742344 C0.583038869,10.8144209 0.812555284,11.9742682 1.28342006,13.07248 C2.22308555,15.2640751 3.8243223,16.8639226 6.01099307,17.8026499 C7.11211951,18.2752277 8.25804453,18.5129564 9.46417582,18.5129564 C10.6703071,18.5129564 11.825157,18.2727262 12.9271265,17.8026499 C15.1322574,16.8616247 16.7262264,15.2603519 17.6644383,13.07248 C18.1367276,11.9707487 18.3745583,10.8144209 18.3745583,9.60742344 C18.3745583,8.40065869 18.136931,7.2540751 17.6644092,6.15237287 Z M16.2443436,13.5396766 C15.5460265,14.7379189 14.5893544,15.6885137 13.3844732,16.3913448 C12.1868888,17.0900456 10.8747061,17.4424065 9.46437932,17.4424065 C8.40415593,17.4424065 7.39248129,17.2380988 6.42935541,16.8195066 C5.4662586,16.4011181 4.63470857,15.8510814 3.93909504,15.1552894 C3.24348152,14.4592937 2.68982222,13.6191716 2.27582054,12.6538878 C1.86303985,11.6921235 1.66300154,10.6684619 1.66300154,9.60745253 C1.66300154,8.19614743 2.00955825,6.88990486 2.70395078,5.69497855 C3.40081437,4.49568917 4.35768996,3.54407627 5.55405336,2.84328126 C6.75021326,2.14251534 8.05387812,1.79201604 9.46417582,1.79201604 C10.8747061,1.79201604 12.1866562,2.14458053 13.3842697,2.84328126 C14.5891509,3.54614146 15.5437589,4.49772526 16.2441401,5.69494946 C16.9445213,6.89197004 17.2946247,8.19614743 17.2946247,9.60742344 C17.2946247,11.0187576 16.9468179,12.3339008 16.2443436,13.5396766 Z"/>
    <path d="M10.0437426,10.1307134 L10.0437426,5.01956828 C10.0437426,4.71371758 9.79683008,4.46702002 9.51341483,4.46702002 C9.24836023,4.46702002 9.01060071,4.71371758 9.01060071,5.01956828 L9.01060071,10.2096236 C9.01060071,10.2195316 9.02893404,10.2591046 9.02893404,10.2885927 C9.01060071,10.4662291 9.05644769,10.61423 9.16606516,10.7327427 L11.8997532,13.6829104 C12.0826767,13.8803333 12.4208734,13.8803333 12.6036602,13.6829104 C12.8138788,13.4559994 12.8000536,13.1267646 12.6036602,12.9133002 L10.0437426,10.1307134 Z"/>
  </g>
</svg>
