<?xml version="1.0" encoding="UTF-8"?>
<svg width="25px" height="30px" viewBox="0 0 25 30" version="1.1" xmlns="http://www.w3.org/2000/svg" xmlns:xlink="http://www.w3.org/1999/xlink">
    <!-- Generator: Sketch 52.2 (67145) - http://www.bohemiancoding.com/sketch -->
    <title>Change_password</title>
    <desc>Created with Sketch.</desc>
    <g id="Page-1" stroke="none" stroke-width="1" fill="none" fill-rule="evenodd">
        <g id="13_Profile_dropdown" transform="translate(-1238.000000, -161.000000)" fill="#000000" fill-rule="nonzero">
            <g id="Change_password" transform="translate(1238.000000, 161.000000)">
                <path d="M21.1111111,11.1738889 L21.1111111,8.05555556 C21.1111111,3.61388889 17.1233333,0 12.2222222,0 C7.32111111,0 3.33333333,3.61388889 3.33333333,8.05555556 L3.33333333,11.1738889 C1.44388889,11.4994444 0,13.1461111 0,15.1277778 L0,25.9844444 C0,28.1983333 1.80166667,30 4.01611111,30 L20.4283333,30 C22.6427778,30 24.4444444,28.1983333 24.4444444,25.9838889 L24.4444444,15.1272222 C24.4444444,13.1461111 23.0005556,11.4994444 21.1111111,11.1738889 Z M4.44444444,8.05555556 C4.44444444,4.22611111 7.93333333,1.11111111 12.2222222,1.11111111 C16.5111111,1.11111111 20,4.22611111 20,8.05555556 L20,11.1111111 L4.44444444,11.1111111 L4.44444444,8.05555556 Z M23.3333333,25.9838889 C23.3333333,27.5855556 22.03,28.8888889 20.4283333,28.8888889 L4.01611111,28.8888889 C2.41444444,28.8888889 1.11111111,27.5855556 1.11111111,25.9838889 L1.11111111,15.1272222 C1.11111111,13.5255556 2.41444444,12.2222222 4.01611111,12.2222222 L20.4283333,12.2222222 C22.03,12.2222222 23.3333333,13.5255556 23.3333333,15.1272222 L23.3333333,25.9838889 Z" id="Shape"></path>
                <path d="M12.2222222,15.5555556 C10.9966667,15.5555556 10,16.5522222 10,17.7777778 L10,21.1111111 C10,22.3366667 10.9966667,23.3333333 12.2222222,23.3333333 C13.4477778,23.3333333 14.4444444,22.3366667 14.4444444,21.1111111 L14.4444444,17.7777778 C14.4444444,16.5522222 13.4477778,15.5555556 12.2222222,15.5555556 Z M13.3333333,21.1111111 C13.3333333,21.7238889 12.835,22.2222222 12.2222222,22.2222222 C11.6094444,22.2222222 11.1111111,21.7238889 11.1111111,21.1111111 L11.1111111,17.7777778 C11.1111111,17.165 11.6094444,16.6666667 12.2222222,16.6666667 C12.835,16.6666667 13.3333333,17.165 13.3333333,17.7777778 L13.3333333,21.1111111 Z" id="Shape"></path>
            </g>
        </g>
    </g>
</svg>