<?xml version="1.0" encoding="UTF-8"?>
<svg width="16px" height="19px" viewBox="0 0 16 19" version="1.1" xmlns="http://www.w3.org/2000/svg" xmlns:xlink="http://www.w3.org/1999/xlink">
    <!-- Generator: Sketch 52.2 (67145) - http://www.bohemiancoding.com/sketch -->
    <title>Delete</title>
    <desc>Created with Sketch.</desc>
    <g id="Page-1" stroke="none" stroke-width="1" fill="none" fill-rule="evenodd">
        <g id="08_Account-Opening-Form_upload" transform="translate(-1105.000000, -523.000000)" fill="#757575" stroke="#757575" stroke-width="0.5">
            <g id="Delete" transform="translate(1106.000000, 524.000000)">
                <path d="M12.8178112,3.70216283 L12.3229826,15.3924881 C12.3072752,15.7635762 11.9815541,16.0703125 11.6031677,16.0703125 L2.96826085,16.0703125 C2.58983537,16.0703125 2.26412465,15.7628976 2.24844593,15.3924881 L1.75361735,3.70216283 C1.74431109,3.48230263 1.55570592,3.31149707 1.3323559,3.32065792 C1.10900585,3.32981877 0.935489087,3.51547699 0.944795346,3.73533717 L1.43962393,15.4256624 C1.47337246,16.2229713 2.15592937,16.8671875 2.96826085,16.8671875 L11.6031677,16.8671875 C12.4150611,16.8671875 13.0980107,16.2240437 13.1318046,15.4256624 L13.6266332,3.73533717 C13.6359395,3.51547699 13.4624227,3.32981877 13.2390727,3.32065792 C13.0157227,3.31149707 12.8271175,3.48230263 12.8178112,3.70216283 Z" id="Path"></path>
                <path d="M7.01587302,5.3125 L7.01587302,14.34375 C7.01587302,14.5638009 7.1970911,14.7421875 7.42063492,14.7421875 C7.64417874,14.7421875 7.82539683,14.5638009 7.82539683,14.34375 L7.82539683,5.3125 C7.82539683,5.09244905 7.64417874,4.9140625 7.42063492,4.9140625 C7.1970911,4.9140625 7.01587302,5.09244905 7.01587302,5.3125 Z" id="Path"></path>
                <path d="M3.91287338,5.32421369 L4.18271465,14.3554637 C4.1892866,14.5754195 4.37575399,14.7484846 4.59920121,14.7420153 C4.8226484,14.735546 4.99846051,14.5519922 4.99188853,14.3320363 L4.72204726,5.30078631 C4.7154753,5.08083048 4.52900791,4.90776543 4.3055607,4.91423473 C4.0821135,4.920704 3.90630139,5.10425784 3.91287338,5.32421369 Z" id="Path"></path>
                <path d="M9.84938131,5.30078631 L9.57954004,14.3320363 C9.57296806,14.5519922 9.74878017,14.735546 9.97222736,14.7420153 C10.1956746,14.7484846 10.382142,14.5754195 10.3887139,14.3554637 L10.6585552,5.32421369 C10.6651272,5.10425784 10.4893151,4.920704 10.2658679,4.91423473 C10.0424207,4.90776543 9.85595327,5.08083048 9.84938131,5.30078631 Z" id="Path"></path>
                <path d="M0.53968254,2.390625 L14.031746,2.390625 C14.2552899,2.390625 14.4365079,2.21223845 14.4365079,1.9921875 C14.4365079,1.77213655 14.2552899,1.59375 14.031746,1.59375 L0.53968254,1.59375 C0.316138719,1.59375 0.134920635,1.77213655 0.134920635,1.9921875 C0.134920635,2.21223845 0.316138719,2.390625 0.53968254,2.390625 Z" id="Path"></path>
                <path d="M4.96311357,2.00735097 L5.25191416,1.29663077 C5.32879833,1.10742367 5.59553478,0.9296875 5.8015873,0.9296875 L8.76984127,0.9296875 C8.97737252,0.9296875 9.24209703,1.10611145 9.31951441,1.29663077 L9.608315,2.00735097 L10.359939,1.71139903 L10.0711384,1.00067884 C9.87078313,0.507617078 9.30838813,0.1328125 8.76984127,0.1328125 L5.8015873,0.1328125 C5.26454311,0.1328125 4.70012112,0.508907378 4.50029019,1.00067884 L4.2114896,1.71139903 L4.96311357,2.00735097 Z" id="Path"></path>
            </g>
        </g>
    </g>
</svg>