<svg xmlns="http://www.w3.org/2000/svg" width="23" height="17" viewBox="0 0 23 17">
  <g fill="#A1A1A1">
    <path d="M2.11382423,5.26374362 C2.39241891,5.44522145 3.23220625,5.98421102 4.63322928,6.88043417 C6.03429536,7.77665731 7.10760806,8.46672608 7.85321042,8.95068022 C7.93512724,9.00372881 8.10916283,9.11904492 8.37540326,9.2967875 C8.64168675,9.47464929 8.86294396,9.61837719 9.03900271,9.72801095 C9.2151906,9.83760496 9.42818295,9.96055053 9.67819499,10.096649 C9.92812093,10.2326282 10.1637125,10.3349107 10.3849267,10.4026221 C10.6061839,10.4708899 10.8109975,10.5047059 10.9994105,10.5047059 L11.0117647,10.5047059 L11.024162,10.5047059 C11.212575,10.5047059 11.4174747,10.4708502 11.6387319,10.4026221 C11.8598599,10.3349107 12.0956668,10.232509 12.3453775,10.096649 C12.5952173,9.96039159 12.8082097,9.83756523 12.9843976,9.72801095 C13.1605855,9.61837719 13.3816705,9.47464929 13.6480401,9.2967875 C13.9142374,9.11888598 14.0884883,9.00372881 14.1704051,8.95068022 C14.9240571,8.46672608 16.8414617,7.237628 19.9220164,5.2635052 C20.5200996,4.8779393 21.0197793,4.41270118 21.4211846,3.86810873 C21.8228913,3.3237547 22.0235294,2.75269755 22.0235294,2.15525519 C22.0235294,1.6560024 21.8288317,1.22863342 21.4396084,0.873188 C21.0504282,0.517663105 20.58949,0.34 20.0570952,0.34 L1.96630507,0.34 C1.33546375,0.34 0.849989273,0.536617545 0.509967736,0.929852636 C0.169989245,1.3231672 -1.24344979e-14,1.81479054 -1.24344979e-14,2.40468291 C-1.24344979e-14,2.88116654 0.22538964,3.39750615 0.67595369,3.95338384 C1.12647469,4.50930127 1.60592271,4.9461276 2.11382423,5.26374362 Z"/>
    <path d="M20.794349,5.42142342 C18.1072414,7.26099266 16.0668579,8.69064155 14.6741885,9.71006533 C14.2071818,10.057986 13.8283333,10.3295828 13.537385,10.5242024 C13.2464366,10.7189527 12.8594955,10.9178391 12.3760021,11.1207747 C11.8926809,11.3240151 11.4422469,11.4253305 11.0243126,11.4253305 L11.0117862,11.4253305 L10.999432,11.4253305 C10.5815838,11.4253305 10.1308915,11.3240151 9.64757032,11.1207747 C9.16424909,10.9178391 8.77704973,10.7189527 8.48618747,10.5242024 C8.19541129,10.3295828 7.81643373,10.057986 7.34947001,9.71006533 C6.24331526,8.88970218 4.20732245,7.45996621 1.24140549,5.42142342 C0.774269582,5.10672302 0.3605108,4.74600183 -1.24344979e-14,4.34 L-1.24344979e-14,14.209654 C-1.24344979e-14,14.7569402 0.192458959,15.2249416 0.577592108,15.6144421 C0.962639165,16.0040733 1.42564265,16.1988235 1.96643037,16.1988235 L20.0572282,16.1988235 C20.5978868,16.1988235 21.0608472,16.0040733 21.4459373,15.6144421 C21.8311565,15.224811 22.0235294,14.7569837 22.0235294,14.209654 L22.0235294,4.34 C21.6711543,4.73759879 21.2616141,5.09831998 20.794349,5.42142342 Z"/>
  </g>
</svg>
