<svg xmlns="http://www.w3.org/2000/svg" width="26" height="30" viewBox="0 0 26 30">
  <g fill="#A1A1A1">
    <path d="M25.5876768,13.1313333 L23.3343434,11.4403333 L23.3113636,11.4403333 L23.3113636,7.217 L23.3100505,7.217 L16.0888131,0.042 L16.0855303,0.0456666667 L2.28878788,0.0456666667 L2.28878788,11.451 L0.0183838384,13.193 L0.0183838384,22.2223333 L0.0183838384,22.7363333 L0.52459596,22.7363333 L2.28878788,22.7363333 L2.28878788,29.9583333 L23.3113636,29.9583333 L23.3113636,22.736 L25.0755556,22.736 L25.5817677,22.736 L25.5817677,22.222 L25.5817677,19.7566667 L25.5876768,13.1313333 Z M7.44315657,20.3156667 L7.44315657,16.106 L8.84328283,16.106 C9.12691919,16.106 9.37214646,16.1403333 9.57896465,16.2076667 C9.78578283,16.2756667 9.95550505,16.3696667 10.0891162,16.4906667 C10.222399,16.6116667 10.3208838,16.7553333 10.3845707,16.9216667 C10.4485859,17.088 10.4804293,17.269 10.4804293,17.4643333 C10.4804293,17.671 10.4472727,17.8606667 10.380303,18.033 C10.3136616,18.205 10.2125505,18.353 10.077298,18.4766667 C9.94204545,18.6003333 9.77166667,18.6966667 9.56583333,18.765 C9.36032828,18.834 9.11936869,18.8683333 8.84295455,18.8683333 L8.29997475,18.8683333 L8.29997475,20.316 L7.44315657,20.316 L7.44315657,20.3156667 Z M11.2161111,20.3156667 L11.2161111,16.106 L12.8102525,16.106 C13.1283586,16.106 13.417904,16.1583333 13.6788889,16.263 C13.9398737,16.3673333 14.1634343,16.513 14.3489141,16.7 C14.5343939,16.8866667 14.6785101,17.1083333 14.7802778,17.3656667 C14.8823737,17.6226667 14.9332576,17.904 14.9332576,18.21 C14.9332576,18.5173333 14.8823737,18.8003333 14.7802778,19.0583333 C14.6781818,19.3166667 14.5343939,19.5386667 14.3489141,19.7243333 C14.1634343,19.91 13.9398737,20.0546667 13.6788889,20.1593333 C13.417904,20.264 13.1283586,20.316 12.8102525,20.316 L11.2161111,20.316 L11.2161111,20.3156667 Z M18.3946717,16.788 L16.6173485,16.788 L16.6173485,17.9513333 L18.1090657,17.9513333 L18.1090657,18.636 L16.6173485,18.636 L16.6173485,20.3156667 L15.7546212,20.3156667 L15.7546212,16.106 L18.3946717,16.106 L18.3946717,16.788 Z M15.0731061,1.07366667 L15.0662121,8.23566667 L22.2989394,8.244 L22.2989394,13.1366667 L3.30088384,13.1366667 L3.30088384,1.07366667 L15.0731061,1.07366667 Z M22.2989394,28.93 L3.30088384,28.93 L3.30088384,22.736 L22.2989394,22.736 L22.2989394,28.93 Z"/>
    <path d="M13.9674495 18.8073333C14.024899 18.6316667 14.0534596 18.4323333 14.0534596 18.21 14.0534596 17.9893333 14.024899 17.791 13.9674495 17.615 13.9103283 17.4393333 13.8285859 17.29 13.7218939 17.1683333 13.615202 17.0463333 13.4848737 16.9526667 13.3318939 16.8866667 13.1789141 16.8206667 13.0049242 16.788 12.8105808 16.788L12.0791667 16.788 12.0791667 19.634 12.8105808 19.634C13.0049242 19.634 13.1785859 19.6016667 13.3318939 19.5366667 13.485202 19.4723333 13.615202 19.3783333 13.7218939 19.2553333 13.8285859 19.1326667 13.9103283 18.9833333 13.9674495 18.8073333zM9.43320707 18.0036667C9.55795455 17.872 9.62032828 17.6923333 9.62032828 17.4643333 9.62032828 17.36 9.60489899 17.2646667 9.57338384 17.1786667 9.54186869 17.0923333 9.49426768 17.019 9.43025253 16.958 9.36656566 16.897 9.28613636 16.8503333 9.18896465 16.8173333 9.09179293 16.7843333 8.97656566 16.768 8.84328283 16.768L8.30030303 16.768 8.30030303 18.2013333 8.84328283 18.2013333C9.11181818 18.201 9.3084596 18.135 9.43320707 18.0036667z"/>
  </g>
</svg>
