<svg xmlns="http://www.w3.org/2000/svg" width="26" height="30" viewBox="0 0 26 30">
  <path fill="#A1A1A1" d="M830,15.1259838 L827.709845,13.4303098 L827.686445,13.4303098 L827.686445,9.19497628 L827.685108,9.19497628 L820.34598,2 L820.342637,2.00368406 L806.321244,2.00368406 L806.321244,13.4403572 L804,15.1259838 L804.013705,15.1876081 L804.013705,15.6467764 L804.013705,24.2420318 L804.013705,24.7574658 L804.528163,24.7574658 L806.321244,24.7574658 L806.321244,32 L827.686445,32 L827.686445,24.7571309 L829.479191,24.7571309 L829.993649,24.7571309 L829.993649,24.2416969 L829.993649,21.77036 L830,15.1259838 Z M809.69547,18.0628524 L810.566271,18.0628524 C810.624436,18.0628524 810.66689,18.0698856 810.694301,18.0856266 C810.721377,18.1013676 810.745445,18.1261513 810.766839,18.1616522 L811.670065,19.6543678 C811.679759,19.6309238 811.691125,19.6071449 811.703493,19.583031 C811.715862,19.5582473 811.730236,19.5341334 811.745613,19.508345 L812.558583,18.1757187 C812.581648,18.1372035 812.607388,18.1084008 812.635467,18.0899805 C812.663212,18.0715601 812.697978,18.0625174 812.738426,18.0625174 L813.572121,18.0625174 L812.233328,20.0753558 L813.606886,22.2837845 L812.735751,22.2837845 C812.677586,22.2837845 812.630787,22.2693832 812.595019,22.2399107 C812.559251,22.211108 812.530503,22.1769467 812.509443,22.1384315 L811.594518,20.5847614 C811.587164,20.605861 811.578138,20.6266257 811.568444,20.6470555 C811.558416,20.6674853 811.549056,20.6862406 811.539362,20.7039911 L810.673909,22.1384315 C810.648504,22.1749372 810.619422,22.2084287 810.585325,22.238571 C810.551563,22.2687134 810.508441,22.2837845 810.456293,22.2837845 L809.642988,22.2837845 L811.02223,20.1135361 L809.69547,18.0628524 Z M816.735417,21.5740999 L816.735417,22.2837845 L814.235333,22.2837845 L814.235333,18.0628524 L815.106134,18.0628524 L815.106134,21.5740999 L816.735417,21.5740999 Z M819.122848,20.8114987 C819.067692,20.7461903 818.995153,20.6905945 818.906569,20.6460508 C818.817316,20.6015071 818.716029,20.5629919 818.601705,20.5308401 C818.487381,20.4986883 818.370383,20.4635222 818.250376,20.425007 C818.130369,20.3864918 818.013371,20.3399386 817.898713,20.2856824 C817.784723,20.2314262 817.682768,20.1594195 817.593849,20.0703321 C817.504596,19.9805749 817.43306,19.870053 817.377904,19.7380966 C817.322414,19.606475 817.294668,19.4423667 817.294668,19.2467764 C817.294668,19.0897014 817.325756,18.9373151 817.387932,18.7896176 C817.450109,18.64259 817.540699,18.5116383 817.660705,18.3970974 C817.780712,18.2825565 817.928464,18.1904549 818.103293,18.1211275 C818.278456,18.0511303 818.479358,18.0159643 818.706,18.0159643 C818.959385,18.0159643 819.194384,18.0551493 819.409995,18.1338543 C819.62594,18.2128942 819.808457,18.3224114 819.957546,18.461736 L819.742604,18.8720067 C819.715193,18.9165504 819.687782,18.9490371 819.659702,18.9694669 C819.631623,18.9898967 819.595855,19.0002791 819.550727,19.0002791 C819.508273,19.0002791 819.462143,18.9852079 819.413004,18.9550656 C819.363864,18.9249232 819.306034,18.8921016 819.239846,18.8576054 C819.174662,18.8224393 819.09878,18.7902875 819.013538,18.7601451 C818.928297,18.7300028 818.828347,18.7149316 818.714023,18.7149316 C818.512786,18.7149316 818.362026,18.7601451 818.261407,18.8502372 C818.160789,18.9403293 818.110313,19.0582194 818.110313,19.2035724 C818.110313,19.2963438 818.138058,19.3737092 818.193214,19.4349986 C818.24837,19.4959531 818.321244,19.5488697 818.410831,19.5934133 C818.501086,19.637957 818.603042,19.6778119 818.717366,19.7123081 C818.83169,19.7474742 818.948354,19.7856545 819.068695,19.8275188 C819.189036,19.8693832 819.305699,19.9182808 819.420023,19.9745465 C819.534347,20.0308122 819.636303,20.1014792 819.726559,20.1865476 C819.816814,20.2722858 819.889019,20.3761094 819.944175,20.4993581 C819.999331,20.6229417 820.026742,20.7726486 820.026742,20.9494837 C820.026742,21.141055 819.993314,21.3209043 819.926458,21.4890315 C819.859936,21.656489 819.763329,21.8031817 819.637974,21.9281049 C819.511951,22.0530282 819.35651,22.1518281 819.171653,22.2238348 C818.986462,22.2951716 818.776868,22.3310075 818.542871,22.3310075 C818.409494,22.3310075 818.276116,22.317276 818.143741,22.2904828 C818.011031,22.2636896 817.88367,22.2258443 817.760655,22.1766118 C817.63764,22.128719 817.521979,22.0707787 817.413672,22.002456 C817.305031,21.9344683 817.21043,21.8584426 817.128865,21.7753838 L817.384255,21.3620988 C817.405649,21.3312866 817.433729,21.3051633 817.468828,21.2850684 C817.503928,21.2649735 817.540364,21.254926 817.579141,21.254926 C817.631289,21.254926 817.686445,21.2740162 817.74461,21.3132012 C817.802775,21.3517164 817.869296,21.3942506 817.945178,21.4408038 C818.020391,21.487357 818.107973,21.530561 818.207588,21.5690762 C818.307538,21.6075914 818.426876,21.6273514 818.566605,21.6273514 C818.769514,21.6273514 818.92696,21.5807982 819.037941,21.487357 C819.149591,21.3945855 819.205081,21.2559308 819.205081,21.0713927 C819.205415,20.963885 819.178004,20.877477 819.122848,20.8114987 Z M823.492897,22.2837845 C823.434732,22.2837845 823.387932,22.2693832 823.35183,22.2399107 C823.316062,22.211108 823.287648,22.1769467 823.266254,22.1384315 L822.351329,20.5847614 C822.343975,20.605861 822.334949,20.6266257 822.325589,20.6470555 C822.315895,20.6674853 822.305867,20.6862406 822.296507,20.7039911 L821.431055,22.1384315 C821.405984,22.1749372 821.376567,22.2084287 821.342136,22.238571 C821.308374,22.2687134 821.265586,22.2837845 821.213104,22.2837845 L820.399799,22.2837845 L821.779375,20.1135361 L820.451947,18.0628524 L821.322748,18.0628524 C821.380913,18.0628524 821.4237,18.0698856 821.450777,18.0856266 C821.477854,18.1013676 821.501922,18.1261513 821.523316,18.1616522 L822.426542,19.6543678 C822.436236,19.6309238 822.447602,19.6071449 822.45997,19.583031 C822.472338,19.5582473 822.486712,19.5341334 822.502089,19.508345 L823.315394,18.1757187 C823.338459,18.1372035 823.364199,18.1084008 823.392278,18.0899805 C823.420023,18.0715601 823.454789,18.0625174 823.495237,18.0625174 L824.328932,18.0625174 L822.990139,20.0753558 L824.363363,22.2837845 L823.492897,22.2837845 Z M819.313722,3.03455205 L819.306368,10.2164666 L826.657195,10.2245046 L826.657195,15.1310075 L807.349825,15.1310075 L807.349825,3.03455205 L819.313722,3.03455205 Z M826.65753,30.9687971 L807.349825,30.9687971 L807.349825,24.7571309 L826.657195,24.7571309 L826.657195,30.9687971 L826.65753,30.9687971 Z" transform="translate(-804 -2)"/>
</svg>
