<?xml version="1.0" encoding="UTF-8"?>
<svg width="22px" height="14px" viewBox="0 0 22 14" version="1.1" xmlns="http://www.w3.org/2000/svg" xmlns:xlink="http://www.w3.org/1999/xlink">
    <!-- Generator: Sketch 52.2 (67145) - http://www.bohemiancoding.com/sketch -->
    <title>File_View 2</title>
    <desc>Created with Sketch.</desc>
    <g id="Page-1" stroke="none" stroke-width="1" fill="none" fill-rule="evenodd">
        <g id="08_Account-Opening-Form_upload" transform="translate(-1070.000000, -526.000000)" fill="#757575" fill-rule="nonzero" stroke="#757575" stroke-width="0.5">
            <g id="File_View-2" transform="translate(1071.000000, 527.000000)">
                <path d="M20.1155038,5.7404659 C18.305585,2.25324065 14.3840472,0 10.125,0 C5.86595283,0 1.94441505,2.25324065 0.134496227,5.7404659 L0,6 L0.134778189,6.2595341 C1.94441505,9.74675935 5.86595283,12 10.125,12 C14.3840472,12 18.305585,9.74675935 20.1155038,6.2595341 L20.25,6 L20.1155038,5.7404659 Z M10.125,10.8728161 C6.39012156,10.8728161 2.95186792,8.96956603 1.27616336,6 C2.95186792,3.03043397 6.39012156,1.12718392 10.125,1.12718392 C13.8598784,1.12718392 17.2981321,3.03043397 18.9738366,6 C17.2981321,8.96956603 13.8598784,10.8728161 10.125,10.8728161 Z M10.125,2.92447868 C8.42814824,2.92447868 7.04765866,4.30415179 7.04765866,6 C7.04765866,7.69584821 8.42814824,9.07552132 10.125,9.07552132 C11.8218518,9.07552132 13.2023413,7.69584821 13.2023413,6 C13.2023413,4.30415179 11.8218518,2.92447868 10.125,2.92447868 Z M10.125,7.9483374 C9.04987608,7.9483374 8.17550962,7.07420627 8.17550962,6 C8.17550962,4.92579373 9.05015804,4.0516626 10.125,4.0516626 C11.199842,4.0516626 12.0744904,4.92579373 12.0744904,6 C12.0744904,7.07420627 11.2001239,7.9483374 10.125,7.9483374 Z" id="File_View"></path>
            </g>
        </g>
    </g>
</svg>