<?xml version="1.0" encoding="UTF-8"?>
<svg width="21px" height="18px" viewBox="0 0 21 18" version="1.1" xmlns="http://www.w3.org/2000/svg" xmlns:xlink="http://www.w3.org/1999/xlink">
    <!-- Generator: Sketch 52.2 (67145) - http://www.bohemiancoding.com/sketch -->
    <title>Foler_browse</title>
    <desc>Created with Sketch.</desc>
    <g id="Page-1" stroke="none" stroke-width="1" fill="none" fill-rule="evenodd">
        <g id="08_Account-Opening-Form_upload" transform="translate(-999.000000, -523.000000)" fill="#757575" fill-rule="nonzero" stroke="#757575" stroke-width="0.5">
            <path d="M1018.3968,529.28 L1017.28,529.28 L1017.28,527.27424 C1017.28,526.792 1016.88768,526.4 1016.40576,526.4 L1008.4848,526.4 L1006.8848,524.16 L1000.87424,524.16 C1000.39232,524.16 1000,524.55232 1000,525.03424 L1000,539.01408 L1000.00192,539.01408 C1000.00032,539.19424 1000.05632,539.37056 1000.16896,539.51808 C1000.32576,539.72288 1000.5632,539.84 1000.8208,539.84 L1015.14368,539.84 C1015.5136,539.84 1015.83936,539.59072 1015.92768,539.25984 L1019.2,530.28768 L1019.2,530.23104 C1019.2,529.68 1018.86208,529.28 1018.3968,529.28 Z M1000.64,525.03424 C1000.64,524.90496 1000.74528,524.8 1000.87424,524.8 L1006.5552,524.8 L1008.1552,527.04 L1016.40544,527.04 C1016.53472,527.04 1016.63968,527.14496 1016.63968,527.27424 L1016.63968,529.28 L1004.07392,529.28 C1004.02784,529.28 1003.98208,529.28384 1003.9376,529.29152 C1003.62624,529.34368 1003.36736,529.57088 1003.29024,529.85984 L1000.64,537.08768 L1000.64,525.03424 Z M1015.31808,539.06656 C1015.29696,539.14496 1015.22496,539.2 1015.14368,539.2 L1000.8208,539.2 C1000.74304,539.2 1000.6976,539.15552 1000.67744,539.12896 C1000.65728,539.10272 1000.62624,539.04704 1000.63808,538.9984 L1003.8992,530.05344 C1003.92032,529.97504 1003.99232,529.92 1004.0736,529.92 L1017.28,529.92 L1018.3968,529.92 C1018.5184,529.92 1018.54944,530.09472 1018.55744,530.18208 L1015.31808,539.06656 Z" id="Foler_browse"></path>
        </g>
    </g>
</svg>