<?xml version="1.0" encoding="utf-8"?>
<!-- Generator: Adobe Illustrator 16.0.0, SVG Export Plug-In . SVG Version: 6.00 Build 0)  -->
<!DOCTYPE svg PUBLIC "-//W3C//DTD SVG 1.1//EN" "http://www.w3.org/Graphics/SVG/1.1/DTD/svg11.dtd">
<svg version="1.1" id="Layer_1" xmlns="http://www.w3.org/2000/svg" xmlns:xlink="http://www.w3.org/1999/xlink" x="0px" y="0px"
	 width="33.473px" height="22.001px" viewBox="0 0 33.473 22.001" enable-background="new 0 0 33.473 22.001" xml:space="preserve">
<title>Fonts_Resize</title>
<desc>Created with Sketch.</desc>
<g id="New-Option">
	<g id="_x30_1_x5F_DGFT---Login" transform="translate(-988.000000, -30.000000)">
		<g id="Group-3" transform="translate(134.000000, 24.000000)">
			<g id="Fonts_Resize" transform="translate(854.587912, 6.000000)">
				<path id="Shape" fill="#FFFFFF" d="M31.828,20.695c-0.389-0.08-0.729-0.204-1.021-0.367c-0.391-0.225-0.689-0.461-0.901-0.71
					c-0.211-0.252-0.382-0.529-0.521-0.837c-0.82-1.88-1.813-4.246-2.979-7.106C25.24,8.815,23.625,4.926,21.567,0h-3.153
					c-1.481,3.474-2.835,6.647-4.057,9.528c-1.225,2.879-2.446,5.756-3.665,8.625c-0.2,0.489-0.449,0.915-0.749,1.271
					c-0.3,0.359-0.665,0.66-1.095,0.904c-0.253,0.155-0.596,0.274-1.033,0.359c-0.436,0.087-0.827,0.143-1.174,0.162v1.194h9.175
					V20.85c-1.188-0.102-2.038-0.268-2.545-0.498c-0.512-0.23-0.766-0.509-0.766-0.835c0-0.101,0.019-0.281,0.057-0.537
					c0.035-0.254,0.153-0.667,0.354-1.239c0.158-0.44,0.345-0.939,0.56-1.504c0.167-0.43,0.316-0.807,0.46-1.153h7.987l1.773,4.188
					c0.071,0.172,0.118,0.312,0.133,0.412c0.015,0.104,0.024,0.194,0.024,0.274c0,0.237-0.383,0.433-1.15,0.591
					c-0.767,0.158-1.188,0.259-1.756,0.299v1.196h11.938V20.85C32.568,20.83,32.216,20.778,31.828,20.695z M20.939,12.763h-6.044
					l3.001-7.385L20.939,12.763z"/>
				<path id="Shape_1_" fill="#FFFFFF" d="M17.653,21.081c-0.283-0.06-0.532-0.146-0.747-0.264c-0.284-0.16-0.501-0.33-0.656-0.507
					c-0.152-0.18-0.278-0.378-0.377-0.597c-0.597-1.342-1.322-3.032-2.173-5.078c-0.849-2.041-2.024-4.82-3.526-8.338H7.878
					c-1.08,2.481-2.067,4.75-2.959,6.808c-0.893,2.056-1.783,4.11-2.671,6.16c-0.146,0.349-0.327,0.652-0.546,0.909
					c-0.218,0.257-0.484,0.47-0.798,0.644c-0.184,0.11-0.435,0.196-0.753,0.259c-0.318,0.062-0.604,0.1-0.856,0.115v0.852H5.98
					v-0.853C5.116,21.118,4.496,21,4.125,20.835c-0.369-0.163-0.557-0.362-0.557-0.598c0-0.071,0.013-0.198,0.041-0.381
					c0.025-0.184,0.111-0.478,0.257-0.886c0.115-0.314,0.25-0.672,0.409-1.074c0.04-0.104,0.279-0.683,0.608-1.477h5.289
					l1.552,3.645c0.052,0.121,0.085,0.222,0.097,0.294c0.011,0.073,0.018,0.14,0.018,0.198c0,0.166-0.28,0.307-0.839,0.423
					c-0.561,0.111-1.046,0.184-1.459,0.213v0.852h8.647v-0.853C18.188,21.191,17.937,21.14,17.653,21.081z M5.352,15.295
					c0.938-2.258,2.146-5.155,2.146-5.155l2.196,5.155H5.352z"/>
			</g>
		</g>
	</g>
</g>
</svg>
