<?xml version="1.0" encoding="UTF-8"?>
<svg width="13px" height="13px" viewBox="0 0 13 13" version="1.1" xmlns="http://www.w3.org/2000/svg" xmlns:xlink="http://www.w3.org/1999/xlink">
    <!-- Generator: Sketch 52.2 (67145) - http://www.bohemiancoding.com/sketch -->
    <title>Forward_tabs</title>
    <desc>Created with Sketch.</desc>
    <g id="Page-1" stroke="none" stroke-width="1" fill="none" fill-rule="evenodd">
        <g id="02_Dashboard#0" transform="translate(-1126.000000, -149.000000)" fill="#999999">
            <g id="Group-49" transform="translate(1117.000000, 132.000000)">
                <g id="Forward_tabs" transform="translate(15.500000, 23.500000) rotate(-90.000000) translate(-15.500000, -23.500000) translate(9.000000, 17.000000)">
                    <path d="M9.87989143,8.72339052 L4.27464221,3.12032176 C4.19464004,3.04021956 4.10237846,3 3.99811023,3 C3.89396839,3 3.80183319,3.04021956 3.72166251,3.12032176 L3.12019283,3.72150939 C3.04002215,3.8016537 3,3.89371648 3,3.99807676 C3,4.10243704 3.04002215,4.19449982 3.12019283,4.27464413 L7.847314,9.00008423 L3.12023496,13.7256507 C3.04006428,13.805795 3.00004213,13.8980262 3.00004213,14.0020917 C3.00004213,14.1064099 3.04006428,14.1986411 3.12023496,14.2787854 L3.72170464,14.8798046 C3.80183319,14.9600331 3.89396839,15 3.99815236,15 C4.10254697,15 4.19468217,14.9599489 4.27464221,14.8798046 L9.87989143,9.27669371 C9.96001998,9.19659152 10,9.10431816 10,9.00012634 C10,8.89593453 9.96001998,8.80370329 9.87989143,8.72339052 Z" id="Path" transform="translate(6.500000, 9.000000) rotate(-270.000000) translate(-6.500000, -9.000000) "></path>
                    <path d="M10,4.00012634 C10,3.89593453 9.9601052,3.80366117 9.87964155,3.72339052 L4.27490642,-1.87967824 C4.19477979,-1.95978044 4.10252043,-2 3.99829684,-2 C3.89407325,-2 3.80177176,-1.95978044 3.72164514,-1.87967824 L3.12031632,-1.27844849 C3.04002118,-1.19830418 3,-1.1062414 3,-1.00188112 C3,-0.897520847 3.04002118,-0.805458068 3.12031632,-0.725313755 L7.84719731,4.00012634 L3.12031632,8.72565067 C3.04002118,8.80579499 3,8.89802622 3,9.0020917 C3,9.10640986 3.04002118,9.1986411 3.12031632,9.27878541 L3.72160301,9.87980459 C3.80177176,9.96003313 3.89403113,10 3.99825472,10 C4.1024783,10 4.19473767,9.9599489 4.27490642,9.87980459 L9.87964155,4.27669371 C9.9601052,4.19659152 10,4.10431816 10,4.00012634 Z" id="Path" transform="translate(6.500000, 4.000000) rotate(-270.000000) translate(-6.500000, -4.000000) "></path>
                </g>
            </g>
        </g>
    </g>
</svg>