<?xml version="1.0" encoding="utf-8"?>
<!-- Generator: Adobe Illustrator 16.0.0, SVG Export Plug-In . SVG Version: 6.00 Build 0)  -->
<!DOCTYPE svg PUBLIC "-//W3C//DTD SVG 1.1//EN" "http://www.w3.org/Graphics/SVG/1.1/DTD/svg11.dtd">
<svg version="1.1" id="Layer_1" xmlns="http://www.w3.org/2000/svg" xmlns:xlink="http://www.w3.org/1999/xlink" x="0px" y="0px"
	 width="23.863px" height="21.976px" viewBox="0 0 23.863 21.976" enable-background="new 0 0 23.863 21.976" xml:space="preserve">
<title>DGFT_Regional_Offices</title>
<desc>Created with Sketch.</desc>
<g id="New-Option">
	<g id="_x30_1_x5F_DGFT---Login" transform="translate(-1229.000000, -30.000000)">
		<g id="Group-3" transform="translate(134.000000, 24.000000)">
			<path id="DGFT_Regional_Offices-" fill="#FFFFFF" d="M1106.684,26.611c-0.121-0.269-0.237-0.532-0.358-0.805
				c-0.053-0.164-0.209-0.267-0.375-0.246c-0.449,0-0.896,0-1.344,0c-0.082,0.012-0.162,0.035-0.238,0.069
				c0.021,0.084,0.052,0.166,0.088,0.245c0.252,0.431,0.508,0.857,0.768,1.282c0.059,0.097,0.194,0.18,0.194,0.27
				c0,0.088-0.138,0.163-0.208,0.244c-0.15,0.19-0.395,0.268-0.621,0.199c-0.605-0.179-1.205-0.386-1.795-0.618
				c-0.422-0.167-0.824-0.391-1.234-0.589c-0.055-0.024-0.107-0.055-0.156-0.091c-0.592-0.449-1.131-0.967-1.607-1.544
				c-0.371-0.491-0.713-0.981-1.086-1.473c-0.221-0.292-0.475-0.554-0.7-0.847c-0.546-0.688-0.949-1.483-1.187-2.338
				c-0.146-0.465-0.226-0.947-0.238-1.434c0-0.301-0.068-0.6-0.092-0.901c-0.02-0.245-0.018-0.49-0.021-0.736
				c0-0.177,0.145-0.23,0.256-0.245c0.104,0.015,0.193,0.083,0.238,0.182c0.012,0.148,0.006,0.299-0.018,0.446
				c0,0.063,0,0.16,0.029,0.184c0.06,0.038,0.133,0.046,0.199,0.022c0.451-0.203,0.9-0.42,1.348-0.633
				c0.057-0.022,0.103-0.068,0.125-0.126c0.023-0.059,0.023-0.123,0-0.18c-0.04-0.187-0.068-0.376-0.084-0.566
				c-0.043-0.425-0.083-0.85-0.119-1.273c0-0.089,0-0.18,0-0.268c0-0.173-0.135-0.246-0.272-0.167
				c-0.214,0.137-0.418,0.292-0.627,0.441c-0.024,0.023-0.052,0.043-0.081,0.059c-0.334,0.111-0.562,0.433-0.563,0.796
				c-0.017,0.132,0,0.304-0.209,0.27c-0.084-0.008-0.16-0.055-0.207-0.127c-0.048-0.072-0.061-0.162-0.037-0.246
				c0.052-0.275,0.08-0.558,0.125-0.835c0.084-0.49,0.164-0.996,0.26-1.492c0.047-0.264,0.115-0.522,0.201-0.775
				c0.11-0.315,0.242-0.623,0.395-0.92c0.208-0.4,0.436-0.79,0.682-1.166c0.213-0.323,0.475-0.621,0.712-0.925
				c0.414-0.497,0.894-0.931,1.425-1.288c0.168-0.123,0.313-0.278,0.475-0.398c0.418-0.294,0.829-0.602,1.268-0.854
				c0.375-0.217,0.791-0.363,1.188-0.543c0.127-0.077,0.258-0.146,0.395-0.204c0.807-0.223,1.591-0.552,2.456-0.49
				c0.589,0.039,1.188,0.039,1.771,0.022c0.56,0.023,1.113,0.115,1.651,0.272c0.337,0.089,0.667,0.203,0.987,0.343
				c0.342,0.115,0.674,0.254,0.997,0.415c0.847,0.434,1.643,0.964,2.375,1.58c0.634,0.538,1.186,1.172,1.637,1.881
				c0.358,0.596,0.711,1.195,1.032,1.818c0.218,0.442,0.394,0.906,0.524,1.384c0.169,0.578,0.294,1.168,0.376,1.765
				c0.049,0.521,0.059,1.047,0.032,1.57c-0.006,0.492-0.037,0.984-0.092,1.473c-0.058,0.455-0.184,0.896-0.26,1.349
				c-0.106,0.637-0.429,1.183-0.671,1.764c-0.046,0.107-0.099,0.193-0.218,0.162c-0.118-0.032-0.203-0.062-0.236-0.133
				c-0.023-0.093-0.013-0.19,0.031-0.274c0.051-0.115,0.111-0.224,0.177-0.329l-0.042-0.05c-0.07,0.018-0.14,0.045-0.204,0.079
				c-0.141,0.093-0.269,0.203-0.405,0.302c-0.177,0.094-0.28,0.287-0.265,0.49c-0.004,0.055-0.017,0.109-0.035,0.16
				c-0.06,0.316-0.116,0.634-0.171,0.95c0,0.034,0.017,0.103,0.033,0.104c0.017,0.003,0.104,0,0.12-0.028
				c0.081-0.12,0.151-0.247,0.207-0.382c0.046-0.119,0.121-0.184,0.226-0.142c0.09,0.033,0.16,0.103,0.195,0.194
				c0.015,0.113-0.008,0.23-0.067,0.329c-0.128,0.2-0.288,0.378-0.435,0.569c-0.184,0.245-0.348,0.505-0.551,0.736
				c-0.254,0.276-0.531,0.557-0.807,0.826c-0.182,0.184-0.373,0.355-0.575,0.516c-0.389,0.323-0.799,0.618-1.228,0.884
				c-0.608,0.34-1.235,0.645-1.877,0.909c-0.388,0.143-0.784,0.25-1.188,0.32c-0.345,0.076-0.694,0.118-1.041,0.174
				c-0.051,0.013-0.104,0.021-0.156,0.025c-0.458,0-0.916,0-1.375,0c-0.094-0.008-0.18-0.056-0.236-0.134
				c-0.044-0.072-0.056-0.245,0-0.278c0.093-0.057,0.201-0.08,0.308-0.067c0.095,0,0.19,0.071,0.285,0.076
				c0.179,0,0.209-0.057,0.138-0.229c-0.104-0.245-0.201-0.505-0.302-0.761c0.114,0.246,0.237,0.467,0.343,0.702
				c0.146,0.31,0.319,0.373,0.643,0.245c0.074-0.035,0.156-0.049,0.237-0.041c0.351,0.045,0.705-0.001,1.033-0.135
				c0.075-0.029,0.156-0.045,0.237-0.045c0.476,0.016,0.682-0.13,0.826-0.599c0.06-0.191,0-0.287-0.206-0.295
				c-0.134,0.005-0.268,0-0.401-0.012c-0.157-0.024-0.318-0.081-0.318-0.282c0-0.2,0.045-0.407,0.059-0.61
				c0-0.098-0.006-0.195-0.021-0.29c-0.102-0.005-0.203,0.007-0.299,0.037c-0.063,0.05-0.097,0.129-0.091,0.211
				c0.043,0.299,0.104,0.597,0.159,0.896l0.139,0.736l-0.06,0.015c-0.019-0.027-0.033-0.058-0.043-0.088
				c-0.074-0.428-0.146-0.854-0.224-1.279c-0.021-0.075-0.049-0.15-0.083-0.221c-0.066,0.036-0.135,0.071-0.197,0.112
				c-0.119,0.105-0.247,0.198-0.385,0.274c-0.194,0.082-0.413,0.109-0.615,0.173c-0.292,0.12-0.624-0.01-0.766-0.3
				c-0.021-0.041-0.031-0.101-0.064-0.127c-0.057-0.038-0.114-0.068-0.176-0.094c-0.012,0.067-0.012,0.135,0,0.201
				C1106.479,26.073,1106.583,26.347,1106.684,26.611z M1101.827,10.186c-0.025,0.091-0.047,0.191,0.086,0.196
				c0.043,0,0.088-0.062,0.131-0.094l-0.181-0.101c0,0-0.026,0-0.04,0c0.06-0.027,0.115-0.065,0.164-0.11
				c0.025-0.031,0.012-0.098,0.017-0.146l-0.254,0.101L1101.827,10.186z M1114.749,15.041c-0.034-0.051-0.063-0.105-0.085-0.162
				c-0.104-0.383-0.197-0.773-0.313-1.151c-0.028-0.116-0.102-0.216-0.202-0.276c-0.44-0.152-0.805,0.046-1.075,0.446
				c-0.237,0.351-0.304,0.759-0.475,1.132c-0.018,0.059-0.018,0.121,0,0.181c0.028,0.133,0.071,0.263,0.102,0.396
				c0.042,0.194,0.141,0.287,0.342,0.245c0.461-0.112,0.924-0.211,1.38-0.339c0.335-0.093,0.33-0.109,0.321-0.466
				c0.029,0.045,0.054,0.094,0.073,0.145c0.045,0.189,0.164,0.209,0.322,0.17c0.476-0.12,0.972-0.246,1.456-0.349
				c0.22-0.052,0.259-0.118,0.204-0.349s-0.098-0.491-0.174-0.736c-0.048-0.152-0.045-0.363-0.263-0.395
				c-0.22-0.032-0.423-0.06-0.635-0.067c-0.38-0.017-0.76-0.02-1.137-0.024c-0.127,0-0.237,0.03-0.197,0.201
				c0.04,0.172,0.104,0.313,0.143,0.472C1114.613,14.415,1114.679,14.729,1114.749,15.041z M1112.861,23.209
				c0.069,0.192,0.107,0.207,0.305,0.064c0.591-0.39,1.134-0.851,1.619-1.374c0.239-0.213,0.406-0.5,0.476-0.817
				c0.052-0.47,0.069-0.942,0.05-1.416c-0.004-0.077-0.041-0.147-0.103-0.191c-0.056-0.02-0.149,0.034-0.209,0.08
				c-0.126,0.101-0.238,0.232-0.363,0.324c-0.44,0.312-0.891,0.608-1.33,0.918c-0.075,0.053-0.131,0.133-0.151,0.224
				c-0.045,0.36-0.056,0.735-0.103,1.091c-0.047,0.353-0.126,0.735-0.19,1.113c0.041-0.417,0.084-0.835,0.121-1.251
				c0.024-0.246,0.048-0.506,0.053-0.76c0-0.169-0.069-0.203-0.221-0.125c-0.664,0.34-1.325,0.683-1.992,1.012
				c-0.146,0.054-0.238,0.201-0.226,0.36c-0.019,0.673,0.012,1.35-0.164,2.011c-0.043,0.164,0.047,0.245,0.207,0.168
				c0.229-0.09,0.455-0.194,0.674-0.312c0.447-0.244,0.884-0.512,1.327-0.766C1112.771,23.495,1112.855,23.36,1112.861,23.209z
				 M1101.025,16.41c-0.071,0-0.151-0.041-0.212-0.018c-0.596,0.246-1.187,0.491-1.777,0.737c-0.279,0.122-0.293,0.179-0.238,0.49
				c0.057,0.361,0.114,0.719,0.182,1.077c0.065,0.358,0.104,0.384,0.45,0.303h0.04l1.463-0.327l0.204-0.049v0.051l-0.614,0.149
				l-1.224,0.281c-0.051,0.003-0.099,0.03-0.127,0.075c-0.028,0.043-0.034,0.1-0.018,0.15c0.081,0.348,0.161,0.694,0.237,1.043
				c0.016,0.088,0.064,0.166,0.137,0.216c0.072,0.051,0.161,0.067,0.246,0.046c0.289-0.026,0.581-0.065,0.871-0.08
				c0.361-0.02,0.713-0.015,1.083-0.027c0.202,0,0.237-0.064,0.173-0.246c-0.092-0.302-0.183-0.604-0.282-0.902
				c-0.081-0.246-0.176-0.491-0.264-0.735c-0.009-0.025-0.015-0.052-0.017-0.077c-0.023-0.204-0.041-0.407-0.071-0.609
				c-0.078-0.517-0.161-1.032-0.237-1.547c0.043,0.114,0.079,0.23,0.109,0.349c0.102,0.525,0.189,1.052,0.299,1.578
				c0.037,0.078,0.107,0.132,0.189,0.147c0.112,0.017,0.147-0.074,0.157-0.188c-0.003-0.466-0.123-0.922-0.349-1.324
				c-0.043-0.138-0.074-0.279-0.094-0.424c-0.023-0.096-0.03-0.23-0.094-0.277C1101.145,16.192,1101.07,16.285,1101.025,16.41z
				 M1113.07,19.175c0-0.174-0.019-0.406-0.037-0.641c-0.02-0.233-0.069-0.272-0.293-0.193c-0.56,0.199-1.118,0.397-1.681,0.584
				c-0.165,0.028-0.281,0.182-0.271,0.354c0.024,0.198,0.008,0.398-0.05,0.589c-0.152,0.302-0.201,0.647-0.141,0.981
				c0.025,0.316,0.032,0.633,0.02,0.95c0,0.245,0.09,0.282,0.292,0.181c0.438-0.217,0.878-0.435,1.315-0.657
				c0.236-0.112,0.464-0.242,0.681-0.388c0.094-0.08,0.15-0.197,0.16-0.322C1113.07,20.145,1113.07,19.69,1113.07,19.175z
				 M1103.772,25.438c0.254,0,0.295-0.055,0.211-0.23c-0.171-0.366-0.349-0.736-0.518-1.098c-0.189-0.417-0.373-0.84-0.564-1.257
				c-0.029-0.058-0.081-0.104-0.143-0.121c-0.195-0.044-0.395-0.072-0.592-0.095c-0.563-0.062-1.127-0.115-1.689-0.174
				c-0.167-0.017-0.238,0.062-0.172,0.216c0.324,0.688,0.657,1.371,0.997,2.052c0.118,0.221,0.335,0.366,0.577,0.388
				c0.475,0.071,0.936,0.14,1.403,0.216C1103.465,25.364,1103.646,25.414,1103.772,25.438z M1097.706,20.803l-0.048-0.067
				c0.074-0.075,0.146-0.215,0.222-0.218c0.205,0.009,0.409,0.032,0.612,0.068c0.237,0.022,0.491,0.042,0.735,0.042
				c0.045,0,0.139-0.107,0.129-0.147c-0.081-0.37-0.171-0.735-0.278-1.1c-0.032-0.084-0.103-0.147-0.188-0.169
				c-0.134,0-0.267,0.02-0.394,0.059c-0.338,0.079-0.672,0.174-1.012,0.246c-0.289,0.059-0.385,0.196-0.285,0.49
				c0.147,0.428,0.28,0.862,0.458,1.274c0.178,0.411,0.333,0.894,0.97,0.868c0.411,0.017,0.82,0.074,1.222,0.17
				c0.162,0.024,0.22-0.021,0.155-0.19c-0.164-0.422-0.333-0.841-0.487-1.269c-0.028-0.126-0.147-0.207-0.271-0.187
				c-0.361,0-0.713,0-1.08-0.039C1097.979,20.619,1097.812,20.579,1097.706,20.803z M1105.422,25.568v-0.035c0.174,0,0.347,0,0.52,0
				c0.174,0,0.239-0.056,0.169-0.244c-0.098-0.285-0.19-0.572-0.294-0.854c-0.043-0.123-0.101-0.239-0.172-0.347
				c-0.183-0.271-0.382-0.528-0.563-0.798c-0.117-0.229-0.345-0.375-0.596-0.381c-0.438-0.012-0.871-0.088-1.309-0.135
				c-0.056-0.011-0.114,0-0.163,0.029c-0.025,0.053-0.025,0.115,0,0.167c0.358,0.771,0.712,1.541,1.087,2.305
				c0.061,0.096,0.156,0.162,0.266,0.182c0.35,0.047,0.703,0.073,1.053,0.108L1105.422,25.568z M1115.221,18.866
				c-0.043-0.491-0.072-0.894-0.11-1.284c-0.021-0.226-0.085-0.263-0.282-0.174c-0.532,0.245-1.063,0.491-1.598,0.712
				c-0.108,0.037-0.177,0.15-0.16,0.267c0.031,0.681,0.056,1.362,0.076,2.043c0,0.306,0.06,0.355,0.302,0.187
				c0.475-0.34,0.95-0.702,1.425-1.053C1115.15,19.361,1115.313,19.116,1115.221,18.866z M1100.69,20.584v0.02
				c-0.34,0.026-0.677,0.051-1.014,0.081c-0.119,0-0.113,0.088-0.078,0.182c0.176,0.462,0.344,0.925,0.529,1.382
				c0.039,0.076,0.11,0.129,0.192,0.146c0.729,0.083,1.458,0.155,2.188,0.227c0.219,0.021,0.257-0.04,0.177-0.246
				c-0.207-0.537-0.416-1.074-0.61-1.617c-0.03-0.12-0.145-0.198-0.264-0.182c-0.375,0.012-0.748,0.006-1.121,0.006V20.584z
				 M1110.144,27.036c0.095-0.035,0.145-0.05,0.191-0.072c0.134-0.065,0.262-0.137,0.395-0.202l1.297-0.644
				c0.034-0.019,0.063-0.049,0.079-0.087c0.127-0.367,0.265-0.735,0.369-1.108c0.093-0.329,0.15-0.67,0.219-1.006
				c0.01-0.081,0.016-0.164,0.015-0.246l-0.238,0.062c-0.012,0.006-0.024,0.012-0.035,0.021c-0.598,0.334-1.153,0.75-1.812,0.969
				c-0.198,0.071-0.323,0.275-0.299,0.49c0,0.246,0,0.492,0,0.736c0,0.067,0,0.162-0.045,0.192
				c-0.238,0.179-0.191,0.457-0.238,0.698C1110.031,26.896,1110.107,26.971,1110.144,27.036z M1112.295,25.753
				c0.011,0.026,0.025,0.107,0.056,0.115c0.057,0.005,0.112-0.013,0.155-0.05c0.236-0.201,0.475-0.41,0.729-0.612
				c0.615-0.509,1.157-1.105,1.607-1.773c0.057-0.106,0.091-0.225,0.1-0.346c0.056-0.343,0.101-0.689,0.143-1.037
				c0.006-0.082,0.006-0.164,0-0.246c-0.068,0.037-0.161,0.056-0.206,0.114c-0.507,0.578-1.094,1.074-1.741,1.474
				c-0.193,0.12-0.326,0.322-0.365,0.552c-0.069,0.356-0.152,0.712-0.237,1.063C1112.463,25.244,1112.378,25.484,1112.295,25.753z
				 M1115.084,17.077c-0.09-0.491-0.171-0.955-0.253-1.406c-0.024-0.125-0.088-0.164-0.218-0.133
				c-0.36,0.094-0.729,0.169-1.092,0.246c-0.195,0.046-0.392,0.09-0.579,0.156c-0.064,0.032-0.109,0.096-0.121,0.17
				c0.07,0.599,0.157,1.197,0.238,1.795c0.016,0.132,0.077,0.167,0.191,0.116c0.221-0.097,0.444-0.192,0.663-0.294
				c0.299-0.134,0.604-0.264,0.895-0.416C1114.91,17.246,1115.002,17.166,1115.084,17.077z M1104.67,27.414
				c0.127-0.018,0.208-0.02,0.284-0.037c0.209-0.049,0.214-0.088,0.106-0.272c-0.186-0.318-0.349-0.65-0.531-0.981
				c-0.184-0.331-0.326-0.66-0.77-0.623c-0.021-0.002-0.041-0.006-0.059-0.013c-0.597-0.102-1.188-0.202-1.791-0.297
				c-0.057,0.001-0.113,0.011-0.166,0.029c0.009,0.058,0.024,0.113,0.047,0.166c0.126,0.228,0.264,0.447,0.413,0.658
				c0.158,0.239,0.349,0.451,0.567,0.631c0.297,0.203,0.615,0.368,0.95,0.491C1104.034,27.268,1104.349,27.352,1104.67,27.414z
				 M1098.636,16.226h-0.064c0.04,0.242,0.079,0.487,0.116,0.736c0.029,0.17,0.131,0.193,0.264,0.129
				c0.098-0.047,0.188-0.108,0.285-0.147c0.496-0.204,0.992-0.406,1.491-0.604c0.142-0.041,0.232-0.184,0.214-0.334
				c-0.033-0.49-0.066-0.981-0.104-1.473c-0.007-0.045-0.034-0.083-0.073-0.103c-0.044,0.003-0.082,0.028-0.103,0.068
				c-0.038,0.115-0.062,0.246-0.091,0.358c-0.063,0.263-0.106,0.543-0.441,0.579c-0.09,0.003-0.181-0.002-0.271-0.015
				c-0.062,0-0.142-0.037-0.185,0c-0.072,0.05-0.16,0.067-0.244,0.048c-0.083-0.019-0.156-0.073-0.2-0.148
				c-0.134-0.213-0.358-0.246-0.527-0.388c-0.106-0.089-0.19-0.042-0.209,0.098c-0.009,0.063-0.009,0.125,0,0.187
				C1098.542,15.563,1098.586,15.894,1098.636,16.226z M1101.307,24.874c-0.04-0.076-0.064-0.118-0.088-0.16
				c-0.079-0.119-0.152-0.242-0.221-0.368c-0.271-0.576-0.535-1.154-0.795-1.736c-0.047-0.113-0.152-0.188-0.271-0.19
				c-0.475-0.06-0.933-0.137-1.4-0.2c-0.067-0.001-0.135,0.007-0.199,0.024c0.018,0.068,0.045,0.134,0.08,0.195
				c0.392,0.505,0.787,1.007,1.188,1.508c0.133,0.213,0.301,0.399,0.496,0.553c0.347,0.172,0.705,0.315,1.074,0.429
				C1101.198,24.938,1101.25,24.9,1101.307,24.874z M1117.04,16.702h-0.016c0.01-0.103,0.01-0.206,0-0.31
				c-0.034-0.133-0.076-0.264-0.125-0.393c-0.125,0.051-0.246,0.111-0.362,0.183c-0.413,0.299-0.816,0.615-1.231,0.912
				c-0.114,0.064-0.176,0.194-0.155,0.327c0.053,0.49,0.101,0.959,0.157,1.438c0.007,0.065,0.04,0.125,0.09,0.164
				c0.023,0.019,0.109-0.034,0.147-0.073c0.352-0.329,0.684-0.679,0.995-1.048c0.176-0.226,0.444-0.412,0.475-0.736
				c-0.002-0.145,0.012-0.303,0.025-0.456V16.702z M1116.963,17.632c-0.082,0.062-0.162,0.128-0.238,0.198
				c-0.299,0.312-0.586,0.639-0.895,0.94c-0.309,0.301-0.575,0.549-0.452,1.063c0.093,0.427,0.078,0.872-0.045,1.29
				c-0.015,0.049,0.02,0.113,0.031,0.17c0.055-0.007,0.109-0.023,0.159-0.049c0.259-0.204,0.518-0.408,0.769-0.623
				c0.072-0.065,0.124-0.15,0.147-0.246c0.164-0.636,0.328-1.271,0.476-1.912c0.033-0.272,0.048-0.549,0.045-0.824L1116.963,17.632z
				 M1097.254,19.517l0.043-0.042c0.047,0.003,0.094,0.003,0.14,0c0.454-0.105,0.909-0.208,1.362-0.317
				c0.059-0.006,0.11-0.039,0.141-0.09c0.031-0.052,0.037-0.112,0.017-0.17c-0.075-0.425-0.149-0.851-0.206-1.278
				c-0.033-0.258-0.107-0.329-0.338-0.223c-0.415,0.188-0.818,0.404-1.234,0.591c-0.146,0.046-0.232,0.2-0.199,0.354
				c0.033,0.329,0.05,0.66,0.098,0.981c0.009,0.073,0.116,0.133,0.178,0.201V19.517z M1108.694,25.151
				c0.476,0.046,0.592-0.143,0.658-0.514c0.049-0.16,0.118-0.315,0.204-0.459l0.071,0.018c0.036,0.064,0.069,0.128,0.106,0.189
				c0.071,0.123,0.15,0.242,0.237,0.353c0.139,0.155,0.252,0.119,0.323-0.076c0.253-0.703,0.171-1.442,0.204-2.169
				c0-0.143-0.073-0.202-0.209-0.165l-0.753,0.202c-0.125,0.031-0.144,0.099-0.118,0.229c0.022,0.122,0.01,0.248-0.038,0.362
				c-0.174,0.386-0.506,0.699-0.463,1.176c0,0.012,0,0.027-0.013,0.04L1108.694,25.151z M1104.42,22.842l0.138-0.066
				c-0.021-0.052-0.05-0.1-0.085-0.142c-0.221-0.153-0.426-0.33-0.609-0.529c-0.342-0.474-0.641-0.981-0.949-1.472
				c-0.053-0.105-0.17-0.157-0.279-0.123c-0.109,0.029-0.221,0.05-0.333,0.062c-0.14,0.015-0.218,0.052-0.149,0.222
				c0.068,0.168,0.141,0.37,0.211,0.557c0.138,0.373,0.27,0.751,0.42,1.117c0.041,0.097,0.146,0.222,0.238,0.244
				C1103.485,22.761,1103.95,22.796,1104.42,22.842z M1115.956,13.425h0.08c0.442,0,0.456,0,0.285-0.419
				c-0.171-0.42-0.382-0.848-0.584-1.262c-0.086-0.172-0.237-0.214-0.342-0.115c-0.104,0.098-0.257,0.245-0.393,0.373
				c-0.328,0.289-0.569,0.667-0.7,1.092c-0.035,0.115,0,0.204,0.11,0.214c0.155,0.014,0.315,0,0.475,0
				C1115.243,13.352,1115.6,13.391,1115.956,13.425z M1116.905,15.517c0-0.435-0.095-0.504-0.475-0.407
				c-0.38,0.095-0.788,0.198-1.188,0.281c-0.342,0.074-0.365,0.084-0.316,0.422c0.051,0.339,0.119,0.72,0.184,1.078
				c0.026,0.144,0.112,0.178,0.237,0.107c0.077-0.04,0.151-0.088,0.221-0.14c0.373-0.3,0.738-0.611,1.116-0.905
				c0.186-0.125,0.28-0.258,0.232-0.437H1116.905z M1110.485,21.006c0-0.167,0-0.312,0-0.457c-0.008-0.051-0.036-0.096-0.078-0.125
				c-0.021-0.012-0.081,0.03-0.114,0.057c-0.065,0.067-0.138,0.127-0.217,0.178c-0.195,0.083-0.396,0.141-0.596,0.213
				c-0.199,0.071-0.277,0.198-0.171,0.368c0.158,0.3,0.214,0.646,0.16,0.981c0,0.16,0.059,0.221,0.203,0.191
				c0.184-0.03,0.366-0.071,0.547-0.125c0.349-0.115,0.379-0.18,0.341-0.56L1110.485,21.006z M1111.544,18.646
				c0.028,0.009,0.059,0.009,0.088,0c0.371-0.134,0.74-0.271,1.11-0.406c0.156-0.043,0.249-0.208,0.209-0.37
				c-0.067-0.552-0.127-1.106-0.203-1.656c0-0.078-0.083-0.145-0.129-0.218c-0.077,0.071-0.211,0.135-0.223,0.218
				c-0.052,0.352-0.238,0.67-0.199,1.041c0.001,0.063-0.015,0.125-0.045,0.179c-0.197,0.405-0.396,0.801-0.608,1.215V18.646z
				 M1102.448,26.553c-0.022-0.053-0.047-0.105-0.074-0.154c-0.226-0.344-0.441-0.69-0.677-1.034
				c-0.076-0.12-0.181-0.22-0.304-0.286c-0.328-0.148-0.67-0.264-1.007-0.386c-0.036-0.013-0.085,0-0.128,0.015
				c0,0.045,0.007,0.089,0.019,0.132c0.021,0.037,0.046,0.068,0.078,0.095c0.409,0.385,0.806,0.779,1.228,1.147
				c0.218,0.171,0.448,0.323,0.689,0.457C1102.307,26.572,1102.372,26.553,1102.448,26.553z M1102.122,20.496l0.316-0.04
				c0.279-0.023,0.332-0.115,0.237-0.391c-0.176-0.542-0.527-0.981-0.813-1.455c-0.056-0.057-0.138-0.078-0.214-0.057
				c-0.066,0.055-0.109,0.137-0.115,0.224c0,0.074,0.049,0.154,0.07,0.232c0.129,0.435,0.237,0.872,0.383,1.304
				C1102.02,20.383,1102.065,20.444,1102.122,20.496z M1097.041,15.303c0.35-0.217,0.665-0.41,0.976-0.614
				c0.035-0.046,0.046-0.107,0.029-0.164c-0.093-0.086-0.201-0.151-0.318-0.193c-0.168-0.04-0.341-0.061-0.514-0.06
				c-0.061,0.01-0.114,0.052-0.14,0.111c-0.038,0.228-0.06,0.459-0.078,0.691C1097.001,15.153,1097.017,15.229,1097.041,15.303z
				 M1101.198,15.284h0.055c-0.033-0.172-0.062-0.344-0.107-0.514c-0.012-0.046-0.075-0.081-0.115-0.12
				c-0.028,0.054-0.081,0.111-0.078,0.165c0.014,0.378,0.037,0.753,0.066,1.129c0,0.105,0.021,0.245,0.178,0.208
				s0.111-0.156,0.092-0.27C1101.249,15.676,1101.222,15.48,1101.198,15.284z M1100.557,9.607c-0.043,0.018-0.084,0.041-0.121,0.068
				c0,0,0,0.079,0.031,0.099c0.1,0.091,0.206,0.177,0.313,0.26c0.031,0.022,0.068,0.033,0.105,0.029c0.016,0,0.037-0.052,0.037-0.08
				C1100.875,9.798,1100.736,9.655,1100.557,9.607z M1108.084,16.14h-0.071c-0.014,0.046-0.047,0.096-0.037,0.14
				c0.016,0.093,0.045,0.184,0.083,0.27c0.021,0.047,0.085,0.121,0.104,0.113s0.143-0.098,0.135-0.117
				C1108.229,16.41,1108.151,16.285,1108.084,16.14z M1105.333,9.291v0.071c0.068,0.044,0.154,0.137,0.201,0.119
				c0.048-0.017,0.133-0.13,0.195-0.198c-0.043-0.039-0.093-0.118-0.126-0.11C1105.508,9.202,1105.418,9.242,1105.333,9.291z
				 M1113.705,13.07c0.083-0.039,0.161-0.085,0.237-0.138c0.038-0.029,0.047-0.093,0.07-0.143c-0.053-0.012-0.108-0.017-0.163-0.015
				c-0.059,0.013-0.115,0.035-0.166,0.066c-0.046,0.03-0.09,0.063-0.131,0.101L1113.705,13.07z M1102.889,17.558
				c-0.066,0.05-0.119,0.067-0.124,0.094c-0.007,0.045,0.005,0.09,0.034,0.125c0.086,0.069,0.176,0.133,0.27,0.191
				c0.02,0.013,0.063,0.018,0.074,0s0.04-0.074,0.028-0.086C1103.083,17.776,1102.987,17.671,1102.889,17.558z M1111.199,7.424
				V7.343c-0.106-0.041-0.211-0.09-0.322-0.122c-0.024,0-0.063,0.044-0.093,0.068c0.086,0.077,0.178,0.146,0.273,0.209
				c0.035,0.015,0.1-0.049,0.145-0.07L1111.199,7.424z M1111.865,12.236l-0.237-0.246c-0.025,0.034-0.076,0.083-0.067,0.101
				c0.048,0.105,0.11,0.206,0.166,0.307L1111.865,12.236z M1106.836,24.652h-0.06c-0.023,0.047-0.078,0.108-0.066,0.141
				c0.043,0.086,0.092,0.169,0.149,0.245c0.036-0.029,0.106-0.071,0.103-0.089C1106.925,24.85,1106.883,24.75,1106.836,24.652z
				 M1104.102,14.1l-0.133-0.193c-0.047,0.077-0.088,0.159-0.119,0.245c0,0.032,0.055,0.086,0.084,0.128L1104.102,14.1z
				 M1112.048,9.461l-0.134-0.205c-0.032,0.056-0.092,0.112-0.094,0.169c0.012,0.07,0.038,0.138,0.075,0.198L1112.048,9.461z
				 M1108.36,11.472c-0.069-0.063-0.144-0.123-0.219-0.177c0,0-0.093,0.088-0.085,0.101c0.052,0.081,0.109,0.157,0.171,0.23
				L1108.36,11.472z M1104.845,21.58l0.033-0.051c-0.052-0.077-0.112-0.148-0.181-0.209c-0.033-0.025-0.107,0.017-0.164,0.026
				c0.018,0.058,0.018,0.14,0.053,0.159C1104.67,21.541,1104.756,21.565,1104.845,21.58z M1103.747,8.653l-0.174-0.15
				c-0.055,0.059-0.104,0.124-0.145,0.194c0,0.014,0.09,0.117,0.121,0.107C1103.58,8.794,1103.667,8.721,1103.747,8.653z
				 M1105.123,6.525V6.59c0.046,0.027,0.096,0.081,0.134,0.071c0.076-0.025,0.148-0.062,0.216-0.108
				c-0.033-0.044-0.071-0.125-0.097-0.122c-0.087,0.021-0.171,0.051-0.25,0.091L1105.123,6.525z M1106.239,25.059
				c-0.047,0.058-0.09,0.09-0.083,0.105c0.043,0.117,0.093,0.23,0.146,0.343c0.021,0.009,0.046,0.009,0.068,0
				c0.018-0.046,0.022-0.097,0.014-0.146c-0.041-0.104-0.09-0.207-0.143-0.306L1106.239,25.059z M1107.609,18.846l-0.237-0.2
				c-0.028,0.036-0.088,0.093-0.08,0.107c0.049,0.074,0.105,0.145,0.17,0.206C1107.462,18.959,1107.533,18.902,1107.609,18.846z
				 M1112.712,15.767l-0.146-0.182c-0.04,0.063-0.072,0.133-0.094,0.206c0,0.039,0.054,0.091,0.081,0.135L1112.712,15.767z
				 M1113.03,12.682c-0.1-0.062-0.151-0.12-0.199-0.118c-0.048,0.003-0.091,0.071-0.136,0.108c0.041,0.046,0.079,0.13,0.121,0.133
				C1112.859,12.807,1112.929,12.746,1113.03,12.682z M1104.881,19.78l0.156,0.168c0.033-0.042,0.1-0.094,0.092-0.12
				c-0.033-0.072-0.075-0.14-0.125-0.201L1104.881,19.78z M1110.375,17.711c-0.047,0.065-0.096,0.119-0.09,0.129
				c0.051,0.062,0.109,0.115,0.174,0.162c0.036-0.022,0.068-0.052,0.095-0.086C1110.498,17.844,1110.438,17.775,1110.375,17.711z
				 M1104.304,20.318c0.049-0.061,0.088-0.13,0.116-0.204c0-0.026-0.09-0.107-0.102-0.1c-0.059,0.035-0.105,0.086-0.139,0.147
				C1104.17,20.182,1104.243,20.239,1104.304,20.318z M1098.328,13.5c-0.089-0.076-0.147-0.133-0.214-0.182
				c-0.027,0.018-0.051,0.041-0.068,0.068c0.043,0.071,0.094,0.14,0.148,0.201C1098.241,13.562,1098.286,13.533,1098.328,13.5z
				 M1100.201,13.03l-0.218-0.196c-0.029,0.04-0.088,0.099-0.078,0.118c0.036,0.065,0.086,0.12,0.146,0.162
				C1100.069,13.124,1100.127,13.072,1100.201,13.03z M1109.122,20.724l0.09-0.039c0.049-0.055,0.09-0.114,0.126-0.177
				c0-0.015-0.057-0.064-0.088-0.098c-0.061,0.055-0.114,0.116-0.164,0.184C1109.071,20.619,1109.107,20.678,1109.122,20.724z
				 M1108.958,17.913c-0.092-0.056-0.143-0.112-0.181-0.103s-0.097,0.068-0.146,0.108c0.04,0.033,0.078,0.095,0.119,0.095
				c0.04,0,0.106-0.049,0.206-0.103L1108.958,17.913z M1108.666,23.068h0.056c0.034-0.057,0.062-0.117,0.077-0.183
				c0-0.039-0.052-0.086-0.081-0.127c-0.044,0.047-0.08,0.102-0.106,0.162c-0.014,0.031,0.031,0.088,0.053,0.137L1108.666,23.068z
				 M1114.3,11.745c-0.047-0.047-0.087-0.096-0.094-0.091c-0.068,0.044-0.132,0.095-0.188,0.151
				c0.022,0.039,0.048,0.074,0.075,0.108L1114.3,11.745z M1114.145,10.674l0.054-0.062c0.012-0.052-0.002-0.106-0.033-0.147
				c-0.033-0.041-0.081-0.065-0.133-0.065c-0.03,0-0.068,0.059-0.102,0.091L1114.145,10.674z M1109.634,10.073
				c-0.05,0.071-0.091,0.148-0.122,0.229c0,0.024,0.054,0.068,0.085,0.104c0.048-0.048,0.089-0.103,0.122-0.162
				c0.013-0.027-0.036-0.094-0.083-0.17H1109.634z M1103.432,20.38c-0.049,0.081-0.102,0.13-0.104,0.182
				c-0.004,0.051,0.085,0.104,0.111,0.093c0.055-0.023,0.097-0.071,0.116-0.13c0.017-0.02-0.06-0.068-0.121-0.137L1103.432,20.38z
				 M1106.261,18.615c-0.064-0.064-0.133-0.126-0.204-0.184c0,0-0.085,0.071-0.082,0.074c0.045,0.068,0.098,0.132,0.156,0.19
				c0,0,0.054-0.031,0.132-0.073L1106.261,18.615z M1103.715,11.072l-0.123-0.145c-0.043,0.042-0.077,0.093-0.104,0.147
				c0,0.031,0.041,0.083,0.064,0.125L1103.715,11.072z M1109.035,21.394c-0.059-0.052-0.121-0.099-0.188-0.138
				c-0.015,0-0.093,0.081-0.086,0.094c0.033,0.061,0.077,0.112,0.131,0.154C1108.892,21.504,1108.958,21.438,1109.035,21.394z
				 M1107.931,10.461c-0.046,0.107-0.087,0.161-0.081,0.208c0.005,0.047,0.054,0.094,0.085,0.14
				c0.033-0.049,0.086-0.096,0.093-0.149S1107.985,10.564,1107.931,10.461z M1109.578,17.653c-0.072-0.046-0.131-0.103-0.147-0.094
				c-0.052,0.043-0.097,0.094-0.136,0.147c0.039,0.03,0.086,0.092,0.112,0.081C1109.434,17.778,1109.51,17.717,1109.578,17.653z
				 M1103.901,10.64c0.053-0.051,0.098-0.11,0.135-0.175c0-0.02-0.074-0.103-0.083-0.098c-0.054,0.028-0.1,0.071-0.134,0.123
				C1103.81,10.515,1103.858,10.571,1103.901,10.64z M1098.42,12.206c0.051-0.062,0.094-0.129,0.128-0.201
				c0-0.02-0.057-0.066-0.088-0.098c-0.052,0.044-0.099,0.095-0.14,0.149C1098.316,12.071,1098.368,12.127,1098.42,12.206z
				 M1103.855,11.44c-0.044,0.072-0.082,0.149-0.113,0.229c0,0.015,0.08,0.079,0.09,0.071c0.049-0.035,0.089-0.082,0.114-0.138
				c0.009-0.029-0.041-0.078-0.091-0.164V11.44z M1105.518,8.004c-0.069-0.054-0.121-0.115-0.139-0.105
				c-0.053,0.031-0.096,0.075-0.125,0.13c0,0,0.066,0.101,0.09,0.093c0.063-0.03,0.119-0.07,0.17-0.12L1105.518,8.004z
				 M1109.49,18.868l-0.125-0.179c-0.036,0.031-0.101,0.068-0.099,0.095c0.019,0.06,0.045,0.115,0.081,0.165L1109.49,18.868z
				 M1103.181,8.546l-0.083-0.052l-0.143,0.246c0.033,0.015,0.09,0.044,0.095,0.039C1103.098,8.71,1103.137,8.627,1103.181,8.546z
				 M1105.872,23.561c-0.064-0.057-0.132-0.11-0.203-0.159c-0.029,0.023-0.054,0.051-0.072,0.083
				c0.044,0.062,0.096,0.114,0.154,0.162C1105.75,23.646,1105.807,23.605,1105.872,23.561z M1100.41,11.413l-0.12-0.144
				c-0.033,0.041-0.091,0.085-0.091,0.127s0.058,0.086,0.088,0.13L1100.41,11.413z M1107.966,24.307l0.168,0.133
				c0.029-0.039,0.089-0.094,0.079-0.118c-0.024-0.055-0.066-0.099-0.119-0.125C1108.084,24.189,1108.027,24.255,1107.966,24.307z
				 M1112.342,14.491l-0.079-0.063c-0.051,0.06-0.099,0.122-0.142,0.188c0,0.013,0.05,0.063,0.076,0.098L1112.342,14.491z
				 M1113.561,11.13c-0.036,0.087-0.079,0.143-0.067,0.167c0.036,0.051,0.079,0.096,0.129,0.133
				c0.026-0.039,0.083-0.088,0.073-0.115S1113.626,11.224,1113.561,11.13z M1105.534,13.386c-0.049,0.06-0.092,0.123-0.128,0.191
				c0,0.018,0.05,0.062,0.075,0.094c0.055-0.051,0.106-0.105,0.155-0.163c-0.031-0.041-0.065-0.079-0.103-0.114V13.386z
				 M1108.812,13.094c-0.066-0.062-0.106-0.115-0.16-0.135c-0.051-0.021-0.073,0.049-0.11,0.076
				c0.043,0.053,0.092,0.102,0.145,0.145C1108.686,13.18,1108.75,13.133,1108.812,13.094z M1097.807,12.734
				c-0.033,0.083-0.075,0.142-0.062,0.167c0.031,0.051,0.075,0.093,0.128,0.12c0.015,0,0.096-0.084,0.088-0.094
				C1097.916,12.859,1097.864,12.793,1097.807,12.734z M1109.31,17.214c-0.063-0.061-0.104-0.125-0.145-0.127
				c-0.04-0.003-0.107,0.071-0.104,0.103c0.016,0.054,0.056,0.097,0.106,0.115C1109.193,17.315,1109.244,17.266,1109.31,17.214z
				 M1105.736,13.98l-0.052-0.093l-0.117-0.105c-0.027,0.039-0.086,0.083-0.08,0.12c0.006,0.057,0.039,0.105,0.088,0.133
				C1105.62,14.046,1105.681,14,1105.736,13.98z M1110.505,16.834c-0.069-0.038-0.143-0.066-0.22-0.081
				c-0.037,0-0.073,0.06-0.11,0.094c0.047,0.034,0.094,0.091,0.146,0.101C1110.373,16.958,1110.409,16.896,1110.505,16.834z
				 M1099.598,14.886c-0.103-0.044-0.152-0.086-0.197-0.079c-0.045,0.008-0.078,0.064-0.119,0.099
				c0.045,0.031,0.088,0.083,0.133,0.086C1099.459,14.994,1099.502,14.942,1099.598,14.886z M1098.979,11.242
				c-0.077-0.058-0.117-0.105-0.162-0.113s-0.096,0.079-0.088,0.093c0.022,0.052,0.062,0.093,0.111,0.116
				C1098.862,11.349,1098.909,11.291,1098.979,11.242z M1103.223,16.189c-0.057,0.089-0.106,0.133-0.102,0.167
				c0.017,0.058,0.043,0.111,0.078,0.159c0.033-0.034,0.093-0.065,0.093-0.101C1103.28,16.336,1103.257,16.26,1103.223,16.189z
				 M1106.463,16.434l0.078,0.071l0.154-0.167l-0.093-0.085L1106.463,16.434z M1103.506,7.872c0.041-0.107,0.08-0.162,0.073-0.209
				c-0.007-0.046-0.063-0.081-0.098-0.12c-0.031,0.046-0.055,0.098-0.068,0.152C1103.409,7.732,1103.454,7.774,1103.506,7.872z
				 M1105.106,17.629c-0.054-0.049-0.113-0.091-0.178-0.125c-0.017,0-0.057,0.054-0.088,0.084c0.038,0.046,0.082,0.088,0.131,0.123
				C1104.998,17.72,1105.04,17.671,1105.106,17.629z M1112.876,8.507c-0.06-0.206-0.154-0.245-0.291-0.145L1112.876,8.507z
				 M1105.752,7.083c0.052-0.086,0.095-0.125,0.097-0.167c0.003-0.041-0.035-0.088-0.056-0.132
				c-0.041,0.036-0.098,0.068-0.112,0.115C1105.667,6.946,1105.709,6.988,1105.752,7.083z M1107.652,7.19
				c0.047-0.091,0.09-0.136,0.087-0.177c-0.002-0.042-0.053-0.076-0.085-0.116c-0.03,0.04-0.081,0.074-0.085,0.116
				c-0.005,0.041,0.04,0.086,0.088,0.177H1107.652z M1110.38,15.289c-0.068-0.035-0.117-0.076-0.135-0.063
				c-0.045,0.04-0.085,0.086-0.119,0.137c0.032,0.027,0.079,0.081,0.092,0.073c0.061-0.043,0.116-0.094,0.168-0.149L1110.38,15.289z
				 M1105.024,7.587c0.04-0.111,0.075-0.165,0.07-0.211c-0.004-0.047-0.057-0.077-0.088-0.113c-0.027,0.049-0.073,0.093-0.078,0.145
				S1104.969,7.492,1105.024,7.587z M1101.524,11.467c-0.041,0.049-0.079,0.086-0.074,0.094c0.045,0.068,0.098,0.132,0.147,0.198
				c0.021-0.027,0.066-0.066,0.06-0.079C1101.616,11.607,1101.572,11.536,1101.524,11.467z M1099.132,13.543l0.034-0.071
				c-0.041-0.02-0.086-0.063-0.119-0.054s-0.084,0.066-0.127,0.101c0.029,0.029,0.059,0.086,0.089,0.086
				S1099.092,13.568,1099.132,13.543z M1109.424,7.92l0.086-0.086l-0.167-0.14c-0.019,0.025-0.059,0.063-0.057,0.069
				C1109.329,7.813,1109.379,7.867,1109.424,7.92z M1111.072,10.834c0.04-0.102,0.078-0.152,0.072-0.199
				c-0.005-0.047-0.056-0.071-0.09-0.105c-0.027,0.047-0.073,0.088-0.081,0.138C1110.968,10.716,1111.019,10.746,1111.072,10.834z
				 M1102.148,11.344c-0.062-0.047-0.103-0.096-0.128-0.091c-0.026,0.005-0.074,0.062-0.109,0.094
				c0.033,0.034,0.064,0.093,0.098,0.096C1102.042,11.445,1102.077,11.394,1102.148,11.344z M1108.858,7.953l-0.083-0.076
				l-0.156,0.167c0.027,0.027,0.057,0.052,0.09,0.073C1108.763,8.065,1108.812,8.01,1108.858,7.953z M1100.073,11.675l-0.062-0.091
				l-0.104-0.096c-0.031,0.045-0.079,0.086-0.084,0.133c-0.004,0.047,0.055,0.091,0.092,0.099c0.051-0.004,0.103-0.02,0.148-0.045
				H1100.073z M1103.083,17.187c0.042-0.056,0.095-0.109,0.088-0.119c-0.028-0.047-0.069-0.082-0.118-0.103
				c-0.02,0-0.063,0.051-0.094,0.078L1103.083,17.187z M1108.044,24.759c-0.05,0.074-0.096,0.113-0.09,0.142
				c0.005,0.029,0.05,0.082,0.076,0.121c0.028-0.033,0.08-0.06,0.082-0.094C1108.115,24.894,1108.084,24.839,1108.044,24.759z
				 M1110.575,17.129c-0.042,0.093-0.083,0.142-0.076,0.181c0.008,0.04,0.064,0.063,0.1,0.096c0.026-0.034,0.072-0.071,0.072-0.105
				S1110.627,17.217,1110.575,17.129z M1102.488,16.022l-0.131-0.115c-0.028,0.039-0.073,0.076-0.078,0.118s0.05,0.096,0.073,0.096
				S1102.423,16.069,1102.488,16.022z M1103.217,13.649c0.042-0.081,0.082-0.125,0.072-0.154c-0.01-0.03-0.057-0.074-0.09-0.111
				c-0.023,0.035-0.068,0.069-0.068,0.104S1103.174,13.568,1103.217,13.649z M1109.035,10.12l0.062-0.086
				c-0.054-0.027-0.109-0.049-0.166-0.066c-0.027,0-0.06,0.029-0.089,0.044c0.029,0.049,0.062,0.094,0.1,0.135
				C1108.958,10.149,1109.006,10.129,1109.035,10.12z M1110.72,8.707c-0.057-0.052-0.09-0.108-0.127-0.113
				c-0.039-0.005-0.091,0.063-0.088,0.096c0.002,0.032,0.054,0.086,0.094,0.101c0.041,0.015,0.066-0.042,0.124-0.083H1110.72z
				 M1104.897,10.051l0.115,0.095c0.025-0.038,0.068-0.078,0.072-0.119c0.006-0.042-0.057-0.081-0.082-0.079
				C1104.975,9.951,1104.94,10.002,1104.897,10.051z M1106.142,10.95c-0.039,0.088-0.076,0.133-0.072,0.177
				c0.002,0.044,0.049,0.063,0.078,0.098c0.028-0.042,0.068-0.078,0.078-0.123C1106.235,11.057,1106.185,11.028,1106.142,10.95z
				 M1111.884,8.272l-0.063-0.099c-0.056,0.045-0.107,0.092-0.158,0.143c0,0,0.021,0.054,0.034,0.083L1111.884,8.272z
				 M1108.73,24.031c-0.063-0.051-0.093-0.096-0.133-0.103s-0.076,0.062-0.074,0.091c0.003,0.03,0.045,0.081,0.071,0.12
				L1108.73,24.031z M1107.306,15.646c-0.057-0.046-0.093-0.093-0.133-0.1c-0.04-0.008-0.081,0.066-0.076,0.09
				c0.015,0.047,0.048,0.086,0.091,0.105C1107.204,15.751,1107.249,15.696,1107.306,15.646z M1107.709,12.238l-0.087-0.044
				l-0.11,0.263l0.072,0.029L1107.709,12.238z M1109.195,6.713c-0.059-0.049-0.093-0.096-0.13-0.101
				c-0.039-0.005-0.088,0.062-0.084,0.078c0.016,0.047,0.047,0.085,0.088,0.108C1109.089,6.799,1109.134,6.748,1109.195,6.713z
				 M1105.947,22.533l-0.091,0.036l0.063,0.196c0.036-0.015,0.07-0.032,0.102-0.055C1106.001,22.65,1105.975,22.591,1105.947,22.533
				z M1106.36,21.707l0.057,0.099c0.039,0.027,0.076,0.069,0.117,0.071c0.04,0.002,0.07-0.071,0.066-0.103
				c-0.01-0.049-0.041-0.09-0.086-0.11c-0.045-0.008-0.092,0.02-0.151,0.043H1106.36z M1101.309,8.921
				c-0.037,0.064-0.084,0.106-0.078,0.136c0.008,0.029,0.06,0.071,0.094,0.105c0.023-0.034,0.066-0.071,0.068-0.105
				S1101.35,8.976,1101.309,8.921z M1110.24,7.695l-0.08,0.066l0.147,0.177c0.021-0.024,0.062-0.062,0.057-0.068
				C1110.326,7.809,1110.285,7.75,1110.24,7.695z M1110.912,9.658c-0.063-0.056-0.098-0.104-0.138-0.112
				c-0.04-0.007-0.086,0.057-0.082,0.081c0.005,0.049,0.032,0.093,0.072,0.118C1110.791,9.749,1110.842,9.695,1110.912,9.658z
				 M1097.829,12.637c-0.07-0.031-0.109-0.065-0.137-0.059c-0.044,0.021-0.082,0.048-0.117,0.081
				c0.023,0.032,0.053,0.096,0.068,0.091C1097.71,12.722,1097.772,12.684,1097.829,12.637z M1111.157,13.143
				c-0.038,0.073-0.076,0.11-0.074,0.147c0.004,0.037,0.038,0.076,0.06,0.115c0.029-0.036,0.076-0.071,0.083-0.112
				C1111.233,13.251,1111.193,13.219,1111.157,13.143z M1102.647,14.098c-0.043,0.062-0.094,0.101-0.088,0.127
				c0.004,0.027,0.055,0.077,0.085,0.113c0.026-0.034,0.071-0.063,0.073-0.101C1102.72,14.201,1102.682,14.162,1102.647,14.098z"/>
		</g>
	</g>
</g>
</svg>
