<svg xmlns="http://www.w3.org/2000/svg" width="20" height="20" viewBox="0 0 20 20">
  <g fill="none" fill-rule="evenodd" transform="translate(-2 -2)">
    <path fill="#F21053" fill-rule="nonzero" d="M12,2 C6.48,2 2,6.48 2,12 C2,17.52 6.48,22 12,22 C17.52,22 22,17.52 22,12 C22,6.48 17.52,2 12,2 Z M12,20 C7.58,20 4,16.42 4,12 C4,7.58 7.58,4 12,4 C16.42,4 20,7.58 20,12 C20,16.42 16.42,20 12,20 Z"/>
    <g fill="#F21053" fill-rule="nonzero" transform="translate(10.286 5.029)">
      <path d="M1.77005894,4.57142857 C0.982228459,4.57142857 0.342857143,5.22973907 0.342857143,6.04080312 L0.342857143,12.2449112 C0.342857143,13.0560215 0.982273365,13.7142857 1.77005894,13.7142857 C2.55784451,13.7142857 3.19726074,13.0559752 3.19726074,12.2449112 L3.19726074,6.04084935 C3.19726074,5.22973907 2.55788942,4.57142857 1.77005894,4.57142857 Z" transform="matrix(1 0 0 -1 0 18.286)"/>
      <circle cx="1.77" cy="1.427" r="1.427" transform="matrix(1 0 0 -1 0 2.854)"/>
    </g>
    <polygon points="0 0 24 0 24 24 0 24"/>
  </g>
</svg>
