<?xml version="1.0" encoding="UTF-8"?>
<svg width="32px" height="22px" viewBox="0 0 32 22" version="1.1" xmlns="http://www.w3.org/2000/svg" xmlns:xlink="http://www.w3.org/1999/xlink">
    <!-- Generator: Sketch 52.2 (67145) - http://www.bohemiancoding.com/sketch -->
    <title>Line Charet</title>
    <desc>Created with Sketch.</desc>
    <g id="Page-1" stroke="none" stroke-width="1" fill="none" fill-rule="evenodd">
        <g id="11_Chart-Dropdown" transform="translate(-350.000000, -533.000000)" fill="#B94A4B">
            <g id="Line-Charet" transform="translate(350.000000, 533.000000)">
                <path d="M31.2660438,20.834099 L1.40900941,20.834099 L1.40900941,1.04434076 C1.40900941,0.812318098 1.22217605,0.624390244 0.991504704,0.624390244 C0.760833355,0.624390244 0.574,0.812318098 0.574,1.04434076 L0.574,21.2540495 C0.574,21.4860721 0.760833355,21.674 0.991504704,21.674 L31.2660438,21.674 C31.4967151,21.674 31.6835485,21.4850223 31.6835485,21.2540495 C31.6835485,21.0230767 31.4967151,20.834099 31.2660438,20.834099 Z" id="Path" stroke="#333333" stroke-width="0.5"></path>
                <path d="M4.83491466,19.1405458 C5.84701496,19.1405458 6.67111698,18.3164438 6.67111698,17.3043435 C6.67111698,17.2026184 6.65695273,17.1034686 6.64150082,17.0068941 L12.6201035,13.9422647 C12.943306,14.2255498 13.3617953,14.4032468 13.824065,14.4032468 C14.8361653,14.4032468 15.6602673,13.5791448 15.6602673,12.5670445 C15.6602673,12.2116505 15.5546793,11.8832973 15.3795576,11.6012999 L19.4137945,4.6389255 C19.5180949,4.65695273 19.623683,4.67111698 19.733134,4.67111698 C20.2520608,4.67111698 20.7194812,4.45221488 21.0542726,4.10454684 L26.2242251,6.90906904 C26.1997596,7.03010902 26.1855954,7.15372433 26.1855954,7.28249027 C26.1855954,8.29587822 27.0096974,9.11869259 28.0217977,9.11869259 C29.033898,9.11869259 29.858,8.29459056 29.858,7.28249027 C29.858,6.27038997 29.033898,5.44628795 28.0217977,5.44628795 C27.5080216,5.44628795 27.0444642,5.66003941 26.7109604,6.00126915 L21.5345696,3.19288398 C21.5577474,3.07699463 21.570624,2.95852996 21.570624,2.83620232 C21.570624,1.82410202 20.746522,1 19.7344217,1 C18.7223214,1 17.8982194,1.82410202 17.8982194,2.83620232 C17.8982194,3.36800566 18.1287104,3.84315198 18.4918304,4.17923109 L14.5927977,10.9059639 C14.3584437,10.7965128 14.0996241,10.7321298 13.824065,10.7321298 C12.8119647,10.7321298 11.9891503,11.5562319 11.9891503,12.5683322 C11.9891503,12.7421662 12.0213418,12.9082742 12.0664099,13.067944 L6.19210768,16.0784917 C5.85474091,15.7063581 5.37444395,15.4681411 4.83491466,15.4681411 C3.82281436,15.4681411 3,16.2922432 3,17.3043435 C3,18.3164438 3.82281436,19.1405458 4.83491466,19.1405458 Z M28.02051,6.47641548 C28.4647525,6.47641548 28.8252972,6.83824777 28.8252972,7.28249027 C28.8252972,7.72673276 28.4647525,8.0872774 28.02051,8.0872774 C27.5762675,8.0872774 27.2157229,7.72673276 27.2157229,7.28249027 C27.2157229,6.83824777 27.5762675,6.47641548 28.02051,6.47641548 Z M19.7318464,2.03012753 C20.1760889,2.03012753 20.5366335,2.39195982 20.5366335,2.83620232 C20.5366335,3.28044482 20.1760889,3.64098945 19.7318464,3.64098945 C19.2876039,3.64098945 18.9270593,3.27915716 18.9270593,2.83620232 C18.9270593,2.39195982 19.2888916,2.03012753 19.7318464,2.03012753 Z M13.8227774,11.7622574 C14.2670198,11.7622574 14.6288521,12.122802 14.6288521,12.5670445 C14.6288521,13.011287 14.2670198,13.3718316 13.8227774,13.3718316 C13.3785349,13.3718316 13.0179902,13.011287 13.0179902,12.5670445 C13.0179902,12.122802 13.3785349,11.7622574 13.8227774,11.7622574 Z M4.83491466,16.4995563 C5.16198015,16.4995563 5.44011458,16.6965682 5.56630521,16.9759903 C5.56630521,16.9759903 5.56630521,16.977278 5.56630521,16.977278 C5.56630521,16.9785656 5.56888053,16.9785656 5.56888053,16.9798533 C5.61266095,17.0790031 5.63970179,17.1884541 5.63970179,17.3043435 C5.63970179,17.748586 5.2778695,18.1091306 4.833627,18.1091306 C4.3893845,18.1091306 4.02883987,17.748586 4.02883987,17.3043435 C4.02883987,16.860101 4.39067216,16.4995563 4.83491466,16.4995563 Z" id="Shape" fill-rule="nonzero"></path>
            </g>
        </g>
    </g>
</svg>