<?xml version="1.0" encoding="UTF-8"?>
<svg width="40px" height="40px" viewBox="0 0 40 40" version="1.1" xmlns="http://www.w3.org/2000/svg" xmlns:xlink="http://www.w3.org/1999/xlink">
    <!-- Generator: sketchtool 52.2 (67145) - http://www.bohemiancoding.com/sketch -->
    <title>4E3EB0F5-8031-4F8F-9444-D0CFF2684DC0</title>
    <desc>Created with sketchtool.</desc>
    <g id="Page-1" stroke="none" stroke-width="1" fill="none" fill-rule="evenodd">
        <g id="01_Login-Screen" transform="translate(-379.000000, -498.000000)">
            <g id="Group-10" transform="translate(134.000000, 48.000000)">
                <g id="Group-14" transform="translate(0.000000, 66.000000)">
                    <g id="Group-7">
                        <g id="Group-4">
                            <g id="Group-2">
                                <g id="Group-16" transform="translate(25.000000, 384.000000)">
                                    <g id="Login_button" transform="translate(220.000000, 0.000000)">
                                        <path d="M20,0 C8.95296974,0 0,8.95296974 0,20 C0,31.0470303 8.95296974,40 20,40 C31.0470303,40 40,31.0470303 40,20 C40,8.95296974 31.0470303,0 20,0 Z" id="Path" fill="#db1f26"></path>
                                        <path d="M27.2457526,21.3404403 C27.5983546,21.6936324 27.5983546,22.2931254 27.2457526,22.6463802 L20.4301563,29.5198735 C20.3791144,29.5710009 20.3280725,29.6221282 20.2816594,29.6221282 L20.2306175,29.6732555 C20.1795756,29.6732555 20.1795756,29.7243829 20.1285337,29.7243829 C20.0774918,29.7243829 20.0774918,29.7243829 20.0264498,29.7755102 C19.9754079,29.7755102 19.9754079,29.7755102 19.924366,29.7755102 C19.8733241,29.7755102 19.8222822,29.7755102 19.7248897,29.7755102 C19.6738478,29.7755102 19.6228059,29.7755102 19.5254134,29.7755102 C19.4743715,29.7755102 19.4743715,29.7755102 19.4233296,29.7755102 C19.3722877,29.7755102 19.3722877,29.7755102 19.3212458,29.7243829 C19.2702039,29.7243829 19.2702039,29.6732555 19.219162,29.6732555 C19.219162,29.6732555 19.1681201,29.6732555 19.1681201,29.6221282 C19.1170782,29.5710009 19.0660363,29.5710009 19.0196231,29.5198735 L12.2644515,22.5951902 C11.9118495,22.2419981 11.9118495,21.642505 12.2644515,21.2892503 C12.6170535,20.9359955 13.215545,20.9360581 13.5682095,21.2892503 L18.8805715,26.6105028 L18.8805715,11.9016205 C18.8805715,11.3996829 19.2795866,11 19.7806855,11 C20.2817845,11 20.6807996,11.3996829 20.6807996,11.9016205 L20.6807996,26.6059289 L25.8957066,21.386931 C26.2946591,20.9871855 26.8977793,20.9871855 27.2457526,21.3404403 Z" id="Path" fill="#FFFFFF" transform="translate(19.755102, 20.387755) scale(-1, -1) rotate(90.000000) translate(-19.755102, -20.387755) "></path>
                                    </g>
                                </g>
                            </g>
                        </g>
                    </g>
                </g>
            </g>
        </g>
    </g>
</svg>