<?xml version="1.0" encoding="UTF-8"?>
<svg width="25px" height="27px" viewBox="0 0 25 27" version="1.1" xmlns="http://www.w3.org/2000/svg" xmlns:xlink="http://www.w3.org/1999/xlink">
    <!-- Generator: Sketch 52.2 (67145) - http://www.bohemiancoding.com/sketch -->
    <title>Logout</title>
    <desc>Created with Sketch.</desc>
    <g id="Page-1" stroke="none" stroke-width="1" fill="none" fill-rule="evenodd">
        <g id="13_Profile_dropdown" transform="translate(-1238.000000, -213.000000)" fill="#000000">
            <g id="Logout" transform="translate(1250.500000, 226.500000) rotate(-270.000000) translate(-1250.500000, -226.500000) translate(1237.000000, 214.000000)">
                <path d="M26.2264431,12.1151461 C25.7966893,12.1151461 25.4528862,12.4605846 25.4528862,12.8923826 L25.4528862,19.9623561 C25.4528862,21.8852967 23.8943124,23.445527 21.9862054,23.445527 L5.01379457,23.445527 C3.09995756,23.445527 1.54711375,21.8795394 1.54711375,19.9623561 L1.54711375,12.7772365 C1.54711375,12.3454384 1.2033107,12 0.773556876,12 C0.343803056,12 0,12.3454384 0,12.7772365 L0,19.9623561 C0,22.7431355 2.25191002,25 5.01379457,25 L21.9862054,25 C24.75382,25 27,22.7373782 27,19.9623561 L27,12.8923826 C27,12.4663419 26.6561969,12.1151461 26.2264431,12.1151461 Z" id="Path"></path>
                <path d="M12.9291467,19.2721139 C13.0862069,19.4202399 13.297634,19.5 13.5030204,19.5 C13.7084067,19.5 13.9198339,19.425937 14.076894,19.2721139 L19.2598792,14.383958 C19.5800403,14.082009 19.5800403,13.5977511 19.2598792,13.2958021 C18.9397181,12.9938531 18.4262522,12.9938531 18.1060911,13.2958021 L14.318525,16.8736132 L14.318525,1.26911544 C14.318525,0.841829085 13.9560785,0.5 13.5030204,0.5 C13.0499622,0.5 12.6875157,0.841829085 12.6875157,1.26911544 L12.6875157,16.8736132 L8.89390888,13.2958021 C8.5737478,12.9938531 8.0602819,12.9938531 7.74012082,13.2958021 C7.41995973,13.5977511 7.41995973,14.082009 7.74012082,14.383958 L12.9291467,19.2721139 Z" id="Path" transform="translate(13.500000, 10.000000) scale(-1, 1) rotate(-180.000000) translate(-13.500000, -10.000000) "></path>
            </g>
        </g>
    </g>
</svg>