<?xml version="1.0" encoding="UTF-8"?>
<svg width="28px" height="28px" viewBox="0 0 28 28" version="1.1" xmlns="http://www.w3.org/2000/svg" xmlns:xlink="http://www.w3.org/1999/xlink">
    <!-- Generator: Sketch 52.2 (67145) - http://www.bohemiancoding.com/sketch -->
    <title>Maintenance</title>
    <desc>Created with Sketch.</desc>
    <g id="Page-1" stroke="none" stroke-width="1" fill="none" fill-rule="evenodd">
        <g id="02_Dashboard#0" transform="translate(-19.000000, -133.000000)" fill="#333333">
            <g id="Maintenance" transform="translate(19.000000, 133.000000)">
                <path d="M20.6584323,7.29476217 C19.8043166,6.45262837 18.6693173,5.99432426 17.4655302,6.00005306 C16.261743,6.01151067 15.1382084,6.48700118 14.2955574,7.34059258 C13.4529064,8.19418398 12.9943208,9.32848665 13.0000531,10.5315349 C13.0000531,10.7205854 13.1548257,10.875263 13.3439923,10.875263 C13.5331588,10.875263 13.6879315,10.7205854 13.6879315,10.5315349 C13.6821991,9.5118083 14.0719969,8.55509847 14.7828045,7.8275407 C15.4936122,7.09998292 16.4509096,6.69896683 17.4712625,6.69323803 C18.4916154,6.68750923 19.4489128,7.07706772 20.1769174,7.78743909 C20.904922,8.49781046 21.3061844,9.45452028 21.3119167,10.4742469 C21.317649,11.4939736 20.9278513,12.4506834 20.2170437,13.1782412 C19.506236,13.9057989 18.5489386,14.306815 17.5285857,14.3125438 C17.3394191,14.3125438 17.1846465,14.4672215 17.1846465,14.6562719 C17.1846465,14.8453224 17.3394191,15 17.5285857,15 C18.7323728,14.9885424 19.8559075,14.5130519 20.6985585,13.6594605 C21.5412095,12.8058691 22.0112597,11.6658376 21.9997951,10.4627893 C21.9883305,9.25974104 21.5125479,8.13689597 20.6584323,7.29476217 Z" id="Path"></path>
                <path d="M27.2010891,12.3731838 L26.1162392,11.9440722 C26.2853824,10.9799642 26.2853824,10.0102833 26.1162392,9.05174816 L27.2010891,8.6226365 C27.510213,8.50560605 27.7610117,8.27154515 27.8893273,7.96503682 C28.0234754,7.65852849 28.0234754,7.32415578 27.8893273,7.01764745 L27.2827445,5.61328203 C27.1485964,5.3067737 26.9036303,5.0727128 26.5828413,4.94453659 C26.2620523,4.81636038 25.9121007,4.81636038 25.5913118,4.94453659 L24.5064618,5.37364825 C23.9173766,4.58229948 23.1999758,3.8968354 22.3659245,3.32840178 L22.8150291,2.29184635 C23.0891578,1.66211106 22.7742014,0.937636834 22.1151259,0.675711537 L20.6511617,0.0961321568 C19.9920862,-0.16579314 19.2338577,0.135142307 18.959729,0.764877596 L18.5106244,1.80143303 C17.5015973,1.63981954 16.4867377,1.63981954 15.4835431,1.80143303 L15.0344385,0.764877596 C14.9002904,0.45836927 14.6553243,0.224308366 14.3345353,0.0961321568 C14.0137463,-0.0320440523 13.6637947,-0.0320440523 13.3430058,0.0961321568 L11.8790416,0.675711537 C11.5582526,0.803887746 11.3132865,1.03794865 11.1791384,1.34445698 C11.0449903,1.6509653 11.0449903,1.98533802 11.1791384,2.29184635 L11.6282429,3.32840178 C10.8000242,3.89126252 10.0826234,4.5767266 9.48770566,5.37364825 L8.4028557,4.94453659 C8.08206673,4.81636038 7.73211513,4.81636038 7.41132617,4.94453659 C7.0905372,5.0727128 6.84557108,5.3067737 6.71142297,5.61328203 L6.09900767,7.01207457 C5.82487891,7.64180986 6.13983535,8.36628408 6.79891087,8.62820938 L8.14622453,9.16320573 C8.32703285,9.23565315 8.53117128,9.15205997 8.6011616,8.98487362 C8.67698445,8.81211438 8.58949655,8.61706362 8.41452075,8.55018908 L7.06720709,8.01519273 C6.76391571,7.8925894 6.61810254,7.56378956 6.74641813,7.27399987 L7.3530009,5.87520732 C7.47548396,5.58541763 7.82543556,5.44609567 8.12872695,5.568699 L9.4760406,6.10369535 C9.6276863,6.16499701 9.80849462,6.11484111 9.90181505,5.98109202 C10.5258954,5.08943143 11.319119,4.33151994 12.2464908,3.7407948 C12.3864714,3.65162874 12.4389641,3.48444238 12.3748064,3.33397466 L11.8148838,2.04663969 C11.7565585,1.90731772 11.7565585,1.75127712 11.8148838,1.61195515 C11.8732091,1.47263319 11.9898596,1.36117561 12.1356728,1.30544683 L13.6054695,0.725867445 C13.7512826,0.670138659 13.9145934,0.670138659 14.0604066,0.725867445 C14.2062197,0.781596232 14.3228703,0.893053805 14.3811955,1.03237577 L14.9411181,2.31971074 C15.0052759,2.46460559 15.1685866,2.54819877 15.3318974,2.52033437 C16.4342449,2.30856498 17.5482575,2.30856498 18.650605,2.52033437 C18.8139158,2.55377164 18.9772265,2.47017846 19.0413843,2.31971074 L19.6013069,1.03237577 C19.7296225,0.742586081 20.0737416,0.603264115 20.3770329,0.725867445 L21.8409971,1.30544683 C22.1442885,1.42805016 22.2901017,1.75685 22.1617861,2.04663969 L21.6135286,3.3228289 C21.5493708,3.46772374 21.6018635,3.64048298 21.7418442,3.72964904 C22.6750484,4.32594706 23.4682721,5.08385856 24.0865199,5.96994626 C24.1798403,6.10369535 24.3548161,6.15385126 24.5122943,6.09254959 L25.859608,5.55755324 C26.0054212,5.50182445 26.1687319,5.50182445 26.3145451,5.55755324 C26.4603582,5.61328203 26.5770088,5.7247396 26.635334,5.86406157 L27.2419168,7.26842699 C27.3002421,7.40774896 27.3002421,7.56378956 27.2419168,7.70311152 C27.1835916,7.84243349 27.066941,7.95389106 26.9211279,8.00961985 L25.5738142,8.5446162 C25.4221685,8.60591787 25.3346806,8.76195847 25.3638432,8.91799907 C25.5854792,9.97127314 25.5796467,11.035693 25.3638432,12.088967 C25.3288481,12.2450076 25.416336,12.4010482 25.5738142,12.4623499 L26.9211279,12.9973462 C27.2244192,13.1199496 27.3702324,13.4487494 27.2419168,13.7385391 L26.635334,15.1373317 C26.5070185,15.4271213 26.1628994,15.5664433 25.859608,15.44384 L24.5122943,14.9088436 C24.3606486,14.847542 24.1798403,14.8976979 24.0865199,15.031447 C23.4624395,15.9231075 22.6692159,16.681019 21.7418442,17.2717442 C21.6018635,17.3609102 21.5493708,17.5280966 21.6135286,17.6785643 L22.1734512,18.9658993 C22.2317764,19.1052213 22.2317764,19.2612619 22.1734512,19.4005838 C22.1151259,19.5399058 21.9984754,19.6513634 21.8526622,19.7070922 L20.3828655,20.2866715 C20.2370523,20.3424003 20.0737416,20.3424003 19.9279284,20.2866715 C19.7821152,20.2309427 19.6654647,20.1194852 19.6071394,19.9801632 L19.0472169,18.6928282 C18.971394,18.520069 18.7672556,18.4420487 18.5922798,18.5144961 C18.4114715,18.5869435 18.3298161,18.7819943 18.4056389,18.9491807 L18.9655615,20.2365156 C19.0997096,20.543024 19.3446757,20.7770849 19.6654647,20.9052611 C19.8229429,20.9665627 19.9920862,21 20.1612295,21 C20.3303727,21 20.499516,20.9665627 20.6569942,20.9052611 L22.1267909,20.3256817 C22.4475799,20.1975055 22.692546,19.9634446 22.8266941,19.6569362 C22.9608422,19.3504279 22.9608422,19.0160552 22.8266941,18.7095469 L22.3775896,17.6729914 C23.2058084,17.1101307 23.9232091,16.4246666 24.5181269,15.627745 L25.6029768,16.0568566 C25.9237658,16.1850328 26.2737174,16.1850328 26.5945064,16.0568566 C26.9152953,15.9286804 27.1602614,15.6946195 27.2944096,15.3881112 L27.9009923,13.9893186 C28.1751211,13.3595834 27.8601646,12.6351091 27.2010891,12.3731838 Z" id="Path"></path>
                <path d="M8,17 C6.34519573,17 5,18.3505338 5,20.0053381 C5,21.6601423 6.34519573,23 8,23 C9.65480427,23 11,21.6548043 11,20 C11,18.3451957 9.65480427,17 8,17 Z M8,22.3647687 C6.6975089,22.3647687 5.6405694,21.3078292 5.6405694,20.0053381 C5.6405694,18.702847 6.6975089,17.6459075 8,17.6459075 C9.3024911,17.6459075 10.3594306,18.702847 10.3594306,20.0053381 C10.3594306,21.3078292 9.3024911,22.3647687 8,22.3647687 Z" id="Shape" fill-rule="nonzero"></path>
                <path d="M15.0152144,17.8704663 L14.2793914,17.8704663 C14.1244813,17.1834197 13.8699862,16.5374784 13.5214385,15.9326425 L14.0414938,15.3806563 C14.2295989,15.1810017 14.329184,14.9226252 14.329184,14.6407599 C14.329184,14.3647668 14.2295989,14.1005181 14.0414938,13.9008636 L13.2669433,13.0787565 C13.0788382,12.8791019 12.835408,12.7734024 12.5698479,12.7734024 C12.3042877,12.7734024 12.0608575,12.8791019 11.8727524,13.0787565 L11.3526971,13.6307427 C10.7828492,13.2607945 10.1742739,12.9965458 9.52697095,12.8262522 L9.52697095,12.0452504 C9.52697095,11.4697755 9.08437068,11 8.54218534,11 L7.44674965,11 C6.90456432,11 6.46196404,11.4697755 6.46196404,12.0452504 L6.46196404,12.8262522 C5.81466113,12.9906736 5.20608575,13.2607945 4.6362379,13.6307427 L4.11618257,13.0787565 C3.92807746,12.8791019 3.6846473,12.7734024 3.41908714,12.7734024 C3.15905947,12.7734024 2.91009682,12.8791019 2.7219917,13.0787565 L1.94744122,13.9008636 C1.7593361,14.1005181 1.65975104,14.3588946 1.65975104,14.6407599 C1.65975104,14.916753 1.7593361,15.1810017 1.94744122,15.3806563 L2.46749654,15.9326425 C2.11894882,16.5374784 1.86998617,17.1834197 1.70954357,17.8704663 L0.984785615,17.8704663 C0.442600277,17.8704663 0,18.3402418 0,18.9157168 L0,20.0784111 C0.00553250346,20.6656304 0.442600277,21.1295337 0.984785615,21.1295337 L1.72060858,21.1295337 C1.87551867,21.8165803 2.13001383,22.4625216 2.47856155,23.0673575 L1.95850622,23.6193437 C1.77040111,23.8189983 1.67081604,24.0773748 1.67081604,24.3592401 C1.67081604,24.6352332 1.77040111,24.8994819 1.95850622,25.0991364 L2.73305671,25.9212435 C2.92116183,26.1208981 3.16459198,26.2265976 3.43015214,26.2265976 C3.69017981,26.2265976 3.93914246,26.1208981 4.12724758,25.9212435 L4.6473029,25.3692573 C5.21715076,25.7392055 5.82572614,26.0034542 6.47302905,26.1737478 L6.47302905,26.9547496 C6.47302905,27.5302245 6.91562932,28 7.45781466,28 L8.55325035,28 C9.09543568,28 9.53803596,27.5302245 9.53803596,26.9547496 L9.53803596,26.1678756 C10.1853389,26.0034542 10.7939142,25.7333333 11.3637621,25.3633851 L11.8838174,25.9153713 C12.0719225,26.1150259 12.3153527,26.2207254 12.5809129,26.2207254 C12.846473,26.2207254 13.0899032,26.1150259 13.2780083,25.9153713 L14.0525588,25.0932642 C14.2406639,24.8936097 14.340249,24.6352332 14.340249,24.3533679 C14.340249,24.0773748 14.2406639,23.8131261 14.0525588,23.6134715 L13.5325035,23.0614853 C13.8810512,22.4566494 14.1300138,21.8107081 14.2904564,21.1236615 L15.0152144,21.1236615 C15.5573997,21.1236615 16,20.653886 16,20.0784111 L16,18.9157168 C16,18.3402418 15.5573997,17.8704663 15.0152144,17.8704663 Z M15.3360996,20.0901554 C15.3360996,20.2780656 15.1922545,20.4307427 15.0152144,20.4307427 L14.0082988,20.4307427 C13.8478562,20.4307427 13.7150761,20.5481865 13.6818811,20.7126079 C13.5325035,21.5053541 13.2448133,22.2511226 12.8188105,22.9205527 C12.7302905,23.0614853 12.746888,23.2493955 12.857538,23.3668394 L13.571231,24.1243523 C13.6320885,24.1889465 13.6652835,24.2711572 13.6652835,24.3651123 C13.6652835,24.4531952 13.6320885,24.5412781 13.571231,24.6058722 L12.7966805,25.4279793 C12.735823,25.4925734 12.6583679,25.5278066 12.5698479,25.5278066 C12.4813278,25.5278066 12.4038728,25.4925734 12.3430152,25.4279793 L11.6293223,24.6704663 C11.5186722,24.5530225 11.3416321,24.5354059 11.208852,24.629361 C10.5726141,25.0815199 9.87551867,25.3868739 9.12863071,25.5454231 C8.97372061,25.5806563 8.86307054,25.7215889 8.86307054,25.8918826 L8.86307054,26.9606218 C8.86307054,27.148532 8.71922545,27.301209 8.54218534,27.301209 L7.44674965,27.301209 C7.26970954,27.301209 7.12586445,27.148532 7.12586445,26.9606218 L7.12586445,25.8918826 C7.12586445,25.7215889 7.01521438,25.5806563 6.86030429,25.5454231 C6.11341632,25.3868739 5.41078838,25.0815199 4.78008299,24.629361 C4.72475795,24.5882556 4.65836791,24.570639 4.59751037,24.570639 C4.51452282,24.570639 4.42600277,24.6058722 4.36514523,24.6763385 L3.65145228,25.4338515 C3.59059474,25.4984456 3.5131397,25.5336788 3.42461964,25.5336788 C3.34163209,25.5336788 3.25864454,25.4984456 3.197787,25.4338515 L2.42323651,24.6117444 C2.36237898,24.5471503 2.32918396,24.4649396 2.32918396,24.3709845 C2.32918396,24.2829016 2.36237898,24.1948187 2.42323651,24.1302245 L3.13692946,23.3727116 C3.24757953,23.2552677 3.26417704,23.0673575 3.17565698,22.9264249 C2.74965422,22.2511226 2.46196404,21.5112263 2.31258645,20.7184801 C2.27939142,20.5540587 2.14661134,20.4366149 1.98616874,20.4366149 L0.984785615,20.4366149 C0.807745505,20.4366149 0.663900415,20.2839378 0.663900415,20.0960276 L0.663900415,18.9274611 L0.669432918,18.9274611 C0.669432918,18.7395509 0.813278008,18.5868739 0.990318119,18.5868739 L1.99723375,18.5868739 C2.15767635,18.5868739 2.29045643,18.4694301 2.32365145,18.3050086 C2.47302905,17.5122625 2.76071923,16.766494 3.18672199,16.0970639 C3.27524205,15.9561313 3.25864454,15.7682211 3.14799447,15.6507772 L2.42876902,14.8932642 C2.36791148,14.8286701 2.33471646,14.7464594 2.33471646,14.6525043 C2.33471646,14.5644214 2.36791148,14.4763385 2.42876902,14.4117444 L3.2033195,13.5896373 C3.26417704,13.5250432 3.34163209,13.48981 3.43015214,13.48981 C3.5131397,13.48981 3.59612725,13.5250432 3.65698479,13.5896373 L4.37067773,14.3471503 C4.4813278,14.4645941 4.65836791,14.4822107 4.79114799,14.3882556 C5.42738589,13.9360967 6.12448133,13.6307427 6.87136929,13.4721934 C7.02627939,13.4369603 7.13692946,13.2960276 7.13692946,13.125734 L7.13692946,12.0569948 C7.13692946,11.8690846 7.28077455,11.7164076 7.45781466,11.7164076 L8.55325035,11.7164076 C8.73029046,11.7164076 8.87413555,11.8690846 8.87413555,12.0569948 L8.87413555,13.1316062 C8.87413555,13.3018998 8.98478562,13.4428325 9.13969571,13.4780656 C9.88658368,13.6366149 10.5892116,13.9419689 11.219917,14.3941278 C11.3526971,14.4880829 11.5297372,14.4704663 11.6403873,14.3530225 L12.3540802,13.5955095 C12.4149378,13.5309154 12.4923928,13.4956822 12.5809129,13.4956822 C12.6694329,13.4956822 12.746888,13.5309154 12.8077455,13.5955095 L13.582296,14.4176166 C13.6431535,14.4822107 13.6763485,14.5644214 13.6763485,14.6583765 C13.6763485,14.7464594 13.6431535,14.8345423 13.582296,14.8991364 L12.857538,15.6507772 C12.746888,15.7682211 12.7302905,15.9561313 12.8188105,16.0970639 C13.2448133,16.7723661 13.5325035,17.5122625 13.6818811,18.3050086 C13.7150761,18.4694301 13.8478562,18.5868739 14.0082988,18.5868739 L15.0152144,18.5868739 C15.1922545,18.5868739 15.3360996,18.7395509 15.3360996,18.9274611 L15.3360996,20.0901554 Z" id="Shape" fill-rule="nonzero"></path>
            </g>
        </g>
    </g>
</svg>