<?xml version="1.0" encoding="UTF-8"?>
<svg width="23px" height="18px" viewBox="0 0 23 18" version="1.1" xmlns="http://www.w3.org/2000/svg" xmlns:xlink="http://www.w3.org/1999/xlink">
    <!-- Generator: Sketch 52 (66869) - http://www.bohemiancoding.com/sketch -->
    <title>Burger_Menu</title>
    <desc>Created with Sketch.</desc>
    <g id="New-Option" stroke="none" stroke-width="1" fill="none" fill-rule="evenodd">
        <g id="01_DGFT---Login" transform="translate(-1284.000000, -31.000000)" fill="#404040">
            <g id="Group-3" transform="translate(134.000000, 24.000000)">
                <path d="M1151.32194,10.0736821 L1171.47947,10.0736821 C1172.20993,10.0736821 1172.80141,9.38673248 1172.80141,8.53701876 C1172.80141,7.68943731 1172.20993,7 1171.47947,7 L1151.32194,7 C1150.59148,7 1150,7.68943731 1150,8.53701876 C1150,9.38708786 1150.59148,10.0736821 1151.32194,10.0736821 L1151.32194,10.0736821 Z M1171.47947,14.4628036 L1151.32194,14.4628036 C1150.59148,14.4628036 1150,15.1525962 1150,15.9998223 C1150,16.8502468 1150.59148,17.5368411 1151.32194,17.5368411 L1171.47947,17.5368411 C1172.20993,17.5368411 1172.80141,16.8498914 1172.80141,15.9998223 C1172.80141,15.1525962 1172.20993,14.4628036 1171.47947,14.4628036 L1171.47947,14.4628036 Z M1171.47947,21.9259625 L1151.32194,21.9259625 C1150.59148,21.9259625 1150,22.6157552 1150,23.4629812 C1150,24.3134057 1150.59148,25 1151.32194,25 L1171.47947,25 C1172.20993,25 1172.80141,24.3123396 1172.80141,23.4629812 C1172.80141,22.6157552 1172.20993,21.9259625 1171.47947,21.9259625 L1171.47947,21.9259625 Z" id="Burger_Menu"></path>
            </g>
        </g>
    </g>
</svg>