<?xml version="1.0" encoding="UTF-8"?>
<svg width="23px" height="25px" viewBox="0 0 23 25" version="1.1" xmlns="http://www.w3.org/2000/svg" xmlns:xlink="http://www.w3.org/1999/xlink">
    <!-- Generator: Sketch 52.2 (67145) - http://www.bohemiancoding.com/sketch -->
    <title>Shape</title>
    <desc>Created with Sketch.</desc>
    <g id="Symbols" stroke="none" stroke-width="1" fill="none" fill-rule="evenodd">
        <g id="Header-Bar" transform="translate(-1173.000000, -18.000000)" fill="#0F81CE" fill-rule="nonzero" stroke="#0F81CE" stroke-width="0.3">
            <g id="Group-3">
                <path d="M1182.35714,21.110452 C1182.35714,19.9455905 1183.31798,19 1184.5,19 C1185.6843,19 1186.64286,19.9432311 1186.64286,21.110452 L1186.64286,21.8205349 C1190.033,22.7545899 1192.42857,25.81138 1192.42857,29.3391328 L1192.42857,34.402934 C1192.42857,34.7548487 1192.71494,35.0366972 1193.07053,35.0366972 C1194.1337,35.0366972 1195,35.8880746 1195,36.9357798 C1195,37.9834524 1194.1339,38.8348624 1193.06719,38.8348624 L1175.93281,38.8348624 C1174.86511,38.8348624 1174,37.9849009 1174,36.9357798 C1174,35.8881993 1174.8645,35.0366972 1175.92947,35.0366972 C1176.28293,35.0366972 1176.57143,34.7524318 1176.57143,34.402934 L1176.57143,29.3391328 C1176.57143,25.8106046 1178.96689,22.7544368 1182.35714,21.8204969 L1182.35714,21.110452 Z M1182.62482,22.1866711 C1179.338,23.0193129 1177,25.9487706 1177,29.3391328 L1177,34.402934 C1177,34.9854481 1176.51968,35.4587156 1175.92947,35.4587156 C1175.10122,35.4587156 1174.42857,36.1212496 1174.42857,36.9357798 C1174.42857,37.7516132 1175.10159,38.412844 1175.93281,38.412844 L1193.06719,38.412844 C1193.89737,38.412844 1194.57143,37.7502179 1194.57143,36.9357798 C1194.57143,36.1213353 1193.89719,35.4587156 1193.07053,35.4587156 C1192.47829,35.4587156 1192,34.9879689 1192,34.402934 L1192,29.3391328 C1192,25.9495423 1189.66188,23.0194357 1186.37518,22.1867009 L1186.21429,22.1459371 L1186.21429,21.110452 C1186.21429,20.1763723 1185.44767,19.4220183 1184.5,19.4220183 C1183.55462,19.4220183 1182.78571,20.1787202 1182.78571,21.110452 L1182.78571,22.1459116 L1182.62482,22.1866711 Z M1181.28571,38.8348624 L1181.71429,38.8348624 C1181.71429,40.3498453 1182.96149,41.5779817 1184.5,41.5779817 C1186.03851,41.5779817 1187.28571,40.3498453 1187.28571,38.8348624 L1187.71429,38.8348624 C1187.71429,40.5829196 1186.2752,42 1184.5,42 C1182.7248,42 1181.28571,40.5829196 1181.28571,38.8348624 Z" id="Shape"></path>
            </g>
        </g>
    </g>
</svg>