<?xml version="1.0" encoding="UTF-8"?>
<svg width="35px" height="41px" viewBox="0 0 35 41" version="1.1" xmlns="http://www.w3.org/2000/svg" xmlns:xlink="http://www.w3.org/1999/xlink">
    <!-- Generator: Sketch 52 (66869) - http://www.bohemiancoding.com/sketch -->
    <title>Offers_upodates</title>
    <desc>Created with Sketch.</desc>
    <g id="New-Option" stroke="none" stroke-width="1" fill="none" fill-rule="evenodd">
        <g id="03_DGFT---Personal-Details" transform="translate(-168.000000, -440.000000)" fill="#000000" fill-rule="nonzero">
            <g id="Offers_upodates" transform="translate(168.000000, 440.000000)">
                <path d="M34.7866736,33.4389091 C31.4127726,30.0709091 29.7026536,26.0847273 29.7026536,21.5909091 L29.7026536,15.0498182 C29.7337862,10.0629091 26.3953618,6.75527273 23.5268218,5.43818182 C22.705067,5.06072727 21.8579716,4.76981818 20.9971201,4.55381818 L20.9971201,4.13636364 C20.9971201,2.13127273 19.3731587,0.5 17.3770546,0.5 C15.3809504,0.5 13.756989,2.13127273 13.756989,4.13636364 L13.756989,4.61709091 C12.981571,4.82727273 12.2191852,5.10145455 11.4792438,5.44472727 C8.30879045,6.91236364 5.09706833,10.4498182 5.06810781,15.0454545 L5.06810781,21.5909091 C5.06810781,26.2367273 3.43473425,30.2229091 0.213599957,33.4389091 C0.0217364847,33.6309091 -0.0477687731,33.9138182 0.0333206944,34.1734545 C0.114410162,34.4330909 0.333786132,34.6250909 0.600946966,34.6716364 L7.47255532,35.8636364 C8.75261048,36.0854545 9.93130381,36.2672727 11.0528001,36.4170909 C12.316927,38.9043636 14.7981199,40.5 17.5088249,40.5 C20.220254,40.5 22.7021709,38.9029091 23.9648498,36.4141818 C25.082002,36.2650909 26.2549032,36.084 27.5277182,35.8629091 L34.3986026,34.6709091 C34.6657634,34.6250909 34.8844154,34.4323636 34.9662289,34.1727273 C35.0480423,33.9138182 34.9785371,33.6309091 34.7866736,33.4389091 Z M15.2042912,4.13636364 C15.2042912,2.93345455 16.1788129,1.95454545 17.3763305,1.95454545 C18.5738482,1.95454545 19.5483698,2.93345455 19.5483698,4.13636364 L19.5483698,4.26872727 C18.1054117,4.06072727 16.6414572,4.06945455 15.2042912,4.30290909 L15.2042912,4.13636364 Z M17.5088249,39.0454545 C15.6756238,39.0454545 13.9626088,38.1305455 12.8628329,36.6345455 C14.4810021,36.8018182 15.9912935,36.8861818 17.5008608,36.8861818 C19.0162202,36.8861818 20.5315796,36.8018182 22.156265,36.6323636 C21.0557651,38.1298182 19.3420261,39.0454545 17.5088249,39.0454545 Z M27.2815538,34.4294545 C25.8921727,34.6701818 24.6186336,34.8658182 23.4153238,35.02 C23.4138758,35.02 23.4124278,35.02 23.4109797,35.02 C22.8810022,35.0876364 22.3655048,35.1465455 21.8608677,35.1974545 C21.8557996,35.1981818 21.8500075,35.1981818 21.8449394,35.1989091 C21.3837431,35.2454545 20.9326829,35.2825455 20.4866908,35.3152727 C20.4019813,35.3218182 20.3179958,35.3269091 20.2332862,35.3327273 C19.8466632,35.3581818 19.4643843,35.3785455 19.0842775,35.3930909 C19.006084,35.396 18.9278906,35.4003636 18.8496972,35.4025455 C17.9490249,35.4330909 17.0606608,35.4330909 16.1607125,35.4032727 C16.0810711,35.4003636 15.9999816,35.3967273 15.9203402,35.3930909 C15.5453014,35.3785455 15.1673666,35.3589091 14.7858117,35.3334545 C14.696034,35.3276364 14.6062564,35.3218182 14.5157548,35.3152727 C14.0813469,35.284 13.641871,35.2469091 13.1922588,35.2025455 C13.1763305,35.2010909 13.1611263,35.1996364 13.145922,35.1981818 C12.6449049,35.148 12.1330277,35.0890909 11.6066701,35.0221818 C11.6044981,35.0221818 11.6023261,35.0221818 11.600154,35.0221818 C10.3925002,34.8687273 9.11461703,34.6716364 7.71871977,34.4301818 L2.1720554,33.4672727 C5.05579958,30.1552727 6.51613401,26.1669091 6.51613401,21.5909091 L6.51613401,15.0498182 C6.54075046,11.0970909 9.33109695,8.04109091 12.0845188,6.76545455 C12.9033776,6.38654545 13.752645,6.10363636 14.6163926,5.90509091 C14.6236327,5.90363636 14.6315969,5.90436364 14.638837,5.90290909 C16.4228053,5.5 18.3218917,5.48181818 20.1268563,5.85345455 C20.1362685,5.85563636 20.1456807,5.85127273 20.1550928,5.85272727 C21.0992059,6.05054545 22.0288387,6.35018182 22.9244429,6.76109091 C25.5953273,7.988 28.2792438,11.0236364 28.2539034,15.0461818 L28.2539034,21.5916364 C28.2539034,25.9792727 29.8286319,30.0592727 32.8245981,33.4687273 L27.2815538,34.4294545 Z" id="Shape"></path>
                <path d="M21.6004326,9.46717694 C18.9492605,8.17809294 15.7028575,8.17663717 13.069474,9.46863271 C11.5677133,10.2052521 9.02053554,12.3605191 9.00001034,15.7677479 C8.99795782,16.1695403 9.30173083,16.4970885 9.68007874,16.5 C9.68144708,16.5 9.68281543,16.5 9.68418378,16.5 C10.059795,16.5 10.3663047,16.177547 10.3683572,15.7764825 C10.3840932,13.10005 12.4338768,11.3836977 13.6421271,10.7904715 C15.9211088,9.67171258 18.7364825,9.67462412 21.0305161,10.7904715 C21.3739711,10.957885 21.7803702,10.7970225 21.9377301,10.4316243 C22.09509,10.0654983 21.9438876,9.63386257 21.6004326,9.46717694 Z" id="Shape"></path>
            </g>
        </g>
    </g>
</svg>