<?xml version="1.0" encoding="UTF-8"?>
<svg width="22px" height="13px" viewBox="0 0 22 13" version="1.1" xmlns="http://www.w3.org/2000/svg" xmlns:xlink="http://www.w3.org/1999/xlink">
    <!-- Generator: Sketch 52 (66869) - http://www.bohemiancoding.com/sketch -->
    <title>Password_View</title>
    <desc>Created with Sketch.</desc>
    <g id="New-Option" stroke="none" stroke-width="1" fill="none" fill-rule="evenodd" opacity="1">
        <g id="01_DGFT---Login" transform="translate(-391.000000, -344.000000)" fill="#4E4E4E" fill-rule="nonzero">
            <g id="Group-4" transform="translate(134.000000, 91.000000)">
                <g id="Group-2">
                    <g id="Group-9" transform="translate(25.000000, 119.000000)">
                        <path d="M253.791796,140.218838 C251.83105,136.441011 247.582718,134 242.96875,134 C238.354782,134 234.10645,136.441011 232.145704,140.218838 L232,140.5 L232.14601,140.781162 C234.10645,144.558989 238.354782,147 242.96875,147 C247.582718,147 251.83105,144.558989 253.791796,140.781162 L253.9375,140.5 L253.791796,140.218838 Z M242.96875,145.778884 C238.922632,145.778884 235.197857,143.71703 233.38251,140.5 C235.197857,137.28297 238.922632,135.221116 242.96875,135.221116 C247.014868,135.221116 250.739643,137.28297 252.55499,140.5 C250.739643,143.71703 247.014868,145.778884 242.96875,145.778884 Z M242.96875,137.168185 C241.130494,137.168185 239.634964,138.662831 239.634964,140.5 C239.634964,142.337169 241.130494,143.831815 242.96875,143.831815 C244.807006,143.831815 246.302536,142.337169 246.302536,140.5 C246.302536,138.662831 244.807006,137.168185 242.96875,137.168185 Z M242.96875,142.610699 C241.804032,142.610699 240.856802,141.663723 240.856802,140.5 C240.856802,139.336277 241.804338,138.389301 242.96875,138.389301 C244.133162,138.389301 245.080698,139.336277 245.080698,140.5 C245.080698,141.663723 244.133468,142.610699 242.96875,142.610699 Z" id="Password_View"></path>
                    </g>
                </g>
            </g>
        </g>
    </g>
</svg>