<?xml version="1.0" encoding="UTF-8"?>
<svg width="22px" height="22px" viewBox="0 0 22 22" version="1.1" xmlns="http://www.w3.org/2000/svg" xmlns:xlink="http://www.w3.org/1999/xlink">
    <!-- Generator: Sketch 53.2 (72643) - https://sketchapp.com -->
    <title>942799</title>
    <desc>Created with Sketch.</desc>
    <g id="Page-2-Copy" stroke="none" stroke-width="1" fill="none" fill-rule="evenodd">
        <g id="General-Details-Copy" transform="translate(-20.000000, -86.000000)" fill="#CC9933">
            <g id="Group-15" transform="translate(20.000000, 86.000000)">
                <g id="Group-13">
                    <g id="942799">
                        <path d="M17.6452156,6.39160156 C17.8805704,6.39160156 18.0714286,6.19923047 18.0714286,5.96191406 L18.0714286,1.2890625 C18.0714286,0.578273437 17.4978312,0 16.7927898,0 L1.27863881,0 C0.573597372,0 0,0.578273438 0,1.2890625 L0,20.7109375 C0,21.4217266 0.573597372,22 1.27863881,22 L16.7927898,22 C17.4978312,22 18.0714286,21.4217266 18.0714286,20.7109375 L18.0714286,17.5453438 C18.0714286,17.3080273 17.8805704,17.1156563 17.6452156,17.1156563 C17.4098608,17.1156563 17.2190027,17.3080273 17.2190027,17.5453438 L17.2190027,20.7109375 C17.2190027,20.9478672 17.0278036,21.140625 16.7927898,21.140625 L1.27863881,21.140625 C1.043625,21.140625 0.852425876,20.9478672 0.852425876,20.7109375 L0.852425876,1.2890625 C0.852425876,1.05213281 1.043625,0.859375 1.27863881,0.859375 L16.7927898,0.859375 C17.0278036,0.859375 17.2190027,1.05213281 17.2190027,1.2890625 L17.2190027,5.96191406 C17.2190027,6.19923047 17.4098608,6.39160156 17.6452156,6.39160156 Z" id="Path"></path>
                        <path d="M9.42857143,2.35714286 C7.2623486,2.35714286 5.5,4.11950104 5.5,6.28573564 C5.5,7.40952668 5.9744177,8.42447009 6.73331522,9.14118206 C6.74753494,9.156384 6.7626514,9.17077461 6.77917702,9.18388415 C7.47824922,9.82351884 8.40859472,10.2142857 9.42852873,10.2142857 C10.4484627,10.2142857 11.3788082,9.82347614 12.0778804,9.18388415 C12.0944061,9.17077461 12.1095225,9.1563413 12.1237422,9.14118206 C12.8827252,8.42447009 13.3571429,7.40952668 13.3571429,6.28573564 C13.3571429,4.11950104 11.5947943,2.35714286 9.42857143,2.35714286 Z M9.42857143,9.36028651 C8.7312927,9.36028651 8.08777562,9.12662064 7.57142469,8.73393217 C7.94673137,8.06842001 8.64708463,7.65220269 9.42857143,7.65220269 C10.2100582,7.65220269 10.9104115,8.06842001 11.2857182,8.73393217 C10.7693245,9.12662064 10.1258502,9.36028651 9.42857143,9.36028651 Z M8.74534161,6.11492726 L8.74534161,5.83736363 C8.74534161,5.46064575 9.05185559,5.15413011 9.42857143,5.15413011 C9.80528727,5.15413011 10.1118012,5.46064575 10.1118012,5.83736363 L10.1118012,6.11492726 C10.1118012,6.49164514 9.80528727,6.79816078 9.42857143,6.79816078 C9.05185559,6.79816078 8.74534161,6.49164514 8.74534161,6.11492726 Z M11.9027174,8.10838918 C11.5877911,7.64131366 11.1513354,7.27804693 10.6445924,7.05377553 C10.8457182,6.79384787 10.9658385,6.46824439 10.9658385,6.11492726 L10.9658385,5.83736363 C10.9658385,4.98968434 10.2762461,4.3000882 9.42857143,4.3000882 C8.58089674,4.3000882 7.89130435,4.98968434 7.89130435,5.83736363 L7.89130435,6.11492726 C7.89130435,6.46824439 8.01142469,6.79384787 8.21255047,7.05377553 C7.70580745,7.27804693 7.26935171,7.64131366 6.95442547,8.10838918 C6.57741071,7.59797103 6.35403727,6.96755999 6.35403727,6.28573564 C6.35403727,4.59041975 7.73326475,3.21118477 9.42857143,3.21118477 C11.1238781,3.21118477 12.5031056,4.59041975 12.5031056,6.28573564 C12.5031056,6.96755999 12.2797321,7.59797103 11.9027174,8.10838918 Z" id="Shape" fill-rule="nonzero"></path>
                        <path d="M11.3610039,18.8571429 L9.06756757,18.8571429 C8.83304247,18.8571429 8.64285714,19.033025 8.64285714,19.25 C8.64285714,19.466975 8.83304247,19.6428571 9.06756757,19.6428571 L11.3610039,19.6428571 C11.595529,19.6428571 11.7857143,19.466975 11.7857143,19.25 C11.7857143,19.033025 11.595529,18.8571429 11.3610039,18.8571429 Z" id="Path"></path>
                        <path d="M11.3492063,16.5 L5.15079365,16.5 C4.90975397,16.5 4.71428571,16.6758821 4.71428571,16.8928571 C4.71428571,17.1098321 4.90975397,17.2857143 5.15079365,17.2857143 L11.3492063,17.2857143 C11.590246,17.2857143 11.7857143,17.1098321 11.7857143,16.8928571 C11.7857143,16.6758821 11.590246,16.5 11.3492063,16.5 Z" id="Path"></path>
                        <path d="M11.3492063,14.1428571 L5.15079365,14.1428571 C4.90975397,14.1428571 4.71428571,14.3187393 4.71428571,14.5357143 C4.71428571,14.7526893 4.90975397,14.9285714 5.15079365,14.9285714 L11.3492063,14.9285714 C11.590246,14.9285714 11.7857143,14.7526893 11.7857143,14.5357143 C11.7857143,14.3187393 11.590246,14.1428571 11.3492063,14.1428571 Z" id="Path"></path>
                        <path d="M3.81348254,11.9008214 C3.7404869,11.82775 3.63918041,11.7857143 3.53551796,11.7857143 C3.4322089,11.7857143 3.33090241,11.82775 3.25790676,11.9008214 C3.18487185,11.9738929 3.14285714,12.07525 3.14285714,12.1785714 C3.14285714,12.2818929 3.18483258,12.38325 3.25790676,12.4563214 C3.33133433,12.5293929 3.4322089,12.5714286 3.53551796,12.5714286 C3.63918041,12.5714286 3.74009424,12.5293929 3.81348254,12.4563214 C3.88651746,12.38325 3.92857143,12.2818929 3.92857143,12.1785714 C3.92857143,12.07525 3.88655672,11.9738929 3.81348254,11.9008214 Z" id="Path"></path>
                        <path d="M3.81348254,14.2579643 C3.74009424,14.1848929 3.63918041,14.1428571 3.53551796,14.1428571 C3.4322089,14.1428571 3.33133433,14.1848929 3.25790676,14.2579643 C3.18487185,14.3310357 3.14285714,14.4323929 3.14285714,14.5357143 C3.14285714,14.6390357 3.18483258,14.7403929 3.25790676,14.8134643 C3.33133433,14.8865357 3.4322089,14.9285714 3.53551796,14.9285714 C3.63918041,14.9285714 3.74009424,14.8865357 3.81348254,14.8134643 C3.88651746,14.7403929 3.92857143,14.6390357 3.92857143,14.5357143 C3.92857143,14.4323929 3.88655672,14.3310357 3.81348254,14.2579643 Z" id="Path"></path>
                        <path d="M3.81348254,16.6151071 C3.74009424,16.5420357 3.63918041,16.5 3.53551796,16.5 C3.4322089,16.5 3.33133433,16.5420357 3.25790676,16.6151071 C3.18487185,16.6881786 3.14285714,16.7895357 3.14285714,16.8928571 C3.14285714,16.9961786 3.18483258,17.0975357 3.25790676,17.1706071 C3.33090241,17.2436786 3.4322089,17.2857143 3.53551796,17.2857143 C3.63918041,17.2857143 3.7404869,17.2436786 3.81348254,17.1706071 C3.88651746,17.0975357 3.92857143,16.9961786 3.92857143,16.8928571 C3.92857143,16.7895357 3.88655672,16.6881786 3.81348254,16.6151071 Z" id="Path"></path>
                        <path d="M11.3492063,11.7857143 L5.15079365,11.7857143 C4.90975397,11.7857143 4.71428571,11.9615964 4.71428571,12.1785714 C4.71428571,12.3955464 4.90975397,12.5714286 5.15079365,12.5714286 L11.3492063,12.5714286 C11.590246,12.5714286 11.7857143,12.3955464 11.7857143,12.1785714 C11.7857143,11.9615964 11.590246,11.7857143 11.3492063,11.7857143 Z" id="Path"></path>
                        <path d="M21.0768971,5.739507 C20.6496729,5.50151977 20.1519555,5.43829978 19.6753465,5.5614727 C19.1988255,5.68468805 18.8004933,5.97957327 18.5538774,6.39177613 L13.0198831,15.6398433 C12.9895838,15.6905466 12.9704104,15.7467657 12.9636821,15.8049366 L12.574145,19.1714651 C12.5547957,19.3389769 12.6400207,19.5016941 12.7912972,19.5860016 C12.8595915,19.6240184 12.9354497,19.6428571 13.0111319,19.6428571 C13.1031291,19.6428571 13.1947746,19.6150658 13.271952,19.5602044 L16.098888,17.5514209 C16.1477451,17.5167135 16.1886425,17.4726292 16.2189418,17.4219259 L21.7528921,8.17385873 C22.2621311,7.32289212 21.9588744,6.23084093 21.0768971,5.739507 Z M13.5597292,18.3017871 L13.7631609,16.5438469 L15.0359066,17.2528443 L13.5597292,18.3017871 Z M15.6771608,16.6301485 L14.0014654,15.6966989 L18.4423549,8.27535016 L20.1180502,9.20879978 L15.6771608,16.6301485 Z M20.9912324,7.74952102 L20.5577636,8.47392035 L18.8820683,7.54047074 L19.3155371,6.81607141 C19.4447378,6.60014754 19.6533586,6.44570406 19.9029649,6.38116875 C20.1526591,6.31659101 20.4133473,6.3497709 20.6370958,6.47442885 C20.8608883,6.5990868 21.02096,6.80037248 21.0878471,7.04120248 C21.1547342,7.28203249 21.1204331,7.53359716 20.9912324,7.74952102 Z" id="Shape" fill-rule="nonzero"></path>
                    </g>
                </g>
            </g>
        </g>
    </g>
</svg>