<?xml version="1.0" encoding="UTF-8"?>
<svg width="29px" height="29px" viewBox="0 0 29 29" version="1.1" xmlns="http://www.w3.org/2000/svg" xmlns:xlink="http://www.w3.org/1999/xlink">
    <!-- Generator: Sketch 52.2 (67145) - http://www.bohemiancoding.com/sketch -->
    <title>Pie chart</title>
    <desc>Created with Sketch.</desc>
    <g id="Page-1" stroke="none" stroke-width="1" fill="none" fill-rule="evenodd">
        <g id="11_Chart-Dropdown" transform="translate(-352.000000, -575.000000)" fill="#000000" fill-rule="nonzero">
            <path d="M377.584359,590.302877 L365.69632,590.302877 L365.69632,578.414838 C365.69632,578.082114 365.426283,577.812077 365.093559,577.812077 C357.873697,577.812077 352,583.685775 352,590.905637 C352,598.125097 357.873697,603.998393 365.093559,603.998393 C372.313421,603.998393 378.187119,598.125097 378.187119,590.905637 C378.187119,590.572913 377.917082,590.302877 377.584359,590.302877 Z M365.093559,602.792872 C358.538341,602.792872 353.20552,597.460052 353.20552,590.905637 C353.20552,584.552544 358.214458,579.347509 364.490799,579.032466 L364.490799,590.905637 C364.490799,591.23836 364.760836,591.508397 365.093559,591.508397 L376.96673,591.508397 C376.651688,597.784337 371.446652,602.792872 365.093559,602.792872 Z M367.924925,575 C367.924523,575 367.924523,575 367.924121,575 C367.764591,575 367.61149,575.063491 367.498171,575.176006 C367.384852,575.288923 367.321361,575.442426 367.321361,575.60276 L367.321361,588.092756 C367.321361,588.425479 367.591398,588.695516 367.924121,588.695516 L380.39724,588.695516 C380.729963,588.695516 381,588.425479 381,588.092756 C381,580.883342 375.134339,575.009644 367.924925,575 Z M368.526882,587.489996 L368.526882,576.221594 C374.593462,576.535029 379.474213,581.423013 379.77921,587.489996 L368.526882,587.489996 Z" id="Pie-chart"></path>
        </g>
    </g>
</svg>