<svg xmlns="http://www.w3.org/2000/svg" width="32" height="29" viewBox="0 0 32 29">
  <path fill="#A1A1A1" fill-rule="evenodd" d="M939.0625,10.8125 L917.1875,10.8125 C914.59375,10.8125 912.5,12.90625 912.5,15.5 L912.5,24.875 L918.75,24.875 L918.75,31.125 L937.5,31.125 L937.5,24.875 L943.75,24.875 L943.75,15.5 C943.75,12.90625 941.65625,10.8125 939.0625,10.8125 L939.0625,10.8125 Z M934.375,28 L921.875,28 L921.875,20.1875 L934.375,20.1875 L934.375,28 L934.375,28 Z M939.0625,17.0625 C938.203125,17.0625 937.5,16.359375 937.5,15.5 C937.5,14.640625 938.203125,13.9375 939.0625,13.9375 C939.921875,13.9375 940.625,14.640625 940.625,15.5 C940.625,16.359375 939.921875,17.0625 939.0625,17.0625 L939.0625,17.0625 Z M937.5,3 L918.75,3 L918.75,9.25 L937.5,9.25 L937.5,3 L937.5,3 Z" transform="translate(-912 -3)"/>
</svg>
