<?xml version="1.0" encoding="UTF-8"?>
<svg width="30px" height="30px" viewBox="0 0 30 30" version="1.1" xmlns="http://www.w3.org/2000/svg" xmlns:xlink="http://www.w3.org/1999/xlink">
    <!-- Generator: Sketch 52.2 (67145) - http://www.bohemiancoding.com/sketch -->
    <title>My_profile</title>
    <desc>Created with Sketch.</desc>
    <g id="Page-1" stroke="none" stroke-width="1" fill="none" fill-rule="evenodd">
        <g id="13_Profile_dropdown" transform="translate(-1235.000000, -108.000000)" fill="#000000">
            <g id="My_profile" transform="translate(1235.000000, 108.000000)">
                <path d="M21.7832605,8.16641094 C20.8648566,7.26089072 19.6444272,6.7680906 18.3500324,6.77425061 C17.0556377,6.78657061 15.8475359,7.29785073 14.9414595,8.21569095 C14.0353832,9.13353117 13.5422804,10.3532115 13.5484442,11.6468118 C13.5484442,11.8500918 13.7148664,12.0164119 13.9182713,12.0164119 C14.1216762,12.0164119 14.2880983,11.8500918 14.2880983,11.6468118 C14.2819346,10.5503315 14.7010719,9.52161126 15.4653812,8.73929107 C16.2296905,7.95697089 17.2590426,7.52577078 18.3561962,7.51961078 C19.4533499,7.51345078 20.4827019,7.93233088 21.2655026,8.69617106 C22.0483032,9.46001124 22.4797682,10.4887315 22.485932,11.5852117 C22.4920957,12.681692 22.0729584,13.7104123 21.3086491,14.4927324 C20.5443398,15.2750526 19.5149877,15.7062527 18.4178341,15.7124127 C18.2144292,15.7124127 18.048007,15.8787328 18.048007,16.0820128 C18.048007,16.2852929 18.2144292,16.4516129 18.4178341,16.4516129 C19.7122289,16.4392929 20.9203307,15.9280128 21.826407,15.0101726 C22.7324833,14.0923323 23.2379137,12.8664921 23.2255861,11.5728917 C23.2132585,10.2792914 22.7016644,9.07193115 21.7832605,8.16641094 Z" id="Path"></path>
                <path d="M29.156575,13.6846273 L28.0112789,13.2100337 C28.1898466,12.1437392 28.1898466,11.0712811 28.0112789,10.01115 L29.156575,9.5365565 C29.4829229,9.4071219 29.7476956,9.1482527 29.8831608,8.80925731 C30.0247834,8.47026193 30.0247834,8.10044878 29.8831608,7.7614534 L29.2427801,6.20823819 C29.1011575,5.8692428 28.8425422,5.6103736 28.5038794,5.4686119 C28.1652165,5.32685019 27.7957662,5.32685019 27.4571033,5.4686119 L26.3118072,5.94320543 C25.6898991,5.06798099 24.9325258,4.30986404 24.0520024,3.68118169 L24.5261304,2.53476094 C24.8155332,1.83827951 24.4830279,1.0370177 23.7872297,0.747330732 L22.2416956,0.106321279 C21.5458974,-0.183365685 20.7454216,0.149466146 20.4560188,0.845947571 L19.9818909,1.99236832 C18.9166423,1.8136253 17.8452362,1.8136253 16.7861452,1.99236832 L16.3120172,0.845947571 C16.1703946,0.506952188 15.9117793,0.248082985 15.5731165,0.106321279 C15.2344536,-0.0354404265 14.8650033,-0.0354404265 14.5263404,0.106321279 L12.9808064,0.747330732 C12.6421435,0.889092438 12.3835283,1.14796164 12.2419056,1.48695702 C12.100283,1.82595241 12.100283,2.19576555 12.2419056,2.53476094 L12.7160336,3.68118169 C11.8416677,4.30370049 11.0842945,5.06181743 10.4562288,5.94320543 L9.3109327,5.4686119 C8.97226986,5.32685019 8.60281949,5.32685019 8.26415666,5.4686119 C7.92549382,5.6103736 7.66687856,5.8692428 7.52525592,6.20823819 L6.87871777,7.75528985 C6.58931498,8.45177127 6.92182031,9.25303309 7.61761851,9.54272005 L9.04000243,10.1344211 C9.23088512,10.2145473 9.44639784,10.122094 9.52028791,9.93718741 C9.60033549,9.74611728 9.5079729,9.53039295 9.32324771,9.45643032 L7.90086379,8.86472929 C7.58067347,8.72913113 7.42673582,8.36548154 7.56220095,8.04497681 L8.20258159,6.49792515 C8.33188922,6.17742042 8.70133959,6.02333161 9.02152991,6.15892977 L10.4439138,6.7506308 C10.604009,6.81842988 10.7948917,6.76295791 10.8934118,6.61503265 C11.5522649,5.62886426 12.3896858,4.79062113 13.3687293,4.13728457 C13.5165094,4.03866773 13.571927,3.85376116 13.5041944,3.68734524 L12.9130738,2.26356463 C12.8514987,2.10947582 12.8514987,1.93689635 12.9130738,1.78280754 C12.9746489,1.62871873 13.097799,1.50544768 13.2517366,1.44381216 L14.8034282,0.802802704 C14.9573658,0.74116718 15.129776,0.74116718 15.2837137,0.802802704 C15.4376513,0.864438229 15.5608014,0.987709277 15.6223765,1.14179809 L16.2134971,2.5655787 C16.2812297,2.72583106 16.4536398,2.81828435 16.62605,2.78746659 C17.7898187,2.55325159 18.9659024,2.55325159 20.129671,2.78746659 C20.3020812,2.8244479 20.4744914,2.73199462 20.5422239,2.5655787 L21.1333445,1.14179809 C21.2688097,0.821293362 21.6321025,0.667204551 21.9522928,0.802802704 L23.4978269,1.44381216 C23.8180172,1.57941031 23.9719549,1.9430599 23.8364897,2.26356463 L23.2576841,3.67501814 C23.1899516,3.8352705 23.2453691,4.02634063 23.3931493,4.12495747 C24.3783503,4.78445758 25.2157711,5.62270071 25.8684668,6.60270554 C25.9669869,6.7506308 26.151712,6.80610277 26.3179647,6.7383037 L27.7403486,6.14660266 C27.8942863,6.08496714 28.0666964,6.08496714 28.2206341,6.14660266 C28.3745718,6.20823819 28.4977219,6.33150924 28.5592969,6.48559805 L29.1996776,8.03881326 C29.2612526,8.19290207 29.2612526,8.36548154 29.1996776,8.51957035 C29.1381025,8.67365916 29.0149524,8.79693021 28.8610147,8.85856573 L27.4386308,9.45026677 C27.2785357,9.51806584 27.1861731,9.69064531 27.2169606,9.86322478 C27.4509458,11.0281362 27.4447883,12.2053747 27.2169606,13.3702861 C27.1800156,13.5428656 27.2723782,13.715445 27.4386308,13.7832441 L28.8610147,14.3749452 C29.1812051,14.5105433 29.3351427,14.8741929 29.1996776,15.1946976 L28.5592969,16.7417493 C28.4238318,17.062254 28.0605389,17.2163428 27.7403486,17.0807447 L26.3179647,16.4890436 C26.1578695,16.4212446 25.9669869,16.4767165 25.8684668,16.6246418 C25.2096136,17.6108102 24.3721928,18.4490533 23.3931493,19.1023899 C23.2453691,19.2010067 23.1899516,19.3859133 23.2576841,19.5523292 L23.8488047,20.9761098 C23.9103798,21.1301986 23.9103798,21.3027781 23.8488047,21.4568669 C23.7872297,21.6109557 23.6640795,21.7342268 23.5101419,21.7958623 L21.9584503,22.4368717 C21.8045127,22.4985073 21.6321025,22.4985073 21.4781649,22.4368717 C21.3242272,22.3752362 21.2010771,22.2519652 21.139502,22.0978764 L20.5483814,20.6740957 C20.4683339,20.4830256 20.2528211,20.3967359 20.068096,20.4768621 C19.8772133,20.5569882 19.7910082,20.7727126 19.8710558,20.9576192 L20.4621763,22.3813998 C20.603799,22.7203952 20.8624142,22.9792644 21.2010771,23.1210261 C21.3673298,23.1888251 21.5458974,23.2258065 21.7244651,23.2258065 C21.9030328,23.2258065 22.0816005,23.1888251 22.2478531,23.1210261 L23.7995447,22.4800166 C24.1382075,22.3382549 24.3968228,22.0793857 24.5384454,21.7403903 C24.6800681,21.4013949 24.6800681,21.0315818 24.5384454,20.6925864 L24.0643174,19.5461656 C24.9386833,18.9236469 25.6960566,18.1655299 26.3241222,17.2841419 L27.4694184,17.7587354 C27.8080812,17.9004972 28.1775316,17.9004972 28.5161944,17.7587354 C28.8548572,17.6169737 29.1134725,17.3581045 29.2550951,17.0191092 L29.8954758,15.4720575 C30.1848786,14.7755761 29.8523732,13.9743143 29.156575,13.6846273 Z" id="Path"></path>
                <path d="M9.19354839,17.4193548 C7.32522098,17.4193548 5.80645161,18.9441511 5.80645161,20.8124785 C5.80645161,22.6808059 7.32522098,24.1935484 9.19354839,24.1935484 C11.0618758,24.1935484 12.5806452,22.674779 12.5806452,20.8064516 C12.5806452,18.9381242 11.0618758,17.4193548 9.19354839,17.4193548 Z M9.19354839,23.4763517 C7.72299392,23.4763517 6.52967512,22.2830329 6.52967512,20.8124785 C6.52967512,19.341924 7.72299392,18.1486052 9.19354839,18.1486052 C10.6641029,18.1486052 11.8574217,19.341924 11.8574217,20.8124785 C11.8574217,22.2830329 10.6641029,23.4763517 9.19354839,23.4763517 Z" id="Shape" fill-rule="nonzero"></path>
                <path d="M16.3472092,19.6205917 L15.5461116,19.6205917 C15.3774595,18.916597 15.1003882,18.2547217 14.7209209,17.6349657 L15.2871102,17.0693632 C15.491902,16.8647836 15.6003212,16.6000334 15.6003212,16.3112151 C15.6003212,16.0284138 15.491902,15.7576467 15.2871102,15.553067 L14.4438496,14.7106803 C14.2390577,14.5061006 13.9740329,14.3977937 13.684915,14.3977937 C13.3957971,14.3977937 13.1307723,14.5061006 12.9259805,14.7106803 L12.3597912,15.2762828 C11.7393923,14.8972088 11.0768304,14.6264416 10.3721055,14.4519472 L10.3721055,13.6516798 C10.3721055,13.062009 9.89024227,12.5806452 9.29995984,12.5806452 L8.10734841,12.5806452 C7.51706599,12.5806452 7.03520278,13.062009 7.03520278,13.6516798 L7.03520278,14.4519472 C6.33047785,14.6204245 5.66791594,14.8972088 5.04751707,15.2762828 L4.4813278,14.7106803 C4.27653594,14.5061006 4.01151118,14.3977937 3.72239325,14.3977937 C3.43929862,14.3977937 3.16825057,14.5061006 2.96345871,14.7106803 L2.1201981,15.553067 C1.91540624,15.7576467 1.80698702,16.0223968 1.80698702,16.3112151 C1.80698702,16.5940164 1.91540624,16.8647836 2.1201981,17.0693632 L2.68638736,17.6349657 C2.30692009,18.2547217 2.03587204,18.916597 1.86119663,19.6205917 L1.07214563,19.6205917 C0.481863204,19.6205917 0,20.1019555 0,20.6916263 L0,21.8830018 C0.00602329005,22.4847067 0.481863204,22.9600535 1.07214563,22.9600535 L1.87324321,22.9600535 C2.04189533,23.6640481 2.31896667,24.3259234 2.69843394,24.9456794 L2.13224468,25.511282 C1.92745282,25.7158616 1.8190336,25.9806117 1.8190336,26.2694301 C1.8190336,26.5522313 1.92745282,26.8229985 2.13224468,27.0275781 L2.97550529,27.8699649 C3.18029715,28.0745445 3.44532191,28.1828514 3.73443983,28.1828514 C4.01753447,28.1828514 4.28858252,28.0745445 4.49337438,27.8699649 L5.05956365,27.3043624 C5.67996252,27.6834364 6.34252443,27.9542036 7.04724936,28.128698 L7.04724936,28.9289654 C7.04724936,29.5186361 7.52911257,30 8.11939499,30 L9.31200642,30 C9.90228885,30 10.3841521,29.5186361 10.3841521,28.9289654 L10.3841521,28.1226809 C11.088877,27.9542036 11.7514389,27.6774194 12.3718378,27.2983453 L12.938027,27.8639479 C13.1428189,28.0685275 13.4078437,28.1768344 13.6969616,28.1768344 C13.9860795,28.1768344 14.2511043,28.0685275 14.4558961,27.8639479 L15.2991567,27.0215611 C15.5039486,26.8169814 15.6123678,26.5522313 15.6123678,26.263413 C15.6123678,25.9806117 15.5039486,25.7098446 15.2991567,25.5052649 L14.7329675,24.9396624 C15.1124347,24.3199064 15.3834828,23.6580311 15.5581582,22.9540364 L16.3472092,22.9540364 C16.9374916,22.9540364 17.4193548,22.4726726 17.4193548,21.8830018 L17.4193548,20.6916263 C17.4193548,20.1019555 16.9374916,19.6205917 16.3472092,19.6205917 Z M16.69656,21.8950359 C16.69656,22.0875815 16.5399545,22.2440247 16.3472092,22.2440247 L15.2509704,22.2440247 C15.076295,22.2440247 14.931736,22.3643657 14.8955963,22.5328431 C14.7329675,23.3451446 14.4197564,24.1093097 13.9559631,24.7952532 C13.8595904,24.9396624 13.8776603,25.1322079 13.9981261,25.2525489 L14.7751305,26.0287481 C14.8413867,26.0949357 14.8775264,26.1791743 14.8775264,26.2754471 C14.8775264,26.3657028 14.8413867,26.4559585 14.7751305,26.5221461 L13.9318699,27.3645328 C13.8656137,27.4307204 13.7812876,27.4668227 13.684915,27.4668227 C13.5885424,27.4668227 13.5042163,27.4307204 13.4379601,27.3645328 L12.6609557,26.5883336 C12.5404899,26.4679926 12.3477446,26.4499415 12.2031857,26.5462143 C11.5105073,27.009527 10.7515727,27.3224135 9.93842859,27.4848738 C9.76977647,27.5209761 9.64931067,27.6653853 9.64931067,27.8398797 L9.64931067,28.9349825 C9.64931067,29.127528 9.49270513,29.2839713 9.29995984,29.2839713 L8.10734841,29.2839713 C7.91460313,29.2839713 7.75799759,29.127528 7.75799759,28.9349825 L7.75799759,27.8398797 C7.75799759,27.6653853 7.63753179,27.5209761 7.46887967,27.4848738 C6.65573551,27.3224135 5.89077767,27.009527 5.20412261,26.5462143 C5.14388971,26.5040949 5.07161023,26.4860438 5.00535404,26.4860438 C4.91500468,26.4860438 4.81863204,26.5221461 4.75237585,26.5943507 L3.97537144,27.3705499 C3.90911525,27.4367374 3.82478918,27.4728397 3.72841654,27.4728397 C3.63806719,27.4728397 3.54771784,27.4367374 3.48146165,27.3705499 L2.63820104,26.5281631 C2.57194485,26.4619756 2.53580511,26.3777369 2.53580511,26.2814641 C2.53580511,26.1912084 2.57194485,26.1009527 2.63820104,26.0347652 L3.41520546,25.2585659 C3.53567126,25.138225 3.55374113,24.9456794 3.45736849,24.8012703 C2.99357516,24.1093097 2.68036407,23.3511616 2.51773524,22.5388601 C2.4815955,22.3703828 2.33703654,22.2500418 2.16236113,22.2500418 L1.07214563,22.2500418 C0.879400348,22.2500418 0.722794807,22.0935985 0.722794807,21.901053 L0.722794807,20.7036604 L0.728818097,20.7036604 C0.728818097,20.5111148 0.885423638,20.3546716 1.07816892,20.3546716 L2.17440771,20.3546716 C2.34908312,20.3546716 2.49364208,20.2343306 2.52978182,20.0658533 C2.69241065,19.2535517 3.00562174,18.4893866 3.46941507,17.8034431 C3.56578771,17.6590339 3.54771784,17.4664884 3.42725204,17.3461474 L2.64422433,16.5699482 C2.57796814,16.5037607 2.5418284,16.419522 2.5418284,16.3232492 C2.5418284,16.2329935 2.57796814,16.1427378 2.64422433,16.0765502 L3.48748494,15.2341635 C3.55374113,15.1679759 3.63806719,15.1318736 3.73443983,15.1318736 C3.82478918,15.1318736 3.91513854,15.1679759 3.98139473,15.2341635 L4.75839914,16.0103627 C4.87886494,16.1307037 5.07161023,16.1487548 5.21616919,16.052482 C5.90884754,15.5891693 6.66778209,15.2762828 7.48092625,15.1138225 C7.64957837,15.0777202 7.77004417,14.933311 7.77004417,14.7588166 L7.77004417,13.6637139 C7.77004417,13.4711683 7.92664971,13.3147251 8.11939499,13.3147251 L9.31200642,13.3147251 C9.50475171,13.3147251 9.66135725,13.4711683 9.66135725,13.6637139 L9.66135725,14.7648337 C9.66135725,14.9393281 9.78182305,15.0837373 9.95047517,15.1198395 C10.7636193,15.2822998 11.5285772,15.5951864 12.2152322,16.0584991 C12.3597912,16.1547719 12.5525365,16.1367207 12.6730023,16.0163797 L13.4500067,15.2401805 C13.5162629,15.173993 13.6005889,15.1378907 13.6969616,15.1378907 C13.7933342,15.1378907 13.8776603,15.173993 13.9439165,15.2401805 L14.7871771,16.0825673 C14.8534333,16.1487548 14.889573,16.2329935 14.889573,16.3292663 C14.889573,16.419522 14.8534333,16.5097777 14.7871771,16.5759652 L13.9981261,17.3461474 C13.8776603,17.4664884 13.8595904,17.6590339 13.9559631,17.8034431 C14.4197564,18.4954036 14.7329675,19.2535517 14.8955963,20.0658533 C14.931736,20.2343306 15.076295,20.3546716 15.2509704,20.3546716 L16.3472092,20.3546716 C16.5399545,20.3546716 16.69656,20.5111148 16.69656,20.7036604 L16.69656,21.8950359 Z" id="Shape" fill-rule="nonzero"></path>
            </g>
        </g>
    </g>
</svg>