<?xml version="1.0" encoding="UTF-8"?>
<svg width="20px" height="22px" viewBox="0 0 20 22" version="1.1" xmlns="http://www.w3.org/2000/svg" xmlns:xlink="http://www.w3.org/1999/xlink">
    <!-- Generator: Sketch 52.2 (67145) - http://www.bohemiancoding.com/sketch -->
    <title>Refresh</title>
    <desc>Created with Sketch.</desc>
    <g id="Page-1" stroke="none" stroke-width="1" fill="none" fill-rule="evenodd">
        <g id="02_Dashboard#0" transform="translate(-318.000000, -444.000000)" fill="#000000" fill-rule="nonzero">
            <g id="Group-47" transform="translate(90.000000, 377.000000)">
                <g id="Group-46" transform="translate(228.000000, 67.000000)">
                    <g id="Refresh">
                        <path d="M4.98805031,17.1679257 C3.16599011,15.7166023 1.99998573,13.4912304 1.99998573,10.9954571 C1.99998573,7.30618821 4.55144074,4.21536245 7.99994293,3.33408577 L7.99994293,1.29321965 C3.43551805,2.21038031 0,6.20579321 0,10.9954571 C0,13.9553204 1.31253968,16.6094636 3.39114367,18.4234412 C5.00003567,19.907258 5.9999572,17.926999 4.98805031,17.1679257 Z M16.5245308,3.49598751 C15.5000678,2.57981579 14.0000428,4.0650453 14.9834131,4.80080819 C16.8223099,6.25170775 18.000157,8.48767536 18.000157,10.9954571 C18.000157,14.685291 15.4482739,17.7766819 12.0000571,18.6573935 L12.0000571,20.6986834 C16.564482,19.7805338 20,15.785686 20,10.9953158 C20,7.99646039 18.6523603,5.31137791 16.5245308,3.49598751 Z M8.88357792,5.04450846 L12.1386021,3.11454362 C12.6121666,2.83368789 12.6131653,2.37623776 12.1411704,2.09340418 L8.85604012,0.124729848 C8.38347447,-0.157679911 8.00208317,0.0555048447 8.0043661,0.602382372 L8.02205877,4.56304149 C8.0234856,5.10963647 8.40944275,5.32536419 8.88357792,5.04450846 Z M11.1445306,16.9571426 L7.85897226,18.9258169 C7.38654929,19.2086505 7.38754807,19.6659594 7.86168323,19.9469564 L11.1164221,21.8770625 C11.5899865,22.1573531 11.9767998,21.9423318 11.9792254,21.3950304 L11.9963473,17.4345126 C11.9980595,16.8880589 11.6160975,16.6747329 11.1445306,16.9571426 Z" id="Shape"></path>
                    </g>
                </g>
            </g>
        </g>
    </g>
</svg>