<?xml version="1.0" encoding="UTF-8"?>
<svg width="34px" height="37px" viewBox="0 0 34 37" version="1.1" xmlns="http://www.w3.org/2000/svg" xmlns:xlink="http://www.w3.org/1999/xlink">
    <!-- Generator: Sketch 52.2 (67145) - http://www.bohemiancoding.com/sketch -->
    <title>Refresh</title>
    <desc>Created with Sketch.</desc>
    <g id="Page-1" stroke="none" stroke-width="1" fill="none" fill-rule="evenodd">
        <g id="08_Account-Opening-Form" transform="translate(-840.000000, -76.000000)">
            <g id="Refresh" transform="translate(840.000000, 76.000000)">
                <g id="arrow-copy-2" fill="#1E201D">
                    <path d="M0.0153273952,23.189817 C-0.0789117479,22.6709712 0.271725785,22.192359 0.783673562,22.0984806 C1.29562134,22.0054404 1.7939851,22.3382058 1.88907324,22.8436404 C2.54959624,26.3691095 4.44966113,29.4562001 7.14439122,31.6648571 C9.77205021,33.8198692 13.1680554,35.1106972 16.860362,35.1106972 C21.0646164,35.1106972 24.8783301,33.4342972 27.6409803,30.7067945 C30.3900465,27.9927029 32.1016331,24.2275086 32.1016331,20.0767422 C32.1016331,15.9259759 30.3900465,12.1607815 27.6409803,9.43327876 C24.8783301,6.7191872 21.0646164,5.02937602 16.860362,5.02937602 C15.9841926,5.02937602 15.1487754,5.09559382 14.3269421,5.24227882 C13.7479232,5.33531901 13.1816394,5.45518161 12.6289395,5.61443961 L14.893226,7.39729099 C15.3109346,7.71664518 15.3780057,8.31511998 15.0545362,8.71410317 C14.7310667,9.12649756 14.1248798,9.19271536 13.7207552,8.86078817 L10.0148646,5.94720501 C9.66422705,5.66808441 9.5699879,5.18863402 9.75846619,4.80306202 L11.631363,0.559255477 C11.8470094,0.0932162826 12.3997092,-0.132259514 12.8844889,0.0806432828 C13.3692687,0.28013488 13.584915,0.839214273 13.3692687,1.31782647 L12.291037,3.76620863 C12.8573209,3.60695064 13.4227558,3.48708804 14.0162077,3.39404784 C14.9458641,3.23478984 15.9026885,3.15432264 16.859513,3.15432264 C21.5892992,3.15432264 25.8742087,5.04362542 28.9874964,8.10389358 C32.0872001,11.1775729 34,15.4079683 34,20.0775804 C34,24.7471926 32.0863511,28.9784261 28.9874964,32.0378561 C25.8750577,35.0981242 21.5892992,37 16.859513,37 C12.7087457,37 8.89588088,35.5365028 5.93116838,33.1015319 C2.91211979,30.6271655 0.76924054,27.1410917 0.0153273952,23.189817 Z" id="Path"></path>
                </g>
                <g id="263063" transform="translate(7.000000, 11.000000)" fill="#000000" fill-rule="nonzero">
                    <path d="M20.999918,9.50001303 C20.999918,9.04875667 20.753333,8.64299708 20.3562213,8.44086793 L18.7926297,7.64598782 L20.3562213,6.85114942 C20.3562623,6.85110772 20.3563853,6.85106602 20.3563853,6.85106602 C20.753415,6.64902027 21,6.24321898 21,5.79196262 C21,5.34078965 20.753374,4.93498837 20.3563033,4.73285921 L11.529037,0.245483505 C10.8846021,-0.081834785 10.115234,-0.081834785 9.47067594,0.245525207 L0.643573737,4.73306772 C0.246626071,4.93503007 8.18162916e-08,5.34078965 8.18162916e-08,5.79200432 C8.18162916e-08,6.24326068 0.246585055,6.64902027 0.643696784,6.85114942 L2.20724731,7.64598782 L0.643491706,8.44095133 C0.246585055,8.64299708 8.18162916e-08,9.04875667 8.18162916e-08,9.50001303 C8.18162916e-08,9.9512694 0.246585055,10.357029 0.643696784,10.5591164 L2.20724731,11.3539965 L0.64381983,12.1487932 C0.246913179,12.350422 0.000164143675,12.7560564 8.18162916e-08,13.2073545 C-0.000163980042,13.6589028 0.246420993,14.0649126 0.643696784,14.2670834 L9.47084,18.7545426 C9.79305749,18.9182226 10.1464057,19 10.499918,19 C10.8534303,19 11.2069426,18.9181392 11.5292011,18.7545009 L20.3563443,14.2670417 C20.753456,14.064996 21.000082,13.6589445 20.999918,13.2073962 C20.9997539,12.7560981 20.7530049,12.3504637 20.3562213,12.14896 L18.7926297,11.3540799 L20.3563853,10.5591164 C20.753333,10.357029 20.999918,9.9512694 20.999918,9.50001303 Z M1.07563064,5.97328252 C0.97969547,5.92444958 0.965422088,5.83875216 0.965422088,5.79204602 C0.965422088,5.74533988 0.979777501,5.65964246 1.07546658,5.61093463 L9.90232269,1.12364232 C10.0894763,1.02856197 10.2947587,0.981105194 10.5000411,0.981105194 C10.7052414,0.981105194 10.9104828,1.02860367 11.0975133,1.12360062 L19.9243284,5.61085122 C20.0201816,5.65964246 20.034537,5.74533988 20.034537,5.79204602 C20.034537,5.83875216 20.0202636,5.92444958 19.9243284,5.97328252 L11.0976364,10.4604497 C10.7233703,10.650527 10.2765478,10.650527 9.90248675,10.4604914 L1.07563064,5.97328252 Z M19.9246155,13.0269104 C20.0201816,13.0754514 20.034496,13.160982 20.034496,13.2077298 C20.034537,13.2545611 20.0202226,13.3404253 19.9244515,13.3891331 L11.0975954,17.8764254 C10.7233292,18.0665027 10.2765068,18.0665445 9.90244574,17.8764671 L1.07563064,13.3891748 C0.97969547,13.3403419 0.965381073,13.2545194 0.965422088,13.2076881 C0.965422088,13.1610237 0.97969547,13.0754514 1.07546658,13.0268269 L3.28669231,11.9027103 L9.47084,15.0464921 C9.79305749,15.2101721 10.1464057,15.2919496 10.499877,15.2919496 C10.8533893,15.2919496 11.2069016,15.2100887 11.5291601,15.0464504 L17.7131437,11.9027103 L19.9246155,13.0269104 Z M19.9244105,9.68116613 L11.0975954,14.1684584 C10.7233292,14.3585357 10.2765068,14.3585774 9.90244574,14.1685001 L1.07563064,9.68124953 C0.97969547,9.6324583 0.965422088,9.54676087 0.965422088,9.50005473 C0.965422088,9.45326519 0.97969547,9.36765117 1.07546658,9.31890164 L3.28669231,8.19478496 L9.47084,11.3385668 C9.79301648,11.5022468 10.1464467,11.5840243 10.499877,11.5840243 C10.8533073,11.5840243 11.2068606,11.5022051 11.5291191,11.3384834 L17.7131847,8.19474325 L19.9242464,9.31877653 C20.0201816,9.36760947 20.0344549,9.45326519 20.0344549,9.50001303 C20.034496,9.54671917 20.0201816,9.6324166 19.9244105,9.68116613 Z" id="Shape"></path>
                </g>
            </g>
        </g>
    </g>
</svg>