<?xml version="1.0" encoding="UTF-8"?>
<svg width="24px" height="25px" viewBox="0 0 24 25" version="1.1" xmlns="http://www.w3.org/2000/svg" xmlns:xlink="http://www.w3.org/1999/xlink">
    <!-- Generator: Sketch 52.2 (67145) - http://www.bohemiancoding.com/sketch -->
    <title>Reject</title>
    <desc>Created with Sketch.</desc>
    <g id="Page-1" stroke="none" stroke-width="1" fill="none" fill-rule="evenodd">
        <g id="12_Notifications" transform="translate(-1165.000000, -125.000000)" fill="#B94A4B">
            <g id="Reject" transform="translate(1165.000000, 125.000000)">
                <path d="M11.9316089,0.397727273 C5.3421576,0.397727273 -7.2475359e-13,5.73988487 -7.2475359e-13,12.3293361 C-7.2475359e-13,18.9203574 5.3421576,24.260945 11.9316089,24.260945 C18.5226301,24.260945 23.8632177,18.9203574 23.8632177,12.3293361 C23.8632177,5.73988487 18.5226301,0.397727273 11.9316089,0.397727273 Z M11.9316089,22.6700882 C6.2298744,22.6700882 1.59085676,18.0310706 1.59085676,12.3293361 C1.59085676,6.62760167 6.2298744,1.98858403 11.9316089,1.98858403 C17.6333433,1.98858403 22.2723609,6.62760167 22.2723609,12.3293361 C22.2723609,18.0310706 17.6333433,22.6700882 11.9316089,22.6700882 Z" id="Shape" fill-rule="nonzero"></path>
                <path d="M16.5265625,6.99404063 L12.1548071,11.367366 L8.23169856,6.99404063 C7.92147129,6.68381336 7.41714264,6.68381336 7.1069677,6.99404063 C6.79674043,7.30426791 6.79674043,7.80859655 7.1069677,8.11877149 L11.0300763,12.4920969 L6.59630682,16.9258663 C6.28607955,17.2360936 6.28607955,17.7419922 6.59630682,18.0505972 C6.90653409,18.3608244 7.41086274,18.3608244 7.72103768,18.0505972 L12.094363,13.6788418 L16.0174716,18.0505972 C16.3260766,18.3608244 16.8320275,18.3608244 17.1406325,18.0505972 C17.4508597,17.7419399 17.4508597,17.2360412 17.1406325,16.9258663 L13.2159539,12.5541109 L17.6497234,8.11871916 C17.9599507,7.80849189 17.9599507,7.30416324 17.6497234,6.9939883 C17.3394961,6.68381336 16.8367898,6.68381336 16.5265625,6.99404063 Z" id="Path"></path>
            </g>
        </g>
    </g>
</svg>