<?xml version="1.0" encoding="UTF-8"?>
<svg width="20px" height="20px" viewBox="0 0 20 20" version="1.1" xmlns="http://www.w3.org/2000/svg" xmlns:xlink="http://www.w3.org/1999/xlink">
    <!-- Generator: Sketch 60.1 (88133) - https://sketch.com -->
    <title>Shape</title>
    <desc>Created with Sketch.</desc>
    <g id="Page-1" stroke="none" stroke-width="1" fill="none" fill-rule="evenodd">
        <g id="01_Login-Screen" transform="translate(-1230.000000, -47.000000)" fill="#222222" fill-rule="nonzero" stroke="#222222">
            <g id="Group-5" transform="translate(1231.000000, 48.000000)">
                <path d="M7.00431406,14.0086281 C8.71268335,14.0086281 10.2657463,13.4029336 11.4771355,12.377912 L16.9128559,17.8136324 C17.0371009,17.9378775 17.1924072,18 17.3632442,18 C17.5340811,18 17.6893874,17.9378775 17.8136324,17.8136324 C18.0621225,17.5651424 18.0621225,17.161346 17.8136324,16.9128559 L12.377912,11.4771355 C13.3874029,10.2657463 14.0086281,8.69715272 14.0086281,7.00431406 C14.0086281,3.13718723 10.8714409,0 7.00431406,0 C3.15271786,0 0,3.15271786 0,7.00431406 C0,10.8714409 3.15271786,14.0086281 7.00431406,14.0086281 Z M7,1 C10.3170732,1 13,3.69918699 13,7 C13,10.3170732 10.3170732,13 7,13 C3.68292683,13 1,10.300813 1,7 C1,3.69918699 3.69918699,1 7,1 Z" id="Shape"></path>
            </g>
        </g>
    </g>
</svg>