<?xml version="1.0" encoding="UTF-8"?>
<svg width="18px" height="18px" viewBox="0 0 18 18" version="1.1" xmlns="http://www.w3.org/2000/svg" xmlns:xlink="http://www.w3.org/1999/xlink">
    <!-- Generator: Sketch 52 (66869) - http://www.bohemiancoding.com/sketch -->
    <title>Search</title>
    <desc>Created with Sketch.</desc>
    <g id="New-Option" stroke="none" stroke-width="1" fill="none" fill-rule="evenodd">
        <g id="01_DGFT---Login" transform="translate(-912.000000, -30.000000)" fill="#9b9b9b" fill-rule="nonzero" stroke="#FFFFFF" stroke-width="0.5">
            <g id="Group-3" transform="translate(134.000000, 24.000000)">
                <g id="Group-7" transform="translate(382.793956, 0.000000)">
                    <g id="Search" transform="translate(396.000000, 7.000000)">
                        <g id="Group">
                            <g id="Shape">
                                <path d="M11.9052886,10.4943234 C11.7944554,10.640532 11.8096464,10.8640966 11.943368,10.9978182 L16.5192865,15.5737367 C16.7803929,15.8348431 16.7803929,16.2581801 16.5192865,16.5192865 C16.2581801,16.7803929 15.8348431,16.7803929 15.5737367,16.5192865 L10.9978182,11.943368 C10.8659543,11.8115041 10.6400955,11.7956443 10.4927845,11.9061927 C10.4927845,11.9061927 10.4375156,11.9536015 10.2680223,12.0666614 C9.24274898,12.7505668 8.01095353,13.1492248 6.68604651,13.1492248 C3.11653169,13.1492248 0.222868217,10.2555613 0.222868217,6.68604651 C0.222868217,3.11653169 3.11653169,0.222868217 6.68604651,0.222868217 C10.2555613,0.222868217 13.1492248,3.11653169 13.1492248,6.68604651 C13.1492248,8.01617195 12.7474202,9.25245092 12.058567,10.2801275 C11.9478385,10.4453197 11.9052886,10.4943234 11.9052886,10.4943234 Z M6.68604651,11.8120155 C9.517041,11.8120155 11.8120155,9.517041 11.8120155,6.68604651 C11.8120155,3.85505202 9.517041,1.56007752 6.68604651,1.56007752 C3.85505202,1.56007752 1.56007752,3.85505202 1.56007752,6.68604651 C1.56007752,9.517041 3.85505202,11.8120155 6.68604651,11.8120155 Z"></path>
                            </g>
                        </g>
                    </g>
                </g>
            </g>
        </g>
    </g>
</svg>