<?xml version="1.0" encoding="UTF-8"?>
<svg width="41px" height="44px" viewBox="0 0 41 44" version="1.1" xmlns="http://www.w3.org/2000/svg" xmlns:xlink="http://www.w3.org/1999/xlink">
    <!-- Generator: Sketch 52 (66869) - http://www.bohemiancoding.com/sketch -->
    <title>Service_requests</title>
    <desc>Created with Sketch.</desc>
    <g id="New-Option" stroke="none" stroke-width="1" fill="none" fill-rule="evenodd">
        <g id="03_DGFT---Personal-Details" transform="translate(-165.000000, -564.000000)" fill="#000000" fill-rule="nonzero">
            <path d="M199.38887,600 C204.230537,600 205.999984,602.108737 205.999984,607.333333 C205.999984,607.701523 205.703994,608 205.338872,608 L165.672189,608 C165.307067,608 165.011078,607.701523 165.011078,607.333333 C165.011078,602.108737 166.780525,600 171.622192,600 L199.38887,600 Z M199.38887,601.333333 L171.622192,601.333333 C167.770222,601.333333 166.465526,602.65523 166.343021,606.666667 L204.668041,606.666667 C204.545535,602.65523 203.24084,601.333333 199.38887,601.333333 Z M186.166642,578 L186.166642,580.674953 C196.705076,580.940589 203.355538,587.565848 203.355538,596.666667 C203.355538,597.034857 203.059549,597.333333 202.694427,597.333333 L168.316635,597.333333 C167.951513,597.333333 167.655523,597.034857 167.655523,596.666667 C167.655523,587.565848 174.305985,580.940589 184.844419,580.674953 L184.844419,578 L181.538862,578 C181.173741,578 180.877751,577.701523 180.877751,577.333333 C180.877751,576.965143 181.173741,576.666667 181.538862,576.666667 L189.472199,576.666667 C189.837321,576.666667 190.13331,576.965143 190.13331,577.333333 C190.13331,577.701523 189.837321,578 189.472199,578 L186.166642,578 Z M185.505531,582 C175.57087,582 169.31207,587.808742 168.990744,596 L202.020318,596 C201.698992,587.808742 195.440191,582 185.505531,582 Z M186.166642,569.333333 C186.166642,569.701523 185.870653,570 185.505531,570 C185.140409,570 184.844419,569.701523 184.844419,569.333333 L184.844419,564.666667 C184.844419,564.298477 185.140409,564 185.505531,564 C185.870653,564 186.166642,564.298477 186.166642,564.666667 L186.166642,569.333333 Z M169.215625,576.512147 L165.248956,573.178814 C164.571783,572.609761 165.418249,571.585467 166.095422,572.154519 L170.06209,575.487853 C170.739264,576.056905 169.892798,577.0812 169.215625,576.512147 Z M201.795437,576.512147 C201.514943,576.747857 201.098069,576.709641 200.864324,576.426789 C200.630579,576.143939 200.668477,575.723562 200.948971,575.487853 L204.915639,572.154519 C205.196133,571.91881 205.613007,571.957026 205.846752,572.239877 C206.080497,572.522728 206.0426,572.943105 205.762105,573.178814 L201.795437,576.512147 Z" id="Service_requests"></path>
        </g>
    </g>
</svg>