<svg xmlns="http://www.w3.org/2000/svg" width="22" height="22" viewBox="0 0 22 22">
  <g fill="#818080">
    <path d="M15.9565584,6.00703724 C15.2922463,5.35204429 14.409469,4.99558554 13.4731901,5.00004127 C12.5369112,5.00895274 11.6630509,5.37877869 11.0076557,6.04268312 C10.3522605,6.70658754 9.99558283,7.58882295 10.0000413,8.52452717 C10.0000413,8.67156641 10.12042,8.79187124 10.2675496,8.79187124 C10.4146791,8.79187124 10.5350578,8.67156641 10.5350578,8.52452717 C10.5305993,7.73140645 10.8337754,6.98729881 11.3866257,6.42142054 C11.9394761,5.85554227 12.6840408,5.54364087 13.4776486,5.53918513 C14.2712564,5.5347294 15.0158211,5.83771934 15.5820469,6.3902304 C16.1482727,6.94274147 16.4603656,7.68684911 16.4648241,8.47996983 C16.4692826,9.27309055 16.1661066,10.0171982 15.6132562,10.5830765 C15.0604058,11.1489547 14.3158411,11.4608561 13.5222333,11.4653119 C13.3751038,11.4653119 13.2547251,11.5856167 13.2547251,11.7326559 C13.2547251,11.8796952 13.3751038,12 13.5222333,12 C14.4585122,11.9910885 15.3323725,11.6212626 15.9877677,10.9573582 C16.643163,10.2934537 17.0087576,9.40676258 16.9998406,8.47105836 C16.9909237,7.53535414 16.6208706,6.6620302 15.9565584,6.00703724 Z"/>
    <path d="M21.3826598 10.0163869L20.5443666 9.66901081C20.6750683 8.88854243 20.6750683 8.10356266 20.5443666 7.32760565L21.3826598 6.98022955C21.6215283 6.88549061 21.8153272 6.69601274 21.9144802 6.44788695 22.0181401 6.19976116 22.0181401 5.92907848 21.9144802 5.6809527L21.4457571 4.54408545C21.3420972 4.29595966 21.1528052 4.10648179 20.9049228 4.0027201 20.6570404 3.8989584 20.3866233 3.8989584 20.1387409 4.0027201L19.3004478 4.3500962C18.8452456 3.70948053 18.2908904 3.15458104 17.6463962 2.69442049L17.9934316 1.85530419C18.2052583 1.34551848 17.9618829.759039342 17.4525973.547004578L16.3213522.0778212698C15.8120666-.134213494 15.2261628.109400916 15.014336.619186625L14.6673007 1.45830293C13.8875979 1.32747296 13.1033882 1.32747296 12.3281924 1.45830293L11.981157.619186625C11.8774971.371060837 11.6882051.181582963 11.4403227.0778212698 11.1924404-.0259404233 10.9220232-.0259404233 10.6741408.0778212698L9.54289577.547004578C9.29501339.650766271 9.10572139.840244145 9.00206148 1.08836993 8.89840158 1.33649572 8.89840158 1.6071784 9.00206148 1.85530419L9.34909682 2.69442049C8.70910958 3.15006966 8.15475443 3.70496915 7.69504528 4.3500962L6.85675213 4.0027201C6.60886975 3.8989584 6.3384526 3.8989584 6.09057022 4.0027201 5.84268784 4.10648179 5.65339583 4.29595966 5.54973593 4.54408545L5.07650592 5.67644132C4.86467916 6.18622703 5.10805459 6.77270616 5.61734021 6.98474093L6.65844622 7.41783321C6.79816175 7.47648113 6.95590508 7.40881046 7.00998851 7.27346912 7.06857889 7.1336164 7.00097461 6.97571817 6.86576604 6.92158164L5.82466003 6.48848935C5.5902985 6.38923904 5.47762469 6.12306774 5.57677764 5.88847608L6.04550069 4.75612021C6.1401467 4.52152856 6.41056384 4.40874411 6.64492537 4.50799443L7.68603138 4.94108671C7.80321214 4.99071187 7.94292766 4.95010947 8.0150389 4.8418364 8.49728281 4.12001592 9.11022834 3.50646852 9.82683378 3.02826246 9.93500063 2.95608041 9.97556321 2.82073907 9.92598673 2.69893186L9.4933193 1.65680356C9.44824977 1.54401911 9.44824977 1.41770052 9.4933193 1.30491608 9.53838882 1.19213163 9.62852787 1.10190407 9.74120168 1.05679029L10.8769537.587606979C10.9896275.5424932 11.1158222.5424932 11.228496.587606979 11.3411698.632720759 11.4313088.722948318 11.4763784.835732767L11.9090458 1.87786108C11.9586223 1.9951569 12.0848169 2.06282757 12.2110116 2.04027068 13.0628256 1.86883832 13.9236535 1.86883832 14.7754675 2.04027068 14.9016622 2.06733895 15.0278569 1.99966828 15.0774333 1.87786108L15.5101008.835732767C15.6092537.601141113 15.8751639.488356664 16.1095255.587606979L17.2407705 1.05679029C17.475132 1.1560406 17.5878058 1.4222119 17.4886529 1.65680356L17.0649994 2.68990911C17.0154229 2.80720494 17.0559855 2.94705765 17.1641523 3.0192397 17.8852647 3.50195714 18.4982102 4.11550454 18.9759472 4.83281364 19.0480584 4.94108671 19.183267 4.98168911 19.3049547 4.93206396L20.3460607 4.49897167C20.4587345 4.45385789 20.5849292 4.45385789 20.697603 4.49897167 20.8102768 4.54408545 20.9004159 4.63431301 20.9454854 4.74709746L21.4142085 5.88396471C21.459278 5.99674915 21.459278 6.12306774 21.4142085 6.23585219 21.3691389 6.34863664 21.2789999 6.43886419 21.1663261 6.48397797L20.1252201 6.91707026C20.0080393 6.96669542 19.940435 7.093014 19.9629698 7.21933258 20.134234 8.07198302 20.129727 8.93365621 19.9629698 9.78630664 19.9359281 9.91262522 20.0035323 10.0389438 20.1252201 10.088569L21.1663261 10.5216612C21.4006876 10.6209116 21.5133614 10.8870829 21.4142085 11.1216745L20.9454854 12.2540304C20.8463324 12.488622 20.5804223 12.6014065 20.3460607 12.5021562L19.3049547 12.0690639C19.187774 12.0194387 19.0480584 12.0600411 18.9759472 12.1683142 18.4937033 12.8901347 17.8807578 13.5036821 17.1641523 13.9818881 17.0559855 14.0540702 17.0154229 14.1894115 17.0649994 14.3112187L17.4976668 15.353347C17.5427363 15.4661315 17.5427363 15.5924501 17.4976668 15.7052345 17.4525973 15.818019 17.3624582 15.9082465 17.2497844 15.9533603L16.1140324 16.4225436C16.0013586 16.4676574 15.8751639 16.4676574 15.7624901 16.4225436 15.6498163 16.3774298 15.5596773 16.2872023 15.5146077 16.1744178L15.0819403 15.1322895C15.0233499 14.9924368 14.8656066 14.9292775 14.730398 14.9879254 14.5906825 15.0465733 14.5275852 15.2044716 14.5861755 15.3398129L15.018843 16.3819412C15.1225029 16.630067 15.3117949 16.8195449 15.5596773 16.9233066 15.681365 16.9729317 15.8120666 17 15.9427682 17 16.0734698 17 16.2041715 16.9729317 16.3258592 16.9233066L17.4616112 16.4541233C17.7094936 16.3503616 17.8987856 16.1608837 18.0024455 15.9127579 18.1061054 15.6646321 18.1061054 15.3939494 18.0024455 15.1458237L17.6554101 14.3067074C18.2953974 13.8510582 18.8497525 13.2961587 19.3094617 12.6510316L20.1477548 12.9984077C20.3956372 13.1021694 20.6660544 13.1021694 20.9139367 12.9984077 21.1618191 12.8946461 21.3511111 12.7051682 21.454771 12.4570424L21.9234941 11.3246865C22.1353208 10.8149008 21.8919454 10.2284217 21.3826598 10.0163869zM6.5 13C5.12099644 13 4 14.1254448 4 15.5044484 4 16.883452 5.12099644 18 6.5 18 7.87900356 18 9 16.8790036 9 15.5 9 14.1209964 7.87900356 13 6.5 13zM6.5 17.4706406C5.41459075 17.4706406 4.53380783 16.5898577 4.53380783 15.5044484 4.53380783 14.4190391 5.41459075 13.5382562 6.5 13.5382562 7.58540925 13.5382562 8.46619217 14.4190391 8.46619217 15.5044484 8.46619217 16.5898577 7.58540925 17.4706406 6.5 17.4706406z"/>
    <path d="M12.1998617,14.253886 L11.6020055,14.253886 C11.4761411,13.7284974 11.2693638,13.2345423 10.9861687,12.7720207 L11.4087137,12.3499136 C11.5615491,12.1972366 11.642462,11.9996546 11.642462,11.7841105 C11.642462,11.573057 11.5615491,11.3709845 11.4087137,11.2183074 L10.7793914,10.5896373 C10.626556,10.4369603 10.428769,10.3561313 10.2130014,10.3561313 C9.99723375,10.3561313 9.79944675,10.4369603 9.64661134,10.5896373 L9.22406639,11.0117444 C8.76106501,10.7288428 8.26659751,10.5267703 7.7406639,10.3965458 L7.7406639,9.79930915 C7.7406639,9.35924007 7.38105118,9 6.94052559,9 L6.05048409,9 C5.60995851,9 5.25034578,9.35924007 5.25034578,9.79930915 L5.25034578,10.3965458 C4.72441217,10.5222798 4.22994467,10.7288428 3.76694329,11.0117444 L3.34439834,10.5896373 C3.19156293,10.4369603 2.99377593,10.3561313 2.7780083,10.3561313 C2.56673582,10.3561313 2.36445367,10.4369603 2.21161826,10.5896373 L1.58229599,11.2183074 C1.42946058,11.3709845 1.34854772,11.5685665 1.34854772,11.7841105 C1.34854772,11.9951641 1.42946058,12.1972366 1.58229599,12.3499136 L2.00484094,12.7720207 C1.72164592,13.2345423 1.51936376,13.7284974 1.38900415,14.253886 L0.800138313,14.253886 C0.359612725,14.253886 0,14.6131261 0,15.0531952 L0,15.9423143 C0.00449515906,16.3913644 0.359612725,16.746114 0.800138313,16.746114 L1.39799447,16.746114 C1.52385892,17.2715026 1.73063624,17.7654577 2.01383126,18.2279793 L1.59128631,18.6500864 C1.4384509,18.8027634 1.35753804,19.0003454 1.35753804,19.2158895 C1.35753804,19.426943 1.4384509,19.6290155 1.59128631,19.7816926 L2.22060858,20.4103627 C2.37344398,20.5630397 2.57123098,20.6438687 2.78699862,20.6438687 C2.99827109,20.6438687 3.20055325,20.5630397 3.35338866,20.4103627 L3.77593361,19.9882556 C4.23893499,20.2711572 4.73340249,20.4732297 5.2593361,20.6034542 L5.2593361,21.2006908 C5.2593361,21.6407599 5.61894882,22 6.05947441,22 L6.94951591,22 C7.39004149,22 7.74965422,21.6407599 7.74965422,21.2006908 L7.74965422,20.5989637 C8.27558783,20.4732297 8.77005533,20.2666667 9.23305671,19.9837651 L9.65560166,20.4058722 C9.80843707,20.5585492 10.0062241,20.6393782 10.2219917,20.6393782 C10.4377593,20.6393782 10.6355463,20.5585492 10.7883817,20.4058722 L11.417704,19.7772021 C11.5705394,19.624525 11.6514523,19.426943 11.6514523,19.211399 C11.6514523,19.0003454 11.5705394,18.7982729 11.417704,18.6455959 L10.9951591,18.2234888 C11.2783541,17.7609672 11.4806362,17.2670121 11.6109959,16.7416235 L12.1998617,16.7416235 C12.6403873,16.7416235 13,16.3823834 13,15.9423143 L13,15.0531952 C13,14.6131261 12.6403873,14.253886 12.1998617,14.253886 Z M12.4605809,15.9512953 C12.4605809,16.0949914 12.3437068,16.2117444 12.1998617,16.2117444 L11.3817427,16.2117444 C11.2513831,16.2117444 11.1434993,16.3015544 11.1165284,16.4272884 C10.9951591,17.033506 10.7614108,17.6037997 10.4152835,18.1157168 C10.343361,18.2234888 10.3568465,18.3671848 10.4467497,18.4569948 L11.0266252,19.0362694 C11.0760719,19.0856649 11.1030429,19.148532 11.1030429,19.22038 C11.1030429,19.2877375 11.0760719,19.355095 11.0266252,19.4044905 L10.3973029,20.0331606 C10.3478562,20.0825561 10.2849239,20.1094991 10.2130014,20.1094991 C10.1410788,20.1094991 10.0781466,20.0825561 10.0286999,20.0331606 L9.44882434,19.453886 C9.35892116,19.364076 9.21507607,19.3506045 9.10719225,19.4224525 C8.59024896,19.7682211 8.02385892,20.0017271 7.41701245,20.1229706 C7.29114799,20.1499136 7.20124481,20.2576857 7.20124481,20.3879102 L7.20124481,21.2051813 C7.20124481,21.3488774 7.08437068,21.4656304 6.94052559,21.4656304 L6.05048409,21.4656304 C5.906639,21.4656304 5.78976487,21.3488774 5.78976487,21.2051813 L5.78976487,20.3879102 C5.78976487,20.2576857 5.69986169,20.1499136 5.57399723,20.1229706 C4.96715076,20.0017271 4.39626556,19.7682211 3.88381743,19.4224525 C3.83886584,19.391019 3.78492393,19.3775475 3.73547718,19.3775475 C3.66804979,19.3775475 3.59612725,19.4044905 3.5466805,19.4583765 L2.96680498,20.0376511 C2.91735823,20.0870466 2.854426,20.1139896 2.78250346,20.1139896 C2.71507607,20.1139896 2.64764869,20.0870466 2.59820194,20.0376511 L1.96887967,19.408981 C1.91943292,19.3595855 1.89246196,19.2967185 1.89246196,19.2248705 C1.89246196,19.157513 1.91943292,19.0901554 1.96887967,19.0407599 L2.54875519,18.4614853 C2.63865837,18.3716753 2.65214385,18.2279793 2.5802213,18.1202073 C2.23409405,17.6037997 2.00034578,17.0379965 1.87897649,16.4317789 C1.85200553,16.3060449 1.74412172,16.2162349 1.6137621,16.2162349 L0.800138313,16.2162349 C0.656293223,16.2162349 0.539419087,16.0994819 0.539419087,15.9557858 L0.539419087,15.0621762 L0.543914246,15.0621762 C0.543914246,14.9184801 0.660788382,14.8017271 0.804633472,14.8017271 L1.62275242,14.8017271 C1.75311203,14.8017271 1.86099585,14.7119171 1.8879668,14.5861831 C2.0093361,13.9799655 2.24308437,13.4096718 2.58921162,12.8977547 C2.66113416,12.7899827 2.64764869,12.6462867 2.5577455,12.5564767 L1.97337483,11.9772021 C1.92392808,11.9278066 1.89695712,11.8649396 1.89695712,11.7930915 C1.89695712,11.725734 1.92392808,11.6583765 1.97337483,11.608981 L2.6026971,10.9803109 C2.65214385,10.9309154 2.71507607,10.9039724 2.78699862,10.9039724 C2.854426,10.9039724 2.92185339,10.9309154 2.97130014,10.9803109 L3.55117566,11.5595855 C3.64107884,11.6493955 3.78492393,11.662867 3.89280775,11.591019 C4.40975104,11.2452504 4.97614108,11.0117444 5.58298755,10.8905009 C5.70885201,10.8635579 5.79875519,10.7557858 5.79875519,10.6255613 L5.79875519,9.80829016 C5.79875519,9.66459413 5.91562932,9.54784111 6.05947441,9.54784111 L6.94951591,9.54784111 C7.093361,9.54784111 7.21023513,9.66459413 7.21023513,9.80829016 L7.21023513,10.6300518 C7.21023513,10.7602763 7.30013831,10.8680484 7.42600277,10.8949914 C8.03284924,11.0162349 8.60373444,11.2497409 9.11618257,11.5955095 C9.22406639,11.6673575 9.36791148,11.653886 9.45781466,11.564076 L10.0376902,10.9848014 C10.0871369,10.9354059 10.1500692,10.9084629 10.2219917,10.9084629 C10.2939142,10.9084629 10.3568465,10.9354059 10.4062932,10.9848014 L11.0356155,11.6134715 C11.0850622,11.662867 11.1120332,11.725734 11.1120332,11.797582 C11.1120332,11.8649396 11.0850622,11.9322971 11.0356155,11.9816926 L10.4467497,12.5564767 C10.3568465,12.6462867 10.343361,12.7899827 10.4152835,12.8977547 C10.7614108,13.4141623 10.9951591,13.9799655 11.1165284,14.5861831 C11.1434993,14.7119171 11.2513831,14.8017271 11.3817427,14.8017271 L12.1998617,14.8017271 C12.3437068,14.8017271 12.4605809,14.9184801 12.4605809,15.0621762 L12.4605809,15.9512953 Z"/>
  </g>
</svg>
