<?xml version="1.0" encoding="UTF-8"?>
<svg width="54px" height="45px" viewBox="0 0 54 45" version="1.1" xmlns="http://www.w3.org/2000/svg" xmlns:xlink="http://www.w3.org/1999/xlink">
    <!-- Generator: Sketch 52 (66869) - http://www.bohemiancoding.com/sketch -->
    <title>Manage_shipments</title>
    <desc>Created with Sketch.</desc>
    <g id="New-Option" stroke="none" stroke-width="1" fill="none" fill-rule="evenodd">
        <g id="03_DGFT---Personal-Details" transform="translate(-158.000000, -333.000000)" fill="#000000" fill-rule="nonzero" stroke="#000000" stroke-width="0.5">
            <g id="Manage_shipments" transform="translate(159.000000, 334.000000)">
                <path d="M21.3160544,3.68674699 C16.4552906,-1.22891566 8.52761649,-1.22891566 3.66685278,3.68674699 C-0.383783646,7.78313253 -1.19391093,14.16179 1.81513327,19.1944923 L12.0574568,33.7659208 C12.1731893,33.9414802 12.346788,34 12.5203867,34 C12.6939854,34 12.8675841,33.8829604 12.9833166,33.7659208 L23.1677739,19.1359725 C26.1768181,14.16179 25.424557,7.84165232 21.3160544,3.68674699 Z M22.2419141,18.4922547 L12.5203867,32.4199656 L2.85672549,18.5507745 C0.137012466,14.0447504 0.831407282,8.25129088 4.5348463,4.5060241 C6.73376322,2.28227194 9.62707495,1.17039587 12.5203867,1.17039587 C15.4136984,1.17039587 18.3070101,2.28227194 20.5059271,4.5060241 C24.2093661,8.25129088 24.9037609,14.0447504 22.2419141,18.4922547 Z" id="Shape"></path>
                <path d="M12.5,8 C10.0304878,8 8,10.2560976 8,13 C8,15.7439024 10.0304878,18 12.5,18 C14.9695122,18 17,15.7439024 17,13 C17,10.2560976 14.9695122,8 12.5,8 Z M12.5,16.8414634 C10.6341463,16.8414634 9.09756098,15.1341463 9.09756098,13.0609756 C9.09756098,10.9878049 10.6341463,9.2804878 12.5,9.2804878 C14.3658537,9.2804878 15.902439,10.9878049 15.902439,13.0609756 C15.902439,15.1341463 14.3658537,16.8414634 12.5,16.8414634 Z" id="Shape"></path>
                <path d="M48.3587715,3.68674699 C43.5543706,-1.22891566 35.7186216,-1.22891566 30.9142208,3.68674699 C30.6854398,3.92082616 30.6854398,4.27194492 30.9142208,4.5060241 C31.1430018,4.74010327 31.4861733,4.74010327 31.7149543,4.5060241 C36.0617931,0.0585197935 43.1540039,0.0585197935 47.558038,4.5060241 C51.2185339,8.25129088 51.9048768,13.9862306 49.2167002,18.4922547 L39.6650938,32.4199656 L30.0562921,18.4922547 C29.8847063,18.1996558 29.5415349,18.141136 29.2555586,18.3752151 C28.9695824,18.5507745 28.9123871,18.9018933 29.1411681,19.1944923 L39.2075318,33.7659208 C39.3219223,33.9414802 39.493508,34 39.6650938,34 C39.8366795,34 40.0082652,33.8829604 40.1226557,33.7659208 L50.1890194,19.1359725 C53.1631723,14.16179 52.4196341,7.84165232 48.3587715,3.68674699 Z" id="Shape"></path>
                <path d="M38.5,18 C40.9695122,18 43,15.7439024 43,13 C43,10.2560976 40.9695122,8 38.5,8 C36.0304878,8 34,10.2560976 34,13 C34,15.7439024 36.0304878,18 38.5,18 Z M35.097561,12.9390244 C35.097561,10.8658537 36.6341463,9.15853659 38.5,9.15853659 C40.3658537,9.15853659 41.902439,10.8658537 41.902439,12.9390244 C41.902439,15.0121951 40.3658537,16.7195122 38.5,16.7195122 C36.6341463,16.7804878 35.097561,15.0731707 35.097561,12.9390244 Z" id="Shape"></path>
                <circle id="Oval" cx="12" cy="42" r="1"></circle>
                <circle id="Oval" cx="19" cy="42" r="1"></circle>
                <circle id="Oval" cx="26" cy="42" r="1"></circle>
                <circle id="Oval" cx="33" cy="42" r="1"></circle>
                <circle id="Oval" cx="40" cy="42" r="1"></circle>
            </g>
        </g>
    </g>
</svg>