<svg xmlns="http://www.w3.org/2000/svg" width="20" height="19" viewBox="0 0 20 19">
  <path fill="#A1A1A1" stroke="#A1A1A1" stroke-width=".5" d="M1169.8938,15.9309915 C1170.25466,15.5806 1170.38205,15.066351 1170.2264,14.5883117 C1170.07038,14.1102723 1169.66398,13.7690246 1169.16471,13.6966055 L1164.72562,13.0539772 C1164.53656,13.0265457 1164.37319,12.9084074 1164.28876,12.7376007 L1162.30416,8.73004331 C1162.08132,8.27980117 1161.62904,8 1161.125,8 C1160.62132,8 1160.16904,8.27980117 1159.94621,8.73004331 L1157.96124,12.7376007 C1157.87681,12.9084074 1157.71308,13.0265457 1157.52402,13.0539772 L1153.08492,13.6969712 C1152.58602,13.7690246 1152.17962,14.1102723 1152.0236,14.5883117 C1151.86795,15.066351 1151.99534,15.5806 1152.3562,15.9309915 L1155.56805,19.0501345 C1155.70498,19.1832686 1155.76776,19.3749233 1155.73545,19.5621889 L1154.97737,23.9669542 C1154.8922,24.4618182 1155.09228,24.9522932 1155.50014,25.2478218 C1155.90763,25.5437161 1156.4381,25.5821201 1156.88488,25.3476724 L1160.85481,23.2679999 C1161.02404,23.1794876 1161.22596,23.1794876 1161.39519,23.2679999 L1165.36549,25.3476724 C1165.55932,25.4493517 1165.76931,25.4994599 1165.9782,25.4994599 C1166.24949,25.4994599 1166.51969,25.414971 1166.75023,25.2478218 C1167.15809,24.9522932 1167.35816,24.4618182 1167.273,23.9669542 L1166.51455,19.5625546 C1166.48224,19.3749233 1166.54502,19.1836344 1166.68195,19.0505002 L1169.8938,15.9309915 Z M1165.79134,19.6861792 L1166.54942,24.0905788 C1166.5876,24.3122252 1166.50133,24.5239963 1166.31851,24.6563989 C1166.13532,24.7884358 1165.90735,24.8045289 1165.70727,24.700655 L1161.73697,22.6206168 C1161.54571,22.5207662 1161.33499,22.4702923 1161.125,22.4702923 C1160.91501,22.4702923 1160.70466,22.5207662 1160.51303,22.6209826 L1156.54346,24.700655 C1156.34265,24.8045289 1156.11468,24.7884358 1155.93186,24.6563989 C1155.74904,24.5239963 1155.66313,24.3125909 1155.70095,24.0905788 L1156.45903,19.6861792 C1156.53208,19.261174 1156.39075,18.8273908 1156.08091,18.5267417 L1152.86869,15.407233 C1152.70679,15.2499591 1152.65173,15.0283127 1152.72185,14.8143471 C1152.7916,14.6000158 1152.96671,14.452983 1153.19028,14.420431 L1157.62901,13.7778027 C1158.05743,13.7159904 1158.42784,13.4482591 1158.61911,13.0612922 L1160.60407,9.05373485 C1160.70392,8.85183911 1160.89886,8.73150632 1161.12463,8.73150632 C1161.35077,8.73150632 1161.54534,8.85183911 1161.64556,9.05373485 L1163.63053,13.0612922 C1163.82179,13.4482591 1164.19184,13.7159904 1164.62026,13.7778027 L1169.05935,14.420431 C1169.28292,14.452983 1169.45804,14.6000158 1169.52779,14.8143471 C1169.59754,15.0283127 1169.54284,15.2499591 1169.38094,15.407233 L1166.16909,18.5263759 C1165.85925,18.8273908 1165.71792,19.2608083 1165.79134,19.6861792 Z" transform="translate(-1151 -7)"/>
</svg>
