<svg xmlns="http://www.w3.org/2000/svg" width="19" height="15" viewBox="0 0 19 15">
  <path fill="#A1A1A1" d="M1.0334 1.96702002L17.2999333 1.96702002C17.7193045 1.96702002 18.0624264 1.54564193 18.0624264 1.03062426 18.0624264.515606596 17.7193045.0942285041 17.2999333.0942285041L1.0334.0942285041C.614028822.0942285041.270906949.515606596.270906949 1.03062426.270906949 1.54564193.614028822 1.96702002 1.0334 1.96702002zM1.0334 8.05359246L17.2999333 8.05359246C17.7193045 8.05359246 18.0624264 7.63221437 18.0624264 7.1171967 18.0624264 6.60217903 17.7193045 6.18080094 17.2999333 6.18080094L1.0334 6.18080094C.614028822 6.18080094.270906949 6.60217903.270906949 7.1171967.270906949 7.63221437.614028822 8.05359246 1.0334 8.05359246zM1.0334 14.1401649L17.2999333 14.1401649C17.7193045 14.1401649 18.0624264 13.7187868 18.0624264 13.2037691 18.0624264 12.6887515 17.7193045 12.2673734 17.2999333 12.2673734L1.0334 12.2673734C.614028822 12.2673734.270906949 12.6887515.270906949 13.2037691.270906949 13.7187868.614028822 14.1401649 1.0334 14.1401649z" transform="translate(.542)"/>
</svg>
