<svg width="129" height="129" xmlns="http://www.w3.org/2000/svg">

 <g>
  <title>background</title>
  <rect fill="none" id="canvas_background" height="402" width="582" y="-1" x="-1"/>
 </g>
 <g>
  <title>Layer 1</title>
  <g transform="rotate(-90 64.4499969482422,48.50000000000001) " id="svg_1">
   <path stroke-width="2" stroke="#666666" fill="#666666" id="svg_2" d="m40.4,105.3c-0.8,0.8 -1.8,1.2 -2.9,1.2s-2.1,-0.4 -2.9,-1.2c-1.6,-1.6 -1.6,-4.2 0,-5.8l51,-51l-51,-51c-1.6,-1.6 -1.6,-4.2 0,-5.8c1.6,-1.6 4.2,-1.6 5.8,0l53.9,53.9c1.6,1.6 1.6,4.2 0,5.8l-53.9,53.9z"/>
  </g>
  <g transform="rotate(-90 64.4499969482422,82.5) " id="svg_4">
   <path stroke-width="2" stroke="#666666" fill="#666666" id="svg_3" d="m40.4,139.3c-0.8,0.8 -1.8,1.2 -2.9,1.2s-2.1,-0.4 -2.9,-1.2c-1.6,-1.6 -1.6,-4.2 0,-5.8l51,-51l-51,-51c-1.6,-1.6 -1.6,-4.2 0,-5.8c1.6,-1.6 4.2,-1.6 5.8,0l53.9,53.9c1.6,1.6 1.6,4.2 0,5.8l-53.9,53.9z"/>
  </g>
 </g>
</svg>