<?xml version="1.0" encoding="utf-8"?>
<!-- Generator: Adobe Illustrator 16.0.0, SVG Export Plug-In . SVG Version: 6.00 Build 0)  -->
<!DOCTYPE svg PUBLIC "-//W3C//DTD SVG 1.1//EN" "http://www.w3.org/Graphics/SVG/1.1/DTD/svg11.dtd">
<svg version="1.1" id="Layer_1" xmlns="http://www.w3.org/2000/svg" xmlns:xlink="http://www.w3.org/1999/xlink" x="0px" y="0px"
	 width="24px" height="22px" viewBox="0 0 24 22" enable-background="new 0 0 24 22" xml:space="preserve">
<title>Language_change</title>
<desc>Created with Sketch.</desc>
<g id="New-Option">
	<g id="_x30_1_x5F_DGFT---Login" transform="translate(-1055.000000, -30.000000)">
		<g id="Group-3" transform="translate(134.000000, 24.000000)">
			<g id="Language_change" transform="translate(921.175824, 6.000000)">
				<path id="Shape" fill="#FFFFFF" d="M15.985,12h-0.03c-0.119,0.586-0.269,1.334-0.418,1.919L15,16h2l-0.566-2.081
					C16.283,13.334,16.135,12.586,15.985,12z"/>
				<path id="Shape_1_" fill="#FFFFFF" d="M22.771,8H9.228C9.086,8,9,8.114,9,8.228v13.543C9,21.886,9.086,22,9.228,22h13.543
					C22.914,22,23,21.886,23,21.771V8.228C23,8.114,22.914,8,22.771,8z M17.857,19.32l-0.686-2.225h-2.486l-0.6,2.225h-2.029
					l2.628-8.64h2.572l2.686,8.64H17.857z"/>
				<path id="Shape_2_" fill="#FFFFFF" d="M14,0h4.244c1.02,0,1.874,0.871,1.874,1.975v2.208H21l-0.717,1.423L19.566,7l-0.716-1.394
					l-0.744-1.423h0.882V1.975c0-0.436-0.33-0.784-0.744-0.784H14V0z"/>
				<path id="Shape_3_" fill="#FFFFFF" d="M9,22H3.896c-1.089,0-1.979-0.896-1.979-1.967v-2.198H1l0.774-1.417L2.519,15l0.746,1.418
					l0.746,1.417H3.122v2.198c0,0.434,0.344,0.781,0.774,0.781H9V22z"/>
				<path id="Combined-Shape" fill="#FFFFFF" d="M5.083,4.647H4.689V3.997c0-0.669,0.42-1.009,1.13-1.009
					c1.191,0,1.962,0.594,2.426,1.208l0.779-0.802C8.666,2.884,7.588,1.855,5.836,1.855c-1.401,0-2.382,0.755-2.382,2.151v0.641
					h-0.92v1.028h0.92v5.302h1.235V5.676h0.395H8.14v0.566h-1.06c-0.815,0-1.314,0.443-1.314,1.094c0,0.481,0.21,0.896,0.701,1.208
					C6.091,8.864,5.872,9.298,5.872,9.77c0,1.334,1.19,2.016,2.64,2.24c-0.137,0.504-0.21,1.033-0.21,1.58V14H2
					c-1.104,0-2-0.896-2-2V2c0-1.104,0.896-2,2-2h9c1.104,0,2,0.896,2,2v5.732c-1.355,0.299-2.538,1.057-3.377,2.102
					c0.026-0.12,0.042-0.248,0.042-0.385c0-0.755-0.526-1.462-1.516-1.462c-0.298,0-0.569,0.038-0.814,0.113
					C7.081,7.968,6.958,7.77,6.958,7.591c0-0.188,0.096-0.321,0.42-0.321h1.953V5.676h0.963V4.647H5.083z M8.918,10.938
					c-1.497-0.194-1.855-0.63-1.855-1.121c0-0.472,0.42-0.811,1.086-0.811c0.263,0,0.438,0.123,0.438,0.33
					c0,0.264-0.175,0.481-0.376,0.698l0.89,0.563C9.036,10.708,8.975,10.822,8.918,10.938z"/>
			</g>
		</g>
	</g>
</g>
</svg>
