<?xml version="1.0" encoding="utf-8"?>
<!-- Generator: Adobe Illustrator 16.0.0, SVG Export Plug-In . SVG Version: 6.00 Build 0)  -->
<!DOCTYPE svg PUBLIC "-//W3C//DTD SVG 1.1//EN" "http://www.w3.org/Graphics/SVG/1.1/DTD/svg11.dtd">
<svg version="1.1" id="Layer_1" xmlns="http://www.w3.org/2000/svg" xmlns:xlink="http://www.w3.org/1999/xlink" x="0px" y="0px"
	 width="23.824px" height="22px" viewBox="0 0 23.824 22" enable-background="new 0 0 23.824 22" xml:space="preserve">
<title>Twitter</title>
<desc>Created with Sketch.</desc>
<g id="New-Option">
	<g id="_x30_1_x5F_DGFT---Login" transform="translate(-1112.000000, -30.000000)">
		<g id="Group-3" transform="translate(134.000000, 24.000000)">
			<path id="Twitter" fill="#FFFFFF" d="M1001.801,9.569c-0.892,0.447-1.782,0.595-2.823,0.744c1.041-0.595,1.784-1.487,2.08-2.676
				c-0.891,0.594-1.933,0.892-3.12,1.189c-0.892-0.892-2.229-1.486-3.566-1.486c-2.527,0-4.756,2.229-4.756,4.904
				c0,0.445,0,0.743,0.148,1.041c-4.013-0.149-7.728-2.082-10.105-5.054c-0.446,0.744-0.594,1.486-0.594,2.527
				c0,1.635,0.891,3.121,2.229,4.012c-0.743,0-1.486-0.297-2.229-0.594l0,0c0,2.378,1.635,4.31,3.863,4.755
				c-0.446,0.148-0.892,0.148-1.338,0.148c-0.297,0-0.594,0-0.891-0.148c0.594,1.932,2.377,3.42,4.606,3.42
				c-1.635,1.336-3.716,2.078-6.094,2.078h-1.188c2.229,1.34,4.756,2.23,7.431,2.23c8.917,0,13.82-7.43,13.82-13.821v-0.594
				C1000.315,11.501,1001.207,10.61,1001.801,9.569L1001.801,9.569z"/>
		</g>
	</g>
</g>
</svg>
