<svg xmlns="http://www.w3.org/2000/svg" width="24" height="30" viewBox="0 0 24 30">
  <g fill="#404040">
    <path d="M13.9805621,12.1875 C13.9805621,11.9348439 13.7759525,11.7301878 13.5232508,11.7301878 L9.91426078,11.7301878 C9.66154664,11.7301878 9.45693788,11.9348439 9.45693788,12.1875 L9.45693788,16.8864369 L6.5625,16.8864369 C6.37754292,16.8864369 6.2109375,16.9977182 6.13996894,17.1689057 C6.06900038,17.3396248 6.10837519,17.5365007 6.23929739,17.6669526 L11.3955465,22.8232026 C11.4848435,22.912454 11.6015625,22.9573131 11.71875,22.9573131 C11.8359375,22.9573131 11.9526565,22.912454 12.0419168,22.8232026 L17.1981668,17.6669526 C17.3290783,17.5365007 17.3684531,17.3396248 17.2974837,17.1689057 C17.2265625,16.9977182 17.0599222,16.8864369 16.875,16.8864369 L13.9805621,16.8864369 L13.9805621,12.1875 Z M15.7708597,17.8010631 L11.71875,21.8532193 L7.66660542,17.8010631 L9.91426083,17.8010631 C10.1669178,17.8010631 10.3715623,17.5964535 10.3715623,17.34375 L10.3715623,12.6448122 L13.0659378,12.6448122 L13.0659378,17.34375 C13.0659378,17.5964534 13.2705474,17.8010631 13.5232508,17.8010631 L15.7708597,17.8010631 Z" transform="matrix(1 0 0 -1 0 34.688)"/>
    <path d="M23.27236,7.40367206 L15.9930932,0.13734375 C15.9052026,0.049453125 15.7790154,0 15.6547505,0 L1.45004241,0.0009375 C0.677109797,0.0009375 1.87499996e-07,0.62990625 1.87499996e-07,1.4030625 L1.87499996e-07,28.532203 C1.87499996e-07,28.9240326 0.197297203,29.2925627 0.474703594,29.5703913 C0.75210975,29.8473751 1.16531297,30 1.55714081,30 L21.9871402,30 C22.3597491,30 22.7377027,29.8549211 23.0013746,29.5912493 C23.264578,29.3275774 23.4375,28.9773756 23.4375,28.6051869 L23.4375,7.73507775 C23.4375,7.61081278 23.3602506,7.49156269 23.27236,7.40367206 Z M15.5078548,0.991640625 L22.0153588,7.5 L15.4907817,7.5 C15.5310935,3.58701558 15.5330157,1.81889063 15.5078548,0.991640625 Z M22.5,28.6051869 C22.5,28.7256092 22.4232191,28.8434529 22.3383272,28.9286256 C22.2520316,29.0149212 22.1093899,29.0625 21.9871402,29.0625 L1.55714081,29.0625 C1.41548484,29.0625 1.23759403,29.0073752 1.13756287,28.9075774 C1.03729697,28.8070786 0.937500469,28.6738586 0.937500469,28.5322022 L0.937500469,1.40306255 C0.937500469,1.1469375 1.19043769,0.938437547 1.44656273,0.938437547 L14.5513594,0.93759375 C14.5742816,2.1197813 14.5614839,5.66826567 14.537074,7.96373414 C14.5357025,8.08893698 14.5900423,8.20954697 14.6781671,8.29837458 C14.766292,8.38739095 14.8918122,8.4375 15.017016,8.4375 L22.5,8.4375 L22.5,28.6051869 Z"/>
  </g>
</svg>
