<?xml version="1.0" encoding="UTF-8"?>
<svg width="18px" height="17px" viewBox="0 0 18 17" version="1.1" xmlns="http://www.w3.org/2000/svg" xmlns:xlink="http://www.w3.org/1999/xlink">
    <!-- Generator: Sketch 52.2 (67145) - http://www.bohemiancoding.com/sketch -->
    <title>Upload</title>
    <desc>Created with Sketch.</desc>
    <g id="Page-1" stroke="none" stroke-width="1" fill="none" fill-rule="evenodd">
        <g id="08_Account-Opening-Form_upload" transform="translate(-1039.000000, -524.000000)" fill="#757575" fill-rule="nonzero" stroke="#757575" stroke-width="0.5">
            <g id="Upload" transform="translate(1040.000000, 525.000000)">
                <path d="M15.6376065,7.64881725 C15.3813643,7.64881725 15.1763706,7.8584269 15.1763706,8.12043896 L15.1763706,12.4104497 C15.1763706,13.5772768 14.2470656,14.5240137 13.1093503,14.5240137 L2.98949218,14.5240137 C1.84836031,14.5240137 0.922471873,13.5737833 0.922471873,12.4104497 L0.922471873,8.05056907 C0.922471873,7.78855702 0.717478124,7.57894737 0.461235937,7.57894737 C0.20499375,7.57894737 1.32871492e-12,7.78855702 1.32871492e-12,8.05056907 L1.32871492e-12,12.4104497 C1.32871492e-12,14.0978074 1.34270906,15.4672571 2.98949218,15.4672571 L13.1093503,15.4672571 C14.75955,15.4672571 16.0988425,14.0943139 16.0988425,12.4104497 L16.0988425,8.12043896 C16.0988425,7.86192039 15.8938487,7.64881725 15.6376065,7.64881725 Z" id="Shape"></path>
                <path d="M8.12326712,11.5110631 C8.21209775,11.6018939 8.33167743,11.6508029 8.44784056,11.6508029 C8.56400368,11.6508029 8.68358337,11.6053874 8.77241399,11.5110631 L11.7038246,8.51364515 C11.8849024,8.32848996 11.8849024,8.03154296 11.7038246,7.84638778 C11.5227468,7.66123259 11.232339,7.66123259 11.0512612,7.84638778 L8.90907649,10.0403021 L8.90907649,0.471621705 C8.90907649,0.209609647 8.70408274,-1.98063788e-13 8.44784056,-1.98063788e-13 C8.19159837,-1.98063788e-13 7.98660462,0.209609647 7.98660462,0.471621705 L7.98660462,10.0403021 L5.84100337,7.84638778 C5.65992556,7.66123259 5.36951775,7.66123259 5.18843994,7.84638778 C5.00736213,8.03154296 5.00736213,8.32848996 5.18843994,8.51364515 L8.12326712,11.5110631 Z" id="Shape" transform="translate(8.446132, 5.825401) scale(1, -1) translate(-8.446132, -5.825401) "></path>
            </g>
        </g>
    </g>
</svg>