<?xml version="1.0" encoding="UTF-8"?>
<svg width="20px" height="19px" viewBox="0 0 20 19" version="1.1" xmlns="http://www.w3.org/2000/svg" xmlns:xlink="http://www.w3.org/1999/xlink">
    <!-- Generator: Sketch 52.2 (67145) - http://www.bohemiancoding.com/sketch -->
    <title>Group</title>
    <desc>Created with Sketch.</desc>
    <g id="Symbols" stroke="none" stroke-width="1" fill="none" fill-rule="evenodd">
        <g id="Header-Bar" transform="translate(-1105.000000, -23.000000)" fill="#FFFFFF" fill-rule="nonzero">
            <g id="Group-3">
                <g id="Group" transform="translate(1105.000000, 23.000000)">
                    <path d="M18.5696578,9.08297049 C18.2653702,9.08297049 18.0219401,9.33188194 18.0219401,9.64302126 L18.0219401,14.737409 C18.0219401,16.1230162 16.9183904,17.2472662 15.5673535,17.2472662 L3.55002197,17.2472662 C2.19492787,17.2472662 1.09543535,16.1188676 1.09543535,14.737409 L1.09543535,9.56005077 C1.09543535,9.24891146 0.852005272,9 0.547717675,9 C0.243430078,9 -1.42108547e-14,9.24891146 -1.42108547e-14,9.56005077 L-1.42108547e-14,14.737409 C-1.42108547e-14,16.7411463 1.59446701,18.3673678 3.55002197,18.3673678 L15.5673535,18.3673678 C17.5269656,18.3673678 19.1173754,16.7369977 19.1173754,14.737409 L19.1173754,9.64302126 C19.1173754,9.33603046 18.8739454,9.08297049 18.5696578,9.08297049 Z" id="Shape"></path>
                    <path d="M9.64637971,13.6693874 C9.75186607,13.7772491 9.89386695,13.8353284 10.0318107,13.8353284 C10.1697544,13.8353284 10.3117553,13.7813976 10.4172416,13.6693874 L13.8982917,10.1099536 C14.1133216,9.89008183 14.1133216,9.53745727 13.8982917,9.31758548 C13.6832618,9.0977137 13.3384026,9.0977137 13.1233726,9.31758548 L10.5795283,11.9228587 L10.5795283,0.560050775 C10.5795283,0.248911455 10.3360983,-2.922107e-13 10.0318107,-2.922107e-13 C9.72752306,-2.922107e-13 9.48409299,0.248911455 9.48409299,0.560050775 L9.48409299,11.9228587 L6.93619151,9.31758548 C6.72116161,9.0977137 6.37630233,9.0977137 6.16127243,9.31758548 C5.94624252,9.53745727 5.94624252,9.89008183 6.16127243,10.1099536 L9.64637971,13.6693874 Z" id="Shape"></path>
                </g>
            </g>
        </g>
    </g>
</svg>