<?xml version="1.0" encoding="UTF-8"?>
<svg width="31px" height="27px" viewBox="0 0 31 27" version="1.1" xmlns="http://www.w3.org/2000/svg" xmlns:xlink="http://www.w3.org/1999/xlink">
    <!-- Generator: Sketch 52.2 (67145) - http://www.bohemiancoding.com/sketch -->
    <title>Group 14</title>
    <desc>Created with Sketch.</desc>
    <g id="Symbols" stroke="none" stroke-width="1" fill="none" fill-rule="evenodd">
        <g id="Header-Bar" transform="translate(-1243.000000, -14.000000)" fill="#FFFFFF">
            <g id="Group-3">
                <g id="Group-42" transform="translate(1243.000000, 12.000000)">
                    <g id="Group-14" transform="translate(0.000000, 2.000000)">
                        <path d="M9.4822544,17.2435707 C4.47927996,17.2435707 0.381785724,21.3010783 0.346163403,26.2729699 C0.345261616,26.2873053 0.345261616,26.3016829 0.346163403,26.3160184 C0.346146104,26.3232505 0.346163403,26.3301383 0.346163403,26.3373704 C0.345261616,26.3517059 0.345261616,26.3660834 0.346163403,26.3804189 C0.355279678,26.473615 0.402123513,26.5590996 0.475906706,26.6171855 C0.482796313,26.6246153 0.490011262,26.6317395 0.49753059,26.6385375 C0.508153666,26.6426251 0.518973013,26.6461881 0.529949117,26.6492135 C0.560588577,26.6647576 0.593384845,26.6756684 0.627256595,26.681586 C0.673614936,26.6911577 0.721453499,26.6911577 0.76781184,26.681586 L29.6573215,26.681586 L29.68974,26.681586 C29.7326009,26.6897289 29.7766224,26.6897289 29.8194833,26.681586 C29.8533551,26.6756684 29.8861513,26.6647576 29.9167908,26.6492135 C29.9203888,26.6492694 29.9239875,26.6492694 29.9275854,26.6492135 C29.9652021,26.6269019 29.9982223,26.5976858 30.0248929,26.5631166 C30.0327074,26.5527396 30.0399269,26.5419316 30.0465168,26.5307441 C30.0658689,26.5008671 30.0804576,26.468188 30.0897646,26.4338679 C30.0954142,26.4127336 30.0990287,26.3911117 30.1005592,26.3692952 C30.101069,26.3585103 30.101069,26.3477076 30.1005592,26.3369227 C30.1005592,26.3259023 30.1005973,26.3155707 30.1005592,26.3045503 C30.101069,26.2937654 30.101069,26.2829627 30.1005592,26.2721778 C30.0650061,21.3002518 25.9675119,17.2427441 20.9645375,17.2427441 L9.4822544,17.2427441 L9.4822544,17.2435707 Z M9.4822544,17.9323462 L20.9645375,17.9323462 C25.4960109,17.9323462 29.2145163,21.5257224 29.3978522,25.9931548 L1.04893963,25.9931548 C1.23227903,21.5257224 4.95078096,17.9323462 9.4822544,17.9323462 Z" id="Shape"></path>
                        <path d="M15.2745726,-4.36911278e-13 C11.1228588,-4.36911278e-13 7.75,3.35735013 7.75,7.48989643 C7.75,11.6191745 11.1228588,14.9762284 15.2745726,14.9762284 C19.4230576,14.9762284 22.7957919,11.6191745 22.7957919,7.48989643 C22.7957919,3.35735013 19.4230576,-4.76063633e-13 15.2745726,-4.76063633e-13 Z M15.2745726,0.68877551 C19.0488053,0.68877551 22.1038276,3.72957474 22.1038276,7.48989643 C22.1038276,11.2466261 19.0488053,14.2874529 15.2745726,14.2874529 C11.4967929,14.2874529 8.44196429,11.2466261 8.44196429,7.48989643 C8.44196429,3.72957474 11.4967929,0.68877551 15.2745726,0.68877551 Z" id="Shape"></path>
                    </g>
                </g>
            </g>
        </g>
    </g>
</svg>