<?xml version="1.0" encoding="utf-8"?>
<!-- Generator: Adobe Illustrator 16.0.0, SVG Export Plug-In . SVG Version: 6.00 Build 0)  -->
<!DOCTYPE svg PUBLIC "-//W3C//DTD SVG 1.1//EN" "http://www.w3.org/Graphics/SVG/1.1/DTD/svg11.dtd">
<svg version="1.1" id="Layer_1" xmlns="http://www.w3.org/2000/svg" xmlns:xlink="http://www.w3.org/1999/xlink" x="0px" y="0px"
	 width="23.824px" height="22px" viewBox="-0.365 0 23.824 22" enable-background="new -0.365 0 23.824 22" xml:space="preserve">
<title>Youtube</title>
<desc>Created with Sketch.</desc>
<g id="New-Option">
	<g id="_x30_1_x5F_DGFT---Login" transform="translate(-1173.000000, -30.000000)">
		<g id="Group-3" transform="translate(134.000000, 24.000000)">
			<g id="Youtube" transform="translate(1037.967033, 6.000000)">
				<path id="Shape" fill="#FFFFFF" d="M22.986,11.139c-0.265-0.99-1.202-1.721-2.331-1.83c-2.672-0.258-5.378-0.259-8.071-0.258
					c-2.693-0.001-5.399,0-8.072,0.258c-1.128,0.109-2.065,0.839-2.329,1.83c-0.375,1.409-0.38,2.948-0.38,4.401
					c0,1.451,0,2.99,0.376,4.401c0.263,0.989,1.2,1.721,2.329,1.828c2.672,0.259,5.378,0.26,8.072,0.259
					c2.693,0.001,5.397,0,8.071-0.259c1.128-0.107,2.066-0.839,2.33-1.828c0.374-1.411,0.376-2.95,0.376-4.401
					C23.357,14.087,23.362,12.548,22.986,11.139L22.986,11.139z M7.951,12.231h-1.56v7.16h-1.45v-7.16H3.41v-1.173h4.541V12.231
					L7.951,12.231z M11.887,19.392h-1.304v-0.676c-0.519,0.512-1.01,0.762-1.489,0.762c-0.42,0-0.708-0.147-0.839-0.462
					c-0.071-0.188-0.115-0.483-0.115-0.923v-4.91h1.303v4.572c0,0.264,0,0.4,0.012,0.438c0.031,0.175,0.13,0.263,0.305,0.263
					c0.262,0,0.534-0.174,0.823-0.526v-4.746h1.304L11.887,19.392L11.887,19.392L11.887,19.392z M16.836,17.528
					c0,0.574-0.045,0.988-0.132,1.252c-0.173,0.462-0.523,0.697-1.04,0.697c-0.465,0-0.912-0.222-1.347-0.687v0.601h-1.303v-8.333
					h1.303v2.722c0.422-0.447,0.867-0.675,1.347-0.675c0.517,0,0.867,0.236,1.04,0.701c0.089,0.25,0.132,0.661,0.132,1.249V17.528
					L16.836,17.528z M21.752,16.492h-2.605v1.102c0,0.575,0.219,0.861,0.666,0.861c0.32,0,0.508-0.15,0.581-0.451
					c0.014-0.062,0.031-0.311,0.031-0.763h1.327v0.164c0,0.363-0.016,0.613-0.026,0.726c-0.045,0.248-0.146,0.475-0.305,0.673
					c-0.361,0.452-0.895,0.675-1.576,0.675c-0.681,0-1.199-0.212-1.575-0.637c-0.277-0.31-0.42-0.801-0.42-1.46v-2.175
					c0-0.663,0.126-1.15,0.402-1.464c0.376-0.424,0.895-0.636,1.561-0.636c0.653,0,1.172,0.212,1.537,0.636
					c0.272,0.313,0.404,0.801,0.404,1.464v1.285H21.752L21.752,16.492z"/>
				<path id="Shape_1_" fill="#FFFFFF" d="M20.054,14.12c-0.605,0-0.908,0.315-0.908,0.948v0.633h1.808v-0.633
					C20.954,14.436,20.651,14.12,20.054,14.12L20.054,14.12z"/>
				<path id="Shape_2_" fill="#FFFFFF" d="M15.282,14.12c-0.318,0-0.643,0.087-0.965,0.273v3.785
					c0.322,0.188,0.646,0.276,0.965,0.276c0.56,0,0.843-0.276,0.843-0.838v-2.65C16.125,14.407,15.842,14.12,15.282,14.12
					L15.282,14.12z"/>
				<path id="Shape_3_" fill="#FFFFFF" d="M15.694,8.479c0.48,0,0.979-0.252,1.505-0.771v0.685h1.316V2.117h-1.316v4.796
					c-0.292,0.356-0.568,0.532-0.832,0.532c-0.178,0-0.281-0.089-0.31-0.266c-0.015-0.038-0.015-0.176-0.015-0.442v-4.62H14.73
					v4.962c0,0.443,0.043,0.743,0.117,0.934C14.979,8.33,15.27,8.479,15.694,8.479L15.694,8.479z"/>
				<path id="Shape_4_" fill="#FFFFFF" d="M6.529,4.982v3.411h1.46V4.982l1.756-5.01H8.269L7.273,3.278L6.236-0.028H4.701
					c0.307,0.78,0.628,1.565,0.935,2.347C6.104,3.492,6.397,4.377,6.529,4.982L6.529,4.982z"/>
				<path id="Shape_5_" fill="#FFFFFF" d="M11.702,8.479c0.659,0,1.172-0.215,1.535-0.643c0.276-0.314,0.408-0.809,0.408-1.476
					V4.163c0-0.671-0.132-1.161-0.408-1.479c-0.363-0.429-0.876-0.643-1.535-0.643c-0.656,0-1.169,0.214-1.533,0.643
					C9.889,3.002,9.757,3.492,9.757,4.163V6.36c0,0.667,0.133,1.162,0.412,1.476C10.533,8.264,11.046,8.479,11.702,8.479
					L11.702,8.479z M11.073,3.935c0-0.581,0.204-0.87,0.629-0.87c0.424,0,0.627,0.289,0.627,0.87v2.64c0,0.58-0.203,0.87-0.627,0.87
					c-0.425,0-0.629-0.29-0.629-0.87V3.935L11.073,3.935z"/>
			</g>
		</g>
	</g>
</g>
</svg>
