<?xml version="1.0" encoding="utf-8"?>
<!-- Generator: Adobe Illustrator 23.0.1, SVG Export Plug-In . SVG Version: 6.00 Build 0)  -->
<svg version="1.1" id="Layer_1" xmlns="http://www.w3.org/2000/svg" xmlns:xlink="http://www.w3.org/1999/xlink" x="0px" y="0px"
	 viewBox="0 0 30 30" style="enable-background:new 0 0 30 30;" xml:space="preserve">
<style type="text/css">
	.st0{fill:#979797;}
	.st1{fill:none;}
</style>
<title>Collateral Details</title>
<g id="Page-1">
	<g id="Collateral-Details">
		<g id="Group-2-Copy-2">
			<g transform="translate(4.000000, 2.000000)">
				<g id="Combined-Shape">
					<path class="st0" d="M12,7V0l7,6.7L12,7z M13,2.3V6l3.6-0.2L13,2.3z"/>
				</g>
				<g>
					<path class="st0" d="M13,26H0V0h12.3L19,6.7V18h-6V26z M1,25h11v-8h6V7.1L11.9,1H1V25z"/>
				</g>
				<g id="Rectangle">
					<path class="st0" d="M22,26H12v-9h10V26z M13,25h8v-7h-8V25z"/>
				</g>
				<g id="Rectangle-Copy-2">
					<path class="st0" d="M17.5,18h-2c-0.8,0-1.5-0.7-1.5-1.5v-2c0-0.8,0.7-1.5,1.5-1.5h2c0.8,0,1.5,0.7,1.5,1.5v2
						C19,17.3,18.3,18,17.5,18z M15.5,14c-0.3,0-0.5,0.2-0.5,0.5v2c0,0.3,0.2,0.5,0.5,0.5h2c0.3,0,0.5-0.2,0.5-0.5v-2
						c0-0.3-0.2-0.5-0.5-0.5H15.5z"/>
				</g>
				<g id="Oval">
					<path class="st0" d="M6,23c-1.7,0-3-1.3-3-3s1.3-3,3-3s3,1.3,3,3S7.7,23,6,23z M6,18c-1.1,0-2,0.9-2,2s0.9,2,2,2s2-0.9,2-2
						S7.1,18,6,18z"/>
				</g>
				<g id="Path-4-Copy">
					<rect x="3" y="12.5" class="st0" width="9.6" height="1"/>
				</g>
				<g id="Path-4">
					<rect x="3" y="8.5" class="st0" width="5.6" height="1"/>
				</g>
				<g id="Path-4-Copy-2">
					<rect x="16" y="21.5" class="st0" width="2" height="1"/>
				</g>
			</g>
		</g>
		<g id="Rectangle-Copy-9">
			<rect class="st1" width="30" height="30"/>
		</g>
	</g>
</g>
</svg>
