<?xml version="1.0" encoding="UTF-8"?>
<svg width="30px" height="31px" viewBox="0 0 30 31" version="1.1" xmlns="http://www.w3.org/2000/svg" xmlns:xlink="http://www.w3.org/1999/xlink">
    <title>Collateral Details</title>
    <g id="Page-1" stroke="none" stroke-width="1" fill="none" fill-rule="evenodd">
        <g id="Collateral-Details" transform="translate(0.000000, 1.000000)">
            <rect id="Rectangle" fill="#F8F8F8" x="0" y="0" width="30" height="30"></rect>
            <g id="2284205" transform="translate(3.000000, 0.000000)" fill="#8E8E8E" fill-rule="nonzero">
                <polygon id="Path" stroke="#E4F0F9" stroke-width="0.5" points="3 9.15 9 9.15 9 10.65 3 10.65"></polygon>
                <polygon id="Path" stroke="#E4F0F9" stroke-width="0.5" points="3 12.15 12 12.15 12 13.65 3 13.65"></polygon>
                <path d="M5.25,18.15 C4.00935,18.15 3,19.15935 3,20.4 C3,21.64065 4.00935,22.65 5.25,22.65 C6.49065,22.65 7.5,21.64065 7.5,20.4 C7.5,19.15935 6.49065,18.15 5.25,18.15 Z M5.25,21.15 C4.83645,21.15 4.5,20.81355 4.5,20.4 C4.5,19.98645 4.83645,19.65 5.25,19.65 C5.66355,19.65 6,19.98645 6,20.4 C6,20.81355 5.66355,21.15 5.25,21.15 Z" id="Shape" stroke="#E4F0F9" stroke-width="0.5"></path>
                <path d="M22.5,18.1353516 L22.5,14.3780273 C22.5,12.5635403 21.2096,11.0454311 19.5,10.6963005 L19.5,4.94899717 L14.56065,0 L0,0 L0,25.65 L24,25.65 L24,18.1353516 L22.5,18.1353516 Z M21,14.3780273 L21,18.1353516 L19.5,18.1353516 L19.5,12.2528848 C20.37295,12.5630895 21,13.3983677 21,14.3780273 Z M18,18.1353516 L16.5,18.1353516 L16.5,14.3780273 C16.5,13.3983677 17.12705,12.5630895 18,12.2528848 L18,18.1353516 Z M15,2.56565127 L16.93935,4.50878906 L15,4.50878906 L15,2.56565127 Z M1.5,24.1470703 L1.5,1.50292969 L13.5,1.50292969 L13.5,6.01171875 L18,6.01171875 L18,10.6963005 C16.2904,11.045381 15,12.5634902 15,14.3780273 L15,18.1353516 L13.5,18.1353516 L13.5,24.1470703 L1.5,24.1470703 Z M22.5,24.1470703 L15,24.1470703 L15,19.6382812 L22.5,19.6382812 L22.5,24.1470703 Z" id="Shape" stroke="#E4F0F9" stroke-width="0.4"></path>
                <polygon id="Path" points="18 21.15 19.5 21.15 19.5 22.65 18 22.65"></polygon>
            </g>
        </g>
    </g>
</svg>