<?xml version="1.0" encoding="UTF-8"?>
<svg width="30px" height="30px" viewBox="0 0 30 30" version="1.1" xmlns="http://www.w3.org/2000/svg" xmlns:xlink="http://www.w3.org/1999/xlink">
    <title>Credit Card Details</title>
    <g id="Page-1" stroke="none" stroke-width="1" fill="none" fill-rule="evenodd">
        <g id="Credit-Card-Details">
            <rect id="Rectangle" fill="#F8F8F8" x="0" y="0" width="30" height="30"></rect>
            <g id="Group-272" transform="translate(5.000000, 0.000000)" fill="#8E8E8E" fill-rule="nonzero">
                <path d="M4.90196933,14 C3.61396933,14.00168 2.57026933,15.0453333 2.568636,16.3333333 C2.570036,16.8396667 2.73780267,17.3315333 3.046036,17.7333333 C2.31371467,18.6940133 2.43586933,20.05472 3.32720267,20.86952 C4.219236,21.6846 5.58470267,21.6846 6.47677333,20.86952 C7.36810667,20.05472 7.49018667,18.6940133 6.75789333,17.7333333 C7.06617333,17.3315333 7.23389333,16.8396667 7.23529333,16.3333333 C7.23370667,15.0453333 6.18996,14.00168 4.90196933,14 Z M4.90196933,14.9333192 C5.48390267,14.93072 6.00656,15.2903333 6.21226667,15.83456 C6.41797333,16.3790667 6.26406667,16.9941333 5.82596,17.3772667 C5.82344,17.3772667 5.81989333,17.3772667 5.81756,17.3819333 C5.65002667,17.5284667 5.45041467,17.6334667 5.23458133,17.6889067 C5.22116933,17.69236 5.20856933,17.6983333 5.195036,17.7012267 C5.00206933,17.7440667 4.80186933,17.7440667 4.60890267,17.7012267 C4.59536933,17.6983333 4.58276933,17.69236 4.569348,17.6889067 C4.353636,17.6334667 4.154136,17.5284667 3.98636933,17.3819333 C3.98636933,17.3796933 3.980536,17.3792267 3.97796933,17.3772667 C3.53988133,16.9941333 3.38600267,16.3790667 3.59168133,15.83456 C3.79736933,15.2903333 4.320036,14.93072 4.90196933,14.9333192 Z M4.90196933,20.5333333 C4.128936,20.5333333 3.50196504,19.90632 3.50196504,19.1333333 C3.50126933,18.8544533 3.58620267,18.58192 3.74556933,18.3530667 C3.777536,18.37136 3.81136933,18.3843333 3.84391467,18.3997333 C3.950548,18.4549867 4.06138133,18.5016533 4.17536933,18.5397333 C4.22740267,18.5565333 4.278036,18.5747333 4.33030267,18.5864 C4.40601467,18.6055333 4.48290267,18.6193467 4.560836,18.6330667 C4.60750267,18.6400667 4.65416933,18.6433333 4.70071467,18.64688 C4.76791467,18.6532267 4.83290267,18.6676 4.901736,18.6676 C4.97021467,18.6676 5.03496933,18.6532267 5.10240267,18.64688 C5.14871467,18.6433333 5.19538133,18.6400667 5.242048,18.6330667 C5.32021467,18.6212133 5.39710267,18.6074 5.47270267,18.5864 C5.52496933,18.5733333 5.57571467,18.5552267 5.62762667,18.5397333 C5.74177333,18.5016533 5.85256,18.4549867 5.95905333,18.3997333 C5.99162667,18.3830267 6.02522667,18.36968 6.05752,18.3530667 C6.21730667,18.58192 6.30224,18.8542667 6.30196069,19.1333333 C6.30196069,19.90632 5.67504,20.5333333 4.90196933,20.5333333 Z" id="Shape"></path>
                <path d="M10.3152933,6.53333333 L12.5552933,6.53333333 C13.2254267,6.53333333 13.7686267,5.99013333 13.7686267,5.32 L13.7686267,3.08 C13.7686267,2.40986667 13.2254267,1.86666667 12.5552933,1.86666667 L10.3152933,1.86666667 C9.64516,1.86666667 9.10196,2.40986667 9.10196,3.08 L9.10196,5.32 C9.10196,5.99013333 9.64516,6.53333333 10.3152933,6.53333333 Z M10.0352933,3.08 C10.0352933,2.92542133 10.16064,2.8 10.3152933,2.8 L10.9686267,2.8 L10.9686267,3.73333333 L11.90196,3.73333333 L11.90196,2.8 L12.5552933,2.8 C12.7098533,2.8 12.8352933,2.92542133 12.8352933,3.08 L12.8352933,5.32 C12.8352933,5.474588 12.7098533,5.6 12.5552933,5.6 L11.90196,5.6 L11.90196,4.66666667 L10.9686267,4.66666667 L10.9686267,5.6 L10.3152933,5.6 C10.16064,5.6 10.0352933,5.474588 10.0352933,5.32 L10.0352933,3.08 Z" id="Shape"></path>
                <polygon id="Path" points="6.76853333 2.33333333 7.70177333 2.33333333 7.70177333 4.20000933 6.76853333 4.20000933"></polygon>
                <polygon id="Path" points="3.968608 2.33333333 4.901932 2.33333333 4.901932 4.20000933 3.968608 4.20000933"></polygon>
                <polygon id="Path" points="3.968608 10.7333333 4.901932 10.7333333 4.901932 12.6 3.968608 12.6"></polygon>
                <polygon id="Path" points="6.76853333 5.13333333 7.70177333 5.13333333 7.70177333 6.99999067 6.76853333 6.99999067"></polygon>
                <polygon id="Path" points="6.76853333 7.93333333 7.70177333 7.93333333 7.70177333 9.8 6.76853333 9.8"></polygon>
                <polygon id="Path" points="6.76853333 10.7333333 7.70177333 10.7333333 7.70177333 12.6 6.76853333 12.6"></polygon>
                <path d="M19.8352933,27.5333333 L19.8352933,16.82044 C19.8352933,15.5771467 19.3840267,14.3756667 18.5654,13.44 L15.6352933,10.09148 L15.6352933,2.33333333 C15.6336133,1.04533333 14.58996,0.00163333333 13.30196,0 L3.03527467,0 C1.74727467,0.00163333333 0.703574667,1.04533333 0.701941333,2.33333333 L0.701941333,21 C0.703574667,22.288 1.74727467,23.3317467 3.03527467,23.3333333 L12.4816533,23.3333333 C12.5371867,23.8378933 12.6558133,24.3334 12.8352933,24.8084667 L12.8352933,27.5333333 C12.8352933,27.7912133 13.04408,28 13.30196,28 L19.3686267,28 C19.6264133,28 19.8352933,27.7912133 19.8352933,27.5333333 Z M17.8626933,14.0550667 C18.5327333,14.8204 18.90196,15.8032 18.90196,16.82044 L18.90196,24.2666667 L13.6356267,24.2666667 C13.2068533,22.97988 13.3054133,21.5753067 13.9100267,20.3611333 L14.1862933,19.8086 C14.27608,19.6290267 14.24052,19.4120267 14.09856,19.2700667 L10.1318933,15.3034 C9.66998667,14.8412133 9.66998667,14.0922133 10.1318933,13.6299333 C10.6004267,13.1836133 11.3368267,13.1836133 11.80536,13.6299333 L16.70536,18.5299333 L17.3652267,17.8700667 L15.6352933,16.1401333 L15.6352933,11.5090267 L17.8626933,14.0550667 Z M1.63527467,21 L1.63527467,2.33333333 C1.63527467,1.5603 2.26224133,0.933333333 3.03527467,0.933333333 L13.30196,0.933333333 C14.0749467,0.933333333 14.70196,1.5603 14.70196,2.33333333 L14.70196,15.2068 L12.4652267,12.9700667 C11.63876,12.1436 10.2984933,12.1436 9.47202667,12.9700667 C8.64556,13.7965333 8.64556,15.1368 9.47202667,15.9632667 L13.2006933,19.6919333 L13.07516,19.9434667 C12.69296,20.7083333 12.47652,21.54544 12.4408667,22.4 L3.03527467,22.4 C2.26224133,22.4 1.63527467,21.77308 1.63527467,21 Z M18.90196,27.0666667 L13.7686267,27.0666667 L13.7686267,25.2 L18.90196,25.2 L18.90196,27.0666667 Z" id="Shape"></path>
            </g>
        </g>
    </g>
</svg>