<?xml version="1.0" encoding="UTF-8"?>
<svg width="30px" height="30px" viewBox="0 0 30 30" version="1.1" xmlns="http://www.w3.org/2000/svg" xmlns:xlink="http://www.w3.org/1999/xlink">
    <title>Customer Details</title>
    <g id="Page-1" stroke="none" stroke-width="1" fill="none" fill-rule="evenodd">
        <g id="Customer-Details">
            <rect id="Rectangle" fill="#F8F8F8" x="0" y="0" width="30" height="30"></rect>
            <g id="noun_Customer-profile_1482714" transform="translate(1.000000, 0.000000)" fill="#8E8E8E" fill-rule="nonzero">
                <path d="M26.3715278,2.46701389 L18.375,2.46701389 L18.375,0.765625 C18.375,0.483875 18.1463333,0.255208333 17.8645833,0.255208333 C17.5824931,0.255208333 17.3541667,0.483875 17.3541667,0.765625 L17.3541667,2.46701389 L10.5486111,2.46701389 L10.5486111,0.765625 C10.5486111,0.483875 10.3199444,0.255208333 10.0381944,0.255208333 C9.75610417,0.255208333 9.52777778,0.483875 9.52777778,0.765625 L9.52777778,2.46701389 L1.53125,2.46701389 C0.782638889,2.46701389 0.170138889,3.07951389 0.170138889,3.828125 L0.170138889,22.8836806 C0.170138889,23.6322917 0.782638889,24.2447917 1.53125,24.2447917 L26.3715278,24.2447917 C27.1201389,24.2447917 27.7326389,23.6322917 27.7326389,22.8836806 L27.7326389,3.828125 C27.7326389,3.07951389 27.1201389,2.46701389 26.3715278,2.46701389 Z M1.53125,3.48784722 L9.52777778,3.48784722 L9.52777778,5.18923611 C9.52777778,5.47098611 9.75610417,5.69965278 10.0381944,5.69965278 C10.3199444,5.69965278 10.5486111,5.47098611 10.5486111,5.18923611 L10.5486111,3.48784722 L17.3541667,3.48784722 L17.3541667,5.18923611 C17.3541667,5.47098611 17.5824931,5.69965278 17.8645833,5.69965278 C18.1463333,5.69965278 18.375,5.47098611 18.375,5.18923611 L18.375,3.48784722 L26.3715278,3.48784722 C26.5559583,3.48784722 26.7118056,3.64369444 26.7118056,3.828125 L26.7118056,7.06076389 L1.19097222,7.06076389 L1.19097222,3.828125 C1.19097222,3.64369444 1.34681944,3.48784722 1.53125,3.48784722 Z M26.7118056,22.8836806 C26.7118056,23.0681111 26.5559583,23.2239583 26.3715278,23.2239583 L1.53125,23.2239583 C1.34681944,23.2239583 1.19097222,23.0681111 1.19097222,22.8836806 L1.19097222,8.08159722 L26.7118056,8.08159722 L26.7118056,22.8836806 Z" id="Shape"></path>
                <path d="M4.62947917,19.6510417 L12.7604167,19.6510417 C12.8948264,19.6510417 13.0261736,19.5965972 13.1214514,19.5016597 C13.2167292,19.4067222 13.2708333,19.2750347 13.2708333,19.140625 C13.2704931,17.248 12.1220556,15.624875 10.4839583,14.9283264 C11.0828472,14.4206319 11.4639583,13.6635139 11.4639583,12.8165625 C11.4636181,11.2870139 10.2243264,10.0480625 8.69477778,10.0473819 C7.16522917,10.0480625 5.9259375,11.2870139 5.92559722,12.8165625 C5.92559722,13.6635139 6.30704861,14.4206319 6.90559722,14.9283264 C5.26784028,15.624875 4.1190625,17.248 4.11872222,19.140625 C4.11872222,19.2750347 4.17316667,19.4063819 4.26810417,19.5016597 C4.36304167,19.5969375 4.49506944,19.6510417 4.62947917,19.6510417 Z M7.45888889,14.0527917 C7.14175,13.7346319 6.94711111,13.3007778 6.94677083,12.8165625 C6.94711111,12.3323472 7.14140972,11.8984931 7.45888889,11.5806736 C7.77670833,11.2631944 8.2105625,11.0688958 8.69511806,11.0685556 C9.17933333,11.0688958 9.6131875,11.2631944 9.93134722,11.5806736 C10.2484861,11.8984931 10.443125,12.3323472 10.4434653,12.8165625 C10.443125,13.3007778 10.2484861,13.7346319 9.93134722,14.0527917 C9.6131875,14.3702708 9.17967361,14.5645694 8.69511806,14.5649097 C8.2105625,14.5645694 7.77670833,14.3699306 7.45888889,14.0527917 Z M6.18148611,16.6266528 C6.82665278,15.9821667 7.71205556,15.5854028 8.69511806,15.5854028 C9.67818056,15.5854028 10.5639236,15.9821667 11.20875,16.6266528 C11.7389028,17.1578264 12.0975556,17.8526736 12.2091667,18.6302083 L5.18072917,18.6302083 C5.29268056,17.8526736 5.65099306,17.1578264 6.18148611,16.6266528 Z" id="Shape"></path>
                <path d="M16.1631944,15.5677083 L23.3090278,15.5677083 C23.5907778,15.5677083 23.8194444,15.3390417 23.8194444,15.0572917 C23.8194444,14.7755417 23.5907778,14.546875 23.3090278,14.546875 L16.1631944,14.546875 C15.8811042,14.546875 15.6527778,14.7755417 15.6527778,15.0572917 C15.6527778,15.3390417 15.8811042,15.5677083 16.1631944,15.5677083 Z" id="Path"></path>
                <path d="M16.1631944,12.5052083 L23.3090278,12.5052083 C23.5907778,12.5052083 23.8194444,12.2765417 23.8194444,11.9947917 C23.8194444,11.7130417 23.5907778,11.484375 23.3090278,11.484375 L16.1631944,11.484375 C15.8811042,11.484375 15.6527778,11.7130417 15.6527778,11.9947917 C15.6527778,12.2765417 15.8811042,12.5052083 16.1631944,12.5052083 Z" id="Path"></path>
                <path d="M16.1631944,18.6302083 L21.345625,18.6302083 C21.627375,18.6302083 21.8560417,18.4015417 21.8560417,18.1197917 C21.8560417,17.8380417 21.627375,17.609375 21.345625,17.609375 L16.1631944,17.609375 C15.8811042,17.609375 15.6527778,17.8380417 15.6527778,18.1197917 C15.6527778,18.4015417 15.8811042,18.6302083 16.1631944,18.6302083 Z" id="Path"></path>
            </g>
        </g>
    </g>
</svg>