<?xml version="1.0" encoding="UTF-8"?>
<svg width="22px" height="25px" viewBox="0 0 22 25" version="1.1" xmlns="http://www.w3.org/2000/svg" xmlns:xlink="http://www.w3.org/1999/xlink">
    <!-- Generator: Sketch 64 (93537) - https://sketch.com -->
    <title>noun_Delete_3187979</title>
    <desc>Created with Sketch.</desc>
    <g id="APPLN-INIT" stroke="none" stroke-width="1" fill="none" fill-rule="evenodd">
        <g id="UPDATED-----Application-Initiation-2---CI" transform="translate(-1300.000000, -1133.000000)" fill="#4F4E4E" fill-rule="nonzero" stroke="#FFFFFF" stroke-width="0.25">
            <g id="Group-8" transform="translate(19.000000, 554.000000)">
                <g id="Group-34" transform="translate(0.000000, 528.000000)">
                    <g id="Group-32" transform="translate(0.000000, 44.000000)">
                        <g id="noun_Delete_3187979" transform="translate(1282.000000, 8.000000)">
                            <g id="Group">
                                <path d="M19.1666667,2.3 L13.0333333,2.3 L13.0333333,1.53333333 C13.0333333,0.686496717 12.3468366,0 11.5,0 L8.43333333,0 C7.58649672,0 6.9,0.686496717 6.9,1.53333333 L6.9,2.3 L0.766666667,2.3 C0.343248358,2.3 0,2.64324836 0,3.06666667 C0,3.49008497 0.343248358,3.83333333 0.766666667,3.83333333 L1.53333333,3.83333333 L1.53333333,22.2333333 C1.53333333,22.6567516 1.87658169,23 2.3,23 L17.6333333,23 C18.0567516,23 18.4,22.6567516 18.4,22.2333333 L18.4,3.83333333 L19.1666667,3.83333333 C19.590085,3.83333333 19.9333333,3.49008497 19.9333333,3.06666667 C19.9333333,2.64324836 19.590085,2.3 19.1666667,2.3 Z M8.43333333,1.53333333 L11.5,1.53333333 L11.5,2.3 L8.43333333,2.3 L8.43333333,1.53333333 Z M16.8666667,21.4666667 L3.06666667,21.4666667 L3.06666667,3.83333333 L16.8666667,3.83333333 L16.8666667,21.4666667 Z" id="Shape"></path>
                                <path d="M6.13333333,19.1666667 C5.70991503,19.1666667 5.36666667,18.8234183 5.36666667,18.4 L5.36666667,6.9 C5.36666667,6.47658169 5.70991503,6.13333333 6.13333333,6.13333333 C6.55675164,6.13333333 6.9,6.47658169 6.9,6.9 L6.9,18.4 C6.9,18.8234183 6.55675164,19.1666667 6.13333333,19.1666667 Z" id="Path"></path>
                                <path d="M9.96666667,19.1666667 C9.54324836,19.1666667 9.2,18.8234183 9.2,18.4 L9.2,6.9 C9.2,6.47658169 9.54324836,6.13333333 9.96666667,6.13333333 C10.390085,6.13333333 10.7333333,6.47658169 10.7333333,6.9 L10.7333333,18.4 C10.7333333,18.8234183 10.390085,19.1666667 9.96666667,19.1666667 Z" id="Path"></path>
                                <path d="M13.8,19.1666667 C13.3765817,19.1666667 13.0333333,18.8234183 13.0333333,18.4 L13.0333333,6.9 C13.0333333,6.47658169 13.3765817,6.13333333 13.8,6.13333333 C14.2234183,6.13333333 14.5666667,6.47658169 14.5666667,6.9 L14.5666667,18.4 C14.5666667,18.8234183 14.2234183,19.1666667 13.8,19.1666667 Z" id="Path"></path>
                            </g>
                        </g>
                    </g>
                </g>
            </g>
        </g>
    </g>
</svg>