<?xml version="1.0" encoding="UTF-8"?>
<svg width="30px" height="30px" viewBox="0 0 30 30" version="1.1" xmlns="http://www.w3.org/2000/svg" xmlns:xlink="http://www.w3.org/1999/xlink">
    <title>Income Summary</title>
    <g id="Page-1" stroke="none" stroke-width="1" fill="none" fill-rule="evenodd">
        <g id="Income-Summary">
            <rect id="Rectangle" fill="#F8F8F8" x="0" y="0" width="30" height="30"></rect>
            <g id="482511" fill="#8E8E8E" fill-rule="nonzero">
                <path d="M25.6666484,16.3333516 L25.6666484,2.33335156 C25.6666484,1.0465 24.6202031,-1.55431223e-15 23.3332969,-1.55431223e-15 L2.33329688,-1.55431223e-15 C1.04644531,-1.55431223e-15 0,1.04644531 0,2.33335156 L0,16.3333516 C0,17.6202031 1.04644531,18.6667031 2.33335156,18.6667031 L23.3333516,18.6667031 C24.6202031,18.6667031 25.6666484,17.6202031 25.6666484,16.3333516 Z M23.3333516,1.16664844 C23.9764766,1.16664844 24.5,1.69017188 24.5,2.33329688 L24.5,4.60769531 C22.7186094,4.34940625 21.3172422,2.94803906 21.0589531,1.16664844 L23.3333516,1.16664844 Z M1.16664844,2.33335156 C1.16664844,1.69022656 1.69017188,1.16670313 2.33329688,1.16670313 L4.60769531,1.16670313 C4.34940625,2.94809375 2.94803906,4.34946094 1.16664844,4.60775 L1.16664844,2.33335156 Z M2.33335156,17.5 C1.69022656,17.5 1.16670312,16.9764766 1.16670312,16.3333516 L1.16670312,14.0589531 C2.94809375,14.3172422 4.34946094,15.7186094 4.60775,17.5 L2.33335156,17.5 Z M5.77439844,17.5 C5.50172656,15.07625 3.59045312,13.1649219 1.16670312,12.8923047 L1.16670312,5.77439844 C3.59045312,5.50172656 5.50178125,3.59045312 5.77439844,1.16670312 L19.8923047,1.16670312 C20.1649766,3.59045312 22.07625,5.50178125 24.5,5.77439844 L24.5,12.8923047 C22.07625,13.1649766 20.1649219,15.07625 19.8923047,17.5 L5.77439844,17.5 Z M24.5,14.0589531 L24.5,16.3333516 C24.5,16.9764766 23.9764766,17.5 23.3333516,17.5 L21.0589531,17.5 C21.3172422,15.7186094 22.7186094,14.3172422 24.5,14.0589531 Z" id="Shape"></path>
                <path d="M12.5416484,7 L14.5832969,7 C14.9057344,7 15.1666484,6.73908594 15.1666484,6.41664844 C15.1666484,6.09421094 14.9057344,5.83329687 14.5832969,5.83329687 L13.4166484,5.83329687 L13.4166484,5.25 C13.4166484,4.9275625 13.1557344,4.66664844 12.8332969,4.66664844 C12.5108594,4.66664844 12.2499453,4.9275625 12.2499453,5.25 L12.2499453,5.86282812 C11.2630547,6.00583594 10.4999453,6.84917187 10.4999453,7.875 C10.4999453,9.00063281 11.4159609,9.91664844 12.5415937,9.91664844 L13.125,9.91664844 C13.6075078,9.91664844 14,10.3091406 14,10.7916484 C14,11.2741562 13.6075078,11.6666484 13.125,11.6666484 L11.0833516,11.6666484 C10.7609141,11.6666484 10.5,11.9275625 10.5,12.25 C10.5,12.5724375 10.7609141,12.8333516 11.0833516,12.8333516 L12.25,12.8333516 L12.25,13.4167031 C12.25,13.7391406 12.5109141,14.0000547 12.8333516,14.0000547 C13.1557891,14.0000547 13.4167031,13.7391406 13.4167031,13.4167031 L13.4167031,12.803875 C14.4035937,12.6608672 15.1667031,11.8175312 15.1667031,10.7917031 C15.1666484,9.66601562 14.2506328,8.75 13.125,8.75 L12.5416484,8.75 C12.0591406,8.75 11.6666484,8.35750781 11.6666484,7.875 C11.6666484,7.39249219 12.0591406,7 12.5416484,7 Z" id="Path"></path>
                <path d="M4.66664844,8.16664844 C4.02352344,8.16664844 3.5,8.69017187 3.5,9.33329687 C3.5,9.97647656 4.02352344,10.5 4.66664844,10.5 C5.30977344,10.5 5.83329687,9.97647656 5.83329687,9.33335156 C5.83335156,8.69017187 5.30982812,8.16664844 4.66664844,8.16664844 Z M4.66725,9.35648359 C4.66725,9.35648359 4.66670312,9.35548359 4.66670312,9.35438359 L5.25,9.35648359 L4.66725,9.35648359 Z" id="Shape"></path>
                <path d="M22.1666484,9.33335156 C22.1666484,8.69022656 21.643125,8.16670312 21,8.16670312 C20.356875,8.16670312 19.8333516,8.69022656 19.8333516,9.33335156 C19.8333516,9.97647656 20.356875,10.5 21,10.5 C21.643125,10.5 22.1666484,9.97647656 22.1666484,9.33335156 Z M21.0005469,9.35648359 C21.0005469,9.35648359 21,9.35548359 21,9.35438359 L21.5833516,9.35648359 L21.0005469,9.35648359 Z" id="Shape"></path>
                <path d="M27.4166484,3.5 C27.0942109,3.5 26.8332969,3.76091406 26.8332969,4.08335156 L26.8332969,18.6667031 C26.8332969,19.3098281 26.3097734,19.8333516 25.6666484,19.8333516 L4.08335156,19.8333516 C3.76091406,19.8333516 3.5,20.0942656 3.5,20.4167031 C3.5,20.7390859 3.76091406,21 4.08335156,21 L25.6667031,21 C26.9535547,21 28,19.9535547 28,18.6666484 L28,4.08335156 C28,3.76091406 27.7390859,3.5 27.4166484,3.5 Z" id="Path"></path>
            </g>
        </g>
    </g>
</svg>