<?xml version="1.0" encoding="UTF-8"?>
<svg width="30px" height="30px" viewBox="0 0 30 30" version="1.1" xmlns="http://www.w3.org/2000/svg" xmlns:xlink="http://www.w3.org/1999/xlink">
    <title>Loan Details</title>
    <g id="Page-1" stroke="none" stroke-width="1" fill="none" fill-rule="evenodd">
        <g id="Loan-Details">
            <rect id="Rectangle" fill="#F8F8F8" x="0" y="0" width="30" height="30"></rect>
            <g id="Group-267" transform="translate(4.000000, 0.000000)" fill="#8E8E8E" fill-rule="nonzero">
                <path d="M0.468458667,26.1334267 L1.86836533,26.1334267 L1.86836533,27.5333333 C1.86836533,27.7910267 2.07730133,28 2.335004,28 L21.0004667,28 C21.25816,28 21.46704,27.7910267 21.46704,27.5333333 L21.46704,25.2001867 L20.5338,25.2001867 L20.5338,27.0666667 L2.80163333,27.0666667 L2.80163333,26.1334267 L19.60056,26.1334267 L19.60056,25.2001867 L0.935097333,25.2001867 L0.935097333,5.13481733 L4.66817867,5.13481733 C4.925872,5.13481733 5.13481733,4.925872 5.13481733,4.66817867 L5.13481733,0.935097333 L18.6672267,0.935097333 L18.6672267,26.1334267 L19.60056,26.1334267 L19.60056,2.80163333 L20.5338,2.80163333 L20.5338,26.1334267 L21.46704,26.1334267 L21.46704,2.335004 C21.46704,2.07730133 21.25816,1.86836533 21.0004667,1.86836533 L19.60056,1.86836533 L19.60056,0.468458667 C19.60056,0.210760667 19.3915867,0.001822912 19.1338933,0.001822912 L4.66817867,0.001822912 C4.65837867,0.001822912 4.64995067,0.00706346667 4.640608,0.00751913867 C4.598916,0.00979766667 4.557672,0.0180002667 4.518024,0.0316711733 C4.50344533,0.0369117467 4.48909067,0.0405573467 4.47496,0.0471649733 C4.42414933,0.0697220533 4.37790267,0.101392667 4.33825467,0.1403556 L0.1385328,4.34007467 C0.0995698667,4.37972267 0.0678990667,4.42620267 0.04534208,4.47678933 C0.03873436,4.49091067 0.03508876,4.50572267 0.02984828,4.52030133 C0.0164052,4.559268 0.00820258133,4.60005467 0.005696236,4.64106533 C0.005696236,4.65131333 0,4.660208 0,4.66999867 L0,25.66676 C0,25.7909867 0.0494433333,25.9098933 0.1373932,25.9973467 C0.225343067,26.0848933 0.344508267,26.1338933 0.468458667,26.1334267 Z M4.20154,1.59494533 L4.20154,4.20154 L1.59494533,4.20154 L4.20154,1.59494533 Z" id="Shape"></path>
                <path d="M9.80121333,8.40148907 C10.17716,8.40419067 10.5339733,8.23718 10.77272,7.94689467 C11.1464267,7.980392 11.51556,7.846412 11.78072,7.581196 C12.0459733,7.31598 12.1799067,6.94686533 12.1464,6.57318667 C12.4346133,6.33280667 12.6010267,5.976908 12.6010267,5.60164267 C12.6010267,5.226368 12.4346133,4.87046933 12.1464,4.63008933 C12.1799067,4.25641067 12.0459733,3.887296 11.78072,3.62208 C11.51556,3.356864 11.1464267,3.22289333 10.77272,3.25638133 C10.5323867,2.96838267 10.1764133,2.80182 9.80121333,2.80182 C9.42592,2.80182 9.070236,2.96838267 8.829632,3.25638133 C8.45618667,3.22289333 8.08683867,3.356864 7.82162267,3.62208 C7.55640667,3.887296 7.422436,4.25641067 7.455924,4.63008933 C7.16792533,4.87046933 7.00136267,5.226368 7.00136267,5.60164267 C7.00136267,5.976908 7.16792533,6.33280667 7.455924,6.57318667 C7.422436,6.94686533 7.55640667,7.31598 7.82162267,7.581196 C8.08683867,7.846412 8.45618667,7.980392 8.829632,7.94689467 C9.068416,8.23718 9.42545333,8.40419067 9.80121333,8.40148907 Z M8.48147067,6.921348 C8.378944,6.825196 8.352736,6.672764 8.41722,6.54790267 C8.473724,6.42873467 8.47737333,6.29111467 8.426796,6.169212 C8.37620933,6.04730933 8.276408,5.95252933 8.15223733,5.90832667 C8.02167333,5.86207067 7.93440667,5.73880533 7.93440667,5.60027067 C7.93440667,5.461736 8.02167333,5.33847067 8.15223733,5.292224 C8.276408,5.24802133 8.37620933,5.153232 8.426796,5.03132933 C8.47737333,4.909436 8.473724,4.77180667 8.41722,4.65241467 C8.35660933,4.52732933 8.38190267,4.377632 8.480332,4.27920267 C8.57853733,4.18099733 8.72823467,4.155704 8.85355333,4.21631467 C8.97272133,4.27281867 9.11034133,4.27623467 9.23223467,4.22588133 C9.35414667,4.175304 9.44888,4.07550267 9.49330667,3.95109867 C9.53941333,3.82053467 9.66289333,3.733268 9.80121333,3.733268 C9.93972,3.733268 10.0630133,3.82053467 10.1092133,3.95109867 C10.1534533,4.07550267 10.2481867,4.175304 10.37008,4.22588133 C10.4922533,4.27623467 10.62964,4.27281867 10.7490133,4.21631467 C10.87408,4.155704 11.0237867,4.18099733 11.1222533,4.27920267 C11.22044,4.377632 11.2457333,4.52732933 11.1853467,4.65241467 C11.1286,4.77180667 11.12524,4.909436 11.1758267,5.03132933 C11.2261333,5.153232 11.3259067,5.24802133 11.45032,5.292224 C11.5808933,5.33847067 11.66816,5.461736 11.66816,5.60027067 C11.66816,5.73880533 11.5808933,5.86207067 11.45032,5.90832667 C11.3259067,5.95252933 11.2261333,6.04730933 11.1758267,6.169212 C11.12524,6.29111467 11.1286,6.42873467 11.1853467,6.54790267 C11.2457333,6.673212 11.22044,6.82290933 11.1222533,6.921348 C11.0237867,7.019544 10.87408,7.04483733 10.7490133,6.98422667 C10.62964,6.92772267 10.4922533,6.92430667 10.37008,6.97466 C10.2481867,7.02524667 10.1534533,7.12503867 10.1092133,7.249452 C10.0630133,7.37978267 9.93972,7.46727333 9.80121333,7.46727333 C9.66289333,7.46727333 9.53941333,7.37978267 9.49330667,7.249452 C9.44888,7.12481467 9.35386667,7.02501333 9.23201067,6.974436 C9.17527333,6.951196 9.11443867,6.93911867 9.05314667,6.93911867 C8.983884,6.93934267 8.91576,6.95529333 8.85355333,6.98559867 C8.728916,7.048944 8.577632,7.022736 8.48147067,6.921348 Z" id="Shape"></path>
                <polygon id="Path" points="6.534696 9.33473333 8.401232 9.33473333 8.401232 10.2679733 6.534696 10.2679733"></polygon>
                <polygon id="Path" points="9.33445333 9.33473333 13.0675067 9.33473333 13.0675067 10.2679733 9.33445333 10.2679733"></polygon>
                <polygon id="Path" points="2.8 13.5333333 16.8 13.5333333 16.8 14.4666667 2.8 14.4666667"></polygon>
                <polygon id="Path" points="2.8 15.4 16.8 15.4 16.8 16.3333333 2.8 16.3333333"></polygon>
                <polygon id="Path" points="2.8 11.6666667 8.4 11.6666667 8.4 12.6 2.8 12.6"></polygon>
                <polygon id="Path" points="2.8 20.0666667 16.8 20.0666667 16.8 21 2.8 21"></polygon>
                <polygon id="Path" points="2.8 21.9333333 16.8 21.9333333 16.8 22.8666667 2.8 22.8666667"></polygon>
                <polygon id="Path" points="2.8 18.2 8.4 18.2 8.4 19.1333333 2.8 19.1333333"></polygon>
            </g>
        </g>
    </g>
</svg>