<?xml version="1.0" encoding="UTF-8"?>
<svg width="30px" height="30px" viewBox="0 0 30 30" version="1.1" xmlns="http://www.w3.org/2000/svg" xmlns:xlink="http://www.w3.org/1999/xlink">
    <title>Occupation Details</title>
    <g id="Page-1" stroke="none" stroke-width="1" fill="none" fill-rule="evenodd">
        <g id="Occupation-Details">
            <rect id="Rectangle" fill="#F8F8F8" x="0" y="0" width="30" height="30"></rect>
            <g id="noun_job_3266621" transform="translate(1.000000, 1.000000)" fill="#8E8E8E" fill-rule="nonzero" stroke="#F8F8F8" stroke-width="0.5">
                <path d="M7.92922978,0.245168899 C7.710644,0.246047723 7.50137945,0.333817721 7.34757095,0.489134978 C7.19376244,0.644452235 7.1080393,0.854563552 7.10930018,1.07314744 L7.10930018,4.23873716 L0.819938062,4.23873716 C0.365343705,4.24055207 -0.00173037908,4.61050025 -5.90561623e-06,5.06509493 L-5.90561623e-06,9.80463316 C-5.90561623e-06,10.6399572 0.317282653,11.3940656 0.850485098,12.0650732 L0.850485098,23.2756416 C0.852293843,23.727725 1.21833133,24.0937628 1.67041473,24.0955718 L24.6638974,24.0955718 C25.1159839,24.0937672 25.4820263,23.7277281 25.4838351,23.2756416 L25.4838351,12.073106 C26.0221245,11.400266 26.3407465,10.6430434 26.3407465,9.80463316 L26.3407465,5.06509493 C26.3415757,4.84567616 26.2547813,4.63500316 26.0996277,4.47984959 C25.944474,4.32469602 25.7338009,4.23790186 25.5143821,4.23873716 L19.2314407,4.23873716 L19.2314407,1.07314744 C19.2327078,0.85344949 19.1461043,0.64235977 18.9909034,0.486855772 C18.8357026,0.331351774 18.6247823,0.244336471 18.4050823,0.245168899 L7.92922978,0.245168899 Z M8.75559658,1.89308388 L17.5851443,1.89308388 L17.5851443,4.23873716 L8.75559658,4.23873716 L8.75559658,1.89308388 Z M1.64629646,5.88503138 L7.92922978,5.88503138 L18.4050823,5.88503138 L24.6944444,5.88503138 L24.6944444,9.80463316 C24.6944444,10.2259305 24.5090222,10.6767678 24.1253196,11.1293847 C24.098623,11.1518695 24.0733835,11.1760294 24.0497538,11.201718 C23.1488675,12.2034305 21.1629485,13.1701709 18.5803212,13.7515505 C18.1555522,13.8471549 17.7135874,13.9323372 17.2587816,14.0055727 C17.2078216,14.0136616 17.1541424,14.0186394 17.1028371,14.0264172 C16.978682,14.0453949 16.8479344,14.0589594 16.72181,14.0763194 L16.72181,13.2370349 C16.722631,13.0176239 16.6358293,12.8069633 16.4806754,12.651821 C16.3255216,12.4966786 16.1148545,12.4098927 15.8954435,12.41073 L10.4388685,12.41073 C9.98427375,12.4125495 9.61720319,12.782502 9.61893893,13.2370972 L9.61893893,14.0763194 C9.48218071,14.0576527 9.34019582,14.0441194 9.20575973,14.0232749 C9.16294773,14.0167416 9.11810418,14.012386 9.07552862,14.0055416 C5.85543156,13.4870843 3.3336184,12.3681887 2.2845573,11.2017305 C2.26623674,11.181494 2.24692098,11.1621812 2.22668161,11.1438638 C2.22507783,11.1428212 2.22347041,11.1417841 2.22185939,11.1407527 C1.8334886,10.6844398 1.64629646,10.2292532 1.64629646,9.80463316 L1.64629646,5.88503138 Z M2.49678137,13.5039776 C2.71273417,13.6420798 2.93739609,13.7739287 3.17201796,13.8994652 C4.29675929,14.5012536 5.72979431,14.9278678 7.30061609,15.2467287 C8.02827916,15.4207332 8.79848231,15.5647185 9.61893893,15.6679514 L9.61893893,17.0168203 L9.61893893,17.0233536 C9.61890599,17.0276054 9.61890599,17.0318574 9.61893893,17.0361092 C9.61957536,17.0592096 9.62118419,17.082273 9.62376116,17.105238 C9.62634366,17.1305884 9.63010178,17.1558052 9.63502338,17.1808069 C9.63555311,17.1824679 9.63608812,17.1841272 9.6366284,17.1857847 C9.64138693,17.2106946 9.64729397,17.2353713 9.65433062,17.2597358 C9.65485683,17.2619158 9.65539195,17.2640936 9.65593596,17.2662692 C9.66390321,17.2907948 9.67301845,17.3149325 9.68325151,17.3386025 C9.68884464,17.3510675 9.69474721,17.3633913 9.70095373,17.3755625 C9.7065366,17.3880272 9.71242879,17.400351 9.71862484,17.4125225 C9.71968702,17.4141856 9.72075518,17.4158449 9.72182929,17.4175003 C9.73370606,17.4395108 9.74657971,17.4609686 9.76041018,17.4818069 C9.77117872,17.4966456 9.78243996,17.5111203 9.79417507,17.5252069 C9.79681933,17.5289626 9.79949498,17.5326961 9.80220173,17.5364069 C9.804846,17.5401626 9.80752165,17.5438961 9.8102284,17.5476069 C9.81182882,17.549273 9.81343624,17.5509322 9.81505062,17.5525847 C9.83180312,17.5727169 9.84950681,17.5920381 9.86810129,17.6104825 C9.87549301,17.6170468 9.88300238,17.6234775 9.89062573,17.6297714 C9.89538687,17.6347055 9.90020947,17.63958 9.9050924,17.6443936 C9.91247385,17.6509577 9.91997284,17.6573883 9.92758573,17.6636825 C9.92918952,17.6647251 9.93079694,17.6657622 9.93240796,17.6667936 C9.95307956,17.6833645 9.97453906,17.6989277 9.99671151,17.7134292 C9.99777849,17.7139666 9.99884664,17.7145017 9.99991596,17.7150345 C10.0213113,17.7283571 10.0433072,17.7406901 10.0658342,17.7519945 C10.067438,17.7530371 10.0690454,17.7540742 10.0706564,17.7551056 C10.0937459,17.7663666 10.1173498,17.7765407 10.1413906,17.7855945 C10.1609464,17.7932995 10.1807902,17.8002528 10.2008782,17.8064389 C10.2024839,17.806979 10.2040913,17.8075141 10.2057004,17.8080443 C10.2115657,17.8102894 10.2174564,17.8124673 10.2233715,17.8145776 C10.2239093,17.8145781 10.2244471,17.8145781 10.2249849,17.8145776 C10.2493742,17.8211013 10.2740506,17.8264996 10.298936,17.8307554 C10.3133462,17.8333187 10.3278222,17.8354972 10.3423485,17.8372887 C10.3551678,17.8392516 10.3680317,17.8409114 10.3809294,17.8422665 C10.383076,17.8422749 10.3852227,17.8422749 10.3873694,17.8422665 C10.4044969,17.8433366 10.4216538,17.843871 10.4388147,17.8438687 L15.8953897,17.8438687 C15.9227555,17.8441952 15.9501206,17.8431569 15.977383,17.8407576 C16.0324503,17.8355274 16.0868503,17.8247604 16.1397581,17.8086198 C16.1659488,17.8002699 16.1917047,17.7906133 16.2169292,17.7796865 C16.5215746,17.6519182 16.7203361,17.3544135 16.7217577,17.0240629 L16.7217577,15.6687572 C17.5523637,15.5640372 18.3314488,15.418126 19.0674089,15.2411069 C20.6249453,14.9225976 22.0471723,14.4977474 23.1638549,13.9002709 C23.3977763,13.7751109 23.6219371,13.6440398 23.8374867,13.5063887 L23.8374867,22.4492745 L2.49678137,22.4492745 L2.49678137,13.5039776 Z M11.265235,14.0570243 L15.0755139,14.0570243 L15.0755139,15.0120078 L15.0755139,16.19689 L11.265235,16.19689 L11.265235,15.0232607 C11.265235,15.0195274 11.265235,15.015794 11.265235,15.0120607 L11.265235,14.0570243 Z" id="Shape"></path>
            </g>
        </g>
    </g>
</svg>