<?xml version="1.0" encoding="UTF-8"?>
<svg width="30px" height="31px" viewBox="0 0 30 31" version="1.1" xmlns="http://www.w3.org/2000/svg" xmlns:xlink="http://www.w3.org/1999/xlink">
    <title>Personal Interview Details</title>
    <g id="Page-1" stroke="none" stroke-width="1" fill="none" fill-rule="evenodd">
        <g id="Personal-Interview-Details" transform="translate(0.000000, 1.000000)">
            <rect id="Rectangle" fill="#F8F8F8" x="0" y="0" width="30" height="30"></rect>
            <g id="noun_interview_3105921" transform="translate(1.000000, 0.000000)" fill="#8E8E8E" fill-rule="nonzero" stroke="#8E8E8E" stroke-width="0.3">
                <g id="Group">
                    <path d="M28,16.9983333 L23.5627778,12.5572222 L11.6666667,12.5572222 L11.6666667,0.112777778 L28,0.112777778 L28,16.9983333 Z M12.4444444,11.7794444 L23.8816667,11.7794444 L27.2222222,15.12 L27.2222222,0.890555556 L12.4444444,0.890555556 L12.4444444,11.7794444 Z" id="Shape"></path>
                    <path d="M6.77055556,11.55 C7.14819959,11.1607703 7.67564604,10.9537618 8.21722222,10.9822222 C8.71728366,10.9583876 9.20650682,11.1331102 9.57833333,11.4683333 C9.91892098,11.7894536 10.1057681,12.2410007 10.0916667,12.7088889 C10.1038512,12.9694517 10.0389206,13.2278214 9.905,13.4516667 C9.67952775,13.7539682 9.42558788,14.0339532 9.14666667,14.2877778 C8.92838819,14.4805872 8.74660049,14.711115 8.61,14.9683333 C8.51443923,15.2322229 8.47214242,15.5124393 8.48555556,15.7927778 L7.70777778,15.7927778 C7.69661695,15.4477481 7.74935548,15.1036291 7.86333333,14.7777778 C8.01621467,14.44819 8.23452769,14.1531366 8.505,13.9105556 L8.85111111,13.5683333 C8.94796317,13.4780039 9.0317342,13.374599 9.1,13.2611111 C9.21086711,13.0866761 9.27018335,12.8844617 9.27111111,12.6777778 C9.27660661,12.4105652 9.18702356,12.1500852 9.01833333,11.9427778 C8.80225374,11.7160877 8.49392788,11.6013617 8.18222222,11.6316667 C7.7713011,11.592481 7.37710434,11.8041509 7.18277778,12.1683333 C7.05794593,12.4456588 6.99554997,12.747018 7,13.0511111 L6.22222222,13.0511111 C6.20212354,12.49836 6.39890573,11.9596513 6.77055556,11.55 L6.77055556,11.55 Z M7.7,16.5122222 L8.55555556,16.5122222 L8.55555556,17.4105556 L7.69611111,17.4105556 L7.7,16.5122222 Z" id="Shape"></path>
                    <rect id="Rectangle" x="15.9444444" y="2.835" width="7.77777778" height="1"></rect>
                    <rect id="Rectangle" x="15.9444444" y="5.96166667" width="7.77777778" height="1"></rect>
                    <rect id="Rectangle" x="15.9444444" y="9.09222222" width="7.77777778" height="1"></rect>
                    <polygon id="Path" points="15.5555556 12.5572222 15.5555556 19.5572222 4.11833333 19.5572222 0.777777778 22.8977778 0.777777778 8.66833333 11.6666667 8.66833333 11.6666667 7.89055556 0 7.89055556 0 24.7761111 4.43722222 20.335 16.3333333 20.335 16.3333333 12.5572222"></polygon>
                </g>
            </g>
        </g>
    </g>
</svg>