<?xml version="1.0" encoding="UTF-8"?>
<svg width="30px" height="30px" viewBox="0 0 30 30" version="1.1" xmlns="http://www.w3.org/2000/svg" xmlns:xlink="http://www.w3.org/1999/xlink">
    <title>Referrer Details</title>
    <g id="Page-1" stroke="none" stroke-width="1" fill="none" fill-rule="evenodd">
        <g id="Referrer-Details">
            <g id="Group-3">
                <g id="Group-86">
                    <rect id="Rectangle" fill="#F8F8F8" x="0" y="0" width="30" height="30"></rect>
                    <path d="M9.95448,11.95896 L10.08282,14.42928 C10.0911852,14.5882654 10.036021,14.7440575 9.92947344,14.8623536 C9.82292592,14.9806497 9.67373146,15.0517502 9.51474,15.06 C9.50418,15.0606 9.49368,15.0606 9.48312,15.0606 C9.16405114,15.0602609 8.90105569,14.8102623 8.88456,14.49162 L8.75598,12.01962 C8.69313054,10.7476285 7.64212045,9.74936702 6.36858,9.75204 L4.31058,9.75204 C3.03636956,9.75191806 1.98462205,10.7484533 1.9161,12.02082 L1.788,14.49138 C1.77150431,14.8100223 1.50850886,15.0600209 1.18944,15.06036 C1.17894,15.06036 1.16838,15.06036 1.15782,15.05976 C0.998872358,15.0515091 0.849715768,14.9804421 0.743175114,14.8621986 C0.63663446,14.7439552 0.581440584,14.5882251 0.58974,14.42928 L0.71838,11.95728 C0.820532167,10.0476949 2.3987446,8.55171676 4.31106,8.5517953 L6.36906,8.5517953 C8.2819363,8.54873263 9.86007782,10.0484121 9.95448,11.95896 Z M1.65762,3.88884 C1.65752293,2.40040519 2.55405972,1.05847729 3.92916632,0.488810686 C5.30427291,-0.0808559191 6.88713728,0.233928307 7.93965395,1.28637633 C8.99217062,2.33882436 9.30705808,3.92166819 8.73748116,5.29681194 C8.16790424,6.67195568 6.82603481,7.56858 5.3376,7.56858 C3.30621516,7.5663647 1.65996779,5.92022469 1.65762,3.88884 Z M2.85761998,3.88884 C2.85749866,4.89192557 3.46164945,5.79630834 4.38834485,6.18025665 C5.31504025,6.56420496 6.38177307,6.35210245 7.09110458,5.64285674 C7.8004361,4.93361104 8.01266765,3.86690389 7.62883145,2.94016205 C7.24499525,2.0134202 6.34068558,1.40916 5.3376,1.40916 C3.96862394,1.41051576 2.85914137,2.51986411 2.85761998,3.88884 Z M15.76362,9.58884 L14.23662,9.58884 C12.7354267,9.58893833 11.496639,10.7634409 11.41662,12.2625 L11.32116,14.09646 C11.3038742,14.4273403 11.5580626,14.7095987 11.88894,14.72694 C11.89974,14.72754 11.9103,14.72754 11.92086,14.72754 C12.2398837,14.7271707 12.5028348,14.4772156 12.51936,14.15862 L12.61488,12.3258 C12.6612406,11.4639224 13.3736165,10.7888375 14.23674,10.78884 L15.76374,10.78884 C16.6265483,10.7887194 17.3388368,11.4632999 17.3856,12.32484 L17.48052,14.15886 C17.4972289,14.4774895 17.7602529,14.7273887 18.07932,14.72778 C18.08988,14.72778 18.10044,14.72778 18.111,14.72718 C18.4419535,14.7098345 18.6962966,14.4276726 18.67932,14.0967 L18.5844,12.26154 C18.5033396,10.7627577 17.2644727,9.5889765 15.7635,9.58884 L15.76362,9.58884 Z M12.11496,6.28416 C12.11496,5.11721079 12.8179197,4.06516917 13.8960448,3.61860825 C14.9741699,3.17204733 16.2151381,3.41891137 17.0402786,4.24408623 C17.8654192,5.06926109 18.1122316,6.31023952 17.6656258,7.38834608 C17.2190201,8.46645264 16.1669492,9.16932 15,9.16932 C13.4073377,9.16746845 12.1166916,7.8768223 12.11484,6.28416 L12.11496,6.28416 Z M13.31496,6.28416 C13.31496,6.96575452 13.725549,7.58023259 14.3552649,7.84105631 C14.9849808,8.10188003 15.7098075,7.9576829 16.1917505,7.47570563 C16.6736934,6.99372837 16.8178389,6.26889133 16.5569704,5.63919403 C16.2961018,5.00949674 15.6815945,4.59895146 15,4.599 C14.0697094,4.59995908 13.3157991,5.35386938 13.31484,6.28416 L13.31496,6.28416 Z M29.28234,11.95608 C29.17948,10.0468831 27.6013257,8.55158571 25.68936,8.55173392 L23.63136,8.55173392 C21.7188678,8.54825056 20.1406173,10.0470934 20.04546,11.95722 L19.91712,14.42922 C19.9000069,14.7603394 20.1544509,15.042688 20.48556,15.06 C20.49612,15.0606 20.50662,15.0606 20.51718,15.0606 C20.8362681,15.0601785 21.0993015,14.810269 21.11604,14.49162 L21.24432,12.01782 C21.3077919,10.7465067 22.3585264,9.74914752 23.63142,9.75198 L25.68942,9.75198 C26.9631383,9.75174643 28.0146186,10.7477013 28.08342,12.01956 L28.2123,14.49156 C28.2290089,14.8102226 28.4920598,15.0601487 28.81116,15.0606 C28.82166,15.0606 28.83222,15.0606 28.84278,15.05994 C29.1736496,15.0424004 29.4279002,14.7603711 29.41116,14.42946 L29.28234,11.95608 Z M21.96594,1.16868 C22.6952527,0.492801918 23.6700877,0.146020894 24.6624,0.20946 C25.6548752,0.145999237 26.6298324,0.493098065 27.35892,1.16946 C28.39248,2.22126 28.3638,3.82434 28.34622,4.78182 L28.34268,6.96912 C28.34268,7.30049085 28.0740508,7.56912 27.74268,7.56912 L24.66468,7.56912 L24.66264,7.56864 L24.6606,7.56912 L21.5826,7.56912 C21.2512292,7.56912 20.9826,7.30049085 20.9826,6.96912 L20.97852,4.78122 C20.9613,3.82326 20.93262,2.22072 21.96564,1.16838 L21.96594,1.16868 Z M22.17864,4.75986 L22.18272,6.36888 L24.66072,6.36888 L24.66276,6.3693 L24.6648,6.36888 L27.1428,6.36888 L27.14688,4.75986 C27.16158,3.94074 27.18384,2.70264 26.50296,2.01006 C25.9954021,1.57016736 25.3318504,1.35362723 24.66252,1.40946 C23.9933201,1.3538623 23.3299301,1.5701334 22.82208,2.00946 C22.14138,2.70234 22.164,3.94044 22.17834,4.75956 L22.17864,4.75986 Z" id="Shape" fill="#8E8E8E" fill-rule="nonzero"></path>
                    <rect id="Rectangle" fill="#F8F8F8" x="0" y="0" width="30" height="30"></rect>
                    <path d="M5.625,26.7188 C5.625,26.9776 5.41513,27.1875 5.15625,27.1875 C4.89737,27.1875 4.6875,26.9776 4.6875,26.7188 C4.6875,26.4599 4.89737,26.25 5.15625,26.25 C5.41513,26.25 5.625,26.4599 5.625,26.7188 Z" id="Path" fill="#8E8E8E" fill-rule="nonzero"></path>
                    <path d="M25.3125,1.40625 C25.3125,1.28193 25.2631,1.1627 25.1752,1.07479 C25.0873,0.986886 24.9681,0.9375 24.8438,0.9375 L8.90625,0.9375 C8.84469,0.9375 8.78374,0.94962 8.72686,0.973176 C8.66999,0.996731 8.61831,1.03126 8.57479,1.07479 L4.82479,4.82479 C4.78126,4.86831 4.74673,4.91999 4.72318,4.97686 C4.69962,5.03374 4.6875,5.09469 4.6875,5.15625 L4.6875,26.7188 C4.6875,26.4599 4.89737,26.25 5.15625,26.25 L5.625,26.25 L5.625,5.625 L8.90625,5.625 C9.03057,5.625 9.1498,5.57561 9.23771,5.48771 C9.32561,5.3998 9.375,5.28057 9.375,5.15625 L9.375,1.875 L22.5,1.875 L22.5,26.25 L23.4375,26.25 L23.4375,1.875 L24.375,1.875 L24.375,26.25 L5.625,26.25 L5.625,26.7188 C5.625,26.9776 5.41513,27.1875 5.15625,27.1875 L25.3125,27.1875 L25.3125,1.40625 Z M8.4375,2.53793 L6.28793,4.6875 L8.4375,4.6875 L8.4375,2.53793 Z" id="Shape" fill="#8E8E8E"></path>
                    <path d="M5.15625,26.25 C5.41513,26.25 5.625,26.4599 5.625,26.7188 L5.625,26.25 L5.15625,26.25 Z" id="Path" fill="#8E8E8E" fill-rule="nonzero"></path>
                    <path d="M20.625,9.375 C20.7493,9.375 20.8685,9.32561 20.9565,9.23771 C21.0444,9.1498 21.0938,9.03057 21.0938,8.90625 L21.0938,3.75 C21.0938,3.62568 21.0444,3.50645 20.9565,3.41854 C20.8685,3.33064 20.7493,3.28125 20.625,3.28125 L15.9375,3.28125 C15.8132,3.28125 15.694,3.33064 15.606,3.41854 C15.5181,3.50645 15.4688,3.62568 15.4688,3.75 L15.4688,8.90625 C15.4688,9.03057 15.5181,9.1498 15.606,9.23771 C15.694,9.32561 15.8132,9.375 15.9375,9.375 L20.625,9.375 Z M17.3438,8.4375 C17.3439,8.26989 17.3889,8.10536 17.4741,7.96102 C17.5593,7.81668 17.6816,7.69777 17.8283,7.61666 C17.8908,7.582 17.9447,7.53348 17.9856,7.47482 C18.0265,7.41615 18.0535,7.34889 18.0644,7.2782 C18.0753,7.2075 18.0699,7.13525 18.0486,7.06696 C18.0273,6.99867 17.9907,6.93617 17.9415,6.88424 C17.8783,6.81777 17.836,6.73423 17.8199,6.64398 C17.8037,6.55373 17.8144,6.46072 17.8506,6.37647 C17.8867,6.29222 17.9468,6.22042 18.0234,6.16997 C18.0999,6.11953 18.1896,6.09264 18.2813,6.09264 C18.373,6.09264 18.4627,6.11953 18.5392,6.16997 C18.6158,6.22042 18.6759,6.29222 18.712,6.37647 C18.7482,6.46072 18.7589,6.55373 18.7427,6.64398 C18.7266,6.73423 18.6843,6.81777 18.6212,6.88424 C18.572,6.93617 18.5353,6.99867 18.514,7.06696 C18.4927,7.13525 18.4873,7.2075 18.4982,7.2782 C18.5091,7.34889 18.5361,7.41615 18.577,7.47482 C18.618,7.53348 18.6718,7.582 18.7344,7.61666 C18.881,7.69779 19.0033,7.8167 19.0885,7.96104 C19.1736,8.10538 19.2186,8.2699 19.2188,8.4375 L17.3438,8.4375 Z M16.4062,4.21875 L20.1562,4.21875 L20.1562,8.4375 C20.1562,8.18604 20.1056,7.93715 20.0074,7.70564 C19.9093,7.47413 19.7655,7.26471 19.5848,7.08984 C19.6712,6.87638 19.7037,6.64499 19.6797,6.41599 C19.6557,6.187 19.5758,5.9674 19.4471,5.77649 C19.3183,5.58559 19.1447,5.42921 18.9414,5.3211 C18.7381,5.21299 18.5114,5.15645 18.2811,5.15645 C18.0509,5.15645 17.8241,5.21299 17.6209,5.3211 C17.4176,5.42921 17.2439,5.58559 17.1152,5.77649 C16.9865,5.9674 16.9066,6.187 16.8826,6.41599 C16.8585,6.64499 16.8911,6.87638 16.9774,7.08984 C16.7968,7.26473 16.6531,7.47416 16.555,7.70567 C16.4569,7.93718 16.4063,8.18605 16.4062,8.4375 L16.4062,4.21875 Z" id="Shape" fill="#8E8E8E" fill-rule="nonzero"></path>
                    <polygon id="Path" fill="#8E8E8E" fill-rule="nonzero" points="10.7812 4.6875 13.125 4.6875 13.125 5.625 10.7812 5.625"></polygon>
                    <polygon id="Path" fill="#8E8E8E" fill-rule="nonzero" points="7.03125 8.4375 10.3125 8.4375 10.3125 9.375 7.03125 9.375"></polygon>
                    <polygon id="Path" fill="#8E8E8E" fill-rule="nonzero" points="7.03125 6.5625 13.125 6.5625 13.125 7.5 7.03125 7.5"></polygon>
                    <polygon id="Path" fill="#8E8E8E" fill-rule="nonzero" points="7.03125 10.3125 21.0938 10.3125 21.0938 11.25 7.03125 11.25"></polygon>
                    <polygon id="Path" fill="#8E8E8E" fill-rule="nonzero" points="10.3125 15.9375 11.7188 15.9375 11.7188 16.875 10.3125 16.875"></polygon>
                    <polygon id="Path" fill="#8E8E8E" fill-rule="nonzero" points="7.03125 12.1875 11.7188 12.1875 11.7188 13.125 7.03125 13.125"></polygon>
                    <polygon id="Path" fill="#8E8E8E" fill-rule="nonzero" points="14.0625 12.1875 21.0938 12.1875 21.0938 13.125 14.0625 13.125"></polygon>
                    <polygon id="Path" fill="#8E8E8E" fill-rule="nonzero" points="14.0625 14.0625 18.2812 14.0625 18.2812 15 14.0625 15"></polygon>
                    <polygon id="Path" fill="#8E8E8E" fill-rule="nonzero" points="19.2188 14.0625 21.0938 14.0625 21.0938 15 19.2188 15"></polygon>
                    <polygon id="Path" fill="#8E8E8E" fill-rule="nonzero" points="14.0625 15.9375 19.6875 15.9375 19.6875 16.875 14.0625 16.875"></polygon>
                    <polygon id="Path" fill="#8E8E8E" fill-rule="nonzero" points="14.0625 17.8125 19.2188 17.8125 19.2188 18.75 14.0625 18.75"></polygon>
                    <polygon id="Path" fill="#8E8E8E" fill-rule="nonzero" points="7.03125 14.0625 8.4375 14.0625 8.4375 15 7.03125 15"></polygon>
                    <polygon id="Path" fill="#8E8E8E" fill-rule="nonzero" points="10.7812 17.8125 11.7188 17.8125 11.7188 18.75 10.7812 18.75"></polygon>
                    <polygon id="Path" fill="#8E8E8E" fill-rule="nonzero" points="9.375 14.0625 11.7188 14.0625 11.7188 15 9.375 15"></polygon>
                    <polygon id="Path" fill="#8E8E8E" fill-rule="nonzero" points="14.0625 19.6875 19.6875 19.6875 19.6875 20.625 14.0625 20.625"></polygon>
                    <polygon id="Path" fill="#8E8E8E" fill-rule="nonzero" points="14.0625 21.5625 21.0938 21.5625 21.0938 22.5 14.0625 22.5"></polygon>
                    <polygon id="Path" fill="#8E8E8E" fill-rule="nonzero" points="7.03125 23.7305 21.0938 23.7305 21.0938 24.668 7.03125 24.668"></polygon>
                    <polygon id="Path" fill="#8E8E8E" fill-rule="nonzero" points="10.3125 19.6875 11.7188 19.6875 11.7188 20.625 10.3125 20.625"></polygon>
                    <polygon id="Path" fill="#8E8E8E" fill-rule="nonzero" points="8.90625 21.5625 11.7188 21.5625 11.7188 22.5 8.90625 22.5"></polygon>
                    <polygon id="Path" fill="#8E8E8E" fill-rule="nonzero" points="11.25 8.4375 13.125 8.4375 13.125 9.375 11.25 9.375"></polygon>
                </g>
                <g id="noun_Family_3320240"></g>
            </g>
            <g id="Group-273" transform="translate(4.000000, 0.000000)"></g>
        </g>
    </g>
</svg>